g Bottiglia_cell.010
v 0.2164632 -0.1145819 0.265019
v 0.1743123 -0.121217 0.22732
v 0.1708877 -0.1116139 0.2566858
v 0.2799464 -0.1841437 0.06399593
v 0.2811308 -0.1874113 0.05395046
v 0.2811308 -0.2440454 -0.1280376
v 0.2028505 -0.2012095 -0.01997772
v 0.1743123 -0.121217 0.22732
v 0.2811308 -0.2440454 -0.1280376
v 0.2023511 -0.2705859 -0.2442451
v 0.2023511 -0.3140067 -0.3844247
v 0.2811308 -0.3323426 -0.413177
v 0.170003 -0.1091453 0.2642342
v 0.2164632 -0.1145819 0.265019
v 0.1708877 -0.1116139 0.2566858
v 0.2023511 -0.3180449 -0.4176432
v 0.2811308 -0.3294887 -0.4495204
v 0.2023511 -0.308242 -0.4149606
v 0.2799464 -0.1841437 0.06399593
v 0.2164632 -0.1145819 0.265019
v 0.25479 -0.1150099 0.2181735
v 0.2535058 -0.1114855 0.2253223
v 0.2229985 -0.1097732 0.2647907
v 0.2332009 -0.05569327 0.2668026
v 0.2229985 -0.1097732 0.2647907
v 0.2164632 -0.1145819 0.265019
v 0.2300759 -0.04710329 0.2674733
v 0.2332009 -0.05569327 0.2668026
v 0.2229985 -0.1097732 0.2647907
v 0.2535058 -0.1114855 0.2253223
v 0.25479 -0.1150099 0.2181735
v 0.2164632 -0.1145819 0.265019
v -0.2605099 0.1881513 0.2272772
v -0.1883368 0.1755089 0.2663175
v -0.09936902 0.1598272 0.2676587
v -0.2605099 0.1874093 -0.10017
v -0.0996972 0.1589139 -0.1664357
v 0.04233742 0.07800815 0.2678585
v 0.02970925 0.08531395 0.2678442
v 0.04160967 0.07713774 -0.2416767
v 0.04517695 0.0728713 -0.2442451
v 0.09363481 0.01687935 0.2668739
v 0.1475149 -0.0473316 0.2658466
v 0.1465161 -0.04791662 -0.2442451
v 0.170003 -0.1091453 0.2642342
v 0.1708877 -0.1116139 0.2566858
v 0.1743123 -0.121217 0.22732
v 0.1465161 -0.04791662 -0.3168463
v 0.2028505 -0.2012095 -0.01997772
v 0.2023511 -0.2012952 -0.2442451
v 0.2023511 -0.2012952 -0.382898
v 0.2023511 -0.2705859 -0.2442451
v 0.2023511 -0.308242 -0.4149606
v 0.2023511 -0.3140067 -0.3844247
v 0.2023511 -0.3180449 -0.4176432
v 0.2023511 -0.3203708 -0.4052862
v 0.2023511 -0.308242 -0.4149606
v 0.2811308 -0.3294887 -0.4495204
v 0.2811308 -0.1874113 -0.4070127
v 0.2158068 -0.007906079 -0.329717
v 0.2023511 -0.2012952 -0.382898
v 0.09302124 0.1384093 -0.2417623
v 0.1465161 -0.04791662 -0.3168463
v 0.04517695 0.0728713 -0.2442451
v -0.07240042 0.2339123 -0.1537363
v 0.04160967 0.07713774 -0.2416767
v -0.0996972 0.1589139 -0.1664357
v -0.2605099 0.267088 -0.07626933
v -0.2605099 0.1874093 -0.10017
v -0.4214083 0.1591565 -0.0508846
v -0.4486195 0.2339123 -0.01869351
v -0.447906 0.1438601 -0.04594749
v -0.4787843 0.216504 -0.01308575
v 0.2158068 -0.007906079 0.2684578
v 0.2300759 -0.04710329 0.2674733
v 0.2164632 -0.1145819 0.265019
v 0.09363481 0.01687935 0.2668739
v 0.09302124 0.1384093 0.2707979
v 0.04233742 0.07800815 0.2678585
v -0.07240042 0.2339123 0.2706695
v 0.02970925 0.08531395 0.2678442
v -0.116392 0.2416747 0.270056
v 0.09363481 0.01687935 0.2668739
v 0.170003 -0.1091453 0.2642342
v 0.1475149 -0.0473316 0.2658466
v 0.2811308 -0.3294887 -0.4495204
v 0.2811308 -0.3348111 -0.4212676
v 0.2811308 -0.3323426 -0.413177
v 0.2811308 -0.2440454 -0.1280376
v 0.2811308 -0.1874113 -0.4070127
v 0.2811308 -0.1874113 0.05395046
v 0.2158068 -0.007906079 -0.329717
v 0.2799464 -0.1841437 0.06399593
v 0.25479 -0.1150099 0.2181735
v 0.2535058 -0.1114855 0.2253223
v 0.2332009 -0.05569327 0.2668026
v 0.2300759 -0.04710329 0.2674733
v 0.2158068 -0.007906079 0.2684578
v 0.09302124 0.1384093 0.2707979
v 0.09302124 0.1384093 -0.2417623
v -0.07240042 0.2339123 0.2706695
v -0.07240042 0.2339123 -0.1537363
v -0.2605099 0.267088 -0.07626933
v -0.2605099 0.267088 0.2293747
v -0.1872667 0.2541744 0.269
v -0.116392 0.2416747 0.270056
v -0.116392 0.2416747 0.270056
v 0.02970925 0.08531395 0.2678442
v -0.09936902 0.1598272 0.2676587
v -0.1883368 0.1755089 0.2663175
v -0.1872667 0.2541744 0.269
v -0.4559823 0.1395508 0.08868143
v -0.4834218 0.2138214 0.06526586
v -0.485605 0.2125657 0.1050053
v -0.4576375 0.1386661 0.1182185
v 0.2811308 -0.3294887 -0.4495204
v 0.2023511 -0.3180449 -0.4176432
v 0.2023511 -0.3203708 -0.4052862
v 0.2811308 -0.3348111 -0.4212676
v -0.2605099 0.267088 -0.07626933
v -0.2605099 0.267088 0.2293747
v -0.4514305 0.2322999 0.1242971
v -0.4486195 0.2339123 -0.01869351
v -0.4787843 0.216504 -0.01308575
v -0.4834218 0.2138214 0.06526586
v -0.485605 0.2125657 0.1050053
v -0.4559823 0.1395508 0.08868143
v -0.4576375 0.1386661 0.1182185
v -0.421551 0.1595561 0.1385805
v -0.447906 0.1438601 -0.04594749
v -0.4214083 0.1591565 -0.0508846
v -0.2605099 0.1881513 0.2272772
v -0.2605099 0.1874093 -0.10017
v -0.3926703 0.1646787 0.1545476
v -0.447906 0.1438601 -0.04594749
v -0.4787843 0.216504 -0.01308575
v -0.4834218 0.2138214 0.06526586
v -0.4559823 0.1395508 0.08868143
v -0.4514305 0.2322999 0.1242971
v -0.3926703 0.1646787 0.1545476
v -0.421551 0.1595561 0.1385805
v -0.4576375 0.1386661 0.1182185
v -0.485605 0.2125657 0.1050053
v 0.2023511 -0.3140067 -0.3844247
v 0.2811308 -0.3323426 -0.413177
v 0.2811308 -0.3348111 -0.4212676
v 0.2023511 -0.3203708 -0.4052862
v -0.2605099 0.267088 0.2293747
v -0.1872667 0.2541744 0.269
v -0.1883368 0.1755089 0.2663175
v -0.2605099 0.1881513 0.2272772
v -0.4514305 0.2322999 0.1242971
v -0.3926703 0.1646787 0.1545476
vt -1.862645E-07 -1.862645E-07
vt 0.08109412 0.08109412
vt 0.07669744 -1.862645E-07
vt 0.5520273 0.5520273
vt 0.5622862 0.5432339
vt 0.5642403 -1.862645E-07
vt 0.4430874 0.3414752
vt 0.08109412 -1.862645E-07
vt 0.5642403 0.5642403
vt 0.7860283 0.6218857
vt 1 0.7972643
vt 1 0.9213483
vt 0.8861749 0.8861749
vt 1 1
vt 1 0.9233024
vt 0.322423 0.322423
vt 0.7371764 0.7371764
vt 1 0.7972643
vt 1 0.5520273
vt 1 -1.862645E-07
vt 0.6668295 -1.862645E-07
vt 1 0.2808987
vt 1 -1.862645E-07
vt 0.8734734 -1.862645E-07
vt -1.862645E-07 -1.862645E-07
vt 1 1
vt 1 0.8436737
vt 0.1265265 -1.862645E-07
vt -1.862645E-07 -1.862645E-07
vt 0.2808987 0.2808987
vt 1 0.3331704
vt 1 -1.862645E-07
vt 1 0.9233024
vt 0.9750856 0.9306302
vt 0.9443088 0.9311187
vt 1 0.8607719
vt 0.9443088 0.8480704
vt 0.889106 0.9311187
vt 0.8939912 0.9311187
vt 0.889106 0.8339033
vt 0.887152 0.8334148
vt 0.8617489 0.9311187
vt 0.8334148 0.9306302
vt 0.8334148 0.8334148
vt 0.8109428 0.9306302
vt 0.8099658 0.9291646
vt 0.8065462 0.9233024
vt 0.8334148 0.8197362
vt 0.7777235 0.8764045
vt 0.7777235 0.8334148
vt 0.7777235 0.8075232
vt 0.7542745 0.8334148
vt 0.741573 0.8011724
vt 0.739619 0.8070347
vt 0.7381534 0.8006839
vt 0.7371764 0.8031265
vt 0.7972643 0.7972643
vt 0.9213483 0.9213483
vt 0.9413777 0.7713727
vt 0.8646801 0.4968246
vt 0.8490474 0.7928676
vt 0.7205667 0.2730824
vt 0.7835857 0.558378
vt 0.6648754 0.3737175
vt 0.5266243 0.1275035
vt 0.6604787 0.3668783
vt 0.4948705 0.2423057
vt 0.3063018 0.07669744
vt 0.3063018 0.1988274
vt 0.765022 0.05764516
vt 0.9208598 0.06546148
vt 0.6619443 -1.862645E-07
vt 0.803615 -1.862645E-07
vt 0.7982413 0.752809
vt 0.8436737 0.8436737
vt 1 1
vt 1 0.6951637
vt 0.7694187 0.4132877
vt 0.9882756 0.5534928
vt 0.9252565 0.1919881
vt 1 0.5363947
vt 1 0.1739129
vt 0.6951637 0.6951637
vt 1 0.8861749
vt 0.8461163 0.8290181
vt 0.7376649 0.7953102
vt 0.7347338 0.8001954
vt 0.7357108 0.801661
vt 0.7611138 0.8549097
vt 0.7777235 0.802638
vt 0.7777235 0.889106
vt 0.8334148 0.8172936
vt 0.7787005 0.8910601
vt 0.8001954 0.9198828
vt 0.8011724 0.9213483
vt 0.8187592 0.9291646
vt 0.8212018 0.9291646
vt 0.8334148 0.9291646
vt 0.889106 0.9296532
vt 0.889106 0.8339033
vt 0.9443088 0.9296532
vt 0.9443088 0.850513
vt 1 0.8646801
vt 1 0.9218369
vt 0.9785052 0.9296532
vt 0.9574988 0.9296532
vt 0.1739129 0.1739129
vt 0.5363947 0.5363947
vt 0.3820224 0.2183682
vt 0.3683438 -1.862645E-07
vt 0.1631655 -1.862645E-07
vt 0.5476306 0.5476306
vt 0.7366878 0.7366878
vt 0.7337567 -1.862645E-07
vt 0.5456765 -1.862645E-07
vt 1 0.7371764
vt 1 0.322423
vt 0.6775769 -1.862645E-07
vt 0.2628235 -1.862645E-07
vt -1.862645E-07 0.8646801
vt -1.862645E-07 0.9218369
vt 0.05569108 0.9027846
vt 0.05569108 0.8754275
vt 0.06546148 0.8764045
vt 0.06741556 0.8910601
vt 0.06790408 0.8988764
vt 0.06888112 0.8969223
vt 0.06985816 0.9027846
vt 0.05569108 0.9066927
vt 0.06595 0.8710308
vt 0.05569108 0.8700538
vt -1.862645E-07 0.9233024
vt -1.862645E-07 0.8607719
vt 0.04543217 0.9096239
vt 1 0.3380556
vt 1 0.1963848
vt 0.7366878 -1.862645E-07
vt 0.5476306 -1.862645E-07
vt 0.7787005 -1.862645E-07
vt 0.6028334 -1.862645E-07
vt 0.7664875 0.1729359
vt 1 0.4543233
vt 1 0.2662432
vt 0.7972643 0.7972643
vt 0.9213483 0.9213483
vt 1 0.7371764
vt 1 0.322423
vt 0.8705423 0.2169026
vt 0.8368344 -1.862645E-07
vt 0.6316561 -1.862645E-07
vt 0.6643869 0.213483
vt 0.7787005 0.7787005
vt 0.6028334 0.6028334
vn -0.1137246 -0.9529339 0.2810404
vn -0.1137246 -0.9450908 0.3063822
vn -0.1137246 -0.9450908 0.3063822
vn -0.1058815 -0.9529339 0.2840882
vn -0.1058815 -0.9529339 0.2840882
vn -0.1058815 -0.9529339 0.2840882
vn -0.1137246 -0.9529339 0.2810404
vn -0.1137246 -0.9529339 0.2810404
vn -0.1137246 -0.9529339 0.2810404
vn -0.1137246 -0.9529339 0.2810404
vn -0.1137246 -0.9529339 0.2810404
vn -0.1137246 -0.9529339 0.2810404
vn -0.1137246 -0.9450908 0.3063822
vn -0.1137246 -0.9450908 0.3063822
vn -0.1137246 -0.9450908 0.3063822
vn -0.3333308 0.2470568 -0.9098646
vn -0.3333308 0.2470568 -0.9098646
vn -0.3333308 0.2470568 -0.9098646
vn 0.5058785 -0.756857 0.413829
vn 0.5058785 -0.756857 0.413829
vn 0.5058785 -0.756857 0.413829
vn 0.7725431 -0.1686262 0.612162
vn 0.7725431 -0.1686262 0.612162
vn 0.7725431 -0.1686262 0.612162
vn 0.07450926 -0.05098003 0.9959164
vn 0.07450926 -0.05098003 0.9959164
vn 0.07450926 -0.05098003 0.9959164
vn 0.07450926 -0.05098003 0.9959164
vn 0.5372508 -0.7097985 0.4555739
vn 0.5372508 -0.7097985 0.4555739
vn 0.5372508 -0.7097985 0.4555739
vn 0.5372508 -0.7097985 0.4555739
vn -0.05872193 -0.9982743 0
vn -0.1764692 -0.9843062 0
vn -0.3411738 -0.9372478 0.07188273
vn -0.03527213 -0.9993777 0
vn -0.3803892 -0.9215616 0.07764209
vn -0.6392107 -0.7647001 0.08150788
vn -0.4980353 -0.8666601 0.02934566
vn -0.6784261 -0.7333277 0.04436647
vn -0.7646999 -0.6392108 0.08150806
vn -0.7646999 -0.6392108 0.08150806
vn -0.86666 -0.4980354 0.02934592
vn -0.86666 -0.4980354 0.02934592
vn -0.9372476 -0.3411739 0.07188372
vn -0.9372476 -0.3411739 0.07188372
vn -0.9372476 -0.3411739 0.07188372
vn -0.8888779 -0.4581442 0
vn -0.9510053 -0.3091746 0
vn -0.9843061 -0.1764693 -0.000342559
vn -0.9905662 -0.1370349 0
vn -0.9999923 0.003921509 -0.0003449296
vn -0.9999923 0.003921509 -0.0003449296
vn -0.9999923 0.003921509 -0.0003449296
vn -0.9999923 0.003921509 -0.0003449296
vn -0.9999923 0.003921509 -0.0003449296
vn -0.3254876 0.2705861 -0.9060028
vn -0.3254876 0.2705861 -0.9060028
vn -0.3254876 0.2705861 -0.9060028
vn -0.3254876 0.2705861 -0.9060028
vn -0.3254876 0.2705861 -0.9060028
vn -0.3254876 0.2705861 -0.9060028
vn -0.3254876 0.2705861 -0.9060028
vn -0.3254876 0.2705861 -0.9060028
vn -0.3254876 0.2705861 -0.9060028
vn -0.3254876 0.2705861 -0.9060028
vn -0.3254876 0.2705861 -0.9060028
vn -0.3254876 0.2705861 -0.9060028
vn -0.3254876 0.2705861 -0.9060028
vn -0.3254876 0.2705861 -0.9060028
vn -0.3254876 0.2705861 -0.9060028
vn -0.3254876 0.2705861 -0.9060028
vn -0.3254876 0.2705861 -0.9060028
vn -0.01960766 -0.03529388 0.9991846
vn -0.01960766 -0.03529388 0.9991846
vn -0.01960766 -0.03529388 0.9991846
vn -0.01960766 -0.03529388 0.9991846
vn -0.01960766 -0.03529388 0.9991846
vn -0.01960766 -0.03529388 0.9991846
vn -0.01960766 -0.03529388 0.9991846
vn -0.01960766 -0.03529388 0.9991846
vn -0.01960766 -0.03529388 0.9991846
vn -0.01960766 -0.03529388 0.9991846
vn -0.01960766 -0.03529388 0.9991846
vn -0.01960766 -0.03529388 0.9991846
vn 0.9999924 0.003921509 0
vn 0.9999924 0.003921509 0
vn 0.9999924 0.003921509 0
vn 0.9999924 0.003921509 0
vn 0.9905663 0.1370348 0
vn 0.9510054 0.3091745 0
vn 0.888878 0.4581441 0
vn 0.9372478 0.3411738 -0.07188263
vn 0.9372478 0.3411738 -0.07188263
vn 0.9372478 0.3411738 -0.07188263
vn 0.9372478 0.3411738 -0.07188263
vn 0.9372478 0.3411738 -0.07188263
vn 0.8666601 0.4980353 -0.02934592
vn 0.6392108 0.7646999 -0.08150824
vn 0.6784262 0.7333276 -0.04436714
vn 0.3411739 0.9372476 -0.07188356
vn 0.3803893 0.9215615 -0.07764286
vn 0.03527219 0.9993777 0
vn 0.05091431 0.998703 0
vn 0.1764693 0.9843061 -0.000345267
vn 0.1764693 0.9843061 -0.000345267
vn -0.01960766 -0.03529388 0.9991846
vn -0.01960766 -0.03529388 0.9991846
vn -0.01960766 -0.03529388 0.9991846
vn -0.01960766 -0.03529388 0.9991846
vn -0.01960766 -0.03529388 0.9991846
vn -0.9294046 -0.3647031 -0.0565569
vn -0.9294046 -0.3647031 -0.0565569
vn -0.9294046 -0.3647031 -0.0565569
vn -0.9294046 -0.3647031 -0.0565569
vn -0.2156845 -0.960777 -0.1743208
vn -0.2156845 -0.960777 -0.1743208
vn -0.2156845 -0.960777 -0.1743208
vn -0.2156845 -0.960777 -0.1743208
vn 0.03527219 0.9993777 0
vn 0.05091431 0.998703 0
vn -0.2941153 0.9529338 0.0735759
vn -0.3176446 0.9450908 0.07684615
vn -0.4980353 0.86666 -0.02934769
vn -0.4980353 0.86666 -0.02934769
vn -0.4980353 0.86666 -0.02934769
vn 0.4980354 -0.8666601 0.02934363
vn 0.4980354 -0.8666601 0.02934363
vn 0.2941154 -0.9529339 0.07357387
vn 0.4980354 -0.8666601 0.02934363
vn 0.3176447 -0.9450908 0.07684498
vn -0.05872193 -0.9982743 0
vn -0.03527213 -0.9993777 0
vn 0.1764693 -0.9843062 0
vn -0.9294046 -0.3647031 -0.0565569
vn -0.9294046 -0.3647031 -0.0565569
vn -0.9294046 -0.3647031 -0.0565569
vn -0.9294046 -0.3647031 -0.0565569
vn -0.4823492 -0.0274508 0.8755488
vn -0.4823492 -0.0274508 0.8755488
vn -0.4823492 -0.0274508 0.8755488
vn -0.4823492 -0.0274508 0.8755488
vn -0.4823492 -0.0274508 0.8755488
vn -0.1137246 -0.9529339 0.2810404
vn -0.1137246 -0.9529339 0.2810404
vn -0.1137246 -0.9529339 0.2810404
vn -0.1137246 -0.9529339 0.2810404
vn -0.4823492 -0.01960772 0.8757596
vn -0.4823492 -0.01960772 0.8757596
vn -0.4823492 -0.01960772 0.8757596
vn -0.4823492 -0.01960772 0.8757596
vn -0.4823492 -0.01960772 0.8757596
vn -0.4823492 -0.01960772 0.8757596
g Bottiglia_cell.010_0
f 3/3/3 2/2/2 1/1/1
f 5/5/5 4/4/4 1/1/1
f 6/6/6 5/5/5 1/1/1
f 1/1/1 8/8/8 7/7/7
f 9/9/9 1/1/1 7/7/7
f 9/9/9 7/7/7 10/10/10
f 9/9/9 10/10/10 11/11/11
f 11/11/11 12/12/12 9/9/9
f 15/15/15 14/14/14 13/13/13
f 18/18/18 17/17/17 16/16/16
f 21/21/21 20/20/20 19/19/19
f 24/24/24 23/23/23 22/22/22
f 27/27/27 26/26/26 25/25/25
f 28/28/28 27/27/27 25/25/25
f 31/31/31 30/30/30 29/29/29
f 32/32/32 31/31/31 29/29/29
f 35/35/35 34/34/34 33/33/33
f 35/35/35 33/33/33 36/36/36
f 36/36/36 37/37/37 35/35/35
f 38/38/38 35/35/35 37/37/37
f 38/38/38 39/39/39 35/35/35
f 37/37/37 40/40/40 38/38/38
f 38/38/38 40/40/40 41/41/41
f 42/42/42 38/38/38 41/41/41
f 43/43/43 42/42/42 41/41/41
f 41/41/41 44/44/44 43/43/43
f 45/45/45 43/43/43 44/44/44
f 46/46/46 45/45/45 44/44/44
f 47/47/47 46/46/46 44/44/44
f 48/48/48 44/44/44 41/41/41
f 49/49/49 47/47/47 44/44/44
f 50/50/50 44/44/44 48/48/48
f 44/44/44 50/50/50 49/49/49
f 51/51/51 50/50/50 48/48/48
f 52/52/52 49/49/49 50/50/50
f 52/52/52 50/50/50 51/51/51
f 52/52/52 51/51/51 53/53/53
f 54/54/54 52/52/52 53/53/53
f 54/54/54 53/53/53 55/55/55
f 55/55/55 56/56/56 54/54/54
f 59/59/59 58/58/58 57/57/57
f 57/57/57 60/60/60 59/59/59
f 57/57/57 61/61/61 60/60/60
f 62/62/62 60/60/60 61/61/61
f 61/61/61 63/63/63 62/62/62
f 63/63/63 64/64/64 62/62/62
f 64/64/64 65/65/65 62/62/62
f 64/64/64 66/66/66 65/65/65
f 66/66/66 67/67/67 65/65/65
f 67/67/67 68/68/68 65/65/65
f 67/67/67 69/69/69 68/68/68
f 69/69/69 70/70/70 68/68/68
f 70/70/70 71/71/71 68/68/68
f 70/70/70 72/72/72 71/71/71
f 72/72/72 73/73/73 71/71/71
f 76/76/76 75/75/75 74/74/74
f 74/74/74 77/77/77 76/76/76
f 74/74/74 78/78/78 77/77/77
f 78/78/78 79/79/79 77/77/77
f 78/78/78 80/80/80 79/79/79
f 80/80/80 81/81/81 79/79/79
f 80/80/80 82/82/82 81/81/81
f 84/84/84 76/76/76 83/83/83
f 85/85/85 84/84/84 83/83/83
f 88/88/88 87/87/87 86/86/86
f 86/86/86 89/89/89 88/88/88
f 86/86/86 90/90/90 89/89/89
f 90/90/90 91/91/91 89/89/89
f 91/91/91 90/90/90 92/92/92
f 92/92/92 93/93/93 91/91/91
f 92/92/92 94/94/94 93/93/93
f 92/92/92 95/95/95 94/94/94
f 92/92/92 96/96/96 95/95/95
f 92/92/92 97/97/97 96/96/96
f 92/92/92 98/98/98 97/97/97
f 99/99/99 98/98/98 92/92/92
f 100/100/100 99/99/99 92/92/92
f 101/101/101 99/99/99 100/100/100
f 102/102/102 101/101/101 100/100/100
f 101/101/101 102/102/102 103/103/103
f 103/103/103 104/104/104 101/101/101
f 104/104/104 105/105/105 101/101/101
f 105/105/105 106/106/106 101/101/101
f 109/109/109 108/108/108 107/107/107
f 107/107/107 110/110/110 109/109/109
f 107/107/107 111/111/111 110/110/110
f 114/114/114 113/113/113 112/112/112
f 115/115/115 114/114/114 112/112/112
f 118/118/118 117/117/117 116/116/116
f 119/119/119 118/118/118 116/116/116
f 122/122/122 121/121/121 120/120/120
f 123/123/123 122/122/122 120/120/120
f 122/122/122 123/123/123 124/124/124
f 124/124/124 125/125/125 122/122/122
f 125/125/125 126/126/126 122/122/122
f 129/129/129 128/128/128 127/127/127
f 129/129/129 127/127/127 130/130/130
f 130/130/130 131/131/131 129/129/129
f 132/132/132 129/129/129 131/131/131
f 131/131/131 133/133/133 132/132/132
f 132/132/132 134/134/134 129/129/129
f 137/137/137 136/136/136 135/135/135
f 138/138/138 137/137/137 135/135/135
f 141/141/141 140/140/140 139/139/139
f 139/139/139 142/142/142 141/141/141
f 139/139/139 143/143/143 142/142/142
f 146/146/146 145/145/145 144/144/144
f 147/147/147 146/146/146 144/144/144
f 150/150/150 149/149/149 148/148/148
f 148/148/148 151/151/151 150/150/150
f 148/148/148 152/152/152 151/151/151
f 152/152/152 153/153/153 151/151/151
