g Bottiglia_cell.016
v -0.1508979 -0.07462612 0.1036653
v -0.1624369 -0.05340675 0.1100824
v -0.02943537 -0.1829937 0.08596987
v -0.02943537 -0.1829937 0.08596987
v 0.03437409 -0.1768037 0.1031859
v -0.01542369 -0.1854748 0.08814815
v -0.1779205 -0.01984099 0.1028999
v -0.1624369 -0.05340675 0.1100824
v -0.1779205 -0.01428172 0.08342993
v -0.1779205 -0.01428172 0.08342993
v -0.1508979 -0.07462612 0.1036653
v -0.1779205 -0.009185046 0.06654191
v 0.04100987 0.1338585 0.1872896
v 0.03460118 0.1350107 0.1846824
v -0.01542369 0.1439762 0.1642452
v -0.01542369 0.1469787 -0.2561723
v 0.04100987 0.1372983 -0.2943302
v 0.09063105 0.1086526 -0.2943302
v 0.09063105 0.1050614 0.20808
v 0.02895781 0.1394262 -0.2943302
v 0.1034821 0.08971247 0.2136897
v 0.04238918 0.1410998 -0.3078625
v 0.03781393 0.1410746 -0.3050534
v 0.09703134 0.1162724 -0.3276184
v 0.1238015 0.08370748 -0.3261971
v 0.1308326 0.06669331 -0.3073158
v 0.1274685 0.06475052 -0.2943302
v 0.1317998 0.05284983 -0.2943302
v 0.1274685 0.06104994 0.2235551
v 0.1470646 0.01057932 -0.2484012
v 0.1470646 0.007332921 0.2057924
v 0.1470646 -0.003112763 0.2014695
v 0.1470646 -0.04709899 -0.1963578
v 0.1470646 -0.0497987 0.1819322
v 0.1274685 -0.1012281 -0.1571571
v 0.1274685 -0.1034569 0.1550358
v 0.1009758 -0.1332127 -0.09822561
v 0.09063105 -0.1457106 -0.07514757
v 0.09063105 -0.1471656 0.128375
v 0.04100987 -0.1749366 0.005146235
v 0.04100987 -0.1756515 0.1051792
v -0.01542369 -0.1853739 0.07386735
v -0.01542369 -0.1854748 0.08814815
v -0.02943537 -0.1829937 0.08596987
v 0.03437409 -0.1768037 0.1031859
v 0.06839404 -0.01589653 0.17824
v 0.1470646 -0.003112763 0.2014695
v 0.1470646 -0.0497987 0.1819322
v 0.1274685 -0.1034569 0.1550358
v 0.09063105 -0.1471656 0.128375
v 0.06841928 -0.03581226 0.1699138
v 0.04100987 -0.1756515 0.1051792
v 0.05833524 -0.06351602 0.1560282
v 0.0393362 -0.08609787 0.1422605
v 0.03437409 -0.1768037 0.1031859
v 0.01372665 -0.1008328 0.1302757
v -0.01542369 -0.1059295 0.1215205
v -0.04458246 -0.1007655 0.1170546
v -0.1624369 -0.05340675 0.1100824
v -0.07020885 -0.08595489 0.1174246
v -0.0892247 -0.06331417 0.1225802
v -0.09670991 -0.04272559 0.1294851
v 0.1470646 -0.04709899 -0.1963578
v 0.1470646 0.01057932 -0.2484012
v 0.1317998 0.05284983 -0.2943302
v 0.1274685 -0.1012281 -0.1571571
v 0.1308326 0.06669331 -0.3073158
v 0.1238015 0.08370748 -0.3261971
v 0.1180909 0.06568405 -0.3129003
v -0.028157 0.1446238 -0.2407477
v -0.01542369 0.1469787 -0.2561723
v -0.01542369 0.1439762 0.1642452
v -0.07185727 0.1365414 -0.1876278
v -0.07185727 0.1341865 0.1417138
v -0.1214869 0.1056754 0.1224288
v -0.1214869 0.1073154 -0.1074097
v -0.1583159 0.06187415 0.1087115
v -0.1583159 0.06283295 -0.02524886
v -0.170738 0.02779534 0.1045904
v -0.1779205 0.008451492 0.04901472
v -0.1779205 0.008073032 0.1021767
v -0.1779205 -0.009185046 0.06654191
v -0.1779205 -0.01428172 0.08342993
v -0.1779205 -0.01984099 0.1028999
v 0.1274685 0.06104994 0.2235551
v 0.1470646 0.007332921 0.2057924
v 0.1470646 -0.003112763 0.2014695
v 0.06839404 -0.01589653 0.17824
v 0.06838563 -0.006333917 0.1821929
v 0.05824271 0.02136141 0.1913434
v 0.04983234 0.03135294 0.1935637
v -0.09670991 -0.04272559 0.1294851
v -0.1624369 -0.05340675 0.1100824
v -0.09931713 -0.02820089 0.1349098
v -0.09932554 -0.03555995 0.1318568
v -0.04471701 0.06157139 -0.1412278
v -0.01542369 0.06408608 0.1663478
v -0.01542369 0.06704655 -0.1768878
v -0.04454041 0.0590567 0.1547246
v -0.07042751 0.04635704 -0.0995965
v -0.07014996 0.04436377 0.1447667
v -0.08946016 0.02327058 -0.05703163
v -0.08917421 0.02177352 0.1376852
v -0.0995526 -0.004904151 -0.01865512
v -0.09930873 -0.005989105 0.1343211
v -0.09931713 -0.02820089 0.1349098
v -0.0995526 -0.004904151 -0.01865512
v -0.09950215 -0.03476939 0.01097462
v -0.09932554 -0.03555995 0.1318568
v -0.09670991 -0.04272559 0.1294851
v -0.08934242 -0.06273386 0.02826634
v -0.0892247 -0.06331417 0.1225802
v -0.07028455 -0.08545868 0.03116789
v -0.07020885 -0.08595489 0.1174246
v -0.04462451 -0.1002189 0.01932612
v -0.04458246 -0.1007655 0.1170546
v -0.01542369 -0.105223 -0.005854547
v -0.01542369 -0.1059295 0.1215205
v 0.01380232 -0.09988245 -0.04135469
v 0.01372665 -0.1008328 0.1302757
v 0.03953806 -0.08480267 -0.0828767
v 0.0393362 -0.08609787 0.1422605
v 0.05868846 -0.0618003 -0.1254668
v 0.05833524 -0.06351602 0.1560282
v 0.06841928 -0.03581226 0.1699138
v 0.06266657 -0.05079114 -0.1405045
v 0.06891549 -0.03361717 -0.1639442
v 0.06839404 -0.01589653 0.17824
v 0.06897435 -0.003659427 -0.1936833
v 0.06838563 -0.006333917 0.1821929
v 0.05883145 0.02444804 -0.2111096
v 0.05824271 0.02136141 0.1913434
v 0.04983234 0.03135294 0.1935637
v 0.03970626 0.04729059 -0.2140784
v 0.0392521 0.04400215 0.1889548
v 0.01390326 0.06209284 -0.2022198
v 0.01366776 0.05885485 0.1782316
v 0.009883106 0.06277406 -0.1987548
v -0.01542369 0.06704655 -0.1768878
v -0.01542369 0.06408608 0.1663478
v -0.02943537 -0.1829937 0.08596987
v -0.01542369 -0.1853739 0.07386735
v 0.04100987 -0.1749366 0.005146235
v -0.1508979 -0.07462612 0.1036653
v 0.09063105 -0.1457106 -0.07514757
v -0.04462451 -0.1002189 0.01932612
v 0.1009758 -0.1332127 -0.09822561
v -0.07028455 -0.08545868 0.03116789
v -0.08934242 -0.06273386 0.02826634
v -0.01542369 -0.105223 -0.005854547
v -0.1779205 -0.009185046 0.06654191
v -0.09950215 -0.03476939 0.01097462
v -0.0995526 -0.004904151 -0.01865512
v -0.1779205 0.008451492 0.04901472
v -0.08946016 0.02327058 -0.05703163
v 0.01380232 -0.09988245 -0.04135469
v 0.03953806 -0.08480267 -0.0828767
v 0.05868846 -0.0618003 -0.1254668
v 0.06266657 -0.05079114 -0.1405045
v -0.1583159 0.06283295 -0.02524886
v -0.07042751 0.04635704 -0.0995965
v -0.04471701 0.06157139 -0.1412278
v -0.01542369 0.06704655 -0.1768878
v -0.1214869 0.1073154 -0.1074097
v -0.028157 0.1446238 -0.2407477
v 0.009883106 0.06277406 -0.1987548
v -0.07185727 0.1365414 -0.1876278
v 0.1034821 0.08971247 0.2136897
v 0.1274685 0.06104994 0.2235551
v 0.04983234 0.03135294 0.1935637
v 0.03460118 0.1350107 0.1846824
v 0.0392521 0.04400215 0.1889548
v 0.01366776 0.05885485 0.1782316
v -0.01542369 0.1439762 0.1642452
v -0.01542369 0.06408608 0.1663478
v -0.07185727 0.1341865 0.1417138
v -0.04454041 0.0590567 0.1547246
v -0.07014996 0.04436377 0.1447667
v -0.08917421 0.02177352 0.1376852
v -0.1214869 0.1056754 0.1224288
v -0.09930873 -0.005989105 0.1343211
v -0.09931713 -0.02820089 0.1349098
v -0.1624369 -0.05340675 0.1100824
v -0.1583159 0.06187415 0.1087115
v -0.170738 0.02779534 0.1045904
v 0.06266657 -0.05079114 -0.1405045
v 0.1009758 -0.1332127 -0.09822561
v 0.1274685 -0.1012281 -0.1571571
v 0.1180909 0.06568405 -0.3129003
v 0.06891549 -0.03361717 -0.1639442
v 0.06897435 -0.003659427 -0.1936833
v 0.05883145 0.02444804 -0.2111096
v 0.03970626 0.04729059 -0.2140784
v 0.01390326 0.06209284 -0.2022198
v 0.009883106 0.06277406 -0.1987548
v -0.028157 0.1446238 -0.2407477
v 0.02895781 0.1394262 -0.2943302
v 0.03781393 0.1410746 -0.3050534
v -0.01542369 0.1469787 -0.2561723
v 0.1180909 0.06568405 -0.3129003
v 0.1238015 0.08370748 -0.3261971
v 0.09703134 0.1162724 -0.3276184
v 0.03781393 0.1410746 -0.3050534
v 0.04238918 0.1410998 -0.3078625
v -0.170738 0.02779534 0.1045904
v -0.1624369 -0.05340675 0.1100824
v -0.1779205 -0.01984099 0.1028999
v -0.1779205 0.008073032 0.1021767
v 0.1034821 0.08971247 0.2136897
v 0.03460118 0.1350107 0.1846824
v 0.04100987 0.1338585 0.1872896
v 0.09063105 0.1050614 0.20808
vt -1.862645E-07 -1.862645E-07
vt 1 1
vt 1 0.1602343
vt 0.1602343 0.1602343
vt 1 0.4284318
vt 0.2569613 0.1778211
vt 0.7684417 0.7684417
vt 1 1
vt 1 0.7586713
vt 0.7586713 0.7586713
vt 1 -1.862645E-07
vt 0.6428921 -1.862645E-07
vt 0.9443089 1
vt 0.9506597 1
vt 1 1
vt 1 1
vt 0.9443089 1
vt 0.8891062 1
vt 0.8891062 1
vt 0.9565219 1
vt 0.8695654 1
vt 0.9443089 1
vt 0.9487056 1
vt 0.8891062 1
vt 0.8500246 1
vt 0.8334149 1
vt 0.8334149 1
vt 0.8212019 1
vt 0.8334149 1
vt 0.7777236 1
vt 0.7777236 1
vt 0.7674647 1
vt 0.7220323 1
vt 0.7220323 1
vt 0.6673181 1
vt 0.6668296 1
vt 0.6267709 1
vt 0.6111383 1
vt 0.6111383 1
vt 0.555447 1
vt 0.555447 1
vt 0.4997557 1
vt 0.4997557 1
vt 0.4860772 1
vt 0.5490962 1
vt 0.5637519 0.5637519
vt 0.7562287 0.7562287
vt 0.7835858 0.6116268
vt 0.7650221 0.4074255
vt 0.6971178 0.2007815
vt 0.5754763 0.5021983
vt 0.5876893 0.01660949
vt 0.5661945 0.3971666
vt 0.5315095 0.2901807
vt 0.5715682 -1.862645E-07
vt 0.4748412 0.1949193
vt 0.4040058 0.1226183
vt 0.3268197 0.08207117
vt -1.862645E-07 -1.862645E-07
vt 0.2530532 0.07816301
vt 0.1914996 0.1113824
vt 0.1607229 0.1607229
vt 0.9745972 0.6370298
vt 0.8422082 0.4548119
vt 0.3683439 0.1734244
vt 0.6184661 0.6184661
vt 0.3121641 0.1201757
vt 0.102589 -1.862645E-07
vt -1.862645E-07 -1.862645E-07
vt 0.01270133 1
vt -1.862645E-07 1
vt -1.862645E-07 1
vt 0.05569109 1
vt 0.05569109 1
vt 0.1108938 1
vt 0.1108938 1
vt 0.1665851 1
vt 0.1665851 1
vt 0.2017585 1
vt 0.2222764 1
vt 0.2222764 1
vt 0.2393746 1
vt 0.2442598 1
vt 0.249145 1
vt 0.03908141 -1.862645E-07
vt 0.8534442 0.6482658
vt 1 0.7562287
vt 1 0.5637519
vt 0.8656572 0.4650708
vt 0.4538349 0.1377624
vt 0.2945774 -1.862645E-07
vt 1 0.1607229
vt 1 -1.862645E-07
vt 0.7904251 -1.862645E-07
vt 0.8935028 0.07572041
vt 0.05569109 1
vt -1.862645E-07 1
vt -1.862645E-07 1
vt 0.05569109 1
vt 0.1108938 1
vt 0.1108938 1
vt 0.1665851 1
vt 0.1665851 1
vt 0.2169027 1
vt 0.2222764 1
vt 0.2638006 1
vt 0.2222764 1
vt 0.2779677 1
vt 0.2779677 1
vt 0.2921348 1
vt 0.3331704 1
vt 0.3331704 1
vt 0.3888617 1
vt 0.3888617 1
vt 0.444553 1
vt 0.444553 1
vt 0.4997557 1
vt 0.4997557 1
vt 0.555447 1
vt 0.555447 1
vt 0.6111383 1
vt 0.6111383 1
vt 0.6668296 1
vt 0.6668296 1
vt 0.7220323 1
vt 0.6883245 1
vt 0.7220323 1
vt 0.7596484 1
vt 0.7777236 1
vt 0.7777236 1
vt 0.8334149 1
vt 0.8334149 1
vt 0.8578409 1
vt 0.8891062 1
vt 0.8891062 1
vt 0.9443089 1
vt 0.9443089 1
vt 0.9521253 1
vt 1 1
vt 1 1
vt 1 0.1885685
vt 0.9189059 0.1680507
vt 0.433317 0.2286271
vt 1 1
vt 0.9242796 0.07523189
vt 0.8490475 0.4352711
vt 0.8446508 -1.862645E-07
vt 0.8280411 0.4987787
vt 0.7332683 0.4460185
vt 0.7938448 0.2628236
vt 0.6428921 0.6428921
vt 0.5764534 0.2833414
vt 0.3761602 0.02979953
vt 0.5246702 0.4929165
vt 0.8764046 0.5471421
vt 0.6692722 0.002442413
vt 0.8627261 0.1812407
vt 0.7156816 0.04250105
vt 0.6624329 -1.862645E-07
vt 0.9506597 0.7816318
vt 0.7293601 0.408891
vt 0.5906205 0.2564728
vt 0.4763068 0.1084512
vt 0.6673181 0.5144113
vt 0.2296042 -1.862645E-07
vt 0.4108451 -1.862645E-07
vt 0.3996091 0.2208108
vt 0.8959454 0.8959454
vt 1 0.9609186
vt 1 0.7054226
vt 0.690767 0.690767
vt 0.9526138 0.6761115
vt 0.8817784 0.5989253
vt 0.6091842 0.5339521
vt 0.8343919 0.5080606
vt 0.5730338 0.3502686
vt 0.8158281 0.4132877
vt 0.8285297 0.3268197
vt 0.8705424 0.2584269
vt 0.5979483 0.1827063
vt 0.9374696 0.2169027
vt 1 0.2095749
vt 1 -1.862645E-07
vt 0.6795311 0.05080589
vt 0.7616025 -1.862645E-07
vt 0.6624329 0.6624329
vt 0.8446508 0.8446508
vt 0.9985346 0.6213972
vt 1 -1.862645E-07
vt 0.7015145 0.5715682
vt 0.7112849 0.4538349
vt 0.6648755 0.3805569
vt 0.5681486 0.3615046
vt 0.43234 0.3986321
vt 0.4108451 0.4108451
vt 0.2296042 0.2296042
vt 0.5383488 0.03908141
vt 0.5872008 -1.862645E-07
vt 0.2994626 0.1734244
vt 1 -1.862645E-07
vt 0.8920373 -1.862645E-07
vt 0.8578409 0.1470443
vt 1 0.4127992
vt 0.9799709 0.394724
vt 0.7616025 0.7616025
vt 1 1
vt 1 0.7684417
vt 0.8949684 0.7181242
vt 1 0.8959454
vt 1 0.690767
vt 0.981925 0.6936982
vt 0.959453 0.8216904
vn -0.2156845 -0.3882324 0.8959664
vn -0.2156845 -0.3882324 0.8959664
vn -0.2156845 -0.3882324 0.8959664
vn -0.2078415 -0.3803893 0.9011692
vn -0.2078415 -0.3803893 0.9011692
vn -0.2078415 -0.3803893 0.9011692
vn -0.8901892 -0.4352908 -0.1344809
vn -0.8901892 -0.4431339 -0.1058091
vn -0.8901892 -0.4352908 -0.1344809
vn -0.8901892 -0.4431339 -0.1058091
vn -0.8901892 -0.4431339 -0.1058091
vn -0.8901892 -0.4431339 -0.1058091
vn 0.3803893 0.9215615 0.07764286
vn 0.1764693 0.9843061 -0.000345267
vn 0.04309721 0.9990709 0
vn 0.09019542 0.9921492 0.08662968
vn 0.3411739 0.9294046 0.1407388
vn 0.6392108 0.7568569 0.136298
vn 0.6705831 0.7411708 0.03137088
vn 0.1764693 0.9843061 -0.000345267
vn 0.7647001 0.6392107 0.08150788
vn 0.3803893 0.8823462 0.2770727
vn 0.1686262 0.9450908 0.2799439
vn 0.6313677 0.7254846 0.2739468
vn 0.7333277 0.6156815 0.2883863
vn 0.7803862 0.5529369 0.29199
vn 0.858817 0.4980353 0.119976
vn 0.9372478 0.3411738 0.07188263
vn 0.8666601 0.4980353 0.02934592
vn 0.9670746 0.2544933 0
vn 0.9764631 0.2156845 0
vn 0.9999924 0.003921509 0
vn 0.9921493 -0.1058816 -0.06654979
vn 0.9916005 -0.1293392 0
vn 0.9117018 -0.4108528 0
vn 0.8888779 -0.4581441 0
vn 0.7647001 -0.6392108 -0.08150696
vn 0.7176416 -0.6941124 -0.05655585
vn 0.6784262 -0.7333277 -0.0443658
vn 0.4352908 -0.8980324 -0.06371649
vn 0.3720658 -0.9282063 0
vn 0.08207512 -0.9966261 0
vn 0.02744067 -0.9996234 0
vn -0.1764692 -0.9843062 0
vn 0.1764693 -0.9843062 0
vn -0.2078415 -0.3803893 0.9011692
vn -0.2078415 -0.3803893 0.9011692
vn -0.2078415 -0.3803893 0.9011692
vn -0.2078415 -0.3803893 0.9011692
vn -0.2078415 -0.3803893 0.9011692
vn -0.2078415 -0.3803893 0.9011692
vn -0.2078415 -0.3803893 0.9011692
vn -0.2078415 -0.3803893 0.9011692
vn -0.2078415 -0.3803893 0.9011692
vn -0.2078415 -0.3803893 0.9011692
vn -0.2078415 -0.3803893 0.9011692
vn -0.2078415 -0.3803893 0.9011692
vn -0.2078415 -0.3803893 0.9011692
vn -0.2078415 -0.3803893 0.9011692
vn -0.2078415 -0.3803893 0.9011692
vn -0.2078415 -0.3803893 0.9011692
vn -0.2078415 -0.3803893 0.9011692
vn 0.349017 -0.6313677 -0.6925041
vn 0.349017 -0.6313677 -0.6925041
vn 0.349017 -0.6313677 -0.6925041
vn 0.349017 -0.6313677 -0.6925041
vn 0.349017 -0.6313677 -0.6925041
vn 0.349017 -0.6313677 -0.6925041
vn 0.349017 -0.6313677 -0.6925041
vn -0.1764692 0.9843061 -0.000345267
vn 0.09019542 0.9921492 0.08662968
vn 0.04309721 0.9990709 0
vn -0.2392138 0.9686199 0.06746945
vn -0.3019584 0.9529338 0.02717209
vn -0.6155679 0.7880838 0
vn -0.5607799 0.8274446 0.02934972
vn -0.8581837 0.5133427 0
vn -0.8116087 0.5842015 0
vn -0.9372476 0.3411738 0.07188428
vn -0.9651236 0.2617946 0
vn -0.9843061 0.1764692 -0.0003712624
vn -0.9999923 0.003921509 -0.0003449296
vn -0.9999923 0.003921509 -0.0003449296
vn -0.9999923 0.003921509 -0.0003449296
vn -0.2078415 -0.3725462 0.9044397
vn -0.2078415 -0.3725462 0.9044397
vn -0.2078415 -0.3725462 0.9044397
vn -0.2078415 -0.3725462 0.9044397
vn -0.2078415 -0.3725462 0.9044397
vn -0.2078415 -0.3725462 0.9044397
vn -0.2078415 -0.3725462 0.9044397
vn -0.2078415 -0.3725462 0.9044397
vn -0.2078415 -0.3725462 0.9044397
vn -0.2078415 -0.3725462 0.9044397
vn -0.2078415 -0.3725462 0.9044397
vn 0.2392139 -0.9686201 -0.06746767
vn -0.04309709 -0.9990709 0
vn -0.0901953 -0.9921493 -0.086629
vn 0.3019585 -0.9529339 -0.02716661
vn 0.552937 -0.8274447 -0.09795943
vn 0.615568 -0.7880839 0
vn 0.8116088 -0.5842015 0
vn 0.8581836 -0.5133427 0
vn 0.9651236 -0.2617947 0
vn 0.9843062 -0.1764693 0
vn 0.9999924 -0.003921568 0
vn 0.9651236 -0.2617947 0
vn 0.9921493 0.1058815 -0.06654998
vn 0.9905663 0.1370348 0
vn 0.9372478 0.3411738 0.07188263
vn 0.8807223 0.4736328 0
vn 0.8745031 0.4745061 0.10044
vn 0.6313677 0.7725431 0.06746812
vn 0.6470539 0.7568569 0.09213487
vn 0.2855531 0.9583629 0
vn 0.3326155 0.9430625 0
vn -0.08207507 0.9966261 0
vn -0.01960405 0.9998079 0
vn -0.4352907 0.8980323 0.06371789
vn -0.3720658 0.9282064 0
vn -0.7176415 0.6941123 0.05655822
vn -0.6784261 0.7333276 0.04436782
vn -0.9137185 0.4039184 0.04436798
vn -0.8888779 0.4581441 0
vn -0.9916004 0.1293392 0
vn -0.9372476 0.3411738 0.07188428
vn -0.9972357 0.07430375 0
vn -0.9999923 -0.003921568 -0.0003442513
vn -0.9670746 -0.2544934 0
vn -0.9764631 -0.2156847 -8.631674E-05
vn -0.8431307 -0.5372508 -0.02218525
vn -0.8509738 -0.5215647 -0.061756
vn -0.7646999 -0.6392108 -0.08150806
vn -0.6543336 -0.756206 0
vn -0.670583 -0.7411708 -0.03137278
vn -0.4039184 -0.9137185 -0.04436647
vn -0.3803892 -0.9215616 -0.07764209
vn -0.1764692 -0.9843062 0
vn -0.0901953 -0.9921493 -0.086629
vn -0.04309709 -0.9990709 0
vn -0.5921522 -0.5686231 -0.5709847
vn -0.5921522 -0.5686231 -0.5709847
vn -0.5921522 -0.5686231 -0.5709847
vn -0.5921522 -0.5686231 -0.5709847
vn -0.5921522 -0.5686231 -0.5709847
vn -0.5921522 -0.5686231 -0.5709847
vn -0.5921522 -0.5686231 -0.5709847
vn -0.5921522 -0.5686231 -0.5709847
vn -0.5921522 -0.5686231 -0.5709847
vn -0.5921522 -0.5686231 -0.5709847
vn -0.5921522 -0.5686231 -0.5709847
vn -0.5921522 -0.5686231 -0.5709847
vn -0.5921522 -0.5686231 -0.5709847
vn -0.5921522 -0.5686231 -0.5709847
vn -0.5921522 -0.5686231 -0.5709847
vn -0.5921522 -0.5686231 -0.5709847
vn -0.5921522 -0.5686231 -0.5709847
vn -0.5921522 -0.5686231 -0.5709847
vn -0.5921522 -0.5686231 -0.5709847
vn -0.5921522 -0.5686231 -0.5709847
vn -0.5921522 -0.5686231 -0.5709847
vn -0.5921522 -0.5686231 -0.5709847
vn -0.5921522 -0.5686231 -0.5709847
vn -0.5921522 -0.5686231 -0.5709847
vn -0.5921522 -0.5686231 -0.5709847
vn -0.5921522 -0.5686231 -0.5709847
vn -0.5921522 -0.5686231 -0.5709847
vn -0.3725461 0.02745068 0.9276076
vn -0.3725461 0.02745068 0.9276076
vn -0.3725461 0.02745068 0.9276076
vn -0.3725461 0.02745068 0.9276076
vn -0.3725461 0.02745068 0.9276076
vn -0.3725461 0.02745068 0.9276076
vn -0.3725461 0.02745068 0.9276076
vn -0.3725461 0.02745068 0.9276076
vn -0.3725461 0.02745068 0.9276076
vn -0.3725461 0.02745068 0.9276076
vn -0.3725461 0.02745068 0.9276076
vn -0.3725461 0.02745068 0.9276076
vn -0.3725461 0.02745068 0.9276076
vn -0.3725461 0.02745068 0.9276076
vn -0.3725461 0.02745068 0.9276076
vn -0.3725461 0.02745068 0.9276076
vn -0.3725461 0.02745068 0.9276076
vn -0.3725461 0.02745068 0.9276076
vn -0.5921522 -0.5686231 -0.5709847
vn -0.5921522 -0.5686231 -0.5709847
vn -0.5921522 -0.5686231 -0.5709847
vn -0.5921522 -0.5686231 -0.5709847
vn -0.5921522 -0.5686231 -0.5709847
vn -0.5921522 -0.5686231 -0.5709847
vn -0.5921522 -0.5686231 -0.5709847
vn -0.5921522 -0.5686231 -0.5709847
vn -0.5921522 -0.5686231 -0.5709847
vn -0.5921522 -0.5686231 -0.5709847
vn -0.5921522 -0.5686231 -0.5709847
vn -0.5921522 -0.5686231 -0.5709847
vn -0.5921522 -0.5686231 -0.5709847
vn -0.5921522 -0.5686231 -0.5709847
vn -0.4745061 -0.4196047 -0.7738061
vn -0.4745061 -0.4196047 -0.7738061
vn -0.4745061 -0.4196047 -0.7738061
vn -0.4745061 -0.4196047 -0.7738061
vn -0.4745061 -0.4196047 -0.7738061
vn -0.3803892 0.02745068 0.924419
vn -0.3803892 0.02745068 0.924419
vn -0.3803892 0.02745068 0.924419
vn -0.3803892 0.02745068 0.924419
vn -0.3725461 0.02745068 0.9276076
vn -0.3725461 0.02745068 0.9276076
vn -0.3725461 0.02745068 0.9276076
vn -0.3725461 0.02745068 0.9276076
g Bottiglia_cell.016_0
f 3/3/3 2/2/2 1/1/1
f 5/5/5 2/2/2 4/4/4
f 6/6/6 5/5/5 4/4/4
f 9/9/9 8/8/8 7/7/7
f 11/11/11 8/8/8 10/10/10
f 12/12/12 11/11/11 10/10/10
f 15/15/15 14/14/14 13/13/13
f 16/16/16 15/15/15 13/13/13
f 16/16/16 13/13/13 17/17/17
f 17/17/17 13/13/13 18/18/18
f 13/13/13 19/19/19 18/18/18
f 17/17/17 20/20/20 16/16/16
f 18/18/18 19/19/19 21/21/21
f 20/20/20 17/17/17 22/22/22
f 23/23/23 20/20/20 22/22/22
f 22/22/22 17/17/17 24/24/24
f 17/17/17 18/18/18 24/24/24
f 25/25/25 24/24/24 18/18/18
f 26/26/26 25/25/25 18/18/18
f 27/27/27 18/18/18 21/21/21
f 18/18/18 27/27/27 26/26/26
f 26/26/26 27/27/27 28/28/28
f 21/21/21 29/29/29 27/27/27
f 28/28/28 27/27/27 29/29/29
f 30/30/30 28/28/28 29/29/29
f 29/29/29 31/31/31 30/30/30
f 30/30/30 31/31/31 32/32/32
f 33/33/33 30/30/30 32/32/32
f 32/32/32 34/34/34 33/33/33
f 33/33/33 34/34/34 35/35/35
f 34/34/34 36/36/36 35/35/35
f 37/37/37 35/35/35 36/36/36
f 38/38/38 37/37/37 36/36/36
f 36/36/36 39/39/39 38/38/38
f 38/38/38 39/39/39 40/40/40
f 39/39/39 41/41/41 40/40/40
f 42/42/42 40/40/40 41/41/41
f 41/41/41 43/43/43 42/42/42
f 44/44/44 42/42/42 43/43/43
f 41/41/41 45/45/45 43/43/43
f 48/48/48 47/47/47 46/46/46
f 46/46/46 49/49/49 48/48/48
f 46/46/46 50/50/50 49/49/49
f 46/46/46 51/51/51 50/50/50
f 52/52/52 50/50/50 51/51/51
f 51/51/51 53/53/53 52/52/52
f 53/53/53 54/54/54 52/52/52
f 54/54/54 55/55/55 52/52/52
f 54/54/54 56/56/56 55/55/55
f 56/56/56 57/57/57 55/55/55
f 57/57/57 58/58/58 55/55/55
f 58/58/58 59/59/59 55/55/55
f 58/58/58 60/60/60 59/59/59
f 60/60/60 61/61/61 59/59/59
f 61/61/61 62/62/62 59/59/59
f 65/65/65 64/64/64 63/63/63
f 63/63/63 66/66/66 65/65/65
f 66/66/66 67/67/67 65/65/65
f 66/66/66 68/68/68 67/67/67
f 66/66/66 69/69/69 68/68/68
f 72/72/72 71/71/71 70/70/70
f 70/70/70 73/73/73 72/72/72
f 73/73/73 74/74/74 72/72/72
f 75/75/75 74/74/74 73/73/73
f 76/76/76 75/75/75 73/73/73
f 77/77/77 75/75/75 76/76/76
f 78/78/78 77/77/77 76/76/76
f 79/79/79 77/77/77 78/78/78
f 79/79/79 78/78/78 80/80/80
f 80/80/80 81/81/81 79/79/79
f 81/81/81 80/80/80 82/82/82
f 81/81/81 82/82/82 83/83/83
f 83/83/83 84/84/84 81/81/81
f 87/87/87 86/86/86 85/85/85
f 85/85/85 88/88/88 87/87/87
f 85/85/85 89/89/89 88/88/88
f 85/85/85 90/90/90 89/89/89
f 85/85/85 91/91/91 90/90/90
f 94/94/94 93/93/93 92/92/92
f 95/95/95 94/94/94 92/92/92
f 98/98/98 97/97/97 96/96/96
f 97/97/97 99/99/99 96/96/96
f 96/96/96 99/99/99 100/100/100
f 99/99/99 101/101/101 100/100/100
f 100/100/100 101/101/101 102/102/102
f 101/101/101 103/103/103 102/102/102
f 102/102/102 103/103/103 104/104/104
f 103/103/103 105/105/105 104/104/104
f 107/107/107 105/105/105 106/106/106
f 108/108/108 107/107/107 106/106/106
f 106/106/106 109/109/109 108/108/108
f 108/108/108 109/109/109 110/110/110
f 111/111/111 108/108/108 110/110/110
f 110/110/110 112/112/112 111/111/111
f 111/111/111 112/112/112 113/113/113
f 112/112/112 114/114/114 113/113/113
f 113/113/113 114/114/114 115/115/115
f 114/114/114 116/116/116 115/115/115
f 115/115/115 116/116/116 117/117/117
f 116/116/116 118/118/118 117/117/117
f 117/117/117 118/118/118 119/119/119
f 118/118/118 120/120/120 119/119/119
f 119/119/119 120/120/120 121/121/121
f 120/120/120 122/122/122 121/121/121
f 121/121/121 122/122/122 123/123/123
f 122/122/122 124/124/124 123/123/123
f 123/123/123 124/124/124 125/125/125
f 125/125/125 126/126/126 123/123/123
f 125/125/125 127/127/127 126/126/126
f 127/127/127 125/125/125 128/128/128
f 128/128/128 129/129/129 127/127/127
f 128/128/128 130/130/130 129/129/129
f 129/129/129 130/130/130 131/131/131
f 130/130/130 132/132/132 131/131/131
f 131/131/131 132/132/132 133/133/133
f 133/133/133 134/134/134 131/131/131
f 133/133/133 135/135/135 134/134/134
f 134/134/134 135/135/135 136/136/136
f 135/135/135 137/137/137 136/136/136
f 138/138/138 136/136/136 137/137/137
f 137/137/137 139/139/139 138/138/138
f 137/137/137 140/140/140 139/139/139
f 143/143/143 142/142/142 141/141/141
f 141/141/141 144/144/144 143/143/143
f 144/144/144 145/145/145 143/143/143
f 144/144/144 146/146/146 145/145/145
f 146/146/146 147/147/147 145/145/145
f 144/144/144 148/148/148 146/146/146
f 144/144/144 149/149/149 148/148/148
f 146/146/146 150/150/150 147/147/147
f 144/144/144 151/151/151 149/149/149
f 151/151/151 152/152/152 149/149/149
f 151/151/151 153/153/153 152/152/152
f 151/151/151 154/154/154 153/153/153
f 154/154/154 155/155/155 153/153/153
f 147/147/147 150/150/150 156/156/156
f 147/147/147 156/156/156 157/157/157
f 147/147/147 157/157/157 158/158/158
f 158/158/158 159/159/159 147/147/147
f 154/154/154 160/160/160 155/155/155
f 160/160/160 161/161/161 155/155/155
f 160/160/160 162/162/162 161/161/161
f 160/160/160 163/163/163 162/162/162
f 160/160/160 164/164/164 163/163/163
f 163/163/163 164/164/164 165/165/165
f 165/165/165 166/166/166 163/163/163
f 164/164/164 167/167/167 165/165/165
f 170/170/170 169/169/169 168/168/168
f 168/168/168 171/171/171 170/170/170
f 171/171/171 172/172/172 170/170/170
f 171/171/171 173/173/173 172/172/172
f 171/171/171 174/174/174 173/173/173
f 174/174/174 175/175/175 173/173/173
f 174/174/174 176/176/176 175/175/175
f 176/176/176 177/177/177 175/175/175
f 176/176/176 178/178/178 177/177/177
f 176/176/176 179/179/179 178/178/178
f 176/176/176 180/180/180 179/179/179
f 180/180/180 181/181/181 179/179/179
f 180/180/180 182/182/182 181/181/181
f 180/180/180 183/183/183 182/182/182
f 180/180/180 184/184/184 183/183/183
f 184/184/184 185/185/185 183/183/183
f 188/188/188 187/187/187 186/186/186
f 186/186/186 189/189/189 188/188/188
f 186/186/186 190/190/190 189/189/189
f 190/190/190 191/191/191 189/189/189
f 191/191/191 192/192/192 189/189/189
f 192/192/192 193/193/193 189/189/189
f 193/193/193 194/194/194 189/189/189
f 194/194/194 195/195/195 189/189/189
f 195/195/195 196/196/196 189/189/189
f 196/196/196 197/197/197 189/189/189
f 189/189/189 197/197/197 198/198/198
f 196/196/196 199/199/199 197/197/197
f 202/202/202 201/201/201 200/200/200
f 200/200/200 203/203/203 202/202/202
f 203/203/203 204/204/204 202/202/202
f 207/207/207 206/206/206 205/205/205
f 208/208/208 207/207/207 205/205/205
f 211/211/211 210/210/210 209/209/209
f 212/212/212 211/211/211 209/209/209
