g Bottiglia_cell.029
v 0.3536635 -0.3140784 0.1433806
v 0.2783868 -0.2799332 0.1010755
v 0.2220122 -0.1363111 0.2601202
v 0.3536635 -0.277517 0.2024615
v 0.2883418 -0.09802383 0.4078707
v 0.1153242 -0.01156336 0.3235365
v 0.0001310408 0.1438087 0.4252539
v 0.2518909 -0.0545865 0.4308458
v 0.1655547 0.0483045 0.4852046
v -0.02618542 0.07151434 0.2744659
v -0.1879778 0.1769873 0.2352949
v -0.1879778 0.103906 0.1173403
v -0.3760866 0.1438087 -0.06175241
v -0.353222 0.08095843 -0.1336187
v -0.4298517 0.04129046 -0.2969437
v -0.4991913 0.07274318 -0.3359075
v 0.2286534 -0.1324727 -0.05138323
v 0.2220122 -0.1363111 0.2601202
v 0.2783868 -0.2799332 0.1010755
v 0.1234981 -0.001801699 -0.1932104
v 0.1153242 -0.01156336 0.3235365
v -0.02138051 0.08470017 -0.2953697
v -0.02618542 0.07151434 0.2744659
v -0.1879778 0.1152831 -0.3441504
v -0.1879778 0.103906 0.1173403
v -0.3760866 0.1438087 -0.3932486
v -0.3760866 0.1438087 -0.06175241
v -0.4991913 0.07274318 -0.3359075
v -0.1879778 0.1769873 -0.4056613
v -0.1879778 0.1769873 0.2352949
v 0.2783868 -0.2799332 0.1010755
v 0.3536635 -0.3140784 0.1433806
v 0.3536635 -0.277517 0.1069297
v 0.2883418 -0.09802383 -0.07919088
v 0.2286534 -0.1324727 -0.05138323
v 0.1655547 0.0483045 -0.2385532
v 0.1234981 -0.001801699 -0.1932104
v 0.0001310408 0.1438087 -0.3519376
v -0.02138051 0.08470017 -0.2953697
v -0.1879778 0.1769873 -0.4056613
v -0.1879778 0.1152831 -0.3441504
v -0.3548926 0.08557004 -0.3328561
v -0.3760866 0.1438087 -0.3932486
v -0.4298517 0.04129046 -0.2969437
v -0.4991913 0.07274318 -0.3359075
v 0.3536635 -0.277517 0.2024615
v 0.3536635 -0.277517 0.1069297
v 0.3536635 -0.3140784 0.1433806
v 0.2883418 -0.09802383 0.4078707
v 0.2883418 -0.09802383 -0.07919088
v 0.1655547 0.0483045 -0.2385532
v 0.2518909 -0.0545865 0.4308458
v 0.1655547 0.0483045 0.4852046
v 0.0001310408 0.1438087 0.4252539
v 0.0001310408 0.1438087 -0.3519376
v -0.1879778 0.1769873 -0.4056613
v -0.1879778 0.1769873 0.2352949
v -0.353222 0.08095843 -0.1336187
v -0.3548926 0.08557004 -0.3328561
v -0.4298517 0.04129046 -0.2969437
v -0.1879778 0.103906 0.1173403
v -0.1879778 0.1152831 -0.3441504
vt 0.04250104 0.04250104
vt 0.1060086 0.1060086
vt 0.6360527 0.1533951
vt 0.1914996 0.04250104
vt 0.8593063 0.09721527
vt 0.2716169 0.2286271
vt 0.7498779 0.1231068
vt 0.127992 0.127992
vt 0.44553 0.0708352
vt 0.5354176 0.2711284
vt 0.8690767 0.3033707
vt 0.6497313 0.4201269
vt 0.789448 0.5896434
vt 0.9438203 0.6394724
vt 0.7044455 0.7044455
vt 0.7630679 0.7630679
vt 0.8334148 0.5769418
vt 0.8334148 0.6389838
vt 0.7816316 0.6072301
vt 0.889106 0.5486076
vt 0.889106 0.6516854
vt 0.9443088 0.5285783
vt 0.9443088 0.641915
vt 1 0.5188079
vt 1 0.6106497
vt 0.05569108 0.5183194
vt 0.05569108 0.5803615
vt 0.09672675 0.5290669
vt -1.862645E-07 0.5158768
vt -1.862645E-07 0.6360527
vt 1 0.1060086
vt 1 0.04250104
vt 0.9350269 0.04250104
vt 0.6692721 0.09770379
vt 0.778212 0.1480213
vt 0.508549 0.20127
vt 0.6311675 0.236932
vt 0.4719101 0.3414752
vt 0.5945286 0.3595505
vt 0.5647289 0.5002442
vt 0.6741573 0.5002442
vt 0.8612604 0.6414264
vt 0.7747924 0.6590132
vt 1 0.7044455
vt 1 0.7630679
vt 0.7777235 0.6301905
vt 0.7777235 0.6121153
vt 0.7669761 0.6189545
vt 0.8334148 0.668295
vt 0.8334148 0.5774304
vt 0.889106 0.5471421
vt 0.8500245 0.6726917
vt 0.889106 0.6829506
vt 0.9443088 0.6717147
vt 0.9443088 0.5261357
vt 1 0.5158768
vt 1 0.6360527
vt 0.05569108 0.5608206
vt 0.05569108 0.520762
vt 0.08402523 0.5280898
vt -1.862645E-07 0.6106497
vt -1.862645E-07 0.5188079
vn -0.5607183 -0.7019673 0.439132
vn -0.5607183 -0.7019673 0.439132
vn -0.5607183 -0.7019673 0.439132
vn -0.5607183 -0.7019673 0.439132
vn -0.5607183 -0.7019673 0.439132
vn -0.5607183 -0.7019673 0.439132
vn -0.5607183 -0.7019673 0.439132
vn -0.5607183 -0.7019673 0.439132
vn -0.5607183 -0.7019673 0.439132
vn -0.5607183 -0.7019673 0.439132
vn -0.5607183 -0.7019673 0.439132
vn -0.5607183 -0.7019673 0.439132
vn -0.5607183 -0.7019673 0.439132
vn -0.5607183 -0.7019673 0.439132
vn -0.5607183 -0.7019673 0.439132
vn -0.5607183 -0.7019673 0.439132
vn -0.8195297 -0.5686402 -0.07084812
vn -0.8273724 -0.5607975 -0.03100105
vn -0.9371712 -0.3412 -0.07275084
vn -0.5841566 -0.8116409 0
vn -0.6374448 -0.770496 0
vn -0.2940642 -0.9529359 -0.0737531
vn -0.403863 -0.913722 -0.04479698
vn 0.01180301 -0.9999304 0
vn -0.1058378 -0.9921497 -0.06661326
vn -0.3175925 0.945014 -0.0779971
vn -0.2231147 0.9747922 0
vn -0.4979762 0.8665863 -0.03237051
vn -0.01172459 0.9999133 -0.005990158
vn 0.105917 0.9920706 -0.06765779
vn 0.07454586 -0.7019673 -0.7082971
vn 0.07454586 -0.7019673 -0.7082971
vn 0.07454586 -0.7019673 -0.7082971
vn 0.07454586 -0.7019673 -0.7082971
vn 0.07454586 -0.7019673 -0.7082971
vn 0.07454586 -0.7019673 -0.7082971
vn 0.07454586 -0.7019673 -0.7082971
vn 0.07454586 -0.7019673 -0.7082971
vn 0.07454586 -0.7019673 -0.7082971
vn 0.07454586 -0.7019673 -0.7082971
vn 0.07454586 -0.7019673 -0.7082971
vn 0.07454586 -0.7019673 -0.7082971
vn 0.07454586 -0.7019673 -0.7082971
vn 0.07454586 -0.7019673 -0.7082971
vn 0.07454586 -0.7019673 -0.7082971
vn 0.9604951 0.2782966 0
vn 0.9651362 0.261748 0
vn 0.9999925 0.003881812 0
vn 0.8241869 0.5663179 0
vn 0.8196088 0.5685611 -0.07056699
vn 0.5842462 0.8115764 0
vn 0.7647095 0.639146 -0.08192582
vn 0.6375305 0.7704252 0
vn 0.4109003 0.9116802 0
vn 0.2941434 0.9528568 -0.07445569
vn -0.01172459 0.9999133 -0.005990158
vn 0.105917 0.9920706 -0.06765779
vn 0.2305922 -0.9730505 0
vn 0.3176717 -0.9450931 -0.07670563
vn 0.4980553 -0.8666654 -0.02884271
vn -0.1058378 -0.9921497 -0.06661326
vn 0.01180301 -0.9999304 0
g Bottiglia_cell.029_0
f 3/3/3 2/2/2 1/1/1
f 1/1/1 4/4/4 3/3/3
f 4/4/4 5/5/5 3/3/3
f 5/5/5 6/6/6 3/3/3
f 6/6/6 5/5/5 7/7/7
f 5/5/5 8/8/8 7/7/7
f 8/8/8 9/9/9 7/7/7
f 10/10/10 6/6/6 7/7/7
f 10/10/10 7/7/7 11/11/11
f 12/12/12 10/10/10 11/11/11
f 12/12/12 11/11/11 13/13/13
f 14/14/14 12/12/12 13/13/13
f 15/15/15 14/14/14 13/13/13
f 13/13/13 16/16/16 15/15/15
f 19/19/19 18/18/18 17/17/17
f 17/17/17 18/18/18 20/20/20
f 18/18/18 21/21/21 20/20/20
f 20/20/20 21/21/21 22/22/22
f 21/21/21 23/23/23 22/22/22
f 22/22/22 23/23/23 24/24/24
f 23/23/23 25/25/25 24/24/24
f 28/28/28 27/27/27 26/26/26
f 26/26/26 27/27/27 29/29/29
f 27/27/27 30/30/30 29/29/29
f 33/33/33 32/32/32 31/31/31
f 31/31/31 34/34/34 33/33/33
f 31/31/31 35/35/35 34/34/34
f 35/35/35 36/36/36 34/34/34
f 35/35/35 37/37/37 36/36/36
f 37/37/37 38/38/38 36/36/36
f 37/37/37 39/39/39 38/38/38
f 39/39/39 40/40/40 38/38/38
f 39/39/39 41/41/41 40/40/40
f 41/41/41 42/42/42 40/40/40
f 42/42/42 43/43/43 40/40/40
f 42/42/42 44/44/44 43/43/43
f 44/44/44 45/45/45 43/43/43
f 48/48/48 47/47/47 46/46/46
f 49/49/49 46/46/46 47/47/47
f 50/50/50 49/49/49 47/47/47
f 49/49/49 50/50/50 51/51/51
f 51/51/51 52/52/52 49/49/49
f 51/51/51 53/53/53 52/52/52
f 54/54/54 53/53/53 51/51/51
f 55/55/55 54/54/54 51/51/51
f 55/55/55 56/56/56 54/54/54
f 56/56/56 57/57/57 54/54/54
f 60/60/60 59/59/59 58/58/58
f 61/61/61 58/58/58 59/59/59
f 62/62/62 61/61/61 59/59/59
