g Bottiglia_cell.007
v 0.2492199 -0.1751842 0.1241404
v 0.2114648 -0.2064011 0.1442403
v 0.1947505 -0.1907926 0.1476355
v 0.1471783 -0.2179546 0.1068538
v 0.147644 -0.1943334 0.06756598
v 0.09191346 -0.2034326 0.0343799
v 0.2114648 -0.2064011 0.1442403
v 0.2492199 -0.1751842 0.1241404
v 0.09191346 -0.2034326 0.0343799
v 0.08474465 -0.2045773 0.03013098
v 0.2114648 -0.2064011 0.1442403
v -0.06729436 -0.1685296 0.05004653
v -0.0036093 -0.1051937 0.1251978
v 0.2114648 -0.2064011 0.1442403
v 0.02195203 -0.07921524 0.1555416
v 0.1947505 -0.1907926 0.1476355
v 0.02195203 -0.07921524 0.1555416
v 0.2114648 -0.2064011 0.1442403
v -0.0036093 -0.1051937 0.1251978
v 0.1471783 -0.2179546 0.1068538
v -0.06729436 -0.1685296 0.05004653
v -0.07363862 -0.1744082 0.04269341
v 0.005974978 -0.04968634 0.1510114
v 0.02195203 -0.07921524 0.1555416
v -0.0036093 -0.1051937 0.1251978
v -0.1855846 -0.08345445 -0.02561891
v -0.06729436 -0.1685296 0.05004653
v -0.1855846 0.06298724 -0.02561891
v -0.02078924 0.03392395 0.1263328
v -0.07363862 -0.1744082 0.04269341
v -0.02282637 0.06389913 0.1151188
v -0.02666783 0.1190961 0.09437871
v -0.1588883 -0.1568111 -0.02561891
v -0.02805504 0.1385654 0.08704498
v -0.2007565 -0.08613184 -0.05716556
v -0.1727603 -0.1536972 -0.05051088
v -0.2477176 0.06168735 -0.1548225
v -0.2517919 0.0746572 -0.1632912
v -0.1354902 0.2006013 -0.02561891
v -0.2673615 0.1436971 -0.2428272
v -0.1806373 0.2266574 -0.1323654
v -0.04828098 0.3045346 -0.02561891
v -0.1768637 0.2288885 -0.1293387
v -0.03758112 0.3082694 -0.02026412
v -0.00354138 0.2677011 0.02782223
v 0.02363026 0.3203273 -0.001677573
v 0.2296827 -0.1597989 0.1243635
v 0.2215535 -0.1578006 0.1261776
v 0.1796854 -0.1475955 0.1352671
v 0.1774251 -0.1538039 0.1139838
v 0.1314729 -0.1272725 0.1139838
v 0.1363717 -0.1214424 0.1385072
v 0.2296827 -0.1630196 0.1139838
v 0.2596385 -0.1577327 0.1139838
v 0.2296827 -0.1735642 0.1043413
v 0.2670886 -0.1586348 0.1119661
v 0.1636307 -0.1917045 0.07710177
v 0.147644 -0.1943334 0.06756598
v 0.09191346 -0.2034326 0.0343799
v 0.09736525 -0.08662657 0.1139838
v 0.1027685 -0.08351265 0.1340449
v 0.06918472 -0.2015022 0.02537766
v 0.08474465 -0.2045773 0.03013098
v -0.05723473 -0.1758827 -0.04925948
v 0.07922494 -0.03676501 0.1139838
v -0.1219966 -0.07225014 -0.07285158
v 0.08166952 -0.03633818 0.1219966
v 0.07922494 -0.01414299 0.1139838
v -0.08648235 -0.1698391 -0.07285158
v 0.0689519 0.01810214 0.104448
v -0.1793568 -0.08235827 -0.1910837
v -0.1489063 -0.155841 -0.1838955
v -0.1860697 -0.06128836 -0.2049266
v -0.1219966 0.05177325 -0.07285158
v 0.06518805 0.07537505 0.08298039
v -0.2274916 0.07037917 -0.2903121
v -0.07958513 0.1683174 -0.07285158
v 0.06452841 0.08511454 0.07931352
v -0.2306056 0.08409595 -0.3060175
v -0.2272297 0.09336984 -0.3060175
v -0.2298295 0.08616221 -0.3154078
v -0.181394 0.1369648 -0.2479588
v -0.1222779 0.1929668 -0.1729434
v -0.0006214678 0.2642185 -0.07523796
v 0.08056363 0.1674734 0.04155841
v 0.004558682 0.2658773 -0.07285158
v 0.08721831 0.1801911 0.0344187
v 0.1208021 0.2888971 -0.03739554
v 0.1302894 0.2628216 -0.01202822
v 0.1608563 0.2909245 -0.03279743
v -0.1768637 0.2288885 -0.1293387
v -0.181394 0.1369648 -0.2479588
v -0.1222779 0.1929668 -0.1729434
v -0.0006214678 0.2642185 -0.07523796
v -0.04828098 0.3045346 -0.02561891
v 0.004558682 0.2658773 -0.07285158
v 0.1208021 0.2888971 -0.03739554
v 0.1608563 0.2909245 -0.03279743
v 0.02363026 0.3203273 -0.001677573
v -0.03758112 0.3082694 -0.02026412
v -0.08648235 -0.1698391 -0.07285158
v -0.1489063 -0.155841 -0.1838955
v -0.1727603 -0.1536972 -0.05051088
v -0.05723473 -0.1758827 -0.04925948
v -0.1588883 -0.1568111 -0.02561891
v 0.06918472 -0.2015022 0.02537766
v -0.07363862 -0.1744082 0.04269341
v 0.08474465 -0.2045773 0.03013098
v 0.1471783 -0.2179546 0.1068538
v 0.1796854 -0.1475955 0.1352671
v 0.2215535 -0.1578006 0.1261776
v 0.1947505 -0.1907926 0.1476355
v 0.02195203 -0.07921524 0.1555416
v 0.1363717 -0.1214424 0.1385072
v 0.1027685 -0.08351265 0.1340449
v 0.08166952 -0.03633818 0.1219966
v 0.07922494 -0.01414299 0.1139838
v 0.0689519 0.01810214 0.104448
v 0.06518805 0.07537505 0.08298039
v -0.02282637 0.06389913 0.1151188
v 0.005974978 -0.04968634 0.1510114
v -0.02078924 0.03392395 0.1263328
v 0.1636307 -0.1917045 0.07710177
v 0.147644 -0.1943334 0.06756598
v 0.1471783 -0.2179546 0.1068538
v 0.2296827 -0.1735642 0.1043413
v 0.2670886 -0.1586348 0.1119661
v 0.2492199 -0.1751842 0.1241404
v 0.02363026 0.3203273 -0.001677573
v 0.1608563 0.2909245 -0.03279743
v 0.1302894 0.2628216 -0.01202822
v 0.08721831 0.1801911 0.0344187
v -0.02666783 0.1190961 0.09437871
v -0.00354138 0.2677011 0.02782223
v -0.02805504 0.1385654 0.08704498
v -0.2477176 0.06168735 -0.1548225
v -0.1860697 -0.06128836 -0.2049266
v -0.2274916 0.07037917 -0.2903121
v -0.2517919 0.0746572 -0.1632912
v -0.2306056 0.08409595 -0.3060175
v -0.2673615 0.1436971 -0.2428272
v -0.2298295 0.08616221 -0.3154078
v -0.02666783 0.1190961 0.09437871
v 0.08721831 0.1801911 0.0344187
v 0.08056363 0.1674734 0.04155841
v 0.06452841 0.08511454 0.07931352
v -0.02282637 0.06389913 0.1151188
v 0.06518805 0.07537505 0.08298039
v -0.2673615 0.1436971 -0.2428272
v -0.2298295 0.08616221 -0.3154078
v -0.2272297 0.09336984 -0.3060175
v -0.181394 0.1369648 -0.2479588
v -0.1768637 0.2288885 -0.1293387
v -0.1806373 0.2266574 -0.1323654
v -0.1727603 -0.1536972 -0.05051088
v -0.1489063 -0.155841 -0.1838955
v -0.1793568 -0.08235827 -0.1910837
v -0.2007565 -0.08613184 -0.05716556
v -0.2477176 0.06168735 -0.1548225
v -0.1860697 -0.06128836 -0.2049266
v 0.2596385 -0.1577327 0.1139838
v 0.2670886 -0.1586348 0.1119661
v 0.2492199 -0.1751842 0.1241404
v 0.2296827 -0.1597989 0.1243635
v 0.1947505 -0.1907926 0.1476355
v 0.2215535 -0.1578006 0.1261776
vt 0 0
vt 1 1
vt 1 0
vt 0 0
vt 0.08744505 0.08744505
vt 0.1929653 0
vt 1 1
vt 1 0
vt 0.1929653 0.1929653
vt 0.2188569 0
vt 0 0
vt 0.7054226 0.7054226
vt 0.442599 0
vt 0 0
vt 0.5051295 0.5051295
vt 1 0
vt 1 0.5051295
vt 1 0
vt 0.5574011 0
vt 0 0
vt 1 0.7054226
vt 0.6673181 0.6673181
vt 0.2779678 1
vt 0.2999512 1
vt 0.3116757 1
vt 0.2779678 1
vt 0.3277968 1
vt 0.2222765 1
vt 0.2222765 1
vt 0.3287739 1
vt 0.2046898 1
vt 0.1753786 1
vt 0.307279 1
vt 0.1665853 1
vt 0.2779678 1
vt 0.3043479 1
vt 0.2261847 1
vt 0.2222765 1
vt 0.1665853 1
vt 0.2022472 1
vt 0.1665853 1
vt 0.1152907 1
vt 0.1656082 1
vt 0.110894 1
vt 0.110894 1
vt 0.08842209 1
vt 0.4997558 1
vt 0.4909624 1
vt 0.444553 1
vt 0.444553 1
vt 0.3888618 1
vt 0.3888618 1
vt 0.4997558 1
vt 0.5319981 1
vt 0.4997558 1
vt 0.5393259 1
vt 0.444553 1
vt 0.4333171 1
vt 0.4015633 1
vt 0.3331705 1
vt 0.3331705 1
vt 0.3888618 1
vt 0.3981437 1
vt 0.3331705 1
vt 0.2779678 1
vt 0.2779678 1
vt 0.2779678 1
vt 0.2540303 1
vt 0.3243772 1
vt 0.2222765 1
vt 0.2779678 1
vt 0.308256 1
vt 0.2691744 1
vt 0.2222765 1
vt 0.1734245 1
vt 0.2222765 1
vt 0.1665853 1
vt 0.1665853 1
vt 0.2178798 1
vt 0.2144602 1
vt 0.2169028 0.998046
vt 0.1954079 1
vt 0.1665853 1
vt 0.110894 1
vt 0.110894 1
vt 0.1089399 1
vt 0.1021006 1
vt 0.05569126 1
vt 0.05569126 1
vt 0.03566195 1
vt 1 0.6101613
vt 1 0.3409868
vt 0.8759161 0.4816806
vt 0.948217 0.6126039
vt 0.8900831 0.7191012
vt 0.9203714 0.5999024
vt 0.3766488 0.3185149
vt 0.222765 0.222765
vt 0.5446996 0.5446996
vt 0.8304837 0.6927211
vt 0.7635565 0.4176845
vt 1 0.7645336
vt 1 0.2403518
vt 0.6673181 0.3610162
vt 0.94724 0.1626771
vt 0.2657548 0.2198339
vt 0.6673181 0
vt 0.2188569 0.2188569
vt 0 0
vt 0.159746 0.09086469
vt 0.1040547 0
vt 0 0
vt 0.4797265 0.4797265
vt 0.2721055 0.208598
vt 0.4215926 0.3253542
vt 0.5979483 0.4333171
vt 0.6770885 0.4704446
vt 0.7957988 0.5368833
vt 1 0.6282365
vt 1 0.7708843
vt 0.5857353 0.5510504
vt 0.8930143 0.7230093
vt 0.8426967 0.07230093
vt 1 0.08744505
vt 1 0
vt 0.1934539 0.03663899
vt 0.8080118 0
vt 0 0
vt 1 0.5446996
vt 1 0.222765
vt 0.8900831 0.1861261
vt 0.5984368 0
vt 0.3268198 0
vt 0.8143626 0.4259893
vt 0.3878848 0.06301906
vt 0.493405 0
vt 0.2159258 0
vt 0.8808013 0.6140695
vt 0.5593552 0.06057646
vt 0.9682463 0.7078652
vt 1 0.5359063
vt 1 0.7532976
vt 1 0.6731803
vt 1 0.4015633
vt 0.9633611 0.4347827
vt 0.6682951 0.6106498
vt 0.7708843 0.7708843
vt 0.6282365 0.6282365
vt 0.4640939 0
vt 0.2467025 0
vt 0.2652663 0.03028823
vt 0.3409868 0.3409868
vt 0.6101613 0.6101613
vt 0.6082072 0.5881779
vt 0.7596484 0
vt 0.2354666 0
vt 0.2559844 0.1675623
vt 0.7782121 0.1538838
vt 0.493405 0.493405
vt 0.2159258 0.2159258
vt 0.08988765 0.03028823
vt 0.1919883 0
vt 0 0
vt 0.7664877 0.6805081
vt 1 1
vt 1 0.8959454
vn 0.3516195 0.1723689 0.9201373
vn 0.3516195 0.1723689 0.9201373
vn 0.3516195 0.1723689 0.9201373
vn 0.4047778 -0.7844795 -0.4698371
vn 0.4047778 -0.7844795 -0.4698371
vn 0.4047778 -0.7844795 -0.4698371
vn 0.4047778 -0.7920735 -0.4569184
vn 0.4047778 -0.7920735 -0.4569184
vn 0.3971837 -0.7920735 -0.4635349
vn 0.3971837 -0.7920735 -0.4635349
vn -0.3318437 -0.5642525 0.7559754
vn -0.3318437 -0.5642525 0.7559754
vn -0.3318437 -0.5642525 0.7559754
vn -0.2634974 -0.46553 0.844897
vn -0.2634974 -0.46553 0.844897
vn -0.2634974 -0.46553 0.844897
vn -0.3318437 -0.5642525 0.7559754
vn -0.3318437 -0.5794405 0.744398
vn -0.3318437 -0.5642525 0.7559754
vn -0.3318437 -0.5794405 0.744398
vn -0.3318437 -0.5794405 0.744398
vn -0.3318437 -0.5794405 0.744398
vn -0.6583872 -0.1389865 0.7397358
vn -0.6356051 -0.2301149 0.7369215
vn -0.6356051 -0.2301149 0.7369215
vn -0.7950798 -0.1389865 0.5903649
vn -0.6356051 -0.2301149 0.7369215
vn -0.7950798 0.1419928 0.5896491
vn -0.6659812 0.08124053 0.7415316
vn -0.6356051 -0.2301149 0.7369215
vn -0.6356051 0.2331213 0.735976
vn -0.6356051 0.2331213 0.735976
vn -0.7343276 -0.2680851 0.6236132
vn -0.6052289 0.3014675 0.73676
vn -0.8938023 -0.1237984 0.4310353
vn -0.8482381 -0.3060553 0.4322294
vn -0.9013963 -0.002293885 0.432989
vn -0.8710202 0.2331213 0.4324099
vn -0.6963574 0.40019 0.5957637
vn -0.8482381 0.3090615 0.430085
vn -0.8178619 0.3850019 0.4276394
vn -0.5596647 0.4761304 0.6782885
vn -0.6887634 0.5824468 0.4316951
vn -0.4609423 0.4837244 0.7440047
vn -0.4685363 0.4837244 0.7392459
vn -0.3394377 0.5900409 0.7325529
vn 0.03267002 0.9545546 -0.2962402
vn 0.1693627 0.9393665 -0.2981727
vn 0.3440254 0.8938023 -0.2876873
vn 0.2832732 0.7874858 -0.5473777
vn 0.5338763 0.6431991 -0.5488816
vn 0.6098167 0.7343276 -0.2981387
vn 0.002293885 0.83305 -0.5531929
vn -0.1268047 0.7115455 -0.6911032
vn 0.03267002 0.6735753 -0.7383962
vn -0.1192107 0.6735753 -0.7294417
vn 0.2832732 0.612823 -0.737702
vn 0.3364314 0.5900409 -0.7339384
vn 0.3364314 0.5900409 -0.7339384
vn 0.7237272 0.4153781 -0.5510716
vn 0.8148556 0.4913185 -0.3075978
vn 0.46553 0.4837244 -0.7411427
vn 0.3364314 0.5900409 -0.7339384
vn 0.6174107 0.2710913 -0.7384534
vn 0.8224497 0.1419928 -0.5508308
vn 0.7920735 0.1419928 -0.5936813
vn 0.9363602 0.1951511 -0.2917973
vn 0.7237272 -0.002293885 -0.6900823
vn 0.7313212 0.2634974 -0.6290774
vn 0.6705689 -0.08582824 -0.7368655
vn 0.890796 0.1268047 -0.436352
vn 0.8452318 0.3090615 -0.4359635
vn 0.8983901 -0.002293885 -0.4391925
vn 0.7920735 -0.1389865 -0.5943923
vn 0.6401929 -0.2301149 -0.7329394
vn 0.8680139 -0.2301149 -0.4399989
vn 0.7009451 -0.4047778 -0.5872231
vn 0.6022227 -0.2984613 -0.7404382
vn 0.905984 -0.3288374 -0.2665687
vn 0.890796 -0.3212433 -0.3213801
vn 0.9363602 -0.3440254 0.06982923
vn 0.8452318 -0.3060553 -0.4380792
vn 0.8148556 -0.3819956 -0.4359927
vn 0.5110942 -0.5262823 -0.6795658
vn 0.473124 -0.4883121 -0.7332837
vn 0.3440254 -0.5870346 -0.732828
vn 0.3440254 -0.5870346 -0.732828
vn 0.252897 -0.6250048 -0.7385202
vn 0.2832732 -0.6098167 -0.7401891
vn 0.1162044 -0.6705689 -0.7326895
vn 0.03267002 0.7874858 -0.6154662
vn 0.03267002 0.7874858 -0.6154662
vn 0.03267002 0.7874858 -0.6154662
vn 0.03267002 0.7874858 -0.6154662
vn 0.03267002 0.7874858 -0.6154662
vn 0.03267002 0.7874858 -0.6154662
vn 0.03267002 0.7874858 -0.6154662
vn 0.03267002 0.7874858 -0.6154662
vn 0.03267002 0.7874858 -0.6154662
vn 0.03267002 0.7874858 -0.6154662
vn -0.187557 -0.9819244 -0.02543167
vn -0.187557 -0.9819244 -0.02543167
vn -0.187557 -0.9819244 -0.02543167
vn -0.187557 -0.9819244 -0.02543167
vn -0.187557 -0.9819244 -0.02543167
vn -0.187557 -0.9819244 -0.02543167
vn -0.187557 -0.9819244 -0.02543167
vn -0.187557 -0.9819244 -0.02543167
vn -0.187557 -0.9819244 -0.02543167
vn 0.2756791 0.3470317 0.8964207
vn 0.2756791 0.3470317 0.8964207
vn 0.2756791 0.3470317 0.8964207
vn 0.2756791 0.3470317 0.8964207
vn 0.2756791 0.3470317 0.8964207
vn 0.2756791 0.3470317 0.8964207
vn 0.2756791 0.3470317 0.8964207
vn 0.2756791 0.3470317 0.8964207
vn 0.2756791 0.3470317 0.8964207
vn 0.2756791 0.3470317 0.8964207
vn 0.2756791 0.3470317 0.8964207
vn 0.2756791 0.3470317 0.8964207
vn 0.2756791 0.3470317 0.8964207
vn 0.4047778 -0.7844795 -0.4698371
vn 0.4047778 -0.7844795 -0.4698371
vn 0.4047778 -0.7844795 -0.4698371
vn 0.4047778 -0.7844795 -0.4698371
vn 0.4047778 -0.7844795 -0.4698371
vn 0.4047778 -0.7844795 -0.4698371
vn 0.2756791 0.3546258 0.8934436
vn 0.2756791 0.3546258 0.8934436
vn 0.2756791 0.3546258 0.8934436
vn 0.2756791 0.3546258 0.8934436
vn 0.2756791 0.3546258 0.8934436
vn 0.2756791 0.3546258 0.8934436
vn 0.2756791 0.3546258 0.8934436
vn -0.9089904 -0.3895897 -0.1481769
vn -0.9089904 -0.3895897 -0.1481769
vn -0.9089904 -0.3895897 -0.1481769
vn -0.9089904 -0.3895897 -0.1481769
vn -0.9089904 -0.3895897 -0.1481769
vn -0.9089904 -0.3895897 -0.1481769
vn -0.9089904 -0.3895897 -0.1481769
vn 0.2832732 0.3546258 0.891065
vn 0.2832732 0.3546258 0.891065
vn 0.2832732 0.3546258 0.891065
vn 0.2832732 0.3546258 0.891065
vn 0.2832732 0.3546258 0.891065
vn 0.2832732 0.3546258 0.891065
vn 0.02507597 0.7874858 -0.6158224
vn 0.02507597 0.7874858 -0.6158224
vn 0.02507597 0.7874858 -0.6158224
vn 0.02507597 0.7874858 -0.6158224
vn 0.02507597 0.7874858 -0.6158224
vn 0.02507597 0.7874858 -0.6158224
vn -0.9089904 -0.3895897 -0.1481769
vn -0.9089904 -0.3895897 -0.1481769
vn -0.9089904 -0.3895897 -0.1481769
vn -0.9089904 -0.3895897 -0.1481769
vn -0.9089904 -0.3895897 -0.1481769
vn -0.9089904 -0.3895897 -0.1481769
vn 0.2832732 0.3470317 0.8940499
vn 0.2832732 0.3470317 0.8940499
vn 0.2832732 0.3470317 0.8940499
vn 0.2832732 0.3470317 0.8940499
vn 0.2832732 0.3470317 0.8940499
vn 0.2832732 0.3470317 0.8940499
g Bottiglia_cell.007_0
f 3/3/3 2/2/2 1/1/1
f 6/6/6 5/5/5 4/4/4
f 8/8/8 7/7/7 4/4/4
f 10/10/10 9/9/9 4/4/4
f 13/13/13 12/12/12 11/11/11
f 16/16/16 15/15/15 14/14/14
f 19/19/19 18/18/18 17/17/17
f 18/18/18 21/21/21 20/20/20
f 21/21/21 22/22/22 20/20/20
f 25/25/25 24/24/24 23/23/23
f 23/23/23 26/26/26 25/25/25
f 26/26/26 27/27/27 25/25/25
f 26/26/26 23/23/23 28/28/28
f 23/23/23 29/29/29 28/28/28
f 26/26/26 30/30/30 27/27/27
f 28/28/28 29/29/29 31/31/31
f 31/31/31 32/32/32 28/28/28
f 26/26/26 33/33/33 30/30/30
f 32/32/32 34/34/34 28/28/28
f 33/33/33 26/26/26 35/35/35
f 36/36/36 33/33/33 35/35/35
f 37/37/37 35/35/35 26/26/26
f 26/26/26 28/28/28 37/37/37
f 28/28/28 38/38/38 37/37/37
f 38/38/38 28/28/28 39/39/39
f 34/34/34 39/39/39 28/28/28
f 39/39/39 40/40/40 38/38/38
f 39/39/39 41/41/41 40/40/40
f 41/41/41 39/39/39 42/42/42
f 43/43/43 41/41/41 42/42/42
f 44/44/44 42/42/42 39/39/39
f 44/44/44 39/39/39 34/34/34
f 34/34/34 45/45/45 44/44/44
f 46/46/46 44/44/44 45/45/45
f 49/49/49 48/48/48 47/47/47
f 50/50/50 49/49/49 47/47/47
f 49/49/49 50/50/50 51/51/51
f 52/52/52 49/49/49 51/51/51
f 47/47/47 53/53/53 50/50/50
f 47/47/47 54/54/54 53/53/53
f 55/55/55 53/53/53 54/54/54
f 50/50/50 53/53/53 55/55/55
f 56/56/56 55/55/55 54/54/54
f 57/57/57 50/50/50 55/55/55
f 51/51/51 50/50/50 57/57/57
f 57/57/57 58/58/58 51/51/51
f 58/58/58 59/59/59 51/51/51
f 52/52/52 51/51/51 60/60/60
f 61/61/61 52/52/52 60/60/60
f 59/59/59 62/62/62 51/51/51
f 60/60/60 51/51/51 62/62/62
f 59/59/59 63/63/63 62/62/62
f 64/64/64 60/60/60 62/62/62
f 61/61/61 60/60/60 65/65/65
f 65/65/65 60/60/60 64/64/64
f 64/64/64 66/66/66 65/65/65
f 67/67/67 61/61/61 65/65/65
f 67/67/67 65/65/65 68/68/68
f 68/68/68 65/65/65 66/66/66
f 64/64/64 69/69/69 66/66/66
f 66/66/66 70/70/70 68/68/68
f 71/71/71 66/66/66 69/69/69
f 72/72/72 71/71/71 69/69/69
f 66/66/66 71/71/71 73/73/73
f 66/66/66 74/74/74 70/70/70
f 73/73/73 74/74/74 66/66/66
f 75/75/75 70/70/70 74/74/74
f 73/73/73 76/76/76 74/74/74
f 77/77/77 74/74/74 76/76/76
f 74/74/74 78/78/78 75/75/75
f 74/74/74 77/77/77 78/78/78
f 76/76/76 79/79/79 77/77/77
f 79/79/79 80/80/80 77/77/77
f 81/81/81 80/80/80 79/79/79
f 80/80/80 82/82/82 77/77/77
f 82/82/82 83/83/83 77/77/77
f 84/84/84 77/77/77 83/83/83
f 78/78/78 77/77/77 84/84/84
f 85/85/85 78/78/78 84/84/84
f 85/85/85 84/84/84 86/86/86
f 87/87/87 85/85/85 86/86/86
f 87/87/87 86/86/86 88/88/88
f 88/88/88 89/89/89 87/87/87
f 90/90/90 89/89/89 88/88/88
f 93/93/93 92/92/92 91/91/91
f 91/91/91 94/94/94 93/93/93
f 91/91/91 95/95/95 94/94/94
f 95/95/95 96/96/96 94/94/94
f 95/95/95 97/97/97 96/96/96
f 95/95/95 98/98/98 97/97/97
f 95/95/95 99/99/99 98/98/98
f 95/95/95 100/100/100 99/99/99
f 103/103/103 102/102/102 101/101/101
f 101/101/101 104/104/104 103/103/103
f 104/104/104 105/105/105 103/103/103
f 104/104/104 106/106/106 105/105/105
f 106/106/106 107/107/107 105/105/105
f 106/106/106 108/108/108 107/107/107
f 108/108/108 109/109/109 107/107/107
f 112/112/112 111/111/111 110/110/110
f 110/110/110 113/113/113 112/112/112
f 110/110/110 114/114/114 113/113/113
f 114/114/114 115/115/115 113/113/113
f 115/115/115 116/116/116 113/113/113
f 116/116/116 117/117/117 113/113/113
f 117/117/117 118/118/118 113/113/113
f 118/118/118 119/119/119 113/113/113
f 119/119/119 120/120/120 113/113/113
f 120/120/120 121/121/121 113/113/113
f 120/120/120 122/122/122 121/121/121
f 125/125/125 124/124/124 123/123/123
f 123/123/123 126/126/126 125/125/125
f 126/126/126 127/127/127 125/125/125
f 127/127/127 128/128/128 125/125/125
f 131/131/131 130/130/130 129/129/129
f 129/129/129 132/132/132 131/131/131
f 129/129/129 133/133/133 132/132/132
f 129/129/129 134/134/134 133/133/133
f 134/134/134 135/135/135 133/133/133
f 138/138/138 137/137/137 136/136/136
f 136/136/136 139/139/139 138/138/138
f 139/139/139 140/140/140 138/138/138
f 139/139/139 141/141/141 140/140/140
f 141/141/141 142/142/142 140/140/140
f 145/145/145 144/144/144 143/143/143
f 143/143/143 146/146/146 145/145/145
f 143/143/143 147/147/147 146/146/146
f 148/148/148 146/146/146 147/147/147
f 151/151/151 150/150/150 149/149/149
f 149/149/149 152/152/152 151/151/151
f 149/149/149 153/153/153 152/152/152
f 149/149/149 154/154/154 153/153/153
f 157/157/157 156/156/156 155/155/155
f 155/155/155 158/158/158 157/157/157
f 158/158/158 159/159/159 157/157/157
f 159/159/159 160/160/160 157/157/157
f 163/163/163 162/162/162 161/161/161
f 161/161/161 164/164/164 163/163/163
f 164/164/164 165/165/165 163/163/163
f 164/164/164 166/166/166 165/165/165
