g Bottiglia_cell.012
v 0.05603923 -0.0906488 -0.1053137
v -0.06210718 -0.2314564 -0.1053137
v -0.006480634 -0.1651579 0.02447477
v 0.02841489 -0.1235733 0.1056423
v 0.05603923 -0.0906488 0.125107
v 0.1213675 0.08884305 -0.1053137
v 0.08347975 -0.01526141 0.1626578
v 0.1213675 0.08884305 0.01144382
v 0.1213675 0.1677129 -0.1053137
v 0.1213675 0.1585626 -0.09173131
v -0.02954006 -0.09692939 0.07334074
v -0.08096936 -0.1629521 -0.0517092
v 0.004609942 -0.06096157 -0.0517092
v -0.01032047 -0.07226661 0.1199396
v 0.0007803291 -0.05874549 0.1278848
v 0.06288148 0.09915751 -0.0517092
v 0.01750812 -0.01109478 0.1515059
v 0.06183983 0.09934133 -0.008572325
v 0.06288148 0.1284771 -0.0517092
v 0.06203386 0.1047334 -0.01654816
v -0.08096936 -0.1629521 -0.0517092
v -0.02954006 -0.09692939 0.07334074
v -0.006480634 -0.1651579 0.02447477
v -0.06210718 -0.2314564 -0.1053137
v -0.4378085 0.1378622 -0.1053137
v -0.3547516 0.1061734 -0.0517092
v 0.01750812 -0.01109478 0.1515059
v 0.08347975 -0.01526141 0.1626578
v 0.05603923 -0.0906488 0.125107
v 0.02841489 -0.1235733 0.1056423
v 0.0007803291 -0.05874549 0.1278848
v -0.01032047 -0.07226661 0.1199396
v -0.3547516 0.1061734 -0.0517092
v -0.4378085 0.1378622 -0.1053137
v 0.1213675 0.1677129 -0.1053137
v 0.1213675 0.1585626 -0.09173131
v 0.06288148 0.1284771 -0.0517092
v 0.06203386 0.1047334 -0.01654816
v -0.01032047 -0.07226661 0.1199396
v 0.02841489 -0.1235733 0.1056423
v -0.006480634 -0.1651579 0.02447477
v -0.02954006 -0.09692939 0.07334074
v 0.05603923 -0.0906488 -0.1053137
v 0.1213675 0.08884305 -0.1053137
v 0.1213675 0.1677129 -0.1053137
v -0.4378085 0.1378622 -0.1053137
v -0.06210718 -0.2314564 -0.1053137
v 0.06203386 0.1047334 -0.01654816
v 0.1213675 0.1585626 -0.09173131
v 0.1213675 0.08884305 0.01144382
v 0.06183983 0.09934133 -0.008572325
v 0.01750812 -0.01109478 0.1515059
v 0.08347975 -0.01526141 0.1626578
v -0.3547516 0.1061734 -0.0517092
v 0.06288148 0.1284771 -0.0517092
v 0.06288148 0.09915751 -0.0517092
v 0.004609942 -0.06096157 -0.0517092
v -0.08096936 -0.1629521 -0.0517092
vt 0.6666667 0.5004888
vt 0.6129032 0.5004888
vt 0.6383187 0.5239491
vt 0.6539589 0.5395895
vt 0.6666667 0.5434995
vt 0.7223852 0.5004888
vt 0.6901271 0.5503421
vt 0.7223852 0.5219941
vt 0.744868 0.5004888
vt 0.742913 0.5024438
vt 0.6510264 0.5249267
vt 0.6236559 0.5004888
vt 0.6666667 0.5004888
vt 0.6608016 0.5337244
vt 0.6666667 0.5356794
vt 0.7223852 0.5004888
vt 0.6832845 0.540567
vt 0.7223852 0.5083089
vt 0.7321603 0.5004888
vt 0.7243402 0.5073314
vt 0.5386119 0.1857283
vt 0.7781036 0
vt 0.6119257 0
vt 0.3665689 0.1964809
vt 1 0.829912
vt 1 0.6471163
vt 0.6637341 0
vt 0.3782991 0
vt 0.7614858 0.2639296
vt 1 0.3822092
vt 0.9032258 0.1661779
vt 1 0.2150538
vt 0.3528837 0
vt 0.170088 0
vt 0.9843597 0.8132942
vt 1 0.7829912
vt 0.9608993 0.6080157
vt 1 0.5268817
vt 0.2150538 0.2150538
vt 0.3822092 0.3822092
vt 0.3880743 0
vt 0.2218964 0
vt 0.9579667 0.1300098
vt 0.9863148 0.2082111
vt 0.9863148 0.2424242
vt 0.7419355 0.2297165
vt 0.9061583 0.0684262
vt 0.5268817 0.5268817
vt 0.7829912 0.7829912
vt 0.7839687 0.4731183
vt 0.5268817 0.5034213
vt 0.3362659 0
vt 0.6217009 0
vt 0.7820137 0.2121212
vt 0.9863148 0.2228739
vt 0.9863148 0.2082111
vt 0.9579667 0.1300098
vt 0.9159335 0.0801564
vn 0.6392629 -0.3726364 -0.6726701
vn 0.4196881 -0.3569524 -0.8345339
vn 0.7647343 -0.6392629 -0.08077403
vn 0.7647343 -0.6392629 -0.08077403
vn 0.8888497 -0.458199 0
vn 0.7333664 -0.1295357 -0.6673787
vn 0.9372573 -0.3412685 -0.07130609
vn 0.9604543 -0.2784375 0
vn 0.5451595 0.003777623 -0.8383239
vn 0.9999928 0.003777623 0
vn -0.7644475 0.6389762 -0.08561246
vn -0.4272434 0.3566657 0.8308145
vn -0.6468182 0.3723496 0.665569
vn -0.7644475 0.6389762 -0.08561246
vn -0.8889062 0.4580893 0
vn -0.7409216 0.129249 0.6590371
vn -0.9369706 0.3409817 -0.07627299
vn -0.9604964 0.2782462 -0.005070696
vn -0.5448726 0.003777623 0.8385103
vn -0.9997063 0.003777623 -0.0239402
vn -0.5840825 -0.5922112 0.5550978
vn -0.5840825 -0.5922112 0.5550978
vn -0.5840825 -0.5922112 0.5550978
vn -0.5840825 -0.5922112 0.5550978
vn -0.5840825 -0.5922112 0.5550978
vn -0.5840825 -0.5922112 0.5550978
vn -0.1763006 -0.3883203 0.9045029
vn -0.1763006 -0.3883203 0.9045029
vn -0.1763006 -0.3883203 0.9045029
vn -0.1763006 -0.3883203 0.9045029
vn -0.1763006 -0.3883203 0.9045029
vn -0.1763006 -0.3883203 0.9045029
vn -0.04298735 0.8271831 0.5602857
vn -0.04298735 0.8271831 0.5602857
vn -0.04298735 0.8271831 0.5602857
vn -0.04298735 0.8271831 0.5602857
vn -0.04298735 0.8271831 0.5602857
vn -0.04298735 0.8271831 0.5602857
vn -0.5840825 -0.5922112 0.5550978
vn -0.5840825 -0.5922112 0.5550978
vn -0.5840825 -0.5922112 0.5550978
vn -0.5840825 -0.5922112 0.5550978
vn 0.6392629 -0.3726364 -0.6726701
vn 0.7333664 -0.1295357 -0.6673787
vn 0.5451595 0.003777623 -0.8383239
vn -0.003777623 0.003777623 -0.9999858
vn 0.4196881 -0.3569524 -0.8345339
vn -0.04298735 0.8271831 0.5602857
vn -0.04298735 0.8271831 0.5602857
vn -0.04298735 0.8271831 0.5602857
vn -0.04298735 0.8271831 0.5602857
vn -0.04298735 0.8271831 0.5602857
vn -0.04298735 0.8271831 0.5602857
vn -0.003777623 0.003777623 0.9999858
vn -0.5448726 0.003777623 0.8385103
vn -0.7409216 0.129249 0.6590371
vn -0.6468182 0.3723496 0.665569
vn -0.4272434 0.3566657 0.8308145
g Bottiglia_cell.012_0
f 3/3/3 2/2/2 1/1/1
f 1/1/1 4/4/4 3/3/3
f 1/1/1 5/5/5 4/4/4
f 5/5/5 1/1/1 6/6/6
f 6/6/6 7/7/7 5/5/5
f 6/6/6 8/8/8 7/7/7
f 8/8/8 6/6/6 9/9/9
f 10/10/10 8/8/8 9/9/9
f 13/13/13 12/12/12 11/11/11
f 11/11/11 14/14/14 13/13/13
f 14/14/14 15/15/15 13/13/13
f 16/16/16 13/13/13 15/15/15
f 15/15/15 17/17/17 16/16/16
f 17/17/17 18/18/18 16/16/16
f 19/19/19 16/16/16 18/18/18
f 20/20/20 19/19/19 18/18/18
f 23/23/23 22/22/22 21/21/21
f 24/24/24 23/23/23 21/21/21
f 21/21/21 25/25/25 24/24/24
f 25/25/25 21/21/21 26/26/26
f 29/29/29 28/28/28 27/27/27
f 27/27/27 30/30/30 29/29/29
f 27/27/27 31/31/31 30/30/30
f 31/31/31 32/32/32 30/30/30
f 35/35/35 34/34/34 33/33/33
f 33/33/33 36/36/36 35/35/35
f 33/33/33 37/37/37 36/36/36
f 37/37/37 38/38/38 36/36/36
f 41/41/41 40/40/40 39/39/39
f 42/42/42 41/41/41 39/39/39
f 45/45/45 44/44/44 43/43/43
f 43/43/43 46/46/46 45/45/45
f 43/43/43 47/47/47 46/46/46
f 50/50/50 49/49/49 48/48/48
f 48/48/48 51/51/51 50/50/50
f 51/51/51 52/52/52 50/50/50
f 52/52/52 53/53/53 50/50/50
f 56/56/56 55/55/55 54/54/54
f 54/54/54 57/57/57 56/56/56
f 54/54/54 58/58/58 57/57/57
