g Bottiglia_cell.045
v -0.07525516 0.06184459 0.1596565
v -0.1553915 0.0690341 0.1143709
v -0.09249458 0.07973817 0.1501453
v -0.109176 0.03729379 0.1399415
v -0.07525516 0.06184459 0.1596565
v -0.08046931 0.05044141 0.1564754
v -0.07525516 0.06184459 0.1596565
v 0.0009177178 0.1383509 0.1125431
v -0.01867546 0.06184459 0.1566935
v -0.004828766 0.1365937 0.1137937
v 0.0009177178 0.1383509 0.1125431
v -0.09249458 0.07973817 0.1501453
v -0.004828766 0.1365937 0.1137937
v -0.05026183 0.1145185 0.1283203
v -0.01183228 0.1344323 0.1153073
v -0.01867546 0.06184459 0.1566935
v 0.01196814 0.1380495 0.1071622
v 0.02754006 0.1341052 0.09676597
v -0.01867546 0.06184459 0.1566935
v -0.06705874 0.05021054 0.1557251
v -0.07525516 0.06184459 0.1596565
v -0.06705874 0.05021054 0.1557251
v -0.07545397 0.04869694 0.155693
v -0.08046931 0.05044141 0.1564754
v 0.01196814 0.1380495 0.1071622
v -0.01867546 0.06184459 0.1566935
v 0.0009177178 0.1383509 0.1125431
v -0.212029 0.08347723 0.04046845
v -0.1553915 0.0690341 0.1143709
v -0.2169738 0.07996264 0.03533767
v -0.004828766 0.1365937 0.1137937
v -0.01183228 0.1344323 0.1153073
v -0.02206178 0.1309755 0.1172763
v 0.0009177178 0.1383509 0.1125431
v 0.01196814 0.1380495 0.1071622
v 0.02754006 0.1341052 0.09676597
v 0.04667787 -0.05789505 -0.06651476
v -0.07545397 -0.0794315 -0.06651476
v -0.03454882 0.1292182 0.1176803
v -0.03924349 0.1275635 0.1169299
v 0.04983972 0.1283523 0.08178407
v -0.07545397 0.113255 0.1096827
v 0.1540844 0.004116863 -0.06651476
v 0.1780964 0.1216502 -0.01344323
v 0.1785582 0.03327896 -0.06651476
v 0.1887428 0.1210859 -0.02135105
v 0.1965673 0.1206177 -0.02720015
v 0.2015505 0.1177444 -0.0324592
v 0.1630248 -0.006535918 -0.09474047
v 0.1717407 0.01577015 -0.0789569
v -0.145207 -0.06713045 -0.06651476
v -0.09680444 0.1075149 0.100986
v -0.1419104 0.09509206 0.08236128
v -0.1738752 0.007265881 -0.003104702
v -0.212029 0.08347723 0.04046845
v -0.2025114 0.05529001 0.02221571
v -0.2169738 0.07996264 0.03533767
v -0.1556289 -0.08825003 -0.1131151
v -0.07545397 -0.1236204 -0.1562201
v 0.04029647 -0.1060667 -0.1620307
v -0.1231189 -0.116713 -0.1592665
v -0.1380623 -0.1145325 -0.16019
v -0.1662368 -0.1102098 -0.1614919
v 0.06295528 -0.1026098 -0.1631145
v 0.07660316 -0.09605523 -0.1654811
v 0.1248261 -0.07282561 -0.1737224
v -0.09249458 0.07973817 0.1501453
v -0.03924349 0.1275635 0.1169299
v -0.03454882 0.1292182 0.1176803
v -0.05026183 0.1145185 0.1283203
v 0.1887428 0.1210859 -0.02135105
v 0.1954898 0.007894412 0.01233895
v 0.1486329 0.01061372 0.04704869
v 0.1780964 0.1216502 -0.01344323
v 0.04983972 0.1283523 0.08178407
v 0.008357346 0.04740143 0.1410959
v 0.02754006 0.1341052 0.09676597
v -0.01867546 0.06184459 0.1566935
v -0.1553915 0.0690341 0.1143709
v -0.212029 0.08347723 0.04046845
v -0.1419104 0.09509206 0.08236128
v -0.09680444 0.1075149 0.100986
v -0.09680444 0.1075149 0.100986
v -0.07545397 0.113255 0.1096827
v -0.03924349 0.1275635 0.1169299
v -0.09249458 0.07973817 0.1501453
v -0.05026183 0.1145185 0.1283203
v -0.03454882 0.1292182 0.1176803
v -0.02206178 0.1309755 0.1172763
v -0.01183228 0.1344323 0.1153073
v 0.0882821 -0.1722025 -0.1361715
v 0.09434925 -0.1692843 -0.1372233
v 0.07660316 -0.09605523 -0.1654811
v 0.06936234 -0.1750949 -0.1352608
v 0.06295528 -0.1026098 -0.1631145
v 0.04029647 -0.1060667 -0.1620307
v 0.1717407 0.01577015 -0.0789569
v 0.1854655 -0.05255903 -0.02174869
v 0.1906284 -0.03943706 -0.01228239
v 0.2033335 0.007381335 0.006496266
v 0.1785582 0.03327896 -0.06651476
v 0.2015505 0.1177444 -0.0324592
v -0.03196418 -0.1904745 -0.1301749
v -0.1231189 -0.116713 -0.1592665
v -0.1380623 -0.1145325 -0.16019
v -0.03848028 -0.1914557 -0.1298286
v -0.03196418 -0.1904745 -0.1301749
v 0.06936234 -0.1750949 -0.1352608
v 0.04029647 -0.1060667 -0.1620307
v -0.07545397 -0.1236204 -0.1562201
v -0.1231189 -0.116713 -0.1592665
v 0.2015505 0.1177444 -0.0324592
v 0.2033335 0.007381335 0.006496266
v 0.1954898 0.007894412 0.01233895
v 0.1965673 0.1206177 -0.02720015
v 0.1887428 0.1210859 -0.02135105
v 0.1248261 -0.07282561 -0.1737224
v 0.1269938 -0.1535392 -0.1428095
v 0.1854655 -0.05255903 -0.02174869
v 0.1630248 -0.006535918 -0.09474047
v 0.1717407 0.01577015 -0.0789569
v 0.1854655 -0.05255903 -0.02174869
v 0.1269938 -0.1535392 -0.1428095
v 0.09434925 -0.1692843 -0.1372233
v 0.0882821 -0.1722025 -0.1361715
v 0.06875947 -0.1185665 -0.01927949
v 0.06936234 -0.1750949 -0.1352608
v -0.03196418 -0.1904745 -0.1301749
v -0.03848028 -0.1914557 -0.1298286
v -0.06466651 -0.1950986 -0.127834
v -0.05437288 -0.1619537 -0.06366718
v -0.04711282 -0.1389935 -0.01927949
v 0.1486329 0.01061372 0.04704869
v 0.1906284 -0.03943706 -0.01228239
v 0.1954898 0.007894412 0.01233895
v 0.2033335 0.007381335 0.006496266
v 0.008357346 0.04740143 0.1410959
v -0.01867546 0.06184459 0.1566935
v -0.06705874 0.05021054 0.1557251
v -0.07545397 -0.04940359 0.06661621
v -0.07545397 0.04869694 0.155693
v -0.1061104 0.02926411 0.1331368
v -0.08046931 0.05044141 0.1564754
v -0.109176 0.03729379 0.1399415
v -0.03848028 -0.1914557 -0.1298286
v -0.1380623 -0.1145325 -0.16019
v -0.1662368 -0.1102098 -0.1614919
v -0.06466651 -0.1950986 -0.127834
v -0.06466651 -0.1950986 -0.127834
v -0.1662368 -0.1102098 -0.1614919
v -0.1556289 -0.08825003 -0.1131151
v -0.05437288 -0.1619537 -0.06366718
v 0.07660316 -0.09605523 -0.1654811
v 0.09434925 -0.1692843 -0.1372233
v 0.1269938 -0.1535392 -0.1428095
v 0.1248261 -0.07282561 -0.1737224
v -0.04711282 -0.1389935 -0.01927949
v -0.05437288 -0.1619537 -0.06366718
v -0.1556289 -0.08825003 -0.1131151
v -0.07545397 -0.04940359 0.06661621
v -0.145207 -0.06713045 -0.06651476
v -0.1738752 0.007265881 -0.003104702
v -0.1061104 0.02926411 0.1331368
v -0.2025114 0.05529001 0.02221571
v -0.109176 0.03729379 0.1399415
v -0.1061104 0.02926411 0.1331368
v -0.2025114 0.05529001 0.02221571
v -0.1553915 0.0690341 0.1143709
v -0.2169738 0.07996264 0.03533767
vt 0 0
vt 1 1
vt 1 0
vt 0.2721055 0.2721055
vt 1 0
vt 0.6868589 0
vt 0 0
vt 0.9320959 0.9320959
vt 1 0
vt 1 0.1138251
vt 0.9320959 0
vt 1 1
vt 0.1138251 0.1138251
vt 1 0
vt 0.3224231 0
vt 0 0
vt 0.5784075 0.5784075
vt 0.2393747 0
vt 1 1
vt 0.03224231 0
vt 0 0
vt 0.03224231 0.03224231
vt 0.2252076 0.0146556
vt 0.3131412 0
vt 1 0.5784075
vt 1 0
vt 0.05227162 0
vt 1 0.196385
vt 1 0
vt 0.7806547 0
vt 0.5735223 1
vt 0.5661945 1
vt 0.555447 1
vt 0.5842698 1
vt 0.589155 1
vt 0.5994139 1
vt 0.555447 1
vt 0.4997558 1
vt 0.5427455 1
vt 0.5378603 1
vt 0.6111383 1
vt 0.4997558 1
vt 0.6111383 1
vt 0.6619444 1
vt 0.6282365 1
vt 0.6648755 1
vt 0.6668296 1
vt 0.6668296 1
vt 0.6111383 1
vt 0.6204202 1
vt 0.4684905 1
vt 0.480215 1
vt 0.444553 1
vt 0.444553 1
vt 0.4025404 1
vt 0.4171959 1
vt 0.3996092 1
vt 0.4655594 1
vt 0.4997558 1
vt 0.5466537 1
vt 0.4807035 1
vt 0.4748413 1
vt 0.4636053 1
vt 0.555447 1
vt 0.5613093 1
vt 0.5828041 1
vt 0 0
vt 0.4201271 0.4201271
vt 1 0.1856375
vt 1 0
vt 1 0.5271129
vt 1 0.306302
vt 0.8422082 0.258427
vt 1 0.5373718
vt 0.3517343 0.2760137
vt 0.13532 0.02979971
vt 0.2393747 0.2393747
vt 0.01172448 0
vt 0 0
vt 0.196385 0.196385
vt 0.2359551 0.06546166
vt 0.3087445 0
vt 0.3087445 0.3087445
vt 0.602345 0.331705
vt 1 0.4201271
vt 1 0
vt 0 0
vt 0.1856375 0.1856375
vt 0.4714217 0.05227162
vt 0.677577 0
vt 0.8324378 0.05715682
vt 0.7718614 0
vt 0.6634099 0
vt 1 0.222765
vt 0.799707 0.1284807
vt 1 0.3273083
vt 1 0.3678554
vt 1 0.2154372
vt 0.9179288 0.1533952
vt 0.6849048 0
vt 0.8910602 0.2862726
vt 0.454812 0
vt 0.2843185 0.2843185
vt 0.4430875 0.4430875
vt 0.4704446 0
vt 0.2965316 0
vt 1 0.2843185
vt 0.7772351 0
vt 0.6726918 0
vt 0.9276992 0.3248657
vt 1 0.4430875
vt 0.5451881 0
vt 0.3150953 0
vt 0.306302 0.306302
vt 0.5363948 0.2212995
vt 0.5271129 0.5271129
vt 0.5979483 0.5979483
vt 0.7278945 0.7278945
vt 0.7845629 0
vt 0.6345873 0.12213
vt 0.6321447 0
vt 0.6072302 1
vt 0.5701026 1
vt 0.5578896 1
vt 0.555447 1
vt 0.555447 1
vt 0.5490963 1
vt 0.5148999 1
vt 0.5124573 1
vt 0.503664 1
vt 0.5075721 1
vt 0.5109918 1
vt 0.6111383 1
vt 0.6111383 1
vt 0.6257939 1
vt 0.627748 1
vt 0.555447 1
vt 0.542257 1
vt 0.505618 1
vt 0.4997558 1
vt 0.4997558 1
vt 0.4807035 1
vt 0.4968247 1
vt 0.4777724 1
vt 1 0.7034686
vt 1 0.5295555
vt 0.4142648 0
vt 0.1983391 0
vt 0.1983391 0.1983391
vt 0.4142648 0.4142648
vt 1 0.5163655
vt 1 0.344895
vt 0.6634099 0.6634099
vt 0.7718614 0.7718614
vt 1 0.7278945
vt 1 0.5979483
vt 0.4367367 0.2603811
vt 0.344895 0.344895
vt 0.5163655 0.5163655
vt 0.739619 0.1323889
vt 0.6047876 0.4255008
vt 0.8510016 0.3375672
vt 1 0.04054715
vt 1 0.3165609
vt 0.2721055 0
vt 0.04054715 0.04054715
vt 0.3165609 0.3165609
vt 1 0
vt 1 0.2154372
vn -0.4961172 -0.0122366 0.8681693
vn -0.4961172 -0.0122366 0.8681693
vn -0.4961172 -0.0122366 0.8681693
vn -0.4961172 -0.01939654 0.8680388
vn -0.4961172 -0.01939654 0.8680388
vn -0.4961172 -0.01939654 0.8680388
vn 0.04087627 0.4961172 0.8672928
vn 0.04803616 0.4889573 0.8709841
vn 0.04803616 0.4889573 0.8709841
vn 0.04087627 0.4961172 0.8672928
vn 0.04087627 0.4961172 0.8672928
vn 0.04087627 0.4961172 0.8672928
vn 0.03371632 0.5032771 0.8634671
vn 0.03371632 0.5032771 0.8634671
vn 0.03371632 0.5032771 0.8634671
vn 0.5778697 0.267 0.7712182
vn 0.5778697 0.267 0.7712182
vn 0.5778697 0.267 0.7712182
vn 0.04803616 -0.2843133 0.9575273
vn 0.04803616 -0.2843133 0.9575273
vn 0.04803616 -0.2843133 0.9575273
vn 0.04803616 -0.2914732 0.9553721
vn 0.04803616 -0.2914732 0.9553721
vn 0.04803616 -0.2914732 0.9553721
vn 0.4131917 0.3743987 0.8301194
vn 0.4131917 0.3743987 0.8301194
vn 0.4131917 0.3743987 0.8301194
vn -0.7681938 0.1739211 0.6161409
vn -0.7681938 0.1739211 0.6161409
vn -0.7681938 0.1739211 0.6161409
vn -0.3385991 0.5891961 -0.7336202
vn -0.3385991 0.5891961 -0.7336202
vn -0.2168806 0.6393155 -0.7377253
vn -0.3385991 0.5891961 -0.7336202
vn -0.3385991 0.5891961 -0.7336202
vn -0.3385991 0.5891961 -0.7336202
vn -0.2741599 0.761034 -0.5879316
vn -0.002083242 0.8039935 -0.5946345
vn -0.1166419 0.6679552 -0.7350038
vn -0.1166419 0.6679552 -0.7350038
vn -0.3743987 0.5605564 -0.7386488
vn -0.03072286 0.675115 -0.7370725
vn -0.517597 0.6178358 -0.5919226
vn -0.5247569 0.4388379 -0.7294186
vn -0.5605564 0.4746375 -0.6785983
vn -0.5247569 0.4388379 -0.7294186
vn -0.5247569 0.4388379 -0.7294186
vn -0.5247569 0.4388379 -0.7294186
vn -0.517597 0.7323943 -0.4423708
vn -0.6894349 0.5748763 -0.4406776
vn 0.141115 0.7825137 -0.6064312
vn 0.1196353 0.6679552 -0.7345225
vn 0.1769146 0.6536353 -0.7358412
vn 0.1697547 0.6536353 -0.7375258
vn 0.3415926 0.5891961 -0.7322312
vn 0.3415926 0.5891961 -0.7322312
vn 0.3415926 0.5891961 -0.7322312
vn 0.1554348 0.8827525 -0.4433824
vn -0.002083242 0.8970723 -0.4418788
vn -0.1596013 0.8827525 -0.4418997
vn 0.1554348 0.8827525 -0.4433824
vn 0.1554348 0.8827525 -0.4433824
vn 0.1554348 0.8827525 -0.4433824
vn -0.3171194 0.8397931 -0.4406618
vn -0.4531578 0.7825137 -0.4269898
vn -0.4531578 0.7825137 -0.4269898
vn -0.352919 0.7681938 0.5341595
vn -0.352919 0.7681938 0.5341595
vn -0.352919 0.7681938 0.5341595
vn -0.352919 0.7681938 0.5341595
vn 0.5850296 0.2598401 0.76826
vn 0.5850296 0.2598401 0.76826
vn 0.5850296 0.2598401 0.76826
vn 0.5850296 0.2598401 0.76826
vn 0.5850296 0.2598401 0.76826
vn 0.5850296 0.2598401 0.76826
vn 0.5850296 0.2598401 0.76826
vn 0.5850296 0.2598401 0.76826
vn -0.4101982 0.7825137 0.4684118
vn -0.4101982 0.7825137 0.4684118
vn -0.4101982 0.7825137 0.4684118
vn -0.4101982 0.7825137 0.4684118
vn -0.4030384 0.7825137 0.4745865
vn -0.4030384 0.7825137 0.4745865
vn -0.4030384 0.7825137 0.4745865
vn -0.4030384 0.7825137 0.4745865
vn -0.06652242 0.6321555 0.7719807
vn -0.06652242 0.6321555 0.7719807
vn -0.06652242 0.6321555 0.7719807
vn -0.06652242 0.6321555 0.7719807
vn 0.0122366 -0.3559124 -0.9344392
vn 0.0122366 -0.3559124 -0.9344392
vn 0.0122366 -0.3559124 -0.9344392
vn 0.0122366 -0.3559124 -0.9344392
vn 0.0122366 -0.3559124 -0.9344392
vn 0.0122366 -0.3559124 -0.9344392
vn 0.9287055 -0.1124754 -0.3533489
vn 0.9287055 -0.1124754 -0.3533489
vn 0.9287055 -0.1124754 -0.3533489
vn 0.9287055 -0.1124754 -0.3533489
vn 0.9287055 -0.1124754 -0.3533489
vn 0.9287055 -0.1124754 -0.3533489
vn 0.005076706 -0.3630723 -0.9317471
vn 0.005076706 -0.3630723 -0.9317471
vn 0.005076706 -0.3630723 -0.9317471
vn 0.005076706 -0.3630723 -0.9317471
vn 0.005076706 -0.3559124 -0.9345055
vn 0.005076706 -0.3559124 -0.9345055
vn 0.005076706 -0.3559124 -0.9345055
vn 0.005076706 -0.3559124 -0.9345055
vn 0.005076706 -0.3559124 -0.9345055
vn 0.642309 0.2526802 0.7235965
vn 0.642309 0.2526802 0.7235965
vn 0.642309 0.2526802 0.7235965
vn 0.642309 0.2526802 0.7235965
vn 0.642309 0.2526802 0.7235965
vn 0.9287055 -0.1124754 -0.3533489
vn 0.9287055 -0.1124754 -0.3533489
vn 0.9287055 -0.1124754 -0.3533489
vn 0.9287055 -0.1124754 -0.3533489
vn 0.9287055 -0.1124754 -0.3533489
vn 0.3773922 -0.6566287 0.6530038
vn 0.4489913 -0.7783473 0.4388421
vn 0.4489913 -0.7783473 0.4388421
vn 0.3201129 -0.8427865 0.4327109
vn 0.2771534 -0.7568675 0.5918932
vn 0.1554348 -0.885746 0.4373718
vn 0.1554348 -0.885746 0.4373718
vn 0.1554348 -0.885746 0.4373718
vn 0.1554348 -0.885746 0.4373718
vn 0.1554348 -0.885746 0.4373718
vn 0.141115 -0.7926671 0.5930982
vn 0.3773922 -0.5635499 0.7348379
vn 0.391712 -0.5492301 0.7381788
vn 0.5205904 -0.4346715 0.7348784
vn 0.5205904 -0.4346715 0.7348784
vn 0.1697547 -0.6494688 0.7411974
vn 0.1196353 -0.6637887 0.7382899
vn 0.1196353 -0.6637887 0.7382899
vn 0.09815556 -0.6709486 0.7349786
vn -0.009243131 -0.6709486 0.7414463
vn -0.1166419 -0.6709486 0.7322722
vn -0.1166419 -0.6709486 0.7322722
vn -0.1166419 -0.6709486 0.7322722
vn -0.01640302 -0.3845521 -0.9229575
vn -0.01640302 -0.3845521 -0.9229575
vn -0.01640302 -0.3845521 -0.9229575
vn -0.01640302 -0.3845521 -0.9229575
vn -0.6607952 -0.6208292 0.4218066
vn -0.6607952 -0.6208292 0.4218066
vn -0.6607952 -0.6208292 0.4218066
vn -0.6607952 -0.6208292 0.4218066
vn 0.0122366 -0.3559124 -0.9344392
vn 0.0122366 -0.3559124 -0.9344392
vn 0.0122366 -0.3559124 -0.9344392
vn 0.0122366 -0.3559124 -0.9344392
vn -0.6607952 -0.6208292 0.4218066
vn -0.6607952 -0.6208292 0.4218066
vn -0.6607952 -0.6208292 0.4218066
vn -0.6607952 -0.6208292 0.4218066
vn -0.6607952 -0.6208292 0.4218066
vn -0.6607952 -0.6208292 0.4218066
vn -0.6607952 -0.6208292 0.4218066
vn -0.6607952 -0.6208292 0.4218066
vn -0.6607952 -0.6136693 0.4321571
vn -0.6607952 -0.6136693 0.4321571
vn -0.6607952 -0.6136693 0.4321571
vn -0.6607952 -0.6136693 0.4321571
vn -0.6607952 -0.6136693 0.4321571
g Bottiglia_cell.045_0
f 3/3/3 2/2/2 1/1/1
f 5/5/5 2/2/2 4/4/4
f 6/6/6 5/5/5 4/4/4
f 9/9/9 8/8/8 7/7/7
f 11/11/11 10/10/10 7/7/7
f 10/10/10 12/12/12 7/7/7
f 14/14/14 12/12/12 13/13/13
f 15/15/15 14/14/14 13/13/13
f 18/18/18 17/17/17 16/16/16
f 21/21/21 20/20/20 19/19/19
f 23/23/23 22/22/22 21/21/21
f 24/24/24 23/23/23 21/21/21
f 27/27/27 26/26/26 25/25/25
f 30/30/30 29/29/29 28/28/28
f 33/33/33 32/32/32 31/31/31
f 33/33/33 31/31/31 34/34/34
f 33/33/33 34/34/34 35/35/35
f 33/33/33 35/35/35 36/36/36
f 37/37/37 33/33/33 36/36/36
f 33/33/33 37/37/37 38/38/38
f 38/38/38 39/39/39 33/33/33
f 38/38/38 40/40/40 39/39/39
f 37/37/37 36/36/36 41/41/41
f 38/38/38 42/42/42 40/40/40
f 41/41/41 43/43/43 37/37/37
f 43/43/43 41/41/41 44/44/44
f 45/45/45 43/43/43 44/44/44
f 45/45/45 44/44/44 46/46/46
f 45/45/45 46/46/46 47/47/47
f 47/47/47 48/48/48 45/45/45
f 49/49/49 43/43/43 45/45/45
f 37/37/37 43/43/43 49/49/49
f 50/50/50 49/49/49 45/45/45
f 42/42/42 38/38/38 51/51/51
f 51/51/51 52/52/52 42/42/42
f 51/51/51 53/53/53 52/52/52
f 51/51/51 54/54/54 53/53/53
f 55/55/55 53/53/53 54/54/54
f 54/54/54 56/56/56 55/55/55
f 56/56/56 57/57/57 55/55/55
f 58/58/58 51/51/51 38/38/38
f 59/59/59 38/38/38 37/37/37
f 58/58/58 38/38/38 59/59/59
f 60/60/60 59/59/59 37/37/37
f 58/58/58 59/59/59 61/61/61
f 58/58/58 61/61/61 62/62/62
f 62/62/62 63/63/63 58/58/58
f 37/37/37 64/64/64 60/60/60
f 64/64/64 37/37/37 49/49/49
f 65/65/65 64/64/64 49/49/49
f 49/49/49 66/66/66 65/65/65
f 69/69/69 68/68/68 67/67/67
f 70/70/70 69/69/69 67/67/67
f 73/73/73 72/72/72 71/71/71
f 71/71/71 74/74/74 73/73/73
f 74/74/74 75/75/75 73/73/73
f 75/75/75 76/76/76 73/73/73
f 75/75/75 77/77/77 76/76/76
f 77/77/77 78/78/78 76/76/76
f 81/81/81 80/80/80 79/79/79
f 82/82/82 81/81/81 79/79/79
f 84/84/84 83/83/83 79/79/79
f 79/79/79 85/85/85 84/84/84
f 79/79/79 86/86/86 85/85/85
f 89/89/89 88/88/88 87/87/87
f 90/90/90 89/89/89 87/87/87
f 93/93/93 92/92/92 91/91/91
f 91/91/91 94/94/94 93/93/93
f 94/94/94 95/95/95 93/93/93
f 94/94/94 96/96/96 95/95/95
f 99/99/99 98/98/98 97/97/97
f 97/97/97 100/100/100 99/99/99
f 97/97/97 101/101/101 100/100/100
f 101/101/101 102/102/102 100/100/100
f 105/105/105 104/104/104 103/103/103
f 106/106/106 105/105/105 103/103/103
f 109/109/109 108/108/108 107/107/107
f 107/107/107 110/110/110 109/109/109
f 107/107/107 111/111/111 110/110/110
f 114/114/114 113/113/113 112/112/112
f 112/112/112 115/115/115 114/114/114
f 115/115/115 116/116/116 114/114/114
f 119/119/119 118/118/118 117/117/117
f 117/117/117 120/120/120 119/119/119
f 120/120/120 121/121/121 119/119/119
f 124/124/124 123/123/123 122/122/122
f 122/122/122 125/125/125 124/124/124
f 122/122/122 126/126/126 125/125/125
f 127/127/127 125/125/125 126/126/126
f 126/126/126 128/128/128 127/127/127
f 126/126/126 129/129/129 128/128/128
f 126/126/126 130/130/130 129/129/129
f 126/126/126 131/131/131 130/130/130
f 126/126/126 132/132/132 131/131/131
f 133/133/133 126/126/126 122/122/122
f 122/122/122 134/134/134 133/133/133
f 135/135/135 133/133/133 134/134/134
f 136/136/136 135/135/135 134/134/134
f 133/133/133 137/137/137 126/126/126
f 132/132/132 126/126/126 137/137/137
f 137/137/137 138/138/138 132/132/132
f 138/138/138 139/139/139 132/132/132
f 139/139/139 140/140/140 132/132/132
f 139/139/139 141/141/141 140/140/140
f 142/142/142 140/140/140 141/141/141
f 141/141/141 143/143/143 142/142/142
f 143/143/143 144/144/144 142/142/142
f 147/147/147 146/146/146 145/145/145
f 148/148/148 147/147/147 145/145/145
f 151/151/151 150/150/150 149/149/149
f 152/152/152 151/151/151 149/149/149
f 155/155/155 154/154/154 153/153/153
f 156/156/156 155/155/155 153/153/153
f 159/159/159 158/158/158 157/157/157
f 157/157/157 160/160/160 159/159/159
f 160/160/160 161/161/161 159/159/159
f 160/160/160 162/162/162 161/161/161
f 160/160/160 163/163/163 162/162/162
f 163/163/163 164/164/164 162/162/162
f 167/167/167 166/166/166 165/165/165
f 165/165/165 168/168/168 167/167/167
f 168/168/168 169/169/169 167/167/167
