g Bottiglia_cell.014
v -0.008984625 -0.4458885 0.3219908
v -0.02216935 -0.4552152 0.314256
v -0.02136403 -0.4561704 0.322946
v 0.03431523 -0.4010904 0.2713869
v -0.008984625 -0.4458885 0.3219908
v 0.01511872 -0.3784853 0.3521996
v -0.02495986 -0.4519003 0.3284333
v -0.008984625 -0.4458885 0.3219908
v -0.02136403 -0.4561704 0.322946
v -0.01752472 -0.3397365 0.4004062
v 0.01511872 -0.3784853 0.3521996
v -0.02495986 -0.4519003 0.3284333
v -0.07380331 -0.1860707 0.5430036
v -0.08593923 -0.3792345 0.4186101
v -0.07518917 -0.07926315 0.6171489
v -0.1267482 -0.2671081 0.5224774
v 0.1631098 0.3899933 0.2950033
v 0.191015 0.3160539 0.3082442
v 0.08763474 0.2565728 0.3910046
v 0.03684354 0.3171027 0.3961924
v -0.01773071 0.1313928 0.5009023
v -0.08593923 0.1707785 0.524425
v -0.07391566 -0.02236658 0.5939071
v -0.07518917 -0.07926315 0.6171489
v -0.1512635 -0.01350808 0.6347536
v -0.1512635 -0.008713663 0.632862
v -0.02495986 -0.4519003 0.3284333
v -0.02136403 -0.4561704 0.322946
v -0.02216935 -0.4552152 0.314256
v -0.08290523 -0.3828303 -0.3374329
v -0.08593923 -0.3792345 0.4186101
v -0.08593923 -0.3792345 -0.3399987
v -0.1267482 -0.2671081 0.5224774
v -0.1512635 -0.1997424 -0.4566198
v -0.1512635 -0.1997424 0.5493337
v -0.1512635 -0.01350808 0.6347536
v -0.1512635 -0.008713663 -0.5716866
v -0.1512635 -0.008713663 0.632862
v -0.08593923 0.1707785 0.524425
v -0.1375357 0.02896774 -0.5926061
v -0.08593923 0.1707785 -0.5882611
v 0.03684354 0.3171027 0.3961924
v -0.0152024 0.2550558 -0.5741212
v 0.02588749 0.3040304 -0.5653751
v 0.02957696 0.3084315 -0.5643638
v 0.03684354 0.3171027 -0.5175055
v 0.1685785 0.3931397 0.1626691
v 0.1708633 0.3944694 0.1751047
v 0.1659565 0.3916414 0.2543816
v 0.1631098 0.3899933 0.2950033
v 0.08763474 0.2565728 0.3910046
v 0.191015 0.3160539 0.3082442
v 0.19315 0.3172151 0.2780542
v 0.2016714 0.3217848 0.142274
v 0.1977759 0.3194812 0.1209237
v 0.0882715 0.2558237 -0.05471039
v 0.1639526 0.2994981 -0.05471039
v 0.0882715 0.2558237 -0.445439
v 0.07257718 0.2371141 -0.5466655
v 0.06746435 0.2310274 -0.5480701
v 0.03405303 0.1911923 -0.5551682
v -0.01664448 0.1307748 -0.05471039
v -0.01664448 0.1307748 -0.5653002
v -0.01773071 0.1313928 0.5009023
v -0.07247359 -0.02261007 -0.05471039
v -0.06194824 0.006306469 -0.5691208
v -0.07391566 -0.02236658 0.5939071
v -0.07247359 -0.02261007 -0.5530706
v -0.07518917 -0.07926315 0.6171489
v -0.07247359 -0.185846 -0.454747
v -0.07247359 -0.185846 -0.05471039
v -0.07380331 -0.1860707 0.5430036
v -0.02093327 -0.3274694 -0.3627348
v -0.01664448 -0.3392308 -0.05471039
v -0.01664448 -0.3392308 -0.2815851
v -0.01752472 -0.3397365 0.4004062
v 0.004499793 -0.3644391 -0.05471039
v 0.01511872 -0.3784853 0.3521996
v 0.03431523 -0.4010904 0.2713869
v -0.07518917 -0.07926315 0.6171489
v -0.1267482 -0.2671081 0.5224774
v -0.1512635 -0.1997424 0.5493337
v -0.1512635 -0.01350808 0.6347536
v 0.1659565 0.3916414 0.2543816
v 0.19315 0.3172151 0.2780542
v 0.191015 0.3160539 0.3082442
v 0.1631098 0.3899933 0.2950033
v -0.01664448 0.1307748 -0.5653002
v 0.03405303 0.1911923 -0.5551682
v -0.0152024 0.2550558 -0.5741212
v -0.08593923 0.1707785 -0.5882611
v -0.06194824 0.006306469 -0.5691208
v -0.1375357 0.02896774 -0.5926061
v -0.01664448 -0.3392308 -0.2815851
v -0.02093327 -0.3274694 -0.3627348
v -0.08290523 -0.3828303 -0.3374329
v -0.02216935 -0.4552152 0.314256
v 0.004499793 -0.3644391 -0.05471039
v 0.03431523 -0.4010904 0.2713869
v -0.008984625 -0.4458885 0.3219908
v -0.08290523 -0.3828303 -0.3374329
v -0.02093327 -0.3274694 -0.3627348
v -0.07247359 -0.185846 -0.454747
v -0.07247359 -0.02261007 -0.5530706
v -0.1375357 0.02896774 -0.5926061
v -0.06194824 0.006306469 -0.5691208
v -0.08593923 -0.3792345 -0.3399987
v -0.1512635 -0.1997424 -0.4566198
v -0.1512635 -0.008713663 -0.5716866
v -0.0152024 0.2550558 -0.5741212
v 0.03405303 0.1911923 -0.5551682
v 0.06746435 0.2310274 -0.5480701
v 0.02588749 0.3040304 -0.5653751
v 0.02588749 0.3040304 -0.5653751
v 0.06746435 0.2310274 -0.5480701
v 0.07257718 0.2371141 -0.5466655
v 0.02957696 0.3084315 -0.5643638
v 0.02957696 0.3084315 -0.5643638
v 0.07257718 0.2371141 -0.5466655
v 0.0882715 0.2558237 -0.445439
v 0.1639526 0.2994981 -0.05471039
v 0.1977759 0.3194812 0.1209237
v 0.03684354 0.3171027 -0.5175055
v 0.1685785 0.3931397 0.1626691
v 0.1685785 0.3931397 0.1626691
v 0.1977759 0.3194812 0.1209237
v 0.2016714 0.3217848 0.142274
v 0.1708633 0.3944694 0.1751047
v 0.19315 0.3172151 0.2780542
v 0.1659565 0.3916414 0.2543816
v 0.1708633 0.3944694 0.1751047
v 0.2016714 0.3217848 0.142274
vt 0 0
vt 0.0684262 0.0684262
vt 0.1612903 0
vt 1 0.1192571
vt 1 0
vt 0.8240469 0
vt 0.9139785 0.9139785
vt 1 1
vt 1 0.8387097
vt 0.9481916 0.7126099
vt 0.8240469 0.8240469
vt 1 0.9139785
vt 0.2737048 0.1837732
vt 0.7556207 0.42913
vt 0 0
vt 0.4301075 0
vt 0.2688172 0.2688172
vt 0.4565005 0.4565005
vt 0.5610948 0.3098729
vt 0.3978495 0.08993158
vt 0.8230694 0.2658847
vt 0.7038123 0.0400782
vt 0.6774194 0.1202346
vt 1 0.003910068
vt 0.3958944 0
vt 0.368524 0.009775171
vt 0.3607038 0.9051808
vt 0.3626589 0.9042033
vt 0.3626589 0.9022483
vt 0.3343109 0.7800586
vt 0.3333333 0.9217986
vt 0.3333333 0.7800586
vt 0.2981427 0.941349
vt 0.2776149 0.7585533
vt 0.2776149 0.9462366
vt 0.2238514 0.9628543
vt 0.2218964 0.7360704
vt 0.2218964 0.9618768
vt 0.1661779 0.941349
vt 0.2101662 0.7321603
vt 0.1661779 0.7331378
vt 0.1114369 0.9178886
vt 0.1348974 0.7360704
vt 0.1163245 0.7380254
vt 0.1143695 0.7380254
vt 0.1114369 0.7468231
vt 0.06647117 0.8739003
vt 0.06647117 0.8768328
vt 0.06744868 0.8914956
vt 0.0684262 0.8983382
vt 0.1114369 0.9188661
vt 0.07038123 0.9022483
vt 0.06940372 0.8973607
vt 0.06647117 0.8709677
vt 0.0684262 0.8670577
vt 0.1114369 0.8338221
vt 0.08113392 0.8338221
vt 0.1114369 0.7605083
vt 0.1192571 0.740958
vt 0.1221896 0.740958
vt 0.1397849 0.7399805
vt 0.1661779 0.8338221
vt 0.1661779 0.7380254
vt 0.1661779 0.9393939
vt 0.2218964 0.8338221
vt 0.2121212 0.7370479
vt 0.2218964 0.9569892
vt 0.2218964 0.7399805
vt 0.2414467 0.9618768
vt 0.2776149 0.7585533
vt 0.2776149 0.8338221
vt 0.2776149 0.9472141
vt 0.3294233 0.7761486
vt 0.3333333 0.8338221
vt 0.3333333 0.7908114
vt 0.3333333 0.9198436
vt 0.344086 0.8338221
vt 0.3509286 0.911046
vt 0.3607038 0.8954057
vt 0 0
vt 0.4301075 0.4301075
vt 0.6207234 0.3450635
vt 0.6041056 0
vt 1 0.7350929
vt 1 0.5464321
vt 0.4565005 0
vt 0.2688172 0
vt 0.5894428 0.3079179
vt 0.4770283 0.4770283
vt 0.5865102 0.5865102
vt 0.7438905 0.3509286
vt 0.6911046 0
vt 0.8592376 0
vt 0.8357771 0.6353861
vt 0.5982405 0.5982405
vt 0.7360704 0.7360704
vt 1 0.0684262
vt 0.7008798 0.3294233
vt 0.8807429 0
vt 1 0
vt 1 0.7360704
vt 1 0.5982405
vt 0.6500489 0.3636364
vt 0.3450635 0.05962854
vt 0.1407625 0
vt 0.3088954 0
vt 0.9882698 0.7311828
vt 0.544477 0.4330401
vt 0.1886608 0.07820137
vt 1 0.5865102
vt 1 0.4770283
vt 0.4545455 0
vt 0.3294233 0
vt 0.3294233 0.3294233
vt 0.4545455 0.4545455
vt 0.4516129 0
vt 0.3274682 0
vt 0.6725318 0
vt 0.5483871 0
vt 0.8651026 0.2864125
vt 0.8025416 0.3460411
vt 1 0.3108504
vt 0.8191593 0.1329423
vt 1 0.1818182
vt 0.1818182 0.1818182
vt 0.3108504 0.3108504
vt 0.3391984 0
vt 0.1974585 0
vt 0.5464321 0.5464321
vt 0.7350929 0.7350929
vt 1 0.8025416
vt 1 0.6608016
vn 0.6235247 -0.7647001 -0.1626372
vn 0.6235247 -0.7647001 -0.1626372
vn 0.6235247 -0.7647001 -0.1626372
vn 0.8352877 -0.4431339 0.3254639
vn 0.8352877 -0.4431339 0.3254639
vn 0.8352877 -0.4431339 0.3254639
vn 0.4823493 -0.5137216 0.7095275
vn 0.4823493 -0.4980354 0.7206246
vn 0.4823493 -0.5137216 0.7095275
vn 0.4823493 -0.4980354 0.7206246
vn 0.4823493 -0.4980354 0.7206246
vn 0.4823493 -0.4980354 0.7206246
vn 0.4823493 -0.4980354 0.7206246
vn 0.4823493 -0.4980354 0.7206246
vn 0.4823493 -0.4980354 0.7206246
vn 0.4823493 -0.4980354 0.7206246
vn 0.4666631 0.3254876 0.8223645
vn 0.4666631 0.3254876 0.8223645
vn 0.4666631 0.3254876 0.8223645
vn 0.4666631 0.3254876 0.8223645
vn 0.4666631 0.3254876 0.8223645
vn 0.4666631 0.3254876 0.8223645
vn 0.4666631 0.3254876 0.8223645
vn 0.4666631 0.3254876 0.8223645
vn 0.4666631 0.3254876 0.8223645
vn 0.4666631 0.3254876 0.8223645
vn -0.7646999 -0.6392108 -0.08150806
vn -0.7646999 -0.6392108 -0.08150806
vn -0.7646999 -0.6392108 -0.08150806
vn -0.7646999 -0.6392108 -0.08150806
vn -0.9043746 -0.4267396 0
vn -0.8901892 -0.450977 -0.06467608
vn -0.9372476 -0.3411739 -0.07188372
vn -0.9921492 -0.1137246 -0.05202504
vn -0.9916004 -0.1293392 0
vn -0.9999923 -0.003921568 -0.0003442513
vn -0.9730573 0.2305637 0
vn -0.9921492 0.1215676 -0.02934652
vn -0.8967644 0.4425082 0
vn -0.9372476 0.3411738 -0.07188428
vn -0.86666 0.4901923 -0.09280082
vn -0.6941123 0.7176415 -0.05655848
vn -0.7646999 0.6392107 -0.08150897
vn -0.7646999 0.6392107 -0.08150897
vn -0.7646999 0.6392107 -0.08150897
vn -0.7489218 0.6626585 0
vn -0.4980353 0.86666 -0.02934769
vn -0.4980353 0.86666 -0.02934769
vn -0.4980353 0.86666 -0.02934769
vn -0.4980353 0.86666 -0.02934769
vn 0.6941124 -0.7176416 0.05655585
vn 0.4980354 -0.8666601 0.02934363
vn 0.4980354 -0.8666601 0.02934363
vn 0.4980354 -0.8666601 0.02934363
vn 0.4980354 -0.8666601 0.02934363
vn 0.6392108 -0.7647001 0.08150715
vn 0.4980354 -0.8666601 0.02934363
vn 0.7489218 -0.6626585 0
vn 0.7647001 -0.6392108 -0.08150696
vn 0.7647001 -0.6392108 -0.08150696
vn 0.7647001 -0.6392108 -0.08150696
vn 0.8666601 -0.4980354 0.02934388
vn 0.8666601 -0.4901924 -0.09279986
vn 0.8967644 -0.4425082 0
vn 0.9843062 -0.1764693 0
vn 0.9372478 -0.3411739 -0.07188205
vn 0.9921493 -0.1215677 0.029344
vn 0.9730572 -0.2305638 0
vn 0.9999924 -0.003921568 0
vn 0.9921493 0.1137246 -0.05202403
vn 0.9843062 0.1764692 0
vn 0.9921493 0.09803843 0.07764179
vn 0.9372478 0.3411738 -0.07188263
vn 0.8666601 0.4980353 0.02934592
vn 0.9345497 0.3558326 0
vn 0.9043746 0.4267395 0
vn 0.7647001 0.6392107 0.08150788
vn 0.7647001 0.6392107 0.08150788
vn 0.7647001 0.6392107 0.08150788
vn -0.1450969 -0.4117616 0.8996662
vn -0.1450969 -0.4117616 0.8996662
vn -0.1450969 -0.4117616 0.8996662
vn -0.1450969 -0.4117616 0.8996662
vn 0.9294047 0.3647031 0.05655624
vn 0.9294047 0.3647031 0.05655624
vn 0.9294047 0.3647031 0.05655624
vn 0.9294047 0.3647031 0.05655624
vn 0.2784293 -0.07450926 -0.9575623
vn 0.2784293 -0.07450926 -0.9575623
vn 0.2784293 -0.07450926 -0.9575623
vn 0.2784293 -0.07450926 -0.9575623
vn 0.2784293 -0.07450926 -0.9575623
vn 0.2784293 -0.07450926 -0.9575623
vn 0.6235247 -0.7647001 -0.1626372
vn 0.6235247 -0.7647001 -0.1626372
vn 0.6235247 -0.7647001 -0.1626372
vn 0.6235247 -0.7647001 -0.1626372
vn 0.6235247 -0.7647001 -0.1626372
vn 0.6235247 -0.7647001 -0.1626372
vn 0.6235247 -0.7647001 -0.1626372
vn 0.1137246 -0.5137216 -0.8503863
vn 0.1137246 -0.5137216 -0.8503863
vn 0.1137246 -0.5137216 -0.8503863
vn 0.1137246 -0.5137216 -0.8503863
vn 0.1137246 -0.5137216 -0.8503863
vn 0.1137246 -0.5137216 -0.8503863
vn 0.1137246 -0.5137216 -0.8503863
vn 0.1137246 -0.5137216 -0.8503863
vn 0.1137246 -0.5137216 -0.8503863
vn 0.2862723 -0.06666619 -0.9558262
vn 0.2862723 -0.06666619 -0.9558262
vn 0.2862723 -0.06666619 -0.9558262
vn 0.2862723 -0.06666619 -0.9558262
vn 0.3176447 -0.04313695 -0.9472281
vn 0.3176447 -0.04313695 -0.9472281
vn 0.3176447 -0.04313695 -0.9472281
vn 0.3176447 -0.04313695 -0.9472281
vn 0.858817 0.466663 -0.2113269
vn 0.858817 0.466663 -0.2113269
vn 0.858817 0.466663 -0.2113269
vn 0.858817 0.466663 -0.2113269
vn 0.858817 0.466663 -0.2113269
vn 0.858817 0.466663 -0.2113269
vn 0.858817 0.466663 -0.2113269
vn 0.8666601 0.45882 -0.1959198
vn 0.8666601 0.45882 -0.1959198
vn 0.8666601 0.45882 -0.1959198
vn 0.8666601 0.45882 -0.1959198
vn 0.9294047 0.3647031 0.05655624
vn 0.9294047 0.3647031 0.05655624
vn 0.9294047 0.3647031 0.05655624
vn 0.9294047 0.3647031 0.05655624
g Bottiglia_cell.014_0
f 3/3/3 2/2/2 1/1/1
f 6/6/6 5/5/5 4/4/4
f 9/9/9 8/8/8 7/7/7
f 8/8/8 11/11/11 10/10/10
f 10/10/10 12/12/12 8/8/8
f 10/10/10 13/13/13 12/12/12
f 13/13/13 14/14/14 12/12/12
f 13/13/13 15/15/15 14/14/14
f 15/15/15 16/16/16 14/14/14
f 19/19/19 18/18/18 17/17/17
f 17/17/17 20/20/20 19/19/19
f 20/20/20 21/21/21 19/19/19
f 20/20/20 22/22/22 21/21/21
f 22/22/22 23/23/23 21/21/21
f 22/22/22 24/24/24 23/23/23
f 22/22/22 25/25/25 24/24/24
f 22/22/22 26/26/26 25/25/25
f 29/29/29 28/28/28 27/27/27
f 27/27/27 30/30/30 29/29/29
f 27/27/27 31/31/31 30/30/30
f 31/31/31 32/32/32 30/30/30
f 32/32/32 31/31/31 33/33/33
f 33/33/33 34/34/34 32/32/32
f 33/33/33 35/35/35 34/34/34
f 34/34/34 35/35/35 36/36/36
f 36/36/36 37/37/37 34/34/34
f 36/36/36 38/38/38 37/37/37
f 37/37/37 38/38/38 39/39/39
f 39/39/39 40/40/40 37/37/37
f 39/39/39 41/41/41 40/40/40
f 41/41/41 39/39/39 42/42/42
f 42/42/42 43/43/43 41/41/41
f 42/42/42 44/44/44 43/43/43
f 42/42/42 45/45/45 44/44/44
f 42/42/42 46/46/46 45/45/45
f 47/47/47 46/46/46 42/42/42
f 42/42/42 48/48/48 47/47/47
f 42/42/42 49/49/49 48/48/48
f 42/42/42 50/50/50 49/49/49
f 53/53/53 52/52/52 51/51/51
f 54/54/54 53/53/53 51/51/51
f 55/55/55 54/54/54 51/51/51
f 55/55/55 51/51/51 56/56/56
f 56/56/56 57/57/57 55/55/55
f 57/57/57 56/56/56 58/58/58
f 59/59/59 58/58/58 56/56/56
f 60/60/60 59/59/59 56/56/56
f 61/61/61 60/60/60 56/56/56
f 56/56/56 51/51/51 62/62/62
f 61/61/61 56/56/56 62/62/62
f 62/62/62 63/63/63 61/61/61
f 51/51/51 64/64/64 62/62/62
f 62/62/62 64/64/64 65/65/65
f 66/66/66 63/63/63 62/62/62
f 66/66/66 62/62/62 65/65/65
f 64/64/64 67/67/67 65/65/65
f 65/65/65 68/68/68 66/66/66
f 65/65/65 67/67/67 69/69/69
f 68/68/68 65/65/65 70/70/70
f 71/71/71 65/65/65 69/69/69
f 65/65/65 71/71/71 70/70/70
f 69/69/69 72/72/72 71/71/71
f 73/73/73 70/70/70 71/71/71
f 71/71/71 72/72/72 74/74/74
f 73/73/73 71/71/71 74/74/74
f 74/74/74 75/75/75 73/73/73
f 72/72/72 76/76/76 74/74/74
f 75/75/75 74/74/74 77/77/77
f 77/77/77 74/74/74 76/76/76
f 77/77/77 76/76/76 78/78/78
f 78/78/78 79/79/79 77/77/77
f 82/82/82 81/81/81 80/80/80
f 83/83/83 82/82/82 80/80/80
f 86/86/86 85/85/85 84/84/84
f 87/87/87 86/86/86 84/84/84
f 90/90/90 89/89/89 88/88/88
f 88/88/88 91/91/91 90/90/90
f 88/88/88 92/92/92 91/91/91
f 92/92/92 93/93/93 91/91/91
f 96/96/96 95/95/95 94/94/94
f 94/94/94 97/97/97 96/96/96
f 94/94/94 98/98/98 97/97/97
f 98/98/98 99/99/99 97/97/97
f 99/99/99 100/100/100 97/97/97
f 103/103/103 102/102/102 101/101/101
f 101/101/101 104/104/104 103/103/103
f 104/104/104 101/101/101 105/105/105
f 105/105/105 106/106/106 104/104/104
f 101/101/101 107/107/107 105/105/105
f 107/107/107 108/108/108 105/105/105
f 108/108/108 109/109/109 105/105/105
f 112/112/112 111/111/111 110/110/110
f 113/113/113 112/112/112 110/110/110
f 116/116/116 115/115/115 114/114/114
f 117/117/117 116/116/116 114/114/114
f 120/120/120 119/119/119 118/118/118
f 118/118/118 121/121/121 120/120/120
f 118/118/118 122/122/122 121/121/121
f 118/118/118 123/123/123 122/122/122
f 123/123/123 124/124/124 122/122/122
f 127/127/127 126/126/126 125/125/125
f 128/128/128 127/127/127 125/125/125
f 131/131/131 130/130/130 129/129/129
f 132/132/132 131/131/131 129/129/129
