g Bottiglia_cell.041
v 0.01532373 -0.01450747 0.01883452
v 0.01059457 -0.04299952 -0.05021954
v 0.02888161 -0.06522691 0.01072139
v 0.01059457 -0.04299952 -0.05021954
v 0.01061105 -0.04352661 0.02100327
v 0.02888161 -0.06522691 0.01072139
v 0.0006384626 -0.0181916 0.026556
v 0.01059457 -0.04299952 -0.05021954
v -0.01028764 0.01253691 -0.07212847
v -0.007277012 0.003528833 0.03043962
v -0.01028764 0.01181949 0.02834774
v -0.01028764 0.03615706 0.01881073
v -0.01028764 0.02567203 -0.05162877
v -0.01028764 0.04781157 -0.01649138
v -0.01028764 0.03964719 0.01070858
v -0.01028764 0.04781157 -0.01649138
v 0.01532373 -0.01450747 0.01883452
v -0.01028764 0.03964719 0.01070858
v -0.01028764 0.02567203 -0.05162877
v 0.01532373 -0.01450747 0.01883452
v -0.01028764 0.04781157 -0.01649138
v 0.0006384626 -0.0181916 0.026556
v 0.01532373 -0.01450747 0.01883452
v 0.01061105 -0.04352661 0.02100327
v 0.01061105 -0.04352661 0.02100327
v 0.02888161 -0.06522691 0.01072139
v 0.002957284 0.007277012 0.02504428
v 0.0006384626 -0.0181916 0.026556
v -0.007277012 0.003528833 0.03043962
v -0.01028764 0.03615706 0.01881073
v 0.002957284 0.007277012 0.02504428
v -0.007277012 0.003528833 0.03043962
v -0.01028764 0.01181949 0.02834774
v -0.01028764 0.03964719 0.01070858
v 0.01532373 -0.01450747 0.01883452
v 0.002957284 0.007277012 0.02504428
v -0.01028764 0.03615706 0.01881073
v 0.01059457 -0.04299952 -0.05021954
v 0.01532373 -0.01450747 0.01883452
v -0.01028764 0.02567203 -0.05162877
v -0.01028764 0.01253691 -0.07212847
vt 0 0
vt 0.2335125 0.2335125
vt 0.382511 0
vt 0.3351246 1
vt 0.3331705 1
vt 0.3629702 1
vt 0.3087445 1
vt 0.3331705 1
vt 0.2779678 1
vt 0.2862726 1
vt 0.2779678 1
vt 0.2540303 1
vt 0.2647777 1
vt 0.2432829 1
vt 0.2510992 1
vt 0.6590133 0.6590133
vt 1 1
vt 1 0.6736689
vt 0.8075233 0.8075233
vt 1 1
vt 1 0.6590133
vt 0.9355155 0.9355155
vt 1 1
vt 1 0.8920372
vt 0.8920372 0.8920372
vt 1 0.6174891
vt 0 0
vt 1 0.9355155
vt 0.04738643 0
vt 0.799707 0.799707
vt 1 1
vt 1 0.9526137
vt 0.9443089 0.8998535
vt 0.6736689 0.6736689
vt 1 1
vt 1 0
vt 0.799707 0
vt 0.9907182 0.2364436
vt 1 0
vt 0.8075233 0
vt 0.8207133 0.08549097
vn 0.9426459 0.283886 -0.1755774
vn 0.9426459 0.283886 -0.1755774
vn 0.9426459 0.283886 -0.1755774
vn -0.9085792 -0.4093711 -0.08306048
vn -0.8781065 -0.477935 -0.02251957
vn -0.7637731 -0.6454849 0
vn -0.9314339 -0.3560437 -0.07525781
vn -0.9085792 -0.4093711 -0.08306048
vn -0.969525 -0.2417705 -0.03960255
vn -0.9314339 -0.3560437 -0.07525781
vn -0.9758106 -0.2186173 0
vn -0.9999979 0.002012193 -0.0004925573
vn -0.9999979 0.002012193 -0.0004925573
vn -0.9999979 0.002012193 -0.0004925573
vn -0.9999979 0.002012193 -0.0004925573
vn 0.8893184 0.4362502 0.1371077
vn 0.8893184 0.4362502 0.1371077
vn 0.8893184 0.4362502 0.1371077
vn 0.9426459 0.283886 -0.1755774
vn 0.9426459 0.283886 -0.1755774
vn 0.9426459 0.283886 -0.1755774
vn 0.4703169 -0.01322418 0.8823985
vn 0.4626986 0.009630442 0.8864633
vn 0.4703169 -0.01322418 0.8823985
vn 0.477935 -0.01322418 0.8782956
vn 0.477935 -0.01322418 0.8782956
vn 0.4626986 0.009630442 0.8864633
vn 0.4626986 0.009630442 0.8864633
vn 0.4626986 0.009630442 0.8864633
vn 0.3331891 0.3448317 0.8775398
vn 0.3331891 0.3448317 0.8775398
vn 0.3331891 0.3448317 0.8775398
vn 0.3331891 0.3448317 0.8775398
vn 0.874082 0.4438684 0.1973866
vn 0.874082 0.4438684 0.1973866
vn 0.874082 0.4438684 0.1973866
vn 0.874082 0.4438684 0.1973866
vn 0.9426459 0.283886 -0.1755774
vn 0.9426459 0.283886 -0.1755774
vn 0.9426459 0.283886 -0.1755774
vn 0.9426459 0.283886 -0.1755774
g Bottiglia_cell.041_0
f 3/3/3 2/2/2 1/1/1
f 6/6/6 5/5/5 4/4/4
f 8/8/8 5/5/5 7/7/7
f 7/7/7 9/9/9 8/8/8
f 7/7/7 10/10/10 9/9/9
f 10/10/10 11/11/11 9/9/9
f 9/9/9 11/11/11 12/12/12
f 12/12/12 13/13/13 9/9/9
f 12/12/12 14/14/14 13/13/13
f 12/12/12 15/15/15 14/14/14
f 18/18/18 17/17/17 16/16/16
f 21/21/21 20/20/20 19/19/19
f 24/24/24 23/23/23 22/22/22
f 26/26/26 23/23/23 25/25/25
f 28/28/28 23/23/23 27/27/27
f 29/29/29 28/28/28 27/27/27
f 32/32/32 31/31/31 30/30/30
f 33/33/33 32/32/32 30/30/30
f 36/36/36 35/35/35 34/34/34
f 37/37/37 36/36/36 34/34/34
f 40/40/40 39/39/39 38/38/38
f 41/41/41 40/40/40 38/38/38
