g Bottiglia_cell.034
v 0.27454 0.4394181 0.1610313
v 0.3405274 0.3085738 -0.2343105
v 0.3405274 0.3665289 -0.04742914
v -0.5984523 -0.07003576 0.02820027
v -0.5589764 -0.02249336 -0.008963645
v -0.5747496 -0.003911376 0.05782866
v -0.3148077 -0.2576707 0.07920218
v -0.3843916 -0.2257988 0.07779783
v -0.2979384 -0.2606507 0.1062788
v 0.238986 0.4199114 0.1924237
v 0.27454 0.4394181 0.1610313
v 0.2467099 0.3988975 0.2196202
v 0.2299433 0.4445561 0.1602949
v 0.238986 0.4199114 0.1924237
v -0.5589764 -0.02249336 -0.008963645
v -0.5984523 -0.07003576 0.02820027
v -0.5559964 -0.02600423 -0.02139723
v 0.2467099 0.3988975 0.2196202
v 0.27454 0.4394181 0.1610313
v 0.2610617 0.359079 0.1654328
v 0.2628771 0.3540953 0.1585994
v 0.2610617 0.359079 0.1654328
v 0.2627229 0.1904885 0.09406775
v 0.2548278 -0.02699754 0.02900523
v 0.2069599 0.03667778 0.1831413
v 0.1816645 -0.1142043 0.1913276
v 0.275208 -0.002729654 -0.01673895
v 0.2548278 -0.02699754 0.02900523
v 0.3405274 0.1767703 -0.1229558
v 0.3405274 0.3665289 -0.04742914
v 0.2307825 0.4422269 0.1530505
v 0.27454 0.4394181 0.1610313
v 0.2299433 0.4445561 0.1602949
v -0.5038128 -0.08848071 0.06502169
v -0.4106119 -0.1423598 0.09098506
v -0.5984523 -0.07003576 0.02820027
v -0.5537357 -0.02896705 0.05998659
v -0.5747496 -0.003911376 0.05782866
v -0.3843916 -0.2257988 0.07779783
v -0.368036 -0.1667818 0.02532309
v -0.5037442 -0.08837795 0.01002938
v -0.5984523 -0.07003576 0.02820027
v -0.5559964 -0.02600423 -0.02139723
v -0.0401544 -0.1699331 -0.08484992
v -0.06841266 -0.174951 -0.0711832
v -0.1226343 -0.2638875 0.01807868
v -0.01300931 -0.244552 -0.03484136
v 0.1012226 -0.0880183 -0.1983968
v 0.1524129 -0.149039 -0.1674326
v 0.2059495 0.03726006 -0.3338653
v 0.2118409 0.05352998 -0.3488165
v 0.2617468 0.1906597 -0.4748998
v 0.275208 -0.002729654 -0.3258331
v 0.2617468 0.2326875 -0.5082788
v 0.3405274 0.2184727 -0.5239151
v 0.3405274 0.1767703 -0.49081
v -0.2011067 -0.2777255 0.1447272
v -0.1036413 -0.2605308 0.1936054
v -0.01300931 -0.244552 0.2386131
v -0.2011067 -0.2777255 0.05604756
v -0.3148077 -0.2576707 0.07920218
v -0.2979384 -0.2606507 0.1062788
v -0.2319168 -0.2722965 0.132499
v -0.1226343 -0.2638875 0.01807868
v -0.01300931 -0.244552 -0.03484136
v 0.1524129 -0.149039 0.2296047
v 0.1524129 -0.149039 -0.1674326
v 0.1031065 -0.1775199 0.2564929
v 0.05693418 -0.2041855 0.2814116
v 0.1672956 -0.1313305 0.2230796
v 0.275208 -0.002729654 -0.3258331
v 0.1816645 -0.1142043 0.1913276
v 0.2548278 -0.02699754 0.02900523
v 0.275208 -0.002729654 -0.01673895
v 0.3405274 0.1767703 -0.49081
v 0.3405274 0.1767703 -0.1229558
v 0.3405274 0.2184727 -0.5239151
v 0.3405274 0.3665289 -0.04742914
v 0.3405274 0.2210759 -0.5158486
v 0.3405274 0.3085738 -0.2343105
v 0.2617468 0.2326875 -0.5082788
v 0.3405274 0.2184727 -0.5239151
v 0.3405274 0.2210759 -0.5158486
v 0.2617468 0.2394009 -0.4875047
v 0.1018905 -0.08884034 0.2724546
v 0.04782304 -0.12013 0.3016376
v -0.0398975 -0.1706352 0.2479641
v -0.0401544 -0.1699331 -0.08484992
v 0.1012226 -0.0880183 -0.1983968
v -0.06841266 -0.174951 -0.0711832
v 0.1298063 -0.05552983 0.2603463
v -0.2011067 -0.1984825 -0.00689137
v 0.2059495 0.03726006 -0.3338653
v -0.2011067 -0.1988764 0.1680017
v 0.182418 0.007254899 0.2372602
v 0.2069599 0.03667778 0.1831413
v -0.3248437 -0.1767322 0.01835269
v 0.2627229 0.1904885 0.09406775
v 0.2118409 0.05352998 -0.3488165
v -0.3621446 -0.1701728 0.02599102
v 0.2617468 0.1906597 -0.3488165
v 0.2617468 0.1906597 -0.4748998
v 0.2628771 0.3540953 0.1585994
v 0.2617468 0.2825077 -0.3488165
v 0.2617468 0.2326875 -0.5082788
v 0.2617468 0.2394009 -0.4875047
v 0.2622605 0.3539925 -0.1186571
v 0.2307825 0.4422269 0.1530505
v 0.2610617 0.359079 0.1654328
v 0.2467099 0.3988975 0.2196202
v 0.238986 0.4199114 0.1924237
v 0.2299433 0.4445561 0.1602949
v -0.3622131 -0.1703269 0.1043777
v -0.3172396 -0.1783078 0.1222062
v -0.5038128 -0.08848071 0.06502169
v -0.4106119 -0.1423598 0.09098506
v -0.368036 -0.1667818 0.02532309
v -0.5037442 -0.08837795 0.01002938
v -0.5537357 -0.02896705 0.05998659
v -0.5559964 -0.02600423 -0.02139723
v -0.5747496 -0.003911376 0.05782866
v -0.5589764 -0.02249336 -0.008963645
v -0.1226343 -0.2638875 0.01807868
v -0.06841266 -0.174951 -0.0711832
v -0.2011067 -0.1984825 -0.00689137
v -0.2011067 -0.2777255 0.05604756
v -0.3148077 -0.2576707 0.07920218
v -0.3248437 -0.1767322 0.01835269
v -0.3843916 -0.2257988 0.07779783
v -0.3621446 -0.1701728 0.02599102
v -0.368036 -0.1667818 0.02532309
v -0.2979384 -0.2606507 0.1062788
v -0.3843916 -0.2257988 0.07779783
v -0.5984523 -0.07003576 0.02820027
v -0.2319168 -0.2722965 0.132499
v 0.2069599 0.03667778 0.1831413
v 0.1816645 -0.1142043 0.1913276
v 0.1672956 -0.1313305 0.2230796
v 0.182418 0.007254899 0.2372602
v 0.1018905 -0.08884034 0.2724546
v 0.1298063 -0.05552983 0.2603463
v 0.1031065 -0.1775199 0.2564929
v 0.05693418 -0.2041855 0.2814116
v 0.04782304 -0.12013 0.3016376
v 0.1298063 -0.05552983 0.2603463
v 0.182418 0.007254899 0.2372602
v 0.1672956 -0.1313305 0.2230796
v 0.1524129 -0.149039 0.2296047
v 0.1031065 -0.1775199 0.2564929
v 0.2617468 0.2394009 -0.4875047
v 0.3405274 0.2210759 -0.5158486
v 0.3405274 0.3085738 -0.2343105
v 0.2617468 0.2825077 -0.3488165
v 0.2622605 0.3539925 -0.1186571
v 0.27454 0.4394181 0.1610313
v 0.2307825 0.4422269 0.1530505
v -0.3172396 -0.1783078 0.1222062
v -0.1036413 -0.2605308 0.1936054
v -0.2011067 -0.2777255 0.1447272
v -0.2319168 -0.2722965 0.132499
v -0.3622131 -0.1703269 0.1043777
v -0.5984523 -0.07003576 0.02820027
v -0.4106119 -0.1423598 0.09098506
v 0.04782304 -0.12013 0.3016376
v 0.05693418 -0.2041855 0.2814116
v -0.01300931 -0.244552 0.2386131
v -0.0398975 -0.1706352 0.2479641
v -0.1036413 -0.2605308 0.1936054
v -0.2011067 -0.1988764 0.1680017
v -0.3172396 -0.1783078 0.1222062
vt 0 0
vt 0.5689149 0.5689149
vt 0.5679374 0
vt 0 0
vt 0.1114369 0.1114369
vt 0.1730205 0
vt 1 0.3128055
vt 1 0
vt 0.657869 0
vt 0.8690127 0.8690127
vt 1 1
vt 1 0.4789834
vt 0.8905181 0.8905181
vt 1 0.8690127
vt 1 0.1114369
vt 1 0
vt 0.8826979 0
vt 0.4789834 0.4789834
vt 1 1
vt 1 0.8954057
vt 0.9159335 0.888563
vt 0.8954057 0.8954057
vt 0.9863148 0.6754643
vt 1 0.3919844
vt 0.4750733 0.4750733
vt 0.2785924 0.2785924
vt 0.4506354 0.2913001
vt 0.3919844 0.3919844
vt 0.7634408 0.1300098
vt 1 0.4320626
vt 0.9257087 0.9257087
vt 1 1
vt 1 0.8905181
vt 0.1446725 0.03030303
vt 0.2805474 0
vt 0 0
vt 0.9012707 0.9012707
vt 1 0.8269795
vt 1 1
vt 1 0.888563
vt 0.3880743 0.3088954
vt 0 0
vt 0.1173021 0
vt 0.9374389 0.2756598
vt 1 0.2668622
vt 1 0.1114369
vt 0.7575758 0.1446725
vt 0.7106549 0.4183773
vt 0.4916911 0.311828
vt 0.6412512 0.6363636
vt 0.6793744 0.03128055
vt 0.8250244 0.1886608
vt 0.740958 0.3607038
vt 1 0.3636364
vt 1 0.7526882
vt 0.8269795 0.5796676
vt 0.4995112 0.9257087
vt 0.5288367 0.9345064
vt 0.5552297 0.943304
vt 0.4995112 0.9090909
vt 0.4662757 0.913001
vt 0.4711632 0.9188661
vt 0.4907136 0.9237537
vt 0.5229716 0.9022483
vt 0.5552297 0.8924731
vt 0.6109482 0.941349
vt 0.6109482 0.8670577
vt 0.5943304 0.9462366
vt 0.5786901 0.9511241
vt 0.6177908 0.9403715
vt 0.6666667 0.8377321
vt 0.6246334 0.9345064
vt 0.657869 0.9042033
vt 0.6666667 0.8954057
vt 0.7223852 0.8064516
vt 0.7223852 0.8758553
vt 0.7341154 0.8005865
vt 0.7771261 0.8895406
vt 0.7350929 0.8025416
vt 0.7605083 0.85435
vt 0.3636364 0.3636364
vt 0.7526882 0.7526882
vt 1 0.9208211
vt 1 0.7966765
vt 0.6109482 0.9521016
vt 0.5894428 0.9579667
vt 0.5552297 0.9472141
vt 0.5552297 0.8836755
vt 0.6109482 0.8621701
vt 0.5454546 0.886608
vt 0.6256109 0.9501466
vt 0.4995112 0.8983382
vt 0.6666667 0.8357771
vt 0.4995112 0.9315738
vt 0.6539589 0.945259
vt 0.6666667 0.9345064
vt 0.457478 0.9032258
vt 0.7223852 0.9178886
vt 0.6725318 0.8338221
vt 0.4447703 0.9051808
vt 0.7223852 0.8338221
vt 0.7223852 0.8093842
vt 0.7781036 0.9305963
vt 0.7536657 0.8338221
vt 0.7360704 0.8035191
vt 0.7390029 0.8074291
vt 0.7781036 0.8768328
vt 0.8093842 0.9296188
vt 0.7800586 0.9315738
vt 0.7937439 0.9423265
vt 0.801564 0.9364614
vt 0.8103617 0.9305963
vt 0.4447703 0.9198436
vt 0.4604106 0.9237537
vt 0.3890518 0.9120235
vt 0.42522 0.9169111
vt 0.4418377 0.9051808
vt 0.3890518 0.9022483
vt 0.3626589 0.911046
vt 0.3616813 0.8954057
vt 0.3509286 0.911046
vt 0.3597263 0.8983382
vt 0.1114369 0.1114369
vt 0.2668622 0.2668622
vt 0.5669599 0.1515152
vt 0.2893451 0.04398827
vt 0.6871945 0
vt 1 0.1036168
vt 0 0
vt 0.1065494 0.01564027
vt 0.1114369 0
vt 0.657869 0.657869
vt 1 1
vt 1 0
vt 0.2150538 0
vt 0.9990225 0.4740958
vt 1 0.2785924
vt 0.7155425 0
vt 0.514174 0
vt 0.3567937 0.1016618
vt 0.3949169 0
vt 0.2179863 0
vt 0.1994135 0.1994135
vt 0.3352884 0.3352884
vt 0.3949169 0.3949169
vt 1 0.485826
vt 1 0.2844575
vt 0.8289345 0.259042
vt 0.2179863 0.2179863
vt 0.7966765 0.7966765
vt 0.9208211 0.9208211
vt 1 0.5689149
vt 0.8396872 0.7086999
vt 0.9032258 0.3870968
vt 1 0
vt 0.9257087 0
vt 1 0.5796676
vt 1 0.2600195
vt 0.2981427 0.1945259
vt 0.2150538 0.2150538
vt 0.8797654 0.6109482
vt 1 1
vt 1 0.7194526
vt 1 0.3352884
vt 1 0.1994135
vt 0.8836755 0.08602151
vt 0.85435 0.1935484
vt 0.7399805 0
vt 0.5982405 0.04105572
vt 0.4203323 0
vn 0.1215677 0.9450908 -0.3033557
vn 0.1215677 0.9450908 -0.3033557
vn 0.1215677 0.9450908 -0.3033557
vn -0.8352877 0.4431338 -0.3254641
vn -0.8352877 0.4431338 -0.3254641
vn -0.8352877 0.4431338 -0.3254641
vn -0.4117615 -0.8980324 0.1548881
vn -0.4117615 -0.8980324 0.1548881
vn -0.4117615 -0.8980324 0.1548881
vn 0.08235234 0.7960722 0.5995724
vn 0.08235234 0.7960722 0.5995724
vn 0.08235234 0.7960722 0.5995724
vn 0.08235234 0.8039154 0.5890145
vn 0.08235234 0.8039154 0.5890145
vn -0.8352877 0.4431338 -0.3254641
vn -0.8352877 0.4431338 -0.3254641
vn -0.8352877 0.4431338 -0.3254641
vn 0.9294047 -0.1372539 0.3425906
vn 0.9294047 -0.1372539 0.3425906
vn 0.9294047 -0.1372539 0.3425906
vn 0.9294047 -0.1372539 0.3425906
vn 0.9294047 -0.1372539 0.3425906
vn 0.9294047 -0.1372539 0.3425906
vn 0.9294047 -0.1372539 0.3425906
vn 0.9294047 -0.1372539 0.3425906
vn 0.9294047 -0.1372539 0.3425906
vn 0.9294047 -0.1372539 0.3425906
vn 0.9294047 -0.1372539 0.3425906
vn 0.9294047 -0.1372539 0.3425906
vn 0.9294047 -0.1372539 0.3425906
vn 0.1137246 0.9529338 -0.2810408
vn 0.1137246 0.9529338 -0.2810408
vn 0.1137246 0.9529338 -0.2810408
vn -0.3960754 -0.2549 0.8821282
vn -0.3960754 -0.2549 0.8821282
vn -0.3960754 -0.2549 0.8821282
vn -0.3960754 -0.2549 0.8821282
vn -0.3960754 -0.2549 0.8821282
vn -0.262743 -0.5999954 -0.7556266
vn -0.262743 -0.5999954 -0.7556266
vn -0.262743 -0.5999954 -0.7556266
vn -0.262743 -0.5999954 -0.7556266
vn -0.262743 -0.5999954 -0.7556266
vn -0.262743 -0.5999954 -0.7556266
vn -0.262743 -0.5999954 -0.7556266
vn -0.262743 -0.5999954 -0.7556266
vn -0.262743 -0.5999954 -0.7556266
vn -0.262743 -0.5999954 -0.7556266
vn -0.262743 -0.5999954 -0.7556266
vn -0.262743 -0.5999954 -0.7556266
vn -0.262743 -0.5999954 -0.7556266
vn -0.262743 -0.5999954 -0.7556266
vn -0.262743 -0.5999954 -0.7556266
vn -0.262743 -0.5999954 -0.7556266
vn -0.262743 -0.5999954 -0.7556266
vn -0.262743 -0.5999954 -0.7556266
vn 0.04309721 -0.9990709 0
vn 0.1764693 -0.9843062 0
vn 0.3882324 -0.9215616 0
vn 0.03527218 -0.9993777 0
vn -0.1764692 -0.9843062 0
vn -0.1764692 -0.9843062 0
vn -0.1764692 -0.9843062 0
vn 0.1764693 -0.9843062 0
vn 0.3948628 -0.9187401 0
vn 0.615568 -0.7880839 0
vn 0.6941124 -0.7176416 -0.05655585
vn 0.4980354 -0.8666601 -0.02934363
vn 0.4980354 -0.8666601 -0.02934363
vn 0.7647001 -0.6392108 -0.08150696
vn 0.9043746 -0.4267395 0
vn 0.7647001 -0.6392108 -0.08150696
vn 0.7647001 -0.6392108 -0.08150696
vn 0.8274447 -0.56078 -0.02934414
vn 0.9921493 -0.09803849 -0.07764172
vn 0.9843062 -0.1764693 0
vn 0.9999924 0.003921509 0
vn 0.9999924 0.003921509 0
vn 0.9999924 0.003921509 0
vn 0.9999924 0.003921509 0
vn 0.1137246 0.9450908 -0.3063823
vn 0.1137246 0.9450908 -0.3063823
vn 0.1137246 0.9450908 -0.3063823
vn 0.1137246 0.9450908 -0.3063823
vn -0.6155679 0.7880838 0
vn -0.4980353 0.86666 0.02934769
vn -0.3882322 0.9215615 -0.000345267
vn -0.3948628 0.9187401 0
vn -0.6941123 0.7176415 0.05655848
vn -0.1764692 0.9843061 -0.000345267
vn -0.7646999 0.6392107 0.08150897
vn -0.03527213 0.9993777 0
vn -0.9043746 0.4267395 0
vn -0.04309709 0.9990709 0
vn -0.7646999 0.6392107 0.08150897
vn -0.8274446 0.5607799 0.02934922
vn 0.1764693 0.9843061 -0.000345267
vn -0.9843061 0.1764692 -0.0003712624
vn -0.9372476 0.3411738 0.07188428
vn 0.3326155 0.9430625 0
vn -0.9843061 0.1764692 -0.0003712624
vn -0.9921492 0.09803843 -0.07764255
vn -0.9686199 -0.2313708 0.09079061
vn -0.9999923 0.003921509 -0.0003449296
vn -0.9999923 0.003921509 -0.0003449296
vn -0.9999923 0.003921509 -0.0003449296
vn -0.9993777 -0.03527219 0
vn -0.9372476 -0.3411739 0.07188372
vn -0.9372476 -0.3411739 0.07188372
vn -0.9372476 -0.3411739 0.07188372
vn -0.9372476 -0.3411739 0.07188372
vn -0.9372476 -0.3411739 0.07188372
vn 0.3091746 0.9510053 0
vn 0.1764693 0.9843061 -0.000345267
vn 0.6313677 0.7725431 0.06746812
vn 0.4980354 0.86666 0.02934566
vn 0.4980354 0.86666 0.02934566
vn 0.6626585 0.7489216 0
vn 0.7647001 0.6392107 0.08150788
vn 0.7647001 0.6392107 0.08150788
vn 0.7647001 0.6392107 0.08150788
vn 0.7647001 0.6392107 0.08150788
vn -0.262743 -0.5999954 -0.7556266
vn -0.262743 -0.5999954 -0.7556266
vn -0.262743 -0.5999954 -0.7556266
vn -0.262743 -0.5999954 -0.7556266
vn -0.262743 -0.5999954 -0.7556266
vn -0.262743 -0.5999954 -0.7556266
vn -0.262743 -0.5999954 -0.7556266
vn -0.262743 -0.5999954 -0.7556266
vn -0.262743 -0.5999954 -0.7556266
vn -0.3960754 -0.2627431 0.879824
vn -0.3960754 -0.2627431 0.879824
vn -0.3960754 -0.2627431 0.879824
vn -0.3960754 -0.2627431 0.879824
vn 0.9294047 -0.1372539 0.3425906
vn 0.9294047 -0.1372539 0.3425906
vn 0.9294047 -0.1372539 0.3425906
vn 0.9294047 -0.1372539 0.3425906
vn 0.5294077 -0.145097 0.8358674
vn 0.5294077 -0.145097 0.8358674
vn 0.5294077 -0.145097 0.8358674
vn 0.5294077 -0.145097 0.8358674
vn 0.5294077 -0.145097 0.8358674
vn 0.5372508 -0.145097 0.830848
vn 0.5372508 -0.145097 0.830848
vn 0.5372508 -0.145097 0.830848
vn 0.5372508 -0.145097 0.830848
vn 0.5372508 -0.145097 0.830848
vn 0.1137246 0.9450908 -0.3063823
vn 0.1137246 0.9450908 -0.3063823
vn 0.1137246 0.9450908 -0.3063823
vn 0.1137246 0.9450908 -0.3063823
vn 0.1137246 0.9450908 -0.3063823
vn 0.1137246 0.9450908 -0.3063823
vn 0.1137246 0.9450908 -0.3063823
vn -0.3960754 -0.2627431 0.879824
vn -0.3960754 -0.2627431 0.879824
vn -0.3960754 -0.2627431 0.879824
vn -0.3960754 -0.2627431 0.879824
vn -0.3960754 -0.2627431 0.879824
vn -0.3960754 -0.2627431 0.879824
vn -0.3960754 -0.2627431 0.879824
vn -0.3960754 -0.2549 0.8821282
vn -0.3960754 -0.2549 0.8821282
vn -0.3960754 -0.2549 0.8821282
vn -0.3960754 -0.2549 0.8821282
vn -0.3960754 -0.2549 0.8821282
vn -0.3960754 -0.2549 0.8821282
vn -0.3960754 -0.2549 0.8821282
g Bottiglia_cell.034_0
f 3/3/3 2/2/2 1/1/1
f 6/6/6 5/5/5 4/4/4
f 9/9/9 8/8/8 7/7/7
f 12/12/12 11/11/11 10/10/10
f 14/14/14 11/11/11 13/13/13
f 17/17/17 16/16/16 15/15/15
f 20/20/20 19/19/19 18/18/18
f 19/19/19 22/22/22 21/21/21
f 19/19/19 21/21/21 23/23/23
f 24/24/24 19/19/19 23/23/23
f 24/24/24 23/23/23 25/25/25
f 25/25/25 26/26/26 24/24/24
f 19/19/19 28/28/28 27/27/27
f 27/27/27 29/29/29 19/19/19
f 29/29/29 30/30/30 19/19/19
f 33/33/33 32/32/32 31/31/31
f 36/36/36 35/35/35 34/34/34
f 34/34/34 37/37/37 36/36/36
f 37/37/37 38/38/38 36/36/36
f 41/41/41 40/40/40 39/39/39
f 39/39/39 42/42/42 41/41/41
f 42/42/42 43/43/43 41/41/41
f 46/46/46 45/45/45 44/44/44
f 47/47/47 46/46/46 44/44/44
f 47/47/47 44/44/44 48/48/48
f 49/49/49 47/47/47 48/48/48
f 49/49/49 48/48/48 50/50/50
f 49/49/49 50/50/50 51/51/51
f 49/49/49 51/51/51 52/52/52
f 52/52/52 53/53/53 49/49/49
f 53/53/53 52/52/52 54/54/54
f 53/53/53 54/54/54 55/55/55
f 55/55/55 56/56/56 53/53/53
f 59/59/59 58/58/58 57/57/57
f 59/59/59 57/57/57 60/60/60
f 61/61/61 60/60/60 57/57/57
f 57/57/57 62/62/62 61/61/61
f 57/57/57 63/63/63 62/62/62
f 59/59/59 60/60/60 64/64/64
f 64/64/64 65/65/65 59/59/59
f 66/66/66 59/59/59 65/65/65
f 65/65/65 67/67/67 66/66/66
f 66/66/66 68/68/68 59/59/59
f 68/68/68 69/69/69 59/59/59
f 70/70/70 66/66/66 67/67/67
f 67/67/67 71/71/71 70/70/70
f 71/71/71 72/72/72 70/70/70
f 71/71/71 73/73/73 72/72/72
f 71/71/71 74/74/74 73/73/73
f 74/74/74 71/71/71 75/75/75
f 76/76/76 74/74/74 75/75/75
f 76/76/76 75/75/75 77/77/77
f 77/77/77 78/78/78 76/76/76
f 77/77/77 79/79/79 78/78/78
f 79/79/79 80/80/80 78/78/78
f 83/83/83 82/82/82 81/81/81
f 84/84/84 83/83/83 81/81/81
f 87/87/87 86/86/86 85/85/85
f 88/88/88 87/87/87 85/85/85
f 85/85/85 89/89/89 88/88/88
f 87/87/87 88/88/88 90/90/90
f 89/89/89 85/85/85 91/91/91
f 90/90/90 92/92/92 87/87/87
f 91/91/91 93/93/93 89/89/89
f 92/92/92 94/94/94 87/87/87
f 91/91/91 95/95/95 93/93/93
f 95/95/95 96/96/96 93/93/93
f 94/94/94 92/92/92 97/97/97
f 93/93/93 96/96/96 98/98/98
f 98/98/98 99/99/99 93/93/93
f 97/97/97 100/100/100 94/94/94
f 98/98/98 101/101/101 99/99/99
f 99/99/99 101/101/101 102/102/102
f 101/101/101 98/98/98 103/103/103
f 102/102/102 101/101/101 104/104/104
f 103/103/103 104/104/104 101/101/101
f 104/104/104 105/105/105 102/102/102
f 104/104/104 106/106/106 105/105/105
f 103/103/103 107/107/107 104/104/104
f 108/108/108 107/107/107 103/103/103
f 103/103/103 109/109/109 108/108/108
f 109/109/109 110/110/110 108/108/108
f 110/110/110 111/111/111 108/108/108
f 111/111/111 112/112/112 108/108/108
f 100/100/100 113/113/113 94/94/94
f 113/113/113 114/114/114 94/94/94
f 115/115/115 113/113/113 100/100/100
f 115/115/115 116/116/116 113/113/113
f 115/115/115 100/100/100 117/117/117
f 117/117/117 118/118/118 115/115/115
f 119/119/119 115/115/115 118/118/118
f 118/118/118 120/120/120 119/119/119
f 120/120/120 121/121/121 119/119/119
f 120/120/120 122/122/122 121/121/121
f 125/125/125 124/124/124 123/123/123
f 123/123/123 126/126/126 125/125/125
f 126/126/126 127/127/127 125/125/125
f 127/127/127 128/128/128 125/125/125
f 127/127/127 129/129/129 128/128/128
f 129/129/129 130/130/130 128/128/128
f 129/129/129 131/131/131 130/130/130
f 134/134/134 133/133/133 132/132/132
f 135/135/135 134/134/134 132/132/132
f 138/138/138 137/137/137 136/136/136
f 139/139/139 138/138/138 136/136/136
f 142/142/142 141/141/141 140/140/140
f 140/140/140 143/143/143 142/142/142
f 140/140/140 144/144/144 143/143/143
f 147/147/147 146/146/146 145/145/145
f 145/145/145 148/148/148 147/147/147
f 145/145/145 149/149/149 148/148/148
f 152/152/152 151/151/151 150/150/150
f 150/150/150 153/153/153 152/152/152
f 153/153/153 154/154/154 152/152/152
f 154/154/154 155/155/155 152/152/152
f 154/154/154 156/156/156 155/155/155
f 159/159/159 158/158/158 157/157/157
f 157/157/157 160/160/160 159/159/159
f 157/157/157 161/161/161 160/160/160
f 161/161/161 162/162/162 160/160/160
f 161/161/161 163/163/163 162/162/162
f 166/166/166 165/165/165 164/164/164
f 164/164/164 167/167/167 166/166/166
f 167/167/167 168/168/168 166/166/166
f 167/167/167 169/169/169 168/168/168
f 169/169/169 170/170/170 168/168/168
