g Bottiglia_cell.024
v -0.1547428 0.01919852 -0.07531574
v -0.09067041 0.04459056 -0.05023468
v -0.09064078 0.04542479 -0.03068715
v 0.06688957 0.0949057 0.00638403
v 0.1364462 0.1336848 0.03829685
v 0.05923839 0.1039982 0.008452326
v 0.1525828 0.08946596 0.02352268
v 0.1557123 0.06554985 0.01426722
v 0.1557123 0.08088183 0.02065966
v 0.1353997 0.1352694 0.06413315
v 0.06680565 0.09446636 0.06385179
v 0.05742185 0.1056371 0.06377774
v 0.06688957 0.0949057 0.00638403
v 0.05923839 0.1039982 0.008452326
v 0.07692001 0.06673948 0.06403936
v 0.07702368 0.06721337 -0.002856612
v 0.1557123 0.08057085 0.06413315
v 0.1353997 0.1352694 0.06413315
v 0.07693976 0.03722075 0.06423187
v 0.07705823 0.03773905 -0.01513305
v 0.1557123 0.02326599 0.06413315
v 0.06685995 0.009464249 0.06441945
v 0.06697842 0.01003192 -0.02895947
v 0.1361154 -0.03058349 0.06413315
v 0.04788996 -0.01317336 0.06457248
v 0.04798375 -0.0125514 -0.04267235
v 0.09928119 -0.07448151 0.06413315
v 0.02231035 -0.02795248 0.0646712
v 0.02236465 -0.02728608 -0.05461313
v 0.0496522 -0.1031315 0.06413315
v -0.006778941 -0.03308617 0.06470576
v -0.006778941 -0.03238028 -0.06333547
v -0.006778941 -0.1130829 0.06413315
v 0.0496522 -0.1021047 -0.07961027
v 0.09928119 -0.07361767 -0.05649877
v 0.1361154 -0.02991216 -0.02994671
v 0.1557123 0.02374481 -0.003147855
v 0.03259748 -0.1050763 -0.08470941
v 0.1557123 0.06554985 0.01426722
v 0.1557123 0.08088183 0.02065966
v 0.1525828 0.08946596 0.02352268
v 0.1364462 0.1336848 0.03829685
v -0.006778941 -0.1119377 -0.09596898
v -0.06321502 -0.1031315 0.06413315
v -0.06321502 -0.1019764 -0.09746466
v -0.02497393 -0.1087144 -0.09861974
v -0.1128391 -0.07336098 -0.09288383
v -0.03587316 -0.02795248 0.0646712
v -0.03593732 -0.02721204 -0.06778796
v -0.1128391 -0.07448151 0.06413315
v -0.1496733 -0.03058349 0.06413315
v -0.1286104 -0.05458351 -0.08992702
v -0.1335812 -0.0486847 -0.08727132
v -0.1496733 -0.02956168 -0.07851442
v -0.06144784 -0.01317336 0.06457248
v -0.06156631 -0.01240824 -0.06742268
v -0.08042276 0.009464249 0.06441945
v -0.08058071 0.01023431 -0.06229392
v -0.09050256 0.03722075 0.06423187
v -0.08587731 0.02481598 -0.05742185
v -0.09067534 0.03798588 -0.05299404
v -0.1677844 0.01917385 0.06413315
v -0.165958 0.01510145 -0.06939717
v -0.1467511 0.02725448 0.06416278
v -0.0904927 0.04887028 0.06415783
v -0.09067041 0.04459056 -0.05023468
v -0.09064078 0.04542479 -0.03068715
v -0.1426885 -0.0030047 -0.081876
v -0.08587731 0.02481598 -0.05742185
v -0.09067534 0.03798588 -0.05299404
v -0.1547428 0.01919852 -0.07531574
v -0.09067041 0.04459056 -0.05023468
v 0.03259748 -0.1050763 -0.08470941
v -0.02497393 -0.1087144 -0.09861974
v -0.006778941 -0.1119377 -0.09596898
v -0.1426885 -0.0030047 -0.081876
v -0.08058071 0.01023431 -0.06229392
v -0.08587731 0.02481598 -0.05742185
v -0.06156631 -0.01240824 -0.06742268
v -0.03593732 -0.02721204 -0.06778796
v 0.03259748 -0.1050763 -0.08470941
v -0.006778941 -0.03238028 -0.06333547
v 0.02236465 -0.02728608 -0.05461313
v 0.04798375 -0.0125514 -0.04267235
v 0.0496522 -0.1021047 -0.07961027
v 0.06697842 0.01003192 -0.02895947
v 0.07705823 0.03773905 -0.01513305
v 0.09928119 -0.07361767 -0.05649877
v 0.07702368 0.06721337 -0.002856612
v 0.1361154 -0.02991216 -0.02994671
v 0.06688957 0.0949057 0.00638403
v 0.1364462 0.1336848 0.03829685
v 0.1525828 0.08946596 0.02352268
v 0.1557123 0.02374481 -0.003147855
v 0.1557123 0.06554985 0.01426722
v 0.05923839 0.1039982 0.008452326
v 0.1364462 0.1336848 0.03829685
v 0.1353997 0.1352694 0.06413315
v 0.05742185 0.1056371 0.06377774
v -0.165958 0.01510145 -0.06939717
v -0.1547428 0.01919852 -0.07531574
v -0.09064078 0.04542479 -0.03068715
v -0.1677844 0.01917385 0.06413315
v -0.0904927 0.04887028 0.06415783
v -0.1467511 0.02725448 0.06416278
v -0.06321502 -0.1019764 -0.09746466
v -0.02497393 -0.1087144 -0.09861974
v -0.1426885 -0.0030047 -0.081876
v -0.1128391 -0.07336098 -0.09288383
v -0.1286104 -0.05458351 -0.08992702
v -0.1286104 -0.05458351 -0.08992702
v -0.1426885 -0.0030047 -0.081876
v -0.1547428 0.01919852 -0.07531574
v -0.1335812 -0.0486847 -0.08727132
v -0.1335812 -0.0486847 -0.08727132
v -0.1547428 0.01919852 -0.07531574
v -0.165958 0.01510145 -0.06939717
v -0.1496733 -0.02956168 -0.07851442
vt 0 0
vt 0.2130987 0.2130987
vt 0.2355816 0
vt 0.7155425 0.7155425
vt 0.9667644 0.9667644
vt 1 0.7106549
vt 1 0.85435
vt 1 0.7829912
vt 0.9804497 0.8113392
vt 0.8347996 1
vt 0.8328446 1
vt 0.8611926 1
vt 0.8328446 1
vt 0.8553275 1
vt 0.7781036 1
vt 0.7781036 1
vt 0.7781036 1
vt 0.8328446 1
vt 0.7223852 1
vt 0.7223852 1
vt 0.7223852 1
vt 0.6666667 1
vt 0.6666667 1
vt 0.6666667 1
vt 0.6109482 1
vt 0.6109482 1
vt 0.6109482 1
vt 0.5552297 1
vt 0.5552297 1
vt 0.5552297 1
vt 0.4995112 1
vt 0.4995112 1
vt 0.4995112 1
vt 0.5552297 1
vt 0.6109482 1
vt 0.6666667 1
vt 0.7223852 1
vt 0.5386119 1
vt 0.7624633 1
vt 0.7781036 1
vt 0.7869013 1
vt 0.8328446 1
vt 0.4995112 1
vt 0.4447703 1
vt 0.4447703 1
vt 0.4819159 1
vt 0.3890518 1
vt 0.4447703 1
vt 0.4447703 1
vt 0.3890518 1
vt 0.3333333 1
vt 0.3646139 1
vt 0.3577712 1
vt 0.3333333 1
vt 0.3890518 1
vt 0.3890518 1
vt 0.3333333 1
vt 0.3333333 1
vt 0.2776149 1
vt 0.3040078 1
vt 0.2776149 1
vt 0.2815249 1
vt 0.28739 1
vt 0.2776149 1
vt 0.2561095 1
vt 0.2649071 1
vt 0.2639296 1
vt 0 0
vt 0.1964809 0.1964809
vt 0.7556207 0.2033236
vt 1 0
vt 1 0.2130987
vt 1 0.5268817
vt 0.2043011 0
vt 0.3616813 0.1251222
vt 1 0
vt 0.9521016 0.1593353
vt 1 0.1964809
vt 0.8621701 0.1221896
vt 0.7859238 0.1221896
vt 0.4731183 0
vt 0.7311828 0.1603128
vt 0.7057673 0.2316716
vt 0.7116324 0.3274682
vt 0.4584555 0.04203324
vt 0.7487781 0.4359726
vt 0.8123167 0.544477
vt 0.4701857 0.226784
vt 0.8954057 0.6402737
vt 0.5415445 0.4369501
vt 1 0.7155425
vt 1 0.9667644
vt 0.85435 0.85435
vt 0.6656892 0.6471163
vt 0.7829912 0.7829912
vt 0.7106549 0.7106549
vt 0.9667644 0.9667644
vt 0.9941349 0.6823069
vt 0.7702835 0.09384164
vt 0.9481916 0.9481916
vt 1 1
vt 1 0.7644184
vt 0.4369501 0.03910068
vt 0.6402737 0.1202346
vt 0.4926686 0.06060606
vt 0.5307918 0.2531769
vt 0.2043011 0.2043011
vt 1 1
vt 0.9042033 0.4672532
vt 1 0.6089932
vt 0.6089932 0.6089932
vt 1 1
vt 1 0
vt 0.5601173 0
vt 0.5601173 0.5601173
vt 1 1
vt 1 0.9481916
vt 0.7057673 0.6627566
vn -0.3557318 0.9345881 0
vn -0.3557318 0.9345881 0
vn -0.3557318 0.9345881 0
vn 0.2079899 0.3801312 -0.9012438
vn 0.2079899 0.3801312 -0.9012438
vn 0.2079899 0.3801312 -0.9012438
vn 0.2079899 0.3801312 -0.9012438
vn 0.2079899 0.3801312 -0.9012438
vn 0.2079899 0.3801312 -0.9012438
vn 0.6471203 0.2389821 0.7239633
vn -0.5761715 -0.3334557 0.7462128
vn -0.5996964 -0.4981296 0.6262836
vn -0.8741529 -0.4824464 -0.05569698
vn -0.7643703 -0.6392787 -0.08402854
vn -0.6545877 -0.1138905 0.7473579
vn -0.9905373 -0.1372436 0
vn 0.7333781 0.1291995 0.667431
vn 0.6471203 0.2389821 0.7239633
vn -0.6545877 0.1135163 0.7474148
vn -0.9760939 0.2154573 -0.02861605
vn 0.7333781 -0.1295738 0.6673585
vn -0.5683299 0.3330815 0.7523682
vn -0.8427864 0.5369635 0.03716595
vn 0.6471203 -0.3726638 0.6650993
vn -0.4193393 0.505597 0.7540068
vn -0.6068407 0.7948235 0
vn 0.4824464 -0.5687041 0.6661989
vn -0.2232989 0.6153797 0.7559401
vn -0.3090605 0.9510423 0
vn 0.2550396 -0.7020116 0.664932
vn -0.003733754 0.6545877 0.7559768
vn 0.02763276 0.9996182 0
vn -0.003733754 -0.7490613 0.6624902
vn 0.3020893 -0.9529433 -0.02532246
vn 0.6068966 -0.7947809 0
vn 0.8397497 -0.5429738 0
vn 0.9764324 -0.2158236 0
vn 0.176618 -0.9842795 0
vn 0.999993 0.003733754 -0.0003546489
vn 0.9905951 0.1368261 0
vn 0.93726 0.3409232 0.07290419
vn 0.93726 0.3409232 0.07290419
vn -0.02724859 -0.9996287 0
vn -0.2546654 -0.7020116 0.6650754
vn -0.3323908 -0.9431418 0
vn -0.1762493 -0.9843097 -0.008400708
vn -0.6310629 -0.7725861 -0.06978793
vn 0.2236731 0.6153797 0.7558295
vn 0.349139 0.9368858 0.01862523
vn -0.4820722 -0.5687041 0.6664698
vn -0.6467462 -0.3726638 0.6654631
vn -0.7643703 -0.6392787 -0.08402854
vn -0.7643703 -0.6392787 -0.08402854
vn -0.8506281 -0.5216545 -0.06563842
vn 0.4197135 0.505597 0.7537985
vn 0.6314371 0.7722119 0.07054101
vn 0.5687041 0.3330815 0.7520853
vn 0.8510023 0.5212803 0.06373356
vn 0.6549619 0.1213579 0.7458533
vn 0.93726 0.3409232 0.07290419
vn 0.9764681 0.2154573 -0.009387516
vn -0.6545877 -0.2393563 0.7170937
vn -0.9368858 -0.3412973 -0.07590182
vn -0.003733754 0.003733754 0.9999861
vn 0.7882694 0.003733754 0.615319
vn 0.9999915 -0.004107886 0
vn 0.9999915 -0.004107886 0
vn 0.2001483 0.3801312 -0.9030176
vn 0.2001483 0.3801312 -0.9030176
vn 0.2001483 0.3801312 -0.9030176
vn 0.2001483 0.3801312 -0.9030176
vn 0.2001483 0.3801312 -0.9030176
vn 0.2001483 0.364448 -0.9094605
vn 0.2001483 0.364448 -0.9094605
vn 0.2001483 0.364448 -0.9094605
vn 0.2001483 0.364448 -0.9094605
vn 0.2079899 0.3801312 -0.9012438
vn 0.2079899 0.3801312 -0.9012438
vn 0.2079899 0.3801312 -0.9012438
vn 0.2079899 0.3801312 -0.9012438
vn 0.2079899 0.3801312 -0.9012438
vn 0.2079899 0.3801312 -0.9012438
vn 0.2079899 0.3801312 -0.9012438
vn 0.2079899 0.3801312 -0.9012438
vn 0.2079899 0.3801312 -0.9012438
vn 0.2079899 0.3801312 -0.9012438
vn 0.2079899 0.3801312 -0.9012438
vn 0.2079899 0.3801312 -0.9012438
vn 0.2079899 0.3801312 -0.9012438
vn 0.2079899 0.3801312 -0.9012438
vn 0.2079899 0.3801312 -0.9012438
vn 0.2079899 0.3801312 -0.9012438
vn 0.2079899 0.3801312 -0.9012438
vn 0.2079899 0.3801312 -0.9012438
vn 0.2079899 0.3801312 -0.9012438
vn -0.3487648 0.9368858 -0.02465941
vn -0.3487648 0.9368858 -0.02465941
vn -0.3487648 0.9368858 -0.02465941
vn -0.3487648 0.9368858 -0.02465941
vn -0.3566064 0.9290442 -0.09853245
vn -0.3566064 0.9290442 -0.09853245
vn -0.3566064 0.9290442 -0.09853245
vn -0.3566064 0.9290442 -0.09853245
vn -0.3566064 0.9290442 -0.09853245
vn -0.3566064 0.9290442 -0.09853245
vn -0.003733754 0.1527244 -0.9882618
vn -0.003733754 0.1527244 -0.9882618
vn -0.003733754 0.1527244 -0.9882618
vn -0.003733754 0.1527244 -0.9882618
vn -0.003733754 0.1527244 -0.9882618
vn -0.4585474 0.01157534 -0.8885946
vn -0.4585474 0.01157534 -0.8885946
vn -0.4585474 0.01157534 -0.8885946
vn -0.4585474 0.01157534 -0.8885946
vn -0.4663889 0.01157534 -0.884504
vn -0.4663889 0.01157534 -0.884504
vn -0.4663889 0.01157534 -0.884504
vn -0.4663889 0.01157534 -0.884504
g Bottiglia_cell.024_0
f 3/3/3 2/2/2 1/1/1
f 6/6/6 5/5/5 4/4/4
f 9/9/9 8/8/8 7/7/7
f 12/12/12 11/11/11 10/10/10
f 13/13/13 11/11/11 12/12/12
f 14/14/14 13/13/13 12/12/12
f 15/15/15 11/11/11 13/13/13
f 16/16/16 15/15/15 13/13/13
f 11/11/11 15/15/15 17/17/17
f 18/18/18 11/11/11 17/17/17
f 19/19/19 15/15/15 16/16/16
f 20/20/20 19/19/19 16/16/16
f 17/17/17 15/15/15 21/21/21
f 15/15/15 19/19/19 21/21/21
f 22/22/22 19/19/19 20/20/20
f 23/23/23 22/22/22 20/20/20
f 21/21/21 19/19/19 24/24/24
f 19/19/19 22/22/22 24/24/24
f 25/25/25 22/22/22 23/23/23
f 26/26/26 25/25/25 23/23/23
f 24/24/24 22/22/22 27/27/27
f 22/22/22 25/25/25 27/27/27
f 28/28/28 25/25/25 26/26/26
f 29/29/29 28/28/28 26/26/26
f 27/27/27 25/25/25 30/30/30
f 25/25/25 28/28/28 30/30/30
f 31/31/31 28/28/28 29/29/29
f 32/32/32 31/31/31 29/29/29
f 30/30/30 28/28/28 33/33/33
f 28/28/28 31/31/31 33/33/33
f 27/27/27 30/30/30 34/34/34
f 34/34/34 30/30/30 33/33/33
f 35/35/35 27/27/27 34/34/34
f 24/24/24 27/27/27 35/35/35
f 36/36/36 24/24/24 35/35/35
f 21/21/21 24/24/24 36/36/36
f 37/37/37 21/21/21 36/36/36
f 38/38/38 34/34/34 33/33/33
f 17/17/17 21/21/21 37/37/37
f 37/37/37 39/39/39 17/17/17
f 39/39/39 40/40/40 17/17/17
f 18/18/18 17/17/17 40/40/40
f 40/40/40 41/41/41 18/18/18
f 41/41/41 42/42/42 18/18/18
f 33/33/33 43/43/43 38/38/38
f 43/43/43 33/33/33 44/44/44
f 33/33/33 31/31/31 44/44/44
f 43/43/43 44/44/44 45/45/45
f 45/45/45 46/46/46 43/43/43
f 45/45/45 44/44/44 47/47/47
f 31/31/31 48/48/48 44/44/44
f 48/48/48 31/31/31 32/32/32
f 49/49/49 48/48/48 32/32/32
f 44/44/44 50/50/50 47/47/47
f 44/44/44 48/48/48 50/50/50
f 47/47/47 50/50/50 51/51/51
f 51/51/51 52/52/52 47/47/47
f 51/51/51 53/53/53 52/52/52
f 51/51/51 54/54/54 53/53/53
f 55/55/55 48/48/48 49/49/49
f 48/48/48 55/55/55 50/50/50
f 50/50/50 55/55/55 51/51/51
f 56/56/56 55/55/55 49/49/49
f 57/57/57 55/55/55 56/56/56
f 55/55/55 57/57/57 51/51/51
f 58/58/58 57/57/57 56/56/56
f 59/59/59 57/57/57 58/58/58
f 51/51/51 57/57/57 59/59/59
f 58/58/58 60/60/60 59/59/59
f 60/60/60 61/61/61 59/59/59
f 54/54/54 51/51/51 62/62/62
f 63/63/63 54/54/54 62/62/62
f 64/64/64 62/62/62 51/51/51
f 59/59/59 64/64/64 51/51/51
f 64/64/64 59/59/59 65/65/65
f 65/65/65 59/59/59 61/61/61
f 61/61/61 66/66/66 65/65/65
f 66/66/66 67/67/67 65/65/65
f 70/70/70 69/69/69 68/68/68
f 70/70/70 68/68/68 71/71/71
f 71/71/71 72/72/72 70/70/70
f 75/75/75 74/74/74 73/73/73
f 74/74/74 76/76/76 73/73/73
f 76/76/76 78/78/78 77/77/77
f 76/76/76 77/77/77 79/79/79
f 76/76/76 79/79/79 80/80/80
f 81/81/81 76/76/76 80/80/80
f 81/81/81 80/80/80 82/82/82
f 81/81/81 82/82/82 83/83/83
f 81/81/81 83/83/83 84/84/84
f 85/85/85 81/81/81 84/84/84
f 85/85/85 84/84/84 86/86/86
f 85/85/85 86/86/86 87/87/87
f 87/87/87 88/88/88 85/85/85
f 88/88/88 87/87/87 89/89/89
f 90/90/90 88/88/88 89/89/89
f 90/90/90 89/89/89 91/91/91
f 90/90/90 91/91/91 92/92/92
f 90/90/90 92/92/92 93/93/93
f 94/94/94 90/90/90 93/93/93
f 93/93/93 95/95/95 94/94/94
f 98/98/98 97/97/97 96/96/96
f 99/99/99 98/98/98 96/96/96
f 102/102/102 101/101/101 100/100/100
f 100/100/100 103/103/103 102/102/102
f 103/103/103 104/104/104 102/102/102
f 103/103/103 105/105/105 104/104/104
f 108/108/108 107/107/107 106/106/106
f 106/106/106 109/109/109 108/108/108
f 109/109/109 110/110/110 108/108/108
f 113/113/113 112/112/112 111/111/111
f 114/114/114 113/113/113 111/111/111
f 117/117/117 116/116/116 115/115/115
f 118/118/118 117/117/117 115/115/115
