g Bottiglia_cell.020
v 0.2060324 -0.1906029 -0.0694221
v 0.1049732 -0.1017056 -0.09667356
v 0.1030061 -0.1046464 -0.1033459
v 0.06510237 0.06338473 0.08065052
v 0.1647042 0.03338195 0.1905321
v 0.1613844 0.04147898 0.1973548
v 0.1147236 0.07311554 0.1718417
v 0.05051598 0.08688505 0.09277971
v -0.1174368 0.1209657 -0.007802397
v -0.1803635 0.1350947 -0.1197426
v -0.1802589 0.1152932 -0.1334925
v -0.111346 0.1042358 -0.007802397
v -0.1797557 0.08467616 -0.1541042
v -0.09161647 0.1156265 0.01303159
v -0.1705738 0.07004403 -0.1466346
v 0.03594919 0.08976702 0.0883293
v -0.0747297 -0.04213141 -0.143916
v -0.03163056 0.00922814 -0.007802397
v 0.05051598 0.08688505 0.09277971
v 0.06510237 0.06338473 0.08065052
v 0.07577424 -0.05277713 -0.007802397
v 0.09800673 0.008287087 0.05162151
v 0.1248988 -0.0614427 -0.007802397
v 0.1049732 -0.1017056 -0.09667356
v 0.1030061 -0.1046464 -0.1033459
v 0.08883795 -0.1048948 -0.1089269
v 0.05660671 -0.1054437 -0.1215724
v -0.04616468 -0.06703024 -0.1589337
v -0.09784444 0.1120322 0.1122217
v -0.1898394 0.1339968 0.03943349
v -0.1028046 0.1160121 0.1091698
v -0.1672605 0.07195882 0.03943349
v 0.01191953 0.06113012 0.1595752
v -0.2038376 0.07263194 -0.03156412
v -0.2042494 0.1372382 0.01358053
v -0.2035043 0.05319647 -0.04473892
v -0.0731286 -0.04022315 0.03943349
v 0.1098026 0.04070131 0.1883886
v 0.05369858 -0.1134492 0.03943349
v 0.1613844 0.04147898 0.1973548
v -0.09836073 -0.07029781 -0.04095508
v 0.1647042 0.03338195 0.1905321
v 0.02903502 -0.1812054 -0.1082342
v 0.1979157 -0.05175765 0.1185412
v 0.1979157 -0.193694 -0.07283343
v 0.05196024 -0.1959225 -0.1300877
v 0.1979157 -0.1388774 0.03943349
v 0.2240301 -0.1342701 0.03943349
v 0.1979157 -0.193694 -0.07283343
v 0.2060324 -0.1906029 -0.0694221
v 0.05196024 -0.1959225 -0.1300877
v 0.1979157 -0.193694 -0.07283343
v 0.08883795 -0.1048948 -0.1089269
v 0.05660671 -0.1054437 -0.1215724
v -0.04616468 -0.06703024 -0.1589337
v 0.08883795 -0.1048948 -0.1089269
v 0.1979157 -0.193694 -0.07283343
v 0.2060324 -0.1906029 -0.0694221
v 0.1030061 -0.1046464 -0.1033459
v 0.02903502 -0.1812054 -0.1082342
v 0.05196024 -0.1959225 -0.1300877
v -0.04616468 -0.06703024 -0.1589337
v -0.09836073 -0.07029781 -0.04095508
v -0.2035043 0.05319647 -0.04473892
v -0.0747297 -0.04213141 -0.143916
v -0.1705738 0.07004403 -0.1466346
v -0.1797557 0.08467616 -0.1541042
v 0.1049732 -0.1017056 -0.09667356
v 0.2060324 -0.1906029 -0.0694221
v 0.2240301 -0.1342701 0.03943349
v 0.1979157 -0.05175765 0.1185412
v 0.1248988 -0.0614427 -0.007802397
v 0.09800673 0.008287087 0.05162151
v 0.1647042 0.03338195 0.1905321
v 0.06510237 0.06338473 0.08065052
v -0.2038376 0.07263194 -0.03156412
v -0.1802589 0.1152932 -0.1334925
v -0.1803635 0.1350947 -0.1197426
v -0.2042494 0.1372382 0.01358053
v -0.2035043 0.05319647 -0.04473892
v -0.1797557 0.08467616 -0.1541042
v -0.1802589 0.1152932 -0.1334925
v -0.2038376 0.07263194 -0.03156412
v -0.2042494 0.1372382 0.01358053
v -0.1803635 0.1350947 -0.1197426
v -0.1174368 0.1209657 -0.007802397
v -0.09161647 0.1156265 0.01303159
v 0.03594919 0.08976702 0.0883293
v -0.1898394 0.1339968 0.03943349
v -0.1028046 0.1160121 0.1091698
v 0.05051598 0.08688505 0.09277971
v 0.1147236 0.07311554 0.1718417
v 0.1147236 0.07311554 0.1718417
v 0.1613844 0.04147898 0.1973548
v 0.1098026 0.04070131 0.1883886
v -0.1028046 0.1160121 0.1091698
v 0.01191953 0.06113012 0.1595752
v -0.09784444 0.1120322 0.1122217
vt 0.1949194 0
vt 0.4108452 0.4108452
vt 0.4162189 0
vt 1 0.3287739
vt 1 0.0444553
vt 0.7122619 0
vt 0 0
vt 0.2256962 0.2256962
vt 0.3253542 1
vt 0.3092331 1
vt 0.3160723 1
vt 0.3331705 1
vt 0.3268198 1
vt 0.3331705 1
vt 0.3331705 1
vt 0.3888618 1
vt 0.3888618 1
vt 0.3888618 1
vt 0.3971666 1
vt 0.4132878 1
vt 0.444553 1
vt 0.444553 1
vt 0.467025 1
vt 0.4621398 1
vt 0.4616513 1
vt 0.4562775 1
vt 0.444553 1
vt 0.4030289 1
vt 0.3331705 1
vt 0.308256 1
vt 0.3307279 1
vt 0.3331705 1
vt 0.3888618 1
vt 0.3268198 1
vt 0.3053249 1
vt 0.3331705 1
vt 0.3888618 1
vt 0.444553 1
vt 0.444553 1
vt 0.4763069 1
vt 0.3888618 1
vt 0.479238 1
vt 0.444553 1
vt 0.4997558 1
vt 0.4997558 1
vt 0.4528579 1
vt 0.4997558 1
vt 0.5100147 1
vt 0.5012214 1
vt 0.5031754 1
vt 1 0.01612115
vt 0.2276502 0.1934539
vt 0.444553 0.444553
vt 0.615535 0.404983
vt 1 0.4494382
vt 1 0.444553
vt 1 0.2032243
vt 0.8050807 0
vt 0.5837812 0
vt 0.09135321 0.01270152
vt 0.01612115 0.01612115
vt 0.4494382 0.4494382
vt 0.5598437 0.1929653
vt 1 0.5583782
vt 0.55447 0.4899854
vt 0.9550563 0.8207133
vt 1 0.8788472
vt 1 0.4108452
vt 1 0.1924768
vt 0.6428921 0.0664387
vt 0.3346361 0.04543234
vt 0.7059112 0.2945775
vt 0.4665365 0.2926234
vt 0.0444553 0.0444553
vt 0.3287739 0.3287739
vt 1 0.4528579
vt 1 0.1387396
vt 0.7694188 0
vt 0.247191 0
vt 0.5583782 0.5583782
vt 0.8788472 0.8788472
vt 0.8612605 0
vt 0.5471422 0
vt 0.247191 0.247191
vt 0.7694188 0.7694188
vt 0.6590133 0.4201271
vt 0.6941867 0.370298
vt 0.9565219 0.2266732
vt 0.2212995 0.1665853
vt 0.3414754 0
vt 1 0.2256962
vt 1 0
vt 1 0
vt 0.2877382 0
vt 0.1822179 0.02638007
vt 1 0.6585248
vt 0.4333171 0.04982902
vt 0.9047387 0.6624329
vn 0.65449 0.6058738 -0.4522828
vn 0.65449 0.6058738 -0.4522828
vn 0.65449 0.6058738 -0.4522828
vn 0.65449 0.6279855 -0.4210429
vn 0.65449 0.6279855 -0.4210429
vn 0.65449 0.6279855 -0.4210429
vn 0.65449 0.6279855 -0.4210429
vn 0.65449 0.6279855 -0.4210429
vn 0.7797893 0.2815697 -0.5591486
vn 0.8461242 0.311052 -0.4328053
vn 0.8461242 0.311052 -0.4328053
vn 0.6987132 0.4068691 -0.5884364
vn 0.8461242 0.311052 -0.4328053
vn 0.5439317 0.3994985 -0.737929
vn 0.7871599 0.4289807 -0.4431195
vn 0.3965207 0.5469095 -0.737334
vn 0.5660434 0.701691 -0.4326946
vn 0.5218201 0.620615 -0.5852699
vn 0.3375564 0.5911328 -0.732542
vn 0.3375564 0.5911328 -0.732542
vn 0.278592 0.7606554 -0.586336
vn 0.3007036 0.6058738 -0.736542
vn 0.1385515 0.8048787 -0.5770388
vn 0.1532927 0.8859547 -0.4377049
vn 0.1532927 0.8859547 -0.4377049
vn 0.1532927 0.8859547 -0.4377049
vn 0.3449269 0.8269904 -0.4439734
vn 0.4481146 0.7753965 -0.4449198
vn -0.5616505 -0.3744091 0.737812
vn -0.7827671 -0.2859625 0.5527216
vn -0.6353561 -0.2343687 0.7357948
vn -0.701691 -0.4038913 0.5869425
vn -0.4068691 -0.5365612 0.7392967
vn -0.849102 -0.3080742 0.4290875
vn -0.849102 -0.3080742 0.4290875
vn -0.7606554 -0.4849674 0.4315206
vn -0.5174273 -0.6176372 0.5922779
vn -0.2078643 -0.6397489 0.7399417
vn -0.2741991 -0.7576777 0.5922325
vn -0.1194177 -0.6692311 0.7333957
vn -0.5616505 -0.6987132 0.4431123
vn -0.1194177 -0.6692311 0.7333957
vn -0.2520875 -0.8608654 0.4419986
vn -0.09730601 -0.6692311 0.7366555
vn -0.04571217 -0.8977181 0.4381925
vn -0.1562704 -0.8903475 0.4276223
vn -0.001488864 -0.8092715 0.587433
vn 0.1385515 -0.7871599 0.6009849
vn -0.04571217 -0.8977181 0.4381925
vn 0.1532927 -0.8903475 0.4286987
vn 0.3670385 0.06782383 -0.9277298
vn 0.3670385 0.06782383 -0.9277298
vn 0.3670385 0.06782383 -0.9277298
vn 0.3670385 0.06782383 -0.9277298
vn 0.3670385 0.06782383 -0.9277298
vn 0.3670385 0.06782383 -0.9277298
vn 0.3670385 0.06782383 -0.9277298
vn 0.3670385 0.06782383 -0.9277298
vn 0.3670385 0.06782383 -0.9277298
vn -0.7164321 -0.6176372 -0.3244215
vn -0.7164321 -0.6176372 -0.3244215
vn -0.7164321 -0.6176372 -0.3244215
vn -0.7164321 -0.6176372 -0.3244215
vn -0.7164321 -0.6176372 -0.3244215
vn -0.7164321 -0.6176372 -0.3244215
vn -0.7164321 -0.6176372 -0.3244215
vn -0.7164321 -0.6176372 -0.3244215
vn 0.6618605 0.620615 -0.4204494
vn 0.6618605 0.620615 -0.4204494
vn 0.6618605 0.620615 -0.4204494
vn 0.6618605 0.620615 -0.4204494
vn 0.6618605 0.620615 -0.4204494
vn 0.6618605 0.620615 -0.4204494
vn 0.6618605 0.620615 -0.4204494
vn 0.6618605 0.620615 -0.4204494
vn -0.9744012 0.1194177 -0.1904774
vn -0.9744012 0.1194177 -0.1904774
vn -0.9744012 0.1194177 -0.1904774
vn -0.9744012 0.1194177 -0.1904774
vn -0.9744012 0.1046766 -0.1989599
vn -0.9744012 0.1046766 -0.1989599
vn -0.9744012 0.1046766 -0.1989599
vn -0.9744012 0.1046766 -0.1989599
vn 0.1901424 0.9817565 0
vn 0.1901424 0.9817565 0
vn 0.1901424 0.9817565 0
vn 0.1901424 0.9817565 0
vn 0.1901424 0.9817565 0
vn 0.1901424 0.9817565 0
vn 0.1901424 0.9817565 0
vn 0.1901424 0.9817565 0
vn 0.1901424 0.9817565 0
vn -0.1562704 0.4658334 0.8709643
vn -0.1562704 0.4658334 0.8709643
vn -0.1562704 0.4658334 0.8709643
vn -0.1562704 0.4658334 0.8709643
vn -0.1562704 0.4658334 0.8709643
vn -0.1562704 0.4658334 0.8709643
g Bottiglia_cell.020_0
f 3/3/3 2/2/2 1/1/1
f 6/6/6 5/5/5 4/4/4
f 4/4/4 7/7/7 6/6/6
f 4/4/4 8/8/8 7/7/7
f 11/11/11 10/10/10 9/9/9
f 11/11/11 9/9/9 12/12/12
f 13/13/13 11/11/11 12/12/12
f 14/14/14 12/12/12 9/9/9
f 12/12/12 15/15/15 13/13/13
f 14/14/14 16/16/16 12/12/12
f 15/15/15 12/12/12 17/17/17
f 16/16/16 18/18/18 12/12/12
f 12/12/12 18/18/18 17/17/17
f 18/18/18 16/16/16 19/19/19
f 18/18/18 19/19/19 20/20/20
f 21/21/21 18/18/18 20/20/20
f 20/20/20 22/22/22 21/21/21
f 22/22/22 23/23/23 21/21/21
f 21/21/21 23/23/23 24/24/24
f 21/21/21 24/24/24 25/25/25
f 21/21/21 25/25/25 26/26/26
f 26/26/26 27/27/27 21/21/21
f 18/18/18 21/21/21 27/27/27
f 17/17/17 18/18/18 27/27/27
f 27/27/27 28/28/28 17/17/17
f 31/31/31 30/30/30 29/29/29
f 30/30/30 32/32/32 29/29/29
f 33/33/33 29/29/29 32/32/32
f 32/32/32 30/30/30 34/34/34
f 30/30/30 35/35/35 34/34/34
f 34/34/34 36/36/36 32/32/32
f 37/37/37 33/33/33 32/32/32
f 37/37/37 32/32/32 36/36/36
f 38/38/38 33/33/33 37/37/37
f 39/39/39 38/38/38 37/37/37
f 40/40/40 38/38/38 39/39/39
f 41/41/41 37/37/37 36/36/36
f 39/39/39 37/37/37 41/41/41
f 42/42/42 40/40/40 39/39/39
f 43/43/43 39/39/39 41/41/41
f 44/44/44 42/42/42 39/39/39
f 45/45/45 39/39/39 43/43/43
f 43/43/43 46/46/46 45/45/45
f 45/45/45 47/47/47 39/39/39
f 39/39/39 47/47/47 44/44/44
f 48/48/48 44/44/44 47/47/47
f 48/48/48 47/47/47 49/49/49
f 50/50/50 48/48/48 49/49/49
f 53/53/53 52/52/52 51/51/51
f 51/51/51 54/54/54 53/53/53
f 51/51/51 55/55/55 54/54/54
f 58/58/58 57/57/57 56/56/56
f 59/59/59 58/58/58 56/56/56
f 62/62/62 61/61/61 60/60/60
f 60/60/60 63/63/63 62/62/62
f 63/63/63 64/64/64 62/62/62
f 64/64/64 65/65/65 62/62/62
f 64/64/64 66/66/66 65/65/65
f 64/64/64 67/67/67 66/66/66
f 70/70/70 69/69/69 68/68/68
f 68/68/68 71/71/71 70/70/70
f 68/68/68 72/72/72 71/71/71
f 72/72/72 73/73/73 71/71/71
f 73/73/73 74/74/74 71/71/71
f 73/73/73 75/75/75 74/74/74
f 78/78/78 77/77/77 76/76/76
f 79/79/79 78/78/78 76/76/76
f 82/82/82 81/81/81 80/80/80
f 83/83/83 82/82/82 80/80/80
f 86/86/86 85/85/85 84/84/84
f 84/84/84 87/87/87 86/86/86
f 84/84/84 88/88/88 87/87/87
f 84/84/84 89/89/89 88/88/88
f 89/89/89 90/90/90 88/88/88
f 90/90/90 91/91/91 88/88/88
f 90/90/90 92/92/92 91/91/91
f 95/95/95 94/94/94 93/93/93
f 93/93/93 96/96/96 95/95/95
f 96/96/96 97/97/97 95/95/95
f 96/96/96 98/98/98 97/97/97
