g Bottiglia_cell.023
v 0.04978827 0.2847384 0.2032961
v -0.02100599 0.2566147 0.1823429
v 0.0536674 0.285571 0.1951166
v 0.1550637 0.2995301 -0.1011477
v 0.1331505 0.281829 -0.2189716
v 0.1685624 0.2624432 -0.1920527
v 0.0536674 0.285571 0.1951166
v 0.1442394 0.304281 0.004833132
v 0.1527323 0.3059267 -0.01293644
v 0.04978827 0.2847384 0.2032961
v 0.05230579 0.2685165 0.2099082
v 0.1717264 0.2537347 -0.01293644
v 0.05785021 0.2336631 0.2238575
v 0.04534096 0.139065 0.2498751
v 0.1685624 0.2624432 -0.1920527
v 0.1550637 0.2995301 -0.1011477
v 0.1717264 0.2537347 -0.1897801
v 0.1717264 0.06272632 -0.1934633
v 0.04534096 0.08501178 0.2498751
v 0.03261623 0.087255 0.2616007
v 0.1717264 0.06272632 -0.01293644
v 0.1063982 -0.116772 -0.01293644
v 0.162871 0.03840333 -0.2007612
v 0.1063982 -0.116772 -0.246341
v 0.02770853 -0.2105374 -0.3076628
v -0.0002388954 -0.2438529 -0.3293311
v -0.0163824 -0.2630919 -0.01293644
v -0.0163824 -0.2630919 -0.3222781
v -0.06428385 -0.2907454 -0.2963486
v -0.1108629 -0.3176349 -0.2708893
v -0.1134882 -0.3191532 -0.2509548
v -0.1427384 -0.3360412 -0.01293644
v -0.09887284 -0.1647812 0.2498751
v -0.1655137 -0.272437 0.1252823
v -0.1395646 -0.2271413 0.1798841
v -0.1367924 -0.2223315 0.1856538
v -0.1061707 -0.1697672 0.2484743
v -0.1024777 -0.1604906 0.2549591
v -0.08835214 -0.1097973 0.2750209
v -0.02994958 -0.03805289 0.2763042
v -0.004744977 -0.05259967 0.2498751
v 0.08115441 0.2778715 -0.03052971
v -0.02100599 0.2566147 0.1823429
v -0.01975214 0.2485135 0.1856441
v 0.09486854 0.2401871 -0.03052971
v -0.01537341 0.2207522 0.1967329
v -0.01824358 0.19927 0.20263
v 0.08647354 0.2618162 -0.2544813
v 0.08469069 0.2671745 -0.1814242
v 0.09438854 0.2401087 -0.2489369
v 0.09437875 0.1007732 -0.2515916
v 0.09437875 0.07636207 -0.2520226
v -0.01824358 0.09621817 0.20263
v -0.04237065 0.1004793 0.2250427
v 0.09486854 0.07627392 -0.03052971
v 0.08171278 0.04162616 -0.2622396
v 0.038288 -0.07745162 -0.2971714
v 0.03880715 -0.07774547 -0.03052971
v 0.01483685 -0.1053305 -0.3153524
v -0.03741398 -0.1676807 -0.2925478
v -0.06690913 -0.2028868 -0.2795488
v -0.06065941 -0.02032247 0.20263
v -0.08949825 0.00597924 0.2361512
v -0.09110475 -0.002739012 0.2347798
v -0.1134294 -0.08321154 0.20263
v -0.1014491 -0.03973776 0.2200567
v -0.130621 -0.1269596 0.1718124
v -0.06654668 -0.2033081 -0.03052971
v -0.119973 -0.2335967 -0.2505532
v -0.1243615 -0.2362122 -0.2171985
v -0.1472641 -0.2499165 -0.03052971
v -0.1678745 -0.1919058 0.0942688
v -0.1465784 -0.1545348 0.1390356
v -0.1443058 -0.1505675 0.143767
v 0.08469069 0.2671745 -0.1814242
v 0.08647354 0.2618162 -0.2544813
v 0.1331505 0.281829 -0.2189716
v 0.1550637 0.2995301 -0.1011477
v 0.1442394 0.304281 0.004833132
v 0.1527323 0.3059267 -0.01293644
v 0.1331505 0.281829 -0.2189716
v 0.08647354 0.2618162 -0.2544813
v 0.09438854 0.2401087 -0.2489369
v 0.09437875 0.1007732 -0.2515916
v 0.1685624 0.2624432 -0.1920527
v 0.162871 0.03840333 -0.2007612
v 0.1717264 0.2537347 -0.1897801
v 0.1717264 0.06272632 -0.1934633
v -0.1024777 -0.1604906 0.2549591
v -0.1061707 -0.1697672 0.2484743
v -0.1014491 -0.03973776 0.2200567
v -0.08835214 -0.1097973 0.2750209
v -0.09110475 -0.002739012 0.2347798
v -0.08949825 0.00597924 0.2361512
v 0.1063982 -0.116772 -0.246341
v 0.162871 0.03840333 -0.2007612
v 0.1331505 0.281829 -0.2189716
v 0.09437875 0.1007732 -0.2515916
v 0.09437875 0.07636207 -0.2520226
v 0.02770853 -0.2105374 -0.3076628
v 0.08171278 0.04162616 -0.2622396
v -0.1243615 -0.2362122 -0.2171985
v -0.1134882 -0.3191532 -0.2509548
v -0.1108629 -0.3176349 -0.2708893
v -0.119973 -0.2335967 -0.2505532
v -0.1655137 -0.272437 0.1252823
v -0.1678745 -0.1919058 0.0942688
v -0.1465784 -0.1545348 0.1390356
v -0.1395646 -0.2271413 0.1798841
v -0.0002388954 -0.2438529 -0.3293311
v 0.01483685 -0.1053305 -0.3153524
v -0.03741398 -0.1676807 -0.2925478
v -0.0163824 -0.2630919 -0.3222781
v -0.06428385 -0.2907454 -0.2963486
v 0.02770853 -0.2105374 -0.3076628
v 0.08171278 0.04162616 -0.2622396
v 0.038288 -0.07745162 -0.2971714
v 0.01483685 -0.1053305 -0.3153524
v -0.0002388954 -0.2438529 -0.3293311
v -0.1061707 -0.1697672 0.2484743
v -0.1367924 -0.2223315 0.1856538
v -0.1443058 -0.1505675 0.143767
v -0.130621 -0.1269596 0.1718124
v -0.1134294 -0.08321154 0.20263
v -0.1014491 -0.03973776 0.2200567
v -0.1678745 -0.1919058 0.0942688
v -0.1655137 -0.272437 0.1252823
v -0.1472641 -0.2499165 -0.03052971
v -0.1243615 -0.2362122 -0.2171985
v -0.1134882 -0.3191532 -0.2509548
v -0.1427384 -0.3360412 -0.01293644
v 0.08115441 0.2778715 -0.03052971
v 0.08469069 0.2671745 -0.1814242
v 0.1442394 0.304281 0.004833132
v -0.02100599 0.2566147 0.1823429
v 0.0536674 0.285571 0.1951166
v -0.1395646 -0.2271413 0.1798841
v -0.1465784 -0.1545348 0.1390356
v -0.1443058 -0.1505675 0.143767
v -0.1367924 -0.2223315 0.1856538
v 0.05230579 0.2685165 0.2099082
v -0.01975214 0.2485135 0.1856441
v -0.02100599 0.2566147 0.1823429
v 0.04978827 0.2847384 0.2032961
v -0.06428385 -0.2907454 -0.2963486
v -0.03741398 -0.1676807 -0.2925478
v -0.06690913 -0.2028868 -0.2795488
v -0.1108629 -0.3176349 -0.2708893
v -0.119973 -0.2335967 -0.2505532
v 0.05230579 0.2685165 0.2099082
v 0.05785021 0.2336631 0.2238575
v 0.04534096 0.139065 0.2498751
v -0.01975214 0.2485135 0.1856441
v 0.03261623 0.087255 0.2616007
v -0.01537341 0.2207522 0.1967329
v -0.02994958 -0.03805289 0.2763042
v -0.01824358 0.19927 0.20263
v -0.04237065 0.1004793 0.2250427
v -0.08835214 -0.1097973 0.2750209
v -0.08949825 0.00597924 0.2361512
vt 0.4811921 0.4811921
vt 0.7405961 0.7405961
vt 1 0.5295555
vt 1 0.2510992
vt 1 0
vt 0.5979483 0
vt 0.7962874 1
vt 0.7943333 1
vt 0.7938448 1
vt 0.7967759 1
vt 0.7904251 1
vt 0.7777236 1
vt 0.7777236 1
vt 0.7425501 1
vt 0.7806547 0.9662923
vt 0.7918907 0.9833905
vt 0.7777236 0.9667808
vt 0.7220323 0.9662923
vt 0.7220323 1
vt 0.7220323 1
vt 0.7220323 1
vt 0.6668296 1
vt 0.7147045 0.9648267
vt 0.6668296 0.9565219
vt 0.6311677 0.9447974
vt 0.6184661 0.9408892
vt 0.6111383 1
vt 0.6111383 0.9418663
vt 0.5950172 0.9467515
vt 0.5793845 0.9516367
vt 0.5784075 0.9555448
vt 0.5686371 1
vt 0.6111383 1
vt 0.5705912 1
vt 0.5857353 1
vt 0.5876894 1
vt 0.6077187 1
vt 0.6111383 1
vt 0.6292136 1
vt 0.6668296 1
vt 0.6668296 1
vt 0.7914022 1
vt 0.7938448 1
vt 0.7899366 1
vt 0.7777236 1
vt 0.7777236 1
vt 0.7684417 1
vt 0.7855399 0.9570104
vt 0.787494 0.9711775
vt 0.7777236 0.9584759
vt 0.7303371 0.9579874
vt 0.7220323 0.9574989
vt 0.7220323 1
vt 0.7220323 1
vt 0.7220323 1
vt 0.7098193 0.9555448
vt 0.6668296 0.9491941
vt 0.6668296 1
vt 0.6541281 0.9457744
vt 0.626771 0.9501711
vt 0.6111383 0.9526137
vt 0.6668296 1
vt 0.6712263 1
vt 0.6668296 1
vt 0.6297021 1
vt 0.6487544 1
vt 0.6111383 1
vt 0.6111383 1
vt 0.590132 0.9579874
vt 0.5886664 0.9643382
vt 0.5793845 1
vt 0.5832927 1
vt 0.5989254 1
vt 0.6003909 1
vt 1 0.1914998
vt 0.5842698 0
vt 0 0
vt 0.2608696 0.2608696
vt 1 0.5549585
vt 0.7655106 0.492428
vt 0 0
vt 0.5842698 0.5842698
vt 0.4494382 0.4113337
vt 0.2501222 0
vt 0.4020518 0
vt 0.3365902 0.3365902
vt 0.4377138 0.01025892
vt 0.4372253 0.2936004
vt 0.5163655 0.3698095
vt 0.4147533 0.3864192
vt 0.590132 0.590132
vt 1 0.3175379
vt 0.9438204 0.5515389
vt 1 0.5510504
vt 0.68979 0.2408403
vt 1 0.3365902
vt 1 0
vt 0.749878 0
vt 0.7376649 0.02149487
vt 0.319492 0
vt 0.6678066 0
vt 1 0.331705
vt 1 0.1983391
vt 0.7982414 0
vt 0.6624329 0
vt 0.2730826 0.2730826
vt 0.4030289 0.4030289
vt 1 0.4626283
vt 1 0.345872
vt 0.2867611 0.2867611
vt 0.4880313 0.4880313
vt 1 0.3981437
vt 0.4450416 0.259404
vt 1 0.2193454
vt 0.6805081 0
vt 0.3321935 0
vt 0.7318027 0.247191
vt 1 0.4880313
vt 1 0.2867611
vt 1 0.3913044
vt 0.6634099 0
vt 0.5446996 0
vt 0.6951637 0.1748901
vt 0.8778701 0.4108452
vt 1 0.590132
vt 1 0.4030289
vt 1 0.2730826
vt 0.7005374 0.3097216
vt 0.331705 0.331705
vt 0.1983391 0.1983391
vt 0.6692722 0.1704934
vt 0.6697607 0.1812409
vt 0.8085003 0
vt 0.4450416 0
vt 0.7650221 0.7650221
vt 0.5295555 0.5295555
vt 0.345872 0.345872
vt 0.4626283 0.4626283
vt 1 0.4553005
vt 1 0.3365902
vt 1 0.4596972
vt 1 0.2296043
vt 0.7405961 0
vt 0.4811921 0
vt 0.2193454 0.2193454
vt 0.3981437 0.3981437
vt 0.358085 0.2501222
vt 0.2017587 0
vt 0.3375672 0
vt 0.5403029 0
vt 0.5945287 0.1016121
vt 0.8143626 0.3566195
vt 0.7703958 0
vt 0.9506596 0.491451
vt 0.8138741 0.08109429
vt 0.6468003 0.27064
vt 0.8637031 0.1387396
vt 0.3468491 0.2198339
vt 0.6824622 0
vt 0.4489497 0
vn -0.3468562 0.9377916 -0.01541376
vn -0.3468562 0.9377916 -0.01541376
vn -0.3468562 0.9377916 -0.01541376
vn 0.5939752 0.7745069 -0.2175604
vn 0.5939752 0.7745069 -0.2175604
vn 0.5939752 0.7745069 -0.2175604
vn 0.8505657 0.3079788 0.4262477
vn 0.8505657 0.3079788 0.4262477
vn 0.9127694 0.3313052 0.2389329
vn 0.8505657 0.3079788 0.4262477
vn 0.8505657 0.3079788 0.4262477
vn 0.9594222 0.1680204 0.2264469
vn 0.889443 0.1213676 0.4406372
vn 0.8816675 -0.003039837 0.4718614
vn 0.9360958 0.3390808 -0.09353577
vn 0.9360958 0.3390808 -0.09353577
vn 0.9827486 0.1835714 -0.02251221
vn 0.9818838 -0.1894841 0
vn 0.7961374 -0.1429982 0.5879769
vn 0.656179 -0.1352227 0.7423907
vn 0.9594222 -0.1663246 0.2276954
vn 0.8427902 -0.4851187 0.233162
vn 0.9360958 -0.3451603 -0.06774265
vn 0.8427902 -0.5317715 -0.08320881
vn 0.7650355 -0.640628 -0.06569901
vn 0.7650355 -0.640628 -0.06569901
vn 0.6250771 -0.7494846 0.2180628
vn 0.6712758 -0.7412077 0
vn 0.5004625 -0.8657582 0
vn 0.5004625 -0.8657582 0
vn 0.5004625 -0.8657582 0
vn 0.4851187 -0.8427902 0.233162
vn 0.5006697 -0.6250771 0.5988393
vn 0.4540169 -0.7805864 0.4295969
vn 0.4540169 -0.7805864 0.4295969
vn 0.4540169 -0.7805864 0.4295969
vn 0.4151396 -0.75726 0.5041987
vn 0.4617923 -0.4928942 0.73743
vn 0.5162206 -0.438466 0.7357064
vn 0.5784243 -0.3373849 0.7426956
vn 0.6950563 -0.4073641 0.5924114
vn -0.9144652 -0.3296094 -0.2347573
vn -0.8444861 -0.306283 -0.4393564
vn -0.8444861 -0.306283 -0.4393564
vn -0.961118 -0.1663246 -0.2204274
vn -0.8911389 -0.1196718 -0.4376644
vn -0.8833633 -0.003039837 -0.468679
vn -0.9377916 -0.3451603 0.03756574
vn -0.9377916 -0.3451603 0.03756574
vn -0.9833587 -0.1816749 0
vn -0.9999953 -0.003039837 -0.0004206255
vn -0.9816291 0.1907996 0
vn -0.7978333 0.1369186 -0.5871247
vn -0.6578749 0.1369186 -0.7405767
vn -0.961118 0.1680204 -0.2191375
vn -0.9377916 0.3390808 0.07463954
vn -0.8444861 0.5334674 0.04749618
vn -0.8444861 0.4868146 -0.2232821
vn -0.7665563 0.6421772 0
vn -0.7665563 0.6421772 0
vn -0.6734257 0.7356295 0.07312369
vn -0.6967521 0.4012844 -0.5945649
vn -0.6423239 0.2302242 -0.7310382
vn -0.5956711 0.3079788 -0.7418389
vn -0.6656503 0.5567937 -0.4968807
vn -0.5179164 0.4401618 -0.7334986
vn -0.6345485 0.6345485 -0.4412442
vn -0.6267729 0.7434049 -0.2334627
vn -0.5009972 0.8654488 0
vn -0.5009972 0.8654488 0
vn -0.4868146 0.8444861 -0.2232821
vn -0.4479372 0.7822823 -0.4328818
vn -0.4479372 0.7822823 -0.4328818
vn -0.4479372 0.7822823 -0.4328818
vn -0.3390808 0.9377916 -0.07463958
vn -0.3390808 0.9377916 -0.07463958
vn -0.3390808 0.9377916 -0.07463958
vn -0.3390808 0.9377916 -0.07463958
vn -0.3390808 0.9377916 -0.07463958
vn -0.3390808 0.9377916 -0.07463958
vn 0.6017507 0.01251113 -0.798586
vn 0.6017507 0.01251113 -0.798586
vn 0.6017507 0.01251113 -0.798586
vn 0.6017507 0.01251113 -0.798586
vn 0.6095262 0.01251113 -0.7926672
vn 0.6095262 0.01251113 -0.7926672
vn 0.6095262 0.01251113 -0.7926672
vn 0.6095262 0.01251113 -0.7926672
vn -0.9222407 0.1135922 0.3695523
vn -0.9222407 0.1135922 0.3695523
vn -0.9222407 0.1135922 0.3695523
vn -0.9222407 0.1135922 0.3695523
vn -0.9222407 0.1135922 0.3695523
vn -0.9222407 0.1135922 0.3695523
vn 0.6017507 0.01251113 -0.798586
vn 0.6017507 0.01251113 -0.798586
vn 0.6017507 0.01251113 -0.798586
vn 0.6017507 0.01251113 -0.798586
vn 0.6017507 0.01251113 -0.798586
vn 0.6017507 0.01251113 -0.798586
vn 0.6017507 0.01251113 -0.798586
vn -0.9844444 -0.07301903 -0.1598041
vn -0.9844444 -0.07301903 -0.1598041
vn -0.9844444 -0.07301903 -0.1598041
vn -0.9844444 -0.07301903 -0.1598041
vn -0.9300161 0.1058167 0.3519558
vn -0.9300161 0.1058167 0.3519558
vn -0.9300161 0.1058167 0.3519558
vn -0.9300161 0.1058167 0.3519558
vn -0.5334674 0.144694 -0.8333524
vn -0.5334674 0.144694 -0.8333524
vn -0.5334674 0.144694 -0.8333524
vn -0.5334674 0.144694 -0.8333524
vn -0.5334674 0.144694 -0.8333524
vn 0.6017507 0.01251113 -0.798586
vn 0.6017507 0.01251113 -0.798586
vn 0.6017507 0.01251113 -0.798586
vn 0.6017507 0.01251113 -0.798586
vn 0.6017507 0.01251113 -0.798586
vn -0.9300161 0.1135922 0.3495237
vn -0.9300161 0.1135922 0.3495237
vn -0.9300161 0.1135922 0.3495237
vn -0.9300161 0.1135922 0.3495237
vn -0.9300161 0.1135922 0.3495237
vn -0.9300161 0.1135922 0.3495237
vn -0.9922199 -0.08079445 -0.09472047
vn -0.9922199 -0.08079445 -0.09472047
vn -0.9922199 -0.08079445 -0.09472047
vn -0.9922199 -0.08079445 -0.09472047
vn -0.9922199 -0.08079445 -0.09472047
vn -0.9922199 -0.08079445 -0.09472047
vn -0.3468562 0.9377916 -0.01541376
vn -0.3468562 0.9377916 -0.01541376
vn -0.3468562 0.9377916 -0.01541376
vn -0.3468562 0.9377916 -0.01541376
vn -0.3468562 0.9377916 -0.01541376
vn -0.9300161 0.1135922 0.3495237
vn -0.9300161 0.1135922 0.3495237
vn -0.9300161 0.1135922 0.3495237
vn -0.9300161 0.1135922 0.3495237
vn -0.377958 0.3002034 0.8758
vn -0.377958 0.3002034 0.8758
vn -0.377958 0.3002034 0.8758
vn -0.377958 0.3002034 0.8758
vn -0.5334674 0.144694 -0.8333524
vn -0.5334674 0.144694 -0.8333524
vn -0.5334674 0.144694 -0.8333524
vn -0.5334674 0.144694 -0.8333524
vn -0.5334674 0.144694 -0.8333524
vn -0.377958 0.292428 0.8784268
vn -0.377958 0.292428 0.8784268
vn -0.377958 0.292428 0.8784268
vn -0.377958 0.292428 0.8784268
vn -0.377958 0.292428 0.8784268
vn -0.377958 0.292428 0.8784268
vn -0.377958 0.292428 0.8784268
vn -0.377958 0.292428 0.8784268
vn -0.377958 0.292428 0.8784268
vn -0.377958 0.292428 0.8784268
vn -0.377958 0.292428 0.8784268
g Bottiglia_cell.023_0
f 3/3/3 2/2/2 1/1/1
f 6/6/6 5/5/5 4/4/4
f 9/9/9 8/8/8 7/7/7
f 9/9/9 7/7/7 10/10/10
f 9/9/9 10/10/10 11/11/11
f 12/12/12 9/9/9 11/11/11
f 11/11/11 13/13/13 12/12/12
f 12/12/12 13/13/13 14/14/14
f 15/15/15 9/9/9 12/12/12
f 15/15/15 16/16/16 9/9/9
f 12/12/12 17/17/17 15/15/15
f 17/17/17 12/12/12 18/18/18
f 12/12/12 14/14/14 19/19/19
f 14/14/14 20/20/20 19/19/19
f 12/12/12 21/21/21 18/18/18
f 19/19/19 21/21/21 12/12/12
f 21/21/21 19/19/19 22/22/22
f 23/23/23 18/18/18 21/21/21
f 23/23/23 21/21/21 22/22/22
f 22/22/22 24/24/24 23/23/23
f 25/25/25 24/24/24 22/22/22
f 26/26/26 25/25/25 22/22/22
f 26/26/26 22/22/22 27/27/27
f 27/27/27 28/28/28 26/26/26
f 29/29/29 28/28/28 27/27/27
f 27/27/27 30/30/30 29/29/29
f 27/27/27 31/31/31 30/30/30
f 27/27/27 32/32/32 31/31/31
f 32/32/32 27/27/27 33/33/33
f 33/33/33 34/34/34 32/32/32
f 33/33/33 35/35/35 34/34/34
f 33/33/33 36/36/36 35/35/35
f 33/33/33 37/37/37 36/36/36
f 37/37/37 33/33/33 38/38/38
f 39/39/39 38/38/38 33/33/33
f 40/40/40 39/39/39 33/33/33
f 22/22/22 41/41/41 27/27/27
f 41/41/41 33/33/33 27/27/27
f 33/33/33 41/41/41 40/40/40
f 19/19/19 41/41/41 22/22/22
f 20/20/20 40/40/40 41/41/41
f 19/19/19 20/20/20 41/41/41
f 44/44/44 43/43/43 42/42/42
f 44/44/44 42/42/42 45/45/45
f 45/45/45 46/46/46 44/44/44
f 47/47/47 46/46/46 45/45/45
f 45/45/45 42/42/42 48/48/48
f 42/42/42 49/49/49 48/48/48
f 48/48/48 50/50/50 45/45/45
f 45/45/45 50/50/50 51/51/51
f 45/45/45 51/51/51 52/52/52
f 53/53/53 47/47/47 45/45/45
f 54/54/54 47/47/47 53/53/53
f 52/52/52 55/55/55 45/45/45
f 45/45/45 55/55/55 53/53/53
f 55/55/55 52/52/52 56/56/56
f 55/55/55 56/56/56 57/57/57
f 57/57/57 58/58/58 55/55/55
f 53/53/53 55/55/55 58/58/58
f 58/58/58 57/57/57 59/59/59
f 58/58/58 59/59/59 60/60/60
f 58/58/58 60/60/60 61/61/61
f 54/54/54 53/53/53 62/62/62
f 62/62/62 53/53/53 58/58/58
f 62/62/62 63/63/63 54/54/54
f 62/62/62 64/64/64 63/63/63
f 64/64/64 62/62/62 65/65/65
f 65/65/65 62/62/62 58/58/58
f 66/66/66 64/64/64 65/65/65
f 67/67/67 65/65/65 58/58/58
f 61/61/61 68/68/68 58/58/58
f 58/58/58 68/68/68 67/67/67
f 68/68/68 61/61/61 69/69/69
f 69/69/69 70/70/70 68/68/68
f 70/70/70 71/71/71 68/68/68
f 68/68/68 71/71/71 72/72/72
f 72/72/72 67/67/67 68/68/68
f 72/72/72 73/73/73 67/67/67
f 73/73/73 74/74/74 67/67/67
f 77/77/77 76/76/76 75/75/75
f 75/75/75 78/78/78 77/77/77
f 75/75/75 79/79/79 78/78/78
f 79/79/79 80/80/80 78/78/78
f 83/83/83 82/82/82 81/81/81
f 84/84/84 83/83/83 81/81/81
f 86/86/86 81/81/81 85/85/85
f 86/86/86 85/85/85 87/87/87
f 87/87/87 88/88/88 86/86/86
f 91/91/91 90/90/90 89/89/89
f 89/89/89 92/92/92 91/91/91
f 92/92/92 93/93/93 91/91/91
f 92/92/92 94/94/94 93/93/93
f 97/97/97 96/96/96 95/95/95
f 95/95/95 98/98/98 97/97/97
f 95/95/95 99/99/99 98/98/98
f 95/95/95 100/100/100 99/99/99
f 100/100/100 101/101/101 99/99/99
f 104/104/104 103/103/103 102/102/102
f 105/105/105 104/104/104 102/102/102
f 108/108/108 107/107/107 106/106/106
f 109/109/109 108/108/108 106/106/106
f 112/112/112 111/111/111 110/110/110
f 110/110/110 113/113/113 112/112/112
f 113/113/113 114/114/114 112/112/112
f 117/117/117 116/116/116 115/115/115
f 115/115/115 118/118/118 117/117/117
f 115/115/115 119/119/119 118/118/118
f 122/122/122 121/121/121 120/120/120
f 120/120/120 123/123/123 122/122/122
f 120/120/120 124/124/124 123/123/123
f 120/120/120 125/125/125 124/124/124
f 128/128/128 127/127/127 126/126/126
f 127/127/127 128/128/128 129/129/129
f 127/127/127 129/129/129 130/130/130
f 130/130/130 131/131/131 127/127/127
f 134/134/134 133/133/133 132/132/132
f 132/132/132 135/135/135 134/134/134
f 135/135/135 136/136/136 134/134/134
f 139/139/139 138/138/138 137/137/137
f 140/140/140 139/139/139 137/137/137
f 143/143/143 142/142/142 141/141/141
f 144/144/144 143/143/143 141/141/141
f 147/147/147 146/146/146 145/145/145
f 145/145/145 148/148/148 147/147/147
f 148/148/148 149/149/149 147/147/147
f 152/152/152 151/151/151 150/150/150
f 150/150/150 153/153/153 152/152/152
f 153/153/153 154/154/154 152/152/152
f 153/153/153 155/155/155 154/154/154
f 156/156/156 154/154/154 155/155/155
f 155/155/155 157/157/157 156/156/156
f 157/157/157 158/158/158 156/156/156
f 158/158/158 159/159/159 156/156/156
f 158/158/158 160/160/160 159/159/159
