g Bottiglia_cell.017
v -0.07005528 0.1037201 -0.02803741
v -0.03852731 0.1219219 0.04587126
v -0.04734515 0.1359672 0.03868541
v -0.03852731 0.1219219 0.04587126
v -0.07533884 0.09617218 -0.04638708
v 0.05746929 0.009381026 0.04833454
v 0.01461941 -0.01103923 -0.04638708
v -0.07521644 0.09608549 -0.06386974
v -0.07507363 0.09596819 -0.08024063
v 0.03153089 -0.02152985 -0.03358106
v 0.03705925 -0.02085157 -0.02667062
v 0.08488669 -0.0145684 0.03384045
v -0.02268682 -0.08614128 -0.1397776
v 0.1183833 -0.1675928 -0.0287973
v 0.0970654 -0.1552815 -0.04568838
v -0.02268682 -0.08614128 -0.0287973
v 0.1492176 -0.1638443 0.01000832
v -0.1219882 0.03219825 -0.0287973
v -0.1210753 0.03111707 -0.1770022
v -0.1213558 0.03144346 -0.1400989
v 0.03384116 -0.01877588 0.1512926
v 0.1614932 -0.1301183 0.08350387
v 0.1829335 -0.1439086 0.06301223
v -0.03271335 0.05925865 0.1495841
v -0.07316625 0.101925 0.1421688
v -0.07125887 0.104633 0.1478246
v 0.08488669 -0.0145684 0.03384045
v 0.1829335 -0.1439086 0.06301223
v 0.1614932 -0.1301183 0.08350387
v 0.03384116 -0.01877588 0.1512926
v -0.03271335 0.05925865 0.1495841
v 0.05746929 0.009381026 0.04833454
v -0.03852731 0.1219219 0.04587126
v -0.07125887 0.104633 0.1478246
v -0.04734515 0.1359672 0.03868541
v -0.03852731 0.1219219 0.04587126
v -0.03271335 0.05925865 0.1495841
v 0.01461941 -0.01103923 -0.04638708
v -0.07507363 0.09596819 -0.08024063
v -0.1210753 0.03111707 -0.1770022
v 0.03153089 -0.02152985 -0.03358106
v -0.02268682 -0.08614128 -0.1397776
v 0.03705925 -0.02085157 -0.02667062
v 0.0970654 -0.1552815 -0.04568838
v 0.0970654 -0.1552815 -0.04568838
v 0.1183833 -0.1675928 -0.0287973
v 0.1492176 -0.1638443 0.01000832
v 0.1829335 -0.1439086 0.06301223
v 0.03705925 -0.02085157 -0.02667062
v 0.08488669 -0.0145684 0.03384045
v -0.1210753 0.03111707 -0.1770022
v -0.07507363 0.09596819 -0.08024063
v -0.07521644 0.09608549 -0.06386974
v -0.1213558 0.03144346 -0.1400989
v -0.1219882 0.03219825 -0.0287973
v -0.1213558 0.03144346 -0.1400989
v -0.07521644 0.09608549 -0.06386974
v -0.07533884 0.09617218 -0.04638708
v -0.07316625 0.101925 0.1421688
v -0.07005528 0.1037201 -0.02803741
v -0.07125887 0.104633 0.1478246
v -0.04734515 0.1359672 0.03868541
vt 0.3333333 1
vt 0.3333333 1
vt 0.3274682 1
vt 0.3343109 1
vt 0.3343109 1
vt 0.3890518 1
vt 0.3822092 1
vt 0.3343109 0.9970675
vt 0.3343109 0.9931574
vt 0.3890518 1
vt 0.3900293 1
vt 0.4027371 1
vt 0.3890518 0.9794722
vt 0.4359726 1
vt 0.42913 0.9970675
vt 0.3890518 1
vt 0.4447703 1
vt 0.344086 1
vt 0.344086 0.9726295
vt 0.344086 0.9794722
vt 0.3890518 1
vt 0.4447703 1
vt 0.4525904 1
vt 0.3528837 1
vt 0.3333333 1
vt 0.3333333 1
vt 0.5474096 0.5474096
vt 0.9833822 0.9833822
vt 0.9442815 0.8836755
vt 0.5982405 0.2991202
vt 0.340176 0
vt 0.4731183 0.4222874
vt 0.1085044 0
vt 0.57087 0.5630499
vt 0.8797654 0.8797654
vt 0.9765396 0.8856305
vt 1 0.6598241
vt 0.941349 0.3470186
vt 0.8035191 0
vt 0.5591398 0
vt 0.9804497 0.3978495
vt 0.7096774 0.3802541
vt 1 0.4086021
vt 1 0.7341154
vt 0.2658847 0
vt 0.3587488 0.1710655
vt 0.6207234 0.5229716
vt 1 0.9833822
vt 0.5913978 0
vt 1 0.5474096
vt 0.5591398 0.5591398
vt 0.8035191 0.8035191
vt 1 0.8338221
vt 1 0.6256109
vt 0.7047898 0.4652981
vt 0.6256109 0.6256109
vt 0.8338221 0.8338221
vt 0.8455523 0.8084067
vt 0.9892473 0.5571848
vt 0.8768328 0.8181818
vt 1 0.5630499
vt 1 0.8797654
vn 0.7013288 0.5621635 -0.4383038
vn 0.7611784 0.4690641 -0.4478687
vn 0.8476278 0.3094651 -0.4309971
vn 0.7611784 0.4690641 -0.4478687
vn 0.7478784 0.6220132 -0.2318995
vn 0.5949293 0.6685629 -0.4461869
vn 0.7013288 0.5887634 -0.4018652
vn 0.7671853 0.6414254 0
vn 0.7671853 0.6414254 0
vn 0.654779 0.6153632 -0.4388537
vn 0.4486303 0.7816122 -0.4333743
vn 0.4486303 0.7816122 -0.4333743
vn -0.6818628 -0.7279286 -0.07199375
vn -0.4690641 -0.814378 0.3417123
vn -0.5010602 -0.8654124 0
vn -0.6286631 -0.7478784 0.2132149
vn -0.4158645 -0.8010781 0.4305004
vn -0.7417125 -0.6281792 0.2350608
vn -0.767622 -0.6409028 0
vn -0.767622 -0.6409028 0
vn -0.5954133 -0.6747289 0.4361466
vn -0.3693147 -0.821028 0.4353386
vn -0.1565161 -0.8875276 0.4333561
vn -0.6885128 -0.5816295 0.4331943
vn -0.6885128 -0.5816295 0.4331943
vn -0.6885128 -0.5816295 0.4331943
vn 0.7146286 0.6153632 0.3326169
vn 0.7146286 0.6153632 0.3326169
vn 0.7146286 0.6153632 0.3326169
vn 0.7146286 0.6153632 0.3326169
vn 0.7146286 0.6153632 0.3326169
vn 0.7146286 0.6153632 0.3326169
vn 0.7146286 0.6153632 0.3326169
vn 0.7146286 0.6153632 0.3326169
vn 0.7146286 0.6153632 0.3326169
vn 0.7146286 0.6153632 0.3326169
vn 0.7146286 0.6153632 0.3326169
vn 0.6946788 0.3959146 -0.6005606
vn 0.6946788 0.3959146 -0.6005606
vn 0.6946788 0.3959146 -0.6005606
vn 0.6946788 0.3959146 -0.6005606
vn 0.6946788 0.3959146 -0.6005606
vn 0.6946788 0.3959146 -0.6005606
vn 0.6946788 0.3959146 -0.6005606
vn 0.7013288 0.3959146 -0.5927812
vn 0.7013288 0.3959146 -0.5927812
vn 0.7013288 0.3959146 -0.5927812
vn 0.7013288 0.3959146 -0.5927812
vn 0.7013288 0.3959146 -0.5927812
vn 0.7013288 0.3959146 -0.5927812
vn -0.808212 0.5887634 -0.01228855
vn -0.808212 0.5887634 -0.01228855
vn -0.808212 0.5887634 -0.01228855
vn -0.808212 0.5887634 -0.01228855
vn -0.808212 0.5887634 -0.01228855
vn -0.808212 0.5887634 -0.01228855
vn -0.808212 0.5887634 -0.01228855
vn -0.808212 0.5887634 -0.01228855
vn -0.808212 0.5887634 -0.01228855
vn -0.808212 0.5887634 -0.01228855
vn -0.808212 0.5887634 -0.01228855
vn -0.808212 0.5887634 -0.01228855
g Bottiglia_cell.017_0
f 3/3/3 2/2/2 1/1/1
f 5/5/5 1/1/1 4/4/4
f 5/5/5 4/4/4 6/6/6
f 7/7/7 5/5/5 6/6/6
f 8/8/8 5/5/5 7/7/7
f 9/9/9 8/8/8 7/7/7
f 6/6/6 10/10/10 7/7/7
f 11/11/11 10/10/10 6/6/6
f 12/12/12 11/11/11 6/6/6
f 15/15/15 14/14/14 13/13/13
f 14/14/14 16/16/16 13/13/13
f 16/16/16 14/14/14 17/17/17
f 13/13/13 16/16/16 18/18/18
f 18/18/18 19/19/19 13/13/13
f 18/18/18 20/20/20 19/19/19
f 17/17/17 21/21/21 16/16/16
f 18/18/18 16/16/16 21/21/21
f 17/17/17 22/22/22 21/21/21
f 23/23/23 22/22/22 17/17/17
f 21/21/21 24/24/24 18/18/18
f 24/24/24 25/25/25 18/18/18
f 24/24/24 26/26/26 25/25/25
f 29/29/29 28/28/28 27/27/27
f 27/27/27 30/30/30 29/29/29
f 27/27/27 31/31/31 30/30/30
f 27/27/27 32/32/32 31/31/31
f 32/32/32 33/33/33 31/31/31
f 36/36/36 35/35/35 34/34/34
f 37/37/37 36/36/36 34/34/34
f 40/40/40 39/39/39 38/38/38
f 40/40/40 38/38/38 41/41/41
f 41/41/41 42/42/42 40/40/40
f 42/42/42 41/41/41 43/43/43
f 43/43/43 44/44/44 42/42/42
f 47/47/47 46/46/46 45/45/45
f 45/45/45 48/48/48 47/47/47
f 45/45/45 49/49/49 48/48/48
f 49/49/49 50/50/50 48/48/48
f 53/53/53 52/52/52 51/51/51
f 54/54/54 53/53/53 51/51/51
f 57/57/57 56/56/56 55/55/55
f 55/55/55 58/58/58 57/57/57
f 55/55/55 59/59/59 58/58/58
f 59/59/59 60/60/60 58/58/58
f 59/59/59 61/61/61 60/60/60
f 61/61/61 62/62/62 60/60/60
