g Bottiglia_cell.039
v 0.2194982 0.2208198 0.03596747
v 0.2194982 0.1261266 0.2299004
v 0.07421997 0.06644809 0.2987739
v 0.03139472 0.1876594 0.03596747
v -0.05153799 -0.006159306 0.2987739
v 0.2194982 0.2208198 -0.3782769
v 0.02753383 0.1854241 -0.4840828
v 0.05401388 0.0167647 0.3291276
v 0.02449846 0.006452084 0.3237554
v 0.0159893 0.003607213 0.322117
v -0.04887092 -0.009334356 0.3025332
v -0.0564276 -0.01200143 0.2987739
v -0.1340262 0.09215343 0.03596747
v -0.09964657 -0.03754163 0.2640768
v -0.2568123 -0.05417898 0.03596747
v -0.1915964 -0.09182253 0.1901613
v -0.2784281 -0.174895 0.07958019
v -0.3007552 -0.174933 0.03596747
v -0.1340262 0.09215343 -0.401112
v -0.1017929 0.1107593 -0.4269951
v 0.02753383 0.1854241 -0.4840828
v -0.006706059 0.1656625 -0.503184
v -0.2568123 -0.05417898 -0.2726616
v -0.319196 -0.2255817 -0.1275611
v -0.3221424 -0.2336718 -0.1539776
v -0.3221424 -0.2370881 -0.1627027
v 0.1602007 -0.02542558 0.2907601
v 0.2194982 -0.01699263 0.2926143
v 0.2194982 0.02792817 0.2515417
v 0.09735987 0.006388545 0.2515417
v 0.1550317 -0.02611139 0.2905568
v 0.1100474 -0.02846095 0.285464
v 0.04807016 -0.04088181 0.2666677
v -0.001816452 -0.05087692 0.2515417
v 0.2194982 0.1427894 0.0183776
v -0.01143056 -0.05396307 0.2471347
v 0.05807796 0.1143154 0.0183776
v 0.2194982 0.1418876 -0.3805884
v 0.08605662 0.118189 -0.4541228
v 0.05845895 0.1132867 -0.4692235
v -0.08387285 0.03236061 0.0183776
v -0.1332133 -0.1255291 0.1496602
v -0.08325052 0.03163666 -0.4062556
v 0.02132341 0.09179783 -0.4899376
v -0.1613444 -0.06115142 -0.3247453
v -0.1892215 -0.09319419 0.0183776
v -0.2368855 -0.2241338 0.0183776
v -0.1886119 -0.09354979 -0.2962586
v -0.2402893 -0.2335829 0.006096482
v -0.2451661 -0.2472483 -0.03780833
v -0.2447978 -0.2473118 -0.2031276
v -0.2452804 -0.3034597 -0.1806228
v -0.2450392 -0.270058 -0.0950357
v -0.08325052 0.03163666 -0.4062556
v 0.02132341 0.09179783 -0.4899376
v -0.006706059 0.1656625 -0.503184
v -0.1017929 0.1107593 -0.4269951
v -0.1613444 -0.06115142 -0.3247453
v 0.2901371 0.1295176 -0.3424114
v 0.2194982 0.1418876 -0.3805884
v 0.2194982 0.1427894 0.0183776
v 0.2689277 0.1339627 -0.0307343
v 0.265524 0.1346739 0.0183776
v 0.2194982 0.02792817 0.2515417
v 0.2477055 0.0229497 0.2515417
v 0.2194982 -0.01699263 0.2926143
v 0.2445305 -0.01727203 0.2888423
v -0.2368855 -0.2241338 0.0183776
v -0.2402893 -0.2335829 0.006096482
v -0.2784281 -0.174895 0.07958019
v -0.1332133 -0.1255291 0.1496602
v -0.1915964 -0.09182253 0.1901613
v -0.01143056 -0.05396307 0.2471347
v -0.09964657 -0.03754163 0.2640768
v -0.001816452 -0.05087692 0.2515417
v 0.04807016 -0.04088181 0.2666677
v 0.263746 0.2023663 0.05779922
v 0.2511854 0.1242089 0.2223819
v 0.2194982 0.1261266 0.2299004
v 0.2653716 0.2127424 0.03596747
v 0.2194982 0.2208198 0.03596747
v 0.2194982 0.2208198 -0.3782769
v 0.2909372 0.2082338 -0.3396554
v -0.2450392 -0.270058 -0.0950357
v -0.319196 -0.2255817 -0.1275611
v -0.3007552 -0.174933 0.03596747
v -0.2451661 -0.2472483 -0.03780833
v -0.2402893 -0.2335829 0.006096482
v -0.2784281 -0.174895 0.07958019
v -0.1613444 -0.06115142 -0.3247453
v -0.1017929 0.1107593 -0.4269951
v -0.1340262 0.09215343 -0.401112
v -0.2568123 -0.05417898 -0.2726616
v -0.1886119 -0.09354979 -0.2962586
v -0.2447978 -0.2473118 -0.2031276
v -0.2452804 -0.3034597 -0.1806228
v -0.3221424 -0.2370881 -0.1627027
v 0.04807016 -0.04088181 0.2666677
v -0.09964657 -0.03754163 0.2640768
v -0.0564276 -0.01200143 0.2987739
v 0.1100474 -0.02846095 0.285464
v 0.1550317 -0.02611139 0.2905568
v 0.0159893 0.003607213 0.322117
v -0.04887092 -0.009334356 0.3025332
v 0.2194982 0.1261266 0.2299004
v 0.2511854 0.1242089 0.2223819
v 0.2442765 -0.01350003 0.2933763
v 0.05401388 0.0167647 0.3291276
v 0.07421997 0.06644809 0.2987739
v 0.2442765 -0.01350003 0.2933763
v 0.2445305 -0.01727203 0.2888423
v 0.2194982 -0.01699263 0.2926143
v 0.05401388 0.0167647 0.3291276
v 0.1602007 -0.02542558 0.2907601
v 0.02449846 0.006452084 0.3237554
v 0.02449846 0.006452084 0.3237554
v 0.1602007 -0.02542558 0.2907601
v 0.1550317 -0.02611139 0.2905568
v 0.0159893 0.003607213 0.322117
v 0.2901371 0.1295176 -0.3424114
v 0.2909372 0.2082338 -0.3396554
v 0.2194982 0.2208198 -0.3782769
v 0.2194982 0.1418876 -0.3805884
v 0.08605662 0.118189 -0.4541228
v 0.02753383 0.1854241 -0.4840828
v 0.05845895 0.1132867 -0.4692235
v 0.08605662 0.118189 -0.4541228
v 0.02753383 0.1854241 -0.4840828
v 0.02132341 0.09179783 -0.4899376
v -0.006706059 0.1656625 -0.503184
v 0.2909372 0.2082338 -0.3396554
v 0.2901371 0.1295176 -0.3424114
v 0.2689277 0.1339627 -0.0307343
v 0.263746 0.2023663 0.05779922
v 0.2653716 0.2127424 0.03596747
v -0.2450392 -0.270058 -0.0950357
v -0.2452804 -0.3034597 -0.1806228
v -0.3221424 -0.2370881 -0.1627027
v -0.3221424 -0.2336718 -0.1539776
v -0.319196 -0.2255817 -0.1275611
v 0.263746 0.2023663 0.05779922
v 0.2689277 0.1339627 -0.0307343
v 0.265524 0.1346739 0.0183776
v 0.2511854 0.1242089 0.2223819
v 0.2477055 0.0229497 0.2515417
v 0.2442765 -0.01350003 0.2933763
v 0.2445305 -0.01727203 0.2888423
vt -1.862645E-07 1
vt -1.862645E-07 1
vt 0.05569108 1
vt 0.05569108 1
vt 0.1108938 1
vt -1.862645E-07 0.9223254
vt 0.05569108 0.9032731
vt 0.07132372 1
vt 0.08353671 1
vt 0.08744488 1
vt 0.1108938 1
vt 0.1138249 1
vt 0.1108938 1
vt 0.1319002 1
vt 0.1665851 1
vt 0.1665851 1
vt 0.2022471 1
vt 0.2042011 1
vt 0.1108938 0.9179287
vt 0.1001464 0.913532
vt 0.05666812 0.9027846
vt 0.0683926 0.8988764
vt 0.1665851 0.9423547
vt 0.2198338 0.9692233
vt 0.2222764 0.9643381
vt 0.2222764 0.962384
vt 0.03077657 1
vt -1.862645E-07 1
vt -1.862645E-07 1
vt 0.05569108 1
vt 0.03321917 1
vt 0.05569108 1
vt 0.08549079 1
vt 0.1069857 1
vt -1.862645E-07 1
vt 0.1108938 1
vt 0.05569108 1
vt -1.862645E-07 0.9237909
vt 0.04592068 0.9096239
vt 0.05569108 0.9066927
vt 0.1108938 1
vt 0.1665851 1
vt 0.1108938 0.9189057
vt 0.07034668 0.9027846
vt 0.152418 0.9345384
vt 0.1665851 1
vt 0.2139715 1
vt 0.1665851 0.9399121
vt 0.2173912 0.9975575
vt 0.2222764 0.9892526
vt 0.2222764 0.9574988
vt 0.2408401 0.9618955
vt 0.2300927 0.9785052
vt 0.7679531 0.5769418
vt 0.5456765 0.5456765
vt 0.7332682 0.7332682
vt 1 0.7215437
vt 1 0.422081
vt 0.9755741 0.9311187
vt 1 0.9237909
vt 1 1
vt 0.9829019 0.9907182
vt 0.9843674 1
vt 1 1
vt 0.9872985 1
vt 1 1
vt 0.98681 1
vt 0.7376649 0.01563245
vt 0.7581827 -1.862645E-07
vt 0.5383487 -1.862645E-07
vt 0.629702 0.2916462
vt 0.446507 0.2315582
vt 0.6238397 0.568637
vt 0.4411333 0.4411333
vt 0.6301905 0.5876893
vt 0.680508 0.680508
vt 0.9863215 1
vt 0.9887641 1
vt 1 1
vt 0.9863215 1
vt 1 1
vt 1 0.9223254
vt 0.9789937 0.9296532
vt 0.2677087 0.2677087
vt 0.6936981 0.6936981
vt 0.5896434 0.2105519
vt 0.2691743 0.1294576
vt 0.2418172 -1.862645E-07
vt 0.4616511 -1.862645E-07
vt 0.422081 0.422081
vt 0.7215437 0.7215437
vt 0.6893014 0.6101612
vt 0.4338055 0.1338543
vt 0.3659012 0.3165607
vt 0.09770379 0.03956993
vt -1.862645E-07 -1.862645E-07
vt 0.6038104 0.007327612
vt 1 0.680508
vt 1 0.4411333
vt 0.6736687 0.409868
vt 0.8295066 0.728383
vt 0.7884709 0.7884709
vt 0.4611626 0.4611626
vt 0.6384953 0.4113336
vt 0.9242795 0.4728871
vt 1 0.4841231
vt 1 -1.862645E-07
vt 0.544211 -1.862645E-07
vt 0.5862237 0.1841718
vt 1 1
vt 1 0.8480704
vt 0.9404007 0.7059111
vt 0.544211 0.544211
vt 0.7972643 -1.862645E-07
vt 0.4728871 -1.862645E-07
vt 1 0.5271128
vt 1 0.2027356
vt 0.7884709 -1.862645E-07
vt 0.4611626 -1.862645E-07
vt 0.6316561 0.6316561
vt 0.8358574 0.8358574
vt 0.8690767 0.6575476
vt 0.6638983 0.4548118
vt 0.6033219 -1.862645E-07
vt 0.7840742 0.01709801
vt 0.8348804 0.2403516
vt 1 0.396678
vt 1 0.2212993
vt 0.5456765 -1.862645E-07
vt 0.7332682 -1.862645E-07
vt 1 0.8358574
vt 1 0.6316561
vt 0.3566194 -1.862645E-07
vt 0.1787981 -1.862645E-07
vt 0.224719 0.07278928
vt 0.2677087 -1.862645E-07
vt 0.9907182 0.9907182
vt 1 0.3961895
vt 0.9252565 0.2940888
vt 0.6936981 -1.862645E-07
vt 0.1787981 0.1787981
vt 0.3566194 0.3566194
vt 0.3790913 0.2852955
vt 0.5158768 -1.862645E-07
vt 0.8602834 0.03321917
vt -1.862645E-07 -1.862645E-07
vt 0.01709801 -1.862645E-07
vn -0.003084421 0.9748098 0.2230165
vn -0.03443038 0.8964448 0.4418159
vn -0.3400537 0.7867339 0.5151828
vn -0.3322172 0.9199543 0.2081245
vn -0.520293 0.614331 0.5932054
vn -0.05793989 0.9983191 -0.001359317
vn -0.3944619 0.9189124 0
vn -0.3400537 0.5908215 0.7316375
vn -0.3400537 0.5908215 0.7316375
vn -0.3400537 0.5908215 0.7316375
vn -0.4027456 0.5438025 0.7362573
vn -0.6613499 0.5516391 0.5082427
vn -0.6300039 0.7475514 0.2103851
vn -0.692696 0.582985 0.4246184
vn -0.8415893 0.488947 0.2294738
vn -0.7397149 0.5124565 0.436131
vn -0.8494258 0.3087077 0.4279899
vn -0.9199543 0.3322172 0.2081245
vn -0.5891846 0.8079985 0
vn -0.4967836 0.8650988 -0.06935441
vn -0.3944619 0.9189124 0
vn -0.4967836 0.8650988 -0.06935441
vn -0.8337529 0.5516391 -0.02346165
vn -0.9407581 0.3390785 0
vn -0.9407581 0.3390785 0
vn -0.9407581 0.3390785 0
vn 0.114463 -0.6708541 -0.7327026
vn 0.0047521 -0.6786906 -0.7344089
vn -0.003084421 -0.8040745 -0.5945205
vn 0.2790294 -0.7570555 -0.5907703
vn 0.114463 -0.6708541 -0.7327026
vn 0.2085009 -0.6395081 -0.7399707
vn 0.3417214 -0.5924892 -0.7295088
vn 0.4357593 -0.7570555 -0.4868067
vn -0.003084421 -0.9764774 -0.2155977
vn 0.5297972 -0.7257096 -0.4389312
vn 0.3338848 -0.9137855 -0.2313375
vn 0.05170248 -0.9986625 0
vn 0.1771321 -0.9841871 0
vn 0.388642 -0.9213889 0
vn 0.6238351 -0.7492191 -0.2224871
vn 0.7335461 -0.5141242 -0.4445069
vn 0.5924892 -0.8040745 0.04920085
vn 0.4984512 -0.8667665 0.0161963
vn 0.764892 -0.6395081 0.0772627
vn 0.843257 -0.4906148 -0.2195786
vn 0.9294584 -0.3417214 -0.1390451
vn 0.8337231 -0.5521825 0
vn 0.937295 -0.3417214 0.06859048
vn 0.9529679 -0.3025389 0.0179543
vn 0.9746458 -0.2237534 0
vn 0.9999869 -0.0047521 0.00190882
vn 0.9999869 -0.0047521 0.00190882
vn -0.4732741 -0.3260484 -0.8183545
vn -0.4732741 -0.3260484 -0.8183545
vn -0.4732741 -0.3260484 -0.8183545
vn -0.4732741 -0.3260484 -0.8183545
vn -0.4732741 -0.3260484 -0.8183545
vn -0.1754873 -0.9843139 0.01817495
vn 0.05170248 -0.9986625 0
vn -0.003084421 -0.9764774 -0.2155977
vn -0.1754873 -0.9843139 0.01817495
vn -0.1676508 -0.9608044 -0.2207897
vn -0.003084421 -0.8040745 -0.5945205
vn -0.1363049 -0.7884015 -0.59987
vn 0.0047521 -0.6786906 -0.7344089
vn -0.1206318 -0.6708541 -0.7317122
vn -0.02659392 -0.7884015 0.6145859
vn -0.02659392 -0.7884015 0.6145859
vn -0.02659392 -0.7884015 0.6145859
vn -0.02659392 -0.7884015 0.6145859
vn -0.02659392 -0.7884015 0.6145859
vn -0.02659392 -0.7884015 0.6145859
vn -0.02659392 -0.7884015 0.6145859
vn -0.02659392 -0.7884015 0.6145859
vn -0.02659392 -0.7884015 0.6145859
vn 0.1536455 0.8886083 0.4321671
vn 0.1536455 0.8886083 0.4321671
vn -0.03443038 0.8964448 0.4418159
vn 0.1693185 0.9591367 0.2266891
vn -0.003084421 0.9748098 0.2230165
vn -0.05793989 0.9983191 -0.001359317
vn 0.177155 0.9826462 -0.05497719
vn -0.582985 -0.7570555 0.2949499
vn -0.582985 -0.7570555 0.2949499
vn -0.582985 -0.7570555 0.2949499
vn -0.582985 -0.7570555 0.2949499
vn -0.582985 -0.7570555 0.2949499
vn -0.582985 -0.7570555 0.2949499
vn -0.4732741 -0.3260484 -0.8183545
vn -0.4732741 -0.3260484 -0.8183545
vn -0.4732741 -0.3260484 -0.8183545
vn -0.4732741 -0.3260484 -0.8183545
vn -0.4732741 -0.3260484 -0.8183545
vn -0.4732741 -0.3260484 -0.8183545
vn -0.4732741 -0.3260484 -0.8183545
vn -0.4732741 -0.3260484 -0.8183545
vn -0.02659392 -0.7884015 0.6145859
vn -0.02659392 -0.7884015 0.6145859
vn -0.02659392 -0.7884015 0.6145859
vn -0.02659392 -0.7884015 0.6145859
vn -0.02659392 -0.7884015 0.6145859
vn -0.02659392 -0.7884015 0.6145859
vn -0.02659392 -0.7884015 0.6145859
vn 0.2320104 0.4340916 0.8704801
vn 0.2320104 0.4340916 0.8704801
vn 0.2320104 0.4340916 0.8704801
vn 0.2320104 0.4340916 0.8704801
vn 0.2320104 0.4340916 0.8704801
vn 0.05960757 -0.5924892 0.8033701
vn 0.05960757 -0.5924892 0.8033701
vn 0.05960757 -0.5924892 0.8033701
vn 0.05960757 -0.5924892 0.8033701
vn 0.05960757 -0.5924892 0.8033701
vn 0.05960757 -0.5924892 0.8033701
vn 0.05177104 -0.6081622 0.7921228
vn 0.05177104 -0.6081622 0.7921228
vn 0.05177104 -0.6081622 0.7921228
vn 0.05177104 -0.6081622 0.7921228
vn 0.4827783 0.02659392 -0.8753387
vn 0.4827783 0.02659392 -0.8753387
vn 0.4827783 0.02659392 -0.8753387
vn 0.4827783 0.02659392 -0.8753387
vn 0.4827783 0.02659392 -0.8753387
vn 0.4827783 0.02659392 -0.8753387
vn 0.4749417 0.02659392 -0.8796153
vn 0.4749417 0.02659392 -0.8796153
vn 0.4749417 0.02659392 -0.8796153
vn 0.4749417 0.02659392 -0.8796153
vn 0.4749417 0.02659392 -0.8796153
vn 0.9999208 -0.01258773 0
vn 0.9999208 -0.01258773 0
vn 0.9999208 -0.01258773 0
vn 0.9999208 -0.01258773 0
vn 0.9999208 -0.01258773 0
vn -0.582985 -0.7570555 0.2949499
vn -0.582985 -0.7570555 0.2949499
vn -0.582985 -0.7570555 0.2949499
vn -0.582985 -0.7570555 0.2949499
vn -0.582985 -0.7570555 0.2949499
vn 0.9999208 -0.01258773 0
vn 0.9999208 -0.01258773 0
vn 0.9999208 -0.01258773 0
vn 0.9999208 -0.01258773 0
vn 0.9999208 -0.01258773 0
vn 0.9999208 -0.01258773 0
vn 0.9999208 -0.01258773 0
g Bottiglia_cell.039_0
f 3/3/3 2/2/2 1/1/1
f 4/4/4 3/3/3 1/1/1
f 5/5/5 3/3/3 4/4/4
f 4/4/4 1/1/1 6/6/6
f 7/7/7 4/4/4 6/6/6
f 8/8/8 3/3/3 5/5/5
f 5/5/5 9/9/9 8/8/8
f 5/5/5 10/10/10 9/9/9
f 5/5/5 11/11/11 10/10/10
f 12/12/12 11/11/11 5/5/5
f 12/12/12 5/5/5 13/13/13
f 13/13/13 5/5/5 4/4/4
f 14/14/14 12/12/12 13/13/13
f 14/14/14 13/13/13 15/15/15
f 15/15/15 16/16/16 14/14/14
f 17/17/17 16/16/16 15/15/15
f 18/18/18 17/17/17 15/15/15
f 19/19/19 13/13/13 4/4/4
f 15/15/15 13/13/13 19/19/19
f 20/20/20 19/19/19 4/4/4
f 20/20/20 4/4/4 21/21/21
f 21/21/21 22/22/22 20/20/20
f 23/23/23 15/15/15 19/19/19
f 18/18/18 15/15/15 23/23/23
f 24/24/24 18/18/18 23/23/23
f 25/25/25 24/24/24 23/23/23
f 23/23/23 26/26/26 25/25/25
f 29/29/29 28/28/28 27/27/27
f 27/27/27 30/30/30 29/29/29
f 27/27/27 31/31/31 30/30/30
f 31/31/31 32/32/32 30/30/30
f 32/32/32 33/33/33 30/30/30
f 33/33/33 34/34/34 30/30/30
f 29/29/29 30/30/30 35/35/35
f 30/30/30 34/34/34 36/36/36
f 30/30/30 37/37/37 35/35/35
f 38/38/38 35/35/35 37/37/37
f 39/39/39 38/38/38 37/37/37
f 37/37/37 40/40/40 39/39/39
f 30/30/30 36/36/36 41/41/41
f 41/41/41 37/37/37 30/30/30
f 36/36/36 42/42/42 41/41/41
f 40/40/40 37/37/37 43/43/43
f 37/37/37 41/41/41 43/43/43
f 43/43/43 44/44/44 40/40/40
f 45/45/45 43/43/43 41/41/41
f 42/42/42 46/46/46 41/41/41
f 45/45/45 41/41/41 46/46/46
f 42/42/42 47/47/47 46/46/46
f 46/46/46 48/48/48 45/45/45
f 48/48/48 46/46/46 47/47/47
f 48/48/48 47/47/47 49/49/49
f 48/48/48 49/49/49 50/50/50
f 50/50/50 51/51/51 48/48/48
f 52/52/52 51/51/51 50/50/50
f 53/53/53 52/52/52 50/50/50
f 56/56/56 55/55/55 54/54/54
f 54/54/54 57/57/57 56/56/56
f 54/54/54 58/58/58 57/57/57
f 61/61/61 60/60/60 59/59/59
f 59/59/59 62/62/62 61/61/61
f 62/62/62 63/63/63 61/61/61
f 64/64/64 61/61/61 63/63/63
f 65/65/65 64/64/64 63/63/63
f 66/66/66 64/64/64 65/65/65
f 67/67/67 66/66/66 65/65/65
f 70/70/70 69/69/69 68/68/68
f 68/68/68 71/71/71 70/70/70
f 71/71/71 72/72/72 70/70/70
f 71/71/71 73/73/73 72/72/72
f 73/73/73 74/74/74 72/72/72
f 73/73/73 75/75/75 74/74/74
f 75/75/75 76/76/76 74/74/74
f 79/79/79 78/78/78 77/77/77
f 79/79/79 77/77/77 80/80/80
f 80/80/80 81/81/81 79/79/79
f 82/82/82 81/81/81 80/80/80
f 83/83/83 82/82/82 80/80/80
f 86/86/86 85/85/85 84/84/84
f 84/84/84 87/87/87 86/86/86
f 87/87/87 88/88/88 86/86/86
f 88/88/88 89/89/89 86/86/86
f 92/92/92 91/91/91 90/90/90
f 90/90/90 93/93/93 92/92/92
f 90/90/90 94/94/94 93/93/93
f 94/94/94 95/95/95 93/93/93
f 95/95/95 96/96/96 93/93/93
f 96/96/96 97/97/97 93/93/93
f 100/100/100 99/99/99 98/98/98
f 98/98/98 101/101/101 100/100/100
f 101/101/101 102/102/102 100/100/100
f 102/102/102 103/103/103 100/100/100
f 103/103/103 104/104/104 100/100/100
f 107/107/107 106/106/106 105/105/105
f 105/105/105 108/108/108 107/107/107
f 105/105/105 109/109/109 108/108/108
f 112/112/112 111/111/111 110/110/110
f 110/110/110 113/113/113 112/112/112
f 113/113/113 114/114/114 112/112/112
f 113/113/113 115/115/115 114/114/114
f 118/118/118 117/117/117 116/116/116
f 119/119/119 118/118/118 116/116/116
f 122/122/122 121/121/121 120/120/120
f 120/120/120 123/123/123 122/122/122
f 123/123/123 124/124/124 122/122/122
f 124/124/124 125/125/125 122/122/122
f 128/128/128 127/127/127 126/126/126
f 126/126/126 129/129/129 128/128/128
f 129/129/129 130/130/130 128/128/128
f 133/133/133 132/132/132 131/131/131
f 131/131/131 134/134/134 133/133/133
f 131/131/131 135/135/135 134/134/134
f 138/138/138 137/137/137 136/136/136
f 136/136/136 139/139/139 138/138/138
f 136/136/136 140/140/140 139/139/139
f 143/143/143 142/142/142 141/141/141
f 143/143/143 141/141/141 144/144/144
f 145/145/145 143/143/143 144/144/144
f 145/145/145 144/144/144 146/146/146
f 146/146/146 147/147/147 145/145/145
