g Bottiglia_cell.032
v 0.001507133 0.2059956 -0.04149008
v -0.02733403 0.1631137 0.02084631
v -0.01250741 0.122013 -0.0367749
v 0.007828951 0.2106059 -0.04127178
v -0.02733403 0.1631137 0.02084631
v 0.001507133 0.2059956 -0.04149008
v 0.03858238 0.2086762 -0.08083561
v 0.007828951 0.2106059 -0.04127178
v 0.06133747 0.1461565 -0.2197412
v 0.06242022 0.1431702 0.1579881
v 0.02691668 0.1626596 0.1314346
v 0.05124351 0.1738712 0.04637811
v 0.007828951 0.2106059 -0.04127178
v 0.05124351 0.1738712 0.04637811
v 0.03858238 0.2086762 -0.08083561
v 0.02691668 0.1626596 0.1314346
v -0.01948413 0.1420351 0.09589618
v -0.02733403 0.1631137 0.02084631
v 0.007828951 0.2106059 -0.04127178
v -0.06396395 -0.186377 -0.01946846
v -0.09036896 -0.3446148 -0.0105882
v 0.0004069209 -0.2364364 -0.2142663
v 0.0649699 -0.05904976 -0.3191441
v -0.0120621 -0.0432277 -0.1036518
v 0.06573832 0.1340629 -0.2443212
v -0.01250741 0.122013 -0.0367749
v 0.001507133 0.2059956 -0.04149008
v 0.0004069209 -0.2364364 0.1039207
v -0.09036896 -0.3446148 -0.0105882
v -0.1046455 -0.3616331 0.02197269
v 0.0004069209 -0.2364364 -0.2142663
v 0.06573832 -0.05694538 0.156783
v 0.0649699 -0.05904976 -0.3191441
v 0.06573832 0.1340629 -0.2443212
v 0.06573832 0.1182933 0.1600575
v 0.06573832 0.1340629 0.1603369
v 0.06133747 0.1461565 -0.2197412
v 0.06242022 0.1431702 0.1579881
v 0.05124351 0.1738712 0.04637811
v 0.03858238 0.2086762 -0.08083561
v 0.06242022 0.1431702 0.1579881
v 0.06573832 0.1340629 0.1603369
v 0.06573832 0.1182933 0.1600575
v 0.06573832 -0.05694538 0.156783
v 0.0004069209 -0.2364364 0.1039207
v 0.02691668 0.1626596 0.1314346
v -0.01160803 0.1204326 0.1014758
v -0.01948413 0.1420351 0.09589618
v -0.01161677 -0.04330629 0.09841967
v -0.1046455 -0.3616331 0.02197269
v -0.06770116 -0.1971171 0.05304047
v -0.08942592 -0.2229545 0.03609204
v -0.06783214 -0.1970472 -0.01310298
v -0.06770116 -0.1971171 0.05304047
v -0.08942592 -0.2229545 0.03609204
v -0.01161677 -0.04330629 0.09841967
v -0.06396395 -0.186377 -0.01946846
v -0.0120621 -0.0432277 -0.1036518
v -0.01250741 0.122013 -0.0367749
v -0.01160803 0.1204326 0.1014758
v -0.02733403 0.1631137 0.02084631
v -0.01948413 0.1420351 0.09589618
v -0.08942592 -0.2229545 0.03609204
v -0.1046455 -0.3616331 0.02197269
v -0.09036896 -0.3446148 -0.0105882
v -0.06783214 -0.1970472 -0.01310298
v -0.06396395 -0.186377 -0.01946846
v 0.06133747 0.1461565 -0.2197412
v 0.007828951 0.2106059 -0.04127178
v 0.001507133 0.2059956 -0.04149008
v 0.06573832 0.1340629 -0.2443212
vt 0 0
vt 0.5503421 0.5503421
vt 0.1094819 0
vt 0 0
vt 0.5904203 0.5904203
vt 1 0
vt 1 0.28348
vt 1 0
vt 0.5053763 0
vt 1 0.4017595
vt 1 0
vt 0.7272727 0
vt 0 0
vt 1 0.2727273
vt 0.28348 0.28348
vt 0 0
vt 0.5962855 0.5962855
vt 1 0.5904203
vt 1 0
vt 0.5112414 0.5112414
vt 0.7174975 0.7174975
vt 0.8709677 0.3743891
vt 0.4447703 0.4447703
vt 0.3245357 0.03323558
vt 0.4428152 0.4389052
vt 0.1094819 0.1094819
vt 1 1
vt 0.6666667 0.9560117
vt 0.6256109 0.9345064
vt 0.6187683 0.9403715
vt 0.6666667 0.8963832
vt 0.7223852 0.9657869
vt 0.7223852 0.8768328
vt 0.7781036 0.8914956
vt 0.773216 0.9667644
vt 0.7781036 0.9667644
vt 0.7810361 0.8954057
vt 0.7810361 0.9657869
vt 0.7898338 0.945259
vt 0.8005865 0.9217986
vt 0.4017595 0.4017595
vt 0.6168133 0.5219941
vt 1 0.7018573
vt 0.7947214 0.7468231
vt 0.5249267 0.4809384
vt 0 0
vt 0.2453568 0.2394917
vt 0.5962855 0
vt 0.5874878 0.3460411
vt 0.7096774 0
vt 0.5816227 0.1124145
vt 0.5083089 0
vt 0.6666667 0.9364614
vt 0.6666667 0.9491691
vt 0.6549364 0.945259
vt 0.7223852 0.9569892
vt 0.6705768 0.9345064
vt 0.7223852 0.9188661
vt 0.7781036 0.9315738
vt 0.7781036 0.9579667
vt 0.7927664 0.9423265
vt 0.7859238 0.9569892
vt 1 0.4916911
vt 1 0.2903226
vt 0.7174975 0
vt 0.572825 0.05278593
vt 0.5112414 0
vt 0.5053763 0.5053763
vt 1 1
vt 1 0
vt 0.4457478 0
vn -0.9331467 0.1348439 -0.3332482
vn -0.9331467 0.1348439 -0.3332482
vn -0.9331467 0.1348439 -0.3332482
vn -0.5731279 0.7766168 0.2615162
vn -0.5731279 0.7766168 0.2615162
vn -0.5731279 0.7766168 0.2615162
vn -0.4948629 0.7609638 -0.4195769
vn -0.4948629 0.7609638 -0.4195769
vn -0.4948629 0.7609638 -0.4195769
vn 0.3425723 0.9174937 0.2021126
vn 0.3347458 0.9174937 0.2148268
vn 0.3425723 0.9174937 0.2021126
vn 0.3347458 0.9174937 0.2148268
vn 0.3347458 0.9174937 0.2148268
vn 0.3347458 0.9174937 0.2148268
vn -0.5574749 0.7766168 0.2934078
vn -0.5574749 0.7766168 0.2934078
vn -0.5574749 0.7766168 0.2934078
vn -0.5574749 0.7766168 0.2934078
vn -0.9331467 0.1348439 -0.3332482
vn -0.9331467 0.1348439 -0.3332482
vn -0.9331467 0.1348439 -0.3332482
vn -0.9331467 0.1348439 -0.3332482
vn -0.9331467 0.1348439 -0.3332482
vn -0.9331467 0.1348439 -0.3332482
vn -0.9331467 0.1348439 -0.3332482
vn -0.9331467 0.1348439 -0.3332482
vn 0.8884602 -0.4589537 0
vn 0.7652032 -0.6399792 -0.0699334
vn 0.7652032 -0.6399792 -0.0699334
vn 0.9112663 -0.4118176 0
vn 0.9843451 -0.1547364 -0.08438836
vn 0.9843451 -0.1625629 -0.06810323
vn 0.9979323 0.06427252 0
vn 0.9999981 0.001793504 -0.0007733314
vn 0.9843451 0.1583235 -0.0774494
vn 0.9373861 0.3383329 -0.0826932
vn 0.9373861 0.3383329 -0.0826932
vn 0.9373861 0.3383329 -0.0826932
vn 0.9373861 0.3383329 -0.0826932
vn -0.6044338 -0.01385945 0.7965348
vn -0.6044338 -0.01385945 0.7965348
vn -0.6044338 -0.01385945 0.7965348
vn -0.6044338 -0.01385945 0.7965348
vn -0.6044338 -0.01385945 0.7965348
vn -0.6044338 -0.01385945 0.7965348
vn -0.6044338 -0.01385945 0.7965348
vn -0.6044338 -0.01385945 0.7965348
vn -0.6044338 -0.01385945 0.7965348
vn -0.6044338 -0.01385945 0.7965348
vn -0.6044338 -0.01385945 0.7965348
vn -0.6044338 -0.01385945 0.7965348
vn -0.9091908 0.4163797 0
vn -0.8860931 0.4635074 0
vn -0.766793 0.6418945 0
vn -0.987401 0.1582384 0
vn -0.9409732 0.3383329 -0.01001683
vn -0.986151 0.1658504 0
vn -0.9957476 -0.09212338 0
vn -0.9867308 -0.1623652 0
vn -0.939665 -0.3420961 0
vn -0.939665 -0.3420961 0
vn -0.9331467 0.1348439 -0.3332482
vn -0.9331467 0.1348439 -0.3332482
vn -0.9331467 0.1348439 -0.3332482
vn -0.9331467 0.1348439 -0.3332482
vn -0.9331467 0.1348439 -0.3332482
vn -0.5731279 0.6983517 -0.4287531
vn -0.5731279 0.6983517 -0.4287531
vn -0.5731279 0.6983517 -0.4287531
vn -0.5731279 0.6983517 -0.4287531
g Bottiglia_cell.032_0
f 3/3/3 2/2/2 1/1/1
f 6/6/6 5/5/5 4/4/4
f 9/9/9 8/8/8 7/7/7
f 12/12/12 11/11/11 10/10/10
f 11/11/11 14/14/14 13/13/13
f 14/14/14 15/15/15 13/13/13
f 18/18/18 17/17/17 16/16/16
f 19/19/19 18/18/18 16/16/16
f 22/22/22 21/21/21 20/20/20
f 20/20/20 23/23/23 22/22/22
f 20/20/20 24/24/24 23/23/23
f 24/24/24 25/25/25 23/23/23
f 24/24/24 26/26/26 25/25/25
f 26/26/26 27/27/27 25/25/25
f 30/30/30 29/29/29 28/28/28
f 29/29/29 31/31/31 28/28/28
f 32/32/32 28/28/28 31/31/31
f 33/33/33 32/32/32 31/31/31
f 32/32/32 33/33/33 34/34/34
f 34/34/34 35/35/35 32/32/32
f 34/34/34 36/36/36 35/35/35
f 36/36/36 34/34/34 37/37/37
f 37/37/37 38/38/38 36/36/36
f 37/37/37 39/39/39 38/38/38
f 37/37/37 40/40/40 39/39/39
f 43/43/43 42/42/42 41/41/41
f 41/41/41 44/44/44 43/43/43
f 41/41/41 45/45/45 44/44/44
f 41/41/41 46/46/46 45/45/45
f 46/46/46 47/47/47 45/45/45
f 46/46/46 48/48/48 47/47/47
f 45/45/45 47/47/47 49/49/49
f 49/49/49 50/50/50 45/45/45
f 49/49/49 51/51/51 50/50/50
f 51/51/51 52/52/52 50/50/50
f 55/55/55 54/54/54 53/53/53
f 53/53/53 54/54/54 56/56/56
f 56/56/56 57/57/57 53/53/53
f 56/56/56 58/58/58 57/57/57
f 58/58/58 56/56/56 59/59/59
f 56/56/56 60/60/60 59/59/59
f 61/61/61 59/59/59 60/60/60
f 62/62/62 61/61/61 60/60/60
f 65/65/65 64/64/64 63/63/63
f 63/63/63 66/66/66 65/65/65
f 66/66/66 67/67/67 65/65/65
f 70/70/70 69/69/69 68/68/68
f 71/71/71 70/70/70 68/68/68
