g Bottiglia_cell.033
v 0.1070757 -0.009932667 0.03121431
v 0.1849256 0.01983047 0.02805522
v 0.1081148 -0.01085117 -0.002176434
v -0.1050979 -0.09602123 -0.08609401
v -0.1190842 -0.06566896 -0.09251887
v -0.1190842 -0.0921756 -0.08221126
v -0.116222 -0.1000571 -0.080249
v -0.1050979 -0.09602123 -0.08609401
v 0.05544485 0.09895605 -0.02679504
v 0.04340692 0.1011131 -0.03169835
v -0.01302521 0.09132507 -0.0541506
v -0.06265208 0.06280981 -0.07335097
v -0.09948489 0.01900938 -0.08698004
v -0.1128635 -0.01772137 -0.09136379
v -0.1128635 -0.01772137 -0.09136379
v -0.1190842 -0.0347925 -0.09337243
v -0.1190842 -0.06566896 -0.09251887
v -0.04047818 -0.0702058 -0.06065896
v -0.1050979 -0.09602123 -0.08609401
v -0.116222 -0.1000571 -0.080249
v -0.1178549 -0.0963506 0.02936339
v -0.04033901 -0.06656891 0.02999891
v 0.1070757 -0.009932667 0.03121431
v 0.1081148 -0.01085117 -0.002176434
v 0.09808555 0.001135737 -0.00659731
v 0.1063613 -0.009278581 0.05263208
v 0.09801596 0.0006532818 0.05256249
v 0.07250205 0.01598947 -0.01741056
v 0.1494706 0.06190522 0.05300319
v 0.184137 0.02059124 0.05300319
v 0.0724603 0.01539569 0.05246508
v 0.04340692 0.0212175 -0.02936499
v 0.04340692 0.02051239 0.05242796
v 0.09984369 0.09055966 0.05300319
v 0.04340692 0.1005101 0.05300319
v 0.1494706 0.06219748 0.01242216
v 0.1849256 0.01983047 0.02805522
v 0.09984369 0.09100035 -0.008554921
v 0.05544485 0.09895605 -0.02679504
v 0.04340692 0.1011131 -0.03169835
v -0.1190842 -0.0921756 -0.08221126
v -0.1178549 -0.0963506 0.02936339
v -0.116222 -0.1000571 -0.080249
v -0.1182353 -0.09547849 0.05300319
v -0.1190842 -0.03583625 0.05300319
v -0.1062067 -0.09086279 0.05301711
v -0.1190842 -0.06566896 -0.09251887
v -0.1190842 -0.0347925 -0.09337243
v -0.09948489 0.01801202 0.05300319
v -0.1128635 -0.01772137 -0.09136379
v -0.09948489 0.01900938 -0.08698004
v -0.0403019 -0.06556227 0.05300783
v -0.06265208 0.06280981 -0.07335097
v -0.04029262 -0.04966478 0.05290113
v -0.06265208 0.06190522 0.05300319
v -0.01302521 0.09132507 -0.0541506
v -0.0404689 -0.04885761 -0.06128985
v -0.04033901 -0.06656891 0.02999891
v -0.04047818 -0.0702058 -0.06065896
v -0.03017519 -0.02193812 0.05271557
v -0.03033756 -0.02108921 -0.05800551
v -0.01119749 0.0006532818 0.05256249
v -0.01131345 0.001497567 -0.05096367
v -0.01302521 0.09055966 0.05300319
v 0.04340692 0.1011131 -0.03169835
v 0.04340692 0.1005101 0.05300319
v 0.01435818 0.01539569 0.05246508
v 0.01429787 0.01618893 -0.04101789
v 0.04340692 0.02051239 0.05242796
v 0.04340692 0.0212175 -0.02936499
v 0.1081148 -0.01085117 -0.002176434
v 0.1849256 0.01983047 0.02805522
v 0.1494706 0.06219748 0.01242216
v 0.09984369 0.09100035 -0.008554921
v 0.09808555 0.001135737 -0.00659731
v 0.05544485 0.09895605 -0.02679504
v 0.07250205 0.01598947 -0.01741056
v 0.04340692 0.0212175 -0.02936499
v 0.01429787 0.01618893 -0.04101789
v -0.01131345 0.001497567 -0.05096367
v -0.1050979 -0.09602123 -0.08609401
v -0.03033756 -0.02108921 -0.05800551
v -0.0404689 -0.04885761 -0.06128985
v -0.04047818 -0.0702058 -0.06065896
v 0.1849256 0.01983047 0.02805522
v 0.1070757 -0.009932667 0.03121431
v 0.1063613 -0.009278581 0.05263208
v 0.184137 0.02059124 0.05300319
v -0.04033901 -0.06656891 0.02999891
v -0.1178549 -0.0963506 0.02936339
v -0.1182353 -0.09547849 0.05300319
v -0.0403019 -0.06556227 0.05300783
v -0.1062067 -0.09086279 0.05301711
vt 1 0.1700048
vt 1 0.01954061
vt 0.7107964 -1.862645E-07
vt -1.862645E-07 -1.862645E-07
vt 0.2100634 0.2100634
vt 0.1011234 0.05275997
vt 0.05129441 -1.862645E-07
vt -1.862645E-07 -1.862645E-07
vt 0.617489 0.617489
vt 0.6209087 0.5769419
vt 0.5774304 0.3800684
vt 0.4807035 0.1998045
vt 0.3414753 0.05862221
vt 0.2296042 -1.862645E-07
vt 0.2296042 0.2296042
vt 0.2667317 0.1152905
vt 0.2100634 -1.862645E-07
vt 0.2154371 -1.862645E-07
vt -1.862645E-07 -1.862645E-07
vt 0.05129441 0.05129441
vt 1 0.605276
vt 1 0.4553004
vt 0.8622376 1
vt 0.8593065 1
vt 0.8891062 1
vt 0.8646802 1
vt 0.8891062 1
vt 0.9443089 1
vt 0.8891062 1
vt 0.8368345 1
vt 0.9443089 1
vt 1 1
vt 1 1
vt 0.9443089 1
vt 1 1
vt 0.8891062 1
vt 0.8353689 1
vt 0.9443089 1
vt 0.9882757 1
vt 1 1
vt 0.2779677 1
vt 0.2813873 1
vt 0.285784 1
vt 0.2779677 1
vt 0.2222764 1
vt 0.2779677 1
vt 0.2520761 1
vt 0.2222764 1
vt 0.1665851 1
vt 0.2046897 1
vt 0.1665851 1
vt 0.2520761 1
vt 0.1108938 1
vt 0.2222764 1
vt 0.1108938 1
vt 0.05569109 1
vt 0.2222764 1
vt 0.2545187 1
vt 0.262335 1
vt 0.1665851 1
vt 0.1665851 1
vt 0.1108938 1
vt 0.1108938 1
vt 0.05569109 1
vt -1.862645E-07 1
vt -1.862645E-07 1
vt 0.05569109 1
vt 0.05569109 1
vt -1.862645E-07 1
vt -1.862645E-07 1
vt 0.2892036 -1.862645E-07
vt 0.03273065 -1.862645E-07
vt 0.382511 0.2667317
vt 0.7469468 0.4963361
vt 0.3878847 0.07572041
vt 1 0.617489
vt 0.5759649 0.1939422
vt 0.7415731 0.273571
vt 0.8656572 0.3043478
vt 0.9330729 0.2833414
vt 1 -1.862645E-07
vt 0.935027 0.212506
vt 0.872008 0.1006349
vt 0.7845629 -1.862645E-07
vt 0.01954061 0.01954061
vt 0.1700048 0.1700048
vt 0.4557889 0.1548606
vt 0.3019052 0.004396494
vt 0.4553004 0.4553004
vt 0.605276 0.605276
vt 0.9203714 0.5876893
vt 0.7611139 0.4372252
vt 0.8959454 0.5647289
vn 0.3568664 -0.9294053 0.09408636
vn 0.3568664 -0.9294053 0.09408636
vn 0.3568664 -0.9294053 0.09408636
vn -0.3333175 -0.3411803 -0.8789172
vn -0.3333175 -0.3411803 -0.8789172
vn -0.3333175 -0.3411803 -0.8789172
vn -0.3333175 -0.3411803 -0.8789172
vn 0.3725523 -0.0274604 -0.9276048
vn 0.3725523 -0.0274604 -0.9276048
vn 0.3725523 -0.0274604 -0.9276048
vn 0.3725523 -0.0274604 -0.9276048
vn 0.3725523 -0.0274604 -0.9276048
vn 0.3725523 -0.0274604 -0.9276048
vn 0.3725523 -0.0274604 -0.9276048
vn 0.3725523 -0.0274604 -0.9276048
vn 0.3725523 -0.0274604 -0.9276048
vn 0.3725523 -0.0274604 -0.9276048
vn 0.3568664 -0.9294053 0.09408636
vn 0.3568664 -0.9294053 0.09408636
vn 0.3568664 -0.9294053 0.09408636
vn 0.3568664 -0.9294053 0.09408636
vn 0.3568664 -0.9294053 0.09408636
vn -0.7646825 -0.6392143 -0.08164378
vn -0.7646825 -0.6392143 -0.08164378
vn -0.615557 -0.7880923 0
vn -0.4980205 -0.4196103 0.7588825
vn -0.4274335 -0.5137264 0.7438991
vn -0.3019456 -0.9529343 -0.02729684
vn 0.4745113 0.5686076 0.6719556
vn 0.6078423 0.5058635 0.6120701
vn -0.2313585 -0.6313713 0.7401645
vn 0.0431066 -0.9990705 0
vn -0.003911614 -0.6705863 0.7418212
vn 0.2549074 0.6940955 0.6732412
vn -0.003911614 0.7411535 0.6713242
vn 0.6155789 0.7880753 0
vn 0.7647023 0.6391945 0.08161329
vn 0.3019654 0.9529145 0.02776556
vn 0.1764774 0.9842864 0.005995132
vn -0.04308772 0.9990712 0
vn -0.9894732 -0.1447169 0
vn -0.9372284 -0.3411803 -0.07210285
vn -0.9372284 -0.3411803 -0.07210285
vn -0.7960545 -0.01177442 0.6051104
vn -0.7333105 0.1293995 0.6674665
vn 0.003931403 0.003911614 0.9999846
vn -0.9999725 -0.003931403 0.006294344
vn -0.9842864 0.1686146 0.05243387
vn -0.6391945 0.3725325 0.6727927
vn -0.9372284 0.3411605 0.07219641
vn -0.8744844 0.4823345 0.05128769
vn 0.6392143 0.003911614 0.7690187
vn -0.6705664 0.7411535 -0.03212746
vn 0.6549003 -0.1137334 0.747108
vn -0.4744915 0.5686076 0.6719697
vn -0.3803755 0.9215424 0.07793633
vn 0.9843063 -0.1686344 -0.05199631
vn 0.9999923 -0.003931403 -0.0002031662
vn 0.9999923 -0.003931403 -0.0002031662
vn 0.5764703 -0.3333374 0.7460349
vn 0.8745043 -0.4823543 -0.05076012
vn 0.4274533 -0.5137264 0.7438877
vn 0.6626591 -0.7489211 0
vn -0.2548876 0.6940955 0.6732486
vn -0.04308772 0.9990712 0
vn -0.003911614 0.7411535 0.6713242
vn 0.2313784 -0.6313713 0.7401583
vn 0.3803954 -0.9215623 -0.07760409
vn -0.003911614 -0.6705863 0.7418212
vn 0.0431066 -0.9990705 0
vn 0.3725523 -0.0274604 -0.9276048
vn 0.3725523 -0.0274604 -0.9276048
vn 0.3725523 -0.0274604 -0.9276048
vn 0.3725523 -0.0274604 -0.9276048
vn 0.3725523 -0.0274604 -0.9276048
vn 0.3725523 -0.0274604 -0.9276048
vn 0.3725523 -0.0274604 -0.9276048
vn 0.3725523 -0.0274604 -0.9276048
vn 0.3725523 -0.0274604 -0.9276048
vn 0.3725523 -0.0274604 -0.9276048
vn 0.3725523 -0.0274604 -0.9276048
vn 0.3725523 -0.0274604 -0.9276048
vn 0.3725523 -0.0274604 -0.9276048
vn 0.3725523 -0.0274604 -0.9276048
vn 0.3568664 -0.9294053 0.09408636
vn 0.3568664 -0.9294053 0.09408636
vn 0.3568664 -0.9294053 0.09408636
vn 0.3568664 -0.9294053 0.09408636
vn 0.3568664 -0.9294053 0.09408636
vn 0.3568664 -0.9294053 0.09408636
vn 0.3568664 -0.9294053 0.09408636
vn 0.3568664 -0.9294053 0.09408636
vn 0.3568664 -0.9294053 0.09408636
g Bottiglia_cell.033_0
f 3/3/3 2/2/2 1/1/1
f 6/6/6 5/5/5 4/4/4
f 7/7/7 6/6/6 4/4/4
f 10/10/10 9/9/9 8/8/8
f 8/8/8 11/11/11 10/10/10
f 8/8/8 12/12/12 11/11/11
f 8/8/8 13/13/13 12/12/12
f 8/8/8 14/14/14 13/13/13
f 16/16/16 15/15/15 8/8/8
f 17/17/17 16/16/16 8/8/8
f 20/20/20 19/19/19 18/18/18
f 18/18/18 21/21/21 20/20/20
f 18/18/18 22/22/22 21/21/21
f 25/25/25 24/24/24 23/23/23
f 23/23/23 26/26/26 25/25/25
f 26/26/26 27/27/27 25/25/25
f 25/25/25 27/27/27 28/28/28
f 29/29/29 27/27/27 26/26/26
f 30/30/30 29/29/29 26/26/26
f 27/27/27 31/31/31 28/28/28
f 31/31/31 27/27/27 29/29/29
f 28/28/28 31/31/31 32/32/32
f 31/31/31 33/33/33 32/32/32
f 33/33/33 31/31/31 34/34/34
f 34/34/34 31/31/31 29/29/29
f 35/35/35 33/33/33 34/34/34
f 36/36/36 29/29/29 30/30/30
f 34/34/34 29/29/29 36/36/36
f 37/37/37 36/36/36 30/30/30
f 38/38/38 34/34/34 36/36/36
f 35/35/35 34/34/34 38/38/38
f 35/35/35 38/38/38 39/39/39
f 39/39/39 40/40/40 35/35/35
f 43/43/43 42/42/42 41/41/41
f 42/42/42 44/44/44 41/41/41
f 41/41/41 44/44/44 45/45/45
f 45/45/45 44/44/44 46/46/46
f 45/45/45 47/47/47 41/41/41
f 45/45/45 48/48/48 47/47/47
f 48/48/48 45/45/45 49/49/49
f 49/49/49 50/50/50 48/48/48
f 49/49/49 51/51/51 50/50/50
f 45/45/45 46/46/46 52/52/52
f 51/51/51 49/49/49 53/53/53
f 52/52/52 54/54/54 45/45/45
f 45/45/45 54/54/54 49/49/49
f 49/49/49 55/55/55 53/53/53
f 53/53/53 55/55/55 56/56/56
f 57/57/57 54/54/54 52/52/52
f 57/57/57 52/52/52 58/58/58
f 58/58/58 59/59/59 57/57/57
f 54/54/54 60/60/60 49/49/49
f 60/60/60 54/54/54 57/57/57
f 49/49/49 60/60/60 55/55/55
f 61/61/61 60/60/60 57/57/57
f 62/62/62 60/60/60 61/61/61
f 60/60/60 62/62/62 55/55/55
f 63/63/63 62/62/62 61/61/61
f 55/55/55 64/64/64 56/56/56
f 55/55/55 62/62/62 64/64/64
f 56/56/56 64/64/64 65/65/65
f 64/64/64 66/66/66 65/65/65
f 67/67/67 62/62/62 63/63/63
f 62/62/62 67/67/67 64/64/64
f 64/64/64 67/67/67 66/66/66
f 68/68/68 67/67/67 63/63/63
f 67/67/67 69/69/69 66/66/66
f 69/69/69 67/67/67 68/68/68
f 70/70/70 69/69/69 68/68/68
f 73/73/73 72/72/72 71/71/71
f 71/71/71 74/74/74 73/73/73
f 71/71/71 75/75/75 74/74/74
f 75/75/75 76/76/76 74/74/74
f 75/75/75 77/77/77 76/76/76
f 77/77/77 78/78/78 76/76/76
f 78/78/78 79/79/79 76/76/76
f 79/79/79 80/80/80 76/76/76
f 80/80/80 81/81/81 76/76/76
f 80/80/80 82/82/82 81/81/81
f 82/82/82 83/83/83 81/81/81
f 83/83/83 84/84/84 81/81/81
f 87/87/87 86/86/86 85/85/85
f 88/88/88 87/87/87 85/85/85
f 91/91/91 90/90/90 89/89/89
f 89/89/89 92/92/92 91/91/91
f 92/92/92 93/93/93 91/91/91
