g breath_in
v -0.1915 0 0
v -0.1915 0.682 0
v -0.1135 0.682 0
v -0.0995 0.525 0
v -0.0995 0 0
v 0.3485 0.154 0
v 0.3565 0 0
v 0.4405 0 0
v 0.4405 0.682 0
v 0.3485 0.682 0
v -0.4395 0 0
v -0.4395 0.682 0
v -0.3415 0.682 0
v -0.3415 0 0
vn 0 0 1
vn 0 0 1
vn 0 0 1
vn 0 0 1
vn 0 0 1
vn 0 0 1
vn 0 0 1
vn 0 0 1
vn 0 0 1
vn 0 0 1
vn 0 0 1
vn 0 0 1
vn 0 0 1
vn 0 0 1
g breath_in_0
f 3/3/3 2/2/2 1/1/1
f 4/4/4 3/3/3 1/1/1
f 5/5/5 4/4/4 1/1/1
f 6/6/6 3/3/3 4/4/4
f 6/6/6 4/4/4 7/7/7
f 8/8/8 6/6/6 7/7/7
f 8/8/8 9/9/9 6/6/6
f 9/9/9 10/10/10 6/6/6
f 13/13/13 12/12/12 11/11/11
f 14/14/14 13/13/13 11/11/11
