g Calice_cell.215
v -0.01273447 -0.1837848 0.2781965
v -0.160285 -0.08455867 -0.1373933
v -0.1680169 -0.07296079 -0.1373933
v -0.04946104 -0.1038884 0.322655
v -0.06170321 -0.09808949 0.3200777
v -0.06943512 -0.09357922 0.2975263
v -0.0410848 -0.08971326 -0.004017979
v -0.06492484 -0.07875973 -0.004017979
v -0.09198651 -0.07489377 -0.004017979
v -0.09198651 -0.0858473 0.2086094
v -0.1190482 -0.07875973 -0.004017979
v -0.1177595 -0.08327001 0.0868319
v -0.1338677 -0.0858473 -0.004017979
v -0.09198651 0.09842974 -0.0755381
v -0.1531974 0.03915182 -0.05491969
v -0.1577077 -0.05427536 -0.01948181
v -0.1970116 -0.003373653 -0.04589912
v -0.05783725 0.1300017 -0.09035759
v -0.006291211 0.1229141 -0.09035759
v 0.01819316 0.2053877 -0.1071101
v -0.0410848 -0.08971326 -0.004017979
v 0.07296079 0.0868319 -0.09035759
v 0.07038349 -0.02914667 -0.05363104
v 0.1077544 0.293016 -0.1303058
v 0.138682 0.02948692 -0.09035759
v 0.1489912 0.01402313 -0.09035759
v 0.1837848 0.2588668 -0.1303058
v 0.2933201 0.1635066 -0.1303058
v 0.3352012 0.09842974 -0.1303058
v 0.2862325 0.1570634 -0.1792745
v 0.3165158 0.1093833 -0.1792745
v 0.1361047 0.02755395 -0.1399706
v 0.1786302 0.2504905 -0.1792745
v 0.1077544 0.2827068 -0.1792745
v 0.06394026 0.07201242 -0.1373933
v 0.1225739 0.02111071 -0.1373933
v 0.0143272 0.1905683 -0.1547901
v -0.160285 -0.08455867 -0.1373933
v -0.01080149 0.1061617 -0.1373933
v -0.06363618 0.1138936 -0.1373933
v -0.1995889 -0.02592504 -0.1373933
v -0.1680169 -0.07296079 -0.1373933
v -0.1828364 -0.05105373 -0.1373933
v 0.3352012 0.09842974 -0.1303058
v 0.3165158 0.1093833 -0.1792745
v 0.1361047 0.02755395 -0.1399706
v 0.1225739 0.02111071 -0.1373933
v -0.160285 -0.08455867 -0.1373933
v 0.1489912 0.01402313 -0.09035759
v -0.0410848 -0.08971326 -0.004017979
v 0.07038349 -0.02914667 -0.05363104
v -0.01273447 -0.1837848 0.2781965
v -0.02304369 -0.1103317 0.07007945
v -0.01209015 -0.1335274 0.1441768
v -0.008868515 -0.1580117 0.213764
v -0.1970116 -0.003373653 -0.04589912
v -0.1995889 -0.02592504 -0.1373933
v -0.06363618 0.1138936 -0.1373933
v -0.1531974 0.03915182 -0.05491969
v -0.09198651 0.09842974 -0.0755381
v -0.05783725 0.1300017 -0.09035759
v 0.0143272 0.1905683 -0.1547901
v 0.01819316 0.2053877 -0.1071101
v 0.1077544 0.2827068 -0.1792745
v 0.1077544 0.293016 -0.1303058
v -0.02304369 -0.1103317 0.07007945
v -0.0410848 -0.08971326 -0.004017979
v -0.03270856 -0.1187079 0.3239436
v -0.01209015 -0.1335274 0.1441768
v -0.02046639 -0.1373933 0.322655
v -0.008868515 -0.1580117 0.213764
v -0.01402313 -0.1593004 0.318789
v -0.01402313 -0.1708983 0.3162117
v -0.01209015 -0.1818518 0.2859285
v -0.01273447 -0.1837848 0.2781965
v -0.1177595 -0.08327001 0.0868319
v -0.09198651 -0.0858473 0.2086094
v -0.1338677 -0.0858473 -0.004017979
v -0.06943512 -0.09357922 0.2975263
v -0.06170321 -0.09808949 0.3200777
v -0.01402313 -0.1708983 0.3162117
v -0.1680169 -0.07296079 -0.1373933
v -0.01209015 -0.1818518 0.2859285
v -0.01273447 -0.1837848 0.2781965
v -0.1577077 -0.05427536 -0.01948181
v -0.1828364 -0.05105373 -0.1373933
v -0.01402313 -0.1593004 0.318789
v -0.01402313 -0.1708983 0.3162117
v -0.06170321 -0.09808949 0.3200777
v -0.02046639 -0.1373933 0.322655
v -0.03270856 -0.1187079 0.3239436
v -0.04946104 -0.1038884 0.322655
v -0.1577077 -0.05427536 -0.01948181
v -0.1828364 -0.05105373 -0.1373933
v -0.1995889 -0.02592504 -0.1373933
v -0.1970116 -0.003373653 -0.04589912
vt 0.0627451 0
vt 0.8313726 0.8313726
vt 0.8313726 0
vt 0.5333334 0.282353
vt 0.5254902 0.2784314
vt 0.5176471 0.2666667
vt 0.5411765 0.09019608
vt 0.5215687 0.09019608
vt 0.5019608 0.09019608
vt 0.5019608 0.2156863
vt 0.4784314 0.09019608
vt 0.4784314 0.145098
vt 0.4666667 0.09019608
vt 0.5019608 0.03529412
vt 0.4431373 0.05098039
vt 0.4431373 0.07843138
vt 0.4039216 0.05882353
vt 0.5333334 0.02352941
vt 0.5803922 0.02352941
vt 0.6078432 0.01176471
vt 0.5411765 0.09019608
vt 0.6588235 0.02352941
vt 0.6509804 0.05098039
vt 0.6980392 0
vt 0.7215686 0.02352941
vt 0.7294118 0.02352941
vt 0.772549 0
vt 0.8823529 0
vt 0.9215686 0
vt 0.8823529 0
vt 0.9137255 0
vt 0.7294118 0.02352941
vt 0.772549 0
vt 0.7019608 0
vt 0.6588235 0.02352941
vt 0.7176471 0.02352941
vt 0.6078432 0.01176471
vt 0.4313726 0.02352941
vt 0.5803922 0.02352941
vt 0.5294118 0.02352941
vt 0.3921569 0.02352941
vt 0.4235294 0.02352941
vt 0.4078431 0.02352941
vt 0.8156863 0.7529412
vt 0.9058824 0.7490196
vt 0.8352941 0.454902
vt 0.8313726 0.4313726
vt 0.8313726 0
vt 0.7450981 0.4470588
vt 0.5803922 0.1098039
vt 0.6745098 0.3058824
vt 0.06666667 0
vt 0.4470588 0.09803922
vt 0.3137255 0.07450981
vt 0.1843137 0.03921569
vt 0.3607843 0
vt 0.1803922 0
vt 0.5019608 0.3215686
vt 0.4470588 0.1019608
vt 0.5529412 0.2509804
vt 0.6039216 0.3294118
vt 0.6509804 0.5058824
vt 0.7529412 0.5137255
vt 0.827451 0.7294118
vt 0.9215686 0.7254902
vt 0.5568628 0.1333333
vt 0.5411765 0.09411765
vt 0.5490196 0.282353
vt 0.5647059 0.1764706
vt 0.5568628 0.282353
vt 0.5686275 0.2156863
vt 0.5647059 0.2784314
vt 0.5647059 0.2784314
vt 0.5647059 0.2588235
vt 0.5647059 0.2509804
vt 0.6235294 0.2
vt 0.3960784 0.1960784
vt 0.827451 0.2392157
vt 0.2784314 0.2352941
vt 0.2666667 0.2666667
vt 0.8313726 0.8313726
vt 1 0.1686275
vt 0.9764706 0.9215686
vt 1 0.9372549
vt 0.6196079 0
vt 0.8352941 0
vt 0.9372549 0.8509804
vt 1 0.8313726
vt 1 0.2666667
vt 0.8745098 0.8
vt 0.8745098 0.6588235
vt 0.9294118 0.4392157
vt 0.6196079 0.6196079
vt 0.8352941 0.8352941
vt 1 0.8196079
vt 1 0.6392157
vn -0.8015617 -0.5566449 0.218278
vn -0.8015617 -0.5566449 0.218278
vn -0.8015617 -0.5566449 0.218278
vn 0.5555379 0.8314912 0
vn 0.4303001 0.8963203 0.1070124
vn 0.3947889 0.9187719 0
vn 0.3671277 0.7068032 0.6046871
vn 0.2407829 0.7699755 0.5908987
vn -0.01190674 0.8015617 0.5977935
vn 0.1144381 0.991079 0.06831097
vn -0.2330101 0.7699755 0.5940067
vn -0.1689043 0.9856324 0
vn -0.3277687 0.7068032 0.6268947
vn 0.01967949 0.3909411 0.9202052
vn -0.07507908 0.359355 0.9301758
vn -0.1698377 0.359355 0.9176161
vn -0.1698377 0.359355 0.9176161
vn 0.05126572 0.3277687 0.9433661
vn 0.08285189 0.2645963 0.9607936
vn 0.08285189 0.1698377 0.9819831
vn 0.3671277 0.7068032 0.6046871
vn 0.1460243 0.2330101 0.9614485
vn 0.2407829 0.2961825 0.9242832
vn 0.3039553 0.6752169 0.6720814
vn 0.2091967 0.1698377 0.9630119
vn 0.2407829 0.1382515 0.9606821
vn 0.4618863 0.7068032 0.535808
vn 0.6514035 0.5488721 0.5238443
vn 0.6514035 0.4225273 0.6301937
vn 0.4618863 0.3909411 -0.7961319
vn 0.5566449 0.359355 -0.7490063
vn -0.1382515 -0.1460243 -0.9795731
vn 0.3355415 0.5172859 -0.787291
vn 0.2091967 0.4541135 -0.8660356
vn -0.04349291 -0.08285189 -0.9956124
vn -0.07507908 -0.08285189 -0.9937297
vn -0.07507908 -0.1776105 -0.9812327
vn -0.01190674 0.01190674 -0.9998582
vn -0.04349291 -0.1144381 -0.9924778
vn -0.01190674 -0.05126572 -0.9986141
vn -0.01190674 0.01190674 -0.9998582
vn -0.01190674 0.01190674 -0.9998582
vn -0.01190674 0.01190674 -0.9998582
vn 0.3355415 -0.872507 -0.3551668
vn 0.3355415 -0.872507 -0.3551668
vn 0.3355415 -0.872507 -0.3551668
vn 0.3355415 -0.872507 -0.3551668
vn 0.3355415 -0.872507 -0.3551668
vn 0.3355415 -0.872507 -0.3551668
vn 0.3355415 -0.872507 -0.3551668
vn 0.3355415 -0.872507 -0.3551668
vn 0.3355415 -0.872507 -0.3551668
vn 0.3355415 -0.872507 -0.3551668
vn 0.3355415 -0.872507 -0.3551668
vn 0.3355415 -0.872507 -0.3551668
vn -0.7068032 0.6752169 -0.2109773
vn -0.7068032 0.6752169 -0.2109773
vn -0.7068032 0.6752169 -0.2109773
vn -0.7068032 0.6752169 -0.2109773
vn -0.7068032 0.6752169 -0.2109773
vn -0.7068032 0.6752169 -0.2109773
vn -0.7068032 0.6752169 -0.2109773
vn -0.7068032 0.6752169 -0.2109773
vn -0.7068032 0.6752169 -0.2109773
vn -0.7068032 0.6752169 -0.2109773
vn 0.679031 0.7341096 0
vn 0.3671277 0.7068032 0.6046871
vn 0.7461622 0.6436307 0.1702395
vn 0.8409207 0.5172859 0.1589577
vn 0.9040931 0.4225273 0.06392372
vn 0.9672655 0.2330101 0.1005169
vn 0.9858505 0.1676271 0
vn 0.9988518 -0.01967949 0.04367899
vn 0.9988518 -0.01967949 0.04367899
vn 0.9988518 -0.01967949 0.04367899
vn -0.8314912 -0.5555379 0
vn -0.8314912 -0.5555379 0
vn -0.8314912 -0.5555379 0
vn -0.8314912 -0.5555379 0
vn -0.8314912 -0.5555379 0
vn -0.8314912 -0.5555379 0
vn -0.8314912 -0.5555379 0
vn -0.8314912 -0.5555379 0
vn -0.8314912 -0.5555379 0
vn -0.8314912 -0.5555379 0
vn -0.8314912 -0.5555379 0
vn -0.2961825 -0.2407829 0.9242832
vn -0.2961825 -0.2407829 0.9242832
vn -0.2961825 -0.2407829 0.9242832
vn -0.2961825 -0.2407829 0.9242832
vn -0.2961825 -0.2407829 0.9242832
vn -0.2961825 -0.2407829 0.9242832
vn -0.8314912 -0.5555379 0
vn -0.8314912 -0.5555379 0
vn -0.8314912 -0.5555379 0
vn -0.8314912 -0.5555379 0
g Calice_cell.215_0
f 3/3/3 2/2/2 1/1/1
f 6/6/6 5/5/5 4/4/4
f 6/6/6 4/4/4 7/7/7
f 7/7/7 8/8/8 6/6/6
f 6/6/6 8/8/8 9/9/9
f 10/10/10 6/6/6 9/9/9
f 10/10/10 9/9/9 11/11/11
f 12/12/12 10/10/10 11/11/11
f 12/12/12 11/11/11 13/13/13
f 11/11/11 9/9/9 14/14/14
f 14/14/14 9/9/9 8/8/8
f 13/13/13 11/11/11 15/15/15
f 15/15/15 11/11/11 14/14/14
f 15/15/15 16/16/16 13/13/13
f 15/15/15 17/17/17 16/16/16
f 18/18/18 14/14/14 8/8/8
f 8/8/8 19/19/19 18/18/18
f 18/18/18 19/19/19 20/20/20
f 8/8/8 21/21/21 19/19/19
f 20/20/20 19/19/19 22/22/22
f 21/21/21 22/22/22 19/19/19
f 21/21/21 23/23/23 22/22/22
f 24/24/24 20/20/20 22/22/22
f 23/23/23 25/25/25 22/22/22
f 23/23/23 26/26/26 25/25/25
f 22/22/22 27/27/27 24/24/24
f 22/22/22 25/25/25 27/27/27
f 25/25/25 26/26/26 28/28/28
f 25/25/25 28/28/28 27/27/27
f 26/26/26 29/29/29 28/28/28
f 30/30/30 28/28/28 29/29/29
f 27/27/27 28/28/28 30/30/30
f 31/31/31 30/30/30 29/29/29
f 31/31/31 32/32/32 30/30/30
f 24/24/24 27/27/27 33/33/33
f 33/33/33 27/27/27 30/30/30
f 33/33/33 30/30/30 32/32/32
f 34/34/34 24/24/24 33/33/33
f 32/32/32 35/35/35 33/33/33
f 34/34/34 33/33/33 35/35/35
f 32/32/32 36/36/36 35/35/35
f 35/35/35 37/37/37 34/34/34
f 35/35/35 36/36/36 38/38/38
f 35/35/35 39/39/39 37/37/37
f 38/38/38 39/39/39 35/35/35
f 37/37/37 39/39/39 40/40/40
f 38/38/38 40/40/40 39/39/39
f 38/38/38 41/41/41 40/40/40
f 38/38/38 42/42/42 41/41/41
f 42/42/42 43/43/43 41/41/41
f 46/46/46 45/45/45 44/44/44
f 44/44/44 47/47/47 46/46/46
f 44/44/44 48/48/48 47/47/47
f 44/44/44 49/49/49 48/48/48
f 49/49/49 50/50/50 48/48/48
f 49/49/49 51/51/51 50/50/50
f 50/50/50 52/52/52 48/48/48
f 50/50/50 53/53/53 52/52/52
f 53/53/53 54/54/54 52/52/52
f 54/54/54 55/55/55 52/52/52
f 58/58/58 57/57/57 56/56/56
f 56/56/56 59/59/59 58/58/58
f 59/59/59 60/60/60 58/58/58
f 60/60/60 61/61/61 58/58/58
f 61/61/61 62/62/62 58/58/58
f 61/61/61 63/63/63 62/62/62
f 63/63/63 64/64/64 62/62/62
f 63/63/63 65/65/65 64/64/64
f 67/67/67 4/4/4 66/66/66
f 4/4/4 68/68/68 66/66/66
f 66/66/66 68/68/68 69/69/69
f 68/68/68 70/70/70 69/69/69
f 69/69/69 70/70/70 71/71/71
f 70/70/70 72/72/72 71/71/71
f 71/71/71 72/72/72 73/73/73
f 71/71/71 73/73/73 74/74/74
f 74/74/74 75/75/75 71/71/71
f 78/78/78 77/77/77 76/76/76
f 79/79/79 77/77/77 78/78/78
f 80/80/80 79/79/79 78/78/78
f 81/81/81 80/80/80 78/78/78
f 81/81/81 78/78/78 82/82/82
f 83/83/83 81/81/81 82/82/82
f 82/82/82 84/84/84 83/83/83
f 78/78/78 85/85/85 82/82/82
f 85/85/85 86/86/86 82/82/82
f 89/89/89 88/88/88 87/87/87
f 87/87/87 90/90/90 89/89/89
f 90/90/90 91/91/91 89/89/89
f 91/91/91 92/92/92 89/89/89
f 95/95/95 94/94/94 93/93/93
f 96/96/96 95/95/95 93/93/93
