g Calice_cell.086
v -0.0168013 -0.1312603 0.07075086
v -0.0168013 -0.1546384 -0.01976451
v -0.1211038 -0.1072827 -0.01976451
v -0.128297 -0.09169726 0.0275912
v -0.3231149 -0.01317069 -0.01257125
v -0.1672606 -0.07551239 0.01979849
v -0.1396864 -0.09948997 -0.02336115
v -0.3207171 -0.02695781 -0.06172529
v 0.006576866 -0.1126776 0.0671542
v -0.006011367 -0.1438485 -0.01976451
v -0.0168013 -0.1546384 -0.01976451
v -0.0168013 -0.1312603 0.07075086
v -0.128297 -0.09169726 0.0275912
v -0.07314861 -0.04374211 0.0275912
v -0.0168013 -0.1312603 0.07075086
v -0.1834455 0.128297 -0.01257125
v 0.005977422 -0.00717628 0.0275912
v -0.0168013 -0.1312603 0.07075086
v 0.006576866 -0.1126776 0.0671542
v 0.029955 -0.0892995 0.06235871
v -0.1672606 -0.07551239 0.01979849
v 0.09169726 -0.02935556 0.04137832
v 0.09169726 0.004812509 0.0275912
v 0.1234676 0.0006164312 0.0275912
v -0.05156878 0.1888404 -0.01257125
v 0.09169726 0.2092214 -0.01257125
v 0.203193 0.07854357 0.00960803
v -0.2931429 0.03358561 -0.01257125
v -0.17865 0.1205043 -0.06172529
v -0.3231149 -0.01317069 -0.01257125
v -0.2859496 0.02699175 -0.06172529
v -0.3207171 -0.02695781 -0.06172529
v -0.1396864 -0.09948997 -0.02336115
v -0.1211038 -0.1072827 -0.01976451
v -0.04917103 0.1792494 -0.06172529
v -0.06415701 -0.05752921 -0.01976451
v -0.0168013 -0.1546384 -0.01976451
v -0.006011367 -0.1438485 -0.01976451
v 0.01077291 -0.02336115 -0.01976451
v 0.09169726 -0.0119718 -0.01976451
v 0.1180726 -0.01556844 -0.01976451
v 0.09169726 0.1996303 -0.06172529
v 0.1989969 0.06415701 -0.03774771
v 0.2325656 0.1792494 -0.06172529
v 0.2901118 0.1534735 -0.06172529
v 0.2901118 0.163664 -0.01257125
v 0.2355628 0.1888404 -0.01257125
v 0.1180726 -0.01556844 -0.01976451
v -0.006011367 -0.1438485 -0.01976451
v 0.006576866 -0.1126776 0.0671542
v 0.029955 -0.0892995 0.06235871
v 0.09169726 -0.02935556 0.04137832
v 0.1234676 0.0006164312 0.0275912
v 0.1989969 0.06415701 -0.03774771
v 0.203193 0.07854357 0.00960803
v 0.2901118 0.1534735 -0.06172529
v 0.2901118 0.163664 -0.01257125
vt 0.6431373 0.6352941
vt 0.8196079 0.8196079
vt 0.8196079 0.5843138
vt 0.7294118 0.4705882
vt 0.8039216 0.1137255
vt 0.7411765 0.4
vt 0.827451 0.5490196
vt 0.9019608 0.2196078
vt 0.7058824 0.7058824
vt 0.8470588 0.8470588
vt 1 0.8196079
vt 1 0.6392157
vt 0.2901961 0.02352941
vt 0.3411765 0.02352941
vt 0.4 0.05882353
vt 0.227451 0
vt 0.4196078 0.02352941
vt 0.4039216 0.05882353
vt 0.4196078 0.05490196
vt 0.4431373 0.05098039
vt 0.2509804 0.01960784
vt 0.5019608 0.03529412
vt 0.5019608 0.02352941
vt 0.5294118 0.02352941
vt 0.3568628 0
vt 0.5019608 0
vt 0.6078432 0.01176471
vt 0.1176471 0
vt 0.227451 0
vt 0.09019608 0
vt 0.1176471 0
vt 0.08235294 0
vt 0.2666667 0.01960784
vt 0.2862745 0.02352941
vt 0.3568628 0
vt 0.3411765 0.02352941
vt 0.3882353 0.02352941
vt 0.4 0.02352941
vt 0.4196078 0.02352941
vt 0.5019608 0.02352941
vt 0.5254902 0.02352941
vt 0.5019608 0
vt 0.6078432 0.01176471
vt 0.6431373 0
vt 0.7019608 0
vt 0.6980392 0
vt 0.6431373 0
vt 0.7058824 0.5529412
vt 1 0.8470588
vt 1 0.7058824
vt 0.9411765 0.654902
vt 0.7882353 0.5372549
vt 0.7098039 0.4784314
vt 0.509804 0.3882353
vt 0.5137255 0.3137255
vt 0.282353 0.2
vt 0.3019608 0.1372549
vn -0.4076874 -0.8854592 0.2230537
vn -0.4076874 -0.8854592 0.2230537
vn -0.4076874 -0.8854592 0.2230537
vn -0.4076874 -0.8854592 0.2230537
vn -0.4076874 -0.8854592 0.2230537
vn -0.4076874 -0.8854592 0.2230537
vn -0.4076874 -0.8854592 0.2230537
vn -0.4076874 -0.8854592 0.2230537
vn 0.6653492 -0.7203767 0.195877
vn 0.6653492 -0.7203767 0.195877
vn 0.6653492 -0.7203767 0.195877
vn 0.6653492 -0.7203767 0.195877
vn -0.1600634 0.1875773 0.9691204
vn -0.1600634 0.2426048 0.9568295
vn -0.1875773 0.325146 0.9268737
vn -0.4627149 0.7103387 0.5303904
vn -0.07752222 0.2701185 0.9597011
vn -0.1875773 0.325146 0.9268737
vn -0.1600634 0.3526598 0.9219603
vn -0.1325497 0.3526598 0.9263162
vn -0.1325497 0.1325497 0.9822735
vn -0.02249473 0.3801735 0.9246416
vn 0.005019069 0.2701185 0.962814
vn 0.03253281 0.2426048 0.9695796
vn -0.2426048 0.8203936 0.5177811
vn 0.005019069 0.8479074 0.5301207
vn 0.03253281 0.1875773 0.9817109
vn -0.6277973 0.5452561 0.5554875
vn -0.325146 0.4902286 -0.8086755
vn -0.7378524 0.4902286 0.4639502
vn -0.4627149 0.3801735 -0.8008515
vn -0.4627149 0.2976323 -0.8350509
vn 0.1425878 -0.1425878 -0.9794577
vn 0.0875603 -0.0875603 -0.9923036
vn -0.1600634 0.5727698 -0.8039368
vn 0.06004655 -0.0875603 -0.9943478
vn 0.005019069 -0.005019069 -0.9999748
vn 0.005019069 -0.005019069 -0.9999748
vn 0.03253281 -0.115074 -0.9928241
vn 0.005019069 -0.115074 -0.9933442
vn -0.02249473 -0.1425878 -0.9895265
vn 0.005019069 0.6002836 -0.7997715
vn -0.05000848 -0.1976153 -0.9790033
vn 0.1701016 0.5727698 -0.8018729
vn 0.2526429 0.5727698 -0.7798117
vn 0.3626979 0.8203936 0.4420458
vn 0.2251291 0.8203936 0.5256151
vn 0.7203767 -0.6928629 0.03159617
vn 0.7203767 -0.6928629 0.03159617
vn 0.7203767 -0.6928629 0.03159617
vn 0.7203767 -0.6928629 0.03159617
vn 0.7203767 -0.6928629 0.03159617
vn 0.7203767 -0.6928629 0.03159617
vn 0.7203767 -0.6928629 0.03159617
vn 0.7203767 -0.6928629 0.03159617
vn 0.7203767 -0.6928629 0.03159617
vn 0.7203767 -0.6928629 0.03159617
g Calice_cell.086_0
f 3/3/3 2/2/2 1/1/1
f 1/1/1 4/4/4 3/3/3
f 4/4/4 5/5/5 3/3/3
f 4/4/4 6/6/6 5/5/5
f 7/7/7 3/3/3 5/5/5
f 5/5/5 8/8/8 7/7/7
f 11/11/11 10/10/10 9/9/9
f 12/12/12 11/11/11 9/9/9
f 15/15/15 14/14/14 13/13/13
f 13/13/13 14/14/14 16/16/16
f 14/14/14 17/17/17 16/16/16
f 17/17/17 14/14/14 18/18/18
f 17/17/17 18/18/18 19/19/19
f 19/19/19 20/20/20 17/17/17
f 16/16/16 21/21/21 13/13/13
f 20/20/20 22/22/22 17/17/17
f 22/22/22 23/23/23 17/17/17
f 22/22/22 24/24/24 23/23/23
f 17/17/17 23/23/23 25/25/25
f 17/17/17 25/25/25 16/16/16
f 26/26/26 23/23/23 24/24/24
f 23/23/23 26/26/26 25/25/25
f 26/26/26 24/24/24 27/27/27
f 16/16/16 28/28/28 21/21/21
f 28/28/28 16/16/16 29/29/29
f 21/21/21 28/28/28 30/30/30
f 30/30/30 28/28/28 31/31/31
f 31/31/31 28/28/28 29/29/29
f 32/32/32 30/30/30 31/31/31
f 32/32/32 31/31/31 33/33/33
f 33/33/33 31/31/31 29/29/29
f 34/34/34 33/33/33 29/29/29
f 16/16/16 25/25/25 35/35/35
f 29/29/29 16/16/16 35/35/35
f 29/29/29 36/36/36 34/34/34
f 37/37/37 34/34/34 36/36/36
f 38/38/38 37/37/37 36/36/36
f 39/39/39 36/36/36 29/29/29
f 38/38/38 36/36/36 39/39/39
f 35/35/35 39/39/39 29/29/29
f 38/38/38 39/39/39 40/40/40
f 40/40/40 39/39/39 35/35/35
f 40/40/40 41/41/41 38/38/38
f 35/35/35 25/25/25 42/42/42
f 42/42/42 40/40/40 35/35/35
f 41/41/41 40/40/40 42/42/42
f 43/43/43 41/41/41 42/42/42
f 25/25/25 26/26/26 42/42/42
f 42/42/42 44/44/44 43/43/43
f 42/42/42 26/26/26 44/44/44
f 45/45/45 43/43/43 44/44/44
f 45/45/45 44/44/44 46/46/46
f 26/26/26 47/47/47 44/44/44
f 44/44/44 47/47/47 46/46/46
f 27/27/27 47/47/47 26/26/26
f 27/27/27 46/46/46 47/47/47
f 50/50/50 49/49/49 48/48/48
f 48/48/48 51/51/51 50/50/50
f 48/48/48 52/52/52 51/51/51
f 48/48/48 53/53/53 52/52/52
f 48/48/48 54/54/54 53/53/53
f 54/54/54 55/55/55 53/53/53
f 54/54/54 56/56/56 55/55/55
f 56/56/56 57/57/57 55/55/55
