g Calice_cell.018
v 0.1476391 0.1936514 -0.01029606
v 0.07138844 0.1826272 -0.06357963
v 0.07598184 0.1849239 -0.06036425
v 0.1476391 0.1265876 -0.01029606
v 0.03234443 0.1431239 -0.09114011
v 0.1476391 0.1936514 -0.01029606
v 0.1288061 0.06227984 -0.01029606
v 0.005702645 0.1183195 -0.1040017
v 0.09251812 0.005780876 -0.01029606
v -0.01588638 0.09948646 -0.1099731
v 0.04153126 -0.03831588 -0.01029606
v -0.03655674 0.08340953 -0.1108918
v -0.0195611 -0.06633568 -0.01029606
v 0.01397079 -0.1802523 0.1458799
v -0.05860512 0.06779192 -0.107217
v 0.09481484 -0.1209973 0.1187788
v 0.1490171 -0.04336862 0.08800294
v 0.1830083 0.03747542 0.06825127
v 0.1990853 0.1192381 0.05814578
v 0.1990853 0.172981 0.05768643
v 0.0475027 -0.165094 0.1458799
v 0.1986259 0.1991635 0.05722709
v 0.1834677 0.1987041 0.03747542
v 0.1499358 0.1982448 -0.005702645
v 0.01580815 -0.1862237 0.1633349
v 0.007080674 -0.1894391 0.1683876
v -0.02323584 -0.1857644 0.1458799
v -0.08570625 -0.1742809 0.1187788
v -0.08570625 -0.0755225 -0.01029606
v -0.08570625 0.05033697 -0.09757088
v -0.1775745 -0.1522325 0.1072953
v -0.1523107 -0.06633568 -0.01029606
v -0.1247502 0.02691056 -0.07781921
v -0.1968668 -0.01259276 -0.03142576
v -0.2083503 -0.04061258 -0.01029606
v -0.2069723 -0.02821037 -0.01856421
v -0.2046756 -0.01672684 -0.02591366
v -0.2069723 -0.06266095 0.01588638
v -0.2028382 -0.1389116 0.1054579
v -0.2023789 -0.144883 0.112348
v -0.1973261 -0.146261 0.1114293
v -0.2225899 -0.1508544 0.04895894
v -0.2152404 -0.1531512 0.04804026
v -0.1807898 -0.1632567 0.04115014
v -0.2230492 -0.1425863 0.03931279
v -0.226724 -0.08195327 -0.0318851
v -0.2271833 -0.07046975 -0.04566532
v -0.1624162 -0.1003269 -0.04566532
v -0.08570625 -0.1113511 -0.04566532
v -0.08570625 -0.1862237 0.053093
v -0.212025 -0.03601916 -0.06587633
v -0.2253459 -0.05668952 -0.05255544
v -0.2230492 -0.04244994 -0.05944556
v -0.1288843 0.01313032 -0.1085951
v -0.08570625 0.04023145 -0.1265094
v -0.009455606 -0.1003269 -0.04566532
v 0.0217796 -0.205516 0.09948646
v -0.0563084 0.05998312 -0.1347775
v 0.1223753 -0.163716 0.1040799
v 0.05393347 -0.2101095 0.1224535
v 0.06082359 -0.06817305 -0.04566532
v -0.03242268 0.0774381 -0.1379929
v 0.09022142 -0.1935732 0.1224535
v 0.06541699 -0.2105688 0.1366931
v 0.1191599 -0.01764552 -0.04566532
v 0.1848457 -0.07414448 0.06871061
v -0.01037429 0.09489305 -0.1370742
v 0.16096 0.04758091 -0.04566532
v 0.2238897 0.01864244 0.04574357
v 0.01351145 0.1146447 -0.1320215
v 0.1830083 0.1215348 -0.04566532
v 0.2427227 0.1128073 0.03426002
v 0.04336862 0.1417459 -0.1209973
v 0.1830083 0.1987041 -0.04566532
v 0.2422633 0.2074316 0.03334133
v 0.08930273 0.1853833 -0.09619285
v 0.1765776 0.2198338 -0.04566532
v 0.2390479 0.2212119 0.03471936
v 0.183927 0.2198338 -0.0364785
v 0.1118104 0.2046756 -0.08149394
v 0.107217 0.2032976 -0.08424999
v 0.2422633 0.2074316 0.03334133
v 0.1990853 0.172981 0.05768643
v 0.1986259 0.1991635 0.05722709
v 0.2390479 0.2212119 0.03471936
v 0.1118104 0.2046756 -0.08149394
v 0.07598184 0.1849239 -0.06036425
v 0.07138844 0.1826272 -0.06357963
v 0.107217 0.2032976 -0.08424999
v 0.2422633 0.2074316 0.03334133
v 0.2427227 0.1128073 0.03426002
v 0.2238897 0.01864244 0.04574357
v 0.1990853 0.172981 0.05768643
v 0.1990853 0.1192381 0.05814578
v 0.1848457 -0.07414448 0.06871061
v 0.1830083 0.03747542 0.06825127
v 0.1223753 -0.163716 0.1040799
v 0.1490171 -0.04336862 0.08800294
v 0.09481484 -0.1209973 0.1187788
v 0.09022142 -0.1935732 0.1224535
v 0.0475027 -0.165094 0.1458799
v 0.06541699 -0.2105688 0.1366931
v 0.01580815 -0.1862237 0.1633349
v 0.007080674 -0.1894391 0.1683876
v 0.1499358 0.1982448 -0.005702645
v 0.183927 0.2198338 -0.0364785
v 0.2390479 0.2212119 0.03471936
v 0.1834677 0.1987041 0.03747542
v 0.1986259 0.1991635 0.05722709
v -0.2225899 -0.1508544 0.04895894
v -0.2023789 -0.144883 0.112348
v -0.1973261 -0.146261 0.1114293
v -0.2152404 -0.1531512 0.04804026
v 0.07598184 0.1849239 -0.06036425
v 0.1118104 0.2046756 -0.08149394
v 0.1765776 0.2198338 -0.04566532
v 0.1476391 0.1936514 -0.01029606
v 0.183927 0.2198338 -0.0364785
v 0.1499358 0.1982448 -0.005702645
v -0.0563084 0.05998312 -0.1347775
v -0.03242268 0.0774381 -0.1379929
v -0.01037429 0.09489305 -0.1370742
v 0.01351145 0.1146447 -0.1320215
v -0.08570625 0.04023145 -0.1265094
v 0.04336862 0.1417459 -0.1209973
v -0.1288843 0.01313032 -0.1085951
v -0.03655674 0.08340953 -0.1108918
v -0.01588638 0.09948646 -0.1099731
v -0.05860512 0.06779192 -0.107217
v 0.08930273 0.1853833 -0.09619285
v 0.005702645 0.1183195 -0.1040017
v 0.03234443 0.1431239 -0.09114011
v 0.107217 0.2032976 -0.08424999
v 0.07138844 0.1826272 -0.06357963
v -0.212025 -0.03601916 -0.06587633
v -0.08570625 0.05033697 -0.09757088
v -0.1247502 0.02691056 -0.07781921
v -0.1968668 -0.01259276 -0.03142576
v -0.2230492 -0.04244994 -0.05944556
v -0.2046756 -0.01672684 -0.02591366
v -0.2069723 -0.06266095 0.01588638
v -0.226724 -0.08195327 -0.0318851
v -0.2271833 -0.07046975 -0.04566532
v -0.2253459 -0.05668952 -0.05255544
v -0.2083503 -0.04061258 -0.01029606
v -0.2230492 -0.04244994 -0.05944556
v -0.2069723 -0.02821037 -0.01856421
v -0.2046756 -0.01672684 -0.02591366
v -0.2230492 -0.1425863 0.03931279
v -0.2028382 -0.1389116 0.1054579
v -0.2023789 -0.144883 0.112348
v -0.2225899 -0.1508544 0.04895894
v -0.2028382 -0.1389116 0.1054579
v -0.2230492 -0.1425863 0.03931279
v -0.226724 -0.08195327 -0.0318851
v -0.2069723 -0.06266095 0.01588638
v -0.02323584 -0.1857644 0.1458799
v 0.007080674 -0.1894391 0.1683876
v 0.06541699 -0.2105688 0.1366931
v 0.05393347 -0.2101095 0.1224535
v -0.08570625 -0.1742809 0.1187788
v -0.1775745 -0.1522325 0.1072953
v 0.0217796 -0.205516 0.09948646
v -0.08570625 -0.1862237 0.053093
v -0.1973261 -0.146261 0.1114293
v -0.2152404 -0.1531512 0.04804026
v -0.1807898 -0.1632567 0.04115014
vt 0.7333333 0.5529412
vt 0.6588235 0.5215687
vt 0.6627451 0.5215687
vt 0.7372549 0.5529412
vt 0.6196079 0.5058824
vt 0.7372549 0.5529412
vt 0.7176471 0.5529412
vt 0.5921569 0.4980392
vt 0.6784314 0.5529412
vt 0.5686275 0.4941176
vt 0.627451 0.5529412
vt 0.5490196 0.4941176
vt 0.5686275 0.5529412
vt 0.6078432 0.6666667
vt 0.5254902 0.4941176
vt 0.6980392 0.6470588
vt 0.7529412 0.6235294
vt 0.7843137 0.6078432
vt 0.8 0.6039216
vt 0.8 0.6039216
vt 0.6470588 0.6666667
vt 0.8 0.6039216
vt 0.7803922 0.5882353
vt 0.7372549 0.5568628
vt 0.6117647 0.682353
vt 0.6 0.6862745
vt 0.5686275 0.6666667
vt 0.5019608 0.6470588
vt 0.5019608 0.5529412
vt 0.5019608 0.5019608
vt 0.4 0.6392157
vt 0.4313726 0.5529412
vt 0.4588235 0.5137255
vt 0.3882353 0.5411765
vt 0.3764706 0.5529412
vt 0.3764706 0.5490196
vt 0.3803922 0.5450981
vt 0.3764706 0.572549
vt 0.372549 0.6352941
vt 0.372549 0.6431373
vt 0.3803922 0.6392157
vt 0.372549 0.6156863
vt 0.3764706 0.6156863
vt 0.4117647 0.6117647
vt 0.372549 0.6117647
vt 0.3764706 0.5607843
vt 0.3764706 0.5529412
vt 0.4313726 0.5529412
vt 0.5019608 0.5529412
vt 0.5019608 0.6196079
vt 0.3882353 0.5372549
vt 0.3764706 0.5490196
vt 0.3803922 0.5411765
vt 0.4627451 0.509804
vt 0.5019608 0.4980392
vt 0.5686275 0.5529412
vt 0.6039216 0.6509804
vt 0.5254902 0.4901961
vt 0.7019608 0.654902
vt 0.6352941 0.6666667
vt 0.627451 0.5529412
vt 0.5450981 0.4901961
vt 0.6705883 0.6666667
vt 0.6470588 0.6784314
vt 0.6784314 0.5529412
vt 0.7568628 0.6313726
vt 0.5647059 0.4901961
vt 0.7176471 0.5529412
vt 0.7921569 0.6156863
vt 0.5843138 0.4941176
vt 0.7372549 0.5529412
vt 0.8078431 0.6078432
vt 0.6117647 0.5019608
vt 0.7372549 0.5529412
vt 0.8078431 0.6078432
vt 0.6509804 0.5176471
vt 0.7294118 0.5529412
vt 0.8039216 0.6078432
vt 0.7372549 0.5607843
vt 0.6705883 0.5294118
vt 0.6666667 0.5254902
vt 0.09411765 0.09411765
vt 0.1921569 0.1921569
vt 0.2117647 0
vt 0.1098039 0
vt 1 0.427451
vt 1 0.3686275
vt 0.627451 0
vt 0.5686275 0
vt 0.09411765 0
vt 0.2745098 0.1294118
vt 0.4627451 0.2313726
vt 0.1921569 0
vt 0.2941177 0.07058824
vt 0.6666667 0.3098039
vt 0.4588235 0.1607843
vt 0.8745098 0.3568628
vt 0.6313726 0.227451
vt 0.8117647 0.2705882
vt 0.9529412 0.3607843
vt 0.9254902 0.2745098
vt 1 0.3529412
vt 0.9882353 0.2666667
vt 1 0.2588235
vt 0.454902 0.454902
vt 0.5137255 0.5137255
vt 0.8901961 0
vt 0.6862745 0.145098
vt 0.7882353 0
vt 0.5529412 0.5529412
vt 0.6862745 0.6862745
vt 1 0.7137255
vt 1 0.5882353
vt 0.3686275 0.3686275
vt 0.427451 0.427451
vt 0.9176471 0.5058824
vt 0.9607843 0.4509804
vt 1 0.5137255
vt 1 0.454902
vt 0.682353 0.4980392
vt 0.6431373 0.5137255
vt 0.6078432 0.5372549
vt 0.5764706 0.003921569
vt 0.7333333 0.4901961
vt 0.6980392 0.1294118
vt 0.8156863 0.4980392
vt 0.6705883 0.5882353
vt 0.6392157 0.6117647
vt 0.7058824 0.5764706
vt 0.9098039 0.3411765
vt 0.6705883 0.05098039
vt 0.7882353 0.1686275
vt 1 0.4313726
vt 1 0.372549
vt 0.9803922 0.5372549
vt 0.7568628 0.572549
vt 0.8352941 0.5921569
vt 0.9843137 0.6509804
vt 1 0.5450981
vt 1 0.6588235
vt 0.5137255 0
vt 0.4078431 0
vt 0.4392157 0.1803922
vt 0.4862745 0.3568628
vt 0.5764706 0.345098
vt 0.5372549 0.5372549
vt 0.6156863 0.509804
vt 0.654902 0.654902
vt 0.5372549 0.5372549
vt 0.6784314 0.6784314
vt 1 0.6862745
vt 1 0.5529412
vt 1 0.6784314
vt 1 0.5372549
vt 0.5921569 0
vt 0.4862745 0
vt 0.9529412 0.1647059
vt 0.7411765 0
vt 0.6470588 0
vt 0.7490196 0.08627451
vt 0.254902 0.1372549
vt 0.2901961 0.02745098
vt 0.972549 0.254902
vt 0.3803922 0.1607843
vt 0.2862745 0
vt 0.4117647 0
vt 0.4196078 0.04705882
vn -0.7243208 -0.0543772 0.6873154
vn -0.5745712 -0.02442724 0.81809
vn -0.5446213 -0.1741769 0.8203962
vn -0.6943709 0.09537238 0.7132693
vn -0.5446213 0.1253224 0.8292659
vn -0.7243208 -0.0543772 0.6873154
vn -0.634471 0.3050219 0.710217
vn -0.5146714 0.245122 0.8216012
vn -0.5146714 0.4547715 0.72684
vn -0.4248216 0.3948717 0.8146183
vn -0.3649217 0.5745712 0.7325982
vn -0.3050219 0.4847214 0.8197603
vn -0.1852222 0.6644209 0.7240425
vn -0.245122 0.8441204 0.4768395
vn -0.1852222 0.5446213 0.8179733
vn -0.3948717 0.6943709 0.6016024
vn -0.5745712 0.5446213 0.6109465
vn -0.7243208 0.3349718 0.6026219
vn -0.7842206 0.1253224 0.6076943
vn -0.7842206 0.005522668 0.6204575
vn -0.3349718 0.7542707 0.5646853
vn -0.7842206 0.005522668 0.6204575
vn -0.7842206 0.005522668 0.6204575
vn -0.7542707 -0.2340767 0.6134197
vn -0.2151721 0.9040204 0.3693889
vn -0.1253224 0.9339703 0.3346548
vn -0.1253224 0.8141705 0.5669397
vn -0.03547257 0.7842206 0.6194673
vn -0.005522668 0.6943709 0.7195961
vn -0.03547257 0.5745712 0.8176855
vn 0.2340767 0.7542707 0.6134197
vn 0.2041268 0.6644209 0.7189417
vn 0.114277 0.5446213 0.83086
vn 0.2640266 0.5146714 0.8157225
vn 0.2939765 0.6045211 0.7403594
vn 0.2640266 0.5146714 0.8157225
vn 0.3838263 0.4248216 0.8198805
vn 0.3239264 0.7243208 0.6086304
vn 0.3239264 0.7243208 0.6086304
vn 0.3239264 0.7243208 0.6086304
vn 0.3239264 0.7243208 0.6086304
vn -0.3349718 -0.7132754 -0.6156558
vn -0.3349718 -0.7132754 -0.6156558
vn -0.2151721 -0.7731753 -0.5965744
vn -0.3349718 -0.7132754 -0.6156558
vn -0.3349718 -0.7132754 -0.6156558
vn -0.245122 -0.5635259 -0.7888941
vn -0.1852222 -0.6234257 -0.759627
vn -0.005522668 -0.6533756 -0.7570137
vn 0.02442724 -0.8031253 -0.5953093
vn -0.2151721 -0.4137762 -0.8845848
vn -0.2151721 -0.4137762 -0.8845848
vn -0.3050219 -0.3538764 -0.8841567
vn -0.09537238 -0.4736761 -0.8755199
vn 0.02442724 -0.4736761 -0.8803603
vn 0.1741769 -0.6234257 -0.7622354
vn 0.2640266 -0.7432254 -0.6147406
vn 0.144227 -0.4437262 -0.8844804
vn 0.4137762 -0.6833255 -0.6015442
vn 0.3538764 -0.7731753 -0.5262808
vn 0.3538764 -0.5635259 -0.7464651
vn 0.2640266 -0.3838263 -0.8848544
vn 0.3538764 -0.7432254 -0.5677918
vn 0.3838263 -0.8630251 -0.3284282
vn 0.503626 -0.4437262 -0.7412611
vn 0.5934758 -0.5335759 -0.6025639
vn 0.3538764 -0.3239264 -0.877407
vn 0.5934758 -0.2640266 -0.7603133
vn 0.7132754 -0.3538764 -0.6049873
vn 0.4137762 -0.2041268 -0.8871987
vn 0.6533756 -0.0843271 -0.7523226
vn 0.7731753 -0.114277 -0.6238115
vn 0.4736761 -0.0843271 -0.8766527
vn 0.6533756 0.09537238 -0.7510023
vn 0.7731753 0.1253224 -0.6216866
vn 0.4736761 0.03547257 -0.8799844
vn 0.6234257 0.1852222 -0.759627
vn 0.7731753 0.2151721 -0.5965744
vn 0.7731753 0.2151721 -0.5965744
vn 0.4437262 0.1253224 -0.8873564
vn 0.4437262 0.1253224 -0.8873564
vn 0.4736761 0.005522668 0.8806818
vn 0.4736761 0.005522668 0.8806818
vn 0.4736761 0.005522668 0.8806818
vn 0.4736761 0.005522668 0.8806818
vn -0.4248216 0.9040204 0.04768498
vn -0.4248216 0.9040204 0.04768498
vn -0.4248216 0.9040204 0.04768498
vn -0.4248216 0.9040204 0.04768498
vn 0.4736761 0.005522668 0.8806818
vn 0.4736761 0.005522668 0.8806818
vn 0.4736761 0.005522668 0.8806818
vn 0.4736761 0.005522668 0.8806818
vn 0.4736761 0.005522668 0.8806818
vn 0.4736761 0.005522668 0.8806818
vn 0.4736761 0.005522668 0.8806818
vn 0.4736761 0.005522668 0.8806818
vn 0.4736761 0.005522668 0.8806818
vn 0.4736761 0.005522668 0.8806818
vn 0.4736761 0.005522668 0.8806818
vn 0.4736761 0.005522668 0.8806818
vn 0.4736761 0.005522668 0.8806818
vn 0.4736761 0.005522668 0.8806818
vn 0.4736761 0.005522668 0.8806818
vn -0.3349718 0.9040204 0.2655956
vn -0.3349718 0.9040204 0.2655956
vn -0.3349718 0.9040204 0.2655956
vn -0.3349718 0.9040204 0.2655956
vn -0.3349718 0.9040204 0.2655956
vn -0.245122 -0.9528748 0.1787308
vn -0.245122 -0.9528748 0.1787308
vn -0.245122 -0.9528748 0.1787308
vn -0.245122 -0.9528748 0.1787308
vn -0.3649217 0.8740703 0.3206761
vn -0.3649217 0.8740703 0.3206761
vn -0.3649217 0.8740703 0.3206761
vn -0.3649217 0.8740703 0.3206761
vn -0.3649217 0.8740703 0.3206761
vn -0.3649217 0.8740703 0.3206761
vn -0.5745712 0.7542707 -0.3177162
vn -0.5745712 0.7542707 -0.3177162
vn -0.5745712 0.7542707 -0.3177162
vn -0.5745712 0.7542707 -0.3177162
vn -0.5745712 0.7542707 -0.3177162
vn -0.5745712 0.7542707 -0.3177162
vn -0.5745712 0.7542707 -0.3177162
vn -0.5745712 0.7542707 -0.3177162
vn -0.5745712 0.7542707 -0.3177162
vn -0.5745712 0.7542707 -0.3177162
vn -0.5745712 0.7542707 -0.3177162
vn -0.5745712 0.7542707 -0.3177162
vn -0.5745712 0.7542707 -0.3177162
vn -0.5745712 0.7542707 -0.3177162
vn -0.5745712 0.7542707 -0.3177162
vn -0.5745712 0.7542707 -0.3177162
vn -0.5745712 0.7542707 -0.3177162
vn -0.5745712 0.7542707 -0.3177162
vn -0.5745712 0.7542707 -0.3177162
vn -0.5745712 0.7542707 -0.3177162
vn -0.5745712 0.7542707 -0.3177162
vn -0.9339703 0.2750719 0.2281118
vn -0.9339703 0.2750719 0.2281118
vn -0.9339703 0.2750719 0.2281118
vn -0.9339703 0.2750719 0.2281118
vn -0.9339703 0.2750719 0.2281118
vn -0.9339703 0.2750719 0.2281118
vn -0.9339703 0.2750719 0.2281118
vn -0.9339703 0.2750719 0.2281118
vn -0.9339703 0.245122 0.2600284
vn -0.9339703 0.245122 0.2600284
vn -0.9339703 0.245122 0.2600284
vn -0.9339703 0.245122 0.2600284
vn -0.9339703 0.2750719 0.2281118
vn -0.9339703 0.2750719 0.2281118
vn -0.9339703 0.2750719 0.2281118
vn -0.9339703 0.2750719 0.2281118
vn -0.245122 -0.9528748 0.1787308
vn -0.245122 -0.9528748 0.1787308
vn -0.245122 -0.9528748 0.1787308
vn -0.245122 -0.9528748 0.1787308
vn -0.245122 -0.9528748 0.1787308
vn -0.245122 -0.9528748 0.1787308
vn -0.245122 -0.9528748 0.1787308
vn -0.245122 -0.9528748 0.1787308
vn -0.245122 -0.9528748 0.1787308
vn -0.245122 -0.9528748 0.1787308
vn -0.245122 -0.9528748 0.1787308
g Calice_cell.018_0
f 3/3/3 2/2/2 1/1/1
f 5/5/5 4/4/4 2/2/2
f 4/4/4 6/6/6 2/2/2
f 7/7/7 4/4/4 5/5/5
f 8/8/8 7/7/7 5/5/5
f 9/9/9 7/7/7 8/8/8
f 10/10/10 9/9/9 8/8/8
f 11/11/11 9/9/9 10/10/10
f 12/12/12 11/11/11 10/10/10
f 13/13/13 11/11/11 12/12/12
f 11/11/11 13/13/13 14/14/14
f 15/15/15 13/13/13 12/12/12
f 11/11/11 16/16/16 9/9/9
f 14/14/14 16/16/16 11/11/11
f 16/16/16 17/17/17 9/9/9
f 9/9/9 17/17/17 7/7/7
f 17/17/17 18/18/18 7/7/7
f 7/7/7 18/18/18 4/4/4
f 18/18/18 19/19/19 4/4/4
f 4/4/4 19/19/19 20/20/20
f 14/14/14 21/21/21 16/16/16
f 20/20/20 6/6/6 4/4/4
f 20/20/20 22/22/22 6/6/6
f 22/22/22 23/23/23 6/6/6
f 24/24/24 6/6/6 23/23/23
f 21/21/21 14/14/14 25/25/25
f 26/26/26 25/25/25 14/14/14
f 27/27/27 26/26/26 14/14/14
f 28/28/28 27/27/27 14/14/14
f 28/28/28 14/14/14 13/13/13
f 13/13/13 29/29/29 28/28/28
f 29/29/29 13/13/13 15/15/15
f 30/30/30 29/29/29 15/15/15
f 31/31/31 28/28/28 29/29/29
f 32/32/32 29/29/29 30/30/30
f 32/32/32 31/31/31 29/29/29
f 33/33/33 32/32/32 30/30/30
f 32/32/32 33/33/33 34/34/34
f 34/34/34 35/35/35 32/32/32
f 34/34/34 36/36/36 35/35/35
f 37/37/37 36/36/36 34/34/34
f 32/32/32 35/35/35 38/38/38
f 38/38/38 31/31/31 32/32/32
f 38/38/38 39/39/39 31/31/31
f 39/39/39 40/40/40 31/31/31
f 40/40/40 41/41/41 31/31/31
f 44/44/44 43/43/43 42/42/42
f 44/44/44 42/42/42 45/45/45
f 44/44/44 45/45/45 46/46/46
f 44/44/44 46/46/46 47/47/47
f 47/47/47 48/48/48 44/44/44
f 44/44/44 48/48/48 49/49/49
f 50/50/50 44/44/44 49/49/49
f 48/48/48 47/47/47 51/51/51
f 47/47/47 52/52/52 51/51/51
f 53/53/53 51/51/51 52/52/52
f 51/51/51 54/54/54 48/48/48
f 49/49/49 48/48/48 54/54/54
f 55/55/55 49/49/49 54/54/54
f 50/50/50 49/49/49 56/56/56
f 56/56/56 49/49/49 55/55/55
f 57/57/57 50/50/50 56/56/56
f 58/58/58 56/56/56 55/55/55
f 59/59/59 57/57/57 56/56/56
f 59/59/59 60/60/60 57/57/57
f 61/61/61 56/56/56 58/58/58
f 56/56/56 61/61/61 59/59/59
f 62/62/62 61/61/61 58/58/58
f 59/59/59 63/63/63 60/60/60
f 64/64/64 60/60/60 63/63/63
f 59/59/59 61/61/61 65/65/65
f 65/65/65 61/61/61 62/62/62
f 66/66/66 59/59/59 65/65/65
f 67/67/67 65/65/65 62/62/62
f 66/66/66 65/65/65 68/68/68
f 68/68/68 65/65/65 67/67/67
f 69/69/69 66/66/66 68/68/68
f 70/70/70 68/68/68 67/67/67
f 69/69/69 68/68/68 71/71/71
f 71/71/71 68/68/68 70/70/70
f 72/72/72 69/69/69 71/71/71
f 73/73/73 71/71/71 70/70/70
f 72/72/72 71/71/71 74/74/74
f 74/74/74 71/71/71 73/73/73
f 75/75/75 72/72/72 74/74/74
f 76/76/76 74/74/74 73/73/73
f 75/75/75 74/74/74 77/77/77
f 77/77/77 74/74/74 76/76/76
f 77/77/77 78/78/78 75/75/75
f 77/77/77 79/79/79 78/78/78
f 76/76/76 80/80/80 77/77/77
f 76/76/76 81/81/81 80/80/80
f 84/84/84 83/83/83 82/82/82
f 85/85/85 84/84/84 82/82/82
f 88/88/88 87/87/87 86/86/86
f 89/89/89 88/88/88 86/86/86
f 92/92/92 91/91/91 90/90/90
f 90/90/90 93/93/93 92/92/92
f 93/93/93 94/94/94 92/92/92
f 95/95/95 92/92/92 94/94/94
f 94/94/94 96/96/96 95/95/95
f 96/96/96 97/97/97 95/95/95
f 96/96/96 98/98/98 97/97/97
f 98/98/98 99/99/99 97/97/97
f 99/99/99 100/100/100 97/97/97
f 99/99/99 101/101/101 100/100/100
f 101/101/101 102/102/102 100/100/100
f 101/101/101 103/103/103 102/102/102
f 103/103/103 104/104/104 102/102/102
f 107/107/107 106/106/106 105/105/105
f 105/105/105 108/108/108 107/107/107
f 108/108/108 109/109/109 107/107/107
f 112/112/112 111/111/111 110/110/110
f 113/113/113 112/112/112 110/110/110
f 116/116/116 115/115/115 114/114/114
f 114/114/114 117/117/117 116/116/116
f 117/117/117 118/118/118 116/116/116
f 117/117/117 119/119/119 118/118/118
f 122/122/122 121/121/121 120/120/120
f 120/120/120 123/123/123 122/122/122
f 120/120/120 124/124/124 123/123/123
f 124/124/124 125/125/125 123/123/123
f 124/124/124 126/126/126 125/125/125
f 126/126/126 127/127/127 125/125/125
f 125/125/125 127/127/127 128/128/128
f 126/126/126 129/129/129 127/127/127
f 128/128/128 130/130/130 125/125/125
f 128/128/128 131/131/131 130/130/130
f 131/131/131 132/132/132 130/130/130
f 132/132/132 133/133/133 130/130/130
f 132/132/132 134/134/134 133/133/133
f 126/126/126 135/135/135 129/129/129
f 135/135/135 136/136/136 129/129/129
f 135/135/135 137/137/137 136/136/136
f 135/135/135 138/138/138 137/137/137
f 135/135/135 139/139/139 138/138/138
f 139/139/139 140/140/140 138/138/138
f 143/143/143 142/142/142 141/141/141
f 141/141/141 144/144/144 143/143/143
f 141/141/141 145/145/145 144/144/144
f 145/145/145 146/146/146 144/144/144
f 145/145/145 147/147/147 146/146/146
f 147/147/147 148/148/148 146/146/146
f 151/151/151 150/150/150 149/149/149
f 152/152/152 151/151/151 149/149/149
f 155/155/155 154/154/154 153/153/153
f 156/156/156 155/155/155 153/153/153
f 159/159/159 158/158/158 157/157/157
f 160/160/160 159/159/159 157/157/157
f 160/160/160 157/157/157 161/161/161
f 160/160/160 161/161/161 162/162/162
f 162/162/162 163/163/163 160/160/160
f 164/164/164 163/163/163 162/162/162
f 164/164/164 162/162/162 165/165/165
f 164/164/164 165/165/165 166/166/166
f 166/166/166 167/167/167 164/164/164
