g Carota.011
v -0.9770452 0.2747887 -0.1943452
v -0.9961985 0.2747887 1.502037E-05
v -0.9818488 -0.274789 1.502037E-05
v -0.9629691 -0.274789 -0.1915482
v -0.9203759 0.2747887 -0.3812265
v -0.9070901 -0.274789 -0.3757237
v -0.8283185 0.2747887 -0.553454
v -0.8163704 -0.274789 -0.5454887
v -0.7044302 0.2747887 -0.7044305
v -0.6942759 -0.274789 -0.6942762
v -0.5534537 0.2747887 -0.8283188
v -0.5454883 -0.274789 -0.8163708
v -0.3812261 0.2747887 -0.9203762
v -0.3757234 -0.274789 -0.9070905
v -0.1943448 0.2747887 -0.9770455
v -0.1915478 -0.274789 -0.9629694
v -1.502037E-05 0.2747887 -0.9961988
v -1.502037E-05 -0.274789 -0.9818491
v 0.1943452 0.2747887 -0.9770455
v 0.1915482 -0.274789 -0.9629694
v 0.3812265 0.2747887 -0.9203762
v 0.3757237 -0.274789 -0.9070905
v 0.553454 0.2747887 -0.8283188
v 0.5454887 -0.274789 -0.8163708
v 0.7044305 0.2747887 -0.7044305
v 0.6942762 -0.274789 -0.6942762
v 0.8283188 0.2747887 -0.553454
v 0.8163708 -0.274789 -0.5454887
v 0.9203762 0.2747887 -0.3812265
v 0.9070905 -0.274789 -0.3757237
v 0.9770455 0.2747887 -0.1943452
v 0.9629694 -0.274789 -0.1915482
v 0.9961988 0.2747887 -1.5378E-05
v 0.9818491 -0.274789 -1.5378E-05
v -0.9961985 0.2747887 1.502037E-05
v -0.9629691 -0.274789 0.1915478
v -0.9818488 -0.274789 1.502037E-05
v -0.9770452 0.2747887 0.1943448
v -0.9070901 -0.274789 0.3757234
v -0.9203759 0.2747887 0.3812261
v -0.8163704 -0.274789 0.5454883
v -0.8283185 0.2747887 0.5534537
v -0.6942759 -0.274789 0.6942759
v -0.7044302 0.2747887 0.7044302
v -0.5454883 -0.274789 0.8163704
v -0.5534537 0.2747887 0.8283185
v -0.3757234 -0.274789 0.9070901
v -0.3812261 0.2747887 0.9203759
v -0.1915478 -0.274789 0.9629691
v -0.1943448 0.2747887 0.9770452
v -1.502037E-05 -0.274789 0.9818488
v -1.502037E-05 0.2747887 0.9961985
v 0.1915482 -0.274789 0.9629691
v 0.1943452 0.2747887 0.9770452
v 0.3757237 -0.274789 0.9070901
v 0.3812265 0.2747887 0.9203759
v 0.5454887 -0.274789 0.8163704
v 0.553454 0.2747887 0.8283185
v 0.6942762 -0.274789 0.6942759
v 0.7044305 0.2747887 0.7044302
v 0.8163708 -0.274789 0.5454883
v 0.8283188 0.2747887 0.5534537
v 0.9070905 -0.274789 0.3757234
v 0.9203762 0.2747887 0.3812261
v 0.9629694 -0.274789 0.1915478
v 0.9770455 0.2747887 0.1943448
v 0.9818491 -0.274789 -1.5378E-05
v 0.9961988 0.2747887 -1.5378E-05
v -0.1943448 0.2747887 -0.9770455
v -1.502037E-05 0.2747887 -0.9961988
v 0.1943452 0.2747887 -0.9770455
v 0.3812265 0.2747887 -0.9203762
v -0.3812261 0.2747887 -0.9203762
v 0.553454 0.2747887 -0.8283188
v -0.5534537 0.2747887 -0.8283188
v 0.7044305 0.2747887 -0.7044305
v -0.7044302 0.2747887 -0.7044305
v 0.8283188 0.2747887 -0.553454
v -0.8283185 0.2747887 -0.553454
v 0.9203762 0.2747887 -0.3812265
v -0.9203759 0.2747887 -0.3812265
v 0.9770455 0.2747887 -0.1943452
v -0.9770452 0.2747887 -0.1943452
v 0.9961988 0.2747887 -1.5378E-05
v -0.9961985 0.2747887 1.502037E-05
v 0.9770455 0.2747887 0.1943448
v -0.9770452 0.2747887 0.1943448
v 0.9203762 0.2747887 0.3812261
v -0.9203759 0.2747887 0.3812261
v 0.8283188 0.2747887 0.5534537
v -0.8283185 0.2747887 0.5534537
v 0.7044305 0.2747887 0.7044302
v -0.7044302 0.2747887 0.7044302
v 0.553454 0.2747887 0.8283185
v -0.5534537 0.2747887 0.8283185
v 0.3812265 0.2747887 0.9203759
v -0.3812261 0.2747887 0.9203759
v 0.1943452 0.2747887 0.9770452
v -0.1943448 0.2747887 0.9770452
v -1.502037E-05 0.2747887 0.9961985
v 0.1915482 -0.274789 -0.9629694
v -1.502037E-05 -0.274789 -0.9818491
v -0.1915478 -0.274789 -0.9629694
v 0.3757237 -0.274789 -0.9070905
v -0.3757234 -0.274789 -0.9070905
v 0.5454887 -0.274789 -0.8163708
v -0.5454883 -0.274789 -0.8163708
v 0.6942762 -0.274789 -0.6942762
v -0.6942759 -0.274789 -0.6942762
v 0.8163708 -0.274789 -0.5454887
v -0.8163704 -0.274789 -0.5454887
v 0.9070905 -0.274789 -0.3757237
v -0.9070901 -0.274789 -0.3757237
v 0.9629694 -0.274789 -0.1915482
v -0.9629691 -0.274789 -0.1915482
v 0.9818491 -0.274789 -1.5378E-05
v -0.9818488 -0.274789 1.502037E-05
v 0.9629694 -0.274789 0.1915478
v -0.9629691 -0.274789 0.1915478
v 0.9070905 -0.274789 0.3757234
v -0.9070901 -0.274789 0.3757234
v 0.8163708 -0.274789 0.5454883
v -0.8163704 -0.274789 0.5454883
v 0.6942762 -0.274789 0.6942759
v -0.6942759 -0.274789 0.6942759
v 0.5454887 -0.274789 0.8163704
v -0.5454883 -0.274789 0.8163704
v 0.3757237 -0.274789 0.9070901
v -0.3757234 -0.274789 0.9070901
v 0.1915482 -0.274789 0.9629691
v -0.1915478 -0.274789 0.9629691
v -1.502037E-05 -0.274789 0.9818488
vt 0.0389079 0.5956321
vt 0.03712923 0.5956321
vt 0.03801857 0.5467186
vt 0.03979724 0.5467186
vt 0.04424392 0.5956321
vt 0.04513325 0.5467186
vt 0.05224794 0.5956321
vt 0.05313727 0.5467186
vt 0.06291997 0.5956321
vt 0.06380931 0.5467186
vt 0.07626 0.5956321
vt 0.07714934 0.5467186
vt 0.09137872 0.5956321
vt 0.09226805 0.5467186
vt 0.1082761 0.5956321
vt 0.1082761 0.5467186
vt 0.1260628 0.5956321
vt 0.1260628 0.5467186
vt 0.1429602 0.5956321
vt 0.1429602 0.5467186
vt 0.1598576 0.5956321
vt 0.1589682 0.5467186
vt 0.1749763 0.5956321
vt 0.1740869 0.5467186
vt 0.1883163 0.5956321
vt 0.187427 0.5467186
vt 0.1989883 0.5956321
vt 0.198099 0.5467186
vt 0.2078817 0.5956321
vt 0.206103 0.5467186
vt 0.2123284 0.5956321
vt 0.211439 0.5467186
vt 0.214107 0.5956321
vt 0.2132177 0.5467186
vt 0.03712923 0.5956321
vt 0.03979724 0.5467186
vt 0.03801857 0.5467186
vt 0.0389079 0.5956321
vt 0.04513325 0.5467186
vt 0.04424392 0.5956321
vt 0.05313727 0.5467186
vt 0.05224794 0.5956321
vt 0.06380931 0.5467186
vt 0.06291997 0.5956321
vt 0.07714934 0.5467186
vt 0.07626 0.5956321
vt 0.09226805 0.5467186
vt 0.09137872 0.5956321
vt 0.1082761 0.5467186
vt 0.1082761 0.5956321
vt 0.1260628 0.5467186
vt 0.1260628 0.5956321
vt 0.1429602 0.5467186
vt 0.1429602 0.5956321
vt 0.1589682 0.5467186
vt 0.1598576 0.5956321
vt 0.1740869 0.5467186
vt 0.1749763 0.5956321
vt 0.187427 0.5467186
vt 0.1883163 0.5956321
vt 0.198099 0.5467186
vt 0.1989883 0.5956321
vt 0.206103 0.5467186
vt 0.2078817 0.5956321
vt 0.211439 0.5467186
vt 0.2123284 0.5956321
vt 0.2132177 0.5467186
vt 0.214107 0.5956321
vt 0.4693464 0.6472136
vt 0.4995838 0.6436562
vt 0.5289319 0.6472136
vt 0.5573906 0.6552176
vt 0.4408877 0.6552176
vt 0.5831814 0.6694469
vt 0.4150969 0.6694469
vt 0.6063041 0.688123
vt 0.3919742 0.688123
vt 0.6249802 0.7112457
vt 0.3732981 0.7112457
vt 0.6392096 0.7370365
vt 0.3590688 0.7370365
vt 0.6481029 0.7654952
vt 0.3501754 0.7654952
vt 0.6507709 0.7957326
vt 0.3475074 0.7957326
vt 0.6481029 0.8250807
vt 0.3501754 0.8250807
vt 0.6392096 0.8535395
vt 0.3590688 0.8535395
vt 0.6249802 0.8793302
vt 0.3732981 0.8793302
vt 0.6063041 0.9024529
vt 0.3919742 0.9024529
vt 0.5831814 0.921129
vt 0.4150969 0.921129
vt 0.5573906 0.9353583
vt 0.4408877 0.9353583
vt 0.5289319 0.9442517
vt 0.4693464 0.9442517
vt 0.4995838 0.9469197
vt 0.5280426 0.6489922
vt 0.4995838 0.6463242
vt 0.4702357 0.6489922
vt 0.5565013 0.6578856
vt 0.441777 0.6578856
vt 0.5822921 0.6712256
vt 0.4159863 0.6712256
vt 0.6045254 0.6899017
vt 0.3937529 0.6899017
vt 0.6232015 0.7121351
vt 0.3750768 0.7121351
vt 0.6374308 0.7379258
vt 0.3608474 0.7379258
vt 0.6454349 0.7663845
vt 0.3528434 0.7663845
vt 0.6481029 0.7957326
vt 0.3501754 0.7957326
vt 0.6454349 0.8241914
vt 0.3528434 0.8241914
vt 0.6374308 0.8526501
vt 0.3608474 0.8526501
vt 0.6232015 0.8784409
vt 0.3750768 0.8784409
vt 0.6045254 0.9006743
vt 0.3937529 0.9006743
vt 0.5822921 0.9193503
vt 0.4159863 0.9193503
vt 0.5565013 0.9335797
vt 0.441777 0.9335797
vt 0.5280426 0.9415837
vt 0.4702357 0.9415837
vt 0.4995838 0.9451411
vn -0.723821 0.6776811 -0.129736
vn -0.735356 0.677681 0
vn -0.7180536 -0.6949835 -0.03737704
vn -0.7065185 -0.6949835 -0.1335274
vn -0.6776811 0.6776811 -0.2854762
vn -0.6603786 -0.6949835 -0.2844259
vn -0.6142386 0.6776811 -0.404301
vn -0.5969361 -0.6949835 -0.4008307
vn -0.5219586 0.6776811 -0.5179841
vn -0.5046561 -0.6949835 -0.512172
vn -0.4066087 0.6776811 -0.6127134
vn -0.4008411 -0.6949835 -0.5969291
vn -0.2797236 0.6776811 -0.6800757
vn -0.2739562 -0.6949835 -0.6647902
vn -0.1413037 0.6776811 -0.721652
vn -0.1413037 -0.6949835 -0.7050045
vn -0.002883792 0.6776811 -0.7353503
vn -0.002883792 -0.6949835 -0.7190199
vn 0.1413037 0.6776811 -0.721652
vn 0.1413037 -0.6949835 -0.7050045
vn 0.2797236 0.6776811 -0.6800758
vn 0.2739561 -0.6949835 -0.6647902
vn 0.4066086 0.6776811 -0.6127135
vn 0.4008411 -0.6949835 -0.5969291
vn 0.5219585 0.6776811 -0.5179842
vn 0.5046561 -0.6949835 -0.512172
vn 0.6142385 0.6776811 -0.4043011
vn 0.596936 -0.6949835 -0.4008309
vn 0.677681 0.6776811 -0.2854764
vn 0.6603785 -0.6949835 -0.2844261
vn 0.723821 0.6776811 -0.1297362
vn 0.7065185 -0.6949835 -0.1335276
vn 0.735356 0.6776811 0
vn 0.7180535 -0.6949835 -0.03737864
vn -0.735356 0.677681 0
vn -0.7065185 -0.6949835 0.1335274
vn -0.7180536 -0.6949835 -0.03737704
vn -0.723821 0.6776811 0.129736
vn -0.6603786 -0.6949835 0.2844259
vn -0.6776811 0.6776811 0.2854762
vn -0.5969361 -0.6949835 0.4008307
vn -0.6142386 0.6776811 0.404301
vn -0.5046561 -0.6949835 0.512172
vn -0.5219586 0.6776811 0.5179841
vn -0.4008411 -0.6949835 0.5969291
vn -0.4066087 0.6776811 0.6127134
vn -0.2739562 -0.6949835 0.6647902
vn -0.2797236 0.6776811 0.6800757
vn -0.1413037 -0.6949835 0.7050045
vn -0.1413037 0.6776811 0.721652
vn -0.002883792 -0.6949835 0.7190199
vn -0.002883792 0.6776811 0.7353503
vn 0.1413037 -0.6949835 0.7050045
vn 0.1413037 0.6776811 0.721652
vn 0.2739561 -0.6949835 0.6647902
vn 0.2797236 0.6776811 0.6800758
vn 0.4008411 -0.6949835 0.5969291
vn 0.4066086 0.6776811 0.6127135
vn 0.5046561 -0.6949835 0.512172
vn 0.5219585 0.6776811 0.5179842
vn 0.596936 -0.6949835 0.4008309
vn 0.6142385 0.6776811 0.4043011
vn 0.6603785 -0.6949835 0.2844261
vn 0.677681 0.6776811 0.2854764
vn 0.7065185 -0.6949835 0.1335276
vn 0.723821 0.6776811 0.1297362
vn 0.7180535 -0.6949835 -0.03737864
vn 0.735356 0.6776811 0
vn -0.1413037 0.6776811 -0.721652
vn -0.002883792 0.6776811 -0.7353503
vn 0.1413037 0.6776811 -0.721652
vn 0.2797236 0.6776811 -0.6800758
vn -0.2797236 0.6776811 -0.6800757
vn 0.4066086 0.6776811 -0.6127135
vn -0.4066087 0.6776811 -0.6127134
vn 0.5219585 0.6776811 -0.5179842
vn -0.5219586 0.6776811 -0.5179841
vn 0.6142385 0.6776811 -0.4043011
vn -0.6142386 0.6776811 -0.404301
vn 0.677681 0.6776811 -0.2854764
vn -0.6776811 0.6776811 -0.2854762
vn 0.723821 0.6776811 -0.1297362
vn -0.723821 0.6776811 -0.129736
vn 0.735356 0.6776811 0
vn -0.735356 0.677681 0
vn 0.723821 0.6776811 0.1297362
vn -0.723821 0.6776811 0.129736
vn 0.677681 0.6776811 0.2854764
vn -0.6776811 0.6776811 0.2854762
vn 0.6142385 0.6776811 0.4043011
vn -0.6142386 0.6776811 0.404301
vn 0.5219585 0.6776811 0.5179842
vn -0.5219586 0.6776811 0.5179841
vn 0.4066086 0.6776811 0.6127135
vn -0.4066087 0.6776811 0.6127134
vn 0.2797236 0.6776811 0.6800758
vn -0.2797236 0.6776811 0.6800757
vn 0.1413037 0.6776811 0.721652
vn -0.1413037 0.6776811 0.721652
vn -0.002883792 0.6776811 0.7353503
vn 0.1413037 -0.6949835 -0.7050045
vn -0.002883792 -0.6949835 -0.7190199
vn -0.1413037 -0.6949835 -0.7050045
vn 0.2739561 -0.6949835 -0.6647902
vn -0.2739562 -0.6949835 -0.6647902
vn 0.4008411 -0.6949835 -0.5969291
vn -0.4008411 -0.6949835 -0.5969291
vn 0.5046561 -0.6949835 -0.512172
vn -0.5046561 -0.6949835 -0.512172
vn 0.596936 -0.6949835 -0.4008309
vn -0.5969361 -0.6949835 -0.4008307
vn 0.6603785 -0.6949835 -0.2844261
vn -0.6603786 -0.6949835 -0.2844259
vn 0.7065185 -0.6949835 -0.1335276
vn -0.7065185 -0.6949835 -0.1335274
vn 0.7180535 -0.6949835 -0.03737864
vn -0.7180536 -0.6949835 -0.03737704
vn 0.7065185 -0.6949835 0.1335276
vn -0.7065185 -0.6949835 0.1335274
vn 0.6603785 -0.6949835 0.2844261
vn -0.6603786 -0.6949835 0.2844259
vn 0.596936 -0.6949835 0.4008309
vn -0.5969361 -0.6949835 0.4008307
vn 0.5046561 -0.6949835 0.512172
vn -0.5046561 -0.6949835 0.512172
vn 0.4008411 -0.6949835 0.5969291
vn -0.4008411 -0.6949835 0.5969291
vn 0.2739561 -0.6949835 0.6647902
vn -0.2739562 -0.6949835 0.6647902
vn 0.1413037 -0.6949835 0.7050045
vn -0.1413037 -0.6949835 0.7050045
vn -0.002883792 -0.6949835 0.7190199
g Carota.011_0
f 3/3/3 2/2/2 1/1/1
f 4/4/4 3/3/3 1/1/1
f 4/4/4 1/1/1 5/5/5
f 6/6/6 4/4/4 5/5/5
f 6/6/6 5/5/5 7/7/7
f 8/8/8 6/6/6 7/7/7
f 8/8/8 7/7/7 9/9/9
f 10/10/10 8/8/8 9/9/9
f 10/10/10 9/9/9 11/11/11
f 12/12/12 10/10/10 11/11/11
f 12/12/12 11/11/11 13/13/13
f 14/14/14 12/12/12 13/13/13
f 14/14/14 13/13/13 15/15/15
f 16/16/16 14/14/14 15/15/15
f 16/16/16 15/15/15 17/17/17
f 18/18/18 16/16/16 17/17/17
f 18/18/18 17/17/17 19/19/19
f 20/20/20 18/18/18 19/19/19
f 20/20/20 19/19/19 21/21/21
f 22/22/22 20/20/20 21/21/21
f 22/22/22 21/21/21 23/23/23
f 24/24/24 22/22/22 23/23/23
f 24/24/24 23/23/23 25/25/25
f 26/26/26 24/24/24 25/25/25
f 26/26/26 25/25/25 27/27/27
f 28/28/28 26/26/26 27/27/27
f 28/28/28 27/27/27 29/29/29
f 30/30/30 28/28/28 29/29/29
f 30/30/30 29/29/29 31/31/31
f 32/32/32 30/30/30 31/31/31
f 32/32/32 31/31/31 33/33/33
f 34/34/34 32/32/32 33/33/33
f 37/37/37 36/36/36 35/35/35
f 36/36/36 38/38/38 35/35/35
f 36/36/36 39/39/39 38/38/38
f 39/39/39 40/40/40 38/38/38
f 39/39/39 41/41/41 40/40/40
f 41/41/41 42/42/42 40/40/40
f 41/41/41 43/43/43 42/42/42
f 43/43/43 44/44/44 42/42/42
f 43/43/43 45/45/45 44/44/44
f 45/45/45 46/46/46 44/44/44
f 45/45/45 47/47/47 46/46/46
f 47/47/47 48/48/48 46/46/46
f 47/47/47 49/49/49 48/48/48
f 49/49/49 50/50/50 48/48/48
f 49/49/49 51/51/51 50/50/50
f 51/51/51 52/52/52 50/50/50
f 51/51/51 53/53/53 52/52/52
f 53/53/53 54/54/54 52/52/52
f 53/53/53 55/55/55 54/54/54
f 55/55/55 56/56/56 54/54/54
f 55/55/55 57/57/57 56/56/56
f 57/57/57 58/58/58 56/56/56
f 57/57/57 59/59/59 58/58/58
f 59/59/59 60/60/60 58/58/58
f 59/59/59 61/61/61 60/60/60
f 61/61/61 62/62/62 60/60/60
f 61/61/61 63/63/63 62/62/62
f 63/63/63 64/64/64 62/62/62
f 63/63/63 65/65/65 64/64/64
f 65/65/65 66/66/66 64/64/64
f 65/65/65 67/67/67 66/66/66
f 67/67/67 68/68/68 66/66/66
f 71/71/71 70/70/70 69/69/69
f 69/69/69 72/72/72 71/71/71
f 69/69/69 73/73/73 72/72/72
f 73/73/73 74/74/74 72/72/72
f 73/73/73 75/75/75 74/74/74
f 75/75/75 76/76/76 74/74/74
f 75/75/75 77/77/77 76/76/76
f 77/77/77 78/78/78 76/76/76
f 77/77/77 79/79/79 78/78/78
f 79/79/79 80/80/80 78/78/78
f 79/79/79 81/81/81 80/80/80
f 81/81/81 82/82/82 80/80/80
f 81/81/81 83/83/83 82/82/82
f 83/83/83 84/84/84 82/82/82
f 83/83/83 85/85/85 84/84/84
f 85/85/85 86/86/86 84/84/84
f 85/85/85 87/87/87 86/86/86
f 87/87/87 88/88/88 86/86/86
f 87/87/87 89/89/89 88/88/88
f 89/89/89 90/90/90 88/88/88
f 89/89/89 91/91/91 90/90/90
f 91/91/91 92/92/92 90/90/90
f 91/91/91 93/93/93 92/92/92
f 93/93/93 94/94/94 92/92/92
f 93/93/93 95/95/95 94/94/94
f 95/95/95 96/96/96 94/94/94
f 95/95/95 97/97/97 96/96/96
f 97/97/97 98/98/98 96/96/96
f 97/97/97 99/99/99 98/98/98
f 99/99/99 100/100/100 98/98/98
f 103/103/103 102/102/102 101/101/101
f 101/101/101 104/104/104 103/103/103
f 104/104/104 105/105/105 103/103/103
f 104/104/104 106/106/106 105/105/105
f 106/106/106 107/107/107 105/105/105
f 106/106/106 108/108/108 107/107/107
f 108/108/108 109/109/109 107/107/107
f 108/108/108 110/110/110 109/109/109
f 110/110/110 111/111/111 109/109/109
f 110/110/110 112/112/112 111/111/111
f 112/112/112 113/113/113 111/111/111
f 112/112/112 114/114/114 113/113/113
f 114/114/114 115/115/115 113/113/113
f 114/114/114 116/116/116 115/115/115
f 116/116/116 117/117/117 115/115/115
f 116/116/116 118/118/118 117/117/117
f 118/118/118 119/119/119 117/117/117
f 118/118/118 120/120/120 119/119/119
f 120/120/120 121/121/121 119/119/119
f 120/120/120 122/122/122 121/121/121
f 122/122/122 123/123/123 121/121/121
f 122/122/122 124/124/124 123/123/123
f 124/124/124 125/125/125 123/123/123
f 124/124/124 126/126/126 125/125/125
f 126/126/126 127/127/127 125/125/125
f 126/126/126 128/128/128 127/127/127
f 128/128/128 129/129/129 127/127/127
f 128/128/128 130/130/130 129/129/129
f 130/130/130 131/131/131 129/129/129
f 130/130/130 132/132/132 131/131/131
