g Carota.019
v -0.6935922 0.2608622 -0.1379757
v -0.707182 0.2608622 1.376867E-05
v -0.9014292 -0.2608897 1.376867E-05
v -0.8840979 -0.2608897 -0.1758568
v -0.6533453 0.2608622 -0.2706282
v -0.8328196 -0.2608897 -0.3449599
v -0.5880094 0.2608622 -0.392882
v -0.7495197 -0.2608897 -0.5008031
v -0.5000604 0.2608622 -0.5000604
v -0.6374171 -0.2608897 -0.6374171
v -0.392882 0.2608622 -0.5880094
v -0.5008031 -0.2608897 -0.7495198
v -0.2706282 0.2608622 -0.6533453
v -0.3449599 -0.2608897 -0.8328196
v -0.1379757 0.2608622 -0.6935922
v -0.1758567 -0.2608897 -0.884098
v -1.376867E-05 0.2608622 -0.7071821
v -1.376867E-05 -0.2608897 -0.9014292
v 0.1379757 0.2608622 -0.6935922
v 0.1758568 -0.2608897 -0.884098
v 0.2706282 0.2608622 -0.6533453
v 0.3449599 -0.2608897 -0.8328196
v 0.392882 0.2608622 -0.5880094
v 0.5008031 -0.2608897 -0.7495198
v 0.5000604 0.2608622 -0.5000604
v 0.6374171 -0.2608897 -0.6374171
v 0.5880094 0.2608622 -0.392882
v 0.7495198 -0.2608897 -0.5008031
v 0.6533453 0.2608622 -0.2706282
v 0.8328196 -0.2608897 -0.3449599
v 0.6935922 0.2608622 -0.1379757
v 0.884098 -0.2608897 -0.1758568
v 0.7071821 0.2608622 -1.376867E-05
v 0.9014292 -0.2608897 -1.376867E-05
v -0.707182 0.2608622 1.376867E-05
v -0.8840979 -0.2608897 0.1758567
v -0.9014292 -0.2608897 1.376867E-05
v -0.6935922 0.2608622 0.1379757
v -0.8328196 -0.2608897 0.3449599
v -0.6533453 0.2608622 0.2706282
v -0.7495197 -0.2608897 0.5008031
v -0.5880094 0.2608622 0.392882
v -0.6374171 -0.2608897 0.6374171
v -0.5000604 0.2608622 0.5000604
v -0.5008031 -0.2608897 0.7495197
v -0.392882 0.2608622 0.5880094
v -0.3449599 -0.2608897 0.8328196
v -0.2706282 0.2608622 0.6533453
v -0.1758567 -0.2608897 0.8840979
v -0.1379757 0.2608622 0.6935922
v -1.376867E-05 -0.2608897 0.9014292
v -1.376867E-05 0.2608622 0.707182
v 0.1758568 -0.2608897 0.8840979
v 0.1379757 0.2608622 0.6935922
v 0.3449599 -0.2608897 0.8328196
v 0.2706282 0.2608622 0.6533453
v 0.5008031 -0.2608897 0.7495197
v 0.392882 0.2608622 0.5880094
v 0.6374171 -0.2608897 0.6374171
v 0.5000604 0.2608622 0.5000604
v 0.7495198 -0.2608897 0.5008031
v 0.5880094 0.2608622 0.392882
v 0.8328196 -0.2608897 0.3449599
v 0.6533453 0.2608622 0.2706282
v 0.884098 -0.2608897 0.1758567
v 0.6935922 0.2608622 0.1379757
v 0.9014292 -0.2608897 -1.376867E-05
v 0.7071821 0.2608622 -1.376867E-05
v -0.1379757 0.2608622 -0.6935922
v -1.376867E-05 0.2608622 -0.7071821
v 0.1379757 0.2608622 -0.6935922
v 0.2706282 0.2608622 -0.6533453
v -0.2706282 0.2608622 -0.6533453
v 0.392882 0.2608622 -0.5880094
v -0.392882 0.2608622 -0.5880094
v 0.5000604 0.2608622 -0.5000604
v -0.5000604 0.2608622 -0.5000604
v 0.5880094 0.2608622 -0.392882
v -0.5880094 0.2608622 -0.392882
v 0.6533453 0.2608622 -0.2706282
v -0.6533453 0.2608622 -0.2706282
v 0.6935922 0.2608622 -0.1379757
v -0.6935922 0.2608622 -0.1379757
v 0.7071821 0.2608622 -1.376867E-05
v -0.707182 0.2608622 1.376867E-05
v 0.6935922 0.2608622 0.1379757
v -0.6935922 0.2608622 0.1379757
v 0.6533453 0.2608622 0.2706282
v -0.6533453 0.2608622 0.2706282
v 0.5880094 0.2608622 0.392882
v -0.5880094 0.2608622 0.392882
v 0.5000604 0.2608622 0.5000604
v -0.5000604 0.2608622 0.5000604
v 0.392882 0.2608622 0.5880094
v -0.392882 0.2608622 0.5880094
v 0.2706282 0.2608622 0.6533453
v -0.2706282 0.2608622 0.6533453
v 0.1379757 0.2608622 0.6935922
v -0.1379757 0.2608622 0.6935922
v -1.376867E-05 0.2608622 0.707182
v 0.1758568 -0.2608897 -0.884098
v -1.376867E-05 -0.2608897 -0.9014292
v -0.1758567 -0.2608897 -0.884098
v 0.3449599 -0.2608897 -0.8328196
v -0.3449599 -0.2608897 -0.8328196
v 0.5008031 -0.2608897 -0.7495198
v -0.5008031 -0.2608897 -0.7495198
v 0.6374171 -0.2608897 -0.6374171
v -0.6374171 -0.2608897 -0.6374171
v 0.7495198 -0.2608897 -0.5008031
v -0.7495197 -0.2608897 -0.5008031
v 0.8328196 -0.2608897 -0.3449599
v -0.8328196 -0.2608897 -0.3449599
v 0.884098 -0.2608897 -0.1758568
v -0.8840979 -0.2608897 -0.1758568
v 0.9014292 -0.2608897 -1.376867E-05
v -0.9014292 -0.2608897 1.376867E-05
v 0.884098 -0.2608897 0.1758567
v -0.8840979 -0.2608897 0.1758567
v 0.8328196 -0.2608897 0.3449599
v -0.8328196 -0.2608897 0.3449599
v 0.7495198 -0.2608897 0.5008031
v -0.7495197 -0.2608897 0.5008031
v 0.6374171 -0.2608897 0.6374171
v -0.6374171 -0.2608897 0.6374171
v 0.5008031 -0.2608897 0.7495197
v -0.5008031 -0.2608897 0.7495197
v 0.3449599 -0.2608897 0.8328196
v -0.3449599 -0.2608897 0.8328196
v 0.1758568 -0.2608897 0.8840979
v -0.1758567 -0.2608897 0.8840979
v -1.376867E-05 -0.2608897 0.9014292
vt 0.0640885 0.9485472
vt 0.06320581 0.9485472
vt 0.04555194 0.9017645
vt 0.04731733 0.9017645
vt 0.06761928 0.9485472
vt 0.05173079 0.9017645
vt 0.07379813 0.9485472
vt 0.05879234 0.9017645
vt 0.08085968 0.9485472
vt 0.06938466 0.9017645
vt 0.0905693 0.9485472
vt 0.08085968 0.9017645
vt 0.1020443 0.9485472
vt 0.09498277 0.9017645
vt 0.1135193 0.9485472
vt 0.1099886 0.9017645
vt 0.125877 0.9485472
vt 0.125877 0.9017645
vt 0.1382347 0.9485472
vt 0.1408828 0.9017645
vt 0.1497098 0.9485472
vt 0.1558886 0.9017645
vt 0.1603021 0.9485472
vt 0.1700117 0.9017645
vt 0.1700117 0.9485472
vt 0.1823694 0.9017645
vt 0.1779559 0.9485472
vt 0.192079 0.9017645
vt 0.1841348 0.9485472
vt 0.2000233 0.9017645
vt 0.1876656 0.9485472
vt 0.2044367 0.9017645
vt 0.1885483 0.9485472
vt 0.2062021 0.9017645
vt 0.06320581 0.9485472
vt 0.04731733 0.9017645
vt 0.04555194 0.9017645
vt 0.0640885 0.9485472
vt 0.05173079 0.9017645
vt 0.06761928 0.9485472
vt 0.05879234 0.9017645
vt 0.07379813 0.9485472
vt 0.06938466 0.9017645
vt 0.08085968 0.9485472
vt 0.08085968 0.9017645
vt 0.0905693 0.9485472
vt 0.09498277 0.9017645
vt 0.1020443 0.9485472
vt 0.1099886 0.9017645
vt 0.1135193 0.9485472
vt 0.125877 0.9017645
vt 0.125877 0.9485472
vt 0.1408828 0.9017645
vt 0.1382347 0.9485472
vt 0.1558886 0.9017645
vt 0.1497098 0.9485472
vt 0.1700117 0.9017645
vt 0.1603021 0.9485472
vt 0.1823694 0.9017645
vt 0.1700117 0.9485472
vt 0.192079 0.9017645
vt 0.1779559 0.9485472
vt 0.2000233 0.9017645
vt 0.1841348 0.9485472
vt 0.2044367 0.9017645
vt 0.1876656 0.9485472
vt 0.2062021 0.9017645
vt 0.1885483 0.9485472
vt 0.4727755 0.6793258
vt 0.4948429 0.6775604
vt 0.5177929 0.6793258
vt 0.5398602 0.6863874
vt 0.4507082 0.6863874
vt 0.5601622 0.6969796
vt 0.4304063 0.6969796
vt 0.5778161 0.7111028
vt 0.4127524 0.7111028
vt 0.5919392 0.7287566
vt 0.3986293 0.7287566
vt 0.6025315 0.7490585
vt 0.388037 0.7490585
vt 0.609593 0.7711259
vt 0.3809754 0.7711259
vt 0.6113584 0.7931932
vt 0.3792101 0.7931932
vt 0.609593 0.8161433
vt 0.3809754 0.8161433
vt 0.6025315 0.8382106
vt 0.388037 0.8382106
vt 0.5919392 0.8585125
vt 0.3986293 0.8585125
vt 0.5778161 0.8752837
vt 0.4127524 0.8752837
vt 0.5601622 0.8902895
vt 0.4304063 0.8902895
vt 0.5398602 0.9008818
vt 0.4507082 0.9008818
vt 0.5177929 0.9079434
vt 0.4727755 0.9079434
vt 0.4948429 0.9097087
vt 0.5239717 0.6484315
vt 0.4948429 0.6449007
vt 0.4665967 0.6484315
vt 0.552218 0.6563758
vt 0.4383505 0.6563758
vt 0.5778161 0.6704988
vt 0.4127524 0.6704988
vt 0.5998834 0.6890354
vt 0.390685 0.6890354
vt 0.6184199 0.7111028
vt 0.3721485 0.7111028
vt 0.632543 0.7367009
vt 0.3580254 0.7367009
vt 0.6404873 0.7649471
vt 0.3500811 0.7649471
vt 0.6431354 0.7931932
vt 0.3465504 0.7931932
vt 0.6404873 0.8223221
vt 0.3500811 0.8223221
vt 0.632543 0.8505683
vt 0.3580254 0.8505683
vt 0.6184199 0.8761664
vt 0.3721485 0.8761664
vt 0.5998834 0.8982338
vt 0.390685 0.8982338
vt 0.5778161 0.9167703
vt 0.4127524 0.9167703
vt 0.552218 0.9300107
vt 0.4383505 0.9300107
vt 0.5239717 0.9388376
vt 0.4665967 0.9388376
vt 0.4948429 0.9414857
vn -0.5806744 0.8037584 -0.129575
vn -0.593797 0.8037584 -0.0371158
vn -0.8365648 -0.5478679 -0.000422864
vn -0.8234422 -0.5478679 -0.1475931
vn -0.5478679 0.8037584 -0.2319768
vn -0.7709519 -0.5478679 -0.3247676
vn -0.4953775 0.8037584 -0.329505
vn -0.6987777 -0.5478679 -0.4599462
vn -0.4166421 0.8037584 -0.4247138
vn -0.593797 -0.5478679 -0.5892758
vn -0.3313453 0.8037584 -0.4941485
vn -0.4625711 -0.5478679 -0.6970428
vn -0.2263646 0.8037584 -0.5502104
vn -0.3182226 -0.5478679 -0.7736763
vn -0.1148226 0.8037584 -0.5837706
vn -0.1607517 -0.5478679 -0.8209748
vn -0.00328064 0.8037584 -0.5949467
vn -0.00328064 -0.5478679 -0.8365584
vn 0.1148226 0.8037584 -0.5837706
vn 0.1607516 -0.5478679 -0.8209748
vn 0.2263646 0.8037584 -0.5502104
vn 0.3182227 -0.5478679 -0.7736763
vn 0.3313453 0.8037584 -0.4941485
vn 0.4625711 -0.5478679 -0.6970429
vn 0.4166421 0.8037584 -0.4247138
vn 0.593797 -0.5478679 -0.5892758
vn 0.4953776 0.8037584 -0.3295049
vn 0.6987776 -0.5478679 -0.4599463
vn 0.5478679 0.8037584 -0.2319768
vn 0.7709519 -0.5478679 -0.3247676
vn 0.5806744 0.8037584 -0.129575
vn 0.8234422 -0.5478679 -0.1475931
vn 0.593797 0.8037584 -0.0371158
vn 0.8365648 -0.5478679 -0.000422864
vn -0.593797 0.8037584 -0.0371158
vn -0.8234422 -0.5478679 0.1475931
vn -0.8365648 -0.5478679 -0.000422864
vn -0.5806744 0.8037584 0.129575
vn -0.7709519 -0.5478679 0.3247676
vn -0.5478679 0.8037584 0.2319768
vn -0.6987777 -0.5478679 0.4599462
vn -0.4953775 0.8037584 0.329505
vn -0.593797 -0.5478679 0.5892758
vn -0.4166421 0.8037584 0.4247138
vn -0.4625711 -0.5478679 0.6970428
vn -0.3313453 0.8037584 0.4941485
vn -0.3182226 -0.5478679 0.7736763
vn -0.2263646 0.8037584 0.5502104
vn -0.1607517 -0.5478679 0.8209748
vn -0.1148226 0.8037584 0.5837706
vn -0.00328064 -0.5478679 0.8365584
vn -0.00328064 0.8037584 0.5949467
vn 0.1607516 -0.5478679 0.8209748
vn 0.1148226 0.8037584 0.5837706
vn 0.3182227 -0.5478679 0.7736763
vn 0.2263646 0.8037584 0.5502104
vn 0.4625711 -0.5478679 0.6970429
vn 0.3313453 0.8037584 0.4941485
vn 0.593797 -0.5478679 0.5892758
vn 0.4166421 0.8037584 0.4247138
vn 0.6987776 -0.5478679 0.4599463
vn 0.4953776 0.8037584 0.3295049
vn 0.7709519 -0.5478679 0.3247676
vn 0.5478679 0.8037584 0.2319768
vn 0.8234422 -0.5478679 0.1475931
vn 0.5806744 0.8037584 0.129575
vn 0.8365648 -0.5478679 -0.000422864
vn 0.593797 0.8037584 -0.0371158
vn -0.1148226 0.8037584 -0.5837706
vn -0.00328064 0.8037584 -0.5949467
vn 0.1148226 0.8037584 -0.5837706
vn 0.2263646 0.8037584 -0.5502104
vn -0.2263646 0.8037584 -0.5502104
vn 0.3313453 0.8037584 -0.4941485
vn -0.3313453 0.8037584 -0.4941485
vn 0.4166421 0.8037584 -0.4247138
vn -0.4166421 0.8037584 -0.4247138
vn 0.4953776 0.8037584 -0.3295049
vn -0.4953775 0.8037584 -0.329505
vn 0.5478679 0.8037584 -0.2319768
vn -0.5478679 0.8037584 -0.2319768
vn 0.5806744 0.8037584 -0.129575
vn -0.5806744 0.8037584 -0.129575
vn 0.593797 0.8037584 -0.0371158
vn -0.593797 0.8037584 -0.0371158
vn 0.5806744 0.8037584 0.129575
vn -0.5806744 0.8037584 0.129575
vn 0.5478679 0.8037584 0.2319768
vn -0.5478679 0.8037584 0.2319768
vn 0.4953776 0.8037584 0.3295049
vn -0.4953775 0.8037584 0.329505
vn 0.4166421 0.8037584 0.4247138
vn -0.4166421 0.8037584 0.4247138
vn 0.3313453 0.8037584 0.4941485
vn -0.3313453 0.8037584 0.4941485
vn 0.2263646 0.8037584 0.5502104
vn -0.2263646 0.8037584 0.5502104
vn 0.1148226 0.8037584 0.5837706
vn -0.1148226 0.8037584 0.5837706
vn -0.00328064 0.8037584 0.5949467
vn 0.1607516 -0.5478679 -0.8209748
vn -0.00328064 -0.5478679 -0.8365584
vn -0.1607517 -0.5478679 -0.8209748
vn 0.3182227 -0.5478679 -0.7736763
vn -0.3182226 -0.5478679 -0.7736763
vn 0.4625711 -0.5478679 -0.6970429
vn -0.4625711 -0.5478679 -0.6970428
vn 0.593797 -0.5478679 -0.5892758
vn -0.593797 -0.5478679 -0.5892758
vn 0.6987776 -0.5478679 -0.4599463
vn -0.6987777 -0.5478679 -0.4599462
vn 0.7709519 -0.5478679 -0.3247676
vn -0.7709519 -0.5478679 -0.3247676
vn 0.8234422 -0.5478679 -0.1475931
vn -0.8234422 -0.5478679 -0.1475931
vn 0.8365648 -0.5478679 -0.000422864
vn -0.8365648 -0.5478679 -0.000422864
vn 0.8234422 -0.5478679 0.1475931
vn -0.8234422 -0.5478679 0.1475931
vn 0.7709519 -0.5478679 0.3247676
vn -0.7709519 -0.5478679 0.3247676
vn 0.6987776 -0.5478679 0.4599463
vn -0.6987777 -0.5478679 0.4599462
vn 0.593797 -0.5478679 0.5892758
vn -0.593797 -0.5478679 0.5892758
vn 0.4625711 -0.5478679 0.6970429
vn -0.4625711 -0.5478679 0.6970428
vn 0.3182227 -0.5478679 0.7736763
vn -0.3182226 -0.5478679 0.7736763
vn 0.1607516 -0.5478679 0.8209748
vn -0.1607517 -0.5478679 0.8209748
vn -0.00328064 -0.5478679 0.8365584
g Carota.019_0
f 3/3/3 2/2/2 1/1/1
f 4/4/4 3/3/3 1/1/1
f 4/4/4 1/1/1 5/5/5
f 6/6/6 4/4/4 5/5/5
f 6/6/6 5/5/5 7/7/7
f 8/8/8 6/6/6 7/7/7
f 8/8/8 7/7/7 9/9/9
f 10/10/10 8/8/8 9/9/9
f 10/10/10 9/9/9 11/11/11
f 12/12/12 10/10/10 11/11/11
f 12/12/12 11/11/11 13/13/13
f 14/14/14 12/12/12 13/13/13
f 14/14/14 13/13/13 15/15/15
f 16/16/16 14/14/14 15/15/15
f 16/16/16 15/15/15 17/17/17
f 18/18/18 16/16/16 17/17/17
f 18/18/18 17/17/17 19/19/19
f 20/20/20 18/18/18 19/19/19
f 20/20/20 19/19/19 21/21/21
f 22/22/22 20/20/20 21/21/21
f 22/22/22 21/21/21 23/23/23
f 24/24/24 22/22/22 23/23/23
f 24/24/24 23/23/23 25/25/25
f 26/26/26 24/24/24 25/25/25
f 26/26/26 25/25/25 27/27/27
f 28/28/28 26/26/26 27/27/27
f 28/28/28 27/27/27 29/29/29
f 30/30/30 28/28/28 29/29/29
f 30/30/30 29/29/29 31/31/31
f 32/32/32 30/30/30 31/31/31
f 32/32/32 31/31/31 33/33/33
f 34/34/34 32/32/32 33/33/33
f 37/37/37 36/36/36 35/35/35
f 36/36/36 38/38/38 35/35/35
f 36/36/36 39/39/39 38/38/38
f 39/39/39 40/40/40 38/38/38
f 39/39/39 41/41/41 40/40/40
f 41/41/41 42/42/42 40/40/40
f 41/41/41 43/43/43 42/42/42
f 43/43/43 44/44/44 42/42/42
f 43/43/43 45/45/45 44/44/44
f 45/45/45 46/46/46 44/44/44
f 45/45/45 47/47/47 46/46/46
f 47/47/47 48/48/48 46/46/46
f 47/47/47 49/49/49 48/48/48
f 49/49/49 50/50/50 48/48/48
f 49/49/49 51/51/51 50/50/50
f 51/51/51 52/52/52 50/50/50
f 51/51/51 53/53/53 52/52/52
f 53/53/53 54/54/54 52/52/52
f 53/53/53 55/55/55 54/54/54
f 55/55/55 56/56/56 54/54/54
f 55/55/55 57/57/57 56/56/56
f 57/57/57 58/58/58 56/56/56
f 57/57/57 59/59/59 58/58/58
f 59/59/59 60/60/60 58/58/58
f 59/59/59 61/61/61 60/60/60
f 61/61/61 62/62/62 60/60/60
f 61/61/61 63/63/63 62/62/62
f 63/63/63 64/64/64 62/62/62
f 63/63/63 65/65/65 64/64/64
f 65/65/65 66/66/66 64/64/64
f 65/65/65 67/67/67 66/66/66
f 67/67/67 68/68/68 66/66/66
f 71/71/71 70/70/70 69/69/69
f 69/69/69 72/72/72 71/71/71
f 69/69/69 73/73/73 72/72/72
f 73/73/73 74/74/74 72/72/72
f 73/73/73 75/75/75 74/74/74
f 75/75/75 76/76/76 74/74/74
f 75/75/75 77/77/77 76/76/76
f 77/77/77 78/78/78 76/76/76
f 77/77/77 79/79/79 78/78/78
f 79/79/79 80/80/80 78/78/78
f 79/79/79 81/81/81 80/80/80
f 81/81/81 82/82/82 80/80/80
f 81/81/81 83/83/83 82/82/82
f 83/83/83 84/84/84 82/82/82
f 83/83/83 85/85/85 84/84/84
f 85/85/85 86/86/86 84/84/84
f 85/85/85 87/87/87 86/86/86
f 87/87/87 88/88/88 86/86/86
f 87/87/87 89/89/89 88/88/88
f 89/89/89 90/90/90 88/88/88
f 89/89/89 91/91/91 90/90/90
f 91/91/91 92/92/92 90/90/90
f 91/91/91 93/93/93 92/92/92
f 93/93/93 94/94/94 92/92/92
f 93/93/93 95/95/95 94/94/94
f 95/95/95 96/96/96 94/94/94
f 95/95/95 97/97/97 96/96/96
f 97/97/97 98/98/98 96/96/96
f 97/97/97 99/99/99 98/98/98
f 99/99/99 100/100/100 98/98/98
f 103/103/103 102/102/102 101/101/101
f 101/101/101 104/104/104 103/103/103
f 104/104/104 105/105/105 103/103/103
f 104/104/104 106/106/106 105/105/105
f 106/106/106 107/107/107 105/105/105
f 106/106/106 108/108/108 107/107/107
f 108/108/108 109/109/109 107/107/107
f 108/108/108 110/110/110 109/109/109
f 110/110/110 111/111/111 109/109/109
f 110/110/110 112/112/112 111/111/111
f 112/112/112 113/113/113 111/111/111
f 112/112/112 114/114/114 113/113/113
f 114/114/114 115/115/115 113/113/113
f 114/114/114 116/116/116 115/115/115
f 116/116/116 117/117/117 115/115/115
f 116/116/116 118/118/118 117/117/117
f 118/118/118 119/119/119 117/117/117
f 118/118/118 120/120/120 119/119/119
f 120/120/120 121/121/121 119/119/119
f 120/120/120 122/122/122 121/121/121
f 122/122/122 123/123/123 121/121/121
f 122/122/122 124/124/124 123/123/123
f 124/124/124 125/125/125 123/123/123
f 124/124/124 126/126/126 125/125/125
f 126/126/126 127/127/127 125/125/125
f 126/126/126 128/128/128 127/127/127
f 128/128/128 129/129/129 127/127/127
f 128/128/128 130/130/130 129/129/129
f 130/130/130 131/131/131 129/129/129
f 130/130/130 132/132/132 131/131/131
