g Carota.003
v -0.5708833 0.2099233 -0.1135551
v -0.5820745 0.2099233 8.761883E-06
v -0.4822066 -0.2099236 8.761883E-06
v -0.4729517 -0.2099236 -0.09406823
v -0.5377716 0.2099233 -0.2227491
v -0.4455066 -0.2099236 -0.1845391
v -0.4839829 0.2099233 -0.3233809
v -0.400955 -0.2099236 -0.2679046
v -0.4115955 0.2099233 -0.4115958
v -0.3409845 -0.2099236 -0.3409848
v -0.3233806 0.2099233 -0.4839832
v -0.2679043 -0.2099236 -0.4009375
v -0.2227488 0.2099233 -0.5377719
v -0.1845389 -0.2099236 -0.4455068
v -0.1135548 0.2099233 -0.5708836
v -0.09406793 -0.2099236 -0.4729519
v -8.761883E-06 0.2099233 -0.5820748
v -8.761883E-06 -0.2099236 -0.4822068
v 0.1135551 0.2099233 -0.5708836
v 0.09406823 -0.2099236 -0.4729519
v 0.2227491 0.2099233 -0.5377719
v 0.1845391 -0.2099236 -0.4455068
v 0.3233809 0.2099233 -0.4839832
v 0.2679046 -0.2099236 -0.4009553
v 0.4115958 0.2099233 -0.4115958
v 0.3409848 -0.2099236 -0.3409848
v 0.4839832 0.2099233 -0.3233809
v 0.4009375 -0.2099236 -0.2679046
v 0.5377719 0.2099233 -0.2227491
v 0.4455068 -0.2099236 -0.1845391
v 0.5708836 0.2099233 -0.1135551
v 0.4729519 -0.2099236 -0.09406823
v 0.5820748 0.2099233 -9.000301E-06
v 0.4822068 -0.2099236 -9.000301E-06
v -0.5820745 0.2099233 8.761883E-06
v -0.4729517 -0.2099236 0.09406793
v -0.4822066 -0.2099236 8.761883E-06
v -0.5708833 0.2099233 0.1135548
v -0.4455066 -0.2099236 0.1845389
v -0.5377716 0.2099233 0.2227488
v -0.4009373 -0.2099236 0.2679043
v -0.4839829 0.2099233 0.3233806
v -0.3409845 -0.2099236 0.3409845
v -0.4115955 0.2099233 0.4115955
v -0.2679043 -0.2099236 0.400955
v -0.3233806 0.2099233 0.4839829
v -0.1845389 -0.2099236 0.4455066
v -0.2227488 0.2099233 0.5377716
v -0.09406793 -0.2099236 0.4729517
v -0.1135548 0.2099233 0.5708833
v -8.761883E-06 -0.2099236 0.4822066
v -8.761883E-06 0.2099233 0.5820745
v 0.09406823 -0.2099236 0.4729517
v 0.1135551 0.2099233 0.5708833
v 0.1845391 -0.2099236 0.4455066
v 0.2227491 0.2099233 0.5377716
v 0.2679046 -0.2099236 0.400955
v 0.3233809 0.2099233 0.4839829
v 0.3409848 -0.2099236 0.3409845
v 0.4115958 0.2099233 0.4115955
v 0.4009375 -0.2099236 0.2679043
v 0.4839832 0.2099233 0.3233806
v 0.4455068 -0.2099236 0.1845389
v 0.5377719 0.2099233 0.2227488
v 0.4729519 -0.2099236 0.09406793
v 0.5708836 0.2099233 0.1135548
v 0.4822068 -0.2099236 -9.000301E-06
v 0.5820748 0.2099233 -9.000301E-06
v 0.09406823 -0.2099236 -0.4729519
v -8.761883E-06 -0.2099236 -0.4822068
v -0.09406793 -0.2099236 -0.4729519
v 0.1845391 -0.2099236 -0.4455068
v -0.1845389 -0.2099236 -0.4455068
v 0.2679046 -0.2099236 -0.4009553
v -0.2679043 -0.2099236 -0.4009375
v 0.3409848 -0.2099236 -0.3409848
v -0.3409845 -0.2099236 -0.3409848
v 0.4009375 -0.2099236 -0.2679046
v -0.400955 -0.2099236 -0.2679046
v 0.4455068 -0.2099236 -0.1845391
v -0.4455066 -0.2099236 -0.1845391
v 0.4729519 -0.2099236 -0.09406823
v -0.4729517 -0.2099236 -0.09406823
v 0.4822068 -0.2099236 -9.000301E-06
v -0.4822066 -0.2099236 8.761883E-06
v 0.4729519 -0.2099236 0.09406793
v -0.4729517 -0.2099236 0.09406793
v 0.4455068 -0.2099236 0.1845389
v -0.4455066 -0.2099236 0.1845389
v 0.4009375 -0.2099236 0.2679043
v -0.4009373 -0.2099236 0.2679043
v 0.3409848 -0.2099236 0.3409845
v -0.3409845 -0.2099236 0.3409845
v 0.2679046 -0.2099236 0.400955
v -0.2679043 -0.2099236 0.400955
v 0.1845391 -0.2099236 0.4455066
v -0.1845389 -0.2099236 0.4455066
v 0.09406823 -0.2099236 0.4729517
v -0.09406793 -0.2099236 0.4729517
v -8.761883E-06 -0.2099236 0.4822066
v -0.1135548 0.2099233 -0.5708836
v -8.761883E-06 0.2099233 -0.5820748
v 0.1135551 0.2099233 -0.5708836
v 0.2227491 0.2099233 -0.5377719
v -0.2227488 0.2099233 -0.5377719
v 0.3233809 0.2099233 -0.4839832
v -0.3233806 0.2099233 -0.4839832
v 0.4115958 0.2099233 -0.4115958
v -0.4115955 0.2099233 -0.4115958
v 0.4839832 0.2099233 -0.3233809
v -0.4839829 0.2099233 -0.3233809
v 0.5377719 0.2099233 -0.2227491
v -0.5377716 0.2099233 -0.2227491
v 0.5708836 0.2099233 -0.1135551
v -0.5708833 0.2099233 -0.1135551
v 0.5820748 0.2099233 -9.000301E-06
v -0.5820745 0.2099233 8.761883E-06
v 0.5708836 0.2099233 0.1135548
v -0.5708833 0.2099233 0.1135548
v 0.5377719 0.2099233 0.2227488
v -0.5377716 0.2099233 0.2227488
v 0.4839832 0.2099233 0.3233806
v -0.4839829 0.2099233 0.3233806
v 0.4115958 0.2099233 0.4115955
v -0.4115955 0.2099233 0.4115955
v 0.3233809 0.2099233 0.4839829
v -0.3233806 0.2099233 0.4839829
v 0.2227491 0.2099233 0.5377716
v -0.2227488 0.2099233 0.5377716
v 0.1135551 0.2099233 0.5708833
v -0.1135548 0.2099233 0.5708833
v -8.761883E-06 0.2099233 0.5820745
vt 0.07478898 0.1884189
vt 0.07393462 0.1884189
vt 0.08247823 0.150827
vt 0.08333258 0.150827
vt 0.07820642 0.1884189
vt 0.08589566 0.150827
vt 0.08247823 0.1884189
vt 0.09016746 0.150827
vt 0.0893131 0.1884189
vt 0.09529363 0.150827
vt 0.09700234 0.1884189
vt 0.1021285 0.150827
vt 0.1055459 0.1884189
vt 0.1089634 0.150827
vt 0.1157983 0.1884189
vt 0.117507 0.150827
vt 0.1260506 0.1884189
vt 0.1260506 0.150827
vt 0.1354485 0.1884189
vt 0.1337398 0.150827
vt 0.1457009 0.1884189
vt 0.1422834 0.150827
vt 0.1542445 0.1884189
vt 0.1491183 0.150827
vt 0.1619337 0.1884189
vt 0.1559532 0.150827
vt 0.1687686 0.1884189
vt 0.1610793 0.150827
vt 0.1730404 0.1884189
vt 0.1653511 0.150827
vt 0.1764578 0.1884189
vt 0.1679142 0.150827
vt 0.1773122 0.1884189
vt 0.1687686 0.150827
vt 0.07393462 0.1884189
vt 0.08333258 0.150827
vt 0.08247823 0.150827
vt 0.07478898 0.1884189
vt 0.08589566 0.150827
vt 0.07820642 0.1884189
vt 0.09016746 0.150827
vt 0.08247823 0.1884189
vt 0.09529363 0.150827
vt 0.0893131 0.1884189
vt 0.1021285 0.150827
vt 0.09700234 0.1884189
vt 0.1089634 0.150827
vt 0.1055459 0.1884189
vt 0.117507 0.150827
vt 0.1157983 0.1884189
vt 0.1260506 0.150827
vt 0.1260506 0.1884189
vt 0.1337398 0.150827
vt 0.1354485 0.1884189
vt 0.1422834 0.150827
vt 0.1457009 0.1884189
vt 0.1491183 0.150827
vt 0.1542445 0.1884189
vt 0.1559532 0.150827
vt 0.1619337 0.1884189
vt 0.1610793 0.150827
vt 0.1687686 0.1884189
vt 0.1653511 0.150827
vt 0.1730404 0.1884189
vt 0.1679142 0.150827
vt 0.1764578 0.1884189
vt 0.1687686 0.150827
vt 0.1773122 0.1884189
vt 0.5199105 0.6694235
vt 0.4951341 0.6668605
vt 0.4703577 0.6694235
vt 0.5438326 0.6762584
vt 0.4464356 0.6762584
vt 0.566046 0.6882194
vt 0.4242222 0.6882194
vt 0.5856962 0.7035979
vt 0.4054263 0.7035979
vt 0.6010748 0.7232482
vt 0.3891934 0.7232482
vt 0.6130357 0.7454616
vt 0.3780868 0.7454616
vt 0.620725 0.7693837
vt 0.3703975 0.7693837
vt 0.6232881 0.7941601
vt 0.3678344 0.7941601
vt 0.620725 0.8189365
vt 0.3703975 0.8189365
vt 0.6130357 0.8428586
vt 0.3780868 0.8428586
vt 0.6010748 0.865072
vt 0.3891934 0.865072
vt 0.5856962 0.8838679
vt 0.4054263 0.8838679
vt 0.566046 0.9001007
vt 0.4242222 0.9001007
vt 0.5438326 0.9120618
vt 0.4464356 0.9120618
vt 0.5199105 0.9188966
vt 0.4703577 0.9188966
vt 0.4951341 0.9214597
vt 0.4652315 0.6429384
vt 0.4951341 0.6403753
vt 0.5250367 0.6429384
vt 0.554085 0.6523363
vt 0.4361832 0.6523363
vt 0.5805701 0.6660061
vt 0.4096981 0.6660061
vt 0.6044922 0.6856564
vt 0.3866304 0.6856564
vt 0.6232881 0.7087241
vt 0.3678344 0.7087241
vt 0.6378122 0.7352092
vt 0.3533103 0.7352092
vt 0.6463558 0.7642575
vt 0.3447667 0.7642575
vt 0.6489189 0.7941601
vt 0.3413493 0.7941601
vt 0.6463558 0.8240627
vt 0.3447667 0.8240627
vt 0.6378122 0.8531109
vt 0.3533103 0.8531109
vt 0.6232881 0.8795961
vt 0.3678344 0.8795961
vt 0.6044922 0.9026638
vt 0.3866304 0.9026638
vt 0.5805701 0.9223141
vt 0.4096981 0.9223141
vt 0.554085 0.9359838
vt 0.4361832 0.9359838
vt 0.5250367 0.9453818
vt 0.4652315 0.9453818
vt 0.4951341 0.9479449
vn -0.78958 0.5945443 -0.1519228
vn -0.802163 0.5945443 -0.05524164
vn -0.6448135 -0.7643399 0
vn -0.6322932 -0.7644141 -0.1260016
vn -0.7392483 0.5945443 -0.3162738
vn -0.5945443 -0.7644141 -0.2493756
vn -0.670042 0.5945443 -0.444478
vn -0.5316296 -0.7644141 -0.3647481
vn -0.5693784 0.5945443 -0.567737
vn -0.4561319 -0.7644141 -0.4556476
vn -0.4435489 0.5945443 -0.6706575
vn -0.3554683 -0.7644141 -0.5378786
vn -0.3051366 0.5945443 -0.7439145
vn -0.2485132 -0.7644141 -0.5949053
vn -0.1541411 0.5945443 -0.7891499
vn -0.1226838 -0.7644141 -0.6329454
vn -0.003145754 0.5945443 -0.8040567
vn -0.003145754 -0.7644141 -0.6447179
vn 0.1541411 0.5945443 -0.7891499
vn 0.1226837 -0.7644141 -0.6329454
vn 0.3051364 0.5945443 -0.7439145
vn 0.2485132 -0.7644141 -0.5949053
vn 0.4435489 0.5945443 -0.6706575
vn 0.3554682 -0.7644141 -0.5378786
vn 0.5693784 0.5945443 -0.567737
vn 0.4561318 -0.7644141 -0.4556478
vn 0.6700419 0.5945443 -0.4444783
vn 0.5316295 -0.7644141 -0.3647481
vn 0.7392482 0.5945443 -0.3162741
vn 0.5945442 -0.7644141 -0.2493758
vn 0.7895799 0.5945443 -0.1519232
vn 0.6322931 -0.7644141 -0.1260021
vn 0.8021629 0.5945443 -0.05524326
vn 0.6448135 -0.76434 0
vn -0.802163 0.5945443 -0.05524164
vn -0.6322932 -0.7644141 0.1260016
vn -0.6448135 -0.7643399 0
vn -0.78958 0.5945443 0.1519228
vn -0.5945443 -0.7644141 0.2493756
vn -0.7392483 0.5945443 0.3162738
vn -0.5316296 -0.7644141 0.3647481
vn -0.670042 0.5945443 0.444478
vn -0.4561319 -0.7644141 0.4556476
vn -0.5693784 0.5945443 0.567737
vn -0.3554683 -0.7644141 0.5378786
vn -0.4435489 0.5945443 0.6706575
vn -0.2485132 -0.7644141 0.5949053
vn -0.3051366 0.5945443 0.7439145
vn -0.1226838 -0.7644141 0.6329454
vn -0.1541411 0.5945443 0.7891499
vn -0.003145754 -0.7644141 0.6447179
vn -0.003145754 0.5945443 0.8040567
vn 0.1226837 -0.7644141 0.6329454
vn 0.1541411 0.5945443 0.7891499
vn 0.2485132 -0.7644141 0.5949053
vn 0.3051364 0.5945443 0.7439145
vn 0.3554682 -0.7644141 0.5378786
vn 0.4435489 0.5945443 0.6706575
vn 0.4561318 -0.7644141 0.4556478
vn 0.5693784 0.5945443 0.567737
vn 0.5316295 -0.7644141 0.3647481
vn 0.6700419 0.5945443 0.4444783
vn 0.5945442 -0.7644141 0.2493758
vn 0.7392482 0.5945443 0.3162741
vn 0.6322931 -0.7644141 0.1260021
vn 0.7895799 0.5945443 0.1519232
vn 0.6448135 -0.76434 0
vn 0.8021629 0.5945443 -0.05524326
vn 0.1226837 -0.7644141 -0.6329454
vn -0.003145754 -0.7644141 -0.6447179
vn -0.1226838 -0.7644141 -0.6329454
vn 0.2485132 -0.7644141 -0.5949053
vn -0.2485132 -0.7644141 -0.5949053
vn 0.3554682 -0.7644141 -0.5378786
vn -0.3554683 -0.7644141 -0.5378786
vn 0.4561318 -0.7644141 -0.4556478
vn -0.4561319 -0.7644141 -0.4556476
vn 0.5316295 -0.7644141 -0.3647481
vn -0.5316296 -0.7644141 -0.3647481
vn 0.5945442 -0.7644141 -0.2493758
vn -0.5945443 -0.7644141 -0.2493756
vn 0.6322931 -0.7644141 -0.1260021
vn -0.6322932 -0.7644141 -0.1260016
vn 0.6448135 -0.76434 0
vn -0.6448135 -0.7643399 0
vn 0.6322931 -0.7644141 0.1260021
vn -0.6322932 -0.7644141 0.1260016
vn 0.5945442 -0.7644141 0.2493758
vn -0.5945443 -0.7644141 0.2493756
vn 0.5316295 -0.7644141 0.3647481
vn -0.5316296 -0.7644141 0.3647481
vn 0.4561318 -0.7644141 0.4556478
vn -0.4561319 -0.7644141 0.4556476
vn 0.3554682 -0.7644141 0.5378786
vn -0.3554683 -0.7644141 0.5378786
vn 0.2485132 -0.7644141 0.5949053
vn -0.2485132 -0.7644141 0.5949053
vn 0.1226837 -0.7644141 0.6329454
vn -0.1226838 -0.7644141 0.6329454
vn -0.003145754 -0.7644141 0.6447179
vn -0.1541411 0.5945443 -0.7891499
vn -0.003145754 0.5945443 -0.8040567
vn 0.1541411 0.5945443 -0.7891499
vn 0.3051364 0.5945443 -0.7439145
vn -0.3051366 0.5945443 -0.7439145
vn 0.4435489 0.5945443 -0.6706575
vn -0.4435489 0.5945443 -0.6706575
vn 0.5693784 0.5945443 -0.567737
vn -0.5693784 0.5945443 -0.567737
vn 0.6700419 0.5945443 -0.4444783
vn -0.670042 0.5945443 -0.444478
vn 0.7392482 0.5945443 -0.3162741
vn -0.7392483 0.5945443 -0.3162738
vn 0.7895799 0.5945443 -0.1519232
vn -0.78958 0.5945443 -0.1519228
vn 0.8021629 0.5945443 -0.05524326
vn -0.802163 0.5945443 -0.05524164
vn 0.7895799 0.5945443 0.1519232
vn -0.78958 0.5945443 0.1519228
vn 0.7392482 0.5945443 0.3162741
vn -0.7392483 0.5945443 0.3162738
vn 0.6700419 0.5945443 0.4444783
vn -0.670042 0.5945443 0.444478
vn 0.5693784 0.5945443 0.567737
vn -0.5693784 0.5945443 0.567737
vn 0.4435489 0.5945443 0.6706575
vn -0.4435489 0.5945443 0.6706575
vn 0.3051364 0.5945443 0.7439145
vn -0.3051366 0.5945443 0.7439145
vn 0.1541411 0.5945443 0.7891499
vn -0.1541411 0.5945443 0.7891499
vn -0.003145754 0.5945443 0.8040567
g Carota.003_0
f 3/3/3 2/2/2 1/1/1
f 4/4/4 3/3/3 1/1/1
f 4/4/4 1/1/1 5/5/5
f 6/6/6 4/4/4 5/5/5
f 6/6/6 5/5/5 7/7/7
f 8/8/8 6/6/6 7/7/7
f 8/8/8 7/7/7 9/9/9
f 10/10/10 8/8/8 9/9/9
f 10/10/10 9/9/9 11/11/11
f 12/12/12 10/10/10 11/11/11
f 12/12/12 11/11/11 13/13/13
f 14/14/14 12/12/12 13/13/13
f 14/14/14 13/13/13 15/15/15
f 16/16/16 14/14/14 15/15/15
f 16/16/16 15/15/15 17/17/17
f 18/18/18 16/16/16 17/17/17
f 18/18/18 17/17/17 19/19/19
f 20/20/20 18/18/18 19/19/19
f 20/20/20 19/19/19 21/21/21
f 22/22/22 20/20/20 21/21/21
f 22/22/22 21/21/21 23/23/23
f 24/24/24 22/22/22 23/23/23
f 24/24/24 23/23/23 25/25/25
f 26/26/26 24/24/24 25/25/25
f 26/26/26 25/25/25 27/27/27
f 28/28/28 26/26/26 27/27/27
f 28/28/28 27/27/27 29/29/29
f 30/30/30 28/28/28 29/29/29
f 30/30/30 29/29/29 31/31/31
f 32/32/32 30/30/30 31/31/31
f 32/32/32 31/31/31 33/33/33
f 34/34/34 32/32/32 33/33/33
f 37/37/37 36/36/36 35/35/35
f 36/36/36 38/38/38 35/35/35
f 36/36/36 39/39/39 38/38/38
f 39/39/39 40/40/40 38/38/38
f 39/39/39 41/41/41 40/40/40
f 41/41/41 42/42/42 40/40/40
f 41/41/41 43/43/43 42/42/42
f 43/43/43 44/44/44 42/42/42
f 43/43/43 45/45/45 44/44/44
f 45/45/45 46/46/46 44/44/44
f 45/45/45 47/47/47 46/46/46
f 47/47/47 48/48/48 46/46/46
f 47/47/47 49/49/49 48/48/48
f 49/49/49 50/50/50 48/48/48
f 49/49/49 51/51/51 50/50/50
f 51/51/51 52/52/52 50/50/50
f 51/51/51 53/53/53 52/52/52
f 53/53/53 54/54/54 52/52/52
f 53/53/53 55/55/55 54/54/54
f 55/55/55 56/56/56 54/54/54
f 55/55/55 57/57/57 56/56/56
f 57/57/57 58/58/58 56/56/56
f 57/57/57 59/59/59 58/58/58
f 59/59/59 60/60/60 58/58/58
f 59/59/59 61/61/61 60/60/60
f 61/61/61 62/62/62 60/60/60
f 61/61/61 63/63/63 62/62/62
f 63/63/63 64/64/64 62/62/62
f 63/63/63 65/65/65 64/64/64
f 65/65/65 66/66/66 64/64/64
f 65/65/65 67/67/67 66/66/66
f 67/67/67 68/68/68 66/66/66
f 71/71/71 70/70/70 69/69/69
f 69/69/69 72/72/72 71/71/71
f 72/72/72 73/73/73 71/71/71
f 72/72/72 74/74/74 73/73/73
f 74/74/74 75/75/75 73/73/73
f 74/74/74 76/76/76 75/75/75
f 76/76/76 77/77/77 75/75/75
f 76/76/76 78/78/78 77/77/77
f 78/78/78 79/79/79 77/77/77
f 78/78/78 80/80/80 79/79/79
f 80/80/80 81/81/81 79/79/79
f 80/80/80 82/82/82 81/81/81
f 82/82/82 83/83/83 81/81/81
f 82/82/82 84/84/84 83/83/83
f 84/84/84 85/85/85 83/83/83
f 84/84/84 86/86/86 85/85/85
f 86/86/86 87/87/87 85/85/85
f 86/86/86 88/88/88 87/87/87
f 88/88/88 89/89/89 87/87/87
f 88/88/88 90/90/90 89/89/89
f 90/90/90 91/91/91 89/89/89
f 90/90/90 92/92/92 91/91/91
f 92/92/92 93/93/93 91/91/91
f 92/92/92 94/94/94 93/93/93
f 94/94/94 95/95/95 93/93/93
f 94/94/94 96/96/96 95/95/95
f 96/96/96 97/97/97 95/95/95
f 96/96/96 98/98/98 97/97/97
f 98/98/98 99/99/99 97/97/97
f 98/98/98 100/100/100 99/99/99
f 103/103/103 102/102/102 101/101/101
f 101/101/101 104/104/104 103/103/103
f 101/101/101 105/105/105 104/104/104
f 105/105/105 106/106/106 104/104/104
f 105/105/105 107/107/107 106/106/106
f 107/107/107 108/108/108 106/106/106
f 107/107/107 109/109/109 108/108/108
f 109/109/109 110/110/110 108/108/108
f 109/109/109 111/111/111 110/110/110
f 111/111/111 112/112/112 110/110/110
f 111/111/111 113/113/113 112/112/112
f 113/113/113 114/114/114 112/112/112
f 113/113/113 115/115/115 114/114/114
f 115/115/115 116/116/116 114/114/114
f 115/115/115 117/117/117 116/116/116
f 117/117/117 118/118/118 116/116/116
f 117/117/117 119/119/119 118/118/118
f 119/119/119 120/120/120 118/118/118
f 119/119/119 121/121/121 120/120/120
f 121/121/121 122/122/122 120/120/120
f 121/121/121 123/123/123 122/122/122
f 123/123/123 124/124/124 122/122/122
f 123/123/123 125/125/125 124/124/124
f 125/125/125 126/126/126 124/124/124
f 125/125/125 127/127/127 126/126/126
f 127/127/127 128/128/128 126/126/126
f 127/127/127 129/129/129 128/128/128
f 129/129/129 130/130/130 128/128/128
f 129/129/129 131/131/131 130/130/130
f 131/131/131 132/132/132 130/130/130
