g Carota.017
v -0.9733882 0.2434881 -0.1936219
v -0.9924619 0.2434881 1.513958E-05
v -0.9999999 -0.2434883 1.513958E-05
v -0.9807736 -0.2434883 -0.1950867
v -0.9169297 0.2434881 -0.3798124
v -0.9238878 -0.2434883 -0.3826811
v -0.8251926 0.2434881 -0.5513849
v -0.8314792 -0.2434883 -0.5555658
v -0.7017776 0.2434881 -0.7017778
v -0.7071183 -0.2434883 -0.7071185
v -0.5513847 0.2434881 -0.8251927
v -0.5555656 -0.2434883 -0.8314795
v -0.3798122 0.2434881 -0.91693
v -0.3826809 -0.2434883 -0.9238881
v -0.1936216 0.2434881 -0.9733884
v -0.1950865 -0.2434883 -0.9807737
v -1.513958E-05 0.2434881 -0.9924622
v -1.513958E-05 -0.2434883 -1
v 0.1936219 0.2434881 -0.9733884
v 0.1950867 -0.2434883 -0.9807737
v 0.3798124 0.2434881 -0.91693
v 0.3826811 -0.2434883 -0.9238881
v 0.5513849 0.2434881 -0.8251927
v 0.5555658 -0.2434883 -0.8314795
v 0.7017778 0.2434881 -0.7017778
v 0.7071185 -0.2434883 -0.7071185
v 0.8251927 0.2434881 -0.5513849
v 0.8314795 -0.2434883 -0.5555658
v 0.91693 0.2434881 -0.3798124
v 0.9238881 -0.2434883 -0.3826811
v 0.9733884 0.2434881 -0.1936219
v 0.9807737 -0.2434883 -0.1950867
v 0.9924622 0.2434881 -1.5378E-05
v 1 -0.2434883 -1.5378E-05
v -0.9924619 0.2434881 1.513958E-05
v -0.9807736 -0.2434883 0.1950865
v -0.9999999 -0.2434883 1.513958E-05
v -0.9733882 0.2434881 0.1936216
v -0.9238878 -0.2434883 0.3826809
v -0.9169297 0.2434881 0.3798122
v -0.8314792 -0.2434883 0.5555656
v -0.8251926 0.2434881 0.5513847
v -0.7071183 -0.2434883 0.7071183
v -0.7017776 0.2434881 0.7017776
v -0.5555656 -0.2434883 0.8314792
v -0.5513847 0.2434881 0.8251926
v -0.3826809 -0.2434883 0.9238878
v -0.3798122 0.2434881 0.9169297
v -0.1950865 -0.2434883 0.9807736
v -0.1936216 0.2434881 0.9733882
v -1.513958E-05 -0.2434883 0.9999999
v -1.513958E-05 0.2434881 0.9924619
v 0.1950867 -0.2434883 0.9807736
v 0.1936219 0.2434881 0.9733882
v 0.3826811 -0.2434883 0.9238878
v 0.3798124 0.2434881 0.9169297
v 0.5555658 -0.2434883 0.8314792
v 0.5513849 0.2434881 0.8251926
v 0.7071185 -0.2434883 0.7071183
v 0.7017778 0.2434881 0.7017776
v 0.8314795 -0.2434883 0.5555656
v 0.8251927 0.2434881 0.5513847
v 0.9238881 -0.2434883 0.3826809
v 0.91693 0.2434881 0.3798122
v 0.9807737 -0.2434883 0.1950865
v 0.9733884 0.2434881 0.1936216
v 1 -0.2434883 -1.5378E-05
v 0.9924622 0.2434881 -1.5378E-05
v -0.1936216 0.2434881 -0.9733884
v -1.513958E-05 0.2434881 -0.9924622
v 0.1936219 0.2434881 -0.9733884
v 0.3798124 0.2434881 -0.91693
v -0.3798122 0.2434881 -0.91693
v 0.5513849 0.2434881 -0.8251927
v -0.5513847 0.2434881 -0.8251927
v 0.7017778 0.2434881 -0.7017778
v -0.7017776 0.2434881 -0.7017778
v 0.8251927 0.2434881 -0.5513849
v -0.8251926 0.2434881 -0.5513849
v 0.91693 0.2434881 -0.3798124
v -0.9169297 0.2434881 -0.3798124
v 0.9733884 0.2434881 -0.1936219
v -0.9733882 0.2434881 -0.1936219
v 0.9924622 0.2434881 -1.5378E-05
v -0.9924619 0.2434881 1.513958E-05
v 0.9733884 0.2434881 0.1936216
v -0.9733882 0.2434881 0.1936216
v 0.91693 0.2434881 0.3798122
v -0.9169297 0.2434881 0.3798122
v 0.8251927 0.2434881 0.5513847
v -0.8251926 0.2434881 0.5513847
v 0.7017778 0.2434881 0.7017776
v -0.7017776 0.2434881 0.7017776
v 0.5513849 0.2434881 0.8251926
v -0.5513847 0.2434881 0.8251926
v 0.3798124 0.2434881 0.9169297
v -0.3798122 0.2434881 0.9169297
v 0.1936219 0.2434881 0.9733882
v -0.1936216 0.2434881 0.9733882
v -1.513958E-05 0.2434881 0.9924619
v 0.1950867 -0.2434883 -0.9807737
v -1.513958E-05 -0.2434883 -1
v -0.1950865 -0.2434883 -0.9807737
v 0.3826811 -0.2434883 -0.9238881
v -0.3826809 -0.2434883 -0.9238881
v 0.5555658 -0.2434883 -0.8314795
v -0.5555656 -0.2434883 -0.8314795
v 0.7071185 -0.2434883 -0.7071185
v -0.7071183 -0.2434883 -0.7071185
v 0.8314795 -0.2434883 -0.5555658
v -0.8314792 -0.2434883 -0.5555658
v 0.9238881 -0.2434883 -0.3826811
v -0.9238878 -0.2434883 -0.3826811
v 0.9807737 -0.2434883 -0.1950867
v -0.9807736 -0.2434883 -0.1950867
v 1 -0.2434883 -1.5378E-05
v -0.9999999 -0.2434883 1.513958E-05
v 0.9807737 -0.2434883 0.1950865
v -0.9807736 -0.2434883 0.1950865
v 0.9238881 -0.2434883 0.3826809
v -0.9238878 -0.2434883 0.3826809
v 0.8314795 -0.2434883 0.5555656
v -0.8314792 -0.2434883 0.5555656
v 0.7071185 -0.2434883 0.7071183
v -0.7071183 -0.2434883 0.7071183
v 0.5555658 -0.2434883 0.8314792
v -0.5555656 -0.2434883 0.8314792
v 0.3826811 -0.2434883 0.9238878
v -0.3826809 -0.2434883 0.9238878
v 0.1950867 -0.2434883 0.9807736
v -0.1950865 -0.2434883 0.9807736
v -1.513958E-05 -0.2434883 0.9999999
vt 0.03951814 0.8521228
vt 0.03770023 0.8521228
vt 0.03679128 0.8094019
vt 0.03860919 0.8094019
vt 0.04406291 0.8521228
vt 0.04315396 0.8094019
vt 0.05224349 0.8521228
vt 0.05133454 0.8094019
vt 0.06315094 0.8521228
vt 0.06315094 0.8094019
vt 0.07678524 0.8521228
vt 0.0758763 0.8094019
vt 0.09223746 0.8521228
vt 0.0913285 0.8094019
vt 0.1085986 0.8521228
vt 0.1085986 0.8094019
vt 0.1258687 0.8521228
vt 0.1258687 0.8094019
vt 0.1431389 0.8521228
vt 0.1431389 0.8094019
vt 0.1595 0.8521228
vt 0.1595 0.8094019
vt 0.1749523 0.8521228
vt 0.1749523 0.8094019
vt 0.1876776 0.8521228
vt 0.1885865 0.8094019
vt 0.198585 0.8521228
vt 0.199494 0.8094019
vt 0.2067656 0.8521228
vt 0.2076746 0.8094019
vt 0.2122193 0.8521228
vt 0.2131283 0.8094019
vt 0.2140373 0.8521228
vt 0.2149462 0.8094019
vt 0.03770023 0.8521228
vt 0.03860919 0.8094019
vt 0.03679128 0.8094019
vt 0.03951814 0.8521228
vt 0.04315396 0.8094019
vt 0.04406291 0.8521228
vt 0.05133454 0.8094019
vt 0.05224349 0.8521228
vt 0.06315094 0.8094019
vt 0.06315094 0.8521228
vt 0.0758763 0.8094019
vt 0.07678524 0.8521228
vt 0.0913285 0.8094019
vt 0.09223746 0.8521228
vt 0.1085986 0.8094019
vt 0.1085986 0.8521228
vt 0.1258687 0.8094019
vt 0.1258687 0.8521228
vt 0.1431389 0.8094019
vt 0.1431389 0.8521228
vt 0.1595 0.8094019
vt 0.1595 0.8521228
vt 0.1749523 0.8094019
vt 0.1749523 0.8521228
vt 0.1885865 0.8094019
vt 0.1876776 0.8521228
vt 0.199494 0.8094019
vt 0.198585 0.8521228
vt 0.2076746 0.8094019
vt 0.2067656 0.8521228
vt 0.2131283 0.8094019
vt 0.2122193 0.8521228
vt 0.2149462 0.8094019
vt 0.2140373 0.8521228
vt 0.4712712 0.6457903
vt 0.5021756 0.6430634
vt 0.533989 0.6457903
vt 0.5639845 0.6548798
vt 0.4412757 0.6548798
vt 0.592162 0.669423
vt 0.4130981 0.669423
vt 0.6167037 0.690329
vt 0.3885564 0.690329
vt 0.6367007 0.7139618
vt 0.3685594 0.7139618
vt 0.652153 0.7421393
vt 0.3531072 0.7421393
vt 0.6612425 0.7721348
vt 0.3440176 0.7721348
vt 0.6639693 0.8039482
vt 0.3412908 0.8039482
vt 0.6612425 0.8357616
vt 0.3440176 0.8357616
vt 0.652153 0.865757
vt 0.3531072 0.865757
vt 0.6367007 0.8939346
vt 0.3685594 0.8939346
vt 0.6167037 0.9184764
vt 0.3885564 0.9184764
vt 0.592162 0.9384733
vt 0.4130981 0.9384733
vt 0.5639845 0.9530166
vt 0.4412757 0.9530166
vt 0.533989 0.9621062
vt 0.4712712 0.9621062
vt 0.5021756 0.965742
vt 0.533989 0.6448813
vt 0.5021756 0.6412455
vt 0.4712712 0.6448813
vt 0.5648934 0.6539708
vt 0.4403667 0.6539708
vt 0.5930709 0.6685141
vt 0.4121892 0.6685141
vt 0.6176127 0.68942
vt 0.3876474 0.68942
vt 0.6376097 0.7139618
vt 0.3676504 0.7139618
vt 0.6530619 0.7421393
vt 0.3521982 0.7421393
vt 0.6621515 0.7721348
vt 0.3431087 0.7721348
vt 0.6648783 0.8039482
vt 0.3403818 0.8039482
vt 0.6621515 0.8357616
vt 0.3431087 0.8357616
vt 0.6530619 0.866666
vt 0.3521982 0.866666
vt 0.6376097 0.8939346
vt 0.3676504 0.8939346
vt 0.6176127 0.9193853
vt 0.3876474 0.9193853
vt 0.5930709 0.9393823
vt 0.4121892 0.9393823
vt 0.5648934 0.9539255
vt 0.4403667 0.9539255
vt 0.533989 0.9639241
vt 0.4712712 0.9639241
vt 0.5021756 0.9666509
vn -0.7095065 0.6922715 -0.1317601
vn -0.7209965 0.6922715 -0.03040164
vn -0.7324865 -0.6807815 -0.0001726335
vn -0.7209965 -0.6807815 -0.1292306
vn -0.6692915 0.6922715 -0.2698317
vn -0.6750365 -0.6807815 -0.2843627
vn -0.6003516 0.6922715 -0.4004225
vn -0.6118416 -0.6807815 -0.4027237
vn -0.5084318 0.6922715 -0.5121107
vn -0.5199218 -0.6807815 -0.515963
vn -0.3992769 0.6922715 -0.6011141
vn -0.4050219 -0.6807815 -0.6103227
vn -0.278632 0.6922715 -0.6656759
vn -0.278632 -0.6807815 -0.677422
vn -0.1407523 0.6922715 -0.7077775
vn -0.1407523 -0.6807815 -0.7188361
vn -0.002872467 0.6922715 -0.7216315
vn -0.002872467 -0.6807815 -0.7324809
vn 0.1407523 0.6922715 -0.7077775
vn 0.1407523 -0.6807815 -0.7188361
vn 0.2786321 0.6922715 -0.6656758
vn 0.2786321 -0.6807815 -0.677422
vn 0.399277 0.6922715 -0.601114
vn 0.405022 -0.6807815 -0.6103227
vn 0.5084318 0.6922715 -0.5121107
vn 0.5199218 -0.6807815 -0.515963
vn 0.6003517 0.6922715 -0.4004224
vn 0.6118417 -0.6807815 -0.4027235
vn 0.6692916 0.6922715 -0.2698314
vn 0.6750365 -0.6807815 -0.2843627
vn 0.7095065 0.6922715 -0.1317601
vn 0.7209965 -0.6807815 -0.1292306
vn 0.7209965 0.6922715 -0.03040164
vn 0.7324865 -0.6807815 -0.0001726335
vn -0.7209965 0.6922715 -0.03040164
vn -0.7209965 -0.6807815 0.1292306
vn -0.7324865 -0.6807815 -0.0001726335
vn -0.7095065 0.6922715 0.1317601
vn -0.6750365 -0.6807815 0.2843627
vn -0.6692915 0.6922715 0.2698317
vn -0.6118416 -0.6807815 0.4027237
vn -0.6003516 0.6922715 0.4004225
vn -0.5199218 -0.6807815 0.515963
vn -0.5084318 0.6922715 0.5121107
vn -0.4050219 -0.6807815 0.6103227
vn -0.3992769 0.6922715 0.6011141
vn -0.278632 -0.6807815 0.677422
vn -0.278632 0.6922715 0.6656759
vn -0.1407523 -0.6807815 0.7188361
vn -0.1407523 0.6922715 0.7077775
vn -0.002872467 -0.6807815 0.7324809
vn -0.002872467 0.6922715 0.7216315
vn 0.1407523 -0.6807815 0.7188361
vn 0.1407523 0.6922715 0.7077775
vn 0.2786321 -0.6807815 0.677422
vn 0.2786321 0.6922715 0.6656758
vn 0.405022 -0.6807815 0.6103227
vn 0.399277 0.6922715 0.601114
vn 0.5199218 -0.6807815 0.515963
vn 0.5084318 0.6922715 0.5121107
vn 0.6118417 -0.6807815 0.4027235
vn 0.6003517 0.6922715 0.4004224
vn 0.6750365 -0.6807815 0.2843627
vn 0.6692916 0.6922715 0.2698314
vn 0.7209965 -0.6807815 0.1292306
vn 0.7095065 0.6922715 0.1317601
vn 0.7324865 -0.6807815 -0.0001726335
vn 0.7209965 0.6922715 -0.03040164
vn -0.1407523 0.6922715 -0.7077775
vn -0.002872467 0.6922715 -0.7216315
vn 0.1407523 0.6922715 -0.7077775
vn 0.2786321 0.6922715 -0.6656758
vn -0.278632 0.6922715 -0.6656759
vn 0.399277 0.6922715 -0.601114
vn -0.3992769 0.6922715 -0.6011141
vn 0.5084318 0.6922715 -0.5121107
vn -0.5084318 0.6922715 -0.5121107
vn 0.6003517 0.6922715 -0.4004224
vn -0.6003516 0.6922715 -0.4004225
vn 0.6692916 0.6922715 -0.2698314
vn -0.6692915 0.6922715 -0.2698317
vn 0.7095065 0.6922715 -0.1317601
vn -0.7095065 0.6922715 -0.1317601
vn 0.7209965 0.6922715 -0.03040164
vn -0.7209965 0.6922715 -0.03040164
vn 0.7095065 0.6922715 0.1317601
vn -0.7095065 0.6922715 0.1317601
vn 0.6692916 0.6922715 0.2698314
vn -0.6692915 0.6922715 0.2698317
vn 0.6003517 0.6922715 0.4004224
vn -0.6003516 0.6922715 0.4004225
vn 0.5084318 0.6922715 0.5121107
vn -0.5084318 0.6922715 0.5121107
vn 0.399277 0.6922715 0.601114
vn -0.3992769 0.6922715 0.6011141
vn 0.2786321 0.6922715 0.6656758
vn -0.278632 0.6922715 0.6656759
vn 0.1407523 0.6922715 0.7077775
vn -0.1407523 0.6922715 0.7077775
vn -0.002872467 0.6922715 0.7216315
vn 0.1407523 -0.6807815 -0.7188361
vn -0.002872467 -0.6807815 -0.7324809
vn -0.1407523 -0.6807815 -0.7188361
vn 0.2786321 -0.6807815 -0.677422
vn -0.278632 -0.6807815 -0.677422
vn 0.405022 -0.6807815 -0.6103227
vn -0.4050219 -0.6807815 -0.6103227
vn 0.5199218 -0.6807815 -0.515963
vn -0.5199218 -0.6807815 -0.515963
vn 0.6118417 -0.6807815 -0.4027235
vn -0.6118416 -0.6807815 -0.4027237
vn 0.6750365 -0.6807815 -0.2843627
vn -0.6750365 -0.6807815 -0.2843627
vn 0.7209965 -0.6807815 -0.1292306
vn -0.7209965 -0.6807815 -0.1292306
vn 0.7324865 -0.6807815 -0.0001726335
vn -0.7324865 -0.6807815 -0.0001726335
vn 0.7209965 -0.6807815 0.1292306
vn -0.7209965 -0.6807815 0.1292306
vn 0.6750365 -0.6807815 0.2843627
vn -0.6750365 -0.6807815 0.2843627
vn 0.6118417 -0.6807815 0.4027235
vn -0.6118416 -0.6807815 0.4027237
vn 0.5199218 -0.6807815 0.515963
vn -0.5199218 -0.6807815 0.515963
vn 0.405022 -0.6807815 0.6103227
vn -0.4050219 -0.6807815 0.6103227
vn 0.2786321 -0.6807815 0.677422
vn -0.278632 -0.6807815 0.677422
vn 0.1407523 -0.6807815 0.7188361
vn -0.1407523 -0.6807815 0.7188361
vn -0.002872467 -0.6807815 0.7324809
g Carota.017_0
f 3/3/3 2/2/2 1/1/1
f 4/4/4 3/3/3 1/1/1
f 4/4/4 1/1/1 5/5/5
f 6/6/6 4/4/4 5/5/5
f 6/6/6 5/5/5 7/7/7
f 8/8/8 6/6/6 7/7/7
f 8/8/8 7/7/7 9/9/9
f 10/10/10 8/8/8 9/9/9
f 10/10/10 9/9/9 11/11/11
f 12/12/12 10/10/10 11/11/11
f 12/12/12 11/11/11 13/13/13
f 14/14/14 12/12/12 13/13/13
f 14/14/14 13/13/13 15/15/15
f 16/16/16 14/14/14 15/15/15
f 16/16/16 15/15/15 17/17/17
f 18/18/18 16/16/16 17/17/17
f 18/18/18 17/17/17 19/19/19
f 20/20/20 18/18/18 19/19/19
f 20/20/20 19/19/19 21/21/21
f 22/22/22 20/20/20 21/21/21
f 22/22/22 21/21/21 23/23/23
f 24/24/24 22/22/22 23/23/23
f 24/24/24 23/23/23 25/25/25
f 26/26/26 24/24/24 25/25/25
f 26/26/26 25/25/25 27/27/27
f 28/28/28 26/26/26 27/27/27
f 28/28/28 27/27/27 29/29/29
f 30/30/30 28/28/28 29/29/29
f 30/30/30 29/29/29 31/31/31
f 32/32/32 30/30/30 31/31/31
f 32/32/32 31/31/31 33/33/33
f 34/34/34 32/32/32 33/33/33
f 37/37/37 36/36/36 35/35/35
f 36/36/36 38/38/38 35/35/35
f 36/36/36 39/39/39 38/38/38
f 39/39/39 40/40/40 38/38/38
f 39/39/39 41/41/41 40/40/40
f 41/41/41 42/42/42 40/40/40
f 41/41/41 43/43/43 42/42/42
f 43/43/43 44/44/44 42/42/42
f 43/43/43 45/45/45 44/44/44
f 45/45/45 46/46/46 44/44/44
f 45/45/45 47/47/47 46/46/46
f 47/47/47 48/48/48 46/46/46
f 47/47/47 49/49/49 48/48/48
f 49/49/49 50/50/50 48/48/48
f 49/49/49 51/51/51 50/50/50
f 51/51/51 52/52/52 50/50/50
f 51/51/51 53/53/53 52/52/52
f 53/53/53 54/54/54 52/52/52
f 53/53/53 55/55/55 54/54/54
f 55/55/55 56/56/56 54/54/54
f 55/55/55 57/57/57 56/56/56
f 57/57/57 58/58/58 56/56/56
f 57/57/57 59/59/59 58/58/58
f 59/59/59 60/60/60 58/58/58
f 59/59/59 61/61/61 60/60/60
f 61/61/61 62/62/62 60/60/60
f 61/61/61 63/63/63 62/62/62
f 63/63/63 64/64/64 62/62/62
f 63/63/63 65/65/65 64/64/64
f 65/65/65 66/66/66 64/64/64
f 65/65/65 67/67/67 66/66/66
f 67/67/67 68/68/68 66/66/66
f 71/71/71 70/70/70 69/69/69
f 69/69/69 72/72/72 71/71/71
f 69/69/69 73/73/73 72/72/72
f 73/73/73 74/74/74 72/72/72
f 73/73/73 75/75/75 74/74/74
f 75/75/75 76/76/76 74/74/74
f 75/75/75 77/77/77 76/76/76
f 77/77/77 78/78/78 76/76/76
f 77/77/77 79/79/79 78/78/78
f 79/79/79 80/80/80 78/78/78
f 79/79/79 81/81/81 80/80/80
f 81/81/81 82/82/82 80/80/80
f 81/81/81 83/83/83 82/82/82
f 83/83/83 84/84/84 82/82/82
f 83/83/83 85/85/85 84/84/84
f 85/85/85 86/86/86 84/84/84
f 85/85/85 87/87/87 86/86/86
f 87/87/87 88/88/88 86/86/86
f 87/87/87 89/89/89 88/88/88
f 89/89/89 90/90/90 88/88/88
f 89/89/89 91/91/91 90/90/90
f 91/91/91 92/92/92 90/90/90
f 91/91/91 93/93/93 92/92/92
f 93/93/93 94/94/94 92/92/92
f 93/93/93 95/95/95 94/94/94
f 95/95/95 96/96/96 94/94/94
f 95/95/95 97/97/97 96/96/96
f 97/97/97 98/98/98 96/96/96
f 97/97/97 99/99/99 98/98/98
f 99/99/99 100/100/100 98/98/98
f 103/103/103 102/102/102 101/101/101
f 101/101/101 104/104/104 103/103/103
f 104/104/104 105/105/105 103/103/103
f 104/104/104 106/106/106 105/105/105
f 106/106/106 107/107/107 105/105/105
f 106/106/106 108/108/108 107/107/107
f 108/108/108 109/109/109 107/107/107
f 108/108/108 110/110/110 109/109/109
f 110/110/110 111/111/111 109/109/109
f 110/110/110 112/112/112 111/111/111
f 112/112/112 113/113/113 111/111/111
f 112/112/112 114/114/114 113/113/113
f 114/114/114 115/115/115 113/113/113
f 114/114/114 116/116/116 115/115/115
f 116/116/116 117/117/117 115/115/115
f 116/116/116 118/118/118 117/117/117
f 118/118/118 119/119/119 117/117/117
f 118/118/118 120/120/120 119/119/119
f 120/120/120 121/121/121 119/119/119
f 120/120/120 122/122/122 121/121/121
f 122/122/122 123/123/123 121/121/121
f 122/122/122 124/124/124 123/123/123
f 124/124/124 125/125/125 123/123/123
f 124/124/124 126/126/126 125/125/125
f 126/126/126 127/127/127 125/125/125
f 126/126/126 128/128/128 127/127/127
f 128/128/128 129/129/129 127/127/127
f 128/128/128 130/130/130 129/129/129
f 130/130/130 131/131/131 129/129/129
f 130/130/130 132/132/132 131/131/131
