g Carota.007
v -0.8578229 0.3034242 -0.1706306
v -0.874639 0.3034242 1.317263E-05
v -0.8175175 -0.3034247 1.317263E-05
v -0.8018224 -0.3034247 -0.1594999
v -0.8080685 0.3034242 -0.334708
v -0.7552978 -0.3034247 -0.312847
v -0.7272443 0.3034242 -0.4859197
v -0.6797587 -0.3034247 -0.4541826
v -0.6184732 0.3034242 -0.6184736
v -0.5780878 -0.3034247 -0.5780882
v -0.4859194 0.3034242 -0.7272446
v -0.454209 -0.3034247 -0.6797591
v -0.3347076 0.3034242 -0.8080689
v -0.3128467 -0.3034247 -0.7552982
v -0.1706302 0.3034242 -0.8578233
v -0.1594995 -0.3034247 -0.8018228
v -1.317263E-05 0.3034242 -0.8746394
v -1.317263E-05 -0.3034247 -0.8175179
v 0.1706306 0.3034242 -0.8578233
v 0.1594999 -0.3034247 -0.8018228
v 0.334708 0.3034242 -0.8080689
v 0.312847 -0.3034247 -0.7552982
v 0.4859197 0.3034242 -0.7272446
v 0.4541826 -0.3034247 -0.6797591
v 0.6184736 0.3034242 -0.6184736
v 0.5780882 -0.3034247 -0.5780882
v 0.7272446 0.3034242 -0.4859197
v 0.6797591 -0.3034247 -0.4541826
v 0.8080689 0.3034242 -0.334708
v 0.7552982 -0.3034247 -0.312847
v 0.8578233 0.3034242 -0.1706306
v 0.8018228 -0.3034247 -0.1594999
v 0.8746394 0.3034242 -1.353025E-05
v 0.8175179 -0.3034247 -1.353025E-05
v -0.874639 0.3034242 1.317263E-05
v -0.8018224 -0.3034247 0.1594995
v -0.8175175 -0.3034247 1.317263E-05
v -0.8578229 0.3034242 0.1706302
v -0.7552978 -0.3034247 0.3128467
v -0.8080685 0.3034242 0.3347076
v -0.6797587 -0.3034247 0.454209
v -0.7272443 0.3034242 0.4859194
v -0.5780878 -0.3034247 0.5780878
v -0.6184732 0.3034242 0.6184732
v -0.4541823 -0.3034247 0.6797587
v -0.4859194 0.3034242 0.7272443
v -0.3128467 -0.3034247 0.7552978
v -0.3347076 0.3034242 0.8080685
v -0.1594995 -0.3034247 0.8018224
v -0.1706302 0.3034242 0.8578229
v -1.317263E-05 -0.3034247 0.8175175
v -1.317263E-05 0.3034242 0.874639
v 0.1594999 -0.3034247 0.8018224
v 0.1706306 0.3034242 0.8578229
v 0.312847 -0.3034247 0.7552978
v 0.334708 0.3034242 0.8080685
v 0.4541826 -0.3034247 0.6797587
v 0.4859197 0.3034242 0.7272443
v 0.5780882 -0.3034247 0.5780878
v 0.6184736 0.3034242 0.6184732
v 0.6797591 -0.3034247 0.4541823
v 0.7272446 0.3034242 0.4859194
v 0.7552982 -0.3034247 0.3128467
v 0.8080689 0.3034242 0.3347076
v 0.8018228 -0.3034247 0.1594995
v 0.8578233 0.3034242 0.1706302
v 0.8175179 -0.3034247 -1.353025E-05
v 0.8746394 0.3034242 -1.353025E-05
v -0.1706302 0.3034242 -0.8578233
v -1.317263E-05 0.3034242 -0.8746394
v 0.1706306 0.3034242 -0.8578233
v 0.334708 0.3034242 -0.8080689
v -0.3347076 0.3034242 -0.8080689
v 0.4859197 0.3034242 -0.7272446
v -0.4859194 0.3034242 -0.7272446
v 0.6184736 0.3034242 -0.6184736
v -0.6184732 0.3034242 -0.6184736
v 0.7272446 0.3034242 -0.4859197
v -0.7272443 0.3034242 -0.4859197
v 0.8080689 0.3034242 -0.334708
v -0.8080685 0.3034242 -0.334708
v 0.8578233 0.3034242 -0.1706306
v -0.8578229 0.3034242 -0.1706306
v 0.8746394 0.3034242 -1.353025E-05
v -0.874639 0.3034242 1.317263E-05
v 0.8578233 0.3034242 0.1706302
v -0.8578229 0.3034242 0.1706302
v 0.8080689 0.3034242 0.3347076
v -0.8080685 0.3034242 0.3347076
v 0.7272446 0.3034242 0.4859194
v -0.7272443 0.3034242 0.4859194
v 0.6184736 0.3034242 0.6184732
v -0.6184732 0.3034242 0.6184732
v 0.4859197 0.3034242 0.7272443
v -0.4859194 0.3034242 0.7272443
v 0.334708 0.3034242 0.8080685
v -0.3347076 0.3034242 0.8080685
v 0.1706306 0.3034242 0.8578229
v -0.1706302 0.3034242 0.8578229
v -1.317263E-05 0.3034242 0.874639
v 0.1594999 -0.3034247 -0.8018228
v -1.317263E-05 -0.3034247 -0.8175179
v -0.1594995 -0.3034247 -0.8018228
v 0.312847 -0.3034247 -0.7552982
v -0.3128467 -0.3034247 -0.7552982
v 0.4541826 -0.3034247 -0.6797591
v -0.454209 -0.3034247 -0.6797591
v 0.5780882 -0.3034247 -0.5780882
v -0.5780878 -0.3034247 -0.5780882
v 0.6797591 -0.3034247 -0.4541826
v -0.6797587 -0.3034247 -0.4541826
v 0.7552982 -0.3034247 -0.312847
v -0.7552978 -0.3034247 -0.312847
v 0.8018228 -0.3034247 -0.1594999
v -0.8018224 -0.3034247 -0.1594999
v 0.8175179 -0.3034247 -1.353025E-05
v -0.8175175 -0.3034247 1.317263E-05
v 0.8018228 -0.3034247 0.1594995
v -0.8018224 -0.3034247 0.1594995
v 0.7552982 -0.3034247 0.3128467
v -0.7552978 -0.3034247 0.3128467
v 0.6797591 -0.3034247 0.4541823
v -0.6797587 -0.3034247 0.454209
v 0.5780882 -0.3034247 0.5780878
v -0.5780878 -0.3034247 0.5780878
v 0.4541826 -0.3034247 0.6797587
v -0.4541823 -0.3034247 0.6797587
v 0.312847 -0.3034247 0.7552978
v -0.3128467 -0.3034247 0.7552978
v 0.1594999 -0.3034247 0.8018224
v -0.1594995 -0.3034247 0.8018224
v -1.317263E-05 -0.3034247 0.8175175
vt 0.04968752 0.3857041
vt 0.04793286 0.3857041
vt 0.05319683 0.3321871
vt 0.05407416 0.3321871
vt 0.05407416 0.3857041
vt 0.0584608 0.3321871
vt 0.06109278 0.3857041
vt 0.06547942 0.3321871
vt 0.07074338 0.3857041
vt 0.07425269 0.3321871
vt 0.08214865 0.3857041
vt 0.08565795 0.3321871
vt 0.09618589 0.3857041
vt 0.09794055 0.3321871
vt 0.1102231 0.3857041
vt 0.1111005 0.3321871
vt 0.126015 0.3857041
vt 0.126015 0.3321871
vt 0.1409296 0.3857041
vt 0.1400523 0.3321871
vt 0.1558442 0.3857041
vt 0.1532122 0.3321871
vt 0.1690041 0.3857041
vt 0.1663721 0.3321871
vt 0.1804094 0.3857041
vt 0.1769 0.3321871
vt 0.19006 0.3857041
vt 0.1856733 0.3321871
vt 0.1970786 0.3857041
vt 0.192692 0.3321871
vt 0.2023426 0.3857041
vt 0.1970786 0.3321871
vt 0.2032199 0.3857041
vt 0.1979559 0.3321871
vt 0.04793286 0.3857041
vt 0.05407416 0.3321871
vt 0.05319683 0.3321871
vt 0.04968752 0.3857041
vt 0.0584608 0.3321871
vt 0.05407416 0.3857041
vt 0.06547942 0.3321871
vt 0.06109278 0.3857041
vt 0.07425269 0.3321871
vt 0.07074338 0.3857041
vt 0.08565795 0.3321871
vt 0.08214865 0.3857041
vt 0.09794055 0.3321871
vt 0.09618589 0.3857041
vt 0.1111005 0.3321871
vt 0.1102231 0.3857041
vt 0.126015 0.3321871
vt 0.126015 0.3857041
vt 0.1400523 0.3321871
vt 0.1409296 0.3857041
vt 0.1532122 0.3321871
vt 0.1558442 0.3857041
vt 0.1663721 0.3321871
vt 0.1690041 0.3857041
vt 0.1769 0.3321871
vt 0.1804094 0.3857041
vt 0.1856733 0.3321871
vt 0.19006 0.3857041
vt 0.192692 0.3321871
vt 0.1970786 0.3857041
vt 0.1970786 0.3321871
vt 0.2023426 0.3857041
vt 0.1979559 0.3321871
vt 0.2032199 0.3857041
vt 0.4664182 0.6383744
vt 0.4971247 0.6348652
vt 0.5269538 0.6383744
vt 0.5559056 0.6471477
vt 0.4374664 0.6471477
vt 0.5831028 0.661185
vt 0.4102692 0.661185
vt 0.6067907 0.6804862
vt 0.3874587 0.6804862
vt 0.6260919 0.704174
vt 0.3681575 0.704174
vt 0.6401291 0.7304939
vt 0.3532429 0.7304939
vt 0.6489024 0.760323
vt 0.3444697 0.760323
vt 0.6524117 0.7901522
vt 0.3418377 0.7901522
vt 0.6489024 0.8208587
vt 0.3444697 0.8208587
vt 0.6401291 0.8498105
vt 0.3532429 0.8498105
vt 0.6260919 0.8761303
vt 0.3681575 0.8761303
vt 0.6067907 0.8998181
vt 0.3874587 0.8998181
vt 0.5831028 0.9191194
vt 0.4102692 0.9191194
vt 0.5559056 0.9340339
vt 0.4374664 0.9340339
vt 0.5269538 0.9428072
vt 0.4664182 0.9428072
vt 0.4971247 0.9454392
vt 0.5251992 0.6480251
vt 0.4971247 0.6453931
vt 0.4681729 0.6480251
vt 0.5523964 0.655921
vt 0.4409757 0.655921
vt 0.5778388 0.6699583
vt 0.4164105 0.6699583
vt 0.599772 0.6875048
vt 0.3944773 0.6875048
vt 0.6173186 0.709438
vt 0.3760535 0.709438
vt 0.6304785 0.7348805
vt 0.3628936 0.7348805
vt 0.6392518 0.7620777
vt 0.3549976 0.7620777
vt 0.6418838 0.7901522
vt 0.3514883 0.7901522
vt 0.6392518 0.8182266
vt 0.3549976 0.8182266
vt 0.6304785 0.8454238
vt 0.3628936 0.8454238
vt 0.6173186 0.8708664
vt 0.3760535 0.8708664
vt 0.599772 0.8927995
vt 0.3944773 0.8927995
vt 0.5778388 0.9112234
vt 0.4164105 0.9112234
vt 0.5523964 0.9243833
vt 0.4409757 0.9243833
vt 0.5251992 0.9322793
vt 0.4681729 0.9322793
vt 0.4971247 0.9349113
vn -0.7467262 0.6515261 -0.1338424
vn -0.7586262 0.6515261 -0.0001726335
vn -0.6931762 -0.7169762 -0.0738375
vn -0.6812761 -0.7169762 -0.1476756
vn -0.6991261 0.6515261 -0.2945105
vn -0.639626 -0.7169762 -0.2771709
vn -0.6336761 0.6515261 -0.4170952
vn -0.5801259 -0.7169762 -0.3865218
vn -0.5384759 0.6515261 -0.5343758
vn -0.4908758 -0.7169762 -0.4949607
vn -0.4194757 0.6515261 -0.6321028
vn -0.3837756 -0.7169762 -0.5819463
vn -0.2885754 0.6515261 -0.7015967
vn -0.2647754 -0.7169762 -0.6448559
vn -0.1457753 0.6515261 -0.7444887
vn -0.1338752 -0.7169762 -0.6841218
vn -0.002974987 0.6515261 -0.7586204
vn -0.002974987 -0.7169762 -0.6970913
vn 0.1457753 0.6515261 -0.7444887
vn 0.1338752 -0.7169762 -0.6841218
vn 0.2885755 0.6515261 -0.7015967
vn 0.2647754 -0.7169762 -0.6448559
vn 0.4194757 0.6515261 -0.6321028
vn 0.3837756 -0.7169762 -0.5819463
vn 0.5384759 0.6515261 -0.5343758
vn 0.4908758 -0.7169762 -0.4949607
vn 0.6336761 0.6515261 -0.4170952
vn 0.5801259 -0.7169762 -0.3865218
vn 0.6991261 0.6515261 -0.2945105
vn 0.639626 -0.7169762 -0.2771709
vn 0.7467262 0.6515261 -0.1338422
vn 0.6812761 -0.7169762 -0.1476756
vn 0.7586262 0.6515261 -0.0001726335
vn 0.6931762 -0.7169762 -0.0738375
vn -0.7586262 0.6515261 -0.0001726335
vn -0.6812761 -0.7169762 0.1476756
vn -0.6931762 -0.7169762 -0.0738375
vn -0.7467262 0.6515261 0.1338424
vn -0.639626 -0.7169762 0.2771709
vn -0.6991261 0.6515261 0.2945105
vn -0.5801259 -0.7169762 0.3865218
vn -0.6336761 0.6515261 0.4170952
vn -0.4908758 -0.7169762 0.4949607
vn -0.5384759 0.6515261 0.5343758
vn -0.3837756 -0.7169762 0.5819463
vn -0.4194757 0.6515261 0.6321028
vn -0.2647754 -0.7169762 0.6448559
vn -0.2885754 0.6515261 0.7015967
vn -0.1338752 -0.7169762 0.6841218
vn -0.1457753 0.6515261 0.7444887
vn -0.002974987 -0.7169762 0.6970913
vn -0.002974987 0.6515261 0.7586204
vn 0.1338752 -0.7169762 0.6841218
vn 0.1457753 0.6515261 0.7444887
vn 0.2647754 -0.7169762 0.6448559
vn 0.2885755 0.6515261 0.7015967
vn 0.3837756 -0.7169762 0.5819463
vn 0.4194757 0.6515261 0.6321028
vn 0.4908758 -0.7169762 0.4949607
vn 0.5384759 0.6515261 0.5343758
vn 0.5801259 -0.7169762 0.3865218
vn 0.6336761 0.6515261 0.4170952
vn 0.639626 -0.7169762 0.2771709
vn 0.6991261 0.6515261 0.2945105
vn 0.6812761 -0.7169762 0.1476756
vn 0.7467262 0.6515261 0.1338422
vn 0.6931762 -0.7169762 -0.0738375
vn 0.7586262 0.6515261 -0.0001726335
vn -0.1457753 0.6515261 -0.7444887
vn -0.002974987 0.6515261 -0.7586204
vn 0.1457753 0.6515261 -0.7444887
vn 0.2885755 0.6515261 -0.7015967
vn -0.2885754 0.6515261 -0.7015967
vn 0.4194757 0.6515261 -0.6321028
vn -0.4194757 0.6515261 -0.6321028
vn 0.5384759 0.6515261 -0.5343758
vn -0.5384759 0.6515261 -0.5343758
vn 0.6336761 0.6515261 -0.4170952
vn -0.6336761 0.6515261 -0.4170952
vn 0.6991261 0.6515261 -0.2945105
vn -0.6991261 0.6515261 -0.2945105
vn 0.7467262 0.6515261 -0.1338422
vn -0.7467262 0.6515261 -0.1338424
vn 0.7586262 0.6515261 -0.0001726335
vn -0.7586262 0.6515261 -0.0001726335
vn 0.7467262 0.6515261 0.1338422
vn -0.7467262 0.6515261 0.1338424
vn 0.6991261 0.6515261 0.2945105
vn -0.6991261 0.6515261 0.2945105
vn 0.6336761 0.6515261 0.4170952
vn -0.6336761 0.6515261 0.4170952
vn 0.5384759 0.6515261 0.5343758
vn -0.5384759 0.6515261 0.5343758
vn 0.4194757 0.6515261 0.6321028
vn -0.4194757 0.6515261 0.6321028
vn 0.2885755 0.6515261 0.7015967
vn -0.2885754 0.6515261 0.7015967
vn 0.1457753 0.6515261 0.7444887
vn -0.1457753 0.6515261 0.7444887
vn -0.002974987 0.6515261 0.7586204
vn 0.1338752 -0.7169762 -0.6841218
vn -0.002974987 -0.7169762 -0.6970913
vn -0.1338752 -0.7169762 -0.6841218
vn 0.2647754 -0.7169762 -0.6448559
vn -0.2647754 -0.7169762 -0.6448559
vn 0.3837756 -0.7169762 -0.5819463
vn -0.3837756 -0.7169762 -0.5819463
vn 0.4908758 -0.7169762 -0.4949607
vn -0.4908758 -0.7169762 -0.4949607
vn 0.5801259 -0.7169762 -0.3865218
vn -0.5801259 -0.7169762 -0.3865218
vn 0.639626 -0.7169762 -0.2771709
vn -0.639626 -0.7169762 -0.2771709
vn 0.6812761 -0.7169762 -0.1476756
vn -0.6812761 -0.7169762 -0.1476756
vn 0.6931762 -0.7169762 -0.0738375
vn -0.6931762 -0.7169762 -0.0738375
vn 0.6812761 -0.7169762 0.1476756
vn -0.6812761 -0.7169762 0.1476756
vn 0.639626 -0.7169762 0.2771709
vn -0.639626 -0.7169762 0.2771709
vn 0.5801259 -0.7169762 0.3865218
vn -0.5801259 -0.7169762 0.3865218
vn 0.4908758 -0.7169762 0.4949607
vn -0.4908758 -0.7169762 0.4949607
vn 0.3837756 -0.7169762 0.5819463
vn -0.3837756 -0.7169762 0.5819463
vn 0.2647754 -0.7169762 0.6448559
vn -0.2647754 -0.7169762 0.6448559
vn 0.1338752 -0.7169762 0.6841218
vn -0.1338752 -0.7169762 0.6841218
vn -0.002974987 -0.7169762 0.6970913
g Carota.007_0
f 3/3/3 2/2/2 1/1/1
f 4/4/4 3/3/3 1/1/1
f 4/4/4 1/1/1 5/5/5
f 6/6/6 4/4/4 5/5/5
f 6/6/6 5/5/5 7/7/7
f 8/8/8 6/6/6 7/7/7
f 8/8/8 7/7/7 9/9/9
f 10/10/10 8/8/8 9/9/9
f 10/10/10 9/9/9 11/11/11
f 12/12/12 10/10/10 11/11/11
f 12/12/12 11/11/11 13/13/13
f 14/14/14 12/12/12 13/13/13
f 14/14/14 13/13/13 15/15/15
f 16/16/16 14/14/14 15/15/15
f 16/16/16 15/15/15 17/17/17
f 18/18/18 16/16/16 17/17/17
f 18/18/18 17/17/17 19/19/19
f 20/20/20 18/18/18 19/19/19
f 20/20/20 19/19/19 21/21/21
f 22/22/22 20/20/20 21/21/21
f 22/22/22 21/21/21 23/23/23
f 24/24/24 22/22/22 23/23/23
f 24/24/24 23/23/23 25/25/25
f 26/26/26 24/24/24 25/25/25
f 26/26/26 25/25/25 27/27/27
f 28/28/28 26/26/26 27/27/27
f 28/28/28 27/27/27 29/29/29
f 30/30/30 28/28/28 29/29/29
f 30/30/30 29/29/29 31/31/31
f 32/32/32 30/30/30 31/31/31
f 32/32/32 31/31/31 33/33/33
f 34/34/34 32/32/32 33/33/33
f 37/37/37 36/36/36 35/35/35
f 36/36/36 38/38/38 35/35/35
f 36/36/36 39/39/39 38/38/38
f 39/39/39 40/40/40 38/38/38
f 39/39/39 41/41/41 40/40/40
f 41/41/41 42/42/42 40/40/40
f 41/41/41 43/43/43 42/42/42
f 43/43/43 44/44/44 42/42/42
f 43/43/43 45/45/45 44/44/44
f 45/45/45 46/46/46 44/44/44
f 45/45/45 47/47/47 46/46/46
f 47/47/47 48/48/48 46/46/46
f 47/47/47 49/49/49 48/48/48
f 49/49/49 50/50/50 48/48/48
f 49/49/49 51/51/51 50/50/50
f 51/51/51 52/52/52 50/50/50
f 51/51/51 53/53/53 52/52/52
f 53/53/53 54/54/54 52/52/52
f 53/53/53 55/55/55 54/54/54
f 55/55/55 56/56/56 54/54/54
f 55/55/55 57/57/57 56/56/56
f 57/57/57 58/58/58 56/56/56
f 57/57/57 59/59/59 58/58/58
f 59/59/59 60/60/60 58/58/58
f 59/59/59 61/61/61 60/60/60
f 61/61/61 62/62/62 60/60/60
f 61/61/61 63/63/63 62/62/62
f 63/63/63 64/64/64 62/62/62
f 63/63/63 65/65/65 64/64/64
f 65/65/65 66/66/66 64/64/64
f 65/65/65 67/67/67 66/66/66
f 67/67/67 68/68/68 66/66/66
f 71/71/71 70/70/70 69/69/69
f 69/69/69 72/72/72 71/71/71
f 69/69/69 73/73/73 72/72/72
f 73/73/73 74/74/74 72/72/72
f 73/73/73 75/75/75 74/74/74
f 75/75/75 76/76/76 74/74/74
f 75/75/75 77/77/77 76/76/76
f 77/77/77 78/78/78 76/76/76
f 77/77/77 79/79/79 78/78/78
f 79/79/79 80/80/80 78/78/78
f 79/79/79 81/81/81 80/80/80
f 81/81/81 82/82/82 80/80/80
f 81/81/81 83/83/83 82/82/82
f 83/83/83 84/84/84 82/82/82
f 83/83/83 85/85/85 84/84/84
f 85/85/85 86/86/86 84/84/84
f 85/85/85 87/87/87 86/86/86
f 87/87/87 88/88/88 86/86/86
f 87/87/87 89/89/89 88/88/88
f 89/89/89 90/90/90 88/88/88
f 89/89/89 91/91/91 90/90/90
f 91/91/91 92/92/92 90/90/90
f 91/91/91 93/93/93 92/92/92
f 93/93/93 94/94/94 92/92/92
f 93/93/93 95/95/95 94/94/94
f 95/95/95 96/96/96 94/94/94
f 95/95/95 97/97/97 96/96/96
f 97/97/97 98/98/98 96/96/96
f 97/97/97 99/99/99 98/98/98
f 99/99/99 100/100/100 98/98/98
f 103/103/103 102/102/102 101/101/101
f 101/101/101 104/104/104 103/103/103
f 104/104/104 105/105/105 103/103/103
f 104/104/104 106/106/106 105/105/105
f 106/106/106 107/107/107 105/105/105
f 106/106/106 108/108/108 107/107/107
f 108/108/108 109/109/109 107/107/107
f 108/108/108 110/110/110 109/109/109
f 110/110/110 111/111/111 109/109/109
f 110/110/110 112/112/112 111/111/111
f 112/112/112 113/113/113 111/111/111
f 112/112/112 114/114/114 113/113/113
f 114/114/114 115/115/115 113/113/113
f 114/114/114 116/116/116 115/115/115
f 116/116/116 117/117/117 115/115/115
f 116/116/116 118/118/118 117/117/117
f 118/118/118 119/119/119 117/117/117
f 118/118/118 120/120/120 119/119/119
f 120/120/120 121/121/121 119/119/119
f 120/120/120 122/122/122 121/121/121
f 122/122/122 123/123/123 121/121/121
f 122/122/122 124/124/124 123/123/123
f 124/124/124 125/125/125 123/123/123
f 124/124/124 126/126/126 125/125/125
f 126/126/126 127/127/127 125/125/125
f 126/126/126 128/128/128 127/127/127
f 128/128/128 129/129/129 127/127/127
f 128/128/128 130/130/130 129/129/129
f 130/130/130 131/131/131 129/129/129
f 130/130/130 132/132/132 131/131/131
