g Carota.012
v -0.9807736 0.2489508 -0.1950867
v -0.9999999 0.2489508 1.513958E-05
v -0.9961852 -0.2489511 1.513958E-05
v -0.9770503 -0.2489511 -0.1943543
v -0.9238878 0.2489508 -0.3826811
v -0.9203783 -0.2489511 -0.3812163
v -0.8314792 0.2489508 -0.5555658
v -0.8283054 -0.2489511 -0.5534601
v -0.7071183 0.2489508 -0.7071185
v -0.7044326 -0.2489511 -0.7044328
v -0.5555656 0.2489508 -0.8314795
v -0.5534599 -0.2489511 -0.8283056
v -0.3826809 0.2489508 -0.9238881
v -0.381216 -0.2489511 -0.9203786
v -0.1950865 0.2489508 -0.9807737
v -0.1943541 -0.2489511 -0.9770505
v -1.513958E-05 0.2489508 -1
v -1.513958E-05 -0.2489511 -0.9961854
v 0.1950867 0.2489508 -0.9807737
v 0.1943543 -0.2489511 -0.9770505
v 0.3826811 0.2489508 -0.9238881
v 0.3812163 -0.2489511 -0.9203786
v 0.5555658 0.2489508 -0.8314795
v 0.5534601 -0.2489511 -0.8283056
v 0.7071185 0.2489508 -0.7071185
v 0.7044328 -0.2489511 -0.7044328
v 0.8314795 0.2489508 -0.5555658
v 0.8283056 -0.2489511 -0.5534601
v 0.9238881 0.2489508 -0.3826811
v 0.9203786 -0.2489511 -0.3812163
v 0.9807737 0.2489508 -0.1950867
v 0.9770505 -0.2489511 -0.1943543
v 1 0.2489508 -1.5378E-05
v 0.9961854 -0.2489511 -1.5378E-05
v -0.9999999 0.2489508 1.513958E-05
v -0.9770503 -0.2489511 0.1943541
v -0.9961852 -0.2489511 1.513958E-05
v -0.9807736 0.2489508 0.1950865
v -0.9203783 -0.2489511 0.381216
v -0.9238878 0.2489508 0.3826809
v -0.8283054 -0.2489511 0.5534599
v -0.8314792 0.2489508 0.5555656
v -0.7044326 -0.2489511 0.7044326
v -0.7071183 0.2489508 0.7071183
v -0.5534599 -0.2489511 0.8283054
v -0.5555656 0.2489508 0.8314792
v -0.381216 -0.2489511 0.9203783
v -0.3826809 0.2489508 0.9238878
v -0.1943541 -0.2489511 0.9770503
v -0.1950865 0.2489508 0.9807736
v -1.513958E-05 -0.2489511 0.9961852
v -1.513958E-05 0.2489508 0.9999999
v 0.1943543 -0.2489511 0.9770503
v 0.1950867 0.2489508 0.9807736
v 0.3812163 -0.2489511 0.9203783
v 0.3826811 0.2489508 0.9238878
v 0.5534601 -0.2489511 0.8283054
v 0.5555658 0.2489508 0.8314792
v 0.7044328 -0.2489511 0.7044326
v 0.7071185 0.2489508 0.7071183
v 0.8283056 -0.2489511 0.5534599
v 0.8314795 0.2489508 0.5555656
v 0.9203786 -0.2489511 0.381216
v 0.9238881 0.2489508 0.3826809
v 0.9770505 -0.2489511 0.1943541
v 0.9807737 0.2489508 0.1950865
v 0.9961854 -0.2489511 -1.5378E-05
v 1 0.2489508 -1.5378E-05
v -0.1950865 0.2489508 -0.9807737
v -1.513958E-05 0.2489508 -1
v 0.1950867 0.2489508 -0.9807737
v 0.3826811 0.2489508 -0.9238881
v -0.3826809 0.2489508 -0.9238881
v 0.5555658 0.2489508 -0.8314795
v -0.5555656 0.2489508 -0.8314795
v 0.7071185 0.2489508 -0.7071185
v -0.7071183 0.2489508 -0.7071185
v 0.8314795 0.2489508 -0.5555658
v -0.8314792 0.2489508 -0.5555658
v 0.9238881 0.2489508 -0.3826811
v -0.9238878 0.2489508 -0.3826811
v 0.9807737 0.2489508 -0.1950867
v -0.9807736 0.2489508 -0.1950867
v 1 0.2489508 -1.5378E-05
v -0.9999999 0.2489508 1.513958E-05
v 0.9807737 0.2489508 0.1950865
v -0.9807736 0.2489508 0.1950865
v 0.9238881 0.2489508 0.3826809
v -0.9238878 0.2489508 0.3826809
v 0.8314795 0.2489508 0.5555656
v -0.8314792 0.2489508 0.5555656
v 0.7071185 0.2489508 0.7071183
v -0.7071183 0.2489508 0.7071183
v 0.5555658 0.2489508 0.8314792
v -0.5555656 0.2489508 0.8314792
v 0.3826811 0.2489508 0.9238878
v -0.3826809 0.2489508 0.9238878
v 0.1950867 0.2489508 0.9807736
v -0.1950865 0.2489508 0.9807736
v -1.513958E-05 0.2489508 0.9999999
v 0.1943543 -0.2489511 -0.9770505
v -1.513958E-05 -0.2489511 -0.9961854
v -0.1943541 -0.2489511 -0.9770505
v 0.3812163 -0.2489511 -0.9203786
v -0.381216 -0.2489511 -0.9203786
v 0.5534601 -0.2489511 -0.8283056
v -0.5534599 -0.2489511 -0.8283056
v 0.7044328 -0.2489511 -0.7044328
v -0.7044326 -0.2489511 -0.7044328
v 0.8283056 -0.2489511 -0.5534601
v -0.8283054 -0.2489511 -0.5534601
v 0.9203786 -0.2489511 -0.3812163
v -0.9203783 -0.2489511 -0.3812163
v 0.9770505 -0.2489511 -0.1943543
v -0.9770503 -0.2489511 -0.1943543
v 0.9961854 -0.2489511 -1.5378E-05
v -0.9961852 -0.2489511 1.513958E-05
v 0.9770505 -0.2489511 0.1943541
v -0.9770503 -0.2489511 0.1943541
v 0.9203786 -0.2489511 0.381216
v -0.9203783 -0.2489511 0.381216
v 0.8283056 -0.2489511 0.5534599
v -0.8283054 -0.2489511 0.5534599
v 0.7044328 -0.2489511 0.7044326
v -0.7044326 -0.2489511 0.7044326
v 0.5534601 -0.2489511 0.8283054
v -0.5534599 -0.2489511 0.8283054
v 0.3812163 -0.2489511 0.9203783
v -0.381216 -0.2489511 0.9203783
v 0.1943543 -0.2489511 0.9770503
v -0.1943541 -0.2489511 0.9770503
v -1.513958E-05 -0.2489511 0.9961852
vt 0.0385744 0.6394848
vt 0.03679128 0.6394848
vt 0.03679128 0.5957985
vt 0.0385744 0.5957985
vt 0.04392375 0.6394848
vt 0.04392375 0.5957985
vt 0.05194778 0.6394848
vt 0.05194778 0.5957985
vt 0.06264648 0.6394848
vt 0.06264648 0.5957985
vt 0.07601985 0.6394848
vt 0.07691141 0.5957985
vt 0.09206791 0.6394848
vt 0.09206791 0.5957985
vt 0.108116 0.6394848
vt 0.108116 0.5957985
vt 0.1259471 0.6394848
vt 0.1259471 0.5957985
vt 0.1428867 0.6394848
vt 0.1428867 0.5957985
vt 0.1598264 0.6394848
vt 0.1598264 0.5957985
vt 0.1749828 0.6394848
vt 0.1749828 0.5957985
vt 0.1883562 0.6394848
vt 0.1883562 0.5957985
vt 0.1999465 0.6394848
vt 0.1990549 0.5957985
vt 0.2079705 0.6394848
vt 0.207079 0.5957985
vt 0.2124283 0.6394848
vt 0.2124283 0.5957985
vt 0.2142114 0.6394848
vt 0.2142114 0.5957985
vt 0.03679128 0.6394848
vt 0.0385744 0.5957985
vt 0.03679128 0.5957985
vt 0.0385744 0.6394848
vt 0.04392375 0.5957985
vt 0.04392375 0.6394848
vt 0.05194778 0.5957985
vt 0.05194778 0.6394848
vt 0.06264648 0.5957985
vt 0.06264648 0.6394848
vt 0.07691141 0.5957985
vt 0.07601985 0.6394848
vt 0.09206791 0.5957985
vt 0.09206791 0.6394848
vt 0.108116 0.5957985
vt 0.108116 0.6394848
vt 0.1259471 0.5957985
vt 0.1259471 0.6394848
vt 0.1428867 0.5957985
vt 0.1428867 0.6394848
vt 0.1598264 0.5957985
vt 0.1598264 0.6394848
vt 0.1749828 0.5957985
vt 0.1749828 0.6394848
vt 0.1883562 0.5957985
vt 0.1883562 0.6394848
vt 0.1990549 0.5957985
vt 0.1999465 0.6394848
vt 0.207079 0.5957985
vt 0.2079705 0.6394848
vt 0.2124283 0.5957985
vt 0.2124283 0.6394848
vt 0.2142114 0.5957985
vt 0.2142114 0.6394848
vt 0.4638478 0.6466173
vt 0.4932693 0.6430511
vt 0.5235822 0.6466173
vt 0.5521121 0.6546413
vt 0.4353179 0.6546413
vt 0.5788589 0.6689063
vt 0.4085712 0.6689063
vt 0.6020394 0.6885206
vt 0.3853906 0.6885206
vt 0.6207621 0.7117011
vt 0.3666679 0.7117011
vt 0.6350271 0.7375563
vt 0.352403 0.7375563
vt 0.6430511 0.7660862
vt 0.3434874 0.7660862
vt 0.6466173 0.7963991
vt 0.3408127 0.7963991
vt 0.6430511 0.8258206
vt 0.3434874 0.8258206
vt 0.6350271 0.8543504
vt 0.352403 0.8543504
vt 0.6207621 0.8810972
vt 0.3666679 0.8810972
vt 0.6020394 0.9042777
vt 0.3853906 0.9042777
vt 0.5788589 0.9230005
vt 0.4085712 0.9230005
vt 0.5521121 0.9372654
vt 0.4353179 0.9372654
vt 0.5235822 0.946181
vt 0.4638478 0.946181
vt 0.4932693 0.9488556
vt 0.5235822 0.6466173
vt 0.4932693 0.6439427
vt 0.4638478 0.6466173
vt 0.5521121 0.6555329
vt 0.4353179 0.6555329
vt 0.5779673 0.6697978
vt 0.4094627 0.6697978
vt 0.6011478 0.6885206
vt 0.3862822 0.6885206
vt 0.6198705 0.7117011
vt 0.3675595 0.7117011
vt 0.6341355 0.7375563
vt 0.3532946 0.7375563
vt 0.6430511 0.7660862
vt 0.3443789 0.7660862
vt 0.6457257 0.7963991
vt 0.3417043 0.7963991
vt 0.6430511 0.8258206
vt 0.3443789 0.8258206
vt 0.6341355 0.8543504
vt 0.3532946 0.8543504
vt 0.6198705 0.8810972
vt 0.3675595 0.8810972
vt 0.6011478 0.9033862
vt 0.3862822 0.9033862
vt 0.5779673 0.9230005
vt 0.4094627 0.9230005
vt 0.5521121 0.9363738
vt 0.4353179 0.9363738
vt 0.5235822 0.9452894
vt 0.4638478 0.9452894
vt 0.4932693 0.9479641
vn -0.7181812 0.6838458 -0.1287272
vn -0.7296264 0.6838458 -0.000545915
vn -0.7239038 -0.6895685 -0.02141421
vn -0.7124587 -0.6895685 -0.1299923
vn -0.6724008 0.6838458 -0.2832527
vn -0.6666781 -0.6895685 -0.2829056
vn -0.6094525 0.6838458 -0.4011514
vn -0.60373 -0.6895685 -0.4000068
vn -0.5178916 0.6838458 -0.5139486
vn -0.5121691 -0.6895685 -0.5120333
vn -0.4034404 0.6838458 -0.6079397
vn -0.4034404 -0.6895685 -0.6014409
vn -0.2775441 0.6838458 -0.6747772
vn -0.2775441 -0.6895685 -0.668928
vn -0.1402027 0.6838458 -0.7160294
vn -0.1402027 -0.6895685 -0.71052
vn 0.002861261 0.6838458 -0.7296209
vn 0.002861261 -0.6895685 -0.7242149
vn 0.1402027 0.6838458 -0.7160294
vn 0.1402027 -0.6895685 -0.71052
vn 0.2775441 0.6838458 -0.6747771
vn 0.2775441 -0.6895685 -0.6689279
vn 0.4034405 0.6838458 -0.6079397
vn 0.4034405 -0.6895685 -0.6014409
vn 0.5178916 0.6838458 -0.5139486
vn 0.5121691 -0.6895685 -0.5120333
vn 0.6094526 0.6838458 -0.4011514
vn 0.6037301 -0.6895685 -0.4000066
vn 0.6724008 0.6838458 -0.2832527
vn 0.6666782 -0.6895685 -0.2829055
vn 0.7181813 0.6838458 -0.1287267
vn 0.7124587 -0.6895685 -0.1299923
vn 0.7296264 0.6838458 -0.000545915
vn 0.7239038 -0.6895685 -0.0214156
vn -0.7296264 0.6838458 -0.000545915
vn -0.7124587 -0.6895685 0.1299923
vn -0.7239038 -0.6895685 -0.02141421
vn -0.7181812 0.6838458 0.1287272
vn -0.6666781 -0.6895685 0.2829056
vn -0.6724008 0.6838458 0.2832527
vn -0.60373 -0.6895685 0.4000068
vn -0.6094525 0.6838458 0.4011514
vn -0.5121691 -0.6895685 0.5120333
vn -0.5178916 0.6838458 0.5139486
vn -0.4034404 -0.6895685 0.6014409
vn -0.4034404 0.6838458 0.6079397
vn -0.2775441 -0.6895685 0.668928
vn -0.2775441 0.6838458 0.6747772
vn -0.1402027 -0.6895685 0.71052
vn -0.1402027 0.6838458 0.7160294
vn 0.002861261 -0.6895685 0.7242149
vn 0.002861261 0.6838458 0.7296209
vn 0.1402027 -0.6895685 0.71052
vn 0.1402027 0.6838458 0.7160294
vn 0.2775441 -0.6895685 0.6689279
vn 0.2775441 0.6838458 0.6747771
vn 0.4034405 -0.6895685 0.6014409
vn 0.4034405 0.6838458 0.6079397
vn 0.5121691 -0.6895685 0.5120333
vn 0.5178916 0.6838458 0.5139486
vn 0.6037301 -0.6895685 0.4000066
vn 0.6094526 0.6838458 0.4011514
vn 0.6666782 -0.6895685 0.2829055
vn 0.6724008 0.6838458 0.2832527
vn 0.7124587 -0.6895685 0.1299923
vn 0.7181813 0.6838458 0.1287267
vn 0.7239038 -0.6895685 -0.0214156
vn 0.7296264 0.6838458 -0.000545915
vn -0.1402027 0.6838458 -0.7160294
vn 0.002861261 0.6838458 -0.7296209
vn 0.1402027 0.6838458 -0.7160294
vn 0.2775441 0.6838458 -0.6747771
vn -0.2775441 0.6838458 -0.6747772
vn 0.4034405 0.6838458 -0.6079397
vn -0.4034404 0.6838458 -0.6079397
vn 0.5178916 0.6838458 -0.5139486
vn -0.5178916 0.6838458 -0.5139486
vn 0.6094526 0.6838458 -0.4011514
vn -0.6094525 0.6838458 -0.4011514
vn 0.6724008 0.6838458 -0.2832527
vn -0.6724008 0.6838458 -0.2832527
vn 0.7181813 0.6838458 -0.1287267
vn -0.7181812 0.6838458 -0.1287272
vn 0.7296264 0.6838458 -0.000545915
vn -0.7296264 0.6838458 -0.000545915
vn 0.7181813 0.6838458 0.1287267
vn -0.7181812 0.6838458 0.1287272
vn 0.6724008 0.6838458 0.2832527
vn -0.6724008 0.6838458 0.2832527
vn 0.6094526 0.6838458 0.4011514
vn -0.6094525 0.6838458 0.4011514
vn 0.5178916 0.6838458 0.5139486
vn -0.5178916 0.6838458 0.5139486
vn 0.4034405 0.6838458 0.6079397
vn -0.4034404 0.6838458 0.6079397
vn 0.2775441 0.6838458 0.6747771
vn -0.2775441 0.6838458 0.6747772
vn 0.1402027 0.6838458 0.7160294
vn -0.1402027 0.6838458 0.7160294
vn 0.002861261 0.6838458 0.7296209
vn 0.1402027 -0.6895685 -0.71052
vn 0.002861261 -0.6895685 -0.7242149
vn -0.1402027 -0.6895685 -0.71052
vn 0.2775441 -0.6895685 -0.6689279
vn -0.2775441 -0.6895685 -0.668928
vn 0.4034405 -0.6895685 -0.6014409
vn -0.4034404 -0.6895685 -0.6014409
vn 0.5121691 -0.6895685 -0.5120333
vn -0.5121691 -0.6895685 -0.5120333
vn 0.6037301 -0.6895685 -0.4000066
vn -0.60373 -0.6895685 -0.4000068
vn 0.6666782 -0.6895685 -0.2829055
vn -0.6666781 -0.6895685 -0.2829056
vn 0.7124587 -0.6895685 -0.1299923
vn -0.7124587 -0.6895685 -0.1299923
vn 0.7239038 -0.6895685 -0.0214156
vn -0.7239038 -0.6895685 -0.02141421
vn 0.7124587 -0.6895685 0.1299923
vn -0.7124587 -0.6895685 0.1299923
vn 0.6666782 -0.6895685 0.2829055
vn -0.6666781 -0.6895685 0.2829056
vn 0.6037301 -0.6895685 0.4000066
vn -0.60373 -0.6895685 0.4000068
vn 0.5121691 -0.6895685 0.5120333
vn -0.5121691 -0.6895685 0.5120333
vn 0.4034405 -0.6895685 0.6014409
vn -0.4034404 -0.6895685 0.6014409
vn 0.2775441 -0.6895685 0.6689279
vn -0.2775441 -0.6895685 0.668928
vn 0.1402027 -0.6895685 0.71052
vn -0.1402027 -0.6895685 0.71052
vn 0.002861261 -0.6895685 0.7242149
g Carota.012_0
f 3/3/3 2/2/2 1/1/1
f 4/4/4 3/3/3 1/1/1
f 4/4/4 1/1/1 5/5/5
f 6/6/6 4/4/4 5/5/5
f 6/6/6 5/5/5 7/7/7
f 8/8/8 6/6/6 7/7/7
f 8/8/8 7/7/7 9/9/9
f 10/10/10 8/8/8 9/9/9
f 10/10/10 9/9/9 11/11/11
f 12/12/12 10/10/10 11/11/11
f 12/12/12 11/11/11 13/13/13
f 14/14/14 12/12/12 13/13/13
f 14/14/14 13/13/13 15/15/15
f 16/16/16 14/14/14 15/15/15
f 16/16/16 15/15/15 17/17/17
f 18/18/18 16/16/16 17/17/17
f 18/18/18 17/17/17 19/19/19
f 20/20/20 18/18/18 19/19/19
f 20/20/20 19/19/19 21/21/21
f 22/22/22 20/20/20 21/21/21
f 22/22/22 21/21/21 23/23/23
f 24/24/24 22/22/22 23/23/23
f 24/24/24 23/23/23 25/25/25
f 26/26/26 24/24/24 25/25/25
f 26/26/26 25/25/25 27/27/27
f 28/28/28 26/26/26 27/27/27
f 28/28/28 27/27/27 29/29/29
f 30/30/30 28/28/28 29/29/29
f 30/30/30 29/29/29 31/31/31
f 32/32/32 30/30/30 31/31/31
f 32/32/32 31/31/31 33/33/33
f 34/34/34 32/32/32 33/33/33
f 37/37/37 36/36/36 35/35/35
f 36/36/36 38/38/38 35/35/35
f 36/36/36 39/39/39 38/38/38
f 39/39/39 40/40/40 38/38/38
f 39/39/39 41/41/41 40/40/40
f 41/41/41 42/42/42 40/40/40
f 41/41/41 43/43/43 42/42/42
f 43/43/43 44/44/44 42/42/42
f 43/43/43 45/45/45 44/44/44
f 45/45/45 46/46/46 44/44/44
f 45/45/45 47/47/47 46/46/46
f 47/47/47 48/48/48 46/46/46
f 47/47/47 49/49/49 48/48/48
f 49/49/49 50/50/50 48/48/48
f 49/49/49 51/51/51 50/50/50
f 51/51/51 52/52/52 50/50/50
f 51/51/51 53/53/53 52/52/52
f 53/53/53 54/54/54 52/52/52
f 53/53/53 55/55/55 54/54/54
f 55/55/55 56/56/56 54/54/54
f 55/55/55 57/57/57 56/56/56
f 57/57/57 58/58/58 56/56/56
f 57/57/57 59/59/59 58/58/58
f 59/59/59 60/60/60 58/58/58
f 59/59/59 61/61/61 60/60/60
f 61/61/61 62/62/62 60/60/60
f 61/61/61 63/63/63 62/62/62
f 63/63/63 64/64/64 62/62/62
f 63/63/63 65/65/65 64/64/64
f 65/65/65 66/66/66 64/64/64
f 65/65/65 67/67/67 66/66/66
f 67/67/67 68/68/68 66/66/66
f 71/71/71 70/70/70 69/69/69
f 69/69/69 72/72/72 71/71/71
f 69/69/69 73/73/73 72/72/72
f 73/73/73 74/74/74 72/72/72
f 73/73/73 75/75/75 74/74/74
f 75/75/75 76/76/76 74/74/74
f 75/75/75 77/77/77 76/76/76
f 77/77/77 78/78/78 76/76/76
f 77/77/77 79/79/79 78/78/78
f 79/79/79 80/80/80 78/78/78
f 79/79/79 81/81/81 80/80/80
f 81/81/81 82/82/82 80/80/80
f 81/81/81 83/83/83 82/82/82
f 83/83/83 84/84/84 82/82/82
f 83/83/83 85/85/85 84/84/84
f 85/85/85 86/86/86 84/84/84
f 85/85/85 87/87/87 86/86/86
f 87/87/87 88/88/88 86/86/86
f 87/87/87 89/89/89 88/88/88
f 89/89/89 90/90/90 88/88/88
f 89/89/89 91/91/91 90/90/90
f 91/91/91 92/92/92 90/90/90
f 91/91/91 93/93/93 92/92/92
f 93/93/93 94/94/94 92/92/92
f 93/93/93 95/95/95 94/94/94
f 95/95/95 96/96/96 94/94/94
f 95/95/95 97/97/97 96/96/96
f 97/97/97 98/98/98 96/96/96
f 97/97/97 99/99/99 98/98/98
f 99/99/99 100/100/100 98/98/98
f 103/103/103 102/102/102 101/101/101
f 101/101/101 104/104/104 103/103/103
f 104/104/104 105/105/105 103/103/103
f 104/104/104 106/106/106 105/105/105
f 106/106/106 107/107/107 105/105/105
f 106/106/106 108/108/108 107/107/107
f 108/108/108 109/109/109 107/107/107
f 108/108/108 110/110/110 109/109/109
f 110/110/110 111/111/111 109/109/109
f 110/110/110 112/112/112 111/111/111
f 112/112/112 113/113/113 111/111/111
f 112/112/112 114/114/114 113/113/113
f 114/114/114 115/115/115 113/113/113
f 114/114/114 116/116/116 115/115/115
f 116/116/116 117/117/117 115/115/115
f 116/116/116 118/118/118 117/117/117
f 118/118/118 119/119/119 117/117/117
f 118/118/118 120/120/120 119/119/119
f 120/120/120 121/121/121 119/119/119
f 120/120/120 122/122/122 121/121/121
f 122/122/122 123/123/123 121/121/121
f 122/122/122 124/124/124 123/123/123
f 124/124/124 125/125/125 123/123/123
f 124/124/124 126/126/126 125/125/125
f 126/126/126 127/127/127 125/125/125
f 126/126/126 128/128/128 127/127/127
f 128/128/128 129/129/129 127/127/127
f 128/128/128 130/130/130 129/129/129
f 130/130/130 131/131/131 129/129/129
f 130/130/130 132/132/132 131/131/131
