g CrestaDietro
v -2.701452 -0.5989628 -5.996929
v -2.7389 -0.5989628 -5.985666
v -2.958806 -0.5978365 -6.122227
v -2.894608 -0.5978365 -6.166011
v -2.644294 -0.5989628 -5.996084
v -2.701452 -0.5989628 -5.996929
v -2.894608 -0.5978365 -6.166011
v -2.826328 -0.5978365 -6.206416
v -2.7389 -0.5989628 -5.985666
v -2.774379 -0.5989628 -5.971869
v -3.019907 -0.5978365 -6.040572
v -2.958806 -0.5978365 -6.122227
v 2.719321 -0.5989628 -5.998899
v 2.644283 -0.5989628 -5.996084
v 2.826317 -0.5978365 -6.206416
v 2.906564 -0.5978365 -6.177978
v 2.75325 -0.5989628 -5.987918
v 2.719321 -0.5989628 -5.998899
v 2.906564 -0.5978365 -6.177978
v 2.985122 -0.5978365 -6.118003
v 2.644283 -0.5989628 -5.996084
v -2.644294 -0.5989628 -5.996084
v -2.826328 -0.5978365 -6.206416
v 2.826317 -0.5978365 -6.206416
v 2.775775 -0.5989628 -5.973136
v 2.75325 -0.5989628 -5.987918
v 2.985122 -0.5978365 -6.118003
v 3.054951 -0.5978365 -6.030717
vt 0 0
vt 1 0
vt 1 1
vt 0 1
vt 0 0
vt 1 0
vt 1 1
vt 0 1
vt 0 0
vt 1 0
vt 1 1
vt 0 1
vt 0 0
vt 1 0
vt 1 1
vt 0 1
vt 0 0
vt 1 0
vt 1 1
vt 0 1
vt 0 0
vt 1 0
vt 1 1
vt 0 1
vt 0 0
vt 1 0
vt 1 1
vt 0 1
vn 0.003552319 0.9999888 0.003126526
vn 0.003552319 0.9999888 0.003126526
vn 0.003552319 0.9999888 0.003126526
vn 0.003552319 0.9999888 0.003126526
vn -0.0003831361 0.9999888 0.004721455
vn -0.0003831361 0.9999888 0.004721455
vn -0.0003831361 0.9999888 0.004721455
vn -0.0003831361 0.9999888 0.004721455
vn 0.003552319 0.9999888 0.003126526
vn 0.003552319 0.9999888 0.003126526
vn 0.003552319 0.9999888 0.003126526
vn 0.003552319 0.9999888 0.003126526
vn -0.0003831361 0.9999888 0.004721455
vn -0.0003831361 0.9999888 0.004721455
vn -0.0003831361 0.9999888 0.004721455
vn -0.0003831361 0.9999888 0.004721455
vn -0.004318591 0.9999888 0.001937806
vn -0.004318591 0.9999888 0.001937806
vn -0.004318591 0.9999888 0.001937806
vn -0.004318591 0.9999888 0.001937806
vn -0.0003831361 0.9999888 0.004721455
vn -0.0003831361 0.9999888 0.004721455
vn -0.0003831361 0.9999888 0.004721455
vn -0.0003831361 0.9999888 0.004721455
vn -0.004318591 0.9999888 0.001937806
vn -0.004318591 0.9999888 0.001937806
vn -0.004318591 0.9999888 0.001937806
vn -0.004318591 0.9999888 0.001937806
g CrestaDietro_0
f 3/3/3 2/2/2 1/1/1
f 4/4/4 3/3/3 1/1/1
f 7/7/7 6/6/6 5/5/5
f 8/8/8 7/7/7 5/5/5
f 11/11/11 10/10/10 9/9/9
f 12/12/12 11/11/11 9/9/9
f 15/15/15 14/14/14 13/13/13
f 16/16/16 15/15/15 13/13/13
f 19/19/19 18/18/18 17/17/17
f 20/20/20 19/19/19 17/17/17
f 23/23/23 22/22/22 21/21/21
f 24/24/24 23/23/23 21/21/21
f 27/27/27 26/26/26 25/25/25
f 28/28/28 27/27/27 25/25/25
