g Cube
v -2.678129 1.878114 0.3464794
v -4.220009E-05 1.878114 0.3464794
v -4.220009E-05 1.029583 1.19501
v -2.76 1.029583 1.19501
v -2.719064 1.870365 0.3543127
v -2.74905 1.849139 0.3754544
v -2.76 1.820248 0.4044294
v -4.220009E-05 1.029583 1.19501
v -4.220009E-05 0.151319 2.097617
v -2.76 0.151319 2.097617
v -2.76 1.029583 1.19501
v 2.76 1.029583 1.19501
v 2.76 0.151319 2.097617
v -4.220009E-05 0.151319 2.097617
v -4.220009E-05 1.029583 1.19501
v 2.74905 1.849139 0.3754544
v 2.76 1.820248 0.4044294
v 2.76 1.029583 1.19501
v -4.220009E-05 1.029583 1.19501
v 2.719064 1.870365 0.3543127
v 2.678129 1.878114 0.3464794
v -4.220009E-05 1.878114 0.3464794
vt 0.9763004 0.006395881
vt 0.003491975 0.006395881
vt 0.003491975 0.9908199
vt 0.9927558 0.9908199
vt 0.9840441 0.0151076
vt 0.9908199 0.03930681
vt 0.9927558 0.07318571
vt 0.003491975 0.9908199
vt 0.003491975 0.008331818
vt 0.9927558 0.008331818
vt 0.9927558 0.9908199
vt 0.9937238 0.9908199
vt 0.9937238 0.008331818
vt 0.003491975 0.008331818
vt 0.003491975 0.9908199
vt 0.9917879 0.03930681
vt 0.9937238 0.07318571
vt 0.9937238 0.9908199
vt 0.003491975 0.9908199
vt 0.9850121 0.0151076
vt 0.9772683 0.006395881
vt 0.003491975 0.006395881
vn 0 0.7082407 0.705971
vn 0 0.7082407 0.705971
vn 0 0.7082407 0.705971
vn 0 0.7082407 0.705971
vn 0 0.7082407 0.705971
vn 0 0.7082407 0.705971
vn 0 0.7082407 0.705971
vn 0 0.7166722 0.6974102
vn 0 0.7166722 0.6974102
vn 0 0.7166722 0.6974102
vn 0 0.7166722 0.6974102
vn 0 0.7166722 0.6974102
vn 0 0.7166722 0.6974102
vn 0 0.7166722 0.6974102
vn 0 0.7166722 0.6974102
vn 0 0.7082407 0.705971
vn 0 0.7082407 0.705971
vn 0 0.7082407 0.705971
vn 0 0.7082407 0.705971
vn 0 0.7082407 0.705971
vn 0 0.7082407 0.705971
vn 0 0.7082407 0.705971
g Cube_0
f 3/3/3 2/2/2 1/1/1
f 1/1/1 4/4/4 3/3/3
f 1/1/1 5/5/5 4/4/4
f 5/5/5 6/6/6 4/4/4
f 6/6/6 7/7/7 4/4/4
f 10/10/10 9/9/9 8/8/8
f 11/11/11 10/10/10 8/8/8
f 14/14/14 13/13/13 12/12/12
f 15/15/15 14/14/14 12/12/12
f 18/18/18 17/17/17 16/16/16
f 16/16/16 19/19/19 18/18/18
f 16/16/16 20/20/20 19/19/19
f 20/20/20 21/21/21 19/19/19
f 21/21/21 22/22/22 19/19/19
