g Cube
v -3.3 -1.049041 -0.1940169
v -3.3 1.049041 -0.1940169
v -3.3 1.049041 -0.04597402
v -3.3 -1.049041 -0.04597402
v -3.285095 -1.085095 -0.1940169
v -3.285095 -1.085095 -0.04597402
v -3.249041 -1.1 -0.1940169
v -3.278448 -1.078448 -0.2234242
v -3.249041 -1.085095 -0.2300711
v -3.278448 -1.078448 -0.01656675
v -3.285095 -1.049041 -0.009919882
v -3.285095 -1.049041 -0.009919882
v -3.249041 -1.1 -0.04597402
v -3.249041 -1.085095 -0.009919882
v -3.249041 -1.049041 0.004985094
v -3.249041 -1.085095 -0.009919882
v -3.285095 1.049041 -0.009919882
v -3.278448 1.078448 -0.01656675
v -3.285095 1.085095 -0.04597402
v -3.249041 1.049041 0.004985094
v 3.249041 -1.1 -0.1940169
v -3.249041 -1.085095 -0.2300711
v 3.249041 -1.085095 -0.2300711
v 3.249041 -1.1 -0.04597402
v 3.285095 -1.085095 -0.1940169
v 3.249041 -1.085095 -0.009919882
v -3.249041 -1.085095 -0.009919882
v 3.249041 -1.049041 0.004985094
v 3.278448 -1.078448 -0.01656675
v 3.249041 -1.085095 -0.009919882
v 3.285095 -1.085095 -0.04597402
v 3.249041 1.049041 0.004985094
v 3.285095 -1.049041 -0.009919882
v 3.3 -1.049041 -0.04597402
v 3.285095 -1.049041 -0.009919882
v 3.249041 1.085095 -0.009919882
v -3.249041 1.085095 -0.009919882
v 3.278448 1.078448 -0.01656675
v 3.285095 1.049041 -0.009919882
v 3.3 1.049041 -0.04597402
v 3.285095 1.085095 -0.04597402
v 3.3 -1.049041 -0.1940169
v 3.285095 -1.085095 -0.1940169
v 3.278448 -1.078448 -0.2234242
v 3.285095 -1.049041 -0.2300711
v 3.3 1.049041 -0.1940169
v 3.285095 -1.049041 -0.2300711
v 3.285095 1.049041 -0.2300711
v 3.249041 -1.049041 -0.244976
v 3.278448 -1.078448 -0.2234242
v 3.249041 -1.085095 -0.2300711
v 3.249041 1.049041 -0.244976
v 3.278448 1.078448 -0.2234242
v 3.249041 1.085095 -0.2300711
v -3.249041 -1.049041 -0.244976
v -3.249041 -1.085095 -0.2300711
v -3.249041 1.049041 -0.244976
v -3.285095 -1.049041 -0.2300711
v -3.249041 1.085095 -0.2300711
v 3.249041 1.085095 -0.2300711
v -3.249041 1.1 -0.1940169
v 3.249041 1.1 -0.1940169
v -3.285095 1.049041 -0.2300711
v -3.278448 1.078448 -0.2234242
v -3.249041 1.085095 -0.2300711
v -3.249041 1.085095 -0.2300711
v -3.3 1.049041 -0.1940169
v -3.285095 1.085095 -0.1940169
v -3.285095 1.085095 -0.04597402
v -3.249041 1.1 -0.04597402
v -3.278448 1.078448 -0.01656675
v -3.249041 1.085095 -0.009919882
v 3.249041 1.1 -0.04597402
v -3.249041 1.085095 -0.009919882
v 3.249041 1.085095 -0.009919882
v 3.285095 1.085095 -0.04597402
v 3.285095 1.085095 -0.1940169
v 3.3 1.049041 -0.1940169
v 3.285095 1.049041 -0.2300711
v 3.249041 1.1 -0.04597402
v 3.278448 1.078448 -0.01656675
v 3.249041 1.085095 -0.009919882
v -3.249041 -1.049041 -0.244976
v -3.278448 -1.078448 -0.2234242
v -3.249041 -1.085095 -0.2300711
v -3.285095 -1.085095 -0.1940169
v -3.278448 -1.078448 -0.2234242
v -3.285095 -1.049041 -0.2300711
v -3.249041 1.049041 0.004985094
v -3.285095 1.049041 -0.009919882
v -3.278448 1.078448 -0.01656675
v -3.249041 1.085095 -0.009919882
v 3.249041 -1.1 -0.1940169
v 3.278448 -1.078448 -0.2234242
v 3.249041 -1.085095 -0.2300711
vt 0 0.0342131
vt 0 0.9296188
vt 0 0.9657869
vt 0 0.07038123
vt 0 0.01270772
vt 0 0.04887586
vt 0.007820137 0.01270772
vt 0.0009775171 0.004887586
vt 0.007820137 0
vt 0.0009775171 0.06256109
vt 0 0.08308896
vt 0 0.08308896
vt 0.007820137 0.04887586
vt 0.007820137 0.06158358
vt 0.007820137 0.08308896
vt 0.007820137 0.06158358
vt 0 0.9784946
vt 0.0009775171 0.9951124
vt 0 0.9872923
vt 0.007820137 0.9784946
vt 0.9921799 0.01270772
vt 0.007820137 0
vt 0.9921799 0
vt 0.9921799 0.04887586
vt 1 0.01270772
vt 0.9921799 0.06158358
vt 0.007820137 0.06158358
vt 0.9921799 0.08308896
vt 0.9990225 0.06256109
vt 0.9921799 0.06158358
vt 1 0.04887586
vt 0.9921799 0.9784946
vt 1 0.08308896
vt 1 0.07038123
vt 1 0.08308896
vt 0.9921799 1
vt 0.007820137 1
vt 0.9990225 0.9951124
vt 1 0.9784946
vt 1 0.9657869
vt 1 0.9872923
vt 1 0.0342131
vt 1 0.01270772
vt 0.9990225 0.004887586
vt 1 0.02150538
vt 1 0.9296188
vt 1 0.02150538
vt 1 0.9169111
vt 0.9921799 0.02150538
vt 0.9990225 0.004887586
vt 0.9921799 0
vt 0.9921799 0.9169111
vt 0.9990225 0.9374389
vt 0.9921799 0.9384164
vt 0.007820137 0.02150538
vt 0.007820137 0
vt 0.007820137 0.9169111
vt 0 0.02150538
vt 0.007820137 0.9384164
vt 0.9921799 0.9384164
vt 0.007820137 0.9511241
vt 0.9921799 0.9511241
vt 0 0.9169111
vt 0.0009775171 0.9374389
vt 0.007820137 0.9384164
vt 0.007820137 0.9384164
vt 0 0.9296188
vt 0 0.9511241
vt 0 0.9872923
vt 0.007820137 0.9872923
vt 0.0009775171 0.9951124
vt 0.007820137 1
vt 0.9921799 0.9872923
vt 0.007820137 1
vt 0.9921799 1
vt 1 0.9872923
vt 1 0.9511241
vt 1 0.9296188
vt 1 0.9169111
vt 0.9921799 0.9872923
vt 0.9990225 0.9951124
vt 0.9921799 1
vt 0.007820137 0.02150538
vt 0.0009775171 0.004887586
vt 0.007820137 0
vt 0 0.01270772
vt 0.0009775171 0.004887586
vt 0 0.02150538
vt 0.007820137 0.9784946
vt 0 0.9784946
vt 0.0009775171 0.9951124
vt 0.007820137 1
vt 0.9921799 0.01270772
vt 0.9990225 0.004887586
vt 0.9921799 0
vn -0.9672954 -0.1782858 -0.1804266
vn -0.9672954 0.1782858 -0.1804266
vn -0.9672954 0.1782858 0.1804266
vn -0.9672954 -0.1782858 0.1804266
vn -0.6941767 -0.6941767 -0.1903614
vn -0.6941767 -0.6941767 0.1903614
vn -0.1782858 -0.9672954 -0.1804265
vn -0.5803772 -0.5803772 -0.5712483
vn -0.1706991 -0.6941767 -0.6992714
vn -0.5803772 -0.5803772 0.5712483
vn -0.6941767 -0.1706992 0.6992714
vn -0.6941767 -0.1706992 0.6992714
vn -0.1782858 -0.9672954 0.1804265
vn -0.1706991 -0.6941767 0.6992714
vn -0.1782858 -0.1782858 0.9676923
vn -0.1706991 -0.6941767 0.6992714
vn -0.6941767 0.1706991 0.6992714
vn -0.5803772 0.5803772 0.5712483
vn -0.6941767 0.6941767 0.1903614
vn -0.1782858 0.1782858 0.9676923
vn 0.1782858 -0.9672954 -0.1804265
vn -0.1706991 -0.6941767 -0.6992714
vn 0.1706992 -0.6941767 -0.6992714
vn 0.1782858 -0.9672954 0.1804265
vn 0.6941767 -0.6941767 -0.1903614
vn 0.1706992 -0.6941767 0.6992714
vn -0.1706991 -0.6941767 0.6992714
vn 0.1782858 -0.1782858 0.9676923
vn 0.5803772 -0.5803772 0.5712483
vn 0.1706992 -0.6941767 0.6992714
vn 0.6941767 -0.6941767 0.1903614
vn 0.1782858 0.1782858 0.9676923
vn 0.6941767 -0.1706992 0.6992714
vn 0.9672954 -0.1782858 0.1804266
vn 0.6941767 -0.1706992 0.6992714
vn 0.1706992 0.6941767 0.6992714
vn -0.1706991 0.6941767 0.6992714
vn 0.5803772 0.5803772 0.5712483
vn 0.6941767 0.1706991 0.6992714
vn 0.9672954 0.1782858 0.1804266
vn 0.6941767 0.6941767 0.1903614
vn 0.9672954 -0.1782858 -0.1804266
vn 0.6941767 -0.6941767 -0.1903614
vn 0.5803772 -0.5803772 -0.5712483
vn 0.6941767 -0.1706992 -0.6992714
vn 0.9672954 0.1782858 -0.1804266
vn 0.6941767 -0.1706992 -0.6992714
vn 0.6941767 0.1706991 -0.6992714
vn 0.1782858 -0.1782858 -0.9676923
vn 0.5803772 -0.5803772 -0.5712483
vn 0.1706992 -0.6941767 -0.6992714
vn 0.1782858 0.1782858 -0.9676923
vn 0.5803772 0.5803772 -0.5712483
vn 0.1706992 0.6941767 -0.6992714
vn -0.1782858 -0.1782858 -0.9676923
vn -0.1706991 -0.6941767 -0.6992714
vn -0.1782858 0.1782858 -0.9676923
vn -0.6941767 -0.1706992 -0.6992714
vn -0.1706991 0.6941767 -0.6992714
vn 0.1706992 0.6941767 -0.6992714
vn -0.1782858 0.9672954 -0.1804265
vn 0.1782858 0.9672954 -0.1804265
vn -0.6941767 0.1706991 -0.6992714
vn -0.5803772 0.5803772 -0.5712483
vn -0.1706991 0.6941767 -0.6992714
vn -0.1706991 0.6941767 -0.6992714
vn -0.9672954 0.1782858 -0.1804266
vn -0.6941767 0.6941767 -0.1903614
vn -0.6941767 0.6941767 0.1903614
vn -0.1782858 0.9672954 0.1804265
vn -0.5803772 0.5803772 0.5712483
vn -0.1706991 0.6941767 0.6992714
vn 0.1782858 0.9672954 0.1804265
vn -0.1706991 0.6941767 0.6992714
vn 0.1706992 0.6941767 0.6992714
vn 0.6941767 0.6941767 0.1903614
vn 0.6941767 0.6941767 -0.1903614
vn 0.9672954 0.1782858 -0.1804266
vn 0.6941767 0.1706991 -0.6992714
vn 0.1782858 0.9672954 0.1804265
vn 0.5803772 0.5803772 0.5712483
vn 0.1706992 0.6941767 0.6992714
vn -0.1782858 -0.1782858 -0.9676923
vn -0.5803772 -0.5803772 -0.5712483
vn -0.1706991 -0.6941767 -0.6992714
vn -0.6941767 -0.6941767 -0.1903614
vn -0.5803772 -0.5803772 -0.5712483
vn -0.6941767 -0.1706992 -0.6992714
vn -0.1782858 0.1782858 0.9676923
vn -0.6941767 0.1706991 0.6992714
vn -0.5803772 0.5803772 0.5712483
vn -0.1706991 0.6941767 0.6992714
vn 0.1782858 -0.9672954 -0.1804265
vn 0.5803772 -0.5803772 -0.5712483
vn 0.1706992 -0.6941767 -0.6992714
g Cube_0
f 3/3/3 2/2/2 1/1/1
f 4/4/4 3/3/3 1/1/1
f 4/4/4 1/1/1 5/5/5
f 6/6/6 4/4/4 5/5/5
f 6/6/6 5/5/5 7/7/7
f 5/5/5 8/8/8 7/7/7
f 8/8/8 9/9/9 7/7/7
f 6/6/6 10/10/10 4/4/4
f 10/10/10 11/11/11 4/4/4
f 3/3/3 4/4/4 12/12/12
f 13/13/13 6/6/6 7/7/7
f 10/10/10 6/6/6 13/13/13
f 14/14/14 10/10/10 13/13/13
f 12/12/12 10/10/10 15/15/15
f 10/10/10 16/16/16 15/15/15
f 17/17/17 3/3/3 12/12/12
f 17/17/17 12/12/12 15/15/15
f 17/17/17 18/18/18 3/3/3
f 18/18/18 19/19/19 3/3/3
f 20/20/20 17/17/17 15/15/15
f 13/13/13 7/7/7 21/21/21
f 21/21/21 7/7/7 22/22/22
f 23/23/23 21/21/21 22/22/22
f 24/24/24 13/13/13 21/21/21
f 21/21/21 25/25/25 24/24/24
f 13/13/13 24/24/24 26/26/26
f 27/27/27 13/13/13 26/26/26
f 27/27/27 26/26/26 28/28/28
f 15/15/15 27/27/27 28/28/28
f 29/29/29 26/26/26 24/24/24
f 30/30/30 29/29/29 28/28/28
f 25/25/25 31/31/31 24/24/24
f 31/31/31 29/29/29 24/24/24
f 20/20/20 15/15/15 32/32/32
f 15/15/15 28/28/28 32/32/32
f 29/29/29 33/33/33 28/28/28
f 28/28/28 33/33/33 32/32/32
f 29/29/29 31/31/31 34/34/34
f 35/35/35 29/29/29 34/34/34
f 32/32/32 36/36/36 20/20/20
f 36/36/36 37/37/37 20/20/20
f 38/38/38 36/36/36 32/32/32
f 33/33/33 39/39/39 32/32/32
f 39/39/39 38/38/38 32/32/32
f 33/33/33 34/34/34 39/39/39
f 38/38/38 39/39/39 40/40/40
f 34/34/34 40/40/40 39/39/39
f 41/41/41 38/38/38 40/40/40
f 42/42/42 34/34/34 31/31/31
f 43/43/43 42/42/42 31/31/31
f 43/43/43 44/44/44 42/42/42
f 44/44/44 45/45/45 42/42/42
f 34/34/34 42/42/42 46/46/46
f 40/40/40 34/34/34 46/46/46
f 46/46/46 42/42/42 47/47/47
f 48/48/48 46/46/46 47/47/47
f 48/48/48 47/47/47 49/49/49
f 47/47/47 50/50/50 49/49/49
f 50/50/50 51/51/51 49/49/49
f 52/52/52 48/48/48 49/49/49
f 53/53/53 48/48/48 52/52/52
f 54/54/54 53/53/53 52/52/52
f 49/49/49 51/51/51 55/55/55
f 51/51/51 56/56/56 55/55/55
f 49/49/49 55/55/55 57/57/57
f 52/52/52 49/49/49 57/57/57
f 55/55/55 58/58/58 57/57/57
f 57/57/57 59/59/59 52/52/52
f 59/59/59 60/60/60 52/52/52
f 59/59/59 61/61/61 60/60/60
f 53/53/53 60/60/60 62/62/62
f 61/61/61 62/62/62 60/60/60
f 58/58/58 63/63/63 57/57/57
f 63/63/63 64/64/64 57/57/57
f 64/64/64 65/65/65 57/57/57
f 66/66/66 64/64/64 61/61/61
f 58/58/58 1/1/1 63/63/63
f 64/64/64 63/63/63 67/67/67
f 1/1/1 67/67/67 63/63/63
f 68/68/68 64/64/64 67/67/67
f 64/64/64 68/68/68 61/61/61
f 68/68/68 67/67/67 69/69/69
f 67/67/67 3/3/3 69/69/69
f 68/68/68 69/69/69 70/70/70
f 61/61/61 68/68/68 70/70/70
f 69/69/69 71/71/71 70/70/70
f 71/71/71 72/72/72 70/70/70
f 70/70/70 73/73/73 61/61/61
f 73/73/73 70/70/70 74/74/74
f 75/75/75 73/73/73 74/74/74
f 73/73/73 62/62/62 61/61/61
f 62/62/62 73/73/73 76/76/76
f 77/77/77 62/62/62 76/76/76
f 77/77/77 53/53/53 62/62/62
f 77/77/77 76/76/76 40/40/40
f 78/78/78 77/77/77 40/40/40
f 53/53/53 77/77/77 78/78/78
f 79/79/79 53/53/53 78/78/78
f 81/81/81 76/76/76 80/80/80
f 82/82/82 81/81/81 80/80/80
f 85/85/85 84/84/84 83/83/83
f 84/84/84 58/58/58 83/83/83
f 87/87/87 86/86/86 1/1/1
f 88/88/88 87/87/87 1/1/1
f 91/91/91 90/90/90 89/89/89
f 92/92/92 91/91/91 89/89/89
f 95/95/95 94/94/94 93/93/93
f 94/94/94 25/25/25 93/93/93
