g Cylinder
v 4.769501E-08 0.3379849 -3.598559
v 0.1293413 0.3122573 -3.598559
v 0.09576908 0.2312067 -2.922589
v 5.682975E-08 0.2502564 -2.922589
v 0.1293413 0.3122573 -3.598559
v 0.2389916 0.2389914 -3.598559
v 0.1769581 0.1769579 -2.922589
v 0.09576908 0.2312067 -2.922589
v 0.2389916 0.2389914 -3.598559
v 0.3122576 0.1293412 -3.598559
v 0.231207 0.09576889 -2.922589
v 0.1769581 0.1769579 -2.922589
v 0.3122576 0.1293412 -3.598559
v 0.3379851 -1.662356E-07 -3.598559
v 0.2502566 -1.641822E-07 -2.922589
v 0.231207 0.09576889 -2.922589
v 0.3379851 -1.662356E-07 -3.598559
v 0.3122576 -0.1293415 -3.598559
v 0.231207 -0.09576918 -2.922589
v 0.2502566 -1.641822E-07 -2.922589
v 0.3122576 -0.1293415 -3.598559
v 0.2389916 -0.2389917 -3.598559
v 0.1769581 -0.1769582 -2.922589
v 0.231207 -0.09576918 -2.922589
v 0.2389916 -0.2389917 -3.598559
v 0.1293413 -0.3122577 -3.598559
v 0.09576908 -0.2312071 -2.922589
v 0.1769581 -0.1769582 -2.922589
v 0.1293413 -0.3122577 -3.598559
v 9.872934E-08 -0.3379852 -3.598559
v 9.461743E-08 -0.2502567 -2.922589
v 0.09576908 -0.2312071 -2.922589
v 9.872934E-08 -0.3379852 -3.598559
v -0.1293412 -0.3122577 -3.598559
v -0.09576892 -0.2312071 -2.922589
v 9.461743E-08 -0.2502567 -2.922589
v -0.1293412 -0.3122577 -3.598559
v -0.2389914 -0.2389918 -3.598559
v -0.176958 -0.1769583 -2.922589
v -0.09576892 -0.2312071 -2.922589
v -0.2389914 -0.2389918 -3.598559
v -0.3122574 -0.1293415 -3.598559
v -0.2312068 -0.09576922 -2.922589
v -0.176958 -0.1769583 -2.922589
v -0.3122574 -0.1293415 -3.598559
v -0.337985 -1.474313E-07 -3.598559
v -0.2502564 -1.502589E-07 -2.922589
v -0.2312068 -0.09576922 -2.922589
v -0.337985 -1.474313E-07 -3.598559
v -0.3122574 0.1293412 -3.598559
v -0.2312068 0.09576893 -2.922589
v -0.2502564 -1.502589E-07 -2.922589
v -0.3122574 0.1293412 -3.598559
v -0.2389914 0.2389915 -3.598559
v -0.176958 0.176958 -2.922589
v -0.2312068 0.09576893 -2.922589
v 0.231207 0.09576889 -2.922589
v 0.2502566 -1.641822E-07 -2.922589
v 0.231207 -0.09576918 -2.922589
v 0.1769581 0.1769579 -2.922589
v 0.1769581 -0.1769582 -2.922589
v 0.09576908 0.2312067 -2.922589
v 0.09576908 -0.2312071 -2.922589
v 5.682975E-08 0.2502564 -2.922589
v 9.461743E-08 -0.2502567 -2.922589
v -0.09576892 -0.2312071 -2.922589
v -0.09576887 0.2312067 -2.922589
v -0.176958 0.176958 -2.922589
v -0.176958 -0.1769583 -2.922589
v -0.2312068 0.09576893 -2.922589
v -0.2312068 -0.09576922 -2.922589
v -0.2502564 -1.502589E-07 -2.922589
v -0.2389914 0.2389915 -3.598559
v -0.1293411 0.3122574 -3.598559
v -0.09576887 0.2312067 -2.922589
v -0.176958 0.176958 -2.922589
v -0.1293411 0.3122574 -3.598559
v 4.769501E-08 0.3379849 -3.598559
v 5.682975E-08 0.2502564 -2.922589
v -0.09576887 0.2312067 -2.922589
v 0.3122576 -0.1293415 -3.598559
v 0.3379851 -1.662356E-07 -3.598559
v 0.3122576 0.1293412 -3.598559
v 0.2389916 -0.2389917 -3.598559
v 0.2389916 0.2389914 -3.598559
v 0.1293413 -0.3122577 -3.598559
v 0.1293413 0.3122573 -3.598559
v 9.872934E-08 -0.3379852 -3.598559
v 4.769501E-08 0.3379849 -3.598559
v -0.1293412 -0.3122577 -3.598559
v -0.1293411 0.3122574 -3.598559
v -0.2389914 0.2389915 -3.598559
v -0.2389914 -0.2389918 -3.598559
v -0.3122574 0.1293412 -3.598559
v -0.3122574 -0.1293415 -3.598559
v -0.337985 -1.474313E-07 -3.598559
vt 0.08464105 0.4825409
vt 0.08464105 0.4294102
vt 0.0152223 0.4294102
vt 0.0152223 0.4825409
vt 0.08464105 0.4294102
vt 0.08464105 0.3843678
vt 0.0152223 0.3843678
vt 0.0152223 0.4294102
vt 0.08464105 0.3843678
vt 0.08464105 0.3542715
vt 0.01522222 0.3542715
vt 0.0152223 0.3843678
vt 0.08464105 0.3542715
vt 0.08464105 0.3437034
vt 0.01522222 0.3437034
vt 0.01522222 0.3542715
vt 0.08464105 0.3437034
vt 0.08464105 0.3542715
vt 0.01522222 0.3542715
vt 0.01522222 0.3437034
vt 0.08464105 0.3542715
vt 0.08464105 0.3843678
vt 0.0152223 0.3843678
vt 0.01522222 0.3542715
vt 0.08464105 0.3843678
vt 0.08464105 0.4294102
vt 0.0152223 0.4294102
vt 0.0152223 0.3843678
vt 0.08464105 0.4294102
vt 0.08464105 0.4825409
vt 0.0152223 0.4825409
vt 0.0152223 0.4294102
vt 0.08464105 0.4825409
vt 0.08464105 0.5356718
vt 0.0152223 0.5356718
vt 0.0152223 0.4825409
vt 0.08464105 0.5356718
vt 0.08464105 0.5807143
vt 0.0152223 0.5807143
vt 0.0152223 0.5356718
vt 0.08464105 0.5807143
vt 0.08464113 0.6108102
vt 0.0152223 0.6108102
vt 0.0152223 0.5807143
vt 0.08464113 0.6108102
vt 0.08464113 0.6213787
vt 0.0152223 0.6213787
vt 0.0152223 0.6108102
vt 0.08464113 0.6213787
vt 0.08464113 0.6108102
vt 0.0152223 0.6108102
vt 0.0152223 0.6213787
vt 0.08464113 0.6108102
vt 0.08464105 0.5807143
vt 0.0152223 0.5807143
vt 0.0152223 0.6108102
vt 0.01522222 0.3542715
vt 0.01522222 0.3437034
vt 0.01522222 0.3542715
vt 0.0152223 0.3843678
vt 0.0152223 0.3843678
vt 0.0152223 0.4294102
vt 0.0152223 0.4294102
vt 0.0152223 0.4825409
vt 0.0152223 0.4825409
vt 0.0152223 0.5356718
vt 0.0152223 0.5356718
vt 0.0152223 0.5807143
vt 0.0152223 0.5807143
vt 0.0152223 0.6108102
vt 0.0152223 0.6108102
vt 0.0152223 0.6213787
vt 0.08464105 0.5807143
vt 0.08464105 0.5356718
vt 0.0152223 0.5356718
vt 0.0152223 0.5807143
vt 0.08464105 0.5356718
vt 0.08464105 0.4825409
vt 0.0152223 0.4825409
vt 0.0152223 0.5356718
vt 0.08464105 0.3542715
vt 0.08464105 0.3437034
vt 0.08464105 0.3542715
vt 0.08464105 0.3843678
vt 0.08464105 0.3843678
vt 0.08464105 0.4294102
vt 0.08464105 0.4294102
vt 0.08464105 0.4825409
vt 0.08464105 0.4825409
vt 0.08464105 0.5356718
vt 0.08464105 0.5356718
vt 0.08464105 0.5807143
vt 0.08464105 0.5807143
vt 0.08464113 0.6108102
vt 0.08464113 0.6108102
vt 0.08464113 0.6213787
vn 0.1935288 0.972935 0.1262692
vn 0.1935288 0.972935 0.1262692
vn 0.1935288 0.972935 0.1262692
vn 0.1935288 0.972935 0.1262692
vn 0.5511234 0.8248146 0.1262692
vn 0.5511234 0.8248146 0.1262692
vn 0.5511234 0.8248146 0.1262692
vn 0.5511234 0.8248146 0.1262692
vn 0.8248143 0.5511239 0.1262691
vn 0.8248143 0.5511239 0.1262691
vn 0.8248143 0.5511239 0.1262691
vn 0.8248143 0.5511239 0.1262691
vn 0.9729351 0.1935285 0.1262692
vn 0.9729351 0.1935285 0.1262692
vn 0.9729351 0.1935285 0.1262692
vn 0.9729351 0.1935285 0.1262692
vn 0.9729351 -0.1935285 0.1262692
vn 0.9729351 -0.1935285 0.1262692
vn 0.9729351 -0.1935285 0.1262692
vn 0.9729351 -0.1935285 0.1262692
vn 0.8248142 -0.5511239 0.1262692
vn 0.8248142 -0.5511239 0.1262692
vn 0.8248142 -0.5511239 0.1262692
vn 0.8248142 -0.5511239 0.1262692
vn 0.5511234 -0.8248146 0.1262692
vn 0.5511234 -0.8248146 0.1262692
vn 0.5511234 -0.8248146 0.1262692
vn 0.5511234 -0.8248146 0.1262692
vn 0.1935286 -0.9729351 0.1262691
vn 0.1935286 -0.9729351 0.1262691
vn 0.1935286 -0.9729351 0.1262691
vn 0.1935286 -0.9729351 0.1262691
vn -0.1935285 -0.9729351 0.1262692
vn -0.1935285 -0.9729351 0.1262692
vn -0.1935285 -0.9729351 0.1262692
vn -0.1935285 -0.9729351 0.1262692
vn -0.5511231 -0.8248147 0.1262691
vn -0.5511231 -0.8248147 0.1262691
vn -0.5511231 -0.8248147 0.1262691
vn -0.5511231 -0.8248147 0.1262691
vn -0.8248144 -0.5511235 0.1262692
vn -0.8248144 -0.5511235 0.1262692
vn -0.8248144 -0.5511235 0.1262692
vn -0.8248144 -0.5511235 0.1262692
vn -0.9729351 -0.1935285 0.1262692
vn -0.9729351 -0.1935285 0.1262692
vn -0.9729351 -0.1935285 0.1262692
vn -0.9729351 -0.1935285 0.1262692
vn -0.9729351 0.1935284 0.1262692
vn -0.9729351 0.1935284 0.1262692
vn -0.9729351 0.1935284 0.1262692
vn -0.9729351 0.1935284 0.1262692
vn -0.8248143 0.5511239 0.1262692
vn -0.8248143 0.5511239 0.1262692
vn -0.8248143 0.5511239 0.1262692
vn -0.8248143 0.5511239 0.1262692
vn 0 0 1
vn 0 0 1
vn 0 0 1
vn 0 0 1
vn 0 0 1
vn 0 0 1
vn 0 0 1
vn 0 0 1
vn 0 0 1
vn 0 0 1
vn 0 0 1
vn 0 0 1
vn 0 0 1
vn 0 0 1
vn 0 0 1
vn 0 0 1
vn -0.5511231 0.8248148 0.1262692
vn -0.5511231 0.8248148 0.1262692
vn -0.5511231 0.8248148 0.1262692
vn -0.5511231 0.8248148 0.1262692
vn -0.1935287 0.9729351 0.1262691
vn -0.1935287 0.9729351 0.1262691
vn -0.1935287 0.9729351 0.1262691
vn -0.1935287 0.9729351 0.1262691
vn 0 0 -1
vn 0 0 -1
vn 0 0 -1
vn 0 0 -1
vn 0 0 -1
vn 0 0 -1
vn 0 0 -1
vn 0 0 -1
vn 0 0 -1
vn 0 0 -1
vn 0 0 -1
vn 0 0 -1
vn 0 0 -1
vn 0 0 -1
vn 0 0 -1
vn 0 0 -1
g Cylinder_0
f 3/3/3 2/2/2 1/1/1
f 4/4/4 3/3/3 1/1/1
f 7/7/7 6/6/6 5/5/5
f 8/8/8 7/7/7 5/5/5
f 11/11/11 10/10/10 9/9/9
f 12/12/12 11/11/11 9/9/9
f 15/15/15 14/14/14 13/13/13
f 16/16/16 15/15/15 13/13/13
f 19/19/19 18/18/18 17/17/17
f 20/20/20 19/19/19 17/17/17
f 23/23/23 22/22/22 21/21/21
f 24/24/24 23/23/23 21/21/21
f 27/27/27 26/26/26 25/25/25
f 28/28/28 27/27/27 25/25/25
f 31/31/31 30/30/30 29/29/29
f 32/32/32 31/31/31 29/29/29
f 35/35/35 34/34/34 33/33/33
f 36/36/36 35/35/35 33/33/33
f 39/39/39 38/38/38 37/37/37
f 40/40/40 39/39/39 37/37/37
f 43/43/43 42/42/42 41/41/41
f 44/44/44 43/43/43 41/41/41
f 47/47/47 46/46/46 45/45/45
f 48/48/48 47/47/47 45/45/45
f 51/51/51 50/50/50 49/49/49
f 52/52/52 51/51/51 49/49/49
f 55/55/55 54/54/54 53/53/53
f 56/56/56 55/55/55 53/53/53
f 59/59/59 58/58/58 57/57/57
f 57/57/57 60/60/60 59/59/59
f 60/60/60 61/61/61 59/59/59
f 60/60/60 62/62/62 61/61/61
f 62/62/62 63/63/63 61/61/61
f 62/62/62 64/64/64 63/63/63
f 64/64/64 65/65/65 63/63/63
f 64/64/64 66/66/66 65/65/65
f 64/64/64 67/67/67 66/66/66
f 67/67/67 68/68/68 66/66/66
f 68/68/68 69/69/69 66/66/66
f 68/68/68 70/70/70 69/69/69
f 70/70/70 71/71/71 69/69/69
f 70/70/70 72/72/72 71/71/71
f 75/75/75 74/74/74 73/73/73
f 76/76/76 75/75/75 73/73/73
f 79/79/79 78/78/78 77/77/77
f 80/80/80 79/79/79 77/77/77
f 83/83/83 82/82/82 81/81/81
f 81/81/81 84/84/84 83/83/83
f 84/84/84 85/85/85 83/83/83
f 84/84/84 86/86/86 85/85/85
f 86/86/86 87/87/87 85/85/85
f 86/86/86 88/88/88 87/87/87
f 88/88/88 89/89/89 87/87/87
f 88/88/88 90/90/90 89/89/89
f 90/90/90 91/91/91 89/89/89
f 90/90/90 92/92/92 91/91/91
f 90/90/90 93/93/93 92/92/92
f 93/93/93 94/94/94 92/92/92
f 93/93/93 95/95/95 94/94/94
f 95/95/95 96/96/96 94/94/94
