g Cylinder.001
v 0.3000051 0.3000003 -0.2470479
v 0.3000051 0.3000003 -0.3666441
v 0.3000051 -0.2999949 -0.3666441
v 0.3000051 -0.2999949 -0.2470479
v 0.3000051 -0.2942373 -0.1885264
v 0.3000051 -0.2771682 -0.1322428
v 0.3000051 -0.2494384 -0.08037403
v 0.3000051 -0.2121364 -0.03491384
v 0.3000051 -0.166666 0.00238812
v 0.3000051 -0.1148074 0.03011793
v 0.3000051 -0.05852386 0.04718712
v 0.3000051 -2.384186E-06 0.05295485
v 0.3000051 0.05852929 0.04718712
v 0.3000051 0.1148027 0.03011793
v 0.3000051 0.1666715 0.00238812
v 0.3000051 0.2121316 -0.03491384
v 0.3000051 0.2494438 -0.08037403
v 0.3000051 0.2771634 -0.1322428
v 0.3000051 0.2942326 -0.1885264
v -0.3000003 0.3000003 -0.2470479
v -0.3000003 0.3000003 -0.3666441
v 0.3000051 0.3000003 -0.3666441
v 0.3000051 0.3000003 -0.2470479
v -0.3000003 0.2942326 -0.1885264
v 0.3000051 0.2942326 -0.1885264
v -0.3000003 0.2771634 -0.1322428
v 0.3000051 0.2771634 -0.1322428
v -0.3000003 0.2494438 -0.08037403
v 0.3000051 0.2494438 -0.08037403
v -0.3000003 0.2121316 -0.03491384
v 0.3000051 0.2121316 -0.03491384
v -0.3000003 0.1666715 0.00238812
v 0.3000051 0.1666715 0.00238812
v -0.3000003 0.1148027 0.03011793
v 0.3000051 0.1148027 0.03011793
v -0.3000003 0.05852929 0.04718712
v 0.3000051 0.05852929 0.04718712
v -0.3000003 -2.384186E-06 0.05295485
v 0.3000051 -2.384186E-06 0.05295485
v -0.3000003 -0.05852386 0.04718712
v 0.3000051 -0.05852386 0.04718712
v -0.3000003 -0.2999949 -0.2470479
v -0.3000003 -0.2999949 -0.3666441
v -0.3000003 0.3000003 -0.3666441
v -0.3000003 0.3000003 -0.2470479
v -0.3000003 -0.2942373 -0.1885264
v -0.3000003 -0.2771682 -0.1322428
v -0.3000003 -0.2494384 -0.08037403
v -0.3000003 -0.2121364 -0.03491384
v -0.3000003 -0.166666 0.00238812
v -0.3000003 -0.1148074 0.03011793
v -0.3000003 -0.05852386 0.04718712
v -0.3000003 -2.384186E-06 0.05295485
v -0.3000003 0.05852929 0.04718712
v -0.3000003 0.1148027 0.03011793
v -0.3000003 0.1666715 0.00238812
v -0.3000003 0.2121316 -0.03491384
v -0.3000003 0.2494438 -0.08037403
v -0.3000003 0.2771634 -0.1322428
v -0.3000003 0.2942326 -0.1885264
v 0.3000051 -0.2999949 -0.2470479
v 0.3000051 -0.2999949 -0.3666441
v -0.3000003 -0.2999949 -0.3666441
v -0.3000003 -0.2999949 -0.2470479
v 0.3000051 -0.2942373 -0.1885264
v -0.3000003 -0.2942373 -0.1885264
v 0.3000051 -0.2771682 -0.1322428
v -0.3000003 -0.2771682 -0.1322428
v 0.3000051 -0.2494384 -0.08037403
v -0.3000003 -0.2494384 -0.08037403
v 0.3000051 -0.2121364 -0.03491384
v -0.3000003 -0.2121364 -0.03491384
v 0.3000051 -0.166666 0.00238812
v -0.3000003 -0.166666 0.00238812
v 0.3000051 -0.1148074 0.03011793
v -0.3000003 -0.1148074 0.03011793
v 0.3000051 -0.05852386 0.04718712
v -0.3000003 -0.05852386 0.04718712
vt 0.9883118 0.8662617
vt 0.9883118 0.9820297
vt 0.9883118 0.9820297
vt 0.9883118 0.8662617
vt 0.9883118 0.8097237
vt 0.9883118 0.7549807
vt 0.9883118 0.7047247
vt 0.9883118 0.6607508
vt 0.9883118 0.6248537
vt 0.9883118 0.5979309
vt 0.9883118 0.5817772
vt 0.9883118 0.5754952
vt 0.9883118 0.5817772
vt 0.9883118 0.5979309
vt 0.9883118 0.6248537
vt 0.9883118 0.6607508
vt 0.9883118 0.7047247
vt 0.9883118 0.7549807
vt 0.9883118 0.8097237
vt 0.9883118 0.8662617
vt 0.9883118 0.9820297
vt 0.9883118 0.9820297
vt 0.9883118 0.8662617
vt 0.9883118 0.8097237
vt 0.9883118 0.8097237
vt 0.9883118 0.7549807
vt 0.9883118 0.7549807
vt 0.9883118 0.7047247
vt 0.9883118 0.7047247
vt 0.9883118 0.6607508
vt 0.9883118 0.6607508
vt 0.9883118 0.6248537
vt 0.9883118 0.6248537
vt 0.9883118 0.5979309
vt 0.9883118 0.5979309
vt 0.9883118 0.5817772
vt 0.9883118 0.5817772
vt 0.9883118 0.5754952
vt 0.9883118 0.5754952
vt 0.9883118 0.5817772
vt 0.9883118 0.5817772
vt 0.9883118 0.8662617
vt 0.9883118 0.9820297
vt 0.9883118 0.9820297
vt 0.9883118 0.8662617
vt 0.9883118 0.8097237
vt 0.9883118 0.7549807
vt 0.9883118 0.7047247
vt 0.9883118 0.6607508
vt 0.9883118 0.6248537
vt 0.9883118 0.5979309
vt 0.9883118 0.5817772
vt 0.9883118 0.5754952
vt 0.9883118 0.5817772
vt 0.9883118 0.5979309
vt 0.9883118 0.6248537
vt 0.9883118 0.6607508
vt 0.9883118 0.7047247
vt 0.9883118 0.7549807
vt 0.9883118 0.8097237
vt 0.9883118 0.8662617
vt 0.9883118 0.9820297
vt 0.9883118 0.9820297
vt 0.9883118 0.8662617
vt 0.9883118 0.8097237
vt 0.9883118 0.8097237
vt 0.9883118 0.7549807
vt 0.9883118 0.7549807
vt 0.9883118 0.7047247
vt 0.9883118 0.7047247
vt 0.9883118 0.6607508
vt 0.9883118 0.6607508
vt 0.9883118 0.6248537
vt 0.9883118 0.6248537
vt 0.9883118 0.5979309
vt 0.9883118 0.5979309
vt 0.9883118 0.5817772
vt 0.9883118 0.5817772
vn 0.6944607 0.7169535 0.06084492
vn 0.705707 0.7057071 -0.06288932
vn 0.705707 -0.705707 -0.06289074
vn 0.6944607 -0.7169533 0.0608459
vn 0.6832144 -0.7113302 0.1650076
vn 0.6832144 -0.671968 0.2857921
vn 0.6832144 -0.60449 0.4096461
vn 0.6832144 -0.5145195 0.5181581
vn 0.6832144 -0.4020562 0.6095646
vn 0.6832144 -0.2783466 0.6750862
vn 0.6832144 -0.1433907 0.7160009
vn 0.6832144 0.002811611 0.7302125
vn 0.6832144 0.1433907 0.7160009
vn 0.6832144 0.2783467 0.6750861
vn 0.6832144 0.4020563 0.6095645
vn 0.6832144 0.5145195 0.5181581
vn 0.6832144 0.6044901 0.409646
vn 0.6832144 0.6719682 0.2857918
vn 0.6832144 0.7113302 0.1650075
vn -0.6944608 0.7169535 0.06084345
vn -0.7057071 0.7057071 -0.06288789
vn 0.705707 0.7057071 -0.06288932
vn 0.6944607 0.7169535 0.06084492
vn -0.6832145 0.7113302 0.1650069
vn 0.6832144 0.7113302 0.1650075
vn -0.6832145 0.6719682 0.2857915
vn 0.6832144 0.6719682 0.2857918
vn -0.6832145 0.6044901 0.4096458
vn 0.6832144 0.6044901 0.409646
vn -0.6832145 0.5145195 0.5181579
vn 0.6832144 0.5145195 0.5181581
vn -0.6832145 0.4020563 0.6095644
vn 0.6832144 0.4020563 0.6095645
vn -0.6832145 0.2783467 0.675086
vn 0.6832144 0.2783467 0.6750861
vn -0.6832145 0.1433907 0.7160007
vn 0.6832144 0.1433907 0.7160009
vn -0.6832145 0.002811611 0.7302123
vn 0.6832144 0.002811611 0.7302125
vn -0.6832145 -0.1433907 0.7160008
vn 0.6832144 -0.1433907 0.7160009
vn -0.6944608 -0.7169533 0.06084443
vn -0.7057071 -0.705707 -0.06288932
vn -0.7057071 0.7057071 -0.06288789
vn -0.6944608 0.7169535 0.06084345
vn -0.6832145 -0.7113302 0.1650071
vn -0.6832145 -0.671968 0.2857918
vn -0.6832145 -0.60449 0.4096459
vn -0.6832145 -0.5145195 0.518158
vn -0.6832145 -0.4020562 0.6095644
vn -0.6832145 -0.2783466 0.675086
vn -0.6832145 -0.1433907 0.7160008
vn -0.6832145 0.002811611 0.7302123
vn -0.6832145 0.1433907 0.7160007
vn -0.6832145 0.2783467 0.675086
vn -0.6832145 0.4020563 0.6095644
vn -0.6832145 0.5145195 0.5181579
vn -0.6832145 0.6044901 0.4096458
vn -0.6832145 0.6719682 0.2857915
vn -0.6832145 0.7113302 0.1650069
vn 0.6944607 -0.7169533 0.0608459
vn 0.705707 -0.705707 -0.06289074
vn -0.7057071 -0.705707 -0.06288932
vn -0.6944608 -0.7169533 0.06084443
vn 0.6832144 -0.7113302 0.1650076
vn -0.6832145 -0.7113302 0.1650071
vn 0.6832144 -0.671968 0.2857921
vn -0.6832145 -0.671968 0.2857918
vn 0.6832144 -0.60449 0.4096461
vn -0.6832145 -0.60449 0.4096459
vn 0.6832144 -0.5145195 0.5181581
vn -0.6832145 -0.5145195 0.518158
vn 0.6832144 -0.4020562 0.6095646
vn -0.6832145 -0.4020562 0.6095644
vn 0.6832144 -0.2783466 0.6750862
vn -0.6832145 -0.2783466 0.675086
vn 0.6832144 -0.1433907 0.7160009
vn -0.6832145 -0.1433907 0.7160008
g Cylinder.001_0
f 3/3/3 2/2/2 1/1/1
f 4/4/4 3/3/3 1/1/1
f 5/5/5 4/4/4 1/1/1
f 1/1/1 6/6/6 5/5/5
f 1/1/1 7/7/7 6/6/6
f 1/1/1 8/8/8 7/7/7
f 1/1/1 9/9/9 8/8/8
f 1/1/1 10/10/10 9/9/9
f 1/1/1 11/11/11 10/10/10
f 1/1/1 12/12/12 11/11/11
f 1/1/1 13/13/13 12/12/12
f 1/1/1 14/14/14 13/13/13
f 1/1/1 15/15/15 14/14/14
f 1/1/1 16/16/16 15/15/15
f 1/1/1 17/17/17 16/16/16
f 1/1/1 18/18/18 17/17/17
f 1/1/1 19/19/19 18/18/18
f 22/22/22 21/21/21 20/20/20
f 23/23/23 22/22/22 20/20/20
f 23/23/23 20/20/20 24/24/24
f 25/25/25 23/23/23 24/24/24
f 25/25/25 24/24/24 26/26/26
f 27/27/27 25/25/25 26/26/26
f 27/27/27 26/26/26 28/28/28
f 29/29/29 27/27/27 28/28/28
f 29/29/29 28/28/28 30/30/30
f 31/31/31 29/29/29 30/30/30
f 31/31/31 30/30/30 32/32/32
f 33/33/33 31/31/31 32/32/32
f 33/33/33 32/32/32 34/34/34
f 35/35/35 33/33/33 34/34/34
f 35/35/35 34/34/34 36/36/36
f 37/37/37 35/35/35 36/36/36
f 37/37/37 36/36/36 38/38/38
f 39/39/39 37/37/37 38/38/38
f 39/39/39 38/38/38 40/40/40
f 41/41/41 39/39/39 40/40/40
f 44/44/44 43/43/43 42/42/42
f 45/45/45 44/44/44 42/42/42
f 45/45/45 42/42/42 46/46/46
f 46/46/46 47/47/47 45/45/45
f 47/47/47 48/48/48 45/45/45
f 48/48/48 49/49/49 45/45/45
f 49/49/49 50/50/50 45/45/45
f 50/50/50 51/51/51 45/45/45
f 51/51/51 52/52/52 45/45/45
f 52/52/52 53/53/53 45/45/45
f 53/53/53 54/54/54 45/45/45
f 54/54/54 55/55/55 45/45/45
f 55/55/55 56/56/56 45/45/45
f 56/56/56 57/57/57 45/45/45
f 57/57/57 58/58/58 45/45/45
f 58/58/58 59/59/59 45/45/45
f 59/59/59 60/60/60 45/45/45
f 63/63/63 62/62/62 61/61/61
f 64/64/64 63/63/63 61/61/61
f 61/61/61 65/65/65 64/64/64
f 65/65/65 66/66/66 64/64/64
f 65/65/65 67/67/67 66/66/66
f 67/67/67 68/68/68 66/66/66
f 67/67/67 69/69/69 68/68/68
f 69/69/69 70/70/70 68/68/68
f 69/69/69 71/71/71 70/70/70
f 71/71/71 72/72/72 70/70/70
f 71/71/71 73/73/73 72/72/72
f 73/73/73 74/74/74 72/72/72
f 73/73/73 75/75/75 74/74/74
f 75/75/75 76/76/76 74/74/74
f 75/75/75 77/77/77 76/76/76
f 77/77/77 78/78/78 76/76/76
