g Fornello
v 0.4999976 0.08382368 -0.4647207
v 0.4999976 0.08382368 -4.331714
v 4.331714 0.08382368 -4.331714
v 4.331714 0.08382368 -0.4647207
v 0.4999976 0.08382368 4.402388
v 0.4999976 0.08382368 0.5353951
v 4.331714 0.08382368 0.5353951
v 4.331714 0.08382368 4.402388
v -4.331683 0.08382368 4.402388
v -4.331683 0.08382368 0.5353951
v -0.4999657 0.08382368 0.5353951
v -0.4999657 0.08382368 4.402388
v -4.331683 0.08382368 -0.4647207
v -4.331683 0.08382368 -4.331714
v -0.4999657 0.08382368 -4.331714
v -0.4999657 0.08382368 -0.4647207
v 0.4999976 0.08382368 -4.331714
v 4.831696 0.08382368 -4.831696
v 4.331714 0.08382368 -4.331714
v 1.573563E-05 0.08382368 -4.831696
v -0.4999657 0.08382368 -4.331714
v 1.573563E-05 0.08382368 0.03541374
v -0.4999657 0.08382368 -0.4647207
v 4.331714 0.08382368 -0.4647207
v 0.4999976 0.08382368 -0.4647207
v 4.831696 0.08382368 0.03526068
v 4.331714 0.08382368 0.5353951
v 4.831696 0.08382368 4.90237
v 4.331714 0.08382368 4.402388
v 0.4999976 0.08382368 4.402388
v 0.4999976 0.08382368 0.5353951
v 1.573563E-05 0.08382368 4.90237
v -0.4999657 0.08382368 4.402388
v -4.831664 0.08382368 4.90237
v -4.331683 0.08382368 4.402388
v -4.331683 0.08382368 0.5353951
v -0.4999657 0.08382368 0.5353951
v -4.831664 0.08382368 0.03541374
v -4.331683 0.08382368 -0.4647207
v -4.831664 0.08382368 -4.831696
v -4.331683 0.08382368 -4.331714
v 4.331714 0.08382368 -4.331714
v 4.831696 0.08382368 -4.831696
v 4.831696 0.08382368 0.03526068
v 4.331714 0.08382368 -0.4647207
v 0.4999976 0.08382368 0.5353951
v 4.331714 0.08382368 0.5353951
v 1.573563E-05 0.08382368 0.03541374
v 0.4999976 0.08382368 -0.4647207
v 1.573563E-05 0.08382368 -4.831696
v 0.4999976 0.08382368 -4.331714
v -4.331683 0.08382368 -4.331714
v -4.831664 0.08382368 -4.831696
v -0.4999657 0.08382368 -4.331714
v -0.4999657 0.08382368 -0.4647207
v -4.831664 0.08382368 0.03541374
v -4.331683 0.08382368 -0.4647207
v -4.331683 0.08382368 4.402388
v -4.831664 0.08382368 4.90237
v -4.331683 0.08382368 0.5353951
v -0.4999657 0.08382368 0.5353951
v 1.573563E-05 0.08382368 4.90237
v -0.4999657 0.08382368 4.402388
v 4.331714 0.08382368 4.402388
v 4.831696 0.08382368 4.90237
v 0.4999976 0.08382368 4.402388
v -4.968647 -1.573563E-05 -4.871859
v -4.871828 -1.573563E-05 -4.968679
v -4.831664 0.06855202 -4.900111
v 1.573563E-05 -1.573563E-05 -4.968679
v 1.573563E-05 0.06855202 -4.900111
v 4.871859 -1.573563E-05 -4.968679
v 4.831696 0.06855202 -4.900111
v 4.968679 -1.573563E-05 -4.871859
v 4.900111 0.06855202 -4.831696
v 4.968679 -1.573563E-05 0.03526068
v 4.900111 0.06855202 0.03526068
v 4.968679 -1.573563E-05 4.942533
v 4.900111 0.01525545 -4.831696
v 4.900111 0.06855202 4.90237
v 4.871859 -1.573563E-05 5.039354
v 4.900111 0.01525545 0.03526068
v 4.831696 0.06855202 4.970786
v 1.573563E-05 -1.573563E-05 5.039354
v 1.573563E-05 0.06855202 4.970786
v -4.871828 -1.573563E-05 5.039354
v 4.831696 0.01525545 4.970786
v 4.900111 0.01525545 4.90237
v 4.831696 0.08382368 0.03526068
v 4.831696 0.08382368 4.90237
v 4.831696 0.08382368 -4.831696
v 1.573563E-05 0.01525545 4.970786
v 1.573563E-05 0.08382368 4.90237
v 4.831696 0.01525545 -4.900111
v 1.573563E-05 0.08382368 -4.831696
v 1.573563E-05 0.01525545 -4.900111
v -4.831664 0.08382368 -4.831696
v -4.831664 0.01525545 -4.900111
v -4.831664 0.06855202 4.970786
v -4.831664 0.01525545 4.970786
v -4.831664 0.08382368 4.90237
v -4.900232 0.01525545 -4.831696
v -4.831664 0.08382368 0.03541374
v -4.900232 0.06855202 -4.831696
v -4.900232 0.01525545 0.03541374
v -4.900232 0.01525545 4.90237
v -4.900232 0.06855202 4.90237
v -4.968647 -1.573563E-05 4.942533
v -4.968647 -1.573563E-05 0.03541374
v -4.900232 0.06855202 0.03541374
vt 0.07526882 0.2394917
vt 0.07526882 0.9305963
vt 0.7663734 0.9305963
vt 0.7663734 0.2394917
vt 0.07526882 0.2394917
vt 0.07526882 0.9305963
vt 0.7663734 0.9305963
vt 0.7663734 0.2394917
vt 0.07526882 0.2394917
vt 0.07526882 0.9305963
vt 0.7663734 0.9305963
vt 0.7663734 0.2394917
vt 0.07526882 0.2394917
vt 0.07526882 0.9305963
vt 0.7663734 0.9305963
vt 0.7663734 0.2394917
vt 0.3528837 0.4740958
vt 0.5043988 0.6246334
vt 0.5043988 0.4740958
vt 0.3528837 0.6246334
vt 0.3528837 0.4740958
vt 0.5043988 0.6246334
vt 0.5043988 0.4740958
vt 0.3528837 0.4740958
vt 0.5043988 0.4740958
vt 0.3528837 0.6246334
vt 0.3528837 0.4740958
vt 0.5043988 0.6246334
vt 0.5043988 0.4740958
vt 0.3528837 0.4740958
vt 0.5043988 0.4740958
vt 0.3528837 0.6246334
vt 0.3528837 0.4740958
vt 0.5043988 0.6246334
vt 0.5043988 0.4740958
vt 0.3528837 0.4740958
vt 0.5043988 0.4740958
vt 0.3528837 0.6246334
vt 0.3528837 0.4740958
vt 0.5043988 0.6246334
vt 0.5043988 0.4740958
vt 0.3528837 0.4740958
vt 0.3528837 0.6246334
vt 0.5043988 0.6246334
vt 0.5043988 0.4740958
vt 0.3528837 0.4740958
vt 0.5043988 0.4740958
vt 0.3528837 0.6246334
vt 0.3528837 0.4740958
vt 0.5043988 0.6246334
vt 0.5043988 0.4740958
vt 0.3528837 0.4740958
vt 0.3528837 0.6246334
vt 0.5043988 0.4740958
vt 0.3528837 0.4740958
vt 0.5043988 0.6246334
vt 0.5043988 0.4740958
vt 0.3528837 0.4740958
vt 0.3528837 0.6246334
vt 0.5043988 0.4740958
vt 0.3528837 0.4740958
vt 0.5043988 0.6246334
vt 0.5043988 0.4740958
vt 0.3528837 0.4740958
vt 0.3528837 0.6246334
vt 0.5043988 0.4740958
vt 0.5249267 0.1906158
vt 0.5249267 0.1906158
vt 0.5249267 0.1906158
vt 0.5249267 0.1906158
vt 0.5249267 0.1906158
vt 0.5249267 0.1906158
vt 0.5249267 0.1906158
vt 0.5249267 0.1906158
vt 0.5249267 0.1906158
vt 0.5249267 0.1906158
vt 0.5249267 0.1906158
vt 0.5249267 0.1906158
vt 0.5249267 0.1906158
vt 0.5249267 0.1906158
vt 0.5249267 0.1906158
vt 0.5249267 0.1906158
vt 0.5249267 0.1906158
vt 0.5249267 0.1906158
vt 0.5249267 0.1906158
vt 0.5249267 0.1906158
vt 0.5249267 0.1906158
vt 0.5249267 0.1906158
vt 0.5249267 0.1906158
vt 0.5249267 0.1906158
vt 0.5249267 0.1906158
vt 0.5249267 0.1906158
vt 0.5249267 0.1906158
vt 0.5249267 0.1906158
vt 0.5249267 0.1906158
vt 0.5249267 0.1906158
vt 0.5249267 0.1906158
vt 0.5249267 0.1906158
vt 0.5249267 0.1906158
vt 0.5249267 0.1906158
vt 0.5249267 0.1906158
vt 0.5249267 0.1906158
vt 0.5249267 0.1906158
vt 0.5249267 0.1906158
vt 0.5249267 0.1906158
vt 0.5249267 0.1906158
vt 0.5249267 0.1906158
vt 0.5249267 0.1906158
vt 0.5249267 0.1906158
vt 0.5249267 0.1906158
vn -0.002512812 0.9999968 0
vn -0.002512812 0.9999968 0
vn -0.002512812 0.9999968 0
vn -0.002512812 0.9999968 0
vn -0.002512812 0.9999968 0
vn -0.002512812 0.9999968 0
vn -0.002512812 0.9999968 0
vn -0.002512812 0.9999968 0
vn -0.002512812 0.9999968 0
vn -0.002512812 0.9999968 0
vn -0.002512812 0.9999968 0
vn -0.002512812 0.9999968 0
vn -0.002512812 0.9999968 0
vn -0.002512812 0.9999968 0
vn -0.002512812 0.9999968 0
vn -0.002512812 0.9999968 0
vn -0.002512812 0.9999968 0
vn -0.002512812 0.9999968 0
vn -0.002512812 0.9999968 0
vn -0.002512812 0.9999968 0
vn -0.002512812 0.9999968 0
vn -0.002512812 0.9999968 0
vn -0.002512812 0.9999968 0
vn -0.002512812 0.9999968 0
vn -0.002512812 0.9999968 0
vn -0.002512812 0.9999968 0
vn -0.002512812 0.9999968 0
vn -0.002512812 0.9999968 0
vn -0.002512812 0.9999968 0
vn -0.002512812 0.9999968 0
vn -0.002512812 0.9999968 0
vn -0.002512812 0.9999968 0
vn -0.002512812 0.9999968 0
vn -0.002512812 0.9999968 0
vn -0.002512812 0.9999968 0
vn -0.002512812 0.9999968 0
vn -0.002512812 0.9999968 0
vn -0.002512812 0.9999968 0
vn -0.002512812 0.9999968 0
vn -0.002512812 0.9999968 0
vn -0.002512812 0.9999968 0
vn -0.002512812 0.9999968 0
vn -0.002512812 0.9999968 0
vn -0.002512812 0.9999968 0
vn -0.002512812 0.9999968 0
vn -0.002512812 0.9999968 0
vn -0.002512812 0.9999968 0
vn -0.002512812 0.9999968 0
vn -0.002512812 0.9999968 0
vn -0.002512812 0.9999968 0
vn -0.002512812 0.9999968 0
vn -0.002512812 0.9999968 0
vn -0.002512812 0.9999968 0
vn -0.002512812 0.9999968 0
vn -0.002512812 0.9999968 0
vn -0.002512812 0.9999968 0
vn -0.002512812 0.9999968 0
vn -0.002512812 0.9999968 0
vn -0.002512812 0.9999968 0
vn -0.002512812 0.9999968 0
vn -0.002512812 0.9999968 0
vn -0.002512812 0.9999968 0
vn -0.002512812 0.9999968 0
vn -0.002512812 0.9999968 0
vn -0.002512812 0.9999968 0
vn -0.002512812 0.9999968 0
vn -0.5983256 0.7522996 -0.275775
vn -0.2635993 0.7522996 -0.6037886
vn 0.1045996 0.9799134 0.1697899
vn -0.002512813 0.7054378 -0.7087674
vn -0.002512813 0.9263572 0.3766378
vn 0.2652681 0.7522996 -0.6030573
vn -0.1029307 0.9799134 0.1708069
vn 0.5999944 0.7522996 -0.2721252
vn -0.1698759 0.9799134 0.10446
vn 0.7071068 0.7054378 -0.04855361
vn -0.3830162 0.9237416 0
vn 0.5999944 0.7522996 0.2721252
vn -0.477824 0.8460229 0.236494
vn -0.1698759 0.9799134 -0.10446
vn 0.2652681 0.7522996 0.6030573
vn -0.3830162 0.9237416 0
vn -0.1029307 0.9799134 -0.1708069
vn -0.002512813 0.7054378 0.7087674
vn -0.002512813 0.9263572 -0.3766378
vn -0.2635993 0.7522996 0.6037886
vn -0.2502102 0.8460229 -0.4707867
vn -0.477824 0.8460229 -0.236494
vn 0.3844349 0.9231522 0
vn 0.3389079 0.872801 0.3512262
vn 0.3389079 0.872801 -0.3512262
vn -0.002512813 0.9263572 -0.3766378
vn -0.002512813 0.9263572 0.3766378
vn -0.2502102 0.8460229 0.4707867
vn -0.002512813 0.9263572 -0.3766378
vn -0.002512813 0.9263572 0.3766378
vn -0.3439335 0.872801 -0.3463065
vn 0.2518791 0.8460229 0.4698959
vn 0.1045996 0.9799134 -0.1697899
vn 0.2518791 0.8460229 -0.4698959
vn -0.3439335 0.872801 0.3463065
vn 0.4727984 0.8460229 0.2463877
vn -0.3830162 0.9237416 0
vn 0.1648503 0.9799134 0.1122235
vn 0.3844349 0.9231522 0
vn 0.4727984 0.8460229 -0.2463877
vn 0.1648503 0.9799134 -0.1122235
vn -0.5983256 0.7522996 0.275775
vn -0.7054378 0.7054378 -0.06866539
vn 0.3844349 0.9231522 0
g Fornello_0
f 3/3/3 2/2/2 1/1/1
f 4/4/4 3/3/3 1/1/1
f 7/7/7 6/6/6 5/5/5
f 8/8/8 7/7/7 5/5/5
f 11/11/11 10/10/10 9/9/9
f 12/12/12 11/11/11 9/9/9
f 15/15/15 14/14/14 13/13/13
f 16/16/16 15/15/15 13/13/13
f 19/19/19 18/18/18 17/17/17
f 18/18/18 20/20/20 17/17/17
f 22/22/22 20/20/20 21/21/21
f 23/23/23 22/22/22 21/21/21
f 25/25/25 22/22/22 24/24/24
f 22/22/22 26/26/26 24/24/24
f 28/28/28 26/26/26 27/27/27
f 29/29/29 28/28/28 27/27/27
f 31/31/31 22/22/22 30/30/30
f 22/22/22 32/32/32 30/30/30
f 34/34/34 32/32/32 33/33/33
f 35/35/35 34/34/34 33/33/33
f 37/37/37 22/22/22 36/36/36
f 22/22/22 38/38/38 36/36/36
f 40/40/40 38/38/38 39/39/39
f 41/41/41 40/40/40 39/39/39
f 44/44/44 43/43/43 42/42/42
f 45/45/45 44/44/44 42/42/42
f 47/47/47 44/44/44 46/46/46
f 44/44/44 48/48/48 46/46/46
f 50/50/50 48/48/48 49/49/49
f 51/51/51 50/50/50 49/49/49
f 50/50/50 53/53/53 52/52/52
f 54/54/54 50/50/50 52/52/52
f 56/56/56 48/48/48 55/55/55
f 57/57/57 56/56/56 55/55/55
f 56/56/56 59/59/59 58/58/58
f 60/60/60 56/56/56 58/58/58
f 62/62/62 48/48/48 61/61/61
f 63/63/63 62/62/62 61/61/61
f 62/62/62 65/65/65 64/64/64
f 66/66/66 62/62/62 64/64/64
f 69/69/69 68/68/68 67/67/67
f 70/70/70 68/68/68 69/69/69
f 71/71/71 70/70/70 69/69/69
f 72/72/72 70/70/70 71/71/71
f 73/73/73 72/72/72 71/71/71
f 74/74/74 72/72/72 73/73/73
f 75/75/75 74/74/74 73/73/73
f 76/76/76 74/74/74 75/75/75
f 77/77/77 76/76/76 75/75/75
f 78/78/78 76/76/76 77/77/77
f 79/79/79 75/75/75 73/73/73
f 75/75/75 79/79/79 77/77/77
f 80/80/80 78/78/78 77/77/77
f 81/81/81 78/78/78 80/80/80
f 79/79/79 82/82/82 77/77/77
f 77/77/77 82/82/82 80/80/80
f 83/83/83 81/81/81 80/80/80
f 84/84/84 81/81/81 83/83/83
f 85/85/85 84/84/84 83/83/83
f 86/86/86 84/84/84 85/85/85
f 83/83/83 80/80/80 87/87/87
f 83/83/83 87/87/87 85/85/85
f 82/82/82 88/88/88 80/80/80
f 80/80/80 88/88/88 87/87/87
f 88/88/88 82/82/82 89/89/89
f 90/90/90 88/88/88 89/89/89
f 90/90/90 87/87/87 88/88/88
f 89/89/89 82/82/82 91/91/91
f 82/82/82 79/79/79 91/91/91
f 92/92/92 87/87/87 90/90/90
f 87/87/87 92/92/92 85/85/85
f 93/93/93 92/92/92 90/90/90
f 91/91/91 79/79/79 94/94/94
f 91/91/91 94/94/94 95/95/95
f 94/94/94 79/79/79 73/73/73
f 94/94/94 96/96/96 95/95/95
f 96/96/96 94/94/94 73/73/73
f 71/71/71 96/96/96 73/73/73
f 95/95/95 96/96/96 97/97/97
f 98/98/98 96/96/96 71/71/71
f 96/96/96 98/98/98 97/97/97
f 69/69/69 98/98/98 71/71/71
f 85/85/85 92/92/92 99/99/99
f 99/99/99 86/86/86 85/85/85
f 100/100/100 92/92/92 93/93/93
f 92/92/92 100/100/100 99/99/99
f 101/101/101 100/100/100 93/93/93
f 102/102/102 97/97/97 98/98/98
f 97/97/97 102/102/102 103/103/103
f 69/69/69 104/104/104 98/98/98
f 104/104/104 102/102/102 98/98/98
f 104/104/104 69/69/69 67/67/67
f 102/102/102 105/105/105 103/103/103
f 103/103/103 105/105/105 101/101/101
f 105/105/105 102/102/102 104/104/104
f 100/100/100 101/101/101 106/106/106
f 100/100/100 106/106/106 99/99/99
f 105/105/105 106/106/106 101/101/101
f 99/99/99 107/107/107 86/86/86
f 106/106/106 107/107/107 99/99/99
f 107/107/107 108/108/108 86/86/86
f 109/109/109 108/108/108 107/107/107
f 67/67/67 109/109/109 110/110/110
f 104/104/104 67/67/67 110/110/110
f 110/110/110 105/105/105 104/104/104
f 106/106/106 105/105/105 110/110/110
f 107/107/107 106/106/106 110/110/110
f 110/110/110 109/109/109 107/107/107
