g Manico
v 0.07413802 0.9571964 6.8
v -0.07413801 0.9571964 6.8
v 0 1 6.731225
v 0.7918874 0.5428036 6.8
v 0.8660254 0.5 6.731225
v 0.8660254 0.4143928 6.8
v 0.8660254 -0.4143929 6.8
v 0.8660254 -0.5000001 6.731225
v 0.7918873 -0.5428036 6.8
v 0.07413793 -0.9571964 6.8
v -8.742278E-08 -1 6.731225
v -0.0741381 -0.9571964 6.8
v -0.7918874 -0.5428035 6.8
v -0.8660254 -0.4999999 6.731225
v -0.8660254 -0.4143927 6.8
v -0.8660254 0.4143927 6.8
v -0.8660254 0.4999999 6.731225
v -0.7918875 0.5428035 6.8
v 0 1 6.731225
v -0.07413801 0.9571964 6.8
v -0.7918875 0.5428035 6.8
v -0.8660254 0.4999999 6.731225
v 0 1 6.731174
v -0.8660254 0.4999999 6.731174
v -0.8660254 0.4999999 0
v 0 1 0
v -8.742278E-08 -1 6.731225
v 0.07413793 -0.9571964 6.8
v 0.7918873 -0.5428036 6.8
v 0.8660254 -0.5000001 6.731225
v -8.742278E-08 -1 6.731174
v 0.8660254 -0.5000001 6.731174
v 0.8660254 -0.5000001 0
v -8.742278E-08 -1 0
v -0.8660254 -0.4999999 6.731225
v -0.7918874 -0.5428035 6.8
v -0.0741381 -0.9571964 6.8
v -8.742278E-08 -1 6.731225
v -0.8660254 -0.4999999 6.731174
v -8.742278E-08 -1 6.731174
v -8.742278E-08 -1 0
v -0.8660254 -0.4999999 0
v -0.8660254 -0.4143927 6.8
v -0.8660254 -0.4999999 6.731225
v -0.8660254 -0.4999999 6.731174
v -0.8660254 0.4999999 6.731174
v -0.8660254 -0.4999999 0
v -0.8660254 0.4999999 0
v -0.8660254 0.4143927 6.8
v -0.8660254 0.4999999 6.731225
v 0.8660254 0.5 6.731225
v 0.7918874 0.5428036 6.8
v 0.07413802 0.9571964 6.8
v 0 1 6.731225
v 0.8660254 0.5 6.731174
v 0 1 6.731174
v 0 1 0
v 0.8660254 0.5 0
v 0.8660254 0.4143928 6.8
v 0.8660254 0.5 6.731225
v 0.8660254 0.5 6.731174
v 0.8660254 -0.4143929 6.8
v 0.8660254 -0.5000001 6.731225
v 0.8660254 -0.5000001 6.731174
v 0.8660254 0.5 0
v 0.8660254 -0.5000001 0
v 0.7918874 0.5428036 6.8
v 0.8660254 0.4143928 6.8
v 0.8660254 -0.4143929 6.8
v 0.7918873 -0.5428036 6.8
v 0.07413802 0.9571964 6.8
v 0.07413793 -0.9571964 6.8
v -0.07413801 0.9571964 6.8
v -0.0741381 -0.9571964 6.8
v -0.7918875 0.5428035 6.8
v -0.7918874 -0.5428035 6.8
v -0.8660254 -0.4143927 6.8
v -0.8660254 0.4143927 6.8
vt 0.545283 0.4517422
vt 0.5568468 0.431713
vt 0.5568468 0.4450657
vt 0.5540923 0.4297233
vt 0.5633197 0.4539167
vt 0.5633197 0.4297233
vt 0.5540923 0.4297233
vt 0.5633197 0.4539167
vt 0.5633197 0.4297233
vt 0.5540923 0.4297233
vt 0.5633197 0.4539167
vt 0.5633197 0.4297233
vt 0.5540923 0.4297233
vt 0.5633197 0.4539167
vt 0.5633197 0.4297233
vt 0.5540923 0.4297233
vt 0.5633197 0.4539167
vt 0.5633197 0.4297233
vt 0.5633197 0.4539167
vt 0.5540923 0.4297233
vt 0.4647604 0.4297233
vt 0.4555331 0.4539167
vt 0.5633197 0.4539343
vt 0.4555331 0.4539343
vt 0.4555331 0.4781454
vt 0.5633197 0.4781454
vt 0.5633197 0.4539167
vt 0.5540923 0.4297233
vt 0.4647604 0.4297233
vt 0.4555331 0.4539167
vt 0.5633197 0.4539343
vt 0.4555331 0.4539343
vt 0.4555331 0.4781454
vt 0.5633197 0.4781454
vt 0.5633197 0.4539167
vt 0.5540923 0.4297233
vt 0.4647604 0.4297233
vt 0.4555331 0.4539167
vt 0.5633197 0.4539343
vt 0.4555331 0.4539343
vt 0.4555331 0.4781454
vt 0.5633197 0.4781454
vt 0.4647604 0.4297233
vt 0.4555331 0.4539167
vt 0.4555331 0.4539343
vt 0.5633197 0.4539343
vt 0.4555331 0.4781454
vt 0.5633197 0.4781454
vt 0.5540923 0.4297233
vt 0.5633197 0.4539167
vt 0.5633197 0.4539167
vt 0.5540923 0.4297233
vt 0.4647604 0.4297233
vt 0.4555331 0.4539167
vt 0.5633197 0.4539343
vt 0.4555331 0.4539343
vt 0.4555331 0.4781454
vt 0.5633197 0.4781454
vt 0.4647604 0.4297233
vt 0.4555331 0.4539167
vt 0.4555331 0.4539343
vt 0.5540923 0.4297233
vt 0.5633197 0.4539167
vt 0.5633197 0.4539343
vt 0.4555331 0.4781454
vt 0.5633197 0.4781454
vt 0.2027356 0.3060217
vt 0.1796079 0.3060218
vt 0.06765516 0.2413859
vt 0.0560913 0.2213567
vt 0.3146883 0.2413859
vt 0.0560913 0.09208485
vt 0.3262522 0.2213567
vt 0.06765517 0.07205565
vt 0.3262522 0.09208485
vt 0.1796079 0.00741975
vt 0.2027356 0.007419754
vt 0.3146883 0.07205566
vn 0 0.8490015 0.5283905
vn 0 0.8490015 0.5283905
vn 0 0.8490015 0.5283905
vn 0.735256 0.4245017 0.5283908
vn 0.735256 0.4245017 0.5283908
vn 0.735256 0.4245017 0.5283908
vn 0.7352581 -0.4245 0.5283893
vn 0.7352581 -0.4245 0.5283893
vn 0.7352581 -0.4245 0.5283893
vn 0 -0.8490015 0.5283905
vn 0 -0.8490015 0.5283905
vn 0 -0.8490015 0.5283905
vn -0.735256 -0.4245017 0.5283908
vn -0.735256 -0.4245017 0.5283908
vn -0.735256 -0.4245017 0.5283908
vn -0.7352562 0.4245012 0.5283909
vn -0.7352562 0.4245012 0.5283909
vn -0.7352562 0.4245012 0.5283909
vn -0.5000007 0.866025 0
vn -0.5000007 0.866025 0
vn -0.5000007 0.866025 0
vn -0.5000007 0.866025 0
vn -0.5000007 0.866025 0
vn -0.5000007 0.866025 0
vn -0.5000001 0.8660254 0
vn -0.5000001 0.8660254 0
vn 0.5000007 -0.866025 0
vn 0.5000007 -0.866025 0
vn 0.5000007 -0.866025 0
vn 0.5000007 -0.866025 0
vn 0.5000007 -0.866025 0
vn 0.5000007 -0.866025 0
vn 0.4999999 -0.8660254 0
vn 0.4999999 -0.8660254 0
vn -0.5000004 -0.8660251 0
vn -0.5000004 -0.8660251 0
vn -0.5000004 -0.8660251 0
vn -0.5000004 -0.8660251 0
vn -0.5000004 -0.8660251 0
vn -0.5000004 -0.8660251 0
vn -0.5000001 -0.8660253 0
vn -0.5000001 -0.8660253 0
vn -1 0 0
vn -1 0 0
vn -1 0 0
vn -1 0 0
vn -1 0 0
vn -1 0 0
vn -1 0 0
vn -1 0 0
vn 0.5000033 0.8660235 0
vn 0.5000033 0.8660235 0
vn 0.5000033 0.8660235 0
vn 0.5000033 0.8660235 0
vn 0.5000033 0.8660235 0
vn 0.5000033 0.8660235 0
vn 0.5 0.8660254 0
vn 0.5 0.8660254 0
vn 1 0 0
vn 1 0 0
vn 1 0 0
vn 1 0 0
vn 1 0 0
vn 1 0 0
vn 1 0 0
vn 1 0 0
vn 0 0 1
vn 0 0 1
vn 0 0 1
vn 0 0 1
vn 0 0 1
vn 0 0 1
vn 0 0 1
vn 0 0 1
vn 0 0 1
vn 0 0 1
vn 0 0 1
vn 0 0 1
g Manico_0
f 3/3/3 2/2/2 1/1/1
f 6/6/6 5/5/5 4/4/4
f 9/9/9 8/8/8 7/7/7
f 12/12/12 11/11/11 10/10/10
f 15/15/15 14/14/14 13/13/13
f 18/18/18 17/17/17 16/16/16
f 21/21/21 20/20/20 19/19/19
f 22/22/22 21/21/21 19/19/19
f 22/22/22 19/19/19 23/23/23
f 23/23/23 24/24/24 22/22/22
f 24/24/24 23/23/23 25/25/25
f 23/23/23 26/26/26 25/25/25
f 29/29/29 28/28/28 27/27/27
f 30/30/30 29/29/29 27/27/27
f 30/30/30 27/27/27 31/31/31
f 31/31/31 32/32/32 30/30/30
f 32/32/32 31/31/31 33/33/33
f 31/31/31 34/34/34 33/33/33
f 37/37/37 36/36/36 35/35/35
f 38/38/38 37/37/37 35/35/35
f 38/38/38 35/35/35 39/39/39
f 39/39/39 40/40/40 38/38/38
f 40/40/40 39/39/39 41/41/41
f 39/39/39 42/42/42 41/41/41
f 45/45/45 44/44/44 43/43/43
f 43/43/43 46/46/46 45/45/45
f 45/45/45 46/46/46 47/47/47
f 46/46/46 48/48/48 47/47/47
f 43/43/43 49/49/49 46/46/46
f 49/49/49 50/50/50 46/46/46
f 53/53/53 52/52/52 51/51/51
f 54/54/54 53/53/53 51/51/51
f 54/54/54 51/51/51 55/55/55
f 55/55/55 56/56/56 54/54/54
f 56/56/56 55/55/55 57/57/57
f 55/55/55 58/58/58 57/57/57
f 61/61/61 60/60/60 59/59/59
f 61/61/61 59/59/59 62/62/62
f 61/61/61 62/62/62 63/63/63
f 63/63/63 64/64/64 61/61/61
f 61/61/61 64/64/64 65/65/65
f 64/64/64 66/66/66 65/65/65
f 69/69/69 68/68/68 67/67/67
f 67/67/67 70/70/70 69/69/69
f 67/67/67 71/71/71 70/70/70
f 71/71/71 72/72/72 70/70/70
f 71/71/71 73/73/73 72/72/72
f 73/73/73 74/74/74 72/72/72
f 73/73/73 75/75/75 74/74/74
f 75/75/75 76/76/76 74/74/74
f 75/75/75 77/77/77 76/76/76
f 75/75/75 78/78/78 77/77/77
