g Mouse_ClickDestro
v -0.3261675 0.3090107 0.4874372
v -0.3025169 0.2778384 0.5654783
v -0.3025169 0.2051864 0.5654783
v -0.3261675 0.2363586 0.4874372
v -0.3400485 0.3354759 0.3911922
v -0.3261675 0.3090107 0.4874372
v -0.3261675 0.2363586 0.4874372
v -0.3400485 0.2628238 0.3911922
v -0.3499525 0.3470322 0.2908741
v -0.3499525 0.2743802 0.2908741
v -0.3572533 0.3486845 0.1972324
v -0.3572533 0.2760229 0.1972324
v -0.3582908 0.3489151 0.1839661
v -0.3582908 0.276263 0.1839661
v -0.3092316 0.4167736 0.1861084
v -0.3582908 0.3489151 0.1839661
v -0.3582908 0.276263 0.1839661
v -0.3092316 0.3441119 0.1861084
v -0.2992603 0.4305682 0.1865406
v -0.2992603 0.3579161 0.1865406
v -0.2121125 0.4647376 0.1912669
v -0.2121125 0.3920856 0.1912669
v -0.1086724 0.4809049 0.1945811
v -0.1086724 0.4082529 0.1945811
v -0.01482891 0.4893872 0.1965023
v -0.01482891 0.4167352 0.1965023
v -0.004252429 0.4903479 0.1967233
v -0.004252429 0.4176862 0.1967233
v -0.266503 0.2502877 0.6114827
v -0.2343509 0.2197975 0.6293983
v -0.2343509 0.1471454 0.6293983
v -0.266503 0.1776356 0.6114827
v -0.004252429 0.2404413 0.633798
v -0.004252429 0.2253595 0.6129044
v -0.004252429 0.1677796 0.633798
v -0.004252429 0.2980115 0.6129044
v -0.004252429 0.2316996 0.6062185
v -0.004252429 0.3043517 0.6062185
v -0.004252429 0.2638709 0.572318
v -0.004252429 0.336523 0.572318
v -0.004252429 0.3112874 0.5072933
v -0.004252429 0.3839394 0.5072933
v -0.004252429 0.3594243 0.4200493
v -0.004252429 0.4320764 0.4200493
v -0.004252429 0.39466 0.3148033
v -0.004252429 0.4673121 0.3148033
v -0.004252429 0.4148332 0.2113824
v -0.004252429 0.4874852 0.2113824
v -0.004252429 0.4176862 0.1967233
v -0.004252429 0.4903479 0.1967233
v -0.2724397 0.2548218 0.6039034
v -0.266503 0.2502877 0.6114827
v -0.266503 0.1776356 0.6114827
v -0.2724397 0.1821698 0.6039034
v -0.3025169 0.2778384 0.5654783
v -0.3025169 0.2051864 0.5654783
v -0.2016609 0.2340339 0.6324243
v -0.1950133 0.2369254 0.6330487
v -0.1950133 0.1642733 0.6330487
v -0.2016609 0.1613819 0.6324243
v -0.2343509 0.2197975 0.6293983
v -0.2343509 0.1471454 0.6293983
v -0.0108135 0.2404413 0.633798
v -0.004252429 0.2404413 0.633798
v -0.004252429 0.1677796 0.633798
v -0.0108135 0.1677796 0.633798
v -0.06904658 0.2404413 0.633798
v -0.06904658 0.1677796 0.633798
v -0.1364632 0.2404413 0.633798
v -0.1364632 0.1677796 0.633798
v -0.1950133 0.2369254 0.6330487
v -0.1950133 0.1642733 0.6330487
v -0.3572533 0.3486845 0.1972324
v -0.3582908 0.3489151 0.1839661
v -0.3092316 0.4167736 0.1861084
v -0.3083191 0.416082 0.1995091
v -0.3499525 0.3470322 0.2908741
v -0.2992603 0.4305682 0.1865406
v -0.3018925 0.411202 0.2940442
v -0.3400485 0.3354759 0.3911922
v -0.298367 0.4297805 0.1999702
v -0.2121125 0.4647376 0.1912669
v -0.2923727 0.3936706 0.3945736
v -0.3261675 0.3090107 0.4874372
v -0.2114592 0.463239 0.2050519
v -0.1086724 0.4809049 0.1945811
v -0.2921133 0.4242377 0.2946974
v -0.2783187 0.358579 0.4896562
v -0.3025169 0.2778384 0.5654783
v -0.1083265 0.4787051 0.2087887
v -0.01482891 0.4893872 0.1965023
v -0.28268 0.4055055 0.3952652
v -0.2068771 0.4526145 0.3022959
v -0.256647 0.3190781 0.5662373
v -0.2724397 0.2548218 0.6039034
v -0.01479048 0.4866014 0.211123
v -0.004252429 0.4903479 0.1967233
v -0.004252429 0.4874852 0.2113824
v -0.2685876 0.3686559 0.4901077
v -0.199048 0.4269851 0.4037668
v -0.1059058 0.463191 0.3090491
v -0.01455033 0.466899 0.3142173
v -0.004252429 0.4673121 0.3148033
v -0.2319013 0.2904803 0.6044029
v -0.266503 0.2502877 0.6114827
v -0.2473194 0.3274643 0.5663909
v -0.1866559 0.3830941 0.4958138
v -0.1014677 0.4322493 0.4121818
v -0.01409883 0.4320956 0.419252
v -0.004252429 0.4320764 0.4200493
v -0.2270214 0.284851 0.6119342
v -0.2343509 0.2197975 0.6293983
v -0.2016609 0.2340339 0.6324243
v -0.2236592 0.297733 0.6045085
v -0.2190001 0.2918732 0.6120206
v -0.1950133 0.2369254 0.6330487
v -0.1700947 0.3364365 0.568341
v -0.09422456 0.3851402 0.501664
v -0.01336876 0.3840547 0.5067265
v -0.004252429 0.3839394 0.5072933
v -0.1544654 0.3043325 0.6051522
v -0.1513914 0.2980019 0.6124049
v -0.1364632 0.2404413 0.633798
v -0.08514665 0.3370225 0.5703679
v -0.01244656 0.336571 0.5721259
v -0.004252429 0.336523 0.572318
v -0.07747126 0.3044862 0.6056997
v -0.07595348 0.2980788 0.6126642
v -0.06904658 0.2404413 0.633798
v -0.01166845 0.3043709 0.6061704
v -0.004252429 0.3043517 0.6062185
v -0.01151475 0.2980211 0.6128852
v -0.0108135 0.2404413 0.633798
v -0.004252429 0.2980115 0.6129044
v -0.004252429 0.2404413 0.633798
vn -0.9578165 0.002403498 0.2873705
vn -0.9578165 0.002403498 0.2873705
vn -0.9578165 0.002403498 0.2873705
vn -0.9578165 0.002403498 0.2873705
vn -0.9891416 0.002403498 0.1469461
vn -0.9891416 0.002403498 0.1469461
vn -0.9891416 0.002403498 0.1469461
vn -0.9891416 0.002403498 0.1469461
vn -0.9969728 0.002403498 0.07771387
vn -0.9969728 0.002403498 0.07771387
vn -0.9969728 0.002403498 0.07771387
vn -0.9969728 0.002403498 0.07771387
vn -0.9969728 0.002403498 0.07771387
vn -0.9969728 0.002403498 0.07771387
vn 0.04458404 0.002403498 -0.9990028
vn 0.04458404 0.002403498 -0.9990028
vn 0.04458404 0.002403498 -0.9990028
vn 0.04458404 0.002403498 -0.9990028
vn 0.05241531 0.002403498 -0.9986225
vn 0.05241531 0.002403498 -0.9986225
vn 0.05241531 0.002403498 -0.9986225
vn 0.05241531 0.002403498 -0.9986225
vn 0.02892154 0.002403498 -0.9995788
vn 0.02892154 0.002403498 -0.9995788
vn 0.02109033 0.002403498 -0.9997747
vn 0.02109033 0.002403498 -0.9997747
vn 0.02109033 0.002403498 -0.9997747
vn 0.02109033 0.002403498 -0.9997747
vn -0.4879413 0.002403498 0.8728731
vn -0.4879413 0.002403498 0.8728731
vn -0.4879413 0.002403498 0.8728731
vn -0.4879413 0.002403498 0.8728731
vn 0.9999971 0.002403498 0
vn 0.9999971 0.002403498 0
vn 0.9999971 0.002403498 0
vn 0.9999971 0.002403498 0
vn 0.9999971 0.002403498 0
vn 0.9999971 0.002403498 0
vn 0.9999971 0.002403498 0
vn 0.9999971 0.002403498 0
vn 0.9999971 0.002403498 0
vn 0.9999971 0.002403498 0
vn 0.9999971 0.002403498 0
vn 0.9999971 0.002403498 0
vn 0.9999971 0.002403498 0
vn 0.9999971 0.002403498 0
vn 0.9999971 0.002403498 0
vn 0.9999971 0.002403498 0
vn 0.9999971 0.002403498 0
vn 0.9999971 0.002403498 0
vn -0.7855289 0.002403498 0.6188203
vn -0.7855289 0.002403498 0.6188203
vn -0.7855289 0.002403498 0.6188203
vn -0.7855289 0.002403498 0.6188203
vn -0.7855289 0.002403498 0.6188203
vn -0.7855289 0.002403498 0.6188203
vn -0.08854723 0.002403498 0.9960691
vn -0.08854723 0.002403498 0.9960691
vn -0.08854723 0.002403498 0.9960691
vn -0.08854723 0.002403498 0.9960691
vn -0.08854723 0.002403498 0.9960691
vn -0.08854723 0.002403498 0.9960691
vn -0.002403498 0.002403498 0.9999942
vn -0.002403498 0.002403498 0.9999942
vn -0.002403498 0.002403498 0.9999942
vn -0.002403498 0.002403498 0.9999942
vn -0.002403498 0.002403498 0.9999942
vn -0.002403498 0.002403498 0.9999942
vn -0.002403498 0.002403498 0.9999942
vn -0.002403498 0.002403498 0.9999942
vn -0.01023471 0.002403498 0.9999447
vn -0.01023471 0.002403498 0.9999447
vn -0.9499853 0.3078223 0.05266291
vn -0.7385414 0.2451724 -0.6280503
vn -0.5740851 0.4409537 -0.6899174
vn -0.808086 0.5890647 0
vn -0.942154 0.3234849 0.0877683
vn -0.4644475 0.6289039 -0.623513
vn -0.7933602 0.5975789 0.1160992
vn -0.9186603 0.3391474 0.2025889
vn -0.6054101 0.7933602 0.06370386
vn -0.1746911 0.7463727 -0.6421922
vn -0.7542039 0.6132413 0.2347585
vn -0.8873353 0.3391474 0.3124341
vn -0.2530036 0.9578165 0.1362967
vn -0.0728848 0.7620351 -0.6434208
vn -0.5819163 0.8011914 0.1395193
vn -0.6680601 0.6210725 0.4098349
vn -0.7855289 0.3078223 0.536833
vn -0.112041 0.9813102 0.1564513
vn -0.05722225 0.7620351 -0.6450024
vn -0.5270976 0.7933602 0.304545
vn -0.2216786 0.9578165 0.182883
vn -0.5505913 0.5819163 0.5985169
vn -0.6680601 0.2764974 0.6908292
vn -0.08071601 0.9813102 0.1746858
vn 0.5457844 0.6602288 -0.5159625
vn 0.6789157 0.7228789 0.1285279
vn -0.4487849 0.7698665 0.4537595
vn -0.1746911 0.9264915 0.3333114
vn -0.08071601 0.973479 0.2140643
vn -0.05722225 0.9656478 0.2534757
vn 0.6710844 0.7150476 0.1958384
vn -0.48011 0.5270976 0.7011865
vn -0.5505913 0.2295098 0.8026047
vn -0.3626412 0.7072164 0.6069072
vn -0.1198723 0.8638415 0.4892938
vn -0.05722225 0.9264915 0.3719397
vn -0.03372848 0.9186603 0.3936059
vn 0.6710844 0.6758914 0.3046581
vn -0.3626412 0.4096287 0.8370757
vn -0.2843286 0.08854723 0.9546291
vn -0.1590285 0.1355348 0.9779265
vn -0.2843286 0.6523976 0.7025202
vn -0.2138474 0.5270976 0.8224581
vn -0.08854723 0.1746911 0.9806337
vn -0.0728848 0.7933602 0.6043735
vn -0.03372848 0.8560102 0.5158575
vn -0.02589726 0.848179 0.5290763
vn 0.686747 0.6132413 0.3902739
vn -0.04939103 0.7463727 0.6636929
vn -0.02589726 0.5662538 0.823824
vn -0.01023471 0.1746911 0.9845701
vn -0.01806593 0.7776977 0.6283788
vn -0.01023471 0.7698665 0.6381229
vn 0.686747 0.5584226 0.4653416
vn -0.01023471 0.7385414 0.6741305
vn -0.002403498 0.5584226 0.8295532
vn -0.002403498 0.1746911 0.9846203
vn -0.002403498 0.7307101 0.6826836
vn 0.7024094 0.511435 0.4950305
vn -0.002403498 0.5505913 0.8347715
vn -0.002403498 0.1746911 0.9846203
vn 0.655422 0.4096287 0.6345285
vn 0.6710844 0.1277035 0.7302996
g Mouse_ClickDestro_0
f 3/3/3 2/2/2 1/1/1
f 4/4/4 3/3/3 1/1/1
f 7/7/7 6/6/6 5/5/5
f 8/8/8 7/7/7 5/5/5
f 8/8/8 5/5/5 9/9/9
f 10/10/10 8/8/8 9/9/9
f 10/10/10 9/9/9 11/11/11
f 12/12/12 10/10/10 11/11/11
f 12/12/12 11/11/11 13/13/13
f 14/14/14 12/12/12 13/13/13
f 17/17/17 16/16/16 15/15/15
f 18/18/18 17/17/17 15/15/15
f 18/18/18 15/15/15 19/19/19
f 20/20/20 18/18/18 19/19/19
f 20/20/20 19/19/19 21/21/21
f 22/22/22 20/20/20 21/21/21
f 22/22/22 21/21/21 23/23/23
f 24/24/24 22/22/22 23/23/23
f 24/24/24 23/23/23 25/25/25
f 26/26/26 24/24/24 25/25/25
f 26/26/26 25/25/25 27/27/27
f 28/28/28 26/26/26 27/27/27
f 31/31/31 30/30/30 29/29/29
f 32/32/32 31/31/31 29/29/29
f 35/35/35 34/34/34 33/33/33
f 34/34/34 36/36/36 33/33/33
f 34/34/34 37/37/37 36/36/36
f 37/37/37 38/38/38 36/36/36
f 37/37/37 39/39/39 38/38/38
f 39/39/39 40/40/40 38/38/38
f 39/39/39 41/41/41 40/40/40
f 41/41/41 42/42/42 40/40/40
f 41/41/41 43/43/43 42/42/42
f 43/43/43 44/44/44 42/42/42
f 43/43/43 45/45/45 44/44/44
f 45/45/45 46/46/46 44/44/44
f 45/45/45 47/47/47 46/46/46
f 47/47/47 48/48/48 46/46/46
f 47/47/47 49/49/49 48/48/48
f 49/49/49 50/50/50 48/48/48
f 53/53/53 52/52/52 51/51/51
f 54/54/54 53/53/53 51/51/51
f 54/54/54 51/51/51 55/55/55
f 56/56/56 54/54/54 55/55/55
f 59/59/59 58/58/58 57/57/57
f 60/60/60 59/59/59 57/57/57
f 60/60/60 57/57/57 61/61/61
f 62/62/62 60/60/60 61/61/61
f 65/65/65 64/64/64 63/63/63
f 66/66/66 65/65/65 63/63/63
f 66/66/66 63/63/63 67/67/67
f 68/68/68 66/66/66 67/67/67
f 68/68/68 67/67/67 69/69/69
f 70/70/70 68/68/68 69/69/69
f 70/70/70 69/69/69 71/71/71
f 72/72/72 70/70/70 71/71/71
f 75/75/75 74/74/74 73/73/73
f 76/76/76 75/75/75 73/73/73
f 76/76/76 73/73/73 77/77/77
f 78/78/78 75/75/75 76/76/76
f 79/79/79 76/76/76 77/77/77
f 79/79/79 77/77/77 80/80/80
f 81/81/81 78/78/78 76/76/76
f 81/81/81 76/76/76 79/79/79
f 82/82/82 78/78/78 81/81/81
f 83/83/83 79/79/79 80/80/80
f 80/80/80 84/84/84 83/83/83
f 85/85/85 82/82/82 81/81/81
f 86/86/86 82/82/82 85/85/85
f 87/87/87 81/81/81 79/79/79
f 87/87/87 79/79/79 83/83/83
f 85/85/85 81/81/81 87/87/87
f 84/84/84 88/88/88 83/83/83
f 84/84/84 89/89/89 88/88/88
f 90/90/90 86/86/86 85/85/85
f 91/91/91 86/86/86 90/90/90
f 92/92/92 87/87/87 83/83/83
f 83/83/83 88/88/88 92/92/92
f 93/93/93 85/85/85 87/87/87
f 90/90/90 85/85/85 93/93/93
f 93/93/93 87/87/87 92/92/92
f 89/89/89 94/94/94 88/88/88
f 89/89/89 95/95/95 94/94/94
f 96/96/96 91/91/91 90/90/90
f 97/97/97 91/91/91 96/96/96
f 98/98/98 97/97/97 96/96/96
f 88/88/88 99/99/99 92/92/92
f 88/88/88 94/94/94 99/99/99
f 100/100/100 93/93/93 92/92/92
f 92/92/92 99/99/99 100/100/100
f 101/101/101 90/90/90 93/93/93
f 96/96/96 90/90/90 101/101/101
f 101/101/101 93/93/93 100/100/100
f 98/98/98 96/96/96 102/102/102
f 102/102/102 96/96/96 101/101/101
f 103/103/103 98/98/98 102/102/102
f 95/95/95 104/104/104 94/94/94
f 95/95/95 105/105/105 104/104/104
f 94/94/94 106/106/106 99/99/99
f 94/94/94 104/104/104 106/106/106
f 99/99/99 107/107/107 100/100/100
f 99/99/99 106/106/106 107/107/107
f 108/108/108 101/101/101 100/100/100
f 102/102/102 101/101/101 108/108/108
f 100/100/100 107/107/107 108/108/108
f 103/103/103 102/102/102 109/109/109
f 109/109/109 102/102/102 108/108/108
f 110/110/110 103/103/103 109/109/109
f 105/105/105 111/111/111 104/104/104
f 105/105/105 112/112/112 111/111/111
f 112/112/112 113/113/113 111/111/111
f 104/104/104 114/114/114 106/106/106
f 104/104/104 111/111/111 114/114/114
f 111/111/111 113/113/113 115/115/115
f 111/111/111 115/115/115 114/114/114
f 113/113/113 116/116/116 115/115/115
f 106/106/106 117/117/117 107/107/107
f 106/106/106 114/114/114 117/117/117
f 107/107/107 118/118/118 108/108/108
f 108/108/108 118/118/118 109/109/109
f 107/107/107 117/117/117 118/118/118
f 109/109/109 119/119/119 110/110/110
f 118/118/118 119/119/119 109/109/109
f 119/119/119 120/120/120 110/110/110
f 114/114/114 115/115/115 121/121/121
f 114/114/114 121/121/121 117/117/117
f 115/115/115 116/116/116 122/122/122
f 115/115/115 122/122/122 121/121/121
f 116/116/116 123/123/123 122/122/122
f 117/117/117 124/124/124 118/118/118
f 118/118/118 124/124/124 119/119/119
f 117/117/117 121/121/121 124/124/124
f 119/119/119 125/125/125 120/120/120
f 124/124/124 125/125/125 119/119/119
f 125/125/125 126/126/126 120/120/120
f 121/121/121 127/127/127 124/124/124
f 121/121/121 122/122/122 127/127/127
f 124/124/124 127/127/127 125/125/125
f 122/122/122 123/123/123 128/128/128
f 122/122/122 128/128/128 127/127/127
f 123/123/123 129/129/129 128/128/128
f 125/125/125 130/130/130 126/126/126
f 127/127/127 130/130/130 125/125/125
f 127/127/127 128/128/128 130/130/130
f 130/130/130 131/131/131 126/126/126
f 128/128/128 129/129/129 132/132/132
f 128/128/128 132/132/132 130/130/130
f 130/130/130 132/132/132 131/131/131
f 129/129/129 133/133/133 132/132/132
f 132/132/132 134/134/134 131/131/131
f 132/132/132 133/133/133 134/134/134
f 133/133/133 135/135/135 134/134/134
