g Mouse_Ombra
v -0.2878658 0.009742498 -0.3016402
v -0.4204361 0.009742498 -0.2904454
v -0.3840681 0.009742498 -0.4129586
v -0.3088738 0.009742498 -0.1881072
v -0.2121229 0.009742498 -0.0994426
v -0.1976976 0.009742498 -0.1788425
v 0.3133023 0.009742498 -0.06683338
v 0.4204354 0.009742498 -0.2904454
v 0.4372174 0.009742498 -0.1310157
v 0.3088731 0.009742498 -0.1881072
v 0.2121222 0.009742498 -0.0994426
v 0.2151495 0.009742498 -0.01616204
v -0.3101945 0.009742498 0.06057632
v -0.4315496 0.009742498 0.2231755
v -0.4416472 0.009742498 0.04580563
v -0.3039164 0.009742498 0.1854057
v -0.2087097 0.009742498 0.1570631
v -0.2130169 0.009742498 0.07134449
v 0.3088731 0.009742498 -0.1881072
v 0.3840674 0.009742498 -0.4129586
v 0.4204354 0.009742498 -0.2904454
v 0.2878651 0.009742498 -0.3016402
v 0.197697 0.009742498 -0.1788425
v 0.2121222 0.009742498 -0.0994426
v -0.313303 0.009742498 -0.06683338
v -0.4416472 0.009742498 0.04580563
v -0.4372181 0.009742498 -0.1310157
v -0.3101945 0.009742498 0.06057632
v -0.2130169 0.009742498 0.07134449
v -0.2151502 0.009742498 -0.01616204
v 0.3039157 0.009742498 0.1854057
v 0.4416466 0.009742498 0.04580563
v 0.4315489 0.009742498 0.2231755
v 0.3101938 0.009742498 0.06057632
v 0.2130162 0.009742498 0.07134449
v 0.2087089 0.009742498 0.1570631
v -0.2465811 0.009742498 -0.3937384
v -0.3840681 0.009742498 -0.4129586
v -0.3241321 0.009742498 -0.4887421
v -0.2878658 0.009742498 -0.3016402
v -0.1976976 0.009742498 -0.1788425
v -0.1693348 0.009742498 -0.2526146
v 0.3101938 0.009742498 0.06057632
v 0.4372174 0.009742498 -0.1310157
v 0.4416466 0.009742498 0.04580563
v 0.3133023 0.009742498 -0.06683338
v 0.2151495 0.009742498 -0.01616204
v 0.2130162 0.009742498 0.07134449
v -0.1752877 0.009742498 -0.4093015
v -0.3241321 0.009742498 -0.4887421
v -0.2313634 0.009742498 -0.5575973
v -0.2465811 0.009742498 -0.3937384
v -0.1693348 0.009742498 -0.2526146
v -0.1203701 0.009742498 -0.2569625
v 0.2878651 0.009742498 -0.3016402
v 0.3241314 0.009742498 -0.4887421
v 0.3840674 0.009742498 -0.4129586
v 0.2465804 0.009742498 -0.3937384
v 0.1693341 0.009742498 -0.2526146
v 0.197697 0.009742498 -0.1788425
v -0.09080845 0.009742498 -0.4217763
v -0.2313634 0.009742498 -0.5575973
v -0.1202888 0.009742498 -0.5894752
v -0.1752877 0.009742498 -0.4093015
v -0.1203701 0.009742498 -0.2569625
v -0.06236422 0.009742498 -0.2599694
v 0.2465804 0.009742498 -0.3937384
v 0.2313627 0.009742498 -0.5575973
v 0.3241314 0.009742498 -0.4887421
v 0.175287 0.009742498 -0.4093015
v 0.1203694 0.009742498 -0.2569625
v 0.1693341 0.009742498 -0.2526146
v 9.834766E-06 0.009742498 -0.4233204
v -0.1202888 0.009742498 -0.5894752
v 9.834766E-06 0.009742498 -0.5986382
v -0.09080845 0.009742498 -0.4217763
v -0.06236422 0.009742498 -0.2599694
v 9.834766E-06 0.009742498 -0.2609853
v 0.175287 0.009742498 -0.4093015
v 0.1202881 0.009742498 -0.5894752
v 0.2313627 0.009742498 -0.5575973
v 0.09080774 0.009742498 -0.4217763
v 0.06236356 0.009742498 -0.2599694
v 0.1203694 0.009742498 -0.2569625
v -0.2891051 0.009742498 0.4026381
v -0.3717558 0.009742498 0.6313701
v -0.3931499 0.009742498 0.5131641
v -0.2784386 0.009742498 0.4968696
v -0.1912165 0.009742498 0.3709431
v -0.1985307 0.009742498 0.3062326
v 0.09080774 0.009742498 -0.4217763
v 9.834766E-06 0.009742498 -0.5986382
v 0.1202881 0.009742498 -0.5894752
v 9.834766E-06 0.009742498 -0.4233204
v 9.834766E-06 0.009742498 -0.2609853
v 0.06236356 0.009742498 -0.2599694
v -0.2784386 0.009742498 0.4968696
v -0.341991 0.009742498 0.700591
v -0.3717558 0.009742498 0.6313701
v -0.2591168 0.009742498 0.5713121
v -0.1779492 0.009742498 0.4220614
v -0.1912165 0.009742498 0.3709431
v 0.2784379 0.009742498 0.4968696
v 0.3931493 0.009742498 0.5131641
v 0.3717551 0.009742498 0.6313701
v 0.2891044 0.009742498 0.4026381
v 0.19853 0.009742498 0.3062326
v 0.1912158 0.009742498 0.3709431
v -0.2969679 0.009742498 0.2990606
v -0.3931499 0.009742498 0.5131641
v -0.4130812 0.009742498 0.3786637
v -0.2891051 0.009742498 0.4026381
v -0.1985307 0.009742498 0.3062326
v -0.2039351 0.009742498 0.2351018
v -0.2591168 0.009742498 0.5713121
v -0.2448134 0.009742498 0.7276943
v -0.341991 0.009742498 0.700591
v -0.1842883 0.009742498 0.5713934
v -0.1265669 0.009742498 0.4221427
v -0.1779492 0.009742498 0.4220614
v 0.2591161 0.009742498 0.5713121
v 0.3717551 0.009742498 0.6313701
v 0.3419903 0.009742498 0.700591
v 0.2784379 0.009742498 0.4968696
v 0.1912158 0.009742498 0.3709431
v 0.1779486 0.009742498 0.4220614
v -0.3039164 0.009742498 0.1854057
v -0.4130812 0.009742498 0.3786637
v -0.4315496 0.009742498 0.2231755
v -0.2969679 0.009742498 0.2990606
v -0.2039351 0.009742498 0.2351018
v -0.2087097 0.009742498 0.1570631
v -0.1842883 0.009742498 0.5713934
v -0.1275624 0.009742498 0.7313717
v -0.2448134 0.009742498 0.7276943
v -0.09546113 0.009742498 0.5713934
v -0.06555408 0.009742498 0.4221427
v -0.1265669 0.009742498 0.4221427
v 0.2891044 0.009742498 0.4026381
v 0.4130805 0.009742498 0.3786637
v 0.3931493 0.009742498 0.5131641
v 0.2969672 0.009742498 0.2990606
v 0.2039344 0.009742498 0.2351018
v 0.19853 0.009742498 0.3062326
v 0.1842876 0.009742498 0.5713934
v 0.3419903 0.009742498 0.700591
v 0.2448128 0.009742498 0.7276943
v 0.2591161 0.009742498 0.5713121
v 0.1779486 0.009742498 0.4220614
v 0.1265662 0.009742498 0.4221427
v -0.09546113 0.009742498 0.5713934
v 9.834766E-06 0.009742498 0.7328549
v -0.1275624 0.009742498 0.7313717
v 9.834766E-06 0.009742498 0.5713934
v 9.834766E-06 0.009742498 0.4221427
v -0.06555408 0.009742498 0.4221427
v 0.2969672 0.009742498 0.2990606
v 0.4315489 0.009742498 0.2231755
v 0.4130805 0.009742498 0.3786637
v 0.3039157 0.009742498 0.1854057
v 0.2087089 0.009742498 0.1570631
v 0.2039344 0.009742498 0.2351018
v 0.09546041 0.009742498 0.5713934
v 0.2448128 0.009742498 0.7276943
v 0.1275617 0.009742498 0.7313717
v 0.1842876 0.009742498 0.5713934
v 0.1265662 0.009742498 0.4221427
v 0.06555337 0.009742498 0.4221427
v -0.3088738 0.009742498 -0.1881072
v -0.4372181 0.009742498 -0.1310157
v -0.4204361 0.009742498 -0.2904454
v -0.313303 0.009742498 -0.06683338
v -0.2151502 0.009742498 -0.01616204
v -0.2121229 0.009742498 -0.0994426
v 9.834766E-06 0.009742498 0.5713934
v 0.1275617 0.009742498 0.7313717
v 9.834766E-06 0.009742498 0.7328549
v 0.09546041 0.009742498 0.5713934
v 0.06555337 0.009742498 0.4221427
v 9.834766E-06 0.009742498 0.4221427
vt 1 0
vt 0 1
vt 1 1
vt 0 0
vt 0 0
vt 1 0
vt 1 0
vt 0 1
vt 1 1
vt 0 0
vt 0 0
vt 1 0
vt 1 0
vt 0 1
vt 1 1
vt 0 0
vt 0 0
vt 1 0
vt 1 0
vt 0 1
vt 1 1
vt 0 0
vt 0 0
vt 1 0
vt 1 0
vt 0 1
vt 1 1
vt 0 0
vt 0 0
vt 1 0
vt 1 0
vt 0 1
vt 1 1
vt 0 0
vt 0 0
vt 1 0
vt 1 0
vt 0 1
vt 1 1
vt 0 0
vt 0 0
vt 1 0
vt 1 0
vt 0 1
vt 1 1
vt 0 0
vt 0 0
vt 1 0
vt 1 0
vt 0 1
vt 1 1
vt 0 0
vt 0 0
vt 1 0
vt 1 0
vt 0 1
vt 1 1
vt 0 0
vt 0 0
vt 1 0
vt 1 0
vt 0 1
vt 1 1
vt 0 0
vt 0 0
vt 1 0
vt 1 0
vt 0 1
vt 1 1
vt 0 0
vt 0 0
vt 1 0
vt 1 0
vt 0 1
vt 1 1
vt 0 0
vt 0 0
vt 1 0
vt 1 0
vt 0 1
vt 1 1
vt 0 0
vt 0 0
vt 1 0
vt 1 0
vt 0 1
vt 1 1
vt 0 0
vt 0 0
vt 1 0
vt 1 0
vt 0 1
vt 1 1
vt 0 0
vt 0 0
vt 1 0
vt 1 0
vt 0 1
vt 1 1
vt 0 0
vt 0 0
vt 1 0
vt 1 0
vt 0 1
vt 1 1
vt 0 0
vt 0 0
vt 1 0
vt 1 0
vt 0 1
vt 1 1
vt 0 0
vt 0 0
vt 1 0
vt 1 0
vt 0 1
vt 1 1
vt 0 0
vt 0 0
vt 1 0
vt 1 0
vt 0 1
vt 1 1
vt 0 0
vt 0 0
vt 1 0
vt 1 0
vt 0 1
vt 1 1
vt 0 0
vt 0 0
vt 1 0
vt 1 0
vt 0 1
vt 1 1
vt 0 0
vt 0 0
vt 1 0
vt 1 0
vt 0 1
vt 1 1
vt 0 0
vt 0 0
vt 1 0
vt 1 0
vt 0 1
vt 1 1
vt 0 0
vt 0 0
vt 1 0
vt 1 0
vt 0 1
vt 1 1
vt 0 0
vt 0 0
vt 1 0
vt 1 0
vt 0 1
vt 1 1
vt 0 0
vt 0 0
vt 1 0
vt 1 0
vt 0 1
vt 1 1
vt 0 0
vt 0 0
vt 1 0
vt 1 0
vt 0 1
vt 1 1
vt 0 0
vt 0 0
vt 1 0
vt 1 0
vt 0 1
vt 1 1
vt 0 0
vt 0 0
vt 1 0
vn 0 1 0
vn 0 1 0
vn 0 1 0
vn 0 1 0
vn 0 1 0
vn 0 1 0
vn 0 1 0
vn 0 1 0
vn 0 1 0
vn 0 1 0
vn 0 1 0
vn 0 1 0
vn 0 1 0
vn 0 1 0
vn 0 1 0
vn 0 1 0
vn 0 1 0
vn 0 1 0
vn 0 1 0
vn 0 1 0
vn 0 1 0
vn 0 1 0
vn 0 1 0
vn 0 1 0
vn 0 1 0
vn 0 1 0
vn 0 1 0
vn 0 1 0
vn 0 1 0
vn 0 1 0
vn 0 1 0
vn 0 1 0
vn 0 1 0
vn 0 1 0
vn 0 1 0
vn 0 1 0
vn 0 1 0
vn 0 1 0
vn 0 1 0
vn 0 1 0
vn 0 1 0
vn 0 1 0
vn 0 1 0
vn 0 1 0
vn 0 1 0
vn 0 1 0
vn 0 1 0
vn 0 1 0
vn 0 1 0
vn 0 1 0
vn 0 1 0
vn 0 1 0
vn 0 1 0
vn 0 1 0
vn 0 1 0
vn 0 1 0
vn 0 1 0
vn 0 1 0
vn 0 1 0
vn 0 1 0
vn 0 1 0
vn 0 1 0
vn 0 1 0
vn 0 1 0
vn 0 1 0
vn 0 1 0
vn 0 1 0
vn 0 1 0
vn 0 1 0
vn 0 1 0
vn 0 1 0
vn 0 1 0
vn 0 1 0
vn 0 1 0
vn 0 1 0
vn 0 1 0
vn 0 1 0
vn 0 1 0
vn 0 1 0
vn 0 1 0
vn 0 1 0
vn 0 1 0
vn 0 1 0
vn 0 1 0
vn 0 1 0
vn 0 1 0
vn 0 1 0
vn 0 1 0
vn 0 1 0
vn 0 1 0
vn 0 1 0
vn 0 1 0
vn 0 1 0
vn 0 1 0
vn 0 1 0
vn 0 1 0
vn 0 1 0
vn 0 1 0
vn 0 1 0
vn 0 1 0
vn 0 1 0
vn 0 1 0
vn 0 1 0
vn 0 1 0
vn 0 1 0
vn 0 1 0
vn 0 1 0
vn 0 1 0
vn 0 1 0
vn 0 1 0
vn 0 1 0
vn 0 1 0
vn 0 1 0
vn 0 1 0
vn 0 1 0
vn 0 1 0
vn 0 1 0
vn 0 1 0
vn 0 1 0
vn 0 1 0
vn 0 1 0
vn 0 1 0
vn 0 1 0
vn 0 1 0
vn 0 1 0
vn 0 1 0
vn 0 1 0
vn 0 1 0
vn 0 1 0
vn 0 1 0
vn 0 1 0
vn 0 1 0
vn 0 1 0
vn 0 1 0
vn 0 1 0
vn 0 1 0
vn 0 1 0
vn 0 1 0
vn 0 1 0
vn 0 1 0
vn 0 1 0
vn 0 1 0
vn 0 1 0
vn 0 1 0
vn 0 1 0
vn 0 1 0
vn 0 1 0
vn 0 1 0
vn 0 1 0
vn 0 1 0
vn 0 1 0
vn 0 1 0
vn 0 1 0
vn 0 1 0
vn 0 1 0
vn 0 1 0
vn 0 1 0
vn 0 1 0
vn 0 1 0
vn 0 1 0
vn 0 1 0
vn 0 1 0
vn 0 1 0
vn 0 1 0
vn 0 1 0
vn 0 1 0
vn 0 1 0
vn 0 1 0
vn 0 1 0
vn 0 1 0
vn 0 1 0
vn 0 1 0
vn 0 1 0
vn 0 1 0
vn 0 1 0
vn 0 1 0
vn 0 1 0
vn 0 1 0
vn 0 1 0
vn 0 1 0
g Mouse_Ombra_0
f 3/3/3 2/2/2 1/1/1
f 2/2/2 4/4/4 1/1/1
f 4/4/4 5/5/5 1/1/1
f 5/5/5 6/6/6 1/1/1
f 9/9/9 8/8/8 7/7/7
f 8/8/8 10/10/10 7/7/7
f 10/10/10 11/11/11 7/7/7
f 11/11/11 12/12/12 7/7/7
f 15/15/15 14/14/14 13/13/13
f 14/14/14 16/16/16 13/13/13
f 16/16/16 17/17/17 13/13/13
f 17/17/17 18/18/18 13/13/13
f 21/21/21 20/20/20 19/19/19
f 20/20/20 22/22/22 19/19/19
f 22/22/22 23/23/23 19/19/19
f 23/23/23 24/24/24 19/19/19
f 27/27/27 26/26/26 25/25/25
f 26/26/26 28/28/28 25/25/25
f 28/28/28 29/29/29 25/25/25
f 29/29/29 30/30/30 25/25/25
f 33/33/33 32/32/32 31/31/31
f 32/32/32 34/34/34 31/31/31
f 34/34/34 35/35/35 31/31/31
f 35/35/35 36/36/36 31/31/31
f 39/39/39 38/38/38 37/37/37
f 38/38/38 40/40/40 37/37/37
f 40/40/40 41/41/41 37/37/37
f 41/41/41 42/42/42 37/37/37
f 45/45/45 44/44/44 43/43/43
f 44/44/44 46/46/46 43/43/43
f 46/46/46 47/47/47 43/43/43
f 47/47/47 48/48/48 43/43/43
f 51/51/51 50/50/50 49/49/49
f 50/50/50 52/52/52 49/49/49
f 52/52/52 53/53/53 49/49/49
f 53/53/53 54/54/54 49/49/49
f 57/57/57 56/56/56 55/55/55
f 56/56/56 58/58/58 55/55/55
f 58/58/58 59/59/59 55/55/55
f 59/59/59 60/60/60 55/55/55
f 63/63/63 62/62/62 61/61/61
f 62/62/62 64/64/64 61/61/61
f 64/64/64 65/65/65 61/61/61
f 65/65/65 66/66/66 61/61/61
f 69/69/69 68/68/68 67/67/67
f 68/68/68 70/70/70 67/67/67
f 70/70/70 71/71/71 67/67/67
f 71/71/71 72/72/72 67/67/67
f 75/75/75 74/74/74 73/73/73
f 74/74/74 76/76/76 73/73/73
f 76/76/76 77/77/77 73/73/73
f 77/77/77 78/78/78 73/73/73
f 81/81/81 80/80/80 79/79/79
f 80/80/80 82/82/82 79/79/79
f 82/82/82 83/83/83 79/79/79
f 83/83/83 84/84/84 79/79/79
f 87/87/87 86/86/86 85/85/85
f 86/86/86 88/88/88 85/85/85
f 88/88/88 89/89/89 85/85/85
f 89/89/89 90/90/90 85/85/85
f 93/93/93 92/92/92 91/91/91
f 92/92/92 94/94/94 91/91/91
f 94/94/94 95/95/95 91/91/91
f 95/95/95 96/96/96 91/91/91
f 99/99/99 98/98/98 97/97/97
f 98/98/98 100/100/100 97/97/97
f 100/100/100 101/101/101 97/97/97
f 101/101/101 102/102/102 97/97/97
f 105/105/105 104/104/104 103/103/103
f 104/104/104 106/106/106 103/103/103
f 106/106/106 107/107/107 103/103/103
f 107/107/107 108/108/108 103/103/103
f 111/111/111 110/110/110 109/109/109
f 110/110/110 112/112/112 109/109/109
f 112/112/112 113/113/113 109/109/109
f 113/113/113 114/114/114 109/109/109
f 117/117/117 116/116/116 115/115/115
f 116/116/116 118/118/118 115/115/115
f 118/118/118 119/119/119 115/115/115
f 119/119/119 120/120/120 115/115/115
f 123/123/123 122/122/122 121/121/121
f 122/122/122 124/124/124 121/121/121
f 124/124/124 125/125/125 121/121/121
f 125/125/125 126/126/126 121/121/121
f 129/129/129 128/128/128 127/127/127
f 128/128/128 130/130/130 127/127/127
f 130/130/130 131/131/131 127/127/127
f 131/131/131 132/132/132 127/127/127
f 135/135/135 134/134/134 133/133/133
f 134/134/134 136/136/136 133/133/133
f 136/136/136 137/137/137 133/133/133
f 137/137/137 138/138/138 133/133/133
f 141/141/141 140/140/140 139/139/139
f 140/140/140 142/142/142 139/139/139
f 142/142/142 143/143/143 139/139/139
f 143/143/143 144/144/144 139/139/139
f 147/147/147 146/146/146 145/145/145
f 146/146/146 148/148/148 145/145/145
f 148/148/148 149/149/149 145/145/145
f 149/149/149 150/150/150 145/145/145
f 153/153/153 152/152/152 151/151/151
f 152/152/152 154/154/154 151/151/151
f 154/154/154 155/155/155 151/151/151
f 155/155/155 156/156/156 151/151/151
f 159/159/159 158/158/158 157/157/157
f 158/158/158 160/160/160 157/157/157
f 160/160/160 161/161/161 157/157/157
f 161/161/161 162/162/162 157/157/157
f 165/165/165 164/164/164 163/163/163
f 164/164/164 166/166/166 163/163/163
f 166/166/166 167/167/167 163/163/163
f 167/167/167 168/168/168 163/163/163
f 171/171/171 170/170/170 169/169/169
f 170/170/170 172/172/172 169/169/169
f 172/172/172 173/173/173 169/169/169
f 173/173/173 174/174/174 169/169/169
f 177/177/177 176/176/176 175/175/175
f 176/176/176 178/178/178 175/175/175
f 178/178/178 179/179/179 175/175/175
f 179/179/179 180/180/180 175/175/175
