g OmbraTangram_6
v -1.393831 0.9177865 8.34465E-06
v -1.399422 -1.158065 8.34465E-06
v -1.136441 0.5942694 -7.212162E-05
v 0.7884514 0.8729373 8.34465E-06
v 0.4927288 0.5583901 -7.212162E-05
v 0.80619 -1.236621 8.34465E-06
v -1.077755 -0.8342659 -7.212162E-05
v 0.5341991 -0.8891307 -7.212162E-05
vt 1.393629 0.9179178
vt 1.399422 -1.158087
vt 1.13614 0.5941254
vt -0.7885903 0.8728572
vt -0.492478 0.558077
vt -0.8059708 -1.236621
vt 1.077561 -0.8342946
vt -0.5343199 -0.8890109
vn 0.0001855696 4.002896E-05 -0.9999999
vn 0.0001922441 -3.072087E-05 -0.9999999
vn 0.000206928 2.267523E-05 -0.9999999
vn 0.0001321735 0.0001334722 -1
vn 0.0001054754 9.342509E-05 -1
vn 0.0001241641 -0.0001335084 -1
vn -9.209018E-05 -9.346129E-05 -1
vn 0.0001201593 -8.278208E-05 -1
g OmbraTangram_6_0
f 3/3/3 2/2/2 1/1/1
f 1/1/1 4/4/4 3/3/3
f 5/5/5 3/3/3 4/4/4
f 4/4/4 6/6/6 5/5/5
f 2/2/2 3/3/3 7/7/7
f 3/3/3 5/5/5 7/7/7
f 8/8/8 6/6/6 2/2/2
f 8/8/8 2/2/2 7/7/7
f 8/8/8 7/7/7 5/5/5
f 8/8/8 5/5/5 6/6/6
