g OmbraForno
v -5.09411 4.482269E-05 4.590928
v -5.79129 4.482269E-05 4.431687
v -5.324685 4.482269E-05 4.034194
v -5.324685 4.482269E-05 -5.040671
v -5.540507 4.482269E-05 5.037122
v -4.537376 4.482269E-05 4.821502
v -5.79129 4.482269E-05 -5.438165
v -5.09411 4.482269E-05 -5.597404
v -4.934869 4.482269E-05 5.287905
v 4.537488 4.482269E-05 4.821502
v -6.370051 4.482269E-05 4.924967
v -6.09421 4.482269E-05 5.590826
v -6.370051 4.482269E-05 -5.931445
v -5.42815 4.482269E-05 5.866666
v -5.540507 4.482269E-05 -6.043802
v -4.537376 4.482269E-05 -5.82798
v -6.09421 4.482269E-05 -6.597505
v 4.934982 4.482269E-05 5.287905
v 5.094222 4.482269E-05 4.590928
v 5.428263 4.482269E-05 5.866666
v -4.934869 4.482269E-05 -6.294585
v 4.537488 4.482269E-05 -5.82798
v -5.42815 4.482269E-05 -6.873346
v 5.540418 4.482269E-05 5.037122
v 5.324797 4.482269E-05 4.034194
v 6.094121 4.482269E-05 5.590826
v 4.934982 4.482269E-05 -6.294585
v 5.094222 4.482269E-05 -5.597404
v 5.428263 4.482269E-05 -6.873346
v 5.791201 4.482269E-05 4.431687
v 6.369961 4.482269E-05 4.924967
v 5.324797 4.482269E-05 -5.040671
v 5.540418 4.482269E-05 -6.043802
v 6.094121 4.482269E-05 -6.597505
v 5.791201 4.482269E-05 -5.438165
v 6.369961 4.482269E-05 -5.931445
vt 0 0
vt 0 0
vt 0 0
vt 0 0
vt 0 0
vt 0 0
vt 0 0
vt 0 0
vt 0 0
vt 0 0
vt 0 0
vt 0 0
vt 0 0
vt 0 0
vt 0 0
vt 0 0
vt 0 0
vt 0 0
vt 0 0
vt 0 0
vt 0 0
vt 0 0
vt 0 0
vt 0 0
vt 0 0
vt 0 0
vt 0 0
vt 0 0
vt 0 0
vt 0 0
vt 0 0
vt 0 0
vt 0 0
vt 0 0
vt 0 0
vt 0 0
vn 0 1 0
vn 0 1 0
vn 0 1 0
vn 0 1 0
vn 0 1 0
vn 0 1 0
vn 0 1 0
vn 0 1 0
vn 0 1 0
vn 0 1 0
vn 0 1 0
vn 0 1 0
vn 0 1 0
vn 0 1 0
vn 0 1 0
vn 0 1 0
vn 0 1 0
vn 0 1 0
vn 0 1 0
vn 0 1 0
vn 0 1 0
vn 0 1 0
vn 0 1 0
vn 0 1 0
vn 0 1 0
vn 0 1 0
vn 0 1 0
vn 0 1 0
vn 0 1 0
vn 0 1 0
vn 0 1 0
vn 0 1 0
vn 0 1 0
vn 0 1 0
vn 0 1 0
vn 0 1 0
g OmbraForno_0
f 3/3/3 2/2/2 1/1/1
f 2/2/2 3/3/3 4/4/4
f 2/2/2 5/5/5 1/1/1
f 1/1/1 5/5/5 6/6/6
f 7/7/7 2/2/2 4/4/4
f 7/7/7 4/4/4 8/8/8
f 5/5/5 9/9/9 6/6/6
f 6/6/6 9/9/9 10/10/10
f 2/2/2 11/11/11 5/5/5
f 11/11/11 2/2/2 7/7/7
f 11/11/11 12/12/12 5/5/5
f 5/5/5 12/12/12 9/9/9
f 13/13/13 11/11/11 7/7/7
f 12/12/12 14/14/14 9/9/9
f 15/15/15 7/7/7 8/8/8
f 13/13/13 7/7/7 15/15/15
f 15/15/15 8/8/8 16/16/16
f 17/17/17 13/13/13 15/15/15
f 9/9/9 18/18/18 10/10/10
f 9/9/9 14/14/14 18/18/18
f 10/10/10 18/18/18 19/19/19
f 14/14/14 20/20/20 18/18/18
f 21/21/21 15/15/15 16/16/16
f 17/17/17 15/15/15 21/21/21
f 21/21/21 16/16/16 22/22/22
f 23/23/23 17/17/17 21/21/21
f 18/18/18 24/24/24 19/19/19
f 18/18/18 20/20/20 24/24/24
f 19/19/19 24/24/24 25/25/25
f 20/20/20 26/26/26 24/24/24
f 27/27/27 21/21/21 22/22/22
f 23/23/23 21/21/21 27/27/27
f 27/27/27 22/22/22 28/28/28
f 29/29/29 23/23/23 27/27/27
f 24/24/24 30/30/30 25/25/25
f 24/24/24 26/26/26 30/30/30
f 26/26/26 31/31/31 30/30/30
f 25/25/25 30/30/30 32/32/32
f 33/33/33 27/27/27 28/28/28
f 29/29/29 27/27/27 33/33/33
f 33/33/33 28/28/28 32/32/32
f 34/34/34 29/29/29 33/33/33
f 30/30/30 31/31/31 35/35/35
f 30/30/30 35/35/35 32/32/32
f 35/35/35 33/33/33 32/32/32
f 34/34/34 33/33/33 35/35/35
f 31/31/31 36/36/36 35/35/35
f 36/36/36 34/34/34 35/35/35
