g OmbraScatolaFiammiferi
v -4.065395 0.0159893 2.479338
v -4.292861 0.0159893 2.638233
v -4.280993 0.0159893 -2.674693
v -4.059462 0.0159893 -2.4976
v -3.837931 0.0159893 2.320442
v -4.041792 0.0159893 -2.85772
v -3.837931 0.0159893 -2.320374
v -3.894896 0.0159893 -2.589113
v 4.123876 0.0159893 -2.85772
v -3.748132 0.0159893 -2.320374
v 3.931751 0.0159893 -2.589113
v 4.348836 0.0159893 -2.603882
v 3.739757 0.0159893 -2.320374
v 4.093416 0.0159893 -2.462128
v 3.837863 0.0159893 -2.320374
v 4.301629 0.0159893 2.638233
v 4.069812 0.0159893 2.479338
v 3.837863 0.0159893 2.320442
v 3.758086 0.0159893 2.444921
v 3.94731 0.0159893 2.652739
v 3.217444 0.0159893 2.495952
v 4.136535 0.0159893 2.860556
v 3.406669 0.0159893 2.70377
v 3.596025 0.0159893 2.911587
vt 0.7998047 0.625
vt 0.7998047 0.625
vt 0.7998047 0.625
vt 0.7998047 0.625
vt 0.7998047 0.625
vt 0.7998047 0.625
vt 0.7998047 0.625
vt 0.7998047 0.625
vt 0.7998047 0.625
vt 0.7998047 0.625
vt 0.7998047 0.625
vt 0.7998047 0.625
vt 0.7998047 0.625
vt 0.7998047 0.625
vt 0.7998047 0.625
vt 0.7998047 0.625
vt 0.7998047 0.625
vt 0.7998047 0.625
vt 0.7998047 0.625
vt 0.7998047 0.625
vt 0.7998047 0.625
vt 0.7998047 0.625
vt 0.7998047 0.625
vt 0.7998047 0.625
vn 0 1 0
vn 0 1 0
vn 0 1 0
vn 0 1 0
vn 0 1 0
vn 0 1 0
vn 0 1 0
vn 0 1 0
vn 0 1 0
vn 0 1 0
vn 0 1 0
vn 0 1 0
vn 0 1 0
vn 0 1 0
vn 0 1 0
vn 0 1 0
vn 0 1 0
vn 0 1 0
vn 0 1 0
vn 0 1 0
vn 0 1 0
vn 0 1 0
vn 0 1 0
vn 0 1 0
g OmbraScatolaFiammiferi_0
f 3/3/3 2/2/2 1/1/1
f 4/4/4 3/3/3 1/1/1
f 4/4/4 1/1/1 5/5/5
f 6/6/6 3/3/3 4/4/4
f 7/7/7 4/4/4 5/5/5
f 8/8/8 6/6/6 4/4/4
f 8/8/8 4/4/4 7/7/7
f 9/9/9 6/6/6 8/8/8
f 10/10/10 8/8/8 7/7/7
f 11/11/11 9/9/9 8/8/8
f 11/11/11 8/8/8 10/10/10
f 12/12/12 9/9/9 11/11/11
f 13/13/13 11/11/11 10/10/10
f 14/14/14 12/12/12 11/11/11
f 14/14/14 11/11/11 13/13/13
f 15/15/15 14/14/14 13/13/13
f 16/16/16 12/12/12 14/14/14
f 17/17/17 14/14/14 15/15/15
f 17/17/17 16/16/16 14/14/14
f 18/18/18 17/17/17 15/15/15
f 18/18/18 19/19/19 17/17/17
f 17/17/17 20/20/20 16/16/16
f 19/19/19 20/20/20 17/17/17
f 19/19/19 21/21/21 20/20/20
f 20/20/20 22/22/22 16/16/16
f 21/21/21 23/23/23 20/20/20
f 20/20/20 23/23/23 22/22/22
f 23/23/23 24/24/24 22/22/22
