g OmbraTastiera
v -2.782732 -7.390976E-06 -0.8301063
v -2.782732 -7.390976E-06 0.875308
v -3.02465 -7.390976E-06 1.196126
v -3.02465 -7.390976E-06 -1.149185
v 2.782381 -7.390976E-06 -0.8301063
v -2.782732 -7.390976E-06 -0.8301063
v -3.02465 -7.390976E-06 -1.149185
v 2.973865 -7.390976E-06 -1.149185
v -2.782732 -7.390976E-06 0.875308
v 2.782381 -7.390976E-06 0.875308
v 2.973865 -7.390976E-06 1.196126
v -3.02465 -7.390976E-06 1.196126
v 2.782381 -7.390976E-06 0.875308
v 2.782381 -7.390976E-06 -0.8301063
v 2.973865 -7.390976E-06 -1.149185
v 2.973865 -7.390976E-06 1.196126
vt -1.09985 0.9970098
vt 2.1 0.9970098
vt 2.1 0.003139973
vt -1.09985 0.003139973
vt -6.293076 0.9923992
vt 6.628036E-05 0.9923992
vt 6.628036E-05 0.00262785
vt -6.293076 0.00262785
vt -1.09985 0.9995713
vt 2.1 0.9995713
vt 2.1 0.00211525
vt -1.09985 0.00211525
vt -1.09985 0.995985
vt 2.1 0.995985
vt 2.1 0.001091003
vt -1.09985 0.001091003
vn -0.01338791 0.9999104 0
vn -0.001357267 0.9999992 0
vn -0.001357267 0.9999992 0
vn 0.02270056 0.9997423 0
vn -0.02140543 0.9997709 0
vn -0.01338791 0.9999104 0
vn 0.02270056 0.9997423 0
vn -0.001357267 0.9999992 0
vn -0.001357267 0.9999992 0
vn -0.001357267 0.9999992 0
vn -0.001357267 0.9999992 0
vn -0.001357267 0.9999992 0
vn -0.001357267 0.9999992 0
vn -0.02140543 0.9997709 0
vn -0.001357267 0.9999992 0
vn -0.001357267 0.9999992 0
g OmbraTastiera_0
f 3/3/3 2/2/2 1/1/1
f 4/4/4 3/3/3 1/1/1
f 7/7/7 6/6/6 5/5/5
f 8/8/8 7/7/7 5/5/5
f 11/11/11 10/10/10 9/9/9
f 12/12/12 11/11/11 9/9/9
f 15/15/15 14/14/14 13/13/13
f 16/16/16 15/15/15 13/13/13
