g Ombra
v 2.665721 -2.074242E-05 -0.8516884
v -2.741713 -2.074242E-05 -0.9335778
v -2.387237 -2.074242E-05 -1.075255
v 2.71748 -2.074242E-05 1.002391
v 2.562391 -2.074242E-05 0.9959686
v 2.879559 -2.074242E-05 0.8544805
v 2.930373 -2.074242E-05 0.7905369
v 2.879559 -2.074242E-05 0.8544805
v 2.95937 -2.074242E-05 0.5213506
v 2.959653 -2.074242E-05 0.71082
v 2.930373 -2.074242E-05 0.7905369
v 2.95937 -2.074242E-05 0.5213506
v 2.665721 -2.074242E-05 -0.8516884
v -2.387237 -2.074242E-05 -1.075255
v 2.764234 -2.074242E-05 -1.07261
v 2.879559 -2.074242E-05 0.8544805
v 2.562391 -2.074242E-05 0.9959686
v 2.95937 -2.074242E-05 0.5213506
v 2.665721 -2.074242E-05 1.322392
v -2.874606 -2.074242E-05 1.327304
v -2.52013 -2.074242E-05 1.09892
v 2.71748 -2.074242E-05 3.176567
v 2.562391 -2.074242E-05 3.170144
v 2.879559 -2.074242E-05 3.028656
v 2.930373 -2.074242E-05 2.964618
v 2.879559 -2.074242E-05 3.028656
v 2.95937 -2.074242E-05 2.695431
v 2.959653 -2.074242E-05 2.884995
v 2.930373 -2.074242E-05 2.964618
v 2.95937 -2.074242E-05 2.695431
v 2.665721 -2.074242E-05 1.322392
v -2.52013 -2.074242E-05 1.09892
v 2.764234 -2.074242E-05 1.101565
v 2.879559 -2.074242E-05 3.028656
v 2.562391 -2.074242E-05 3.170144
v 2.95937 -2.074242E-05 2.695431
v 2.562391 -2.074242E-05 0.9959686
v 2.95937 -2.074242E-05 -0.1541653
v 2.95937 -2.074242E-05 0.5213506
v 2.665721 -2.074242E-05 -0.8516884
v 2.95937 -2.074242E-05 -0.8766236
v 2.764234 -2.074242E-05 -1.07261
v 2.892687 -2.074242E-05 -1.03993
v 2.855662 -2.074242E-05 -1.059859
v 2.920645 -2.074242E-05 -1.007439
v 2.94473 -2.074242E-05 -0.9615353
v -2.387237 -2.074242E-05 -1.075255
v -2.573778 -2.074242E-05 -1.053531
v -2.521735 -2.074242E-05 -1.065999
v -2.625349 -2.074242E-05 -1.031335
v -2.741713 -2.074242E-05 -0.9335778
v 2.562391 -2.074242E-05 3.170144
v 2.95937 -2.074242E-05 2.02001
v 2.95937 -2.074242E-05 2.695431
v 2.665721 -2.074242E-05 1.322392
v 2.95937 -2.074242E-05 1.297552
v 2.764234 -2.074242E-05 1.101565
v 2.892687 -2.074242E-05 1.134245
v 2.855662 -2.074242E-05 1.114222
v 2.920645 -2.074242E-05 1.166737
v 2.94473 -2.074242E-05 1.212545
v -2.52013 -2.074242E-05 1.09892
v -2.748135 -2.074242E-05 1.117339
v -2.696093 -2.074242E-05 1.102415
v -2.78176 -2.074242E-05 1.143124
v -2.874606 -2.074242E-05 1.327304
v -2.830402 0.01934171 0.6894739
v -2.709127 0.01934171 0.651221
v -2.707994 0.01934171 0.731977
v -2.923342 0.01934171 0.7632403
v -2.781193 0.01934171 0.7554953
v -2.844287 0.01934171 0.796865
v -2.969151 0.01934171 0.8517413
v -2.89444 0.01934171 0.883477
v -2.992481 0.01934171 0.9820843
v -2.91248 0.01934171 0.9790618
v -2.868655 0.01934171 1.266855
v -2.948466 0.01934171 1.261943
v -2.944972 0.01934171 1.43035
v -2.868088 0.01934171 1.452357
v -2.978219 0.01934171 1.630209
v -2.911442 0.01934171 1.674318
v -3.180817 0.01934171 2.168582
v -3.104595 0.01934171 2.192856
v -3.228987 0.01934171 2.445324
v -3.150215 0.01934171 2.45902
v -3.230215 0.01934171 2.643011
v -3.150309 0.01934171 2.647167
vt 0.6632539 0.3048515
vt 0.6632539 0.6842922
vt 0.6632539 0.5603165
vt 0.6632539 0.4220648
vt 0.6632539 0.4288271
vt 0.6632539 0.3882533
vt 0.6632539 0.3829937
vt 0.6632539 0.3882533
vt 0.6632539 0.3717232
vt 0.6632539 0.3762314
vt 0.6632539 0.3829937
vt 0.6632539 0.3717232
vt 0.6632539 0.3048515
vt 0.6632539 0.5603165
vt 0.6632539 0.2387311
vt 0.6632539 0.3882533
vt 0.6632539 0.4288271
vt 0.6632539 0.3717232
vt 0.6632539 0.3048515
vt 0.6632539 0.6842922
vt 0.6632539 0.5603165
vt 0.6632539 0.4220648
vt 0.6632539 0.4288271
vt 0.6632539 0.3882533
vt 0.6632539 0.3829937
vt 0.6632539 0.3882533
vt 0.6632539 0.3717232
vt 0.6632539 0.3762314
vt 0.6632539 0.3829937
vt 0.6632539 0.3717232
vt 0.6632539 0.3048515
vt 0.6632539 0.5603165
vt 0.6632539 0.2387311
vt 0.6632539 0.3882533
vt 0.6632539 0.4288271
vt 0.6632539 0.3717232
vt 0.6632539 0.4288271
vt 0.6632539 0.3236357
vt 0.6632539 0.3717232
vt 0.6632539 0.3048515
vt 0.6632539 0.2432393
vt 0.6632539 0.2387311
vt 0.6632539 0.2297147
vt 0.6632539 0.2327202
vt 0.6632539 0.2312174
vt 0.6632539 0.2357256
vt 0.6632539 0.5603165
vt 0.6632539 0.5896199
vt 0.6632539 0.5723384
vt 0.6632539 0.6069013
vt 0.6632539 0.6842922
vt 0.6632539 0.4288271
vt 0.6632539 0.3236357
vt 0.6632539 0.3717232
vt 0.6632539 0.3048515
vt 0.6632539 0.2432393
vt 0.6632539 0.2387311
vt 0.6632539 0.2297147
vt 0.6632539 0.2327202
vt 0.6632539 0.2312174
vt 0.6632539 0.2357256
vt 0.6632539 0.5603165
vt 0.6632539 0.5896199
vt 0.6632539 0.5723384
vt 0.6632539 0.6069013
vt 0.6632539 0.6842922
vt 0.6782812 0.7120928
vt 0.6782812 0.8022569
vt 0.6782812 0.8045111
vt 0.6782812 0.6407129
vt 0.6782812 0.7105901
vt 0.6782812 0.6339505
vt 0.6782812 0.5828575
vt 0.6782812 0.571587
vt 0.6782812 0.53477
vt 0.6782812 0.5197426
vt 0.6782812 0.432584
vt 0.6782812 0.4513682
vt 0.6782812 0.4085402
vt 0.6782812 0.3905074
vt 0.6782812 0.3597013
vt 0.6782812 0.344674
vt 0.6782812 0.2312174
vt 0.6782812 0.2229524
vt 0.6782812 0.1440587
vt 0.6782812 0.1395505
vt 0.6782812 0.03736453
vt 0.6782812 0.03586179
vn 0 1 0
vn 0 1 0
vn 0 1 0
vn 0 1 0
vn 0 1 0
vn 0 1 0
vn 0 1 0
vn 0 1 0
vn 0 1 0
vn 0 1 0
vn 0 1 0
vn 0 1 0
vn 0 1 0
vn 0 1 0
vn 0 1 0
vn 0 1 0
vn 0 1 0
vn 0 1 0
vn 0 1 0
vn 0 1 0
vn 0 1 0
vn 0 1 0
vn 0 1 0
vn 0 1 0
vn 0 1 0
vn 0 1 0
vn 0 1 0
vn 0 1 0
vn 0 1 0
vn 0 1 0
vn 0 1 0
vn 0 1 0
vn 0 1 0
vn 0 1 0
vn 0 1 0
vn 0 1 0
vn 0 1 0
vn 0 1 0
vn 0 1 0
vn 0 1 0
vn 0 1 0
vn 0 1 0
vn 0 1 0
vn 0 1 0
vn 0 1 0
vn 0 1 0
vn 0 1 0
vn 0 1 0
vn 0 1 0
vn 0 1 0
vn 0 1 0
vn 0 1 0
vn 0 1 0
vn 0 1 0
vn 0 1 0
vn 0 1 0
vn 0 1 0
vn 0 1 0
vn 0 1 0
vn 0 1 0
vn 0 1 0
vn 0 1 0
vn 0 1 0
vn 0 1 0
vn 0 1 0
vn 0 1 0
vn 0 1 0
vn 0 1 0
vn 0 1 0
vn 0 1 0
vn 0 1 0
vn 0 1 0
vn 0 1 0
vn 0 1 0
vn 0 1 0
vn 0 1 0
vn 0 1 0
vn 0 1 0
vn 0 1 0
vn 0 1 0
vn 0 1 0
vn 0 1 0
vn 0 1 0
vn 0 1 0
vn 0 1 0
vn 0 1 0
vn 0 1 0
vn 0 1 0
g Ombra_0
f 3/3/3 2/2/2 1/1/1
f 6/6/6 5/5/5 4/4/4
f 9/9/9 8/8/8 7/7/7
f 12/12/12 11/11/11 10/10/10
f 15/15/15 14/14/14 13/13/13
f 18/18/18 17/17/17 16/16/16
f 21/21/21 20/20/20 19/19/19
f 24/24/24 23/23/23 22/22/22
f 27/27/27 26/26/26 25/25/25
f 30/30/30 29/29/29 28/28/28
f 33/33/33 32/32/32 31/31/31
f 36/36/36 35/35/35 34/34/34
f 39/39/39 38/38/38 37/37/37
f 37/37/37 38/38/38 40/40/40
f 38/38/38 41/41/41 40/40/40
f 40/40/40 41/41/41 42/42/42
f 41/41/41 43/43/43 42/42/42
f 42/42/42 43/43/43 44/44/44
f 45/45/45 43/43/43 41/41/41
f 46/46/46 45/45/45 41/41/41
f 49/49/49 48/48/48 47/47/47
f 47/47/47 48/48/48 50/50/50
f 51/51/51 47/47/47 50/50/50
f 54/54/54 53/53/53 52/52/52
f 52/52/52 53/53/53 55/55/55
f 53/53/53 56/56/56 55/55/55
f 55/55/55 56/56/56 57/57/57
f 56/56/56 58/58/58 57/57/57
f 57/57/57 58/58/58 59/59/59
f 60/60/60 58/58/58 56/56/56
f 61/61/61 60/60/60 56/56/56
f 64/64/64 63/63/63 62/62/62
f 62/62/62 63/63/63 65/65/65
f 66/66/66 62/62/62 65/65/65
f 69/69/69 68/68/68 67/67/67
f 67/67/67 70/70/70 69/69/69
f 70/70/70 71/71/71 69/69/69
f 70/70/70 72/72/72 71/71/71
f 70/70/70 73/73/73 72/72/72
f 73/73/73 74/74/74 72/72/72
f 73/73/73 75/75/75 74/74/74
f 75/75/75 76/76/76 74/74/74
f 75/75/75 77/77/77 76/76/76
f 75/75/75 78/78/78 77/77/77
f 78/78/78 79/79/79 77/77/77
f 79/79/79 80/80/80 77/77/77
f 79/79/79 81/81/81 80/80/80
f 81/81/81 82/82/82 80/80/80
f 81/81/81 83/83/83 82/82/82
f 83/83/83 84/84/84 82/82/82
f 83/83/83 85/85/85 84/84/84
f 85/85/85 86/86/86 84/84/84
f 85/85/85 87/87/87 86/86/86
f 87/87/87 88/88/88 86/86/86
