g OmbraPannocchia
v -1.455427 -2.79576 -9.346008E-05
v -0.1112707 -2.966581 -9.346008E-05
v -0.06526232 -0.5814524 -9.346008E-05
v -0.7157519 -0.438472 -9.346008E-05
v 0.6133044 -0.5160966 -9.346008E-05
v -2.098603 -2.430759 -9.346008E-05
v 1.291163 -2.871025 -9.346008E-05
v -1.026958 -0.1890824 -9.346008E-05
v 1.037998 -0.2343831 -9.346008E-05
v -2.648581 -1.941417 -9.346008E-05
v 2.168628 -2.497058 -9.346008E-05
v -1.2931 0.1454823 -9.346008E-05
v 1.264502 0.05959964 -9.346008E-05
v -3.116925 -0.843111 -9.346008E-05
v 2.636735 -2.066937 -9.346008E-05
v -1.519603 0.8960111 -9.346008E-05
v 1.524981 0.8648665 -9.346008E-05
v -2.183778 10.95843 -9.346008E-05
v 3.175153 -0.8888836 -9.346008E-05
v -1.068248 8.962602 -9.346008E-05
v 1.021011 9.0046 -9.346008E-05
v -1.588262 11.84226 -9.346008E-05
v 2.133709 11.01977 -9.346008E-05
v -0.779928 9.566611 -9.346008E-05
v 0.6843226 9.608137 -9.346008E-05
v -0.8306553 12.25398 -9.346008E-05
v 1.437919 11.90314 -9.346008E-05
v -0.4132755 9.848089 -9.346008E-05
v 0.2032387 9.870739 -9.346008E-05
v 0.4436626 12.28725 -9.346008E-05
vt 1.455168 -2.795742
vt 0.1111856 -2.966572
vt 0.06493878 -0.5815694
vt 0.7152224 -0.4381106
vt -0.6136589 -0.5164466
vt 2.098845 -2.430489
vt -1.291313 -2.871247
vt 1.026679 -0.1889453
vt -1.038372 -0.2342482
vt 2.648141 -1.941596
vt -2.169054 -2.497499
vt 1.292833 0.1451626
vt -1.264886 0.0592761
vt 3.117213 -0.8430042
vt -2.637183 -2.067123
vt 1.519346 0.8964336
vt -1.525377 0.865288
vt 2.183787 10.95837
vt -3.175153 -0.8892508
vt 1.068207 8.962214
vt -1.021384 9.004686
vt 1.588245 11.84177
vt -2.134133 11.01972
vt 0.7803452 9.566252
vt -0.6844444 9.60778
vt 0.8303668 12.25422
vt -1.437603 11.90312
vt 0.413204 9.847507
vt -0.2031026 9.871101
vt -0.4437735 12.28725
vn 2.117267E-05 5.506248E-05 -1
vn -4.033209E-07 6.081608E-05 -1
vn -4.033209E-07 6.081608E-05 -1
vn 2.261106E-05 5.506248E-05 -1
vn -1.622571E-05 5.650088E-05 -1
vn 3.699505E-05 4.787049E-05 -1
vn -1.622571E-05 5.650088E-05 -1
vn 3.987185E-05 4.643209E-05 -1
vn -3.63633E-05 4.643209E-05 -1
vn 5.137904E-05 3.63633E-05 -1
vn -3.49249E-05 4.787049E-05 -1
vn 5.857104E-05 3.20481E-05 -1
vn -5.650088E-05 3.20481E-05 -1
vn 7.727023E-05 1.622571E-05 -1
vn -5.074729E-05 3.63633E-05 -1
vn 9.453102E-05 4.033209E-07 -1
vn -9.246086E-05 4.033209E-07 -1
vn 7.439343E-05 -3.124146E-05 -1
vn -7.376166E-05 1.766411E-05 -1
vn 9.596942E-05 -1.541907E-05 -1
vn -9.246086E-05 -1.829587E-05 -1
vn 4.418705E-05 -4.850225E-05 -1
vn -7.088487E-05 -3.411826E-05 -1
vn 5.425584E-05 -4.418705E-05 -1
vn -4.643209E-05 -4.706385E-05 -1
vn 1.685747E-05 -5.713264E-05 -1
vn -3.78017E-05 -5.137904E-05 -1
vn 1.829587E-05 -5.713264E-05 -1
vn 5.137904E-05 0.0002708223 -0.9999999
vn -1.047211E-05 -5.857104E-05 -1
g OmbraPannocchia_0
f 3/3/3 2/2/2 1/1/1
f 4/4/4 3/3/3 1/1/1
f 3/3/3 5/5/5 2/2/2
f 4/4/4 1/1/1 6/6/6
f 5/5/5 7/7/7 2/2/2
f 8/8/8 4/4/4 6/6/6
f 5/5/5 9/9/9 7/7/7
f 8/8/8 6/6/6 10/10/10
f 9/9/9 11/11/11 7/7/7
f 12/12/12 8/8/8 10/10/10
f 9/9/9 13/13/13 11/11/11
f 12/12/12 10/10/10 14/14/14
f 13/13/13 15/15/15 11/11/11
f 16/16/16 12/12/12 14/14/14
f 13/13/13 17/17/17 15/15/15
f 16/16/16 14/14/14 18/18/18
f 17/17/17 19/19/19 15/15/15
f 20/20/20 16/16/16 18/18/18
f 17/17/17 21/21/21 19/19/19
f 20/20/20 18/18/18 22/22/22
f 21/21/21 23/23/23 19/19/19
f 24/24/24 20/20/20 22/22/22
f 21/21/21 25/25/25 23/23/23
f 24/24/24 22/22/22 26/26/26
f 25/25/25 27/27/27 23/23/23
f 28/28/28 24/24/24 26/26/26
f 25/25/25 29/29/29 27/27/27
f 28/28/28 26/26/26 30/30/30
f 29/29/29 30/30/30 27/27/27
f 29/29/29 28/28/28 30/30/30
