g OmbraTritaverdure
v -1.002187 0.033409 -0.05385673
v -1.02523 0.033409 0.1209128
v -1.300024 0.033409 0.102917
v -1.269936 0.033409 -0.1256022
v -0.9416773 0.033409 -0.1999662
v -1.002187 0.033409 -0.05385673
v -1.269936 0.033409 -0.1256022
v -1.181718 0.033409 -0.3385535
v -0.8454137 0.033409 -0.3254136
v -0.9416773 0.033409 -0.1999662
v -1.181718 0.033409 -0.3385535
v -1.041416 0.033409 -0.5214164
v -0.7199662 0.033409 -0.4216774
v -0.8454137 0.033409 -0.3254136
v -1.041416 0.033409 -0.5214164
v -0.8585536 0.033409 -0.6617177
v -0.5738568 0.033409 -0.4821873
v -0.7199662 0.033409 -0.4216774
v -0.8585536 0.033409 -0.6617177
v -0.6456022 0.033409 -0.7499356
v -0.3990873 0.033409 -0.5052297
v -0.5738568 0.033409 -0.4821873
v -0.6456022 0.033409 -0.7499356
v -0.4170831 0.033409 -0.7799763
v 1.025206 0.033409 0.1209128
v 1.002211 0.033409 -0.05385673
v 1.269912 0.033409 -0.1256022
v 1.3 0.033409 0.102917
v 1.002211 0.033409 -0.05385673
v 0.9417012 0.033409 -0.1999662
v 1.181694 0.033409 -0.3385535
v 1.269912 0.033409 -0.1256022
v 0.9417012 0.033409 -0.1999662
v 0.8454375 0.033409 -0.3254136
v 1.041393 0.033409 -0.5214164
v 1.181694 0.033409 -0.3385535
v 0.8454375 0.033409 -0.3254136
v 0.71999 0.033409 -0.4216774
v 0.8585298 0.033409 -0.6617177
v 1.041393 0.033409 -0.5214164
v 0.71999 0.033409 -0.4216774
v 0.5738806 0.033409 -0.4821873
v 0.6456261 0.033409 -0.7499356
v 0.8585298 0.033409 -0.6617177
v 0.5738806 0.033409 -0.4821873
v 0.3990635 0.033409 -0.5052297
v 0.4171069 0.033409 -0.7799763
v 0.6456261 0.033409 -0.7499356
v 0.3990635 0.033409 -0.5052297
v -0.3990873 0.033409 -0.5052297
v -0.4170831 0.033409 -0.7799763
v 0.4171069 0.033409 -0.7799763
v 1.025206 0.033409 0.5163461
v 1.025206 0.033409 0.1209128
v 1.3 0.033409 0.102917
v 1.3 0.033409 0.5163461
v -1.02523 0.033409 0.1209128
v -1.02523 0.033409 0.5163461
v -1.300024 0.033409 0.5163461
v -1.300024 0.033409 0.102917
v -1.02523 0.033409 0.5163461
v -1.02523 0.033409 1.49955
v -1.299976 0.033409 1.613381
v -1.300024 0.033409 0.5163461
v 1.025206 0.033409 1.49955
v 1.025206 0.033409 0.5163461
v 1.3 0.033409 0.5163461
v 1.3 0.033409 1.613381
v 0.9795497 0.033409 1.545206
v 1.025206 0.033409 1.49955
v 1.3 0.033409 1.613381
v 1.093381 0.033409 1.82
v -0.9795735 0.033409 1.545206
v 0.9795497 0.033409 1.545206
v 1.093381 0.033409 1.82
v -1.093357 0.033409 1.82
v -1.02523 0.033409 1.49955
v -0.9795735 0.033409 1.545206
v -1.093357 0.033409 1.82
v -1.299976 0.033409 1.613381
v -0.8922601 0.033409 -0.02443492
v -0.9416773 0.033409 -0.1999662
v -0.8431284 0.033409 -0.1430744
v -1.002187 0.033409 -0.05385673
v -0.9123983 0.033409 0.1282921
v -1.02523 0.033409 0.1209128
v -0.9123983 0.033409 0.5163461
v -1.02523 0.033409 0.5163461
v -0.9123983 0.033409 1.452846
v -1.02523 0.033409 1.49955
v -0.721442 0.033409 1.432375
v -0.9795735 0.033409 1.545206
v 0.7214659 0.033409 1.432375
v 0.9795497 0.033409 1.545206
v 0.9123746 0.033409 1.452846
v 1.025206 0.033409 1.49955
v 0.9123746 0.033409 0.5163461
v 1.025206 0.033409 0.5163461
v 0.9123746 0.033409 0.1282921
v 1.025206 0.033409 0.1209128
v 0.8922839 0.033409 -0.02443492
v 1.002211 0.033409 -0.05385673
v 0.8431523 0.033409 -0.1430744
v 0.9417012 0.033409 -0.1999662
v 0.7649322 0.033409 -0.2449559
v 0.8454375 0.033409 -0.3254136
v 0.6630507 0.033409 -0.3231285
v 0.71999 0.033409 -0.4216774
v 0.5444112 0.033409 -0.3722601
v 0.5738806 0.033409 -0.4821873
v 0.3916842 0.033409 -0.3923983
v 0.3990635 0.033409 -0.5052297
v -0.391708 0.033409 -0.3923983
v -0.3990873 0.033409 -0.5052297
v -0.5444349 0.033409 -0.3722601
v -0.5738568 0.033409 -0.4821873
v -0.6630745 0.033409 -0.3231285
v -0.7199662 0.033409 -0.4216774
v -0.764956 0.033409 -0.2449559
v -0.8454137 0.033409 -0.3254136
v -0.6630745 0.033409 -0.3231285
v -0.8431284 0.033409 -0.1430744
v -0.8454137 0.033409 -0.3254136
v -0.764956 0.033409 -0.2449559
vt 0 0.6617791
vt 1 0.6617791
vt 1 0.02737048
vt 0 0.02737048
vt 0 0.6617791
vt 1 0.6617791
vt 1 0.02737048
vt 0 0.02737048
vt 0 0.6617791
vt 1 0.6617791
vt 1 0.02737048
vt 0 0.02737048
vt 0 0.6617791
vt 1 0.6617791
vt 1 0.02737048
vt 0 0.02737048
vt 0 0.6617791
vt 1 0.6617791
vt 1 0.02737048
vt 0 0.02737048
vt 0 0.6617791
vt 1 0.6617791
vt 1 0.02737048
vt 0 0.02737048
vt 0 0.6617791
vt 1 0.6617791
vt 1 0.02737048
vt 0 0.02737048
vt 0 0.6617791
vt 1 0.6617791
vt 1 0.02737048
vt 0 0.02737048
vt 0 0.6617791
vt 1 0.6617791
vt 1 0.02737048
vt 0 0.02737048
vt 0 0.6617791
vt 1 0.6617791
vt 1 0.02737048
vt 0 0.02737048
vt 0 0.6617791
vt 1 0.6617791
vt 1 0.02737048
vt 0 0.02737048
vt 0 0.6617791
vt 1 0.6617791
vt 1 0.02737048
vt 0 0.02737048
vt 0 0.6617791
vt 1 0.6617791
vt 1 0.02737048
vt 0 0.02737048
vt 0 0.6617791
vt 1 0.6617791
vt 1 0.02737048
vt 0 0.02737048
vt 0 0.6617791
vt 1 0.6617791
vt 1 0.02737048
vt 0 0.02737048
vt 0 0.6617791
vt 1 0.6617791
vt 1 0.02737048
vt 0 0.02737048
vt 0 0.6617791
vt 1 0.6617791
vt 1 0.02737048
vt 0 0.02737048
vt 0 0.6617791
vt 1 0.6617791
vt 1 0.02737048
vt 0 0.02737048
vt 0 0.6617791
vt 1 0.6617791
vt 1 0.02737048
vt 0 0.02737048
vt 0 0.6617791
vt 1 0.6617791
vt 1 0.02737048
vt 0 0.02737048
vt 0.4995112 0.6598241
vt 0.5004888 0.6598241
vt 0.4995112 0.6598241
vt 0.5004888 0.6598241
vt 0.4995112 0.6598241
vt 0.5004888 0.6598241
vt 0.5004888 0.6598241
vt 0.5004888 0.6598241
vt 0.4995112 0.6598241
vt 0.5004888 0.6598241
vt 0.5004888 0.6598241
vt 0.5004888 0.6598241
vt 0.5004888 0.6598241
vt 0.5004888 0.6598241
vt 0.5004888 0.6598241
vt 0.5004888 0.6598241
vt 0.5004888 0.6598241
vt 0.5004888 0.6598241
vt 0.4995112 0.6598241
vt 0.5004888 0.6598241
vt 0.5004888 0.6598241
vt 0.5004888 0.6598241
vt 0.5004888 0.6598241
vt 0.5004888 0.6598241
vt 0.5004888 0.6598241
vt 0.5004888 0.6598241
vt 0.5004888 0.6598241
vt 0.5004888 0.6598241
vt 0.5004888 0.6598241
vt 0.5004888 0.6598241
vt 0.4995112 0.6598241
vt 0.5004888 0.6598241
vt 0.5004888 0.6598241
vt 0.5004888 0.6598241
vt 0.5004888 0.6598241
vt 0.5004888 0.6598241
vt 0.4995112 0.6598241
vt 0.5004888 0.6598241
vt 0.4995112 0.6598241
vt 0.5004888 0.6598241
vt 0.4995112 0.6598241
vt 0.4995112 0.6598241
vt 0.5004888 0.6598241
vt 0.4995112 0.6598241
vn 0 1 0
vn 0 1 0
vn 0 1 0
vn 0 1 0
vn 0 1 0
vn 0 1 0
vn 0 1 0
vn 0 1 0
vn 0 1 0
vn 0 1 0
vn 0 1 0
vn 0 1 0
vn 0 1 0
vn 0 1 0
vn 0 1 0
vn 0 1 0
vn 0 1 0
vn 0 1 0
vn 0 1 0
vn 0 1 0
vn 0 1 0
vn 0 1 0
vn 0 1 0
vn 0 1 0
vn 0 1 0
vn 0 1 0
vn 0 1 0
vn 0 1 0
vn 0 1 0
vn 0 1 0
vn 0 1 0
vn 0 1 0
vn 0 1 0
vn 0 1 0
vn 0 1 0
vn 0 1 0
vn 0 1 0
vn 0 1 0
vn 0 1 0
vn 0 1 0
vn 0 1 0
vn 0 1 0
vn 0 1 0
vn 0 1 0
vn 0 1 0
vn 0 1 0
vn 0 1 0
vn 0 1 0
vn 0 1 0
vn 0 1 0
vn 0 1 0
vn 0 1 0
vn 0 1 0
vn 0 1 0
vn 0 1 0
vn 0 1 0
vn 0 1 0
vn 0 1 0
vn 0 1 0
vn 0 1 0
vn 0 1 0
vn 0 1 0
vn 0 1 0
vn 0 1 0
vn 0 1 0
vn 0 1 0
vn 0 1 0
vn 0 1 0
vn 0 1 0
vn 0 1 0
vn 0 1 0
vn 0 1 0
vn 0 1 0
vn 0 1 0
vn 0 1 0
vn 0 1 0
vn 0 1 0
vn 0 1 0
vn 0 1 0
vn 0 1 0
vn 0 1 0
vn 0 1 0
vn 0 1 0
vn 0 1 0
vn 0 1 0
vn 0 1 0
vn 0 1 0
vn 0 1 0
vn 0 1 0
vn 0 1 0
vn 0 1 0
vn 0 1 0
vn 0 1 0
vn 0 1 0
vn 0 1 0
vn 0 1 0
vn 0 1 0
vn 0 1 0
vn 0 1 0
vn 0 1 0
vn 0 1 0
vn 0 1 0
vn 0 1 0
vn 0 1 0
vn 0 1 0
vn 0 1 0
vn 0 1 0
vn 0 1 0
vn 0 1 0
vn 0 1 0
vn 0 1 0
vn 0 1 0
vn 0 1 0
vn 0 1 0
vn 0 1 0
vn 0 1 0
vn 0 1 0
vn 0 1 0
vn 0 1 0
vn 0 1 0
vn 0 1 0
vn 0 1 0
vn 0 1 0
vn 0 1 0
g OmbraTritaverdure_0
f 3/3/3 2/2/2 1/1/1
f 4/4/4 3/3/3 1/1/1
f 7/7/7 6/6/6 5/5/5
f 8/8/8 7/7/7 5/5/5
f 11/11/11 10/10/10 9/9/9
f 12/12/12 11/11/11 9/9/9
f 15/15/15 14/14/14 13/13/13
f 16/16/16 15/15/15 13/13/13
f 19/19/19 18/18/18 17/17/17
f 20/20/20 19/19/19 17/17/17
f 23/23/23 22/22/22 21/21/21
f 24/24/24 23/23/23 21/21/21
f 27/27/27 26/26/26 25/25/25
f 28/28/28 27/27/27 25/25/25
f 31/31/31 30/30/30 29/29/29
f 32/32/32 31/31/31 29/29/29
f 35/35/35 34/34/34 33/33/33
f 36/36/36 35/35/35 33/33/33
f 39/39/39 38/38/38 37/37/37
f 40/40/40 39/39/39 37/37/37
f 43/43/43 42/42/42 41/41/41
f 44/44/44 43/43/43 41/41/41
f 47/47/47 46/46/46 45/45/45
f 48/48/48 47/47/47 45/45/45
f 51/51/51 50/50/50 49/49/49
f 52/52/52 51/51/51 49/49/49
f 55/55/55 54/54/54 53/53/53
f 56/56/56 55/55/55 53/53/53
f 59/59/59 58/58/58 57/57/57
f 60/60/60 59/59/59 57/57/57
f 63/63/63 62/62/62 61/61/61
f 64/64/64 63/63/63 61/61/61
f 67/67/67 66/66/66 65/65/65
f 68/68/68 67/67/67 65/65/65
f 71/71/71 70/70/70 69/69/69
f 72/72/72 71/71/71 69/69/69
f 75/75/75 74/74/74 73/73/73
f 76/76/76 75/75/75 73/73/73
f 79/79/79 78/78/78 77/77/77
f 80/80/80 79/79/79 77/77/77
f 83/83/83 82/82/82 81/81/81
f 82/82/82 84/84/84 81/81/81
f 81/81/81 84/84/84 85/85/85
f 84/84/84 86/86/86 85/85/85
f 85/85/85 86/86/86 87/87/87
f 86/86/86 88/88/88 87/87/87
f 87/87/87 88/88/88 89/89/89
f 88/88/88 90/90/90 89/89/89
f 89/89/89 90/90/90 91/91/91
f 90/90/90 92/92/92 91/91/91
f 91/91/91 92/92/92 93/93/93
f 92/92/92 94/94/94 93/93/93
f 93/93/93 94/94/94 95/95/95
f 94/94/94 96/96/96 95/95/95
f 95/95/95 96/96/96 97/97/97
f 96/96/96 98/98/98 97/97/97
f 97/97/97 98/98/98 99/99/99
f 98/98/98 100/100/100 99/99/99
f 99/99/99 100/100/100 101/101/101
f 100/100/100 102/102/102 101/101/101
f 101/101/101 102/102/102 103/103/103
f 102/102/102 104/104/104 103/103/103
f 103/103/103 104/104/104 105/105/105
f 104/104/104 106/106/106 105/105/105
f 105/105/105 106/106/106 107/107/107
f 106/106/106 108/108/108 107/107/107
f 107/107/107 108/108/108 109/109/109
f 108/108/108 110/110/110 109/109/109
f 109/109/109 110/110/110 111/111/111
f 110/110/110 112/112/112 111/111/111
f 111/111/111 112/112/112 113/113/113
f 112/112/112 114/114/114 113/113/113
f 113/113/113 114/114/114 115/115/115
f 114/114/114 116/116/116 115/115/115
f 115/115/115 116/116/116 117/117/117
f 116/116/116 118/118/118 117/117/117
f 118/118/118 120/120/120 119/119/119
f 121/121/121 118/118/118 119/119/119
f 124/124/124 123/123/123 122/122/122
f 123/123/123 82/82/82 122/122/122
