g OmbraBlob
v 0.7479507 2.184538E-08 0.4997639
v 0.01051414 4.595797E-10 0.01051396
v 0.01236335 3.610868E-10 0.008260703
v 0.6360799 2.78039E-08 0.6360791
v 0.83147 2.428472E-08 0.5555696
v 0.7071072 3.09086E-08 0.7071064
v -0.8995523 -3.910448E-15 -8.946063E-08
v -0.01458379 -1.268135E-10 -0.002901155
v -0.0148695 -1.227688E-14 -2.808623E-07
v -0.8822677 -7.671086E-09 -0.175494
v -1 -3.300118E-15 -7.54979E-08
v -0.9807853 -8.52767E-09 -0.1950904
v 0.8310782 1.504734E-08 0.3442431
v 0.01236335 3.610868E-10 0.008260703
v 0.01373743 2.487169E-10 0.00568998
v 0.7479507 2.184538E-08 0.4997639
v 0.9238799 1.672759E-08 0.3826827
v 0.83147 2.428472E-08 0.5555696
v -0.8822677 7.671079E-09 0.1754938
v -0.0148695 -1.227688E-14 -2.808623E-07
v -0.01458379 1.26789E-10 0.002900594
v -0.8995523 -3.910448E-15 -8.946063E-08
v -0.9807853 8.527664E-09 0.1950902
v -1 -3.300118E-15 -7.54979E-08
v 0.8822679 7.67105E-09 0.1754932
v 0.01373743 2.487169E-10 0.00568998
v 0.01458358 1.267885E-10 0.002900583
v 0.8310782 1.504734E-08 0.3442431
v 0.9807854 8.527631E-09 0.1950895
v 0.9238799 1.672759E-08 0.3826827
v -0.8310781 1.504737E-08 0.3442436
v -0.01458379 1.26789E-10 0.002900594
v -0.01373763 2.487174E-10 0.00568999
v -0.8822677 7.671079E-09 0.1754938
v -0.9238796 1.672762E-08 0.3826833
v -0.9807853 8.527664E-09 0.1950902
v 0.8995523 -3.890983E-14 -8.901533E-07
v 0.01458358 1.267885E-10 0.002900583
v 0.01486929 -1.285541E-14 -2.940976E-07
v 0.8822679 7.67105E-09 0.1754932
v 1 -4.220768E-14 -9.655992E-07
v 0.9807854 8.527631E-09 0.1950895
v -0.7479506 2.18454E-08 0.4997644
v -0.01373763 2.487174E-10 0.00568999
v -0.01236356 3.61087E-10 0.008260708
v -0.8310781 1.504737E-08 0.3442436
v -0.8314697 2.428474E-08 0.5555702
v -0.9238796 1.672762E-08 0.3826833
v 0.8822675 -7.671126E-09 -0.1754949
v 0.01486929 -1.285541E-14 -2.940976E-07
v 0.01458357 -1.268142E-10 -0.002901171
v 0.8995523 -3.890983E-14 -8.901533E-07
v 0.9807851 -8.527714E-09 -0.1950914
v 1 -4.220768E-14 -9.655992E-07
v -0.6360795 2.780392E-08 0.6360795
v -0.01236356 3.61087E-10 0.008260708
v -0.01051435 4.5958E-10 0.01051397
v -0.7479506 2.18454E-08 0.4997644
v -0.7071068 3.090862E-08 0.7071068
v -0.8314697 2.428474E-08 0.5555702
v 0.8310775 -1.504741E-08 -0.3442447
v 0.01458357 -1.268142E-10 -0.002901171
v 0.01373742 -2.487425E-10 -0.005690564
v 0.8822675 -7.671126E-09 -0.1754949
v 0.9238791 -1.672767E-08 -0.3826845
v 0.9807851 -8.527714E-09 -0.1950914
v -0.4997645 3.269395E-08 0.7479505
v -0.01051435 4.5958E-10 0.01051397
v -0.008261098 5.404113E-10 0.01236317
v -0.6360795 2.780392E-08 0.6360795
v -0.5555702 3.634469E-08 0.8314697
v -0.7071068 3.090862E-08 0.7071068
v 0.7479498 -2.184544E-08 -0.4997654
v 0.01373742 -2.487425E-10 -0.005690564
v 0.01236333 -3.611124E-10 -0.008261289
v 0.8310775 -1.504741E-08 -0.3442447
v 0.8314689 -2.428479E-08 -0.5555713
v 0.9238791 -1.672767E-08 -0.3826845
v -0.3442437 3.632757E-08 0.8310781
v -0.008261098 5.404113E-10 0.01236317
v -0.005690376 6.004743E-10 0.01373725
v -0.4997645 3.269395E-08 0.7479505
v -0.3826833 4.038406E-08 0.9238796
v -0.5555702 3.634469E-08 0.8314697
v -0.175494 -3.856514E-08 -0.8822677
v -1.073926E-07 -6.499739E-10 -0.01486967
v -0.002900981 -6.37485E-10 -0.01458396
v -2.418301E-08 -3.932068E-08 -0.8995523
v -0.1950903 -4.287148E-08 -0.9807853
v 0 -4.371139E-08 -1
v 0.6360787 -2.780396E-08 -0.6360804
v 0.01236333 -3.611124E-10 -0.008261289
v 0.01051413 -4.596051E-10 -0.01051454
v 0.7479498 -2.184544E-08 -0.4997654
v 0.7071059 -3.090866E-08 -0.7071077
v 0.8314689 -2.428479E-08 -0.5555713
v -0.1754938 3.856515E-08 0.8822677
v -0.005690376 6.004743E-10 0.01373725
v -0.002900979 6.374608E-10 0.0145834
v -0.3442437 3.632757E-08 0.8310781
v -0.1950901 4.287149E-08 0.9807853
v -0.3826833 4.038406E-08 0.9238796
v -0.3442438 -3.632757E-08 -0.8310779
v -0.002900981 -6.37485E-10 -0.01458396
v -0.005690376 -6.004984E-10 -0.0137378
v -0.175494 -3.856514E-08 -0.8822677
v -0.3826835 -4.038406E-08 -0.9238795
v -0.1950903 -4.287148E-08 -0.9807853
v 0.4997635 -3.269398E-08 -0.7479511
v 0.01051413 -4.596051E-10 -0.01051454
v 0.008260865 -5.404361E-10 -0.01236374
v 0.6360787 -2.780396E-08 -0.6360804
v 0.5555691 -3.634472E-08 -0.8314704
v 0.7071059 -3.090866E-08 -0.7071077
v 2.689283E-07 3.932069E-08 0.8995524
v -0.002900979 6.374608E-10 0.0145834
v -1.025475E-07 6.499497E-10 0.01486912
v -0.1754938 3.856515E-08 0.8822677
v 3.258414E-07 4.371139E-08 1
v -0.1950901 4.287149E-08 0.9807853
v -0.4997645 -3.269395E-08 -0.7479504
v -0.005690376 -6.004984E-10 -0.0137378
v -0.008261098 -5.404358E-10 -0.01236373
v -0.3442438 -3.632757E-08 -0.8310779
v -0.5555702 -3.634469E-08 -0.8314696
v -0.3826835 -4.038406E-08 -0.9238795
v 0.3442425 -3.63276E-08 -0.8310785
v 0.008260865 -5.404361E-10 -0.01236374
v 0.005690143 -6.004988E-10 -0.01373781
v 0.4997635 -3.269398E-08 -0.7479511
v 0.3826821 -4.038408E-08 -0.9238801
v 0.5555691 -3.634472E-08 -0.8314704
v 0.1754943 3.856514E-08 0.8822676
v -1.025475E-07 6.499497E-10 0.01486912
v 0.002900774 6.374608E-10 0.0145834
v 2.689283E-07 3.932069E-08 0.8995524
v 0.1950907 4.287148E-08 0.9807852
v 3.258414E-07 4.371139E-08 1
v -0.6360795 -2.780392E-08 -0.6360795
v -0.008261098 -5.404358E-10 -0.01236373
v -0.01051435 -4.596045E-10 -0.01051453
v -0.4997645 -3.269395E-08 -0.7479504
v -0.7071068 -3.090862E-08 -0.7071068
v -0.5555702 -3.634469E-08 -0.8314696
v 0.1754926 -3.856516E-08 -0.882268
v 0.005690143 -6.004988E-10 -0.01373781
v 0.002900745 -6.374853E-10 -0.01458396
v 0.3442425 -3.63276E-08 -0.8310785
v 0.1950888 -4.28715E-08 -0.9807855
v 0.3826821 -4.038408E-08 -0.9238801
v 0.3442441 3.632756E-08 0.8310778
v 0.002900774 6.374608E-10 0.0145834
v 0.005690168 6.004743E-10 0.01373725
v 0.1754943 3.856514E-08 0.8822676
v 0.3826839 4.038405E-08 0.9238793
v 0.1950907 4.287148E-08 0.9807852
v -0.7479506 -2.18454E-08 -0.4997644
v -0.01051435 -4.596045E-10 -0.01051453
v -0.01236356 -3.611115E-10 -0.008261269
v -0.6360795 -2.780392E-08 -0.6360795
v -0.8314697 -2.428474E-08 -0.5555702
v -0.7071068 -3.090862E-08 -0.7071068
v -2.418301E-08 -3.932068E-08 -0.8995523
v 0.002900745 -6.374853E-10 -0.01458396
v -1.073926E-07 -6.499739E-10 -0.01486967
v 0.1754926 -3.856516E-08 -0.882268
v 0 -4.371139E-08 -1
v 0.1950888 -4.28715E-08 -0.9807855
v 0.4997649 3.269394E-08 0.7479501
v 0.005690168 6.004743E-10 0.01373725
v 0.008260895 5.40411E-10 0.01236316
v 0.3442441 3.632756E-08 0.8310778
v 0.5555707 3.634468E-08 0.8314693
v 0.3826839 4.038405E-08 0.9238793
v -0.831078 -1.504737E-08 -0.3442438
v -0.01236356 -3.611115E-10 -0.008261269
v -0.01373763 -2.487419E-10 -0.00569055
v -0.7479506 -2.18454E-08 -0.4997644
v -0.9238795 -1.672762E-08 -0.3826834
v -0.8314697 -2.428474E-08 -0.5555702
v 0.6360799 2.78039E-08 0.6360791
v 0.008260895 5.40411E-10 0.01236316
v 0.01051414 4.595797E-10 0.01051396
v 0.4997649 3.269394E-08 0.7479501
v 0.7071072 3.09086E-08 0.7071064
v 0.5555707 3.634468E-08 0.8314693
v -0.8822677 -7.671086E-09 -0.175494
v -0.01373763 -2.487419E-10 -0.00569055
v -0.01458379 -1.268135E-10 -0.002901155
v -0.831078 -1.504737E-08 -0.3442438
v -0.9807853 -8.52767E-09 -0.1950904
v -0.9238795 -1.672762E-08 -0.3826834
v -0.002900981 -6.37485E-10 -0.01458396
v -1.073926E-07 -6.499739E-10 -0.01486967
v 0.002900745 -6.374853E-10 -0.01458396
v 0.005690143 -6.004988E-10 -0.01373781
v -0.005690376 -6.004984E-10 -0.0137378
v 0.008260865 -5.404361E-10 -0.01236374
v -0.008261098 -5.404358E-10 -0.01236373
v 0.01051413 -4.596051E-10 -0.01051454
v -0.01051435 -4.596045E-10 -0.01051453
v 0.01236333 -3.611124E-10 -0.008261289
v -0.01236356 -3.611115E-10 -0.008261269
v 0.01373742 -2.487425E-10 -0.005690564
v -0.01373763 -2.487419E-10 -0.00569055
v 0.01458357 -1.268142E-10 -0.002901171
v -0.01458379 -1.268135E-10 -0.002901155
v 0.01486929 -1.285541E-14 -2.940976E-07
v -0.0148695 -1.227688E-14 -2.808623E-07
v 0.01458358 1.267885E-10 0.002900583
v -0.01458379 1.26789E-10 0.002900594
v 0.01373743 2.487169E-10 0.00568998
v -0.01373763 2.487174E-10 0.00568999
v 0.01236335 3.610868E-10 0.008260703
v -0.01236356 3.61087E-10 0.008260708
v 0.01051414 4.595797E-10 0.01051396
v -0.01051435 4.5958E-10 0.01051397
v 0.008260895 5.40411E-10 0.01236316
v -0.008261098 5.404113E-10 0.01236317
v 0.005690168 6.004743E-10 0.01373725
v -0.005690376 6.004743E-10 0.01373725
v -0.002900979 6.374608E-10 0.0145834
v 0.002900774 6.374608E-10 0.0145834
v -1.025475E-07 6.499497E-10 0.01486912
vt 0 0.1363215
vt 1 0.5341753
vt 0 0.5341753
vt 1 0.1363215
vt 0 0.005658314
vt 1 0.005658314
vt 0 0.1363215
vt 1 0.5341753
vt 0 0.5341753
vt 1 0.1363215
vt 0 0.005658314
vt 1 0.005658314
vt 0 0.1363215
vt 1 0.5341753
vt 0 0.5341753
vt 1 0.1363215
vt 0 0.005658314
vt 1 0.005658314
vt 0 0.1363215
vt 1 0.5341753
vt 0 0.5341753
vt 1 0.1363215
vt 0 0.005658314
vt 1 0.005658314
vt 0 0.1363215
vt 1 0.5341753
vt 0 0.5341753
vt 1 0.1363215
vt 0 0.005658314
vt 1 0.005658314
vt 0 0.1363215
vt 1 0.5341753
vt 0 0.5341753
vt 1 0.1363215
vt 0 0.005658314
vt 1 0.005658314
vt 0 0.1363215
vt 1 0.5341753
vt 0 0.5341753
vt 1 0.1363215
vt 0 0.005658314
vt 1 0.005658314
vt 0 0.1363215
vt 1 0.5341753
vt 0 0.5341753
vt 1 0.1363215
vt 0 0.005658314
vt 1 0.005658314
vt 0 0.1363215
vt 1 0.5341753
vt 0 0.5341753
vt 1 0.1363215
vt 0 0.005658314
vt 1 0.005658314
vt 0 0.1363215
vt 1 0.5341753
vt 0 0.5341753
vt 1 0.1363215
vt 0 0.005658314
vt 1 0.005658314
vt 0 0.1363215
vt 1 0.5341753
vt 0 0.5341753
vt 1 0.1363215
vt 0 0.005658314
vt 1 0.005658314
vt 0 0.1363215
vt 1 0.5341753
vt 0 0.5341753
vt 1 0.1363215
vt 0 0.005658314
vt 1 0.005658314
vt 0 0.1363215
vt 1 0.5341753
vt 0 0.5341753
vt 1 0.1363215
vt 0 0.005658314
vt 1 0.005658314
vt 0 0.1363215
vt 1 0.5341753
vt 0 0.5341753
vt 1 0.1363215
vt 0 0.005658314
vt 1 0.005658314
vt 0 0.1363215
vt 1 0.5341753
vt 0 0.5341753
vt 1 0.1363215
vt 0 0.005658314
vt 1 0.005658314
vt 0 0.1363215
vt 1 0.5341753
vt 0 0.5341753
vt 1 0.1363215
vt 0 0.005658314
vt 1 0.005658314
vt 0 0.1363215
vt 1 0.5341753
vt 0 0.5341753
vt 1 0.1363215
vt 0 0.005658314
vt 1 0.005658314
vt 0 0.1363215
vt 1 0.5341753
vt 0 0.5341753
vt 1 0.1363215
vt 0 0.005658314
vt 1 0.005658314
vt 0 0.1363215
vt 1 0.5341753
vt 0 0.5341753
vt 1 0.1363215
vt 0 0.005658314
vt 1 0.005658314
vt 0 0.1363215
vt 1 0.5341753
vt 0 0.5341753
vt 1 0.1363215
vt 0 0.005658314
vt 1 0.005658314
vt 0 0.1363215
vt 1 0.5341753
vt 0 0.5341753
vt 1 0.1363215
vt 0 0.005658314
vt 1 0.005658314
vt 0 0.1363215
vt 1 0.5341753
vt 0 0.5341753
vt 1 0.1363215
vt 0 0.005658314
vt 1 0.005658314
vt 0 0.1363215
vt 1 0.5341753
vt 0 0.5341753
vt 1 0.1363215
vt 0 0.005658314
vt 1 0.005658314
vt 0 0.1363215
vt 1 0.5341753
vt 0 0.5341753
vt 1 0.1363215
vt 0 0.005658314
vt 1 0.005658314
vt 0 0.1363215
vt 1 0.5341753
vt 0 0.5341753
vt 1 0.1363215
vt 0 0.005658314
vt 1 0.005658314
vt 0 0.1363215
vt 1 0.5341753
vt 0 0.5341753
vt 1 0.1363215
vt 0 0.005658314
vt 1 0.005658314
vt 0 0.1363215
vt 1 0.5341753
vt 0 0.5341753
vt 1 0.1363215
vt 0 0.005658314
vt 1 0.005658314
vt 0 0.1363215
vt 1 0.5341753
vt 0 0.5341753
vt 1 0.1363215
vt 0 0.005658314
vt 1 0.005658314
vt 0 0.1363215
vt 1 0.5341753
vt 0 0.5341753
vt 1 0.1363215
vt 0 0.005658314
vt 1 0.005658314
vt 0 0.1363215
vt 1 0.5341753
vt 0 0.5341753
vt 1 0.1363215
vt 0 0.005658314
vt 1 0.005658314
vt 0 0.1363215
vt 1 0.5341753
vt 0 0.5341753
vt 1 0.1363215
vt 0 0.005658314
vt 1 0.005658314
vt 0 0.1363215
vt 1 0.5341753
vt 0 0.5341753
vt 1 0.1363215
vt 0 0.005658314
vt 1 0.005658314
vt 1 0.5341753
vt 0 0.5341753
vt 0 0.5341753
vt 0 0.5341753
vt 0 0.5341753
vt 0 0.5341753
vt 0 0.5341753
vt 0 0.5341753
vt 0 0.5341753
vt 0 0.5341753
vt 0 0.5341753
vt 0 0.5341753
vt 0 0.5341753
vt 0 0.5341753
vt 0 0.5341753
vt 0 0.5341753
vt 0 0.5341753
vt 0 0.5341753
vt 0 0.5341753
vt 0 0.5341753
vt 0 0.5341753
vt 0 0.5341753
vt 0 0.5341753
vt 0 0.5341753
vt 0 0.5341753
vt 0 0.5341753
vt 0 0.5341753
vt 0 0.5341753
vt 0 0.5341753
vt 0 0.5341753
vt 0 0.5341753
vt 0 0.5341753
vn 0 1 0
vn 0 1 0
vn 0 1 0
vn 0 1 0
vn 0 1 0
vn 0 1 0
vn 0 1 0
vn 0 1 0
vn 0 1 0
vn 0 1 0
vn 0 1 0
vn 0 1 0
vn 0 1 0
vn 0 1 0
vn 0 1 0
vn 0 1 0
vn 0 1 0
vn 0 1 0
vn 0 1 0
vn 0 1 0
vn 0 1 0
vn 0 1 0
vn 0 1 0
vn 0 1 0
vn 0 1 0
vn 0 1 0
vn 0 1 0
vn 0 1 0
vn 0 1 0
vn 0 1 0
vn 0 1 0
vn 0 1 0
vn 0 1 0
vn 0 1 0
vn 0 1 0
vn 0 1 0
vn 0 1 0
vn 0 1 0
vn 0 1 0
vn 0 1 0
vn 0 1 0
vn 0 1 0
vn 0 1 0
vn 0 1 0
vn 0 1 0
vn 0 1 0
vn 0 1 0
vn 0 1 0
vn 0 1 0
vn 0 1 0
vn 0 1 0
vn 0 1 0
vn 0 1 0
vn 0 1 0
vn 0 1 0
vn 0 1 0
vn 0 1 0
vn 0 1 0
vn 0 1 0
vn 0 1 0
vn 0 1 0
vn 0 1 0
vn 0 1 0
vn 0 1 0
vn 0 1 0
vn 0 1 0
vn 0 1 0
vn 0 1 0
vn 0 1 0
vn 0 1 0
vn 0 1 0
vn 0 1 0
vn 0 1 0
vn 0 1 0
vn 0 1 0
vn 0 1 0
vn 0 1 0
vn 0 1 0
vn 0 1 0
vn 0 1 0
vn 0 1 0
vn 0 1 0
vn 0 1 0
vn 0 1 0
vn 0 1 0
vn 0 1 0
vn 0 1 0
vn 0 1 0
vn 0 1 0
vn 0 1 0
vn 0 1 0
vn 0 1 0
vn 0 1 0
vn 0 1 0
vn 0 1 0
vn 0 1 0
vn 0 1 0
vn 0 1 0
vn 0 1 0
vn 0 1 0
vn 0 1 0
vn 0 1 0
vn 0 1 0
vn 0 1 0
vn 0 1 0
vn 0 1 0
vn 0 1 0
vn 0 1 0
vn 0 1 0
vn 0 1 0
vn 0 1 0
vn 0 1 0
vn 0 1 0
vn 0 1 0
vn 0 1 0
vn 0 1 0
vn 0 1 0
vn 0 1 0
vn 0 1 0
vn 0 1 0
vn 0 1 0
vn 0 1 0
vn 0 1 0
vn 0 1 0
vn 0 1 0
vn 0 1 0
vn 0 1 0
vn 0 1 0
vn 0 1 0
vn 0 1 0
vn 0 1 0
vn 0 1 0
vn 0 1 0
vn 0 1 0
vn 0 1 0
vn 0 1 0
vn 0 1 0
vn 0 1 0
vn 0 1 0
vn 0 1 0
vn 0 1 0
vn 0 1 0
vn 0 1 0
vn 0 1 0
vn 0 1 0
vn 0 1 0
vn 0 1 0
vn 0 1 0
vn 0 1 0
vn 0 1 0
vn 0 1 0
vn 0 1 0
vn 0 1 0
vn 0 1 0
vn 0 1 0
vn 0 1 0
vn 0 1 0
vn 0 1 0
vn 0 1 0
vn 0 1 0
vn 0 1 0
vn 0 1 0
vn 0 1 0
vn 0 1 0
vn 0 1 0
vn 0 1 0
vn 0 1 0
vn 0 1 0
vn 0 1 0
vn 0 1 0
vn 0 1 0
vn 0 1 0
vn 0 1 0
vn 0 1 0
vn 0 1 0
vn 0 1 0
vn 0 1 0
vn 0 1 0
vn 0 1 0
vn 0 1 0
vn 0 1 0
vn 0 1 0
vn 0 1 0
vn 0 1 0
vn 0 1 0
vn 0 1 0
vn 0 1 0
vn 0 1 0
vn 0 1 0
vn 0 1 0
vn 0 1 0
vn 0 1 0
vn 0 1 0
vn 0 1 0
vn 0 1 0
vn 0 1 0
vn 0 1 0
vn 0 1 0
vn 0 1 0
vn 0 1 0
vn 0 1 0
vn 0 1 0
vn 0 1 0
vn 0 1 0
vn 0 1 0
vn 0 1 0
vn 0 1 0
vn 0 1 0
vn 0 1 0
vn 0 1 0
vn 0 1 0
vn 0 1 0
vn 0 1 0
vn 0 1 0
vn 0 1 0
vn 0 1 0
vn 0 1 0
vn 0 1 0
vn 0 1 0
vn 0 1 0
vn 0 1 0
vn 0 1 0
vn 0 1 0
vn 0 1 0
g OmbraBlob_0
f 3/3/3 2/2/2 1/1/1
f 2/2/2 4/4/4 1/1/1
f 1/1/1 4/4/4 5/5/5
f 4/4/4 6/6/6 5/5/5
f 9/9/9 8/8/8 7/7/7
f 8/8/8 10/10/10 7/7/7
f 7/7/7 10/10/10 11/11/11
f 10/10/10 12/12/12 11/11/11
f 15/15/15 14/14/14 13/13/13
f 14/14/14 16/16/16 13/13/13
f 13/13/13 16/16/16 17/17/17
f 16/16/16 18/18/18 17/17/17
f 21/21/21 20/20/20 19/19/19
f 20/20/20 22/22/22 19/19/19
f 19/19/19 22/22/22 23/23/23
f 22/22/22 24/24/24 23/23/23
f 27/27/27 26/26/26 25/25/25
f 26/26/26 28/28/28 25/25/25
f 25/25/25 28/28/28 29/29/29
f 28/28/28 30/30/30 29/29/29
f 33/33/33 32/32/32 31/31/31
f 32/32/32 34/34/34 31/31/31
f 31/31/31 34/34/34 35/35/35
f 34/34/34 36/36/36 35/35/35
f 39/39/39 38/38/38 37/37/37
f 38/38/38 40/40/40 37/37/37
f 37/37/37 40/40/40 41/41/41
f 40/40/40 42/42/42 41/41/41
f 45/45/45 44/44/44 43/43/43
f 44/44/44 46/46/46 43/43/43
f 43/43/43 46/46/46 47/47/47
f 46/46/46 48/48/48 47/47/47
f 51/51/51 50/50/50 49/49/49
f 50/50/50 52/52/52 49/49/49
f 49/49/49 52/52/52 53/53/53
f 52/52/52 54/54/54 53/53/53
f 57/57/57 56/56/56 55/55/55
f 56/56/56 58/58/58 55/55/55
f 55/55/55 58/58/58 59/59/59
f 58/58/58 60/60/60 59/59/59
f 63/63/63 62/62/62 61/61/61
f 62/62/62 64/64/64 61/61/61
f 61/61/61 64/64/64 65/65/65
f 64/64/64 66/66/66 65/65/65
f 69/69/69 68/68/68 67/67/67
f 68/68/68 70/70/70 67/67/67
f 67/67/67 70/70/70 71/71/71
f 70/70/70 72/72/72 71/71/71
f 75/75/75 74/74/74 73/73/73
f 74/74/74 76/76/76 73/73/73
f 73/73/73 76/76/76 77/77/77
f 76/76/76 78/78/78 77/77/77
f 81/81/81 80/80/80 79/79/79
f 80/80/80 82/82/82 79/79/79
f 79/79/79 82/82/82 83/83/83
f 82/82/82 84/84/84 83/83/83
f 87/87/87 86/86/86 85/85/85
f 86/86/86 88/88/88 85/85/85
f 85/85/85 88/88/88 89/89/89
f 88/88/88 90/90/90 89/89/89
f 93/93/93 92/92/92 91/91/91
f 92/92/92 94/94/94 91/91/91
f 91/91/91 94/94/94 95/95/95
f 94/94/94 96/96/96 95/95/95
f 99/99/99 98/98/98 97/97/97
f 98/98/98 100/100/100 97/97/97
f 97/97/97 100/100/100 101/101/101
f 100/100/100 102/102/102 101/101/101
f 105/105/105 104/104/104 103/103/103
f 104/104/104 106/106/106 103/103/103
f 103/103/103 106/106/106 107/107/107
f 106/106/106 108/108/108 107/107/107
f 111/111/111 110/110/110 109/109/109
f 110/110/110 112/112/112 109/109/109
f 109/109/109 112/112/112 113/113/113
f 112/112/112 114/114/114 113/113/113
f 117/117/117 116/116/116 115/115/115
f 116/116/116 118/118/118 115/115/115
f 115/115/115 118/118/118 119/119/119
f 118/118/118 120/120/120 119/119/119
f 123/123/123 122/122/122 121/121/121
f 122/122/122 124/124/124 121/121/121
f 121/121/121 124/124/124 125/125/125
f 124/124/124 126/126/126 125/125/125
f 129/129/129 128/128/128 127/127/127
f 128/128/128 130/130/130 127/127/127
f 127/127/127 130/130/130 131/131/131
f 130/130/130 132/132/132 131/131/131
f 135/135/135 134/134/134 133/133/133
f 134/134/134 136/136/136 133/133/133
f 133/133/133 136/136/136 137/137/137
f 136/136/136 138/138/138 137/137/137
f 141/141/141 140/140/140 139/139/139
f 140/140/140 142/142/142 139/139/139
f 139/139/139 142/142/142 143/143/143
f 142/142/142 144/144/144 143/143/143
f 147/147/147 146/146/146 145/145/145
f 146/146/146 148/148/148 145/145/145
f 145/145/145 148/148/148 149/149/149
f 148/148/148 150/150/150 149/149/149
f 153/153/153 152/152/152 151/151/151
f 152/152/152 154/154/154 151/151/151
f 151/151/151 154/154/154 155/155/155
f 154/154/154 156/156/156 155/155/155
f 159/159/159 158/158/158 157/157/157
f 158/158/158 160/160/160 157/157/157
f 157/157/157 160/160/160 161/161/161
f 160/160/160 162/162/162 161/161/161
f 165/165/165 164/164/164 163/163/163
f 164/164/164 166/166/166 163/163/163
f 163/163/163 166/166/166 167/167/167
f 166/166/166 168/168/168 167/167/167
f 171/171/171 170/170/170 169/169/169
f 170/170/170 172/172/172 169/169/169
f 169/169/169 172/172/172 173/173/173
f 172/172/172 174/174/174 173/173/173
f 177/177/177 176/176/176 175/175/175
f 176/176/176 178/178/178 175/175/175
f 175/175/175 178/178/178 179/179/179
f 178/178/178 180/180/180 179/179/179
f 183/183/183 182/182/182 181/181/181
f 182/182/182 184/184/184 181/181/181
f 181/181/181 184/184/184 185/185/185
f 184/184/184 186/186/186 185/185/185
f 189/189/189 188/188/188 187/187/187
f 188/188/188 190/190/190 187/187/187
f 187/187/187 190/190/190 191/191/191
f 190/190/190 192/192/192 191/191/191
f 195/195/195 194/194/194 193/193/193
f 193/193/193 196/196/196 195/195/195
f 193/193/193 197/197/197 196/196/196
f 197/197/197 198/198/198 196/196/196
f 197/197/197 199/199/199 198/198/198
f 199/199/199 200/200/200 198/198/198
f 199/199/199 201/201/201 200/200/200
f 201/201/201 202/202/202 200/200/200
f 201/201/201 203/203/203 202/202/202
f 203/203/203 204/204/204 202/202/202
f 203/203/203 205/205/205 204/204/204
f 205/205/205 206/206/206 204/204/204
f 205/205/205 207/207/207 206/206/206
f 207/207/207 208/208/208 206/206/206
f 207/207/207 209/209/209 208/208/208
f 209/209/209 210/210/210 208/208/208
f 209/209/209 211/211/211 210/210/210
f 211/211/211 212/212/212 210/210/210
f 211/211/211 213/213/213 212/212/212
f 213/213/213 214/214/214 212/212/212
f 213/213/213 215/215/215 214/214/214
f 215/215/215 216/216/216 214/214/214
f 215/215/215 217/217/217 216/216/216
f 217/217/217 218/218/218 216/216/216
f 217/217/217 219/219/219 218/218/218
f 219/219/219 220/220/220 218/218/218
f 219/219/219 221/221/221 220/220/220
f 221/221/221 222/222/222 220/220/220
f 222/222/222 223/223/223 220/220/220
f 222/222/222 224/224/224 223/223/223
