g Pelo
v -0.14 -0.2650707 2.191821E-08
v -0.1184775 0.1429562 4.620288E-08
v -0.2 -0.05333333 5.001499E-08
v -0.2 -0.1733333 1.314026E-08
v 0.14 -0.2650707 4.43365E-09
v 0.1184775 0.1429562 2.871832E-08
v 4.990738E-15 0.2666667 4.55633E-08
v 1.308483E-15 -0.3333333 2.967004E-08
v 4.990738E-15 0.2666667 4.55633E-08
v -0.1184775 0.1429562 4.620288E-08
v -0.14 -0.2650707 2.191821E-08
v 0.2 -0.1733333 -2.182885E-08
v 0.2 -0.05333333 1.504588E-08
v 0.1184775 0.1429562 2.871832E-08
v 0.14 -0.2650707 4.43365E-09
vt 0.3011627 0.1526608
vt 0.3615167 0.8040878
vt 0.2106317 0.6532027
vt 0.2106317 0.2910788
vt 0.7236406 0.1526608
vt 0.6632866 0.8040878
vt 0.5124016 0.9549728
vt 0.5124016 0.04966287
vt 0.5124016 0.9549728
vt 0.3615167 0.8040878
vt 0.3011627 0.1526608
vt 0.8141714 0.2910788
vt 0.8141714 0.6532027
vt 0.6632866 0.8040878
vt 0.7236406 0.1526608
vn 0 0 -1
vn 0 0 -1
vn 0 0 -1
vn 0 0 -1
vn 0 0 -1
vn 0 0 -1
vn 0 0 -1
vn 0 0 -1
vn 0 0 -1
vn 0 0 -1
vn 0 0 -1
vn 0 0 -1
vn 0 0 -1
vn 0 0 -1
vn 0 0 -1
g Pelo_0
f 3/3/3 2/2/2 1/1/1
f 4/4/4 3/3/3 1/1/1
f 7/7/7 6/6/6 5/5/5
f 8/8/8 7/7/7 5/5/5
f 10/10/10 9/9/9 8/8/8
f 11/11/11 10/10/10 8/8/8
f 14/14/14 13/13/13 12/12/12
f 15/15/15 14/14/14 12/12/12
