g Plane
v -8.742278E-07 -1.029148E-06 -23.54416
v -2.000001 -9.592327E-14 0
v -2.000001 -1.029148E-06 -23.54416
v -1.879388 -1.210108E-06 -27.68404
v -1.53209 -1.236402E-06 -28.28558
v -1.000001 -1.255918E-06 -28.73205
v -0.3472978 -1.266302E-06 -28.96962
v 0.3472949 -1.266302E-06 -28.96962
v 0.9999988 -1.255918E-06 -28.73205
v 1.532088 -1.236402E-06 -28.28558
v 1.879384 -1.210108E-06 -27.68404
v 1.999999 -1.029148E-06 -23.54416
v -8.742278E-07 -9.592327E-14 0
v -1.879388 1.809598E-07 4.139881
v 1.999999 -9.592327E-14 0
v -1.53209 2.072538E-07 4.741417
v 1.879384 1.809599E-07 4.139881
v -1.000001 2.267699E-07 5.187893
v 1.532088 2.072539E-07 4.741417
v -0.3472978 2.371542E-07 5.425457
v 0.9999988 2.267701E-07 5.187893
v 0.3472949 2.371542E-07 5.425457
vt 0.6389645 0.6632322
vt 0.6389645 0.2895984
vt 0.6389645 0.2895984
vt 0.6389645 0.2895983
vt 0.6389645 0.2895983
vt 0.6389645 0.2895983
vt 0.6389645 0.2895983
vt 0.6389645 0.2895983
vt 0.6389645 0.2895983
vt 0.6389645 0.2895983
vt 0.6389645 0.2895983
vt 0.6389645 0.2895983
vt 0.6389645 0.6632322
vt 0.6389645 0.2895983
vt 0.6389645 0.2895983
vt 0.6389645 0.2895983
vt 0.6389645 0.2895983
vt 0.6389645 0.2895983
vt 0.6389645 0.2895983
vt 0.6389645 0.2895983
vt 0.6389645 0.2895983
vt 0.6389645 0.2895983
vn 0 1 0
vn 0 1 0
vn 0 1 0
vn 0 1 0
vn 0 1 0
vn 0 1 0
vn 0 1 0
vn 0 1 0
vn 0 1 0
vn 0 1 0
vn 0 1 0
vn 0 1 0
vn 0 1 0
vn 0 1 0
vn 0 1 0
vn 0 1 0
vn 0 1 0
vn 0 1 0
vn 0 1 0
vn 0 1 0
vn 0 1 0
vn 0 1 0
g Plane_0
f 3/3/3 2/2/2 1/1/1
f 4/4/4 3/3/3 1/1/1
f 5/5/5 4/4/4 1/1/1
f 6/6/6 5/5/5 1/1/1
f 7/7/7 6/6/6 1/1/1
f 8/8/8 7/7/7 1/1/1
f 9/9/9 8/8/8 1/1/1
f 10/10/10 9/9/9 1/1/1
f 11/11/11 10/10/10 1/1/1
f 12/12/12 11/11/11 1/1/1
f 2/2/2 13/13/13 1/1/1
f 1/1/1 13/13/13 12/12/12
f 2/2/2 14/14/14 13/13/13
f 13/13/13 15/15/15 12/12/12
f 14/14/14 16/16/16 13/13/13
f 17/17/17 15/15/15 13/13/13
f 16/16/16 18/18/18 13/13/13
f 19/19/19 17/17/17 13/13/13
f 18/18/18 20/20/20 13/13/13
f 21/21/21 19/19/19 13/13/13
f 20/20/20 22/22/22 13/13/13
f 22/22/22 21/21/21 13/13/13
