g RetePingPong
v 6.054074 -0.01806101 4.768372E-07
v -6.054074 -0.01806101 4.768372E-07
v -6.054074 0.9999999 4.321337E-07
v 6.054074 0.9999999 4.321337E-07
v 6.054074 -0.01806101 4.768372E-07
v 6.054074 0.9999999 4.321337E-07
v -6.054074 0.9999999 4.321337E-07
v -6.054074 -0.01806101 4.768372E-07
v -6.277624 0.9038353 0.09616502
v -6.277624 1.096164 -0.09616415
v -6.277624 1.096164 0.09616502
v -6.277624 0.9038353 -0.09616415
v -6.277624 -0.9929268 -0.09616415
v -6.277624 -0.9929268 0.09616502
v 6.277624 0.9038353 -0.09616415
v 6.277624 1.096164 0.09616502
v 6.277624 1.096164 -0.09616415
v 6.277624 0.9038353 0.09616502
v 6.277624 -0.9929268 0.09616502
v 6.277624 -0.9929268 -0.09616415
v -6.06837 0.9038353 -0.09616415
v -6.06837 -0.9929268 -0.09616415
v -6.06837 -0.9929268 0.09616502
v -6.06837 0.9038353 0.09616502
v -6.06837 1.096164 -0.09616415
v -6.277624 1.096164 0.09616502
v -6.277624 1.096164 -0.09616415
v -6.06837 1.096164 0.09616502
v 6.06837 1.096164 -0.09616415
v 6.06837 1.096164 0.09616502
v 6.277624 1.096164 -0.09616415
v 6.277624 1.096164 0.09616502
v -6.277624 0.9038353 -0.09616415
v -6.277624 -0.9929268 -0.09616415
v -6.06837 -0.9929268 -0.09616415
v -6.06837 0.9038353 -0.09616415
v -6.06837 1.096164 -0.09616415
v -6.277624 1.096164 -0.09616415
v 6.06837 1.096164 -0.09616415
v 6.06837 0.9038353 -0.09616415
v 6.277624 1.096164 -0.09616415
v 6.277624 0.9038353 -0.09616415
v 6.277624 -0.9929268 -0.09616415
v 6.06837 -0.9929268 -0.09616415
v -6.06837 0.9038353 -0.09616415
v -6.06837 0.9038353 0.09616502
v 6.06837 0.9038353 0.09616502
v 6.06837 0.9038353 -0.09616415
v 6.277624 0.9038353 0.09616502
v 6.06837 1.096164 0.09616502
v 6.277624 1.096164 0.09616502
v 6.06837 0.9038353 0.09616502
v -6.06837 1.096164 0.09616502
v 6.06837 -0.9929268 0.09616502
v 6.277624 -0.9929268 0.09616502
v -6.06837 0.9038353 0.09616502
v -6.277624 1.096164 0.09616502
v -6.277624 0.9038353 0.09616502
v -6.277624 -0.9929268 0.09616502
v -6.06837 -0.9929268 0.09616502
v 6.06837 -0.9929268 -0.09616415
v 6.06837 -0.9929268 0.09616502
v 6.277624 -0.9929268 0.09616502
v 6.277624 -0.9929268 -0.09616415
v -6.277624 -0.9929268 -0.09616415
v -6.277624 -0.9929268 0.09616502
v -6.06837 -0.9929268 0.09616502
v -6.06837 -0.9929268 -0.09616415
v 6.06837 0.9038353 0.09616502
v 6.06837 -0.9929268 0.09616502
v 6.06837 -0.9929268 -0.09616415
v 6.06837 0.9038353 -0.09616415
vt 0.1937019 0.3250611
vt 0.1937019 0.9348445
vt 0.2962439 0.9348445
vt 0.2962439 0.3250611
vt 0.1937019 0.3250611
vt 0.2962439 0.3250611
vt 0.2962439 0.9348445
vt 0.1937019 0.9348445
vt 0.5527053 0.1679583
vt 0.5527053 0.098553
vt 0.5527053 0.098553
vt 0.5527053 0.1679583
vt 0.5527053 0.8524402
vt 0.5527053 0.8524402
vt 0.5527053 0.1679583
vt 0.5527053 0.098553
vt 0.5527053 0.098553
vt 0.5527053 0.1679583
vt 0.5527053 0.8524402
vt 0.5527053 0.8524402
vt 0.5527053 0.1679583
vt 0.5527053 0.8524402
vt 0.5527053 0.8524402
vt 0.5527053 0.1679583
vt 0.5527053 0.098553
vt 0.5527053 0.098553
vt 0.5527053 0.098553
vt 0.5527053 0.098553
vt 0.5527053 0.098553
vt 0.5527053 0.098553
vt 0.5527053 0.098553
vt 0.5527053 0.098553
vt 0.5527053 0.1679583
vt 0.5527053 0.8524402
vt 0.5527053 0.8524402
vt 0.5527053 0.1679583
vt 0.5527053 0.098553
vt 0.5527053 0.098553
vt 0.5527053 0.098553
vt 0.5527053 0.1679583
vt 0.5527053 0.098553
vt 0.5527053 0.1679583
vt 0.5527053 0.8524402
vt 0.5527053 0.8524402
vt 0.5527053 0.1679583
vt 0.5527053 0.1679583
vt 0.5527053 0.1679583
vt 0.5527053 0.1679583
vt 0.5527053 0.1679583
vt 0.5527053 0.098553
vt 0.5527053 0.098553
vt 0.5527053 0.1679583
vt 0.5527053 0.098553
vt 0.5527053 0.8524402
vt 0.5527053 0.8524402
vt 0.5527053 0.1679583
vt 0.5527053 0.098553
vt 0.5527053 0.1679583
vt 0.5527053 0.8524402
vt 0.5527053 0.8524402
vt 0.5527053 0.8524402
vt 0.5527053 0.8524402
vt 0.5527053 0.8524402
vt 0.5527053 0.8524402
vt 0.5527053 0.8524402
vt 0.5527053 0.8524402
vt 0.5527053 0.8524402
vt 0.5527053 0.8524402
vt 0.5527053 0.1679583
vt 0.5527053 0.8524402
vt 0.5527053 0.8524402
vt 0.5527053 0.1679583
vn 0 0 1
vn 0 0 1
vn 0 0 1
vn 0 0 1
vn 0 0 -1
vn 0 0 -1
vn 0 0 -1
vn 0 0 -1
vn -1 0 0
vn -1 0 0
vn -1 0 0
vn -1 0 0
vn -1 0 0
vn -1 0 0
vn 1 0 0
vn 1 0 0
vn 1 0 0
vn 1 0 0
vn 1 0 0
vn 1 0 0
vn 1 0 0
vn 1 0 0
vn 1 0 0
vn 1 0 0
vn 0 1 0
vn 0 1 0
vn 0 1 0
vn 0 1 0
vn 0 1 0
vn 0 1 0
vn 0 1 0
vn 0 1 0
vn 0 0 -1
vn 0 0 -1
vn 0 0 -1
vn 0 0 -1
vn 0 0 -1
vn 0 0 -1
vn 0 0 -1
vn 0 0 -1
vn 0 0 -1
vn 0 0 -1
vn 0 0 -1
vn 0 0 -1
vn 0 -1 0
vn 0 -1 0
vn 0 -1 0
vn 0 -1 0
vn 0 0 1
vn 0 0 1
vn 0 0 1
vn 0 0 1
vn 0 0 1
vn 0 0 1
vn 0 0 1
vn 0 0 1
vn 0 0 1
vn 0 0 1
vn 0 0 1
vn 0 0 1
vn 0 -1 0
vn 0 -1 0
vn 0 -1 0
vn 0 -1 0
vn 0 -1 0
vn 0 -1 0
vn 0 -1 0
vn 0 -1 0
vn -1 0 0
vn -1 0 0
vn -1 0 0
vn -1 0 0
g RetePingPong_0
f 3/3/3 2/2/2 1/1/1
f 4/4/4 3/3/3 1/1/1
f 7/7/7 6/6/6 5/5/5
f 8/8/8 7/7/7 5/5/5
f 11/11/11 10/10/10 9/9/9
f 10/10/10 12/12/12 9/9/9
f 12/12/12 13/13/13 9/9/9
f 13/13/13 14/14/14 9/9/9
f 17/17/17 16/16/16 15/15/15
f 16/16/16 18/18/18 15/15/15
f 18/18/18 19/19/19 15/15/15
f 19/19/19 20/20/20 15/15/15
f 23/23/23 22/22/22 21/21/21
f 24/24/24 23/23/23 21/21/21
f 27/27/27 26/26/26 25/25/25
f 26/26/26 28/28/28 25/25/25
f 25/25/25 28/28/28 29/29/29
f 28/28/28 30/30/30 29/29/29
f 29/29/29 30/30/30 31/31/31
f 30/30/30 32/32/32 31/31/31
f 35/35/35 34/34/34 33/33/33
f 36/36/36 35/35/35 33/33/33
f 37/37/37 36/36/36 33/33/33
f 38/38/38 37/37/37 33/33/33
f 37/37/37 39/39/39 36/36/36
f 39/39/39 40/40/40 36/36/36
f 39/39/39 41/41/41 40/40/40
f 41/41/41 42/42/42 40/40/40
f 42/42/42 43/43/43 40/40/40
f 43/43/43 44/44/44 40/40/40
f 47/47/47 46/46/46 45/45/45
f 48/48/48 47/47/47 45/45/45
f 51/51/51 50/50/50 49/49/49
f 50/50/50 52/52/52 49/49/49
f 50/50/50 53/53/53 52/52/52
f 52/52/52 54/54/54 49/49/49
f 54/54/54 55/55/55 49/49/49
f 53/53/53 56/56/56 52/52/52
f 53/53/53 57/57/57 56/56/56
f 57/57/57 58/58/58 56/56/56
f 58/58/58 59/59/59 56/56/56
f 59/59/59 60/60/60 56/56/56
f 63/63/63 62/62/62 61/61/61
f 64/64/64 63/63/63 61/61/61
f 67/67/67 66/66/66 65/65/65
f 68/68/68 67/67/67 65/65/65
f 71/71/71 70/70/70 69/69/69
f 72/72/72 71/71/71 69/69/69
