g Sapone_Lato
v -0.5 -0.5 -0.5
v 0.5 -0.5 -0.5
v 0.5 -0.4009689 -0.5
v 0.4934386 -0.2923705 -0.5
v 0.4738155 -0.1853437 -0.5
v 0.4414511 -0.08147556 -0.5
v 0.3968032 0.01773864 -0.5
v 0.3405127 0.1108339 -0.5
v 0.2734188 0.1964828 -0.5
v 0.1964828 0.2734188 -0.5
v 0.1108339 0.3405127 -0.5
v 0.01773861 0.3968033 -0.5
v -0.08147556 0.4414511 -0.5
v -0.1853437 0.4738155 -0.5
v -0.2923705 0.4934233 -0.5
v -0.400969 0.5 -0.5
v -0.5 0.5 -0.5
v 0.5 -0.5 -0.5
v -0.5 -0.5 -0.5
v -0.5 -0.5 0.5
v 0.5 -0.5 0.5
v -0.5 -0.5 -0.5
v -0.5 0.5 -0.5
v -0.5 0.5 0.5
v -0.5 -0.5 0.5
v 0.4934386 -0.2923705 0.5
v 0.5 -0.4009689 0.5
v 0.5 -0.5 0.5
v -0.5 -0.5 0.5
v 0.4738155 -0.1853437 0.5
v 0.4414511 -0.08147556 0.5
v 0.3968032 0.01773864 0.5
v 0.3405127 0.1108339 0.5
v 0.2734188 0.1964828 0.5
v 0.1964828 0.2734188 0.5
v 0.1108339 0.3405127 0.5
v 0.01773861 0.3968033 0.5
v -0.08147556 0.4414511 0.5
v -0.1853437 0.4738155 0.5
v -0.2923705 0.4934233 0.5
v -0.400969 0.5 0.5
v -0.5 0.5 0.5
v 0.5 -0.4009689 -0.5
v 0.5 -0.5 -0.5
v 0.5 -0.5 0.5
v 0.5 -0.4009689 0.5
v 0.5 -0.4009689 0.5
v 0.4934386 -0.2923705 0.5
v 0.4934386 -0.2923705 -0.5
v 0.5 -0.4009689 -0.5
v 0.4934386 -0.2923705 0.5
v 0.4738155 -0.1853437 0.5
v 0.4738155 -0.1853437 -0.5
v 0.4934386 -0.2923705 -0.5
v 0.4738155 -0.1853437 0.5
v 0.4414511 -0.08147556 0.5
v 0.4414511 -0.08147556 -0.5
v 0.4738155 -0.1853437 -0.5
v 0.4414511 -0.08147556 0.5
v 0.3968032 0.01773864 0.5
v 0.3968032 0.01773864 -0.5
v 0.4414511 -0.08147556 -0.5
v 0.3968032 0.01773864 0.5
v 0.3405127 0.1108339 0.5
v 0.3405127 0.1108339 -0.5
v 0.3968032 0.01773864 -0.5
v 0.3405127 0.1108339 0.5
v 0.2734188 0.1964828 0.5
v 0.2734188 0.1964828 -0.5
v 0.3405127 0.1108339 -0.5
v 0.2734188 0.1964828 0.5
v 0.1964828 0.2734188 0.5
v 0.1964828 0.2734188 -0.5
v 0.2734188 0.1964828 -0.5
v 0.1964828 0.2734188 0.5
v 0.1108339 0.3405127 0.5
v 0.1108339 0.3405127 -0.5
v 0.1964828 0.2734188 -0.5
v 0.1108339 0.3405127 0.5
v 0.01773861 0.3968033 0.5
v 0.01773861 0.3968033 -0.5
v 0.1108339 0.3405127 -0.5
v 0.01773861 0.3968033 0.5
v -0.08147556 0.4414511 0.5
v -0.08147556 0.4414511 -0.5
v 0.01773861 0.3968033 -0.5
v -0.08147556 0.4414511 0.5
v -0.1853437 0.4738155 0.5
v -0.1853437 0.4738155 -0.5
v -0.08147556 0.4414511 -0.5
v -0.1853437 0.4738155 0.5
v -0.2923705 0.4934233 0.5
v -0.2923705 0.4934233 -0.5
v -0.1853437 0.4738155 -0.5
v -0.2923705 0.4934233 0.5
v -0.400969 0.5 0.5
v -0.400969 0.5 -0.5
v -0.2923705 0.4934233 -0.5
v -0.5 0.5 -0.5
v -0.400969 0.5 -0.5
v -0.400969 0.5 0.5
v -0.5 0.5 0.5
vn -0.003921509 0.003921509 -0.9999846
vn -0.003921509 0.003921509 -0.9999846
vn -0.003921509 0.003921509 -0.9999846
vn -0.003921509 0.003921509 -0.9999846
vn -0.003921509 0.003921509 -0.9999846
vn -0.003921509 0.003921509 -0.9999846
vn -0.003921509 0.003921509 -0.9999846
vn -0.003921509 0.003921509 -0.9999846
vn -0.003921509 0.003921509 -0.9999846
vn -0.003921509 0.003921509 -0.9999846
vn -0.003921509 0.003921509 -0.9999846
vn -0.003921509 0.003921509 -0.9999846
vn -0.003921509 0.003921509 -0.9999846
vn -0.003921509 0.003921509 -0.9999846
vn -0.003921509 0.003921509 -0.9999846
vn -0.003921509 0.003921509 -0.9999846
vn -0.003921509 0.003921509 -0.9999846
vn -0.003921509 -0.9999924 0
vn -0.003921509 -0.9999924 0
vn -0.003921509 -0.9999924 0
vn -0.003921509 -0.9999924 0
vn -0.9999923 0.003921509 -0.0003449296
vn -0.9999923 0.003921509 -0.0003449296
vn -0.9999923 0.003921509 -0.0003449296
vn -0.9999923 0.003921509 -0.0003449296
vn -0.003921509 0.003921509 0.9999846
vn -0.003921509 0.003921509 0.9999846
vn -0.003921509 0.003921509 0.9999846
vn -0.003921509 0.003921509 0.9999846
vn -0.003921509 0.003921509 0.9999846
vn -0.003921509 0.003921509 0.9999846
vn -0.003921509 0.003921509 0.9999846
vn -0.003921509 0.003921509 0.9999846
vn -0.003921509 0.003921509 0.9999846
vn -0.003921509 0.003921509 0.9999846
vn -0.003921509 0.003921509 0.9999846
vn -0.003921509 0.003921509 0.9999846
vn -0.003921509 0.003921509 0.9999846
vn -0.003921509 0.003921509 0.9999846
vn -0.003921509 0.003921509 0.9999846
vn -0.003921509 0.003921509 0.9999846
vn -0.003921509 0.003921509 0.9999846
vn 0.9999924 0.003921509 0
vn 0.9999924 0.003921509 0
vn 0.9999924 0.003921509 0
vn 0.9999924 0.003921509 0
vn 0.9982743 0.05872193 0
vn 0.9982743 0.05872193 0
vn 0.9982743 0.05872193 0
vn 0.9982743 0.05872193 0
vn 0.9843062 0.1764692 0
vn 0.9843062 0.1764692 0
vn 0.9843062 0.1764692 0
vn 0.9843062 0.1764692 0
vn 0.9529339 0.2941153 -0.07357423
vn 0.9529339 0.2941153 -0.07357423
vn 0.9529339 0.2941153 -0.07357423
vn 0.9529339 0.2941153 -0.07357423
vn 0.9117018 0.4108527 0
vn 0.9117018 0.4108527 0
vn 0.9117018 0.4108527 0
vn 0.9117018 0.4108527 0
vn 0.8581837 0.5133427 0
vn 0.8581837 0.5133427 0
vn 0.8581837 0.5133427 0
vn 0.8581837 0.5133427 0
vn 0.7880839 0.6155679 0
vn 0.7880839 0.6155679 0
vn 0.7880839 0.6155679 0
vn 0.7880839 0.6155679 0
vn 0.7071068 0.7071068 0
vn 0.7071068 0.7071068 0
vn 0.7071068 0.7071068 0
vn 0.7071068 0.7071068 0
vn 0.615568 0.7880838 0
vn 0.615568 0.7880838 0
vn 0.615568 0.7880838 0
vn 0.615568 0.7880838 0
vn 0.5133428 0.8581836 0
vn 0.5133428 0.8581836 0
vn 0.5133428 0.8581836 0
vn 0.5133428 0.8581836 0
vn 0.4108528 0.9117017 0
vn 0.4108528 0.9117017 0
vn 0.4108528 0.9117017 0
vn 0.4108528 0.9117017 0
vn 0.2941154 0.9529338 -0.0735755
vn 0.2941154 0.9529338 -0.0735755
vn 0.2941154 0.9529338 -0.0735755
vn 0.2941154 0.9529338 -0.0735755
vn 0.1764693 0.9843061 -0.000345267
vn 0.1764693 0.9843061 -0.000345267
vn 0.1764693 0.9843061 -0.000345267
vn 0.1764693 0.9843061 -0.000345267
vn 0.05872206 0.9982743 0
vn 0.05872206 0.9982743 0
vn 0.05872206 0.9982743 0
vn 0.05872206 0.9982743 0
vn -0.003921509 0.9999923 -0.000345267
vn -0.003921509 0.9999923 -0.000345267
vn -0.003921509 0.9999923 -0.000345267
vn -0.003921509 0.9999923 -0.000345267
g Sapone_Lato_0
f 3/3/3 2/2/2 1/1/1
f 1/1/1 4/4/4 3/3/3
f 1/1/1 5/5/5 4/4/4
f 1/1/1 6/6/6 5/5/5
f 1/1/1 7/7/7 6/6/6
f 1/1/1 8/8/8 7/7/7
f 1/1/1 9/9/9 8/8/8
f 1/1/1 10/10/10 9/9/9
f 1/1/1 11/11/11 10/10/10
f 1/1/1 12/12/12 11/11/11
f 1/1/1 13/13/13 12/12/12
f 1/1/1 14/14/14 13/13/13
f 1/1/1 15/15/15 14/14/14
f 1/1/1 16/16/16 15/15/15
f 1/1/1 17/17/17 16/16/16
f 20/20/20 19/19/19 18/18/18
f 21/21/21 20/20/20 18/18/18
f 24/24/24 23/23/23 22/22/22
f 25/25/25 24/24/24 22/22/22
f 28/28/28 27/27/27 26/26/26
f 26/26/26 29/29/29 28/28/28
f 26/26/26 30/30/30 29/29/29
f 30/30/30 31/31/31 29/29/29
f 31/31/31 32/32/32 29/29/29
f 32/32/32 33/33/33 29/29/29
f 33/33/33 34/34/34 29/29/29
f 34/34/34 35/35/35 29/29/29
f 35/35/35 36/36/36 29/29/29
f 36/36/36 37/37/37 29/29/29
f 37/37/37 38/38/38 29/29/29
f 38/38/38 39/39/39 29/29/29
f 39/39/39 40/40/40 29/29/29
f 40/40/40 41/41/41 29/29/29
f 41/41/41 42/42/42 29/29/29
f 45/45/45 44/44/44 43/43/43
f 46/46/46 45/45/45 43/43/43
f 49/49/49 48/48/48 47/47/47
f 50/50/50 49/49/49 47/47/47
f 53/53/53 52/52/52 51/51/51
f 54/54/54 53/53/53 51/51/51
f 57/57/57 56/56/56 55/55/55
f 58/58/58 57/57/57 55/55/55
f 61/61/61 60/60/60 59/59/59
f 62/62/62 61/61/61 59/59/59
f 65/65/65 64/64/64 63/63/63
f 66/66/66 65/65/65 63/63/63
f 69/69/69 68/68/68 67/67/67
f 70/70/70 69/69/69 67/67/67
f 73/73/73 72/72/72 71/71/71
f 74/74/74 73/73/73 71/71/71
f 77/77/77 76/76/76 75/75/75
f 78/78/78 77/77/77 75/75/75
f 81/81/81 80/80/80 79/79/79
f 82/82/82 81/81/81 79/79/79
f 85/85/85 84/84/84 83/83/83
f 86/86/86 85/85/85 83/83/83
f 89/89/89 88/88/88 87/87/87
f 90/90/90 89/89/89 87/87/87
f 93/93/93 92/92/92 91/91/91
f 94/94/94 93/93/93 91/91/91
f 97/97/97 96/96/96 95/95/95
f 98/98/98 97/97/97 95/95/95
f 101/101/101 100/100/100 99/99/99
f 102/102/102 101/101/101 99/99/99
