g SferaLowPoly
v -2.833597E-08 -0.7310093 0.07351329
v 0.0367567 -0.7310094 0.06366435
v -4.540209E-07 -0.7346208 -5.628717E-07
v -0.03675678 -0.7310094 0.06366444
v 0.0636645 -0.7310093 0.03675657
v -0.0636646 -0.7310094 0.03675661
v 0.07351345 -0.7310094 -1.605403E-07
v 0.1767741 -0.6460617 0.3061816
v -2.833597E-08 -0.6460617 0.353548
v 0.3061818 -0.6460617 0.176774
v -0.1767742 -0.6460617 0.3061818
v 0.3535483 -0.6460617 -2.052437E-07
v 0.5020857 -0.4604158 0.2898791
v 0.2898792 -0.4604158 0.5020854
v -2.833597E-08 -0.4604159 0.5797583
v 0.5797588 -0.4604158 -2.052437E-07
v -0.3061819 -0.6460618 0.176774
v -0.2898794 -0.4604158 0.502086
v -0.07351354 -0.7310094 -1.605403E-07
v 0.3061818 -0.6460617 -0.1767745
v 0.5020858 -0.4604158 -0.2898797
v 0.06366451 -0.7310094 -0.03675688
v 0.7177061 -0.2023342 -1.605403E-07
v 0.6215518 -0.2023342 -0.3588532
v 0.6215516 -0.2023342 0.3588529
v 0.3588529 -0.2023342 0.6215515
v -2.833597E-08 -0.2023342 0.7177057
v 0.1767742 -0.6460617 -0.3061821
v 0.2898794 -0.4604158 -0.5020863
v 0.3588531 -0.2023342 -0.621552
v 0.03675671 -0.7310094 -0.06366471
v 0.6463921 0.08889223 0.3731945
v 0.3731946 0.08889223 0.6463919
v 0.7463894 0.08889224 -2.387713E-07
v 0.6463923 0.08889227 -0.373195
v 0.3731948 0.08889227 -0.6463926
v -1.681327E-08 -0.6460617 -0.3535486
v -3.357707E-08 -0.7310094 -0.07351369
v -7.828055E-08 -0.4604158 -0.5797592
v -1.122533E-08 -0.2023342 -0.7177064
v -5.034087E-08 0.08889227 -0.7463899
v 0.5728254 0.3689271 -0.3307211
v 0.3307209 0.3689271 -0.5728257
v -5.59288E-08 0.368927 -0.6614422
v 0.6614417 0.368927 -1.82892E-07
v 0.5728252 0.368927 0.3307207
v -0.3588532 -0.2023342 -0.6215521
v -0.3731949 0.08889227 -0.6463927
v -0.3307211 0.368927 -0.5728258
v -0.2898796 -0.4604158 -0.5020863
v -0.1767742 -0.6460617 -0.3061821
v -0.03675679 -0.7310094 -0.06366471
v -0.0636646 -0.7310094 -0.03675688
v -0.3061819 -0.6460617 -0.1767745
v -0.3535484 -0.6460617 -2.052437E-07
v -0.5020861 -0.4604158 -0.2898797
v -0.6215519 -0.2023342 -0.3588533
v -0.5020859 -0.4604158 0.2898794
v -0.579759 -0.4604158 -1.158368E-07
v -0.3588531 -0.2023343 0.6215518
v -0.7177063 -0.2023342 -1.605403E-07
v -0.6215518 -0.2023343 0.358853
v -0.6463926 0.08889227 -0.373195
v -2.833597E-08 0.08889218 0.746389
v -0.3731949 0.08889218 0.6463926
v -0.7463899 0.08889224 -1.158368E-07
v -0.6463926 0.08889223 0.3731949
v -0.5728257 0.368927 -0.3307212
v 0.3307207 0.368927 0.572825
v -2.833597E-08 0.368927 0.6614413
v -0.3307211 0.368927 0.5728258
v -0.6614422 0.368927 -1.158368E-07
v -0.5728257 0.368927 0.3307211
v -0.4120512 0.5951374 -0.237898
v -0.4757957 0.5951373 -1.605403E-07
v -0.4120512 0.5951373 0.2378977
v -0.2378978 0.5951373 0.4120512
v -2.833597E-08 0.5951373 0.4757952
v -0.2378979 0.5951373 -0.4120513
v 0.2378976 0.5951373 0.4120507
v -4.475294E-08 0.5951373 -0.4757957
v 0.4120508 0.5951373 0.2378976
v 0.2378978 0.5951372 -0.4120512
v 0.4757954 0.5951373 -2.052437E-07
v 0.4120509 0.5951372 -0.2378979
v 0.1088568 0.7330847 0.1885454
v 0.1885456 0.7330847 0.1088568
v 0.2177137 0.7330846 -1.158368E-07
v 0.1885457 0.7330846 -0.108857
v -2.833597E-08 0.7653792 -1.158368E-07
v -2.833597E-08 0.7330846 0.2177135
v 0.1088569 0.7330846 -0.1885458
v 1.950832E-08 0.7330846 -0.217714
v -0.1088569 0.7330846 0.1885456
v -0.1088569 0.7330846 -0.1885458
v -0.1885457 0.7330846 0.1088568
v -0.1885457 0.7330846 -0.108857
v -0.2177138 0.7330846 -1.605403E-07
vn 0 -0.9816697 0.1905903
vn 0.09527969 -0.9816678 0.1650762
vn 0 -1 0
vn -0.09527969 -0.9816678 0.1650762
vn 0.1650762 -0.9816678 0.09527969
vn -0.1650762 -0.9816678 0.09527969
vn 0.1905903 -0.9816697 0
vn 0.2479099 -0.868402 0.42944
vn 0 -0.8684065 0.495853
vn 0.42944 -0.868402 0.2479099
vn -0.2479099 -0.868402 0.42944
vn 0.495853 -0.8684065 0
vn 0.6801808 -0.6189899 0.3926902
vn 0.3926902 -0.6189899 0.6801808
vn 0 -0.6189989 0.7853919
vn 0.7853919 -0.6189989 0
vn -0.42944 -0.868402 0.2479099
vn -0.3926902 -0.6189899 0.6801808
vn -0.1905903 -0.9816697 0
vn 0.42944 -0.868402 -0.2479099
vn 0.6801808 -0.6189899 -0.3926902
vn 0.1650762 -0.9816678 -0.09527969
vn 0.9594956 -0.2817235 0
vn 0.830954 -0.2817253 -0.4797358
vn 0.830954 -0.2817253 0.4797358
vn 0.4797358 -0.2817253 0.830954
vn 0 -0.2817235 0.9594956
vn 0.2479099 -0.868402 -0.42944
vn 0.3926902 -0.6189899 -0.6801808
vn 0.4797358 -0.2817253 -0.830954
vn 0.09527969 -0.9816678 -0.1650762
vn 0.862108 0.09500645 0.4977386
vn 0.4977386 0.09500645 0.862108
vn 0.9954767 0.0950064 0
vn 0.862108 0.09500645 -0.4977386
vn 0.4977386 0.09500645 -0.862108
vn 0 -0.8684065 -0.495853
vn 0 -0.9816697 -0.1905903
vn 0 -0.6189989 -0.7853919
vn 0 -0.2817235 -0.9594956
vn 0 0.0950064 -0.9954767
vn 0.7696318 0.4584891 -0.4443588
vn 0.4443588 0.4584891 -0.7696318
vn 0 0.458482 -0.8887038
vn 0.8887038 0.458482 0
vn 0.7696318 0.4584891 0.4443588
vn -0.4797358 -0.2817253 -0.830954
vn -0.4977386 0.09500645 -0.862108
vn -0.4443588 0.4584891 -0.7696318
vn -0.3926902 -0.6189899 -0.6801808
vn -0.2479099 -0.868402 -0.42944
vn -0.09527969 -0.9816678 -0.1650762
vn -0.1650762 -0.9816678 -0.09527969
vn -0.42944 -0.868402 -0.2479099
vn -0.495853 -0.8684065 0
vn -0.6801808 -0.6189899 -0.3926902
vn -0.830954 -0.2817253 -0.4797358
vn -0.6801808 -0.6189899 0.3926902
vn -0.7853919 -0.6189989 0
vn -0.4797358 -0.2817253 0.830954
vn -0.9594956 -0.2817235 0
vn -0.830954 -0.2817253 0.4797358
vn -0.862108 0.09500645 -0.4977386
vn 0 0.0950064 0.9954767
vn -0.4977386 0.09500645 0.862108
vn -0.9954767 0.0950064 0
vn -0.862108 0.09500645 0.4977386
vn -0.7696318 0.4584891 -0.4443588
vn 0.4443588 0.4584891 0.7696318
vn 0 0.458482 0.8887038
vn -0.4443342 0.4584953 0.7696422
vn -0.8887038 0.458482 0
vn -0.7696318 0.4584891 0.4443588
vn -0.5654889 0.7573931 -0.3264631
vn -0.6529577 0.7573944 0
vn -0.5654889 0.7573931 0.3264631
vn -0.3264631 0.7573931 0.5654889
vn 0 0.7573944 0.6529577
vn -0.3264631 0.7573931 -0.5654889
vn 0.3264631 0.7573931 0.5654889
vn 0 0.7573944 -0.6529577
vn 0.5654889 0.7573931 0.3264631
vn 0.3264631 0.7573931 -0.5654889
vn 0.6529577 0.7573944 0
vn 0.5654889 0.7573931 -0.3264631
vn 0.1694106 0.9408376 0.29347
vn 0.29347 0.9408376 0.1694106
vn 0.3388794 0.9408298 0
vn 0.2934685 0.9408328 -0.1694402
vn 0 1 0
vn 0 0.9408395 0.3388524
vn 0.1694402 0.9408328 -0.2934685
vn 0 0.9408395 -0.3388524
vn -0.1694106 0.9408376 0.29347
vn -0.1694106 0.9408376 -0.29347
vn -0.2934685 0.9408328 0.1694402
vn -0.2934685 0.9408328 -0.1694402
vn -0.3388524 0.9408395 0
g SferaLowPoly_0
f 3/3/3 2/2/2 1/1/1
f 3/3/3 1/1/1 4/4/4
f 3/3/3 5/5/5 2/2/2
f 3/3/3 4/4/4 6/6/6
f 3/3/3 7/7/7 5/5/5
f 1/1/1 2/2/2 8/8/8
f 1/1/1 9/9/9 4/4/4
f 9/9/9 1/1/1 8/8/8
f 2/2/2 5/5/5 10/10/10
f 8/8/8 2/2/2 10/10/10
f 6/6/6 4/4/4 11/11/11
f 9/9/9 11/11/11 4/4/4
f 5/5/5 7/7/7 12/12/12
f 10/10/10 5/5/5 12/12/12
f 8/8/8 10/10/10 13/13/13
f 9/9/9 8/8/8 14/14/14
f 14/14/14 8/8/8 13/13/13
f 9/9/9 15/15/15 11/11/11
f 15/15/15 9/9/9 14/14/14
f 10/10/10 12/12/12 16/16/16
f 13/13/13 10/10/10 16/16/16
f 17/17/17 6/6/6 11/11/11
f 15/15/15 18/18/18 11/11/11
f 17/17/17 11/11/11 18/18/18
f 19/19/19 6/6/6 17/17/17
f 3/3/3 6/6/6 19/19/19
f 12/12/12 7/7/7 20/20/20
f 16/16/16 12/12/12 21/21/21
f 12/12/12 20/20/20 21/21/21
f 3/3/3 22/22/22 7/7/7
f 7/7/7 22/22/22 20/20/20
f 13/13/13 16/16/16 23/23/23
f 16/16/16 21/21/21 24/24/24
f 23/23/23 16/16/16 24/24/24
f 25/25/25 13/13/13 23/23/23
f 14/14/14 13/13/13 25/25/25
f 26/26/26 14/14/14 25/25/25
f 15/15/15 14/14/14 26/26/26
f 27/27/27 15/15/15 26/26/26
f 15/15/15 27/27/27 18/18/18
f 20/20/20 22/22/22 28/28/28
f 21/21/21 20/20/20 29/29/29
f 20/20/20 28/28/28 29/29/29
f 24/24/24 21/21/21 30/30/30
f 21/21/21 29/29/29 30/30/30
f 22/22/22 31/31/31 28/28/28
f 3/3/3 31/31/31 22/22/22
f 26/26/26 25/25/25 32/32/32
f 27/27/27 26/26/26 33/33/33
f 33/33/33 26/26/26 32/32/32
f 32/32/32 25/25/25 34/34/34
f 25/25/25 23/23/23 34/34/34
f 23/23/23 24/24/24 35/35/35
f 34/34/34 23/23/23 35/35/35
f 24/24/24 30/30/30 36/36/36
f 35/35/35 24/24/24 36/36/36
f 28/28/28 31/31/31 37/37/37
f 3/3/3 38/38/38 31/31/31
f 31/31/31 38/38/38 37/37/37
f 28/28/28 37/37/37 39/39/39
f 29/29/29 28/28/28 39/39/39
f 30/30/30 29/29/29 40/40/40
f 29/29/29 39/39/39 40/40/40
f 36/36/36 30/30/30 41/41/41
f 30/30/30 40/40/40 41/41/41
f 34/34/34 35/35/35 42/42/42
f 35/35/35 36/36/36 43/43/43
f 42/42/42 35/35/35 43/43/43
f 36/36/36 41/41/41 44/44/44
f 43/43/43 36/36/36 44/44/44
f 45/45/45 34/34/34 42/42/42
f 32/32/32 34/34/34 45/45/45
f 46/46/46 32/32/32 45/45/45
f 33/33/33 32/32/32 46/46/46
f 40/40/40 39/39/39 47/47/47
f 41/41/41 40/40/40 48/48/48
f 40/40/40 47/47/47 48/48/48
f 44/44/44 41/41/41 49/49/49
f 41/41/41 48/48/48 49/49/49
f 39/39/39 50/50/50 47/47/47
f 39/39/39 37/37/37 50/50/50
f 37/37/37 51/51/51 50/50/50
f 37/37/37 38/38/38 51/51/51
f 38/38/38 52/52/52 51/51/51
f 3/3/3 52/52/52 38/38/38
f 3/3/3 53/53/53 52/52/52
f 3/3/3 19/19/19 53/53/53
f 51/51/51 52/52/52 54/54/54
f 52/52/52 53/53/53 54/54/54
f 53/53/53 19/19/19 55/55/55
f 54/54/54 53/53/53 55/55/55
f 55/55/55 19/19/19 17/17/17
f 50/50/50 51/51/51 56/56/56
f 51/51/51 54/54/54 56/56/56
f 47/47/47 50/50/50 57/57/57
f 50/50/50 56/56/56 57/57/57
f 55/55/55 17/17/17 58/58/58
f 58/58/58 17/17/17 18/18/18
f 54/54/54 55/55/55 59/59/59
f 56/56/56 54/54/54 59/59/59
f 59/59/59 55/55/55 58/58/58
f 58/58/58 18/18/18 60/60/60
f 27/27/27 60/60/60 18/18/18
f 56/56/56 59/59/59 61/61/61
f 57/57/57 56/56/56 61/61/61
f 59/59/59 58/58/58 62/62/62
f 62/62/62 58/58/58 60/60/60
f 61/61/61 59/59/59 62/62/62
f 47/47/47 57/57/57 63/63/63
f 48/48/48 47/47/47 63/63/63
f 27/27/27 64/64/64 60/60/60
f 64/64/64 27/27/27 33/33/33
f 62/62/62 60/60/60 65/65/65
f 64/64/64 65/65/65 60/60/60
f 57/57/57 61/61/61 66/66/66
f 63/63/63 57/57/57 66/66/66
f 61/61/61 62/62/62 67/67/67
f 67/67/67 62/62/62 65/65/65
f 66/66/66 61/61/61 67/67/67
f 48/48/48 63/63/63 68/68/68
f 49/49/49 48/48/48 68/68/68
f 64/64/64 33/33/33 69/69/69
f 69/69/69 33/33/33 46/46/46
f 64/64/64 70/70/70 65/65/65
f 70/70/70 64/64/64 69/69/69
f 67/67/67 65/65/65 71/71/71
f 70/70/70 71/71/71 65/65/65
f 63/63/63 66/66/66 72/72/72
f 68/68/68 63/63/63 72/72/72
f 66/66/66 67/67/67 73/73/73
f 73/73/73 67/67/67 71/71/71
f 72/72/72 66/66/66 73/73/73
f 49/49/49 68/68/68 74/74/74
f 68/68/68 72/72/72 75/75/75
f 74/74/74 68/68/68 75/75/75
f 72/72/72 73/73/73 76/76/76
f 75/75/75 72/72/72 76/76/76
f 73/73/73 71/71/71 77/77/77
f 76/76/76 73/73/73 77/77/77
f 70/70/70 78/78/78 71/71/71
f 78/78/78 77/77/77 71/71/71
f 79/79/79 49/49/49 74/74/74
f 44/44/44 49/49/49 79/79/79
f 78/78/78 70/70/70 80/80/80
f 70/70/70 69/69/69 80/80/80
f 81/81/81 44/44/44 79/79/79
f 43/43/43 44/44/44 81/81/81
f 80/80/80 69/69/69 82/82/82
f 69/69/69 46/46/46 82/82/82
f 83/83/83 43/43/43 81/81/81
f 42/42/42 43/43/43 83/83/83
f 82/82/82 46/46/46 84/84/84
f 46/46/46 45/45/45 84/84/84
f 45/45/45 42/42/42 85/85/85
f 85/85/85 42/42/42 83/83/83
f 84/84/84 45/45/45 85/85/85
f 78/78/78 80/80/80 86/86/86
f 80/80/80 82/82/82 87/87/87
f 86/86/86 80/80/80 87/87/87
f 82/82/82 84/84/84 88/88/88
f 87/87/87 82/82/82 88/88/88
f 84/84/84 85/85/85 89/89/89
f 88/88/88 84/84/84 89/89/89
f 88/88/88 90/90/90 87/87/87
f 87/87/87 90/90/90 86/86/86
f 89/89/89 90/90/90 88/88/88
f 86/86/86 90/90/90 91/91/91
f 91/91/91 78/78/78 86/86/86
f 92/92/92 90/90/90 89/89/89
f 89/89/89 85/85/85 92/92/92
f 85/85/85 83/83/83 92/92/92
f 78/78/78 91/91/91 77/77/77
f 92/92/92 83/83/83 93/93/93
f 93/93/93 90/90/90 92/92/92
f 83/83/83 81/81/81 93/93/93
f 91/91/91 94/94/94 77/77/77
f 91/91/91 90/90/90 94/94/94
f 76/76/76 77/77/77 94/94/94
f 93/93/93 81/81/81 95/95/95
f 95/95/95 90/90/90 93/93/93
f 81/81/81 79/79/79 95/95/95
f 96/96/96 76/76/76 94/94/94
f 94/94/94 90/90/90 96/96/96
f 75/75/75 76/76/76 96/96/96
f 95/95/95 79/79/79 97/97/97
f 97/97/97 90/90/90 95/95/95
f 79/79/79 74/74/74 97/97/97
f 98/98/98 75/75/75 96/96/96
f 96/96/96 90/90/90 98/98/98
f 98/98/98 90/90/90 97/97/97
f 74/74/74 75/75/75 98/98/98
f 97/97/97 74/74/74 98/98/98
