g SferaLowPoly
v 2.145767E-06 -0.6307998 -0.4458858
v 2.145767E-06 -0.7463942 -2.145767E-06
v 0.1939589 -0.7238566 -2.145767E-06
v -0.1939546 -0.7238566 -2.145767E-06
v 0.3153894 -0.5462782 -0.4458858
v 0.3731981 -0.6463938 -2.145767E-06
v 0.5298998 -0.5298998 -2.145767E-06
v -0.3153852 -0.5462782 -0.4458858
v -0.3731939 -0.6463938 -2.145767E-06
v -0.5298955 -0.5298998 -2.145767E-06
v 0.5462782 -0.3153894 -0.4458858
v 0.6463938 -0.3731981 -2.145767E-06
v 0.7238566 -0.1939589 -2.145767E-06
v -0.5462739 -0.3153894 -0.4458858
v -0.6463896 -0.3731981 -2.145767E-06
v -0.7238523 -0.1939589 -2.145767E-06
v 0.6307998 -2.145767E-06 -0.4458858
v 0.7463942 -2.145767E-06 -2.145767E-06
v 0.7238566 0.1939546 -2.145767E-06
v -0.6307956 -2.145767E-06 -0.4458858
v -0.7463899 -2.145767E-06 -2.145767E-06
v -0.7238523 0.1939546 -2.145767E-06
v 0.5462782 0.3153852 -0.4458858
v 0.6463938 0.3731939 -2.145767E-06
v 0.5298998 0.5298955 -2.145767E-06
v -0.5462739 0.3153852 -0.4458858
v -0.6463896 0.3731939 -2.145767E-06
v -0.5298955 0.5298955 -2.145767E-06
v 0.3153894 0.5462739 -0.4458858
v 0.3731981 0.6463896 -2.145767E-06
v 0.1939589 0.7238523 -2.145767E-06
v -0.3153852 0.5462739 -0.4458858
v -0.3731939 0.6463896 -2.145767E-06
v -0.1939546 0.7238523 -2.145767E-06
v 2.145767E-06 0.6307956 -0.4458858
v 2.145767E-06 0.7463899 -2.145767E-06
v -0.4120406 0.2378994 -0.5951365
v -0.2378994 0.4120406 -0.5951365
v 2.145767E-06 0.4758009 -0.5951365
v 0.2379036 0.4120406 -0.5951365
v -0.1088563 0.1885567 -0.7330838
v -0.4758009 -2.145767E-06 -0.5951365
v -0.2177148 -2.145767E-06 -0.7330838
v -0.4120406 -0.2379036 -0.5951365
v 0.1088606 0.1885567 -0.7330838
v 0.4120449 0.2378994 -0.5951365
v 2.145767E-06 -2.145767E-06 -0.7653792
v 0.217719 -2.145767E-06 -0.7330838
v 0.4758051 -2.145767E-06 -0.5951365
v -0.2378994 -0.4120449 -0.5951365
v -0.1088563 -0.1885378 -0.7330838
v 0.1088606 -0.1885378 -0.7330838
v 0.4120449 -0.2379036 -0.5951365
v 2.145767E-06 -0.4758051 -0.5951365
v 0.2379036 -0.4120449 -0.5951365
vn -0.003796041 -0.8617083 -0.5073898
vn -0.003796041 -0.9679983 -0.2509281
vn 0.2467447 -0.9300376 -0.2722999
vn -0.2467446 -0.9300376 -0.2722999
vn 0.4289561 -0.7478261 -0.5067078
vn 0.4821011 -0.8389319 -0.2525309
vn 0.6794968 -0.6794968 -0.2767095
vn -0.428956 -0.7478261 -0.5067078
vn -0.4821011 -0.8389319 -0.252531
vn -0.6794968 -0.6794968 -0.2767097
vn 0.7478261 -0.4289561 -0.5067078
vn 0.8389319 -0.4821011 -0.2525309
vn 0.9300376 -0.2467447 -0.2722999
vn -0.747826 -0.4289561 -0.506708
vn -0.8389318 -0.4821011 -0.2525311
vn -0.9300375 -0.2467447 -0.2723001
vn 0.8617083 0.003796041 -0.5073898
vn 0.9679983 0.003796041 -0.2509281
vn 0.9300376 0.2467446 -0.2722999
vn -0.8617082 0.003796041 -0.50739
vn -0.9679981 0.003796041 -0.2509286
vn -0.9300375 0.2467446 -0.2723001
vn 0.7478261 0.428956 -0.5067078
vn 0.8389319 0.4821011 -0.252531
vn 0.6794968 0.6794968 -0.2767096
vn -0.747826 0.428956 -0.506708
vn -0.8389318 0.4821011 -0.2525311
vn -0.6794968 0.6794968 -0.2767098
vn 0.4289561 0.747826 -0.506708
vn 0.4821011 0.8389318 -0.252531
vn 0.2467447 0.9300375 -0.2723001
vn -0.428956 0.747826 -0.506708
vn -0.4821011 0.8389318 -0.2525311
vn -0.2467446 0.9300375 -0.2723001
vn -0.003796041 0.8617082 -0.50739
vn -0.003796041 0.9679981 -0.2509286
vn -0.5200617 0.2922975 -0.8025572
vn -0.3074818 0.5124696 -0.8017668
vn -0.003796041 0.5959831 -0.802988
vn 0.2922975 0.5048774 -0.8121951
vn -0.1480467 0.2922975 -0.9447986
vn -0.5959831 -0.01138824 -0.8029162
vn -0.3302581 0.01898032 -0.9436998
vn -0.5124696 -0.2998897 -0.8046373
vn 0.1708233 0.2922975 -0.9409472
vn 0.5200619 0.2922975 -0.8025571
vn -0.003796041 0.003796041 -0.9999856
vn 0.3302583 0.01898032 -0.9436997
vn 0.5959833 -0.01138824 -0.8029161
vn -0.2998896 -0.5200619 -0.7997512
vn -0.163231 -0.2771133 -0.9468706
vn 0.1784154 -0.2771133 -0.9441272
vn 0.5124696 -0.2998897 -0.8046373
vn -0.003796041 -0.5959833 -0.8029879
vn 0.2847054 -0.5200619 -0.8052816
g SferaLowPoly_0
f 3/3/3 2/2/2 1/1/1
f 1/1/1 2/2/2 4/4/4
f 1/1/1 5/5/5 3/3/3
f 5/5/5 6/6/6 3/3/3
f 7/7/7 6/6/6 5/5/5
f 8/8/8 1/1/1 4/4/4
f 4/4/4 9/9/9 8/8/8
f 8/8/8 9/9/9 10/10/10
f 5/5/5 11/11/11 7/7/7
f 11/11/11 12/12/12 7/7/7
f 13/13/13 12/12/12 11/11/11
f 14/14/14 8/8/8 10/10/10
f 10/10/10 15/15/15 14/14/14
f 14/14/14 15/15/15 16/16/16
f 11/11/11 17/17/17 13/13/13
f 17/17/17 18/18/18 13/13/13
f 19/19/19 18/18/18 17/17/17
f 20/20/20 14/14/14 16/16/16
f 16/16/16 21/21/21 20/20/20
f 20/20/20 21/21/21 22/22/22
f 17/17/17 23/23/23 19/19/19
f 23/23/23 24/24/24 19/19/19
f 25/25/25 24/24/24 23/23/23
f 26/26/26 20/20/20 22/22/22
f 22/22/22 27/27/27 26/26/26
f 26/26/26 27/27/27 28/28/28
f 23/23/23 29/29/29 25/25/25
f 29/29/29 30/30/30 25/25/25
f 31/31/31 30/30/30 29/29/29
f 32/32/32 26/26/26 28/28/28
f 28/28/28 33/33/33 32/32/32
f 32/32/32 33/33/33 34/34/34
f 29/29/29 35/35/35 31/31/31
f 35/35/35 32/32/32 34/34/34
f 35/35/35 36/36/36 31/31/31
f 34/34/34 36/36/36 35/35/35
f 20/20/20 26/26/26 37/37/37
f 26/26/26 32/32/32 38/38/38
f 37/37/37 26/26/26 38/38/38
f 32/32/32 35/35/35 39/39/39
f 38/38/38 32/32/32 39/39/39
f 35/35/35 29/29/29 40/40/40
f 39/39/39 35/35/35 40/40/40
f 38/38/38 39/39/39 41/41/41
f 37/37/37 38/38/38 41/41/41
f 42/42/42 20/20/20 37/37/37
f 14/14/14 20/20/20 42/42/42
f 42/42/42 37/37/37 43/43/43
f 43/43/43 37/37/37 41/41/41
f 44/44/44 14/14/14 42/42/42
f 44/44/44 42/42/42 43/43/43
f 8/8/8 14/14/14 44/44/44
f 41/41/41 39/39/39 45/45/45
f 39/39/39 40/40/40 45/45/45
f 40/40/40 29/29/29 46/46/46
f 29/29/29 23/23/23 46/46/46
f 41/41/41 47/47/47 43/43/43
f 45/45/45 47/47/47 41/41/41
f 45/45/45 40/40/40 48/48/48
f 40/40/40 46/46/46 48/48/48
f 48/48/48 47/47/47 45/45/45
f 46/46/46 23/23/23 49/49/49
f 46/46/46 49/49/49 48/48/48
f 23/23/23 17/17/17 49/49/49
f 50/50/50 8/8/8 44/44/44
f 1/1/1 8/8/8 50/50/50
f 51/51/51 44/44/44 43/43/43
f 43/43/43 47/47/47 51/51/51
f 50/50/50 44/44/44 51/51/51
f 52/52/52 47/47/47 48/48/48
f 48/48/48 49/49/49 52/52/52
f 51/51/51 47/47/47 52/52/52
f 49/49/49 17/17/17 53/53/53
f 49/49/49 53/53/53 52/52/52
f 17/17/17 11/11/11 53/53/53
f 54/54/54 1/1/1 50/50/50
f 54/54/54 50/50/50 51/51/51
f 5/5/5 1/1/1 54/54/54
f 52/52/52 55/55/55 51/51/51
f 53/53/53 55/55/55 52/52/52
f 53/53/53 11/11/11 55/55/55
f 55/55/55 54/54/54 51/51/51
f 55/55/55 5/5/5 54/54/54
f 11/11/11 5/5/5 55/55/55
