g SferaLowPoly
v -0.6307979 -1.40667E-05 -0.4458696
v -0.7463715 -1.40667E-05 -1.40667E-05
v -0.5299091 -0.5298991 -1.40667E-05
v -0.5299091 0.5299091 -1.40667E-05
v -0.3153919 -0.5462624 -0.4458696
v 1.40667E-05 -0.7463997 -1.40667E-05
v -0.237885 0.4120467 -0.5951239
v 1.40667E-05 0.7463715 -1.40667E-05
v 0.237913 -0.4120367 -0.5951239
v 0.5298991 -0.5298991 -1.40667E-05
v -0.1088465 -0.1885557 -0.7330877
v 0.475812 -1.40667E-05 -0.5951239
v 0.7463997 -1.40667E-05 -1.40667E-05
v 0.5298991 0.5299091 -1.40667E-05
v 0.3153818 0.5462725 -0.4458696
v 0.1088747 0.1885277 -0.7330877
v -0.9174438 -0.9575222 -1.40667E-05
v -0.5728965 -1.070807 -1.40667E-05
v -0.8107955 -0.8921447 -0.2503859
v -1.012764 -0.6296053 -0.2503859
v -0.7500715 -0.7105833 -0.411617
v -0.3223339 -0.9575222 -1.40667E-05
v -0.7534661 -0.4286289 -0.3341864
v -0.9174438 -0.3624505 -1.40667E-05
v -0.6198888 -0.2408882 -1.40667E-05
v -0.44279 -0.353258 -0.2503859
v -0.3223339 -0.3624505 -1.40667E-05
v -0.3527341 -0.6600054 -0.3341864
v -0.2007717 -0.6600054 -1.40667E-05
v 0.3526095 -1.486949 -1.40667E-05
v 0.7057391 -1.159338 -1.40667E-05
v 0.3451335 -1.32095 -0.3325462
v -0.08981311 -1.386938 -0.3325462
v 0.173184 -1.133705 -0.5467583
v 0.7351475 -0.7952611 -1.40667E-05
v -0.1567162 -0.9563779 -0.443848
v -0.3390406 -1.104412 -1.40667E-05
v -0.2890731 -0.680412 -1.40667E-05
v -0.04461348 -0.5468346 -0.3325462
v 0.0434972 -0.4127232 -1.40667E-05
v 0.3698121 -0.6393318 -0.443848
v 0.4674586 -0.4627289 -1.40667E-05
vn -0.8183944 0.01801288 -0.5743746
vn -0.9679984 0.003052473 -0.2509376
vn -0.7061914 -0.6626854 -0.2492826
vn -0.6388696 0.6687904 -0.3802171
vn -0.4069833 -0.722527 -0.5588554
vn 0.0493089 -0.9394528 -0.339112
vn -0.3621021 0.579028 -0.7304853
vn -0.0479337 0.9380776 -0.3430929
vn 0.3709576 -0.5953636 -0.7126939
vn 0.6552052 -0.6327646 -0.4126925
vn -0.1750972 -0.2288337 -0.9575887
vn 0.7075666 -0.01938814 -0.7063806
vn 0.909532 0.003052473 -0.4156227
vn 0.7150468 0.6239092 -0.3153498
vn 0.4307992 0.7136716 -0.5523449
vn 0.1390713 0.2349387 -0.9620099
vn -0.4817854 -0.7748884 -0.4091832
vn 0.1241109 -0.759928 -0.6380485
vn -0.2947803 -0.7150468 -0.6338869
vn -0.691231 0.06289405 -0.7198917
vn -0.1227357 -0.2363139 -0.963894
vn 0.498121 -0.6028438 -0.6232615
vn -0.2424189 0.5939884 -0.7670794
vn -0.4817854 0.7809934 -0.3974068
vn -0.0479337 0.9380776 -0.3430929
vn 0.4083586 0.6762705 -0.613108
vn 0.7150468 0.6239092 -0.3153498
vn 0.5878834 -0.1241109 -0.7993683
vn 0.909532 0.003052473 -0.4156227
vn 0.4457596 -0.797329 -0.4068966
vn 0.7300072 -0.2587546 -0.6325628
vn 0.4831606 -0.6028438 -0.6349293
vn -0.3920229 -0.5804032 -0.7137577
vn 0.1465515 -0.2213535 -0.9641189
vn 0.7674082 0.1451764 -0.6245066
vn -0.6313893 0.07785445 -0.771548
vn -0.915637 -0.04182869 -0.3998241
vn -0.8483152 0.4144636 -0.3295167
vn -0.3995032 0.6837508 -0.6106407
vn -0.1975377 0.9305974 -0.3081678
vn 0.3933982 0.4518645 -0.8006599
vn 0.4382794 0.7959538 -0.4175748
g SferaLowPoly_0
f 3/3/3 2/2/2 1/1/1
f 1/1/1 2/2/2 4/4/4
f 1/1/1 5/5/5 3/3/3
f 5/5/5 6/6/6 3/3/3
f 7/7/7 1/1/1 4/4/4
f 4/4/4 8/8/8 7/7/7
f 5/5/5 9/9/9 6/6/6
f 10/10/10 6/6/6 9/9/9
f 5/5/5 1/1/1 11/11/11
f 9/9/9 5/5/5 11/11/11
f 1/1/1 7/7/7 11/11/11
f 9/9/9 12/12/12 10/10/10
f 12/12/12 9/9/9 11/11/11
f 12/12/12 13/13/13 10/10/10
f 14/14/14 13/13/13 12/12/12
f 15/15/15 8/8/8 14/14/14
f 15/15/15 7/7/7 8/8/8
f 12/12/12 15/15/15 14/14/14
f 7/7/7 16/16/16 11/11/11
f 7/7/7 15/15/15 16/16/16
f 15/15/15 12/12/12 16/16/16
f 16/16/16 12/12/12 11/11/11
f 19/19/19 18/18/18 17/17/17
f 20/20/20 19/19/19 17/17/17
f 19/19/19 21/21/21 18/18/18
f 19/19/19 20/20/20 21/21/21
f 22/22/22 18/18/18 21/21/21
f 20/20/20 23/23/23 21/21/21
f 23/23/23 20/20/20 24/24/24
f 24/24/24 25/25/25 23/23/23
f 26/26/26 23/23/23 25/25/25
f 23/23/23 26/26/26 21/21/21
f 26/26/26 25/25/25 27/27/27
f 21/21/21 28/28/28 22/22/22
f 26/26/26 28/28/28 21/21/21
f 28/28/28 26/26/26 27/27/27
f 28/28/28 29/29/29 22/22/22
f 27/27/27 29/29/29 28/28/28
f 32/32/32 31/31/31 30/30/30
f 33/33/33 32/32/32 30/30/30
f 32/32/32 34/34/34 31/31/31
f 32/32/32 33/33/33 34/34/34
f 35/35/35 31/31/31 34/34/34
f 33/33/33 36/36/36 34/34/34
f 36/36/36 33/33/33 37/37/37
f 37/37/37 38/38/38 36/36/36
f 39/39/39 36/36/36 38/38/38
f 36/36/36 39/39/39 34/34/34
f 39/39/39 38/38/38 40/40/40
f 34/34/34 41/41/41 35/35/35
f 39/39/39 41/41/41 34/34/34
f 41/41/41 39/39/39 40/40/40
f 41/41/41 42/42/42 35/35/35
f 40/40/40 42/42/42 41/41/41
