g Staccionata
v -0.5663004 4.037398 1.835823E-05
v -0.08109093 4.576588 1.835823E-05
v -0.02843976 4.6 1.835823E-05
v 0.02840304 4.6 1.835823E-05
v 0.08115673 4.576588 1.835823E-05
v 0.5662638 4.037398 1.835823E-05
v -0.6000381 3.962562 1.835823E-05
v 0.6000015 3.962562 1.835823E-05
v 0.6000015 -0.05375743 1.835823E-05
v -0.6000381 -0.05375743 1.835823E-05
v 0.6000015 -0.5000153 1.835823E-05
v -0.6000381 -0.5000153 1.835823E-05
v -0.02843976 4.6 -0.1033417
v -0.08109093 4.576588 -0.1033417
v -0.5663004 4.037398 -0.1033417
v 0.02840304 4.6 -0.1033417
v 0.08115673 4.576588 -0.1033417
v 0.5662638 4.037398 -0.1033417
v -0.6000381 3.962562 -0.1033417
v 0.6000015 3.962562 -0.1033417
v 0.6000015 -0.05375743 -0.1033417
v -0.6000381 -0.05375743 -0.1033417
v 0.6000015 -0.5000153 -0.1033417
v -0.6000381 -0.5000153 -0.1033417
v -0.6000381 -0.05375743 1.835823E-05
v -0.6000381 -0.5000153 1.835823E-05
v -0.6000381 -0.5000153 -0.1033417
v -0.6000381 -0.05375743 -0.1033417
v -0.6000381 3.962562 1.835823E-05
v -0.6000381 3.962562 -0.1033417
v -0.5663004 4.037398 1.835823E-05
v -0.5663004 4.037398 -0.1033417
v -0.08109093 4.576588 1.835823E-05
v -0.08109093 4.576588 -0.1033417
v -0.02843976 4.6 1.835823E-05
v -0.02843976 4.6 -0.1033417
v 0.02840304 4.6 1.835823E-05
v 0.02840304 4.6 -0.1033417
v 0.08115673 4.576588 1.835823E-05
v 0.08115673 4.576588 -0.1033417
v 0.5662638 4.037398 1.835823E-05
v 0.5662638 4.037398 -0.1033417
v 0.6000015 3.962562 1.835823E-05
v 0.6000015 3.962562 -0.1033417
v 0.6000015 -0.05375743 1.835823E-05
v 0.6000015 -0.05375743 -0.1033417
v 0.6000015 -0.5000153 1.835823E-05
v 0.6000015 -0.5000153 -0.1033417
v 1.301541 4.6 -0.1033417
v 1.24889 4.576588 -0.1033417
v 0.7636805 4.037398 -0.1033417
v 1.358486 4.6 -0.1033417
v 1.411138 4.576588 -0.1033417
v 1.896347 4.037398 -0.1033417
v 0.730045 3.962562 -0.1033417
v 1.929982 3.962562 -0.1033417
v 1.929982 -0.05375743 -0.1033417
v 0.730045 -0.05375743 -0.1033417
v 1.929982 -0.5000153 -0.1033417
v 0.730045 -0.5000153 -0.1033417
v 0.7636805 4.037398 1.835823E-05
v 1.24889 4.576588 1.835823E-05
v 1.301541 4.6 1.835823E-05
v 1.358486 4.6 1.835823E-05
v 1.411138 4.576588 1.835823E-05
v 1.896347 4.037398 1.835823E-05
v 0.730045 3.962562 1.835823E-05
v 1.929982 3.962562 1.835823E-05
v 1.929982 -0.05375743 1.835823E-05
v 0.730045 -0.05375743 1.835823E-05
v 1.929982 -0.5000153 1.835823E-05
v 0.730045 -0.5000153 1.835823E-05
v -1.899962 0.9812741 0.08497596
v -1.899962 0.9812741 0.004925489
v -1.899962 1.381321 0.004925489
v -1.899962 1.381321 0.08497596
v -1.899962 0.9812741 0.004925489
v 2.1 0.9812741 0.004925489
v 2.1 1.381321 0.004925489
v -1.899962 1.381321 0.004925489
v 2.1 0.9812741 0.004925489
v 2.1 0.9812741 0.08497596
v 2.1 1.381321 0.08497596
v 2.1 1.381321 0.004925489
v 2.1 0.9812741 0.08497596
v -1.899962 0.9812741 0.08497596
v -1.899962 1.381321 0.08497596
v 2.1 1.381321 0.08497596
v -1.899962 0.9812741 0.004925489
v -1.899962 0.9812741 0.08497596
v 2.1 0.9812741 0.08497596
v 2.1 0.9812741 0.004925489
v 2.1 1.381321 0.004925489
v 2.1 1.381321 0.08497596
v -1.899962 1.381321 0.08497596
v -1.899962 1.381321 0.004925489
v 0.730045 -0.05375743 1.835823E-05
v 0.730045 -0.5000153 1.835823E-05
v 0.730045 -0.5000153 -0.1033417
v 0.730045 -0.05375743 -0.1033417
v 0.730045 3.962562 1.835823E-05
v 0.730045 3.962562 -0.1033417
v 0.7636805 4.037398 1.835823E-05
v 0.7636805 4.037398 -0.1033417
v 1.24889 4.576588 1.835823E-05
v 1.24889 4.576588 -0.1033417
v 1.301541 4.6 1.835823E-05
v 1.301541 4.6 -0.1033417
v 1.358486 4.6 1.835823E-05
v 1.358486 4.6 -0.1033417
v 1.411138 4.576588 1.835823E-05
v 1.411138 4.576588 -0.1033417
v 1.896347 4.037398 1.835823E-05
v 1.896347 4.037398 -0.1033417
v 1.929982 3.962562 1.835823E-05
v 1.929982 3.962562 -0.1033417
v 1.929982 -0.05375743 1.835823E-05
v 1.929982 -0.05375743 -0.1033417
v 1.929982 -0.5000153 1.835823E-05
v 1.929982 -0.5000153 -0.1033417
v -1.358421 4.6 -0.1033417
v -1.411072 4.576588 -0.1033417
v -1.896281 4.037398 -0.1033417
v -1.301578 4.6 -0.1033417
v -1.248926 4.576588 -0.1033417
v -0.7637172 4.037398 -0.1033417
v -1.930019 3.962562 -0.1033417
v -0.7299793 3.962562 -0.1033417
v -0.7299793 -0.05375743 -0.1033417
v -1.930019 -0.05375743 -0.1033417
v -0.7299793 -0.5000153 -0.1033417
v -1.930019 -0.5000153 -0.1033417
v -1.896281 4.037398 1.835823E-05
v -1.411072 4.576588 1.835823E-05
v -1.358421 4.6 1.835823E-05
v -1.301578 4.6 1.835823E-05
v -1.248926 4.576588 1.835823E-05
v -0.7637172 4.037398 1.835823E-05
v -1.930019 3.962562 1.835823E-05
v -0.7299793 3.962562 1.835823E-05
v -0.7299793 -0.05375743 1.835823E-05
v -1.930019 -0.05375743 1.835823E-05
v -0.7299793 -0.5000153 1.835823E-05
v -1.930019 -0.5000153 1.835823E-05
v -1.930019 -0.05375743 1.835823E-05
v -1.930019 -0.5000153 1.835823E-05
v -1.930019 -0.5000153 -0.1033417
v -1.930019 -0.05375743 -0.1033417
v -1.930019 3.962562 1.835823E-05
v -1.930019 3.962562 -0.1033417
v -1.896281 4.037398 1.835823E-05
v -1.896281 4.037398 -0.1033417
v -1.411072 4.576588 1.835823E-05
v -1.411072 4.576588 -0.1033417
v -1.358421 4.6 1.835823E-05
v -1.358421 4.6 -0.1033417
v -1.301578 4.6 1.835823E-05
v -1.301578 4.6 -0.1033417
v -1.248926 4.576588 1.835823E-05
v -1.248926 4.576588 -0.1033417
v -0.7637172 4.037398 1.835823E-05
v -0.7637172 4.037398 -0.1033417
v -0.7299793 3.962562 1.835823E-05
v -0.7299793 3.962562 -0.1033417
v -0.7299793 -0.05375743 1.835823E-05
v -0.7299793 -0.05375743 -0.1033417
v -0.7299793 -0.5000153 1.835823E-05
v -0.7299793 -0.5000153 -0.1033417
v -1.899962 2.781231 0.08497596
v -1.899962 2.781231 0.004925489
v -1.899962 3.181279 0.004925489
v -1.899962 3.181279 0.08497596
v -1.899962 2.781231 0.004925489
v 2.1 2.781231 0.004925489
v 2.1 3.181279 0.004925489
v -1.899962 3.181279 0.004925489
v 2.1 2.781231 0.004925489
v 2.1 2.781231 0.08497596
v 2.1 3.181279 0.08497596
v 2.1 3.181279 0.004925489
v 2.1 2.781231 0.08497596
v -1.899962 2.781231 0.08497596
v -1.899962 3.181279 0.08497596
v 2.1 3.181279 0.08497596
v -1.899962 2.781231 0.004925489
v -1.899962 2.781231 0.08497596
v 2.1 2.781231 0.08497596
v 2.1 2.781231 0.004925489
v 2.1 3.181279 0.004925489
v 2.1 3.181279 0.08497596
v -1.899962 3.181279 0.08497596
v -1.899962 3.181279 0.004925489
vt 0.6274172 0.8734326
vt 0.5185093 0.9949816
vt 0.5068406 0.9998436
vt 0.493227 0.9998436
vt 0.4815583 0.9949816
vt 0.3726504 0.8734326
vt 0.6351963 0.8559295
vt 0.3648712 0.8559295
vt 0.3648712 0.01092027
vt 0.6351963 0.01092027
vt 0.3648712 0.005085915
vt 0.6351963 0.005085915
vt 0.5068406 0.9998436
vt 0.5185093 0.9949816
vt 0.6274172 0.8734326
vt 0.493227 0.9998436
vt 0.4815583 0.9949816
vt 0.3726504 0.8734326
vt 0.6351963 0.8559295
vt 0.3648712 0.8559295
vt 0.3648712 0.01092027
vt 0.6351963 0.01092027
vt 0.3648712 0.005085915
vt 0.6351963 0.005085915
vt 0.6351963 0.01092027
vt 0.6351963 0.005085915
vt 0.6351963 0.005085915
vt 0.6351963 0.01092027
vt 0.6351963 0.8559295
vt 0.6351963 0.8559295
vt 0.6274172 0.8734326
vt 0.6274172 0.8734326
vt 0.5185093 0.9949816
vt 0.5185093 0.9949816
vt 0.5068406 0.9998436
vt 0.5068406 0.9998436
vt 0.493227 0.9998436
vt 0.493227 0.9998436
vt 0.4815583 0.9949816
vt 0.4815583 0.9949816
vt 0.3726504 0.8734326
vt 0.3726504 0.8734326
vt 0.3648712 0.8559295
vt 0.3648712 0.8559295
vt 0.3648712 0.01092027
vt 0.3648712 0.01092027
vt 0.3648712 0.005085915
vt 0.3648712 0.005085915
vt 0.2073436 0.9998436
vt 0.2190123 0.9949816
vt 0.3279203 0.8734326
vt 0.1937301 0.9998436
vt 0.1820614 0.9949816
vt 0.07315341 0.8734326
vt 0.3356994 0.8559295
vt 0.06537426 0.8559295
vt 0.06537426 0.01092027
vt 0.3356994 0.01092027
vt 0.06537426 0.005085915
vt 0.3356994 0.005085915
vt 0.3279203 0.8734326
vt 0.2190123 0.9949816
vt 0.2073436 0.9998436
vt 0.1937301 0.9998436
vt 0.1820614 0.9949816
vt 0.07315341 0.8734326
vt 0.3356994 0.8559295
vt 0.06537426 0.8559295
vt 0.06537426 0.01092027
vt 0.3356994 0.01092027
vt 0.06537426 0.005085915
vt 0.3356994 0.005085915
vt 0.9259418 0.1849786
vt 0.9259418 0.1849786
vt 0.9259418 0.2754111
vt 0.9259418 0.2754111
vt 0.9259418 0.1849786
vt 0.02550616 0.1849786
vt 0.02550616 0.2754111
vt 0.9259418 0.2754111
vt 0.02550616 0.1849786
vt 0.02550616 0.1849786
vt 0.02550616 0.2754111
vt 0.02550616 0.2754111
vt 0.02550616 0.1849786
vt 0.9259418 0.1849786
vt 0.9259418 0.2754111
vt 0.02550616 0.2754111
vt 0.9259418 0.1849786
vt 0.9259418 0.1849786
vt 0.02550616 0.1849786
vt 0.02550616 0.1849786
vt 0.02550616 0.2754111
vt 0.02550616 0.2754111
vt 0.9259418 0.2754111
vt 0.9259418 0.2754111
vt 0.3356994 0.01092027
vt 0.3356994 0.005085915
vt 0.3356994 0.005085915
vt 0.3356994 0.01092027
vt 0.3356994 0.8559295
vt 0.3356994 0.8559295
vt 0.3279203 0.8734326
vt 0.3279203 0.8734326
vt 0.2190123 0.9949816
vt 0.2190123 0.9949816
vt 0.2073436 0.9998436
vt 0.2073436 0.9998436
vt 0.1937301 0.9998436
vt 0.1937301 0.9998436
vt 0.1820614 0.9949816
vt 0.1820614 0.9949816
vt 0.07315341 0.8734326
vt 0.07315341 0.8734326
vt 0.06537426 0.8559295
vt 0.06537426 0.8559295
vt 0.06537426 0.01092027
vt 0.06537426 0.01092027
vt 0.06537426 0.005085915
vt 0.06537426 0.005085915
vt 0.8063375 0.9998436
vt 0.8180062 0.9949816
vt 0.9269142 0.8734326
vt 0.792724 0.9998436
vt 0.7810553 0.9949816
vt 0.6721473 0.8734326
vt 0.9346933 0.8559295
vt 0.6643682 0.8559295
vt 0.6643682 0.01092027
vt 0.9346933 0.01092027
vt 0.6643682 0.005085915
vt 0.9346933 0.005085915
vt 0.9269142 0.8734326
vt 0.8180062 0.9949816
vt 0.8063375 0.9998436
vt 0.792724 0.9998436
vt 0.7810553 0.9949816
vt 0.6721473 0.8734326
vt 0.9346933 0.8559295
vt 0.6643682 0.8559295
vt 0.6643682 0.01092027
vt 0.9346933 0.01092027
vt 0.6643682 0.005085915
vt 0.9346933 0.005085915
vt 0.9346933 0.01092027
vt 0.9346933 0.005085915
vt 0.9346933 0.005085915
vt 0.9346933 0.01092027
vt 0.9346933 0.8559295
vt 0.9346933 0.8559295
vt 0.9269142 0.8734326
vt 0.9269142 0.8734326
vt 0.8180062 0.9949816
vt 0.8180062 0.9949816
vt 0.8063375 0.9998436
vt 0.8063375 0.9998436
vt 0.792724 0.9998436
vt 0.792724 0.9998436
vt 0.7810553 0.9949816
vt 0.7810553 0.9949816
vt 0.6721473 0.8734326
vt 0.6721473 0.8734326
vt 0.6643682 0.8559295
vt 0.6643682 0.8559295
vt 0.6643682 0.01092027
vt 0.6643682 0.01092027
vt 0.6643682 0.005085915
vt 0.6643682 0.005085915
vt 0.9259418 0.5904663
vt 0.9259418 0.5904663
vt 0.9259418 0.6799264
vt 0.9259418 0.6799264
vt 0.9259418 0.5904663
vt 0.02550616 0.5904663
vt 0.02550616 0.6799264
vt 0.9259418 0.6799264
vt 0.02550616 0.5904663
vt 0.02550616 0.5904663
vt 0.02550616 0.6799264
vt 0.02550616 0.6799264
vt 0.02550616 0.5904663
vt 0.9259418 0.5904663
vt 0.9259418 0.6799264
vt 0.02550616 0.6799264
vt 0.9259418 0.5904663
vt 0.9259418 0.5904663
vt 0.02550616 0.5904663
vt 0.02550616 0.5904663
vt 0.02550616 0.6799264
vt 0.02550616 0.6799264
vt 0.9259418 0.6799264
vt 0.9259418 0.6799264
vn -0.003921509 0.003921509 0.9999846
vn -0.003921509 0.003921509 0.9999846
vn -0.003921509 0.003921509 0.9999846
vn -0.003921509 0.003921509 0.9999846
vn -0.003921509 0.003921509 0.9999846
vn -0.003921509 0.003921509 0.9999846
vn -0.003921509 0.003921509 0.9999846
vn -0.003921509 0.003921509 0.9999846
vn -0.003921509 0.003921509 0.9999846
vn -0.003921509 0.003921509 0.9999846
vn -0.003921509 0.003921509 0.9999846
vn -0.003921509 0.003921509 0.9999846
vn -0.003921509 0.003921509 -0.9999846
vn -0.003921509 0.003921509 -0.9999846
vn -0.003921509 0.003921509 -0.9999846
vn -0.003921509 0.003921509 -0.9999846
vn -0.003921509 0.003921509 -0.9999846
vn -0.003921509 0.003921509 -0.9999846
vn -0.003921509 0.003921509 -0.9999846
vn -0.003921509 0.003921509 -0.9999846
vn -0.003921509 0.003921509 -0.9999846
vn -0.003921509 0.003921509 -0.9999846
vn -0.003921509 0.003921509 -0.9999846
vn -0.003921509 0.003921509 -0.9999846
vn -0.7097985 0.003921509 0.7043939
vn -0.7097985 0.003921509 0.7043939
vn -0.7097985 0.003921509 -0.7043939
vn -0.7097985 0.003921509 -0.7043939
vn -0.7333276 0.1607831 0.6605902
vn -0.7333276 0.1607831 -0.6605902
vn -0.6156815 0.4039184 0.676599
vn -0.6156815 0.4039184 -0.676599
vn -0.4431338 0.6078384 0.6589119
vn -0.4431338 0.6078384 -0.6589119
vn -0.1529399 0.7333276 0.66245
vn -0.1529399 0.7333276 -0.66245
vn 0.15294 0.7333276 0.66245
vn 0.15294 0.7333276 -0.66245
vn 0.4431339 0.6078384 0.6589119
vn 0.4431339 0.6078384 -0.6589119
vn 0.6156816 0.4039184 0.6765989
vn 0.6156816 0.4039184 -0.6765989
vn 0.7333277 0.1607831 0.6605901
vn 0.7333277 0.1607831 -0.6605901
vn 0.7097985 0.003921509 0.7043939
vn 0.7097985 0.003921509 -0.7043939
vn 0.7097985 0.003921509 0.7043939
vn 0.7097985 0.003921509 -0.7043939
vn -0.003921509 0.003921509 -0.9999846
vn -0.003921509 0.003921509 -0.9999846
vn -0.003921509 0.003921509 -0.9999846
vn -0.003921509 0.003921509 -0.9999846
vn -0.003921509 0.003921509 -0.9999846
vn -0.003921509 0.003921509 -0.9999846
vn -0.003921509 0.003921509 -0.9999846
vn -0.003921509 0.003921509 -0.9999846
vn -0.003921509 0.003921509 -0.9999846
vn -0.003921509 0.003921509 -0.9999846
vn -0.003921509 0.003921509 -0.9999846
vn -0.003921509 0.003921509 -0.9999846
vn -0.003921509 0.003921509 0.9999846
vn -0.003921509 0.003921509 0.9999846
vn -0.003921509 0.003921509 0.9999846
vn -0.003921509 0.003921509 0.9999846
vn -0.003921509 0.003921509 0.9999846
vn -0.003921509 0.003921509 0.9999846
vn -0.003921509 0.003921509 0.9999846
vn -0.003921509 0.003921509 0.9999846
vn -0.003921509 0.003921509 0.9999846
vn -0.003921509 0.003921509 0.9999846
vn -0.003921509 0.003921509 0.9999846
vn -0.003921509 0.003921509 0.9999846
vn -0.9999923 0.003921509 -0.0003449296
vn -0.9999923 0.003921509 -0.0003449296
vn -0.9999923 0.003921509 -0.0003449296
vn -0.9999923 0.003921509 -0.0003449296
vn -0.003921509 0.003921509 -0.9999846
vn -0.003921509 0.003921509 -0.9999846
vn -0.003921509 0.003921509 -0.9999846
vn -0.003921509 0.003921509 -0.9999846
vn 0.9999924 0.003921509 0
vn 0.9999924 0.003921509 0
vn 0.9999924 0.003921509 0
vn 0.9999924 0.003921509 0
vn -0.003921509 0.003921509 0.9999846
vn -0.003921509 0.003921509 0.9999846
vn -0.003921509 0.003921509 0.9999846
vn -0.003921509 0.003921509 0.9999846
vn -0.003921509 -0.9999924 0
vn -0.003921509 -0.9999924 0
vn -0.003921509 -0.9999924 0
vn -0.003921509 -0.9999924 0
vn -0.003921509 0.9999923 -0.000345267
vn -0.003921509 0.9999923 -0.000345267
vn -0.003921509 0.9999923 -0.000345267
vn -0.003921509 0.9999923 -0.000345267
vn -0.7097985 0.003921509 0.7043939
vn -0.7097985 0.003921509 0.7043939
vn -0.7097985 0.003921509 -0.7043939
vn -0.7097985 0.003921509 -0.7043939
vn -0.7333276 0.1607831 0.6605902
vn -0.7333276 0.1607831 -0.6605902
vn -0.6156815 0.4039184 0.676599
vn -0.6156815 0.4039184 -0.676599
vn -0.4431338 0.6078384 0.6589119
vn -0.4431338 0.6078384 -0.6589119
vn -0.1529399 0.7333276 0.66245
vn -0.1529399 0.7333276 -0.66245
vn 0.15294 0.7333276 0.66245
vn 0.15294 0.7333276 -0.66245
vn 0.4431339 0.6078384 0.6589119
vn 0.4431339 0.6078384 -0.6589119
vn 0.6156816 0.4039184 0.6765989
vn 0.6156816 0.4039184 -0.6765989
vn 0.7333277 0.1607831 0.6605901
vn 0.7333277 0.1607831 -0.6605901
vn 0.7097985 0.003921509 0.7043939
vn 0.7097985 0.003921509 -0.7043939
vn 0.7097985 0.003921509 0.7043939
vn 0.7097985 0.003921509 -0.7043939
vn -0.003921509 0.003921509 -0.9999846
vn -0.003921509 0.003921509 -0.9999846
vn -0.003921509 0.003921509 -0.9999846
vn -0.003921509 0.003921509 -0.9999846
vn -0.003921509 0.003921509 -0.9999846
vn -0.003921509 0.003921509 -0.9999846
vn -0.003921509 0.003921509 -0.9999846
vn -0.003921509 0.003921509 -0.9999846
vn -0.003921509 0.003921509 -0.9999846
vn -0.003921509 0.003921509 -0.9999846
vn -0.003921509 0.003921509 -0.9999846
vn -0.003921509 0.003921509 -0.9999846
vn -0.003921509 0.003921509 0.9999846
vn -0.003921509 0.003921509 0.9999846
vn -0.003921509 0.003921509 0.9999846
vn -0.003921509 0.003921509 0.9999846
vn -0.003921509 0.003921509 0.9999846
vn -0.003921509 0.003921509 0.9999846
vn -0.003921509 0.003921509 0.9999846
vn -0.003921509 0.003921509 0.9999846
vn -0.003921509 0.003921509 0.9999846
vn -0.003921509 0.003921509 0.9999846
vn -0.003921509 0.003921509 0.9999846
vn -0.003921509 0.003921509 0.9999846
vn -0.7097985 0.003921509 0.7043939
vn -0.7097985 0.003921509 0.7043939
vn -0.7097985 0.003921509 -0.7043939
vn -0.7097985 0.003921509 -0.7043939
vn -0.7333276 0.1607831 0.6605902
vn -0.7333276 0.1607831 -0.6605902
vn -0.6156815 0.4039184 0.676599
vn -0.6156815 0.4039184 -0.676599
vn -0.4431338 0.6078384 0.6589119
vn -0.4431338 0.6078384 -0.6589119
vn -0.1529399 0.7333276 0.66245
vn -0.1529399 0.7333276 -0.66245
vn 0.15294 0.7333276 0.66245
vn 0.15294 0.7333276 -0.66245
vn 0.4431339 0.6078384 0.6589119
vn 0.4431339 0.6078384 -0.6589119
vn 0.6156816 0.4039184 0.6765989
vn 0.6156816 0.4039184 -0.6765989
vn 0.7333277 0.1607831 0.6605901
vn 0.7333277 0.1607831 -0.6605901
vn 0.7097985 0.003921509 0.7043939
vn 0.7097985 0.003921509 -0.7043939
vn 0.7097985 0.003921509 0.7043939
vn 0.7097985 0.003921509 -0.7043939
vn -0.9999923 0.003921509 -0.0003449296
vn -0.9999923 0.003921509 -0.0003449296
vn -0.9999923 0.003921509 -0.0003449296
vn -0.9999923 0.003921509 -0.0003449296
vn -0.003921509 0.003921509 -0.9999846
vn -0.003921509 0.003921509 -0.9999846
vn -0.003921509 0.003921509 -0.9999846
vn -0.003921509 0.003921509 -0.9999846
vn 0.9999924 0.003921509 0
vn 0.9999924 0.003921509 0
vn 0.9999924 0.003921509 0
vn 0.9999924 0.003921509 0
vn -0.003921509 0.003921509 0.9999846
vn -0.003921509 0.003921509 0.9999846
vn -0.003921509 0.003921509 0.9999846
vn -0.003921509 0.003921509 0.9999846
vn -0.003921509 -0.9999924 0
vn -0.003921509 -0.9999924 0
vn -0.003921509 -0.9999924 0
vn -0.003921509 -0.9999924 0
vn -0.003921509 0.9999923 -0.000345267
vn -0.003921509 0.9999923 -0.000345267
vn -0.003921509 0.9999923 -0.000345267
vn -0.003921509 0.9999923 -0.000345267
g Staccionata_0
f 3/3/3 2/2/2 1/1/1
f 4/4/4 3/3/3 1/1/1
f 5/5/5 4/4/4 1/1/1
f 1/1/1 6/6/6 5/5/5
f 1/1/1 7/7/7 6/6/6
f 7/7/7 8/8/8 6/6/6
f 8/8/8 7/7/7 9/9/9
f 7/7/7 10/10/10 9/9/9
f 9/9/9 10/10/10 11/11/11
f 10/10/10 12/12/12 11/11/11
f 15/15/15 14/14/14 13/13/13
f 15/15/15 13/13/13 16/16/16
f 15/15/15 16/16/16 17/17/17
f 17/17/17 18/18/18 15/15/15
f 19/19/19 15/15/15 18/18/18
f 20/20/20 19/19/19 18/18/18
f 19/19/19 20/20/20 21/21/21
f 22/22/22 19/19/19 21/21/21
f 22/22/22 21/21/21 23/23/23
f 24/24/24 22/22/22 23/23/23
f 27/27/27 26/26/26 25/25/25
f 28/28/28 27/27/27 25/25/25
f 28/28/28 25/25/25 29/29/29
f 30/30/30 28/28/28 29/29/29
f 30/30/30 29/29/29 31/31/31
f 32/32/32 30/30/30 31/31/31
f 32/32/32 31/31/31 33/33/33
f 34/34/34 32/32/32 33/33/33
f 34/34/34 33/33/33 35/35/35
f 36/36/36 34/34/34 35/35/35
f 36/36/36 35/35/35 37/37/37
f 38/38/38 36/36/36 37/37/37
f 38/38/38 37/37/37 39/39/39
f 40/40/40 38/38/38 39/39/39
f 40/40/40 39/39/39 41/41/41
f 42/42/42 40/40/40 41/41/41
f 42/42/42 41/41/41 43/43/43
f 44/44/44 42/42/42 43/43/43
f 44/44/44 43/43/43 45/45/45
f 46/46/46 44/44/44 45/45/45
f 46/46/46 45/45/45 47/47/47
f 48/48/48 46/46/46 47/47/47
f 51/51/51 50/50/50 49/49/49
f 51/51/51 49/49/49 52/52/52
f 51/51/51 52/52/52 53/53/53
f 53/53/53 54/54/54 51/51/51
f 55/55/55 51/51/51 54/54/54
f 56/56/56 55/55/55 54/54/54
f 55/55/55 56/56/56 57/57/57
f 58/58/58 55/55/55 57/57/57
f 58/58/58 57/57/57 59/59/59
f 60/60/60 58/58/58 59/59/59
f 63/63/63 62/62/62 61/61/61
f 64/64/64 63/63/63 61/61/61
f 65/65/65 64/64/64 61/61/61
f 61/61/61 66/66/66 65/65/65
f 61/61/61 67/67/67 66/66/66
f 67/67/67 68/68/68 66/66/66
f 68/68/68 67/67/67 69/69/69
f 67/67/67 70/70/70 69/69/69
f 69/69/69 70/70/70 71/71/71
f 70/70/70 72/72/72 71/71/71
f 75/75/75 74/74/74 73/73/73
f 76/76/76 75/75/75 73/73/73
f 79/79/79 78/78/78 77/77/77
f 80/80/80 79/79/79 77/77/77
f 83/83/83 82/82/82 81/81/81
f 84/84/84 83/83/83 81/81/81
f 87/87/87 86/86/86 85/85/85
f 88/88/88 87/87/87 85/85/85
f 91/91/91 90/90/90 89/89/89
f 92/92/92 91/91/91 89/89/89
f 95/95/95 94/94/94 93/93/93
f 96/96/96 95/95/95 93/93/93
f 99/99/99 98/98/98 97/97/97
f 100/100/100 99/99/99 97/97/97
f 100/100/100 97/97/97 101/101/101
f 102/102/102 100/100/100 101/101/101
f 102/102/102 101/101/101 103/103/103
f 104/104/104 102/102/102 103/103/103
f 104/104/104 103/103/103 105/105/105
f 106/106/106 104/104/104 105/105/105
f 106/106/106 105/105/105 107/107/107
f 108/108/108 106/106/106 107/107/107
f 108/108/108 107/107/107 109/109/109
f 110/110/110 108/108/108 109/109/109
f 110/110/110 109/109/109 111/111/111
f 112/112/112 110/110/110 111/111/111
f 112/112/112 111/111/111 113/113/113
f 114/114/114 112/112/112 113/113/113
f 114/114/114 113/113/113 115/115/115
f 116/116/116 114/114/114 115/115/115
f 116/116/116 115/115/115 117/117/117
f 118/118/118 116/116/116 117/117/117
f 118/118/118 117/117/117 119/119/119
f 120/120/120 118/118/118 119/119/119
f 123/123/123 122/122/122 121/121/121
f 123/123/123 121/121/121 124/124/124
f 123/123/123 124/124/124 125/125/125
f 125/125/125 126/126/126 123/123/123
f 127/127/127 123/123/123 126/126/126
f 128/128/128 127/127/127 126/126/126
f 127/127/127 128/128/128 129/129/129
f 130/130/130 127/127/127 129/129/129
f 130/130/130 129/129/129 131/131/131
f 132/132/132 130/130/130 131/131/131
f 135/135/135 134/134/134 133/133/133
f 136/136/136 135/135/135 133/133/133
f 137/137/137 136/136/136 133/133/133
f 133/133/133 138/138/138 137/137/137
f 133/133/133 139/139/139 138/138/138
f 139/139/139 140/140/140 138/138/138
f 140/140/140 139/139/139 141/141/141
f 139/139/139 142/142/142 141/141/141
f 141/141/141 142/142/142 143/143/143
f 142/142/142 144/144/144 143/143/143
f 147/147/147 146/146/146 145/145/145
f 148/148/148 147/147/147 145/145/145
f 148/148/148 145/145/145 149/149/149
f 150/150/150 148/148/148 149/149/149
f 150/150/150 149/149/149 151/151/151
f 152/152/152 150/150/150 151/151/151
f 152/152/152 151/151/151 153/153/153
f 154/154/154 152/152/152 153/153/153
f 154/154/154 153/153/153 155/155/155
f 156/156/156 154/154/154 155/155/155
f 156/156/156 155/155/155 157/157/157
f 158/158/158 156/156/156 157/157/157
f 158/158/158 157/157/157 159/159/159
f 160/160/160 158/158/158 159/159/159
f 160/160/160 159/159/159 161/161/161
f 162/162/162 160/160/160 161/161/161
f 162/162/162 161/161/161 163/163/163
f 164/164/164 162/162/162 163/163/163
f 164/164/164 163/163/163 165/165/165
f 166/166/166 164/164/164 165/165/165
f 166/166/166 165/165/165 167/167/167
f 168/168/168 166/166/166 167/167/167
f 171/171/171 170/170/170 169/169/169
f 172/172/172 171/171/171 169/169/169
f 175/175/175 174/174/174 173/173/173
f 176/176/176 175/175/175 173/173/173
f 179/179/179 178/178/178 177/177/177
f 180/180/180 179/179/179 177/177/177
f 183/183/183 182/182/182 181/181/181
f 184/184/184 183/183/183 181/181/181
f 187/187/187 186/186/186 185/185/185
f 188/188/188 187/187/187 185/185/185
f 191/191/191 190/190/190 189/189/189
f 192/192/192 191/191/191 189/189/189
