g TagliaErbaOmbra
v -0.05122501 -0.3939573 -0.4100662
v -0.2463307 -0.3939573 -0.5227105
v -0.1336863 -0.3939573 -0.4925275
v -0.02104205 -0.3939573 -0.2974217
v -1.178522 -0.3939573 -0.5227105
v -1.403811 -0.3939573 -0.2974217
v -1.373628 -0.3939573 -0.4100659
v -1.291167 -0.3939573 -0.4925275
v -1.403811 -0.3939572 1.513757
v -0.02104175 -0.3939572 1.513757
v -0.2463305 -0.3939572 1.737753
v -0.05122477 -0.3939572 1.625109
v -0.1336863 -0.3939572 1.70757
v -1.178522 -0.3939572 1.737754
v -1.373628 -0.3939572 1.625109
v -1.291167 -0.3939572 1.70757
v 0.2011413 -0.3939572 1.392638
v 0.1389213 -0.3939572 1.449076
v 0.2241415 -0.3939572 1.315542
v 0.05478087 -0.3939572 1.469734
v -0.05573495 -0.3939572 1.469734
v -0.05573496 -0.3939572 0.9272229
v 0.2241415 -0.3939572 1.081415
v 0.05478087 -0.3939572 0.9272229
v 0.1389213 -0.3939572 0.9478806
v 0.2011413 -0.3939572 1.004319
v 0.220315 -0.3939573 -0.3646593
v 0.2451617 -0.3939573 -0.2875634
v 0.1535379 -0.3939573 -0.4210975
v 0.06384934 -0.3939573 -0.4417554
v -0.09793181 -0.3939573 -0.4417554
v -0.09793182 -0.3939572 0.46243
v 0.2451617 -0.3939572 0.308238
v 0.06384934 -0.3939572 0.46243
v 0.1535379 -0.3939572 0.4417722
v 0.220315 -0.3939572 0.385334
v -1.578391 -0.3939572 0.4417723
v -1.645168 -0.3939572 0.3853341
v -1.670015 -0.3939572 0.3082382
v -1.488703 -0.3939572 0.4624301
v -1.326921 -0.3939572 0.4624301
v -1.670015 -0.3939573 -0.2875634
v -1.326921 -0.3939573 -0.4417554
v -1.488703 -0.3939573 -0.4417554
v -1.578391 -0.3939573 -0.4210975
v -1.645168 -0.3939573 -0.3646594
v -1.625995 -0.3939572 1.004319
v -1.563775 -0.3939572 0.9478809
v -1.648995 -0.3939572 1.081415
v -1.479634 -0.3939572 0.927223
v -1.369118 -0.3939572 0.927223
v -1.369118 -0.3939572 1.469734
v -1.648995 -0.3939572 1.315542
v -1.479634 -0.3939572 1.469734
v -1.563775 -0.3939572 1.449076
v -1.625995 -0.3939572 1.392638
vt 0.08486834 0.04452602
vt 0.08486834 0.04452602
vt 0.08486834 0.04452602
vt 0.08486834 0.04452602
vt 0.08486834 0.04452602
vt 0.08486834 0.04452602
vt 0.08486834 0.04452602
vt 0.08486834 0.04452602
vt 0.08486834 0.04452602
vt 0.08486834 0.04452602
vt 0.08486834 0.04452602
vt 0.08486834 0.04452602
vt 0.08486834 0.04452602
vt 0.08486834 0.04452602
vt 0.08486834 0.04452602
vt 0.08486834 0.04452602
vt 0.08486834 0.04452602
vt 0.08486834 0.04452602
vt 0.08486834 0.04452602
vt 0.08486834 0.04452602
vt 0.08486834 0.04452602
vt 0.08486834 0.04452602
vt 0.08486834 0.04452602
vt 0.08486834 0.04452602
vt 0.08486834 0.04452602
vt 0.08486834 0.04452602
vt 0.08486834 0.04452602
vt 0.08486834 0.04452602
vt 0.08486834 0.04452602
vt 0.08486834 0.04452602
vt 0.08486834 0.04452602
vt 0.08486834 0.04452602
vt 0.08486834 0.04452602
vt 0.08486834 0.04452602
vt 0.08486834 0.04452602
vt 0.08486834 0.04452602
vt 0.08486834 0.04452602
vt 0.08486834 0.04452602
vt 0.08486834 0.04452602
vt 0.08486834 0.04452602
vt 0.08486834 0.04452602
vt 0.08486834 0.04452602
vt 0.08486834 0.04452602
vt 0.08486834 0.04452602
vt 0.08486834 0.04452602
vt 0.08486834 0.04452602
vt 0.08486834 0.04452602
vt 0.08486834 0.04452602
vt 0.08486834 0.04452602
vt 0.08486834 0.04452602
vt 0.08486834 0.04452602
vt 0.08486834 0.04452602
vt 0.08486834 0.04452602
vt 0.08486834 0.04452602
vt 0.08486834 0.04452602
vt 0.08486834 0.04452602
vn 0 1 0
vn 0 1 0
vn 0 1 0
vn 0 1 0
vn 0 1 0
vn 0 1 0
vn 0 1 0
vn 0 1 0
vn 0 1 0
vn 0 1 0
vn 0 1 0
vn 0 1 0
vn 0 1 0
vn 0 1 0
vn 0 1 0
vn 0 1 0
vn 0 1 0
vn 0 1 0
vn 0 1 0
vn 0 1 0
vn 0 1 0
vn 0 1 0
vn 0 1 0
vn 0 1 0
vn 0 1 0
vn 0 1 0
vn 0 1 0
vn 0 1 0
vn 0 1 0
vn 0 1 0
vn 0 1 0
vn 0 1 0
vn 0 1 0
vn 0 1 0
vn 0 1 0
vn 0 1 0
vn 0 1 0
vn 0 1 0
vn 0 1 0
vn 0 1 0
vn 0 1 0
vn 0 1 0
vn 0 1 0
vn 0 1 0
vn 0 1 0
vn 0 1 0
vn 0 1 0
vn 0 1 0
vn 0 1 0
vn 0 1 0
vn 0 1 0
vn 0 1 0
vn 0 1 0
vn 0 1 0
vn 0 1 0
vn 0 1 0
g TagliaErbaOmbra_0
f 3/3/3 2/2/2 1/1/1
f 1/1/1 2/2/2 4/4/4
f 4/4/4 2/2/2 5/5/5
f 5/5/5 6/6/6 4/4/4
f 7/7/7 6/6/6 5/5/5
f 8/8/8 7/7/7 5/5/5
f 9/9/9 4/4/4 6/6/6
f 10/10/10 4/4/4 9/9/9
f 11/11/11 10/10/10 9/9/9
f 12/12/12 10/10/10 11/11/11
f 13/13/13 12/12/12 11/11/11
f 9/9/9 14/14/14 11/11/11
f 15/15/15 14/14/14 9/9/9
f 16/16/16 14/14/14 15/15/15
f 19/19/19 18/18/18 17/17/17
f 20/20/20 18/18/18 19/19/19
f 20/20/20 19/19/19 21/21/21
f 21/21/21 19/19/19 22/22/22
f 22/22/22 19/19/19 23/23/23
f 23/23/23 24/24/24 22/22/22
f 25/25/25 24/24/24 23/23/23
f 26/26/26 25/25/25 23/23/23
f 29/29/29 28/28/28 27/27/27
f 30/30/30 28/28/28 29/29/29
f 31/31/31 28/28/28 30/30/30
f 31/31/31 32/32/32 28/28/28
f 33/33/33 28/28/28 32/32/32
f 34/34/34 33/33/33 32/32/32
f 34/34/34 35/35/35 33/33/33
f 33/33/33 35/35/35 36/36/36
f 39/39/39 38/38/38 37/37/37
f 40/40/40 39/39/39 37/37/37
f 40/40/40 41/41/41 39/39/39
f 41/41/41 42/42/42 39/39/39
f 43/43/43 42/42/42 41/41/41
f 44/44/44 42/42/42 43/43/43
f 44/44/44 45/45/45 42/42/42
f 45/45/45 46/46/46 42/42/42
f 49/49/49 48/48/48 47/47/47
f 49/49/49 50/50/50 48/48/48
f 49/49/49 51/51/51 50/50/50
f 52/52/52 51/51/51 49/49/49
f 49/49/49 53/53/53 52/52/52
f 52/52/52 53/53/53 54/54/54
f 53/53/53 55/55/55 54/54/54
f 56/56/56 55/55/55 53/53/53
