g Tastiera.028
v -1.881379 0.1684676 -0.5241507
v -2.031138 0.1684676 -0.5241507
v -1.956236 0.2651024 -0.5428764
v -1.956236 0.2651024 -0.5428764
v -2.031138 0.1684676 -0.5241507
v -2.00772 0.2668794 -0.5428764
v -2.00772 0.2668794 -0.8049432
v -2.031138 0.1684676 -0.8611199
v -1.956236 0.2651024 -0.8049432
v -1.956236 0.2651024 -0.8049432
v -2.031138 0.1684676 -0.8611199
v -1.881379 0.1684676 -0.8611199
v -1.904752 0.2668794 -0.5428764
v -1.881379 0.1684676 -0.5241507
v -1.956236 0.2651024 -0.5428764
v -1.956236 0.2651024 -0.8049432
v -1.881379 0.1684676 -0.8611199
v -1.904752 0.2668794 -0.8049432
v -2.077929 0.2749892 -0.7862176
v -2.076517 0.2747614 -0.5544488
v -2.077929 0.2749892 -0.5616019
v -2.076517 0.2747614 -0.7934163
v -2.072416 0.2741235 -0.7994759
v -2.072416 0.2741235 -0.5483437
v -2.066357 0.2732124 -0.8035308
v -2.066357 0.2732124 -0.5442888
v -2.059204 0.2721644 -0.8049432
v -2.059204 0.2721644 -0.5428764
v -2.00772 0.2668794 -0.5428764
v -2.00772 0.2668794 -0.8049432
v -1.956236 0.2651024 -0.8049432
v -1.956236 0.2651024 -0.5428764
v -1.904752 0.2668794 -0.8049432
v -1.904752 0.2668794 -0.5428764
v -1.853268 0.2721644 -0.8049432
v -1.853268 0.2721644 -0.5428764
v -1.846115 0.2732124 -0.5442888
v -1.846115 0.2732124 -0.8035308
v -1.840055 0.2741235 -0.5483437
v -1.840055 0.2741235 -0.7994759
v -1.836 0.2747614 -0.5544488
v -1.836 0.2747614 -0.7934163
v -1.834542 0.2749892 -0.5616019
v -1.834542 0.2749892 -0.7862176
v -2.00772 0.2668794 -0.5428764
v -2.031138 0.1684676 -0.5241507
v -2.105995 0.1684676 -0.5241507
v -2.059204 0.2721644 -0.5428764
v -1.806477 0.1684676 -0.5241507
v -1.881379 0.1684676 -0.5241507
v -1.904752 0.2668794 -0.5428764
v -1.853268 0.2721644 -0.5428764
v -2.105995 0.1684676 -0.8611199
v -2.031138 0.1684676 -0.8611199
v -2.00772 0.2668794 -0.8049432
v -2.059204 0.2721644 -0.8049432
v -1.904752 0.2668794 -0.8049432
v -1.881379 0.1684676 -0.8611199
v -1.806477 0.1684676 -0.8611199
v -1.853268 0.2721644 -0.8049432
v -1.840055 0.2741235 -0.7994759
v -1.793264 0.1684676 -0.8556526
v -1.789163 0.1684676 -0.8495474
v -1.836 0.2747614 -0.7934163
v -1.846115 0.2732124 -0.8035308
v -1.799324 0.1684676 -0.8597075
v -1.793264 0.1684676 -0.8556526
v -1.840055 0.2741235 -0.7994759
v -1.853268 0.2721644 -0.8049432
v -1.806477 0.1684676 -0.8611199
v -1.799324 0.1684676 -0.8597075
v -1.846115 0.2732124 -0.8035308
v -2.113148 0.1684676 -0.8597075
v -2.105995 0.1684676 -0.8611199
v -2.059204 0.2721644 -0.8049432
v -2.066357 0.2732124 -0.8035308
v -2.119253 0.1684676 -0.8556526
v -2.113148 0.1684676 -0.8597075
v -2.066357 0.2732124 -0.8035308
v -2.072416 0.2741235 -0.7994759
v -2.123308 0.1684676 -0.8495474
v -2.119253 0.1684676 -0.8556526
v -2.072416 0.2741235 -0.7994759
v -2.076517 0.2747614 -0.7934163
v -2.12472 0.1684676 -0.8423944
v -2.123308 0.1684676 -0.8495474
v -2.076517 0.2747614 -0.7934163
v -2.077929 0.2749892 -0.7862176
v -2.12472 0.1684676 -0.5428764
v -2.12472 0.1684676 -0.8423944
v -2.077929 0.2749892 -0.7862176
v -2.077929 0.2749892 -0.5616019
v -2.123308 0.1684676 -0.5357232
v -2.12472 0.1684676 -0.5428764
v -2.077929 0.2749892 -0.5616019
v -2.076517 0.2747614 -0.5544488
v -2.119253 0.1684676 -0.5296637
v -2.123308 0.1684676 -0.5357232
v -2.076517 0.2747614 -0.5544488
v -2.072416 0.2741235 -0.5483437
v -2.113148 0.1684676 -0.5255631
v -2.119253 0.1684676 -0.5296637
v -2.072416 0.2741235 -0.5483437
v -2.066357 0.2732124 -0.5442888
v -2.105995 0.1684676 -0.5241507
v -2.113148 0.1684676 -0.5255631
v -2.066357 0.2732124 -0.5442888
v -2.059204 0.2721644 -0.5428764
v -1.846115 0.2732124 -0.5442888
v -1.799324 0.1684676 -0.5255631
v -1.806477 0.1684676 -0.5241507
v -1.853268 0.2721644 -0.5428764
v -1.840055 0.2741235 -0.5483437
v -1.793264 0.1684676 -0.5296637
v -1.799324 0.1684676 -0.5255631
v -1.846115 0.2732124 -0.5442888
v -1.836 0.2747614 -0.5544488
v -1.789163 0.1684676 -0.5357232
v -1.793264 0.1684676 -0.5296637
v -1.840055 0.2741235 -0.5483437
v -1.834542 0.2749892 -0.5616019
v -1.787751 0.1684676 -0.5428764
v -1.789163 0.1684676 -0.5357232
v -1.836 0.2747614 -0.5544488
v -1.834542 0.2749892 -0.7862176
v -1.787751 0.1684676 -0.8423944
v -1.787751 0.1684676 -0.5428764
v -1.834542 0.2749892 -0.5616019
v -1.836 0.2747614 -0.7934163
v -1.789163 0.1684676 -0.8495474
v -1.787751 0.1684676 -0.8423944
v -1.834542 0.2749892 -0.7862176
vt 0.8806042 0.5194044
vt 0.953492 0.6651801
vt 0.953492 0.5194044
vt 0.8806042 0.5194044
vt 0.953492 0.6651801
vt 0.953492 0.5194044
vt 0.8806042 0.5194044
vt 0.953492 0.6651801
vt 0.953492 0.5194044
vt 0.8806042 0.5194044
vt 0.953492 0.6651801
vt 0.953492 0.5194044
vt 0.8806042 0.5194044
vt 0.953492 0.6651801
vt 0.953492 0.5194044
vt 0.8806042 0.5194044
vt 0.953492 0.6651801
vt 0.953492 0.5194044
vt 0.3128887 0.1339085
vt 0.3120788 0.2448601
vt 0.3128887 0.2408107
vt 0.3120788 0.1306691
vt 0.311269 0.1274296
vt 0.311269 0.2472896
vt 0.3096493 0.1258099
vt 0.3096493 0.2497192
vt 0.3080295 0.125
vt 0.3080295 0.2497192
vt 0.2942618 0.2497192
vt 0.2942618 0.125
vt 0.281304 0.125
vt 0.281304 0.2497192
vt 0.2683461 0.125
vt 0.2683461 0.2497192
vt 0.2545784 0.125
vt 0.2545784 0.2497192
vt 0.2529587 0.2497192
vt 0.2529587 0.1258099
vt 0.251339 0.2472896
vt 0.251339 0.1274296
vt 0.2505291 0.2448601
vt 0.2505291 0.1306691
vt 0.2497192 0.2408107
vt 0.2497192 0.1339085
vt 0.8806042 0.5194044
vt 0.8806042 0.6651801
vt 0.953492 0.6651801
vt 0.953492 0.5194044
vt 0.8806042 0.5194044
vt 0.8806042 0.6651801
vt 0.953492 0.6651801
vt 0.953492 0.5194044
vt 0.8806042 0.5194044
vt 0.8806042 0.6651801
vt 0.953492 0.6651801
vt 0.953492 0.5194044
vt 0.8806042 0.5194044
vt 0.8806042 0.6651801
vt 0.953492 0.6651801
vt 0.953492 0.5194044
vt 0.8806042 0.5194044
vt 0.8806042 0.6651801
vt 0.953492 0.6651801
vt 0.953492 0.5194044
vt 0.8806042 0.5194044
vt 0.8806042 0.6651801
vt 0.953492 0.6651801
vt 0.953492 0.5194044
vt 0.8806042 0.5194044
vt 0.8806042 0.6651801
vt 0.953492 0.6651801
vt 0.953492 0.5194044
vt 0.8806042 0.5194044
vt 0.8806042 0.6651801
vt 0.953492 0.6651801
vt 0.953492 0.5194044
vt 0.8806042 0.5194044
vt 0.8806042 0.6651801
vt 0.953492 0.6651801
vt 0.953492 0.5194044
vt 0.8806042 0.5194044
vt 0.8806042 0.6651801
vt 0.953492 0.6651801
vt 0.953492 0.5194044
vt 0.8806042 0.5194044
vt 0.8806042 0.6651801
vt 0.953492 0.6651801
vt 0.953492 0.5194044
vt 0.8806042 0.5194044
vt 0.8806042 0.6651801
vt 0.953492 0.6651801
vt 0.953492 0.5194044
vt 0.8806042 0.5194044
vt 0.8806042 0.6651801
vt 0.953492 0.6651801
vt 0.953492 0.5194044
vt 0.8806042 0.5194044
vt 0.8806042 0.6651801
vt 0.953492 0.6651801
vt 0.953492 0.5194044
vt 0.8806042 0.5194044
vt 0.8806042 0.6651801
vt 0.953492 0.6651801
vt 0.953492 0.5194044
vt 0.8806042 0.5194044
vt 0.8806042 0.6651801
vt 0.953492 0.6651801
vt 0.953492 0.5194044
vt 0.8806042 0.5194044
vt 0.8806042 0.6651801
vt 0.953492 0.6651801
vt 0.953492 0.5194044
vt 0.8806042 0.5194044
vt 0.8806042 0.6651801
vt 0.953492 0.6651801
vt 0.953492 0.5194044
vt 0.8806042 0.5194044
vt 0.8806042 0.6651801
vt 0.953492 0.6651801
vt 0.953492 0.5194044
vt 0.8806042 0.5194044
vt 0.8806042 0.6651801
vt 0.953492 0.6651801
vt 0.953492 0.5194044
vt 0.8806042 0.5194044
vt 0.8806042 0.6651801
vt 0.953492 0.6651801
vt 0.953492 0.5194044
vt 0.8806042 0.5194044
vt 0.8806042 0.6651801
vt 0.953492 0.6651801
vt 0.953492 0.5194044
vn -0.005867362 0.1852595 0.9826721
vn 0.001607299 0.1852595 0.9826883
vn 0.001607299 0.1852595 0.9826883
vn 0.001607299 0.1852595 0.9826883
vn 0.001607299 0.1852595 0.9826883
vn 0.001607299 0.1852595 0.9826883
vn 0.00908196 0.491721 -0.8707054
vn 0.00908196 0.4991957 -0.8664417
vn 0.001607299 0.4991957 -0.8664878
vn 0.001607299 0.4991957 -0.8664878
vn 0.00908196 0.4991957 -0.8664417
vn -0.005867362 0.4991957 -0.8664694
vn -0.005867362 0.1852595 0.9826721
vn -0.005867362 0.1852595 0.9826721
vn 0.001607299 0.1852595 0.9826883
vn 0.001607299 0.4991957 -0.8664878
vn -0.005867362 0.4991957 -0.8664694
vn -0.005867362 0.491721 -0.870733
vn 0.1585754 0.9850494 -0.06731688
vn 0.1585754 0.9850494 -0.06731688
vn 0.1585754 0.9850494 -0.06731688
vn 0.1585754 0.9850494 -0.06731688
vn 0.1511008 0.9850494 -0.08274242
vn 0.1511008 0.9850494 -0.08274242
vn 0.1432162 0.9896914 0
vn 0.1432162 0.9896914 0
vn 0.1212021 0.992524 -0.01435663
vn 0.1212021 0.992524 -0.01435663
vn 0.06871664 0.9976362 0
vn 0.06871664 0.9976362 0
vn 0.001607299 0.9999987 -0.0002441406
vn 0.001607299 0.9999987 -0.0002441406
vn -0.06552368 0.997851 0
vn -0.06552368 0.997851 0
vn -0.1179874 0.992524 -0.0312252
vn -0.1179874 0.992524 -0.0312252
vn -0.1473732 0.989081 0
vn -0.1473732 0.989081 0
vn -0.1553608 0.9850494 -0.07443647
vn -0.1553608 0.9850494 -0.07443647
vn -0.1553608 0.9850494 -0.07443647
vn -0.1553608 0.9850494 -0.07443647
vn -0.1628355 0.9850494 -0.05623508
vn -0.1628355 0.9850494 -0.05623508
vn 0.001607299 0.1852595 0.9826883
vn 0.001607299 0.1852595 0.9826883
vn -0.09556341 0.2226329 0.9702073
vn -0.09556341 0.2226329 0.9702073
vn 0.09130335 0.2226329 0.9706175
vn -0.005867362 0.1852595 0.9826721
vn -0.005867362 0.1852595 0.9826721
vn 0.09130335 0.2226329 0.9706175
vn -0.08061409 0.514145 -0.8539065
vn 0.00908196 0.4991957 -0.8664417
vn 0.00908196 0.491721 -0.8707054
vn -0.08061409 0.514145 -0.8539065
vn -0.005867362 0.491721 -0.870733
vn -0.005867362 0.4991957 -0.8664694
vn 0.08382869 0.514145 -0.8535969
vn 0.08382869 0.514145 -0.8535969
vn 0.5846317 0.5664678 -0.5807927
vn 0.5846317 0.5664678 -0.5807927
vn 0.7939225 0.5216197 -0.31241
vn 0.7939225 0.5216197 -0.31241
vn 0.3155435 0.5589931 -0.7667848
vn 0.3155435 0.5589931 -0.7667848
vn 0.5846317 0.5664678 -0.5807927
vn 0.5846317 0.5664678 -0.5807927
vn 0.08382869 0.514145 -0.8535969
vn 0.08382869 0.514145 -0.8535969
vn 0.3155435 0.5589931 -0.7667848
vn 0.3155435 0.5589931 -0.7667848
vn -0.3123289 0.5589931 -0.7680998
vn -0.08061409 0.514145 -0.8539065
vn -0.08061409 0.514145 -0.8539065
vn -0.3123289 0.5589931 -0.7680998
vn -0.5814171 0.5664678 -0.5840107
vn -0.3123289 0.5589931 -0.7680998
vn -0.3123289 0.5589931 -0.7680998
vn -0.5814171 0.5664678 -0.5840107
vn -0.7907079 0.5216197 -0.3204588
vn -0.5814171 0.5664678 -0.5840107
vn -0.5814171 0.5664678 -0.5840107
vn -0.7907079 0.5216197 -0.3204588
vn -0.8953533 0.4393983 -0.07260568
vn -0.7907079 0.5216197 -0.3204588
vn -0.7907079 0.5216197 -0.3204588
vn -0.8953533 0.4393983 -0.07260568
vn -0.902828 0.4169743 0.1050433
vn -0.8953533 0.4393983 -0.07260568
vn -0.8953533 0.4393983 -0.07260568
vn -0.902828 0.4169743 0.1050433
vn -0.8355559 0.424449 0.3488401
vn -0.902828 0.4169743 0.1050433
vn -0.902828 0.4169743 0.1050433
vn -0.8355559 0.424449 0.3488401
vn -0.6486892 0.402025 0.646203
vn -0.8355559 0.424449 0.3488401
vn -0.8355559 0.424449 0.3488401
vn -0.6486892 0.402025 0.646203
vn -0.3571769 0.3198036 0.8775821
vn -0.6486892 0.402025 0.646203
vn -0.6486892 0.402025 0.646203
vn -0.3571769 0.3198036 0.8775821
vn -0.09556341 0.2226329 0.9702073
vn -0.3571769 0.3198036 0.8775821
vn -0.3571769 0.3198036 0.8775821
vn -0.09556341 0.2226329 0.9702073
vn 0.3603916 0.3198036 0.8762668
vn 0.3603916 0.3198036 0.8762668
vn 0.09130335 0.2226329 0.9706175
vn 0.09130335 0.2226329 0.9706175
vn 0.6444291 0.402025 0.6504515
vn 0.6444291 0.402025 0.6504515
vn 0.3603916 0.3198036 0.8762668
vn 0.3603916 0.3198036 0.8762668
vn 0.8312958 0.424449 0.3588736
vn 0.8312958 0.424449 0.3588736
vn 0.6444291 0.402025 0.6504515
vn 0.6444291 0.402025 0.6504515
vn 0.9060426 0.4169743 0.0722447
vn 0.9060426 0.4169743 0.0722447
vn 0.8312958 0.424449 0.3588736
vn 0.8312958 0.424449 0.3588736
vn 0.8910933 0.4393983 -0.1134987
vn 0.8910933 0.4393983 -0.1134987
vn 0.9060426 0.4169743 0.0722447
vn 0.9060426 0.4169743 0.0722447
vn 0.7939225 0.5216197 -0.31241
vn 0.7939225 0.5216197 -0.31241
vn 0.8910933 0.4393983 -0.1134987
vn 0.8910933 0.4393983 -0.1134987
g Tastiera.028_0
f 3/3/3 2/2/2 1/1/1
f 6/6/6 5/5/5 4/4/4
f 9/9/9 8/8/8 7/7/7
f 12/12/12 11/11/11 10/10/10
f 15/15/15 14/14/14 13/13/13
f 18/18/18 17/17/17 16/16/16
f 21/21/21 20/20/20 19/19/19
f 20/20/20 22/22/22 19/19/19
f 22/22/22 20/20/20 23/23/23
f 20/20/20 24/24/24 23/23/23
f 23/23/23 24/24/24 25/25/25
f 24/24/24 26/26/26 25/25/25
f 25/25/25 26/26/26 27/27/27
f 26/26/26 28/28/28 27/27/27
f 27/27/27 28/28/28 29/29/29
f 30/30/30 27/27/27 29/29/29
f 31/31/31 30/30/30 29/29/29
f 32/32/32 31/31/31 29/29/29
f 33/33/33 31/31/31 32/32/32
f 34/34/34 33/33/33 32/32/32
f 33/33/33 34/34/34 35/35/35
f 34/34/34 36/36/36 35/35/35
f 35/35/35 36/36/36 37/37/37
f 38/38/38 35/35/35 37/37/37
f 38/38/38 37/37/37 39/39/39
f 40/40/40 38/38/38 39/39/39
f 40/40/40 39/39/39 41/41/41
f 42/42/42 40/40/40 41/41/41
f 41/41/41 43/43/43 42/42/42
f 43/43/43 44/44/44 42/42/42
f 47/47/47 46/46/46 45/45/45
f 48/48/48 47/47/47 45/45/45
f 51/51/51 50/50/50 49/49/49
f 52/52/52 51/51/51 49/49/49
f 55/55/55 54/54/54 53/53/53
f 56/56/56 55/55/55 53/53/53
f 59/59/59 58/58/58 57/57/57
f 60/60/60 59/59/59 57/57/57
f 63/63/63 62/62/62 61/61/61
f 64/64/64 63/63/63 61/61/61
f 67/67/67 66/66/66 65/65/65
f 68/68/68 67/67/67 65/65/65
f 71/71/71 70/70/70 69/69/69
f 72/72/72 71/71/71 69/69/69
f 75/75/75 74/74/74 73/73/73
f 76/76/76 75/75/75 73/73/73
f 79/79/79 78/78/78 77/77/77
f 80/80/80 79/79/79 77/77/77
f 83/83/83 82/82/82 81/81/81
f 84/84/84 83/83/83 81/81/81
f 87/87/87 86/86/86 85/85/85
f 88/88/88 87/87/87 85/85/85
f 91/91/91 90/90/90 89/89/89
f 92/92/92 91/91/91 89/89/89
f 95/95/95 94/94/94 93/93/93
f 96/96/96 95/95/95 93/93/93
f 99/99/99 98/98/98 97/97/97
f 100/100/100 99/99/99 97/97/97
f 103/103/103 102/102/102 101/101/101
f 104/104/104 103/103/103 101/101/101
f 107/107/107 106/106/106 105/105/105
f 108/108/108 107/107/107 105/105/105
f 111/111/111 110/110/110 109/109/109
f 112/112/112 111/111/111 109/109/109
f 115/115/115 114/114/114 113/113/113
f 116/116/116 115/115/115 113/113/113
f 119/119/119 118/118/118 117/117/117
f 120/120/120 119/119/119 117/117/117
f 123/123/123 122/122/122 121/121/121
f 124/124/124 123/123/123 121/121/121
f 127/127/127 126/126/126 125/125/125
f 128/128/128 127/127/127 125/125/125
f 131/131/131 130/130/130 129/129/129
f 132/132/132 131/131/131 129/129/129
