g Tastiera.043
v 2.03114 0.1684756 0.5428801
v 1.881345 0.1684756 0.5428801
v 1.956242 0.2651093 0.5241556
v 1.956242 0.2651093 0.5241556
v 1.881345 0.1684756 0.5428801
v 1.904751 0.2668595 0.5241556
v 1.904751 0.2668595 0.2620971
v 1.881345 0.1684756 0.2059243
v 1.956242 0.2651093 0.2620971
v 1.956242 0.2651093 0.2620971
v 1.881345 0.1684756 0.2059243
v 2.03114 0.1684756 0.2059243
v 2.007734 0.2668595 0.5241556
v 2.03114 0.1684756 0.5428801
v 1.956242 0.2651093 0.5241556
v 1.956242 0.2651093 0.2620971
v 2.03114 0.1684756 0.2059243
v 2.007734 0.2668595 0.2620971
v 1.834575 0.2750006 0.2807808
v 1.836 0.2747564 0.5125954
v 1.834575 0.2750006 0.5054314
v 1.836 0.2747564 0.2736166
v 1.84003 0.2741051 0.2675517
v 1.84003 0.2741051 0.5186605
v 1.846135 0.2732096 0.2635217
v 1.846135 0.2732096 0.5227311
v 1.8533 0.272192 0.2620971
v 1.8533 0.272192 0.5241556
v 1.904751 0.2668595 0.5241556
v 1.904751 0.2668595 0.2620971
v 1.956242 0.2651093 0.2620971
v 1.956242 0.2651093 0.5241556
v 2.007734 0.2668595 0.2620971
v 2.007734 0.2668595 0.5241556
v 2.059185 0.272192 0.2620971
v 2.059185 0.272192 0.5241556
v 2.06639 0.2732096 0.5227311
v 2.06639 0.2732096 0.2635217
v 2.072455 0.2741051 0.5186605
v 2.072455 0.2741051 0.2675517
v 2.076485 0.2747564 0.5125954
v 2.076485 0.2747564 0.2736166
v 2.07791 0.2750006 0.5054314
v 2.07791 0.2750006 0.2807808
v 1.904751 0.2668595 0.5241556
v 1.881345 0.1684756 0.5428801
v 1.806489 0.1684756 0.5428801
v 1.8533 0.272192 0.5241556
v 2.105996 0.1684756 0.5428801
v 2.03114 0.1684756 0.5428801
v 2.007734 0.2668595 0.5241556
v 2.059185 0.272192 0.5241556
v 1.806489 0.1684756 0.2059243
v 1.881345 0.1684756 0.2059243
v 1.904751 0.2668595 0.2620971
v 1.8533 0.272192 0.2620971
v 2.007734 0.2668595 0.2620971
v 2.03114 0.1684756 0.2059243
v 2.105996 0.1684756 0.2059243
v 2.059185 0.272192 0.2620971
v 2.072455 0.2741051 0.2675517
v 2.119225 0.1684756 0.2114193
v 2.123296 0.1684756 0.2174845
v 2.076485 0.2747564 0.2736166
v 2.06639 0.2732096 0.2635217
v 2.11316 0.1684756 0.2073488
v 2.119225 0.1684756 0.2114193
v 2.072455 0.2741051 0.2675517
v 2.059185 0.272192 0.2620971
v 2.105996 0.1684756 0.2059243
v 2.11316 0.1684756 0.2073488
v 2.06639 0.2732096 0.2635217
v 1.799325 0.1684756 0.2073488
v 1.806489 0.1684756 0.2059243
v 1.8533 0.272192 0.2620971
v 1.846135 0.2732096 0.2635217
v 1.79326 0.1684756 0.2114193
v 1.799325 0.1684756 0.2073488
v 1.846135 0.2732096 0.2635217
v 1.84003 0.2741051 0.2675517
v 1.789189 0.1684756 0.2174845
v 1.79326 0.1684756 0.2114193
v 1.84003 0.2741051 0.2675517
v 1.836 0.2747564 0.2736166
v 1.787765 0.1684756 0.2246485
v 1.789189 0.1684756 0.2174845
v 1.836 0.2747564 0.2736166
v 1.834575 0.2750006 0.2807808
v 1.787765 0.1684756 0.5241556
v 1.787765 0.1684756 0.2246485
v 1.834575 0.2750006 0.2807808
v 1.834575 0.2750006 0.5054314
v 1.789189 0.1684756 0.5313199
v 1.787765 0.1684756 0.5241556
v 1.834575 0.2750006 0.5054314
v 1.836 0.2747564 0.5125954
v 1.79326 0.1684756 0.5373847
v 1.789189 0.1684756 0.5313199
v 1.836 0.2747564 0.5125954
v 1.84003 0.2741051 0.5186605
v 1.799325 0.1684756 0.5414553
v 1.79326 0.1684756 0.5373847
v 1.84003 0.2741051 0.5186605
v 1.846135 0.2732096 0.5227311
v 1.806489 0.1684756 0.5428801
v 1.799325 0.1684756 0.5414553
v 1.846135 0.2732096 0.5227311
v 1.8533 0.272192 0.5241556
v 2.06639 0.2732096 0.5227311
v 2.11316 0.1684756 0.5414553
v 2.105996 0.1684756 0.5428801
v 2.059185 0.272192 0.5241556
v 2.072455 0.2741051 0.5186605
v 2.119225 0.1684756 0.5373847
v 2.11316 0.1684756 0.5414553
v 2.06639 0.2732096 0.5227311
v 2.076485 0.2747564 0.5125954
v 2.123296 0.1684756 0.5313199
v 2.119225 0.1684756 0.5373847
v 2.072455 0.2741051 0.5186605
v 2.07791 0.2750006 0.5054314
v 2.12472 0.1684756 0.5241556
v 2.123296 0.1684756 0.5313199
v 2.076485 0.2747564 0.5125954
v 2.07791 0.2750006 0.2807808
v 2.12472 0.1684756 0.2246485
v 2.12472 0.1684756 0.5241556
v 2.07791 0.2750006 0.5054314
v 2.076485 0.2747564 0.2736166
v 2.123296 0.1684756 0.2174845
v 2.12472 0.1684756 0.2246485
v 2.07791 0.2750006 0.2807808
vt 0.8807918 0.5191545
vt 0.9534922 0.6654872
vt 0.9534922 0.5191545
vt 0.8807918 0.5191545
vt 0.9534922 0.6654872
vt 0.9534922 0.5191545
vt 0.8807918 0.5191545
vt 0.9534922 0.6654872
vt 0.9534922 0.5191545
vt 0.8807918 0.5191545
vt 0.9534922 0.6654872
vt 0.9534922 0.5191545
vt 0.8807918 0.5191545
vt 0.9534922 0.6654872
vt 0.9534922 0.5191545
vt 0.8807918 0.5191545
vt 0.9534922 0.6654872
vt 0.9534922 0.5191545
vt 0.06244768 0.6337973
vt 0.06244768 0.7447119
vt 0.06244768 0.7409836
vt 0.06244768 0.6300691
vt 0.06151562 0.627273
vt 0.06151562 0.747508
vt 0.05965151 0.6254088
vt 0.05965151 0.7493721
vt 0.0577874 0.6254088
vt 0.0577874 0.7503042
vt 0.04473864 0.7503042
vt 0.04473864 0.6254088
vt 0.03168987 0.6254088
vt 0.03168987 0.7503042
vt 0.01770904 0.6254088
vt 0.01770904 0.7503042
vt 0.004660274 0.6254088
vt 0.004660274 0.7503042
vt 0.002796165 0.7493721
vt 0.002796165 0.6254088
vt 0.00186411 0.747508
vt 0.00186411 0.627273
vt 0 0.7447119
vt 0 0.6300691
vt 0 0.7409836
vt 0 0.6337973
vt 0.8807918 0.5191545
vt 0.8807918 0.6654872
vt 0.9534922 0.6654872
vt 0.9534922 0.5191545
vt 0.8807918 0.5191545
vt 0.8807918 0.6654872
vt 0.9534922 0.6654872
vt 0.9534922 0.5191545
vt 0.8807918 0.5191545
vt 0.8807918 0.6654872
vt 0.9534922 0.6654872
vt 0.9534922 0.5191545
vt 0.8807918 0.5191545
vt 0.8807918 0.6654872
vt 0.9534922 0.6654872
vt 0.9534922 0.5191545
vt 0.8807918 0.5191545
vt 0.8807918 0.6654872
vt 0.9534922 0.6654872
vt 0.9534922 0.5191545
vt 0.8807918 0.5191545
vt 0.8807918 0.6654872
vt 0.9534922 0.6654872
vt 0.9534922 0.5191545
vt 0.8807918 0.5191545
vt 0.8807918 0.6654872
vt 0.9534922 0.6654872
vt 0.9534922 0.5191545
vt 0.8807918 0.5191545
vt 0.8807918 0.6654872
vt 0.9534922 0.6654872
vt 0.9534922 0.5191545
vt 0.8807918 0.5191545
vt 0.8807918 0.6654872
vt 0.9534922 0.6654872
vt 0.9534922 0.5191545
vt 0.8807918 0.5191545
vt 0.8807918 0.6654872
vt 0.9534922 0.6654872
vt 0.9534922 0.5191545
vt 0.8807918 0.5191545
vt 0.8807918 0.6654872
vt 0.9534922 0.6654872
vt 0.9534922 0.5191545
vt 0.8807918 0.5191545
vt 0.8807918 0.6654872
vt 0.9534922 0.6654872
vt 0.9534922 0.5191545
vt 0.8807918 0.5191545
vt 0.8807918 0.6654872
vt 0.9534922 0.6654872
vt 0.9534922 0.5191545
vt 0.8807918 0.5191545
vt 0.8807918 0.6654872
vt 0.9534922 0.6654872
vt 0.9534922 0.5191545
vt 0.8807918 0.5191545
vt 0.8807918 0.6654872
vt 0.9534922 0.6654872
vt 0.9534922 0.5191545
vt 0.8807918 0.5191545
vt 0.8807918 0.6654872
vt 0.9534922 0.6654872
vt 0.9534922 0.5191545
vt 0.8807918 0.5191545
vt 0.8807918 0.6654872
vt 0.9534922 0.6654872
vt 0.9534922 0.5191545
vt 0.8807918 0.5191545
vt 0.8807918 0.6654872
vt 0.9534922 0.6654872
vt 0.9534922 0.5191545
vt 0.8807918 0.5191545
vt 0.8807918 0.6654872
vt 0.9534922 0.6654872
vt 0.9534922 0.5191545
vt 0.8807918 0.5191545
vt 0.8807918 0.6654872
vt 0.9534922 0.6654872
vt 0.9534922 0.5191545
vt 0.8807918 0.5191545
vt 0.8807918 0.6654872
vt 0.9534922 0.6654872
vt 0.9534922 0.5191545
vt 0.8807918 0.5191545
vt 0.8807918 0.6654872
vt 0.9534922 0.6654872
vt 0.9534922 0.5191545
vn 0.00160712 0.1852596 0.9826883
vn 0.00160712 0.1852596 0.9826883
vn 0.00160712 0.1852596 0.9826883
vn 0.00160712 0.1852596 0.9826883
vn 0.00160712 0.1852596 0.9826883
vn 0.00160712 0.1852596 0.9826883
vn 0.009081781 0.491721 -0.8707054
vn 0.009081781 0.4991957 -0.8664417
vn 0.00160712 0.4991957 -0.8664878
vn 0.00160712 0.4991957 -0.8664878
vn 0.009081781 0.4991957 -0.8664417
vn -0.005867541 0.4991957 -0.8664694
vn -0.005867541 0.1852596 0.9826721
vn 0.00160712 0.1852596 0.9826883
vn 0.00160712 0.1852596 0.9826883
vn 0.00160712 0.4991957 -0.8664878
vn -0.005867541 0.4991957 -0.8664694
vn -0.005867541 0.491721 -0.870733
vn 0.1585752 0.9850491 -0.06732131
vn 0.1585752 0.9850491 -0.06732131
vn 0.1585752 0.9850491 -0.06732131
vn 0.1585752 0.9850491 -0.06732131
vn 0.1511005 0.9850491 -0.08274566
vn 0.1511005 0.9850491 -0.08274566
vn 0.143216 0.9896914 0
vn 0.143216 0.9896914 0
vn 0.1212019 0.9925239 -0.01436493
vn 0.1212019 0.9925239 -0.01436493
vn 0.06871647 0.9976363 0
vn 0.06871647 0.9976363 0
vn 0.00160712 0.9999986 -0.000545915
vn 0.00160712 0.9999986 -0.000545915
vn -0.06552387 0.997851 0
vn -0.06552387 0.997851 0
vn -0.1179875 0.9925239 -0.03122806
vn -0.1179875 0.9925239 -0.03122806
vn -0.1473733 0.9890809 0
vn -0.1473733 0.9890809 0
vn -0.1553609 0.9850491 -0.07443927
vn -0.1553609 0.9850491 -0.07443927
vn -0.1553609 0.9850491 -0.07443927
vn -0.1553609 0.9850491 -0.07443927
vn -0.1628356 0.9850491 -0.05623879
vn -0.1628356 0.9850491 -0.05623879
vn 0.00160712 0.1852596 0.9826883
vn 0.00160712 0.1852596 0.9826883
vn -0.09556353 0.2226329 0.9702073
vn -0.09556353 0.2226329 0.9702073
vn 0.09130317 0.2226329 0.9706175
vn 0.00160712 0.1852596 0.9826883
vn -0.005867541 0.1852596 0.9826721
vn 0.09130317 0.2226329 0.9706175
vn -0.08061421 0.514145 -0.8539065
vn 0.009081781 0.4991957 -0.8664417
vn 0.009081781 0.491721 -0.8707054
vn -0.08061421 0.514145 -0.8539065
vn -0.005867541 0.491721 -0.870733
vn -0.005867541 0.4991957 -0.8664694
vn 0.08382851 0.514145 -0.8535969
vn 0.08382851 0.514145 -0.8535969
vn 0.5846313 0.5664678 -0.580793
vn 0.5846313 0.5664678 -0.580793
vn 0.7939221 0.5216197 -0.312411
vn 0.7939221 0.5216197 -0.312411
vn 0.3155432 0.5589931 -0.766785
vn 0.3155432 0.5589931 -0.766785
vn 0.5846313 0.5664678 -0.580793
vn 0.5846313 0.5664678 -0.580793
vn 0.08382851 0.514145 -0.8535969
vn 0.08382851 0.514145 -0.8535969
vn 0.3155432 0.5589931 -0.766785
vn 0.3155432 0.5589931 -0.766785
vn -0.3123289 0.5589931 -0.7680998
vn -0.08061421 0.514145 -0.8539065
vn -0.08061421 0.514145 -0.8539065
vn -0.3123289 0.5589931 -0.7680998
vn -0.5814171 0.5664678 -0.5840107
vn -0.3123289 0.5589931 -0.7680998
vn -0.3123289 0.5589931 -0.7680998
vn -0.5814171 0.5664678 -0.5840107
vn -0.7907078 0.5216197 -0.3204591
vn -0.5814171 0.5664678 -0.5840107
vn -0.5814171 0.5664678 -0.5840107
vn -0.7907078 0.5216197 -0.3204591
vn -0.8953532 0.4393983 -0.07260691
vn -0.7907078 0.5216197 -0.3204591
vn -0.7907078 0.5216197 -0.3204591
vn -0.8953532 0.4393983 -0.07260691
vn -0.9028279 0.4169743 0.1050441
vn -0.8953532 0.4393983 -0.07260691
vn -0.8953532 0.4393983 -0.07260691
vn -0.9028279 0.4169743 0.1050441
vn -0.8355558 0.424449 0.3488403
vn -0.9028279 0.4169743 0.1050441
vn -0.9028279 0.4169743 0.1050441
vn -0.8355558 0.424449 0.3488403
vn -0.648689 0.402025 0.6462031
vn -0.8355558 0.424449 0.3488403
vn -0.8355558 0.424449 0.3488403
vn -0.648689 0.402025 0.6462031
vn -0.357177 0.3198036 0.8775821
vn -0.648689 0.402025 0.6462031
vn -0.648689 0.402025 0.6462031
vn -0.357177 0.3198036 0.8775821
vn -0.09556353 0.2226329 0.9702073
vn -0.357177 0.3198036 0.8775821
vn -0.357177 0.3198036 0.8775821
vn -0.09556353 0.2226329 0.9702073
vn 0.3603913 0.3198036 0.876267
vn 0.3603913 0.3198036 0.876267
vn 0.09130317 0.2226329 0.9706175
vn 0.09130317 0.2226329 0.9706175
vn 0.6444287 0.402025 0.6504518
vn 0.6444287 0.402025 0.6504518
vn 0.3603913 0.3198036 0.876267
vn 0.3603913 0.3198036 0.876267
vn 0.8312954 0.424449 0.3588746
vn 0.8312954 0.424449 0.3588746
vn 0.6444287 0.402025 0.6504518
vn 0.6444287 0.402025 0.6504518
vn 0.9060421 0.4169743 0.07225047
vn 0.9060421 0.4169743 0.07225047
vn 0.8312954 0.424449 0.3588746
vn 0.8312954 0.424449 0.3588746
vn 0.8910928 0.4393983 -0.1135024
vn 0.8910928 0.4393983 -0.1135024
vn 0.9060421 0.4169743 0.07225047
vn 0.9060421 0.4169743 0.07225047
vn 0.7939221 0.5216197 -0.312411
vn 0.7939221 0.5216197 -0.312411
vn 0.8910928 0.4393983 -0.1135024
vn 0.8910928 0.4393983 -0.1135024
g Tastiera.043_0
f 3/3/3 2/2/2 1/1/1
f 6/6/6 5/5/5 4/4/4
f 9/9/9 8/8/8 7/7/7
f 12/12/12 11/11/11 10/10/10
f 15/15/15 14/14/14 13/13/13
f 18/18/18 17/17/17 16/16/16
f 21/21/21 20/20/20 19/19/19
f 20/20/20 22/22/22 19/19/19
f 22/22/22 20/20/20 23/23/23
f 20/20/20 24/24/24 23/23/23
f 23/23/23 24/24/24 25/25/25
f 24/24/24 26/26/26 25/25/25
f 25/25/25 26/26/26 27/27/27
f 26/26/26 28/28/28 27/27/27
f 27/27/27 28/28/28 29/29/29
f 30/30/30 27/27/27 29/29/29
f 31/31/31 30/30/30 29/29/29
f 32/32/32 31/31/31 29/29/29
f 33/33/33 31/31/31 32/32/32
f 34/34/34 33/33/33 32/32/32
f 33/33/33 34/34/34 35/35/35
f 34/34/34 36/36/36 35/35/35
f 35/35/35 36/36/36 37/37/37
f 38/38/38 35/35/35 37/37/37
f 38/38/38 37/37/37 39/39/39
f 40/40/40 38/38/38 39/39/39
f 40/40/40 39/39/39 41/41/41
f 42/42/42 40/40/40 41/41/41
f 41/41/41 43/43/43 42/42/42
f 43/43/43 44/44/44 42/42/42
f 47/47/47 46/46/46 45/45/45
f 48/48/48 47/47/47 45/45/45
f 51/51/51 50/50/50 49/49/49
f 52/52/52 51/51/51 49/49/49
f 55/55/55 54/54/54 53/53/53
f 56/56/56 55/55/55 53/53/53
f 59/59/59 58/58/58 57/57/57
f 60/60/60 59/59/59 57/57/57
f 63/63/63 62/62/62 61/61/61
f 64/64/64 63/63/63 61/61/61
f 67/67/67 66/66/66 65/65/65
f 68/68/68 67/67/67 65/65/65
f 71/71/71 70/70/70 69/69/69
f 72/72/72 71/71/71 69/69/69
f 75/75/75 74/74/74 73/73/73
f 76/76/76 75/75/75 73/73/73
f 79/79/79 78/78/78 77/77/77
f 80/80/80 79/79/79 77/77/77
f 83/83/83 82/82/82 81/81/81
f 84/84/84 83/83/83 81/81/81
f 87/87/87 86/86/86 85/85/85
f 88/88/88 87/87/87 85/85/85
f 91/91/91 90/90/90 89/89/89
f 92/92/92 91/91/91 89/89/89
f 95/95/95 94/94/94 93/93/93
f 96/96/96 95/95/95 93/93/93
f 99/99/99 98/98/98 97/97/97
f 100/100/100 99/99/99 97/97/97
f 103/103/103 102/102/102 101/101/101
f 104/104/104 103/103/103 101/101/101
f 107/107/107 106/106/106 105/105/105
f 108/108/108 107/107/107 105/105/105
f 111/111/111 110/110/110 109/109/109
f 112/112/112 111/111/111 109/109/109
f 115/115/115 114/114/114 113/113/113
f 116/116/116 115/115/115 113/113/113
f 119/119/119 118/118/118 117/117/117
f 120/120/120 119/119/119 117/117/117
f 123/123/123 122/122/122 121/121/121
f 124/124/124 123/123/123 121/121/121
f 127/127/127 126/126/126 125/125/125
f 128/128/128 127/127/127 125/125/125
f 131/131/131 130/130/130 129/129/129
f 132/132/132 131/131/131 129/129/129
