g Tastiera.059
v 1.048325 0.1684775 -0.1684782
v 0.8985596 0.1684775 -0.1684782
v 0.9734315 0.2650995 -0.1872016
v 0.9734315 0.2650995 -0.1872016
v 0.8985596 0.1684775 -0.1684782
v 0.921953 0.2668724 -0.1872016
v 0.921953 0.2668724 -0.4492854
v 0.8985596 0.1684775 -0.5054339
v 0.9734315 0.2650995 -0.4492854
v 0.9734315 0.2650995 -0.4492854
v 0.8985596 0.1684775 -0.5054339
v 1.048325 0.1684775 -0.5054339
v 1.02491 0.2668724 -0.1872016
v 1.048325 0.1684775 -0.1684782
v 0.9734315 0.2650995 -0.1872016
v 0.9734315 0.2650995 -0.4492854
v 1.048325 0.1684775 -0.5054339
v 1.02491 0.2668724 -0.4492854
v 0.8517512 0.2749801 -0.430562
v 0.8531781 0.2747422 -0.1987469
v 0.8517512 0.2749801 -0.2059249
v 0.8531781 0.2747422 -0.4377184
v 0.8572428 0.2741153 -0.4437938
v 0.8572428 0.2741153 -0.1926932
v 0.8633182 0.2731856 -0.4478585
v 0.8633182 0.2731856 -0.1886285
v 0.8704746 0.2721695 -0.4492854
v 0.8704746 0.2721695 -0.1872016
v 0.921953 0.2668724 -0.1872016
v 0.921953 0.2668724 -0.4492854
v 0.9734315 0.2650995 -0.4492854
v 0.9734315 0.2650995 -0.1872016
v 1.02491 0.2668724 -0.4492854
v 1.02491 0.2668724 -0.1872016
v 1.07641 0.2721695 -0.4492854
v 1.07641 0.2721695 -0.1872016
v 1.083566 0.2731856 -0.1886285
v 1.083566 0.2731856 -0.4478585
v 1.089642 0.2741153 -0.1926932
v 1.089642 0.2741153 -0.4437938
v 1.093706 0.2747422 -0.1987469
v 1.093706 0.2747422 -0.4377184
v 1.095112 0.2749801 -0.2059249
v 1.095112 0.2749801 -0.430562
v 0.921953 0.2668724 -0.1872016
v 0.8985596 0.1684775 -0.1684782
v 0.8236878 0.1684775 -0.1684782
v 0.8704746 0.2721695 -0.1872016
v 1.123197 0.1684775 -0.1684782
v 1.048325 0.1684775 -0.1684782
v 1.02491 0.2668724 -0.1872016
v 1.07641 0.2721695 -0.1872016
v 0.8236878 0.1684775 -0.5054339
v 0.8985596 0.1684775 -0.5054339
v 0.921953 0.2668724 -0.4492854
v 0.8704746 0.2721695 -0.4492854
v 1.02491 0.2668724 -0.4492854
v 1.048325 0.1684775 -0.5054339
v 1.123197 0.1684775 -0.5054339
v 1.07641 0.2721695 -0.4492854
v 1.089642 0.2741153 -0.4437938
v 1.136428 0.1684775 -0.4999639
v 1.140493 0.1684775 -0.4938885
v 1.093706 0.2747422 -0.4377184
v 1.083566 0.2731856 -0.4478585
v 1.130375 0.1684775 -0.5040069
v 1.136428 0.1684775 -0.4999639
v 1.089642 0.2741153 -0.4437938
v 1.07641 0.2721695 -0.4492854
v 1.123197 0.1684775 -0.5054339
v 1.130375 0.1684775 -0.5040069
v 1.083566 0.2731856 -0.4478585
v 0.8165098 0.1684775 -0.5040069
v 0.8236878 0.1684775 -0.5054339
v 0.8704746 0.2721695 -0.4492854
v 0.8633182 0.2731856 -0.4478585
v 0.8104344 0.1684775 -0.4999639
v 0.8165098 0.1684775 -0.5040069
v 0.8633182 0.2731856 -0.4478585
v 0.8572428 0.2741153 -0.4437938
v 0.8063914 0.1684775 -0.4938885
v 0.8104344 0.1684775 -0.4999639
v 0.8572428 0.2741153 -0.4437938
v 0.8531781 0.2747422 -0.4377184
v 0.8049644 0.1684775 -0.4867105
v 0.8063914 0.1684775 -0.4938885
v 0.8531781 0.2747422 -0.4377184
v 0.8517512 0.2749801 -0.430562
v 0.8049644 0.1684775 -0.1872016
v 0.8049644 0.1684775 -0.4867105
v 0.8517512 0.2749801 -0.430562
v 0.8517512 0.2749801 -0.2059249
v 0.8063914 0.1684775 -0.1800452
v 0.8049644 0.1684775 -0.1872016
v 0.8517512 0.2749801 -0.2059249
v 0.8531781 0.2747422 -0.1987469
v 0.8104344 0.1684775 -0.1739698
v 0.8063914 0.1684775 -0.1800452
v 0.8531781 0.2747422 -0.1987469
v 0.8572428 0.2741153 -0.1926932
v 0.8165098 0.1684775 -0.1699051
v 0.8104344 0.1684775 -0.1739698
v 0.8572428 0.2741153 -0.1926932
v 0.8633182 0.2731856 -0.1886285
v 0.8236878 0.1684775 -0.1684782
v 0.8165098 0.1684775 -0.1699051
v 0.8633182 0.2731856 -0.1886285
v 0.8704746 0.2721695 -0.1872016
v 1.083566 0.2731856 -0.1886285
v 1.130375 0.1684775 -0.1699051
v 1.123197 0.1684775 -0.1684782
v 1.07641 0.2721695 -0.1872016
v 1.089642 0.2741153 -0.1926932
v 1.136428 0.1684775 -0.1739698
v 1.130375 0.1684775 -0.1699051
v 1.083566 0.2731856 -0.1886285
v 1.093706 0.2747422 -0.1987469
v 1.140493 0.1684775 -0.1800452
v 1.136428 0.1684775 -0.1739698
v 1.089642 0.2741153 -0.1926932
v 1.095112 0.2749801 -0.2059249
v 1.14192 0.1684775 -0.1872016
v 1.140493 0.1684775 -0.1800452
v 1.093706 0.2747422 -0.1987469
v 1.095112 0.2749801 -0.430562
v 1.14192 0.1684775 -0.4867105
v 1.14192 0.1684775 -0.1872016
v 1.095112 0.2749801 -0.2059249
v 1.093706 0.2747422 -0.4377184
v 1.140493 0.1684775 -0.4938885
v 1.14192 0.1684775 -0.4867105
v 1.095112 0.2749801 -0.430562
vt 0.8806042 0.5194044
vt 0.953492 0.6651801
vt 0.953492 0.5194044
vt 0.8806042 0.5194044
vt 0.953492 0.6651801
vt 0.953492 0.5194044
vt 0.8806042 0.5194044
vt 0.953492 0.6651801
vt 0.953492 0.5194044
vt 0.8806042 0.5194044
vt 0.953492 0.6651801
vt 0.953492 0.5194044
vt 0.8806042 0.5194044
vt 0.953492 0.6651801
vt 0.953492 0.5194044
vt 0.8806042 0.5194044
vt 0.953492 0.6651801
vt 0.953492 0.5194044
vt 0.1873596 0.3841569
vt 0.1873596 0.4942985
vt 0.1873596 0.4910591
vt 0.1873596 0.3801075
vt 0.1857399 0.3776779
vt 0.1857399 0.497538
vt 0.18493 0.3760582
vt 0.18493 0.4991577
vt 0.1825004 0.3752483
vt 0.1825004 0.4999676
vt 0.1695426 0.4999676
vt 0.1695426 0.3752483
vt 0.1565847 0.3752483
vt 0.1565847 0.4999676
vt 0.142817 0.3752483
vt 0.142817 0.4999676
vt 0.1298592 0.3752483
vt 0.1298592 0.4999676
vt 0.1282395 0.4991577
vt 0.1282395 0.3760582
vt 0.1266197 0.497538
vt 0.1266197 0.3776779
vt 0.125 0.4942985
vt 0.125 0.3801075
vt 0.125 0.4910591
vt 0.125 0.3841569
vt 0.8806042 0.5194044
vt 0.8806042 0.6651801
vt 0.953492 0.6651801
vt 0.953492 0.5194044
vt 0.8806042 0.5194044
vt 0.8806042 0.6651801
vt 0.953492 0.6651801
vt 0.953492 0.5194044
vt 0.8806042 0.5194044
vt 0.8806042 0.6651801
vt 0.953492 0.6651801
vt 0.953492 0.5194044
vt 0.8806042 0.5194044
vt 0.8806042 0.6651801
vt 0.953492 0.6651801
vt 0.953492 0.5194044
vt 0.8806042 0.5194044
vt 0.8806042 0.6651801
vt 0.953492 0.6651801
vt 0.953492 0.5194044
vt 0.8806042 0.5194044
vt 0.8806042 0.6651801
vt 0.953492 0.6651801
vt 0.953492 0.5194044
vt 0.8806042 0.5194044
vt 0.8806042 0.6651801
vt 0.953492 0.6651801
vt 0.953492 0.5194044
vt 0.8806042 0.5194044
vt 0.8806042 0.6651801
vt 0.953492 0.6651801
vt 0.953492 0.5194044
vt 0.8806042 0.5194044
vt 0.8806042 0.6651801
vt 0.953492 0.6651801
vt 0.953492 0.5194044
vt 0.8806042 0.5194044
vt 0.8806042 0.6651801
vt 0.953492 0.6651801
vt 0.953492 0.5194044
vt 0.8806042 0.5194044
vt 0.8806042 0.6651801
vt 0.953492 0.6651801
vt 0.953492 0.5194044
vt 0.8806042 0.5194044
vt 0.8806042 0.6651801
vt 0.953492 0.6651801
vt 0.953492 0.5194044
vt 0.8806042 0.5194044
vt 0.8806042 0.6651801
vt 0.953492 0.6651801
vt 0.953492 0.5194044
vt 0.8806042 0.5194044
vt 0.8806042 0.6651801
vt 0.953492 0.6651801
vt 0.953492 0.5194044
vt 0.8806042 0.5194044
vt 0.8806042 0.6651801
vt 0.953492 0.6651801
vt 0.953492 0.5194044
vt 0.8806042 0.5194044
vt 0.8806042 0.6651801
vt 0.953492 0.6651801
vt 0.953492 0.5194044
vt 0.8806042 0.5194044
vt 0.8806042 0.6651801
vt 0.953492 0.6651801
vt 0.953492 0.5194044
vt 0.8806042 0.5194044
vt 0.8806042 0.6651801
vt 0.953492 0.6651801
vt 0.953492 0.5194044
vt 0.8806042 0.5194044
vt 0.8806042 0.6651801
vt 0.953492 0.6651801
vt 0.953492 0.5194044
vt 0.8806042 0.5194044
vt 0.8806042 0.6651801
vt 0.953492 0.6651801
vt 0.953492 0.5194044
vt 0.8806042 0.5194044
vt 0.8806042 0.6651801
vt 0.953492 0.6651801
vt 0.953492 0.5194044
vt 0.8806042 0.5194044
vt 0.8806042 0.6651801
vt 0.953492 0.6651801
vt 0.953492 0.5194044
vn 0.001608908 0.1852582 0.9826886
vn 0.001608908 0.1852582 0.9826886
vn 0.001608908 0.1852582 0.9826886
vn 0.001608908 0.1852582 0.9826886
vn 0.001608908 0.1852582 0.9826886
vn 0.001608908 0.1852582 0.9826886
vn 0.009083629 0.4917203 -0.8707058
vn 0.009083629 0.4991949 -0.8664421
vn 0.001608908 0.4991949 -0.8664882
vn 0.001608908 0.4991949 -0.8664882
vn 0.009083629 0.4991949 -0.8664421
vn -0.005865753 0.4991949 -0.8664699
vn -0.005865753 0.1852582 0.9826724
vn 0.001608908 0.1852582 0.9826886
vn 0.001608908 0.1852582 0.9826886
vn 0.001608908 0.4991949 -0.8664882
vn -0.005865753 0.4991949 -0.8664699
vn -0.005865753 0.4917203 -0.8707335
vn 0.1585773 0.9850494 -0.06731201
vn 0.1585773 0.9850494 -0.06731201
vn 0.1585773 0.9850494 -0.06731201
vn 0.1585773 0.9850494 -0.06731201
vn 0.1511026 0.9850494 -0.08273846
vn 0.1511026 0.9850494 -0.08273846
vn 0.143218 0.9896911 0
vn 0.143218 0.9896911 0
vn 0.1212038 0.9925241 -0.01433586
vn 0.1212038 0.9925241 -0.01433586
vn 0.06871836 0.9976361 0
vn 0.06871836 0.9976361 0
vn 0.001608908 0.9999987 0
vn 0.001608908 0.9999987 0
vn -0.06552219 0.9978511 0
vn -0.06552219 0.9978511 0
vn -0.117986 0.9925241 -0.03122806
vn -0.117986 0.9925241 -0.03122806
vn -0.1473718 0.9890812 0
vn -0.1473718 0.9890812 0
vn -0.1553594 0.9850494 -0.07443848
vn -0.1553594 0.9850494 -0.07443848
vn -0.1553594 0.9850494 -0.07443848
vn -0.1553594 0.9850494 -0.07443848
vn -0.1628341 0.9850494 -0.05623773
vn -0.1628341 0.9850494 -0.05623773
vn 0.001608908 0.1852582 0.9826886
vn 0.001608908 0.1852582 0.9826886
vn -0.09556192 0.2226316 0.9702078
vn -0.09556192 0.2226316 0.9702078
vn 0.09130514 0.2226316 0.9706176
vn 0.001608908 0.1852582 0.9826886
vn -0.005865753 0.1852582 0.9826724
vn 0.09130514 0.2226316 0.9706176
vn -0.0806126 0.5141444 -0.853907
vn 0.009083629 0.4991949 -0.8664421
vn 0.009083629 0.4917203 -0.8707058
vn -0.0806126 0.5141444 -0.853907
vn -0.005865753 0.4917203 -0.8707335
vn -0.005865753 0.4991949 -0.8664699
vn 0.08383048 0.5141444 -0.8535971
vn 0.08383048 0.5141444 -0.8535971
vn 0.5846343 0.5664671 -0.5807906
vn 0.5846343 0.5664671 -0.5807906
vn 0.7939255 0.521619 -0.3124035
vn 0.7939255 0.521619 -0.3124035
vn 0.3155457 0.5589924 -0.7667844
vn 0.3155457 0.5589924 -0.7667844
vn 0.5846343 0.5664671 -0.5807906
vn 0.5846343 0.5664671 -0.5807906
vn 0.08383048 0.5141444 -0.8535971
vn 0.08383048 0.5141444 -0.8535971
vn 0.3155457 0.5589924 -0.7667844
vn 0.3155457 0.5589924 -0.7667844
vn -0.3123278 0.5589924 -0.7681008
vn -0.0806126 0.5141444 -0.853907
vn -0.0806126 0.5141444 -0.853907
vn -0.3123278 0.5589924 -0.7681008
vn -0.5814164 0.5664671 -0.584012
vn -0.3123278 0.5589924 -0.7681008
vn -0.3123278 0.5589924 -0.7681008
vn -0.5814164 0.5664671 -0.584012
vn -0.7907076 0.521619 -0.3204606
vn -0.5814164 0.5664671 -0.584012
vn -0.5814164 0.5664671 -0.584012
vn -0.7907076 0.521619 -0.3204606
vn -0.8953533 0.4393975 -0.07261121
vn -0.7907076 0.521619 -0.3204606
vn -0.7907076 0.521619 -0.3204606
vn -0.8953533 0.4393975 -0.07261121
vn -0.9028279 0.4169734 0.1050474
vn -0.8953533 0.4393975 -0.07261121
vn -0.8953533 0.4393975 -0.07261121
vn -0.9028279 0.4169734 0.1050474
vn -0.8355557 0.4244481 0.3488416
vn -0.9028279 0.4169734 0.1050474
vn -0.9028279 0.4169734 0.1050474
vn -0.8355557 0.4244481 0.3488416
vn -0.6486886 0.4020241 0.6462041
vn -0.8355557 0.4244481 0.3488416
vn -0.8355557 0.4244481 0.3488416
vn -0.6486886 0.4020241 0.6462041
vn -0.3571759 0.3198025 0.8775829
vn -0.6486886 0.4020241 0.6462041
vn -0.6486886 0.4020241 0.6462041
vn -0.3571759 0.3198025 0.8775829
vn -0.09556192 0.2226316 0.9702078
vn -0.3571759 0.3198025 0.8775829
vn -0.3571759 0.3198025 0.8775829
vn -0.09556192 0.2226316 0.9702078
vn 0.3603938 0.3123278 0.8789583
vn 0.3603938 0.3198025 0.8762664
vn 0.09130514 0.2226316 0.9706176
vn 0.09130514 0.2226316 0.9706176
vn 0.6444318 0.4020241 0.6504494
vn 0.6444318 0.4020241 0.6504494
vn 0.3603938 0.3198025 0.8762664
vn 0.3603938 0.3123278 0.8789583
vn 0.8312989 0.4244481 0.3588676
vn 0.8312989 0.4244481 0.3588676
vn 0.6444318 0.4020241 0.6504494
vn 0.6444318 0.4020241 0.6504494
vn 0.9060457 0.4169734 0.07221024
vn 0.9060457 0.4169734 0.07221024
vn 0.8312989 0.4244481 0.3588676
vn 0.8312989 0.4244481 0.3588676
vn 0.8910964 0.4393975 -0.1134773
vn 0.8910964 0.4393975 -0.1134773
vn 0.9060457 0.4169734 0.07221024
vn 0.9060457 0.4169734 0.07221024
vn 0.7939255 0.521619 -0.3124035
vn 0.7939255 0.521619 -0.3124035
vn 0.8910964 0.4393975 -0.1134773
vn 0.8910964 0.4393975 -0.1134773
g Tastiera.059_0
f 3/3/3 2/2/2 1/1/1
f 6/6/6 5/5/5 4/4/4
f 9/9/9 8/8/8 7/7/7
f 12/12/12 11/11/11 10/10/10
f 15/15/15 14/14/14 13/13/13
f 18/18/18 17/17/17 16/16/16
f 21/21/21 20/20/20 19/19/19
f 20/20/20 22/22/22 19/19/19
f 22/22/22 20/20/20 23/23/23
f 20/20/20 24/24/24 23/23/23
f 23/23/23 24/24/24 25/25/25
f 24/24/24 26/26/26 25/25/25
f 25/25/25 26/26/26 27/27/27
f 26/26/26 28/28/28 27/27/27
f 27/27/27 28/28/28 29/29/29
f 30/30/30 27/27/27 29/29/29
f 31/31/31 30/30/30 29/29/29
f 32/32/32 31/31/31 29/29/29
f 33/33/33 31/31/31 32/32/32
f 34/34/34 33/33/33 32/32/32
f 33/33/33 34/34/34 35/35/35
f 34/34/34 36/36/36 35/35/35
f 35/35/35 36/36/36 37/37/37
f 38/38/38 35/35/35 37/37/37
f 38/38/38 37/37/37 39/39/39
f 40/40/40 38/38/38 39/39/39
f 40/40/40 39/39/39 41/41/41
f 42/42/42 40/40/40 41/41/41
f 41/41/41 43/43/43 42/42/42
f 43/43/43 44/44/44 42/42/42
f 47/47/47 46/46/46 45/45/45
f 48/48/48 47/47/47 45/45/45
f 51/51/51 50/50/50 49/49/49
f 52/52/52 51/51/51 49/49/49
f 55/55/55 54/54/54 53/53/53
f 56/56/56 55/55/55 53/53/53
f 59/59/59 58/58/58 57/57/57
f 60/60/60 59/59/59 57/57/57
f 63/63/63 62/62/62 61/61/61
f 64/64/64 63/63/63 61/61/61
f 67/67/67 66/66/66 65/65/65
f 68/68/68 67/67/67 65/65/65
f 71/71/71 70/70/70 69/69/69
f 72/72/72 71/71/71 69/69/69
f 75/75/75 74/74/74 73/73/73
f 76/76/76 75/75/75 73/73/73
f 79/79/79 78/78/78 77/77/77
f 80/80/80 79/79/79 77/77/77
f 83/83/83 82/82/82 81/81/81
f 84/84/84 83/83/83 81/81/81
f 87/87/87 86/86/86 85/85/85
f 88/88/88 87/87/87 85/85/85
f 91/91/91 90/90/90 89/89/89
f 92/92/92 91/91/91 89/89/89
f 95/95/95 94/94/94 93/93/93
f 96/96/96 95/95/95 93/93/93
f 99/99/99 98/98/98 97/97/97
f 100/100/100 99/99/99 97/97/97
f 103/103/103 102/102/102 101/101/101
f 104/104/104 103/103/103 101/101/101
f 107/107/107 106/106/106 105/105/105
f 108/108/108 107/107/107 105/105/105
f 111/111/111 110/110/110 109/109/109
f 112/112/112 111/111/111 109/109/109
f 115/115/115 114/114/114 113/113/113
f 116/116/116 115/115/115 113/113/113
f 119/119/119 118/118/118 117/117/117
f 120/120/120 119/119/119 117/117/117
f 123/123/123 122/122/122 121/121/121
f 124/124/124 123/123/123 121/121/121
f 127/127/127 126/126/126 125/125/125
f 128/128/128 127/127/127 125/125/125
f 131/131/131 130/130/130 129/129/129
f 132/132/132 131/131/131 129/129/129
