g Tastiera.042
v -2.40085 0.2650921 0.5241549
v -2.528121 0.1684802 0.5428846
v -2.504718 0.2668777 0.5241549
v -2.504718 0.2668777 0.2620908
v -2.528121 0.1684802 0.2059017
v -2.40085 0.2650921 0.2620908
v -2.40085 0.2650921 0.2620908
v -2.528121 0.1684802 0.2059017
v -2.273541 0.1684802 0.2059017
v -2.40085 0.2650921 0.2620908
v -2.273541 0.1684802 0.2059017
v -2.296943 0.2668777 0.2620908
v -2.296943 0.2668777 0.5241549
v -2.273541 0.1684802 0.5428846
v -2.40085 0.2650921 0.5241549
v -2.273541 0.1684802 0.5428846
v -2.528121 0.1684802 0.5428846
v -2.40085 0.2650921 0.5241549
v -2.611435 0.2749699 0.2807826
v -2.61003 0.2747419 0.5126055
v -2.611435 0.2749699 0.5054252
v -2.61003 0.2747419 0.2736402
v -2.605965 0.2740961 0.2675616
v -2.605965 0.2740961 0.5186841
v -2.599886 0.2731843 0.2634965
v -2.599886 0.2731843 0.5227492
v -2.592706 0.2721585 0.2620908
v -2.592706 0.2721585 0.5241549
v -2.504718 0.2668777 0.5241549
v -2.504718 0.2668777 0.2620908
v -2.40085 0.2650921 0.2620908
v -2.40085 0.2650921 0.5241549
v -2.296943 0.2668777 0.2620908
v -2.296943 0.2668777 0.5241549
v -2.208956 0.2721585 0.2620908
v -2.208956 0.2721585 0.5241549
v -2.201775 0.2731843 0.5227492
v -2.201775 0.2731843 0.2634965
v -2.195735 0.2740961 0.5186841
v -2.195735 0.2740961 0.2675616
v -2.191669 0.2747419 0.5126055
v -2.191669 0.2747419 0.2736402
v -2.190226 0.2749699 0.5054252
v -2.190226 0.2749699 0.2807826
v -2.504718 0.2668777 0.5241549
v -2.528121 0.1684802 0.5428846
v -2.639511 0.1684802 0.5428846
v -2.592706 0.2721585 0.5241549
v -2.16215 0.1684802 0.5428846
v -2.273541 0.1684802 0.5428846
v -2.296943 0.2668777 0.5241549
v -2.208956 0.2721585 0.5241549
v -2.639511 0.1684802 0.2059017
v -2.528121 0.1684802 0.2059017
v -2.504718 0.2668777 0.2620908
v -2.592706 0.2721585 0.2620908
v -2.296943 0.2668777 0.2620908
v -2.273541 0.1684802 0.2059017
v -2.16215 0.1684802 0.2059017
v -2.208956 0.2721585 0.2620908
v -2.195735 0.2740961 0.2675616
v -2.148929 0.1684802 0.2114104
v -2.144864 0.1684802 0.217489
v -2.191669 0.2747419 0.2736402
v -2.201775 0.2731843 0.2634965
v -2.155008 0.1684802 0.2073453
v -2.148929 0.1684802 0.2114104
v -2.195735 0.2740961 0.2675616
v -2.208956 0.2721585 0.2620908
v -2.16215 0.1684802 0.2059017
v -2.155008 0.1684802 0.2073453
v -2.201775 0.2731843 0.2634965
v -2.646691 0.1684802 0.2073453
v -2.639511 0.1684802 0.2059017
v -2.592706 0.2721585 0.2620908
v -2.599886 0.2731843 0.2634965
v -2.65277 0.1684802 0.2114104
v -2.646691 0.1684802 0.2073453
v -2.599886 0.2731843 0.2634965
v -2.605965 0.2740961 0.2675616
v -2.656835 0.1684802 0.217489
v -2.65277 0.1684802 0.2114104
v -2.605965 0.2740961 0.2675616
v -2.61003 0.2747419 0.2736402
v -2.658241 0.1684802 0.2246314
v -2.656835 0.1684802 0.217489
v -2.61003 0.2747419 0.2736402
v -2.611435 0.2749699 0.2807826
v -2.658241 0.1684802 0.5241549
v -2.658241 0.1684802 0.2246314
v -2.611435 0.2749699 0.2807826
v -2.611435 0.2749699 0.5054252
v -2.656835 0.1684802 0.5313352
v -2.658241 0.1684802 0.5241549
v -2.611435 0.2749699 0.5054252
v -2.61003 0.2747419 0.5126055
v -2.65277 0.1684802 0.5374138
v -2.656835 0.1684802 0.5313352
v -2.61003 0.2747419 0.5126055
v -2.605965 0.2740961 0.5186841
v -2.646691 0.1684802 0.5414409
v -2.65277 0.1684802 0.5374138
v -2.605965 0.2740961 0.5186841
v -2.599886 0.2731843 0.5227492
v -2.639511 0.1684802 0.5428846
v -2.646691 0.1684802 0.5414409
v -2.599886 0.2731843 0.5227492
v -2.592706 0.2721585 0.5241549
v -2.201775 0.2731843 0.5227492
v -2.155008 0.1684802 0.5414409
v -2.16215 0.1684802 0.5428846
v -2.208956 0.2721585 0.5241549
v -2.195735 0.2740961 0.5186841
v -2.148929 0.1684802 0.5374138
v -2.155008 0.1684802 0.5414409
v -2.201775 0.2731843 0.5227492
v -2.191669 0.2747419 0.5126055
v -2.144864 0.1684802 0.5313352
v -2.148929 0.1684802 0.5374138
v -2.195735 0.2740961 0.5186841
v -2.190226 0.2749699 0.5054252
v -2.143459 0.1684802 0.5241549
v -2.144864 0.1684802 0.5313352
v -2.191669 0.2747419 0.5126055
v -2.190226 0.2749699 0.2807826
v -2.143459 0.1684802 0.2246314
v -2.143459 0.1684802 0.5241549
v -2.190226 0.2749699 0.5054252
v -2.191669 0.2747419 0.2736402
v -2.144864 0.1684802 0.217489
v -2.143459 0.1684802 0.2246314
v -2.190226 0.2749699 0.2807826
vt 0.8804727 0.5191965
vt 0.953492 0.6652353
vt 0.953492 0.5191965
vt 0.8804727 0.5191965
vt 0.953492 0.6652353
vt 0.953492 0.5191965
vt 0.8804727 0.5191965
vt 0.953492 0.6652353
vt 0.953492 0.5191965
vt 0.8804727 0.5191965
vt 0.953492 0.6652353
vt 0.953492 0.5191965
vt 0.8804727 0.5191965
vt 0.953492 0.6652353
vt 0.953492 0.5191965
vt 0.8804727 0.5191965
vt 0.953492 0.6652353
vt 0.953492 0.5191965
vt 0.8435384 0.6338199
vt 0.8435384 0.7446226
vt 0.8435384 0.7412264
vt 0.8435384 0.6304237
vt 0.8426894 0.627452
vt 0.8426894 0.7475944
vt 0.8409913 0.6257539
vt 0.8409913 0.7492925
vt 0.8397176 0.6249048
vt 0.8397176 0.7501416
vt 0.8201892 0.7501416
vt 0.8201892 0.6249048
vt 0.79684 0.6249048
vt 0.79684 0.7501416
vt 0.7739153 0.6249048
vt 0.7739153 0.7501416
vt 0.7539623 0.6249048
vt 0.7539623 0.7501416
vt 0.7526888 0.7492925
vt 0.7526888 0.6257539
vt 0.7514151 0.7475944
vt 0.7514151 0.627452
vt 0.7501416 0.7446226
vt 0.7501416 0.6304237
vt 0.7501416 0.7412264
vt 0.7501416 0.6338199
vt 0.8804727 0.5191965
vt 0.8804727 0.6652353
vt 0.953492 0.6652353
vt 0.953492 0.5191965
vt 0.8804727 0.5191965
vt 0.8804727 0.6652353
vt 0.953492 0.6652353
vt 0.953492 0.5191965
vt 0.8804727 0.5191965
vt 0.8804727 0.6652353
vt 0.953492 0.6652353
vt 0.953492 0.5191965
vt 0.8804727 0.5191965
vt 0.8804727 0.6652353
vt 0.953492 0.6652353
vt 0.953492 0.5191965
vt 0.8804727 0.5191965
vt 0.8804727 0.6652353
vt 0.953492 0.6652353
vt 0.953492 0.5191965
vt 0.8804727 0.5191965
vt 0.8804727 0.6652353
vt 0.953492 0.6652353
vt 0.953492 0.5191965
vt 0.8804727 0.5191965
vt 0.8804727 0.6652353
vt 0.953492 0.6652353
vt 0.953492 0.5191965
vt 0.8804727 0.5191965
vt 0.8804727 0.6652353
vt 0.953492 0.6652353
vt 0.953492 0.5191965
vt 0.8804727 0.5191965
vt 0.8804727 0.6652353
vt 0.953492 0.6652353
vt 0.953492 0.5191965
vt 0.8804727 0.5191965
vt 0.8804727 0.6652353
vt 0.953492 0.6652353
vt 0.953492 0.5191965
vt 0.8804727 0.5191965
vt 0.8804727 0.6652353
vt 0.953492 0.6652353
vt 0.953492 0.5191965
vt 0.8804727 0.5191965
vt 0.8804727 0.6652353
vt 0.953492 0.6652353
vt 0.953492 0.5191965
vt 0.8804727 0.5191965
vt 0.8804727 0.6652353
vt 0.953492 0.6652353
vt 0.953492 0.5191965
vt 0.8804727 0.5191965
vt 0.8804727 0.6652353
vt 0.953492 0.6652353
vt 0.953492 0.5191965
vt 0.8804727 0.5191965
vt 0.8804727 0.6652353
vt 0.953492 0.6652353
vt 0.953492 0.5191965
vt 0.8804727 0.5191965
vt 0.8804727 0.6652353
vt 0.953492 0.6652353
vt 0.953492 0.5191965
vt 0.8804727 0.5191965
vt 0.8804727 0.6652353
vt 0.953492 0.6652353
vt 0.953492 0.5191965
vt 0.8804727 0.5191965
vt 0.8804727 0.6652353
vt 0.953492 0.6652353
vt 0.953492 0.5191965
vt 0.8804727 0.5191965
vt 0.8804727 0.6652353
vt 0.953492 0.6652353
vt 0.953492 0.5191965
vt 0.8804727 0.5191965
vt 0.8804727 0.6652353
vt 0.953492 0.6652353
vt 0.953492 0.5191965
vt 0.8804727 0.5191965
vt 0.8804727 0.6652353
vt 0.953492 0.6652353
vt 0.953492 0.5191965
vt 0.8804727 0.5191965
vt 0.8804727 0.6652353
vt 0.953492 0.6652353
vt 0.953492 0.5191965
vn 0.001608729 0.1852583 0.9826885
vn 0.001608729 0.1852583 0.9826885
vn 0.001608729 0.1852583 0.9826885
vn 0.001608729 0.4917203 -0.8707517
vn 0.001608729 0.4991949 -0.8664882
vn 0.001608729 0.4991949 -0.8664882
vn 0.001608729 0.4991949 -0.8664882
vn 0.001608729 0.4991949 -0.8664882
vn -0.005865932 0.4991949 -0.8664699
vn 0.001608729 0.4991949 -0.8664882
vn -0.005865932 0.4991949 -0.8664699
vn -0.005865932 0.4917203 -0.8707335
vn 0.001608729 0.1852583 0.9826885
vn 0.001608729 0.1852583 0.9826885
vn 0.001608729 0.1852583 0.9826885
vn 0.001608729 0.1852583 0.9826885
vn 0.001608729 0.1852583 0.9826885
vn 0.001608729 0.1852583 0.9826885
vn 0.158577 0.9850492 -0.067316
vn 0.158577 0.9850492 -0.067316
vn 0.158577 0.9850492 -0.067316
vn 0.158577 0.9850492 -0.067316
vn 0.1511024 0.9850492 -0.0827417
vn 0.1511024 0.9850492 -0.0827417
vn 0.1432178 0.9896911 0
vn 0.1432178 0.9896911 0
vn 0.09877956 0.9925238 -0.07168677
vn 0.09877956 0.9925238 -0.07168677
vn 0.03895263 0.9992411 0
vn 0.03895263 0.9992411 0
vn 0.001608729 0.9999985 -0.0006459354
vn 0.001608729 0.9999985 -0.0006459354
vn -0.0357419 0.999361 0
vn -0.0357419 0.999361 0
vn -0.1030368 0.9925238 -0.06542012
vn -0.1030368 0.9925238 -0.06542012
vn -0.147372 0.9890812 0
vn -0.147372 0.9890812 0
vn -0.1553596 0.9850492 -0.07444128
vn -0.1553596 0.9850492 -0.07444128
vn -0.1553596 0.9850492 -0.07444128
vn -0.1553596 0.9850492 -0.07444128
vn -0.1628342 0.9850492 -0.05624144
vn -0.1628342 0.9850492 -0.05624144
vn 0.001608729 0.1852583 0.9826885
vn 0.001608729 0.1852583 0.9826885
vn -0.09556216 0.2226318 0.9702077
vn -0.09556216 0.2226318 0.9702077
vn 0.0913049 0.2226318 0.9706176
vn 0.001608729 0.1852583 0.9826885
vn 0.001608729 0.1852583 0.9826885
vn 0.0913049 0.2226318 0.9706176
vn -0.08061278 0.5141442 -0.8539071
vn 0.001608729 0.4991949 -0.8664882
vn 0.001608729 0.4917203 -0.8707517
vn -0.08061278 0.5141442 -0.8539071
vn -0.005865932 0.4917203 -0.8707335
vn -0.005865932 0.4991949 -0.8664699
vn 0.08383024 0.5141442 -0.8535972
vn 0.08383024 0.5141442 -0.8535972
vn 0.5846338 0.566467 -0.5807912
vn 0.5846338 0.566467 -0.5807912
vn 0.7939249 0.5216189 -0.312405
vn 0.7939249 0.5216189 -0.312405
vn 0.3155453 0.5589923 -0.7667847
vn 0.3155453 0.5589923 -0.7667847
vn 0.5846338 0.566467 -0.5807912
vn 0.5846338 0.566467 -0.5807912
vn 0.08383024 0.5141442 -0.8535972
vn 0.08383024 0.5141442 -0.8535972
vn 0.3155453 0.5589923 -0.7667847
vn 0.3155453 0.5589923 -0.7667847
vn -0.3123279 0.5589923 -0.7681008
vn -0.08061278 0.5141442 -0.8539071
vn -0.08061278 0.5141442 -0.8539071
vn -0.3123279 0.5589923 -0.7681008
vn -0.5814164 0.566467 -0.584012
vn -0.3123279 0.5589923 -0.7681008
vn -0.3123279 0.5589923 -0.7681008
vn -0.5814164 0.566467 -0.584012
vn -0.7907074 0.5216189 -0.3204614
vn -0.5814164 0.566467 -0.584012
vn -0.5814164 0.566467 -0.584012
vn -0.7907074 0.5216189 -0.3204614
vn -0.895353 0.4393974 -0.0726148
vn -0.7907074 0.5216189 -0.3204614
vn -0.7907074 0.5216189 -0.3204614
vn -0.895353 0.4393974 -0.0726148
vn -0.9028277 0.4169734 0.1050494
vn -0.895353 0.4393974 -0.0726148
vn -0.895353 0.4393974 -0.0726148
vn -0.9028277 0.4169734 0.1050494
vn -0.8355555 0.4244481 0.3488422
vn -0.9028277 0.4169734 0.1050494
vn -0.9028277 0.4169734 0.1050494
vn -0.8355555 0.4244481 0.3488422
vn -0.6486885 0.4020241 0.6462042
vn -0.8355555 0.4244481 0.3488422
vn -0.8355555 0.4244481 0.3488422
vn -0.6486885 0.4020241 0.6462042
vn -0.357176 0.3198026 0.8775828
vn -0.6486885 0.4020241 0.6462042
vn -0.6486885 0.4020241 0.6462042
vn -0.357176 0.3198026 0.8775828
vn -0.09556216 0.2226318 0.9702077
vn -0.357176 0.3198026 0.8775828
vn -0.357176 0.3198026 0.8775828
vn -0.09556216 0.2226318 0.9702077
vn 0.3603934 0.3198026 0.8762664
vn 0.3603934 0.3198026 0.8762664
vn 0.0913049 0.2226318 0.9706176
vn 0.0913049 0.2226318 0.9706176
vn 0.6444313 0.4020241 0.6504498
vn 0.6444313 0.4020241 0.6504498
vn 0.3603934 0.3198026 0.8762664
vn 0.3603934 0.3198026 0.8762664
vn 0.8312984 0.4244481 0.3588689
vn 0.8312984 0.4244481 0.3588689
vn 0.6444313 0.4020241 0.6504498
vn 0.6444313 0.4020241 0.6504498
vn 0.9060451 0.4169734 0.07221767
vn 0.9060451 0.4169734 0.07221767
vn 0.8312984 0.4244481 0.3588689
vn 0.8312984 0.4244481 0.3588689
vn 0.8910958 0.4393974 -0.1134825
vn 0.8910958 0.4393974 -0.1134825
vn 0.9060451 0.4169734 0.07221767
vn 0.9060451 0.4169734 0.07221767
vn 0.7939249 0.5216189 -0.312405
vn 0.7939249 0.5216189 -0.312405
vn 0.8910958 0.4393974 -0.1134825
vn 0.8910958 0.4393974 -0.1134825
g Tastiera.042_0
f 3/3/3 2/2/2 1/1/1
f 6/6/6 5/5/5 4/4/4
f 9/9/9 8/8/8 7/7/7
f 12/12/12 11/11/11 10/10/10
f 15/15/15 14/14/14 13/13/13
f 18/18/18 17/17/17 16/16/16
f 21/21/21 20/20/20 19/19/19
f 20/20/20 22/22/22 19/19/19
f 22/22/22 20/20/20 23/23/23
f 20/20/20 24/24/24 23/23/23
f 23/23/23 24/24/24 25/25/25
f 24/24/24 26/26/26 25/25/25
f 25/25/25 26/26/26 27/27/27
f 26/26/26 28/28/28 27/27/27
f 27/27/27 28/28/28 29/29/29
f 30/30/30 27/27/27 29/29/29
f 31/31/31 30/30/30 29/29/29
f 32/32/32 31/31/31 29/29/29
f 33/33/33 31/31/31 32/32/32
f 34/34/34 33/33/33 32/32/32
f 33/33/33 34/34/34 35/35/35
f 34/34/34 36/36/36 35/35/35
f 35/35/35 36/36/36 37/37/37
f 38/38/38 35/35/35 37/37/37
f 38/38/38 37/37/37 39/39/39
f 40/40/40 38/38/38 39/39/39
f 40/40/40 39/39/39 41/41/41
f 42/42/42 40/40/40 41/41/41
f 41/41/41 43/43/43 42/42/42
f 43/43/43 44/44/44 42/42/42
f 47/47/47 46/46/46 45/45/45
f 48/48/48 47/47/47 45/45/45
f 51/51/51 50/50/50 49/49/49
f 52/52/52 51/51/51 49/49/49
f 55/55/55 54/54/54 53/53/53
f 56/56/56 55/55/55 53/53/53
f 59/59/59 58/58/58 57/57/57
f 60/60/60 59/59/59 57/57/57
f 63/63/63 62/62/62 61/61/61
f 64/64/64 63/63/63 61/61/61
f 67/67/67 66/66/66 65/65/65
f 68/68/68 67/67/67 65/65/65
f 71/71/71 70/70/70 69/69/69
f 72/72/72 71/71/71 69/69/69
f 75/75/75 74/74/74 73/73/73
f 76/76/76 75/75/75 73/73/73
f 79/79/79 78/78/78 77/77/77
f 80/80/80 79/79/79 77/77/77
f 83/83/83 82/82/82 81/81/81
f 84/84/84 83/83/83 81/81/81
f 87/87/87 86/86/86 85/85/85
f 88/88/88 87/87/87 85/85/85
f 91/91/91 90/90/90 89/89/89
f 92/92/92 91/91/91 89/89/89
f 95/95/95 94/94/94 93/93/93
f 96/96/96 95/95/95 93/93/93
f 99/99/99 98/98/98 97/97/97
f 100/100/100 99/99/99 97/97/97
f 103/103/103 102/102/102 101/101/101
f 104/104/104 103/103/103 101/101/101
f 107/107/107 106/106/106 105/105/105
f 108/108/108 107/107/107 105/105/105
f 111/111/111 110/110/110 109/109/109
f 112/112/112 111/111/111 109/109/109
f 115/115/115 114/114/114 113/113/113
f 116/116/116 115/115/115 113/113/113
f 119/119/119 118/118/118 117/117/117
f 120/120/120 119/119/119 117/117/117
f 123/123/123 122/122/122 121/121/121
f 124/124/124 123/123/123 121/121/121
f 127/127/127 126/126/126 125/125/125
f 128/128/128 127/127/127 125/125/125
f 131/131/131 130/130/130 129/129/129
f 132/132/132 131/131/131 129/129/129
