g Tastiera.018
v 0.8704723 0.168478 0.1871958
v 0.7207111 0.168478 0.1871958
v 0.7956011 0.265092 0.168478
v 0.7956011 0.265092 0.168478
v 0.7207111 0.168478 0.1871958
v 0.7441178 0.2668692 0.168478
v 0.7441178 0.2668692 -0.0936088
v 0.7207111 0.168478 -0.1497621
v 0.7956011 0.265092 -0.0936088
v 0.7956011 0.265092 -0.0936088
v 0.7207111 0.168478 -0.1497621
v 0.8704723 0.168478 -0.1497621
v 0.8470845 0.2668692 0.168478
v 0.8704723 0.168478 0.1871958
v 0.7956011 0.265092 0.168478
v 0.7956011 0.265092 -0.0936088
v 0.8704723 0.168478 -0.1497621
v 0.8470845 0.2668692 -0.0936088
v 0.6739167 0.2749802 -0.07487208
v 0.6753536 0.2747533 0.1569259
v 0.6739167 0.2749802 0.1497601
v 0.6753536 0.2747533 -0.08203781
v 0.6793997 0.2741106 -0.08812577
v 0.6793997 0.2741106 0.162995
v 0.6854688 0.2731841 -0.09217185
v 0.6854688 0.2731841 0.1670599
v 0.6926345 0.2721632 -0.0936088
v 0.6926345 0.2721632 0.168478
v 0.7441178 0.2668692 0.168478
v 0.7441178 0.2668692 -0.0936088
v 0.7956011 0.265092 -0.0936088
v 0.7956011 0.265092 0.168478
v 0.8470845 0.2668692 -0.0936088
v 0.8470845 0.2668692 0.168478
v 0.8985679 0.2721632 -0.0936088
v 0.8985679 0.2721632 0.168478
v 0.9057336 0.2731841 0.1670599
v 0.9057336 0.2731841 -0.09217185
v 0.9118026 0.2741106 0.162995
v 0.9118026 0.2741106 -0.08812577
v 0.9158487 0.2747533 0.1569259
v 0.9158487 0.2747533 -0.08203781
v 0.9172856 0.2749802 0.1497601
v 0.9172856 0.2749802 -0.07487208
v 0.7441178 0.2668692 0.168478
v 0.7207111 0.168478 0.1871958
v 0.64584 0.168478 0.1871958
v 0.6926345 0.2721632 0.168478
v 0.9453623 0.168478 0.1871958
v 0.8704723 0.168478 0.1871958
v 0.8470845 0.2668692 0.168478
v 0.8985679 0.2721632 0.168478
v 0.64584 0.168478 -0.1497621
v 0.7207111 0.168478 -0.1497621
v 0.7441178 0.2668692 -0.0936088
v 0.6926345 0.2721632 -0.0936088
v 0.8470845 0.2668692 -0.0936088
v 0.8704723 0.168478 -0.1497621
v 0.9453623 0.168478 -0.1497621
v 0.8985679 0.2721632 -0.0936088
v 0.9118026 0.2741106 -0.08812577
v 0.9585971 0.168478 -0.1442791
v 0.9626621 0.168478 -0.1382101
v 0.9158487 0.2747533 -0.08203781
v 0.9057336 0.2731841 -0.09217185
v 0.952528 0.168478 -0.1483441
v 0.9585971 0.168478 -0.1442791
v 0.9118026 0.2741106 -0.08812577
v 0.8985679 0.2721632 -0.0936088
v 0.9453623 0.168478 -0.1497621
v 0.952528 0.168478 -0.1483441
v 0.9057336 0.2731841 -0.09217185
v 0.6386743 0.168478 -0.1483441
v 0.64584 0.168478 -0.1497621
v 0.6926345 0.2721632 -0.0936088
v 0.6854688 0.2731841 -0.09217185
v 0.6326052 0.168478 -0.1442791
v 0.6386743 0.168478 -0.1483441
v 0.6854688 0.2731841 -0.09217185
v 0.6793997 0.2741106 -0.08812577
v 0.6285403 0.168478 -0.1382101
v 0.6326052 0.168478 -0.1442791
v 0.6793997 0.2741106 -0.08812577
v 0.6753536 0.2747533 -0.08203781
v 0.6271222 0.168478 -0.1310443
v 0.6285403 0.168478 -0.1382101
v 0.6753536 0.2747533 -0.08203781
v 0.6739167 0.2749802 -0.07487208
v 0.6271222 0.168478 0.168478
v 0.6271222 0.168478 -0.1310443
v 0.6739167 0.2749802 -0.07487208
v 0.6739167 0.2749802 0.1497601
v 0.6285403 0.168478 0.1756437
v 0.6271222 0.168478 0.168478
v 0.6739167 0.2749802 0.1497601
v 0.6753536 0.2747533 0.1569259
v 0.6326052 0.168478 0.1817127
v 0.6285403 0.168478 0.1756437
v 0.6753536 0.2747533 0.1569259
v 0.6793997 0.2741106 0.162995
v 0.6386743 0.168478 0.1857778
v 0.6326052 0.168478 0.1817127
v 0.6793997 0.2741106 0.162995
v 0.6854688 0.2731841 0.1670599
v 0.64584 0.168478 0.1871958
v 0.6386743 0.168478 0.1857778
v 0.6854688 0.2731841 0.1670599
v 0.6926345 0.2721632 0.168478
v 0.9057336 0.2731841 0.1670599
v 0.952528 0.168478 0.1857778
v 0.9453623 0.168478 0.1871958
v 0.8985679 0.2721632 0.168478
v 0.9118026 0.2741106 0.162995
v 0.9585971 0.168478 0.1817127
v 0.952528 0.168478 0.1857778
v 0.9057336 0.2731841 0.1670599
v 0.9158487 0.2747533 0.1569259
v 0.9626621 0.168478 0.1756437
v 0.9585971 0.168478 0.1817127
v 0.9118026 0.2741106 0.162995
v 0.9172856 0.2749802 0.1497601
v 0.9640801 0.168478 0.168478
v 0.9626621 0.168478 0.1756437
v 0.9158487 0.2747533 0.1569259
v 0.9172856 0.2749802 -0.07487208
v 0.9640801 0.168478 -0.1310443
v 0.9640801 0.168478 0.168478
v 0.9172856 0.2749802 0.1497601
v 0.9158487 0.2747533 -0.08203781
v 0.9626621 0.168478 -0.1382101
v 0.9640801 0.168478 -0.1310443
v 0.9172856 0.2749802 -0.07487208
vt 0.8808613 0.5192053
vt 0.9534921 0.6652155
vt 0.9534921 0.5192053
vt 0.8808613 0.5192053
vt 0.9534921 0.6652155
vt 0.9534921 0.5192053
vt 0.8808613 0.5192053
vt 0.9534921 0.6652155
vt 0.9534921 0.5192053
vt 0.8808613 0.5192053
vt 0.9534921 0.6652155
vt 0.9534921 0.5192053
vt 0.8808613 0.5192053
vt 0.9534921 0.6652155
vt 0.9534921 0.5192053
vt 0.8808613 0.5192053
vt 0.9534921 0.6652155
vt 0.9534921 0.5192053
vt 0.2496479 0.5087225
vt 0.2496479 0.6195405
vt 0.2496479 0.6157967
vt 0.2496479 0.5057274
vt 0.2488992 0.5027323
vt 0.2488992 0.6225356
vt 0.2474016 0.500486
vt 0.2474016 0.6240331
vt 0.2451553 0.4997372
vt 0.2451553 0.6247818
vt 0.2316774 0.6247818
vt 0.2316774 0.4997372
vt 0.2189484 0.4997372
vt 0.2189484 0.6247818
vt 0.2054705 0.4997372
vt 0.2054705 0.6247818
vt 0.1919926 0.4997372
vt 0.1919926 0.6247818
vt 0.1904951 0.6240331
vt 0.1904951 0.500486
vt 0.1889975 0.6225356
vt 0.1889975 0.5027323
vt 0.1875 0.6195405
vt 0.1875 0.5057274
vt 0.1875 0.6157967
vt 0.1875 0.5087225
vt 0.8808613 0.5192053
vt 0.8808613 0.6652155
vt 0.9534921 0.6652155
vt 0.9534921 0.5192053
vt 0.8808613 0.5192053
vt 0.8808613 0.6652155
vt 0.9534921 0.6652155
vt 0.9534921 0.5192053
vt 0.8808613 0.5192053
vt 0.8808613 0.6652155
vt 0.9534921 0.6652155
vt 0.9534921 0.5192053
vt 0.8808613 0.5192053
vt 0.8808613 0.6652155
vt 0.9534921 0.6652155
vt 0.9534921 0.5192053
vt 0.8808613 0.5192053
vt 0.8808613 0.6652155
vt 0.9534921 0.6652155
vt 0.9534921 0.5192053
vt 0.8808613 0.5192053
vt 0.8808613 0.6652155
vt 0.9534921 0.6652155
vt 0.9534921 0.5192053
vt 0.8808613 0.5192053
vt 0.8808613 0.6652155
vt 0.9534921 0.6652155
vt 0.9534921 0.5192053
vt 0.8808613 0.5192053
vt 0.8808613 0.6652155
vt 0.9534921 0.6652155
vt 0.9534921 0.5192053
vt 0.8808613 0.5192053
vt 0.8808613 0.6652155
vt 0.9534921 0.6652155
vt 0.9534921 0.5192053
vt 0.8808613 0.5192053
vt 0.8808613 0.6652155
vt 0.9534921 0.6652155
vt 0.9534921 0.5192053
vt 0.8808613 0.5192053
vt 0.8808613 0.6652155
vt 0.9534921 0.6652155
vt 0.9534921 0.5192053
vt 0.8808613 0.5192053
vt 0.8808613 0.6652155
vt 0.9534921 0.6652155
vt 0.9534921 0.5192053
vt 0.8808613 0.5192053
vt 0.8808613 0.6652155
vt 0.9534921 0.6652155
vt 0.9534921 0.5192053
vt 0.8808613 0.5192053
vt 0.8808613 0.6652155
vt 0.9534921 0.6652155
vt 0.9534921 0.5192053
vt 0.8808613 0.5192053
vt 0.8808613 0.6652155
vt 0.9534921 0.6652155
vt 0.9534921 0.5192053
vt 0.8808613 0.5192053
vt 0.8808613 0.6652155
vt 0.9534921 0.6652155
vt 0.9534921 0.5192053
vt 0.8808613 0.5192053
vt 0.8808613 0.6652155
vt 0.9534921 0.6652155
vt 0.9534921 0.5192053
vt 0.8808613 0.5192053
vt 0.8808613 0.6652155
vt 0.9534921 0.6652155
vt 0.9534921 0.5192053
vt 0.8808613 0.5192053
vt 0.8808613 0.6652155
vt 0.9534921 0.6652155
vt 0.9534921 0.5192053
vt 0.8808613 0.5192053
vt 0.8808613 0.6652155
vt 0.9534921 0.6652155
vt 0.9534921 0.5192053
vt 0.8808613 0.5192053
vt 0.8808613 0.6652155
vt 0.9534921 0.6652155
vt 0.9534921 0.5192053
vt 0.8808613 0.5192053
vt 0.8808613 0.6652155
vt 0.9534921 0.6652155
vt 0.9534921 0.5192053
vn -0.005866349 0.1852587 0.9826723
vn 0.001608312 0.1852587 0.9826885
vn 0.001608312 0.1852587 0.9826885
vn 0.001608312 0.1852587 0.9826885
vn 0.001608312 0.1852587 0.9826885
vn 0.001608312 0.1852587 0.9826885
vn 0.009083033 0.4917205 -0.8707057
vn 0.009083033 0.4991952 -0.866442
vn 0.001608312 0.4991952 -0.8664881
vn 0.001608312 0.4991952 -0.8664881
vn 0.009083033 0.4991952 -0.866442
vn -0.005866349 0.4991952 -0.8664697
vn -0.005866349 0.1852587 0.9826723
vn -0.005866349 0.1852587 0.9826723
vn 0.001608312 0.1852587 0.9826885
vn 0.001608312 0.4991952 -0.8664881
vn -0.005866349 0.4991952 -0.8664697
vn -0.005866349 0.4917205 -0.8707333
vn 0.1585765 0.9850492 -0.06731688
vn 0.1585765 0.9850492 -0.06731688
vn 0.1585765 0.9850492 -0.06731688
vn 0.1585765 0.9850492 -0.06731688
vn 0.1511019 0.9850492 -0.08274242
vn 0.1511019 0.9850492 -0.08274242
vn 0.1432173 0.9896913 0
vn 0.1432173 0.9896913 0
vn 0.1212032 0.9925238 -0.01435871
vn 0.1212032 0.9925238 -0.01435871
vn 0.06871771 0.9976361 0
vn 0.06871771 0.9976361 0
vn 0.001608312 0.9999986 -0.000422864
vn 0.001608312 0.9999986 -0.000422864
vn -0.06552274 0.9978511 0
vn -0.06552274 0.9978511 0
vn -0.1179865 0.9925238 -0.03123474
vn -0.1179865 0.9925238 -0.03123474
vn -0.1473723 0.9890811 0
vn -0.1473723 0.9890811 0
vn -0.1553599 0.9850492 -0.07444047
vn -0.1553599 0.9850492 -0.07444047
vn -0.1553599 0.9850492 -0.07444047
vn -0.1553599 0.9850492 -0.07444047
vn -0.1628346 0.9850492 -0.05624038
vn -0.1628346 0.9850492 -0.05624038
vn 0.001608312 0.1852587 0.9826885
vn 0.001608312 0.1852587 0.9826885
vn -0.09556252 0.222632 0.9702076
vn -0.09556252 0.222632 0.9702076
vn 0.09130448 0.222632 0.9706176
vn -0.005866349 0.1852587 0.9826723
vn -0.005866349 0.1852587 0.9826723
vn 0.09130448 0.222632 0.9706176
vn -0.08061314 0.5141445 -0.8539069
vn 0.009083033 0.4991952 -0.866442
vn 0.009083033 0.4917205 -0.8707057
vn -0.08061314 0.5141445 -0.8539069
vn -0.005866349 0.4917205 -0.8707333
vn -0.005866349 0.4991952 -0.8664697
vn 0.08382982 0.5141445 -0.8535971
vn 0.08382982 0.5141445 -0.8535971
vn 0.5846332 0.5664672 -0.5807915
vn 0.5846332 0.5664672 -0.5807915
vn 0.7939243 0.5216191 -0.3124064
vn 0.7939243 0.5216191 -0.3124064
vn 0.3155448 0.5589926 -0.7667847
vn 0.3155448 0.5589926 -0.7667847
vn 0.5846332 0.5664672 -0.5807915
vn 0.5846332 0.5664672 -0.5807915
vn 0.08382982 0.5141445 -0.8535971
vn 0.08382982 0.5141445 -0.8535971
vn 0.3155448 0.5589926 -0.7667847
vn 0.3155448 0.5589926 -0.7667847
vn -0.3123282 0.5589926 -0.7681005
vn -0.08061314 0.5141445 -0.8539069
vn -0.08061314 0.5141445 -0.8539069
vn -0.3123282 0.5589926 -0.7681005
vn -0.5814165 0.5664672 -0.5840117
vn -0.3123282 0.5589926 -0.7681005
vn -0.3123282 0.5589926 -0.7681005
vn -0.5814165 0.5664672 -0.5840117
vn -0.7907076 0.5216191 -0.3204604
vn -0.5814165 0.5664672 -0.5840117
vn -0.5814165 0.5664672 -0.5840117
vn -0.7907076 0.5216191 -0.3204604
vn -0.8953531 0.4393978 -0.07261101
vn -0.7907076 0.5216191 -0.3204604
vn -0.7907076 0.5216191 -0.3204604
vn -0.8953531 0.4393978 -0.07261101
vn -0.9028278 0.4169737 0.1050472
vn -0.8953531 0.4393978 -0.07261101
vn -0.8953531 0.4393978 -0.07261101
vn -0.9028278 0.4169737 0.1050472
vn -0.8355556 0.4244483 0.3488416
vn -0.9028278 0.4169737 0.1050472
vn -0.9028278 0.4169737 0.1050472
vn -0.8355556 0.4244483 0.3488416
vn -0.6486887 0.4020243 0.6462038
vn -0.8355556 0.4244483 0.3488416
vn -0.8355556 0.4244483 0.3488416
vn -0.6486887 0.4020243 0.6462038
vn -0.3571762 0.3198028 0.8775827
vn -0.6486887 0.4020243 0.6462038
vn -0.6486887 0.4020243 0.6462038
vn -0.3571762 0.3198028 0.8775827
vn -0.09556252 0.222632 0.9702076
vn -0.3571762 0.3198028 0.8775827
vn -0.3571762 0.3198028 0.8775827
vn -0.09556252 0.222632 0.9702076
vn 0.3603929 0.3198028 0.8762666
vn 0.3603929 0.3198028 0.8762666
vn 0.09130448 0.222632 0.9706176
vn 0.09130448 0.222632 0.9706176
vn 0.6444306 0.4020243 0.6504503
vn 0.6444306 0.4020243 0.6504503
vn 0.3603929 0.3198028 0.8762666
vn 0.3603929 0.3198028 0.8762666
vn 0.8312976 0.4244483 0.3588703
vn 0.8312976 0.4244483 0.3588703
vn 0.6444306 0.4020243 0.6504503
vn 0.6444306 0.4020243 0.6504503
vn 0.9060444 0.4169737 0.0722253
vn 0.9060444 0.4169737 0.0722253
vn 0.8312976 0.4244483 0.3588703
vn 0.8312976 0.4244483 0.3588703
vn 0.891095 0.4393978 -0.1134867
vn 0.891095 0.4393978 -0.1134867
vn 0.9060444 0.4169737 0.0722253
vn 0.9060444 0.4169737 0.0722253
vn 0.7939243 0.5216191 -0.3124064
vn 0.7939243 0.5216191 -0.3124064
vn 0.891095 0.4393978 -0.1134867
vn 0.891095 0.4393978 -0.1134867
g Tastiera.018_0
f 3/3/3 2/2/2 1/1/1
f 6/6/6 5/5/5 4/4/4
f 9/9/9 8/8/8 7/7/7
f 12/12/12 11/11/11 10/10/10
f 15/15/15 14/14/14 13/13/13
f 18/18/18 17/17/17 16/16/16
f 21/21/21 20/20/20 19/19/19
f 20/20/20 22/22/22 19/19/19
f 22/22/22 20/20/20 23/23/23
f 20/20/20 24/24/24 23/23/23
f 23/23/23 24/24/24 25/25/25
f 24/24/24 26/26/26 25/25/25
f 25/25/25 26/26/26 27/27/27
f 26/26/26 28/28/28 27/27/27
f 27/27/27 28/28/28 29/29/29
f 30/30/30 27/27/27 29/29/29
f 31/31/31 30/30/30 29/29/29
f 32/32/32 31/31/31 29/29/29
f 33/33/33 31/31/31 32/32/32
f 34/34/34 33/33/33 32/32/32
f 33/33/33 34/34/34 35/35/35
f 34/34/34 36/36/36 35/35/35
f 35/35/35 36/36/36 37/37/37
f 38/38/38 35/35/35 37/37/37
f 38/38/38 37/37/37 39/39/39
f 40/40/40 38/38/38 39/39/39
f 40/40/40 39/39/39 41/41/41
f 42/42/42 40/40/40 41/41/41
f 41/41/41 43/43/43 42/42/42
f 43/43/43 44/44/44 42/42/42
f 47/47/47 46/46/46 45/45/45
f 48/48/48 47/47/47 45/45/45
f 51/51/51 50/50/50 49/49/49
f 52/52/52 51/51/51 49/49/49
f 55/55/55 54/54/54 53/53/53
f 56/56/56 55/55/55 53/53/53
f 59/59/59 58/58/58 57/57/57
f 60/60/60 59/59/59 57/57/57
f 63/63/63 62/62/62 61/61/61
f 64/64/64 63/63/63 61/61/61
f 67/67/67 66/66/66 65/65/65
f 68/68/68 67/67/67 65/65/65
f 71/71/71 70/70/70 69/69/69
f 72/72/72 71/71/71 69/69/69
f 75/75/75 74/74/74 73/73/73
f 76/76/76 75/75/75 73/73/73
f 79/79/79 78/78/78 77/77/77
f 80/80/80 79/79/79 77/77/77
f 83/83/83 82/82/82 81/81/81
f 84/84/84 83/83/83 81/81/81
f 87/87/87 86/86/86 85/85/85
f 88/88/88 87/87/87 85/85/85
f 91/91/91 90/90/90 89/89/89
f 92/92/92 91/91/91 89/89/89
f 95/95/95 94/94/94 93/93/93
f 96/96/96 95/95/95 93/93/93
f 99/99/99 98/98/98 97/97/97
f 100/100/100 99/99/99 97/97/97
f 103/103/103 102/102/102 101/101/101
f 104/104/104 103/103/103 101/101/101
f 107/107/107 106/106/106 105/105/105
f 108/108/108 107/107/107 105/105/105
f 111/111/111 110/110/110 109/109/109
f 112/112/112 111/111/111 109/109/109
f 115/115/115 114/114/114 113/113/113
f 116/116/116 115/115/115 113/113/113
f 119/119/119 118/118/118 117/117/117
f 120/120/120 119/119/119 117/117/117
f 123/123/123 122/122/122 121/121/121
f 124/124/124 123/123/123 121/121/121
f 127/127/127 126/126/126 125/125/125
f 128/128/128 127/127/127 125/125/125
f 131/131/131 130/130/130 129/129/129
f 132/132/132 131/131/131 129/129/129
