g Tastiera.049
v -1.956245 0.2651057 0.5241467
v -1.881351 0.1684802 0.5428927
v -2.03111 0.1684802 0.5428927
v -1.956245 0.2651057 0.5241467
v -2.03111 0.1684802 0.5428927
v -2.007707 0.2668669 0.5241467
v -2.007707 0.2668669 0.2620908
v -2.03111 0.1684802 0.2059125
v -1.956245 0.2651057 0.2620908
v -2.03111 0.1684802 0.2059125
v -1.881351 0.1684802 0.2059125
v -1.956245 0.2651057 0.2620908
v -1.904753 0.2668669 0.5241467
v -1.881351 0.1684802 0.5428927
v -1.956245 0.2651057 0.5241467
v -1.956245 0.2651057 0.2620908
v -1.881351 0.1684802 0.2059125
v -1.904753 0.2668669 0.2620908
v -2.077915 0.2749861 0.280807
v -2.076512 0.2747473 0.5125946
v -2.077915 0.2749861 0.5054305
v -2.076512 0.2747473 0.2736429
v -2.072423 0.2741205 0.2675534
v -2.072423 0.2741205 0.5186841
v -2.066363 0.2731951 0.2634938
v -2.066363 0.2731951 0.5227437
v -2.059199 0.2721802 0.2620908
v -2.059199 0.2721802 0.5241467
v -2.007707 0.2668669 0.5241467
v -2.007707 0.2668669 0.2620908
v -1.956245 0.2651057 0.2620908
v -1.956245 0.2651057 0.5241467
v -1.904753 0.2668669 0.2620908
v -1.904753 0.2668669 0.5241467
v -1.853292 0.2721802 0.2620908
v -1.853292 0.2721802 0.5241467
v -1.846128 0.2731951 0.5227437
v -1.846128 0.2731951 0.2634938
v -1.840038 0.2741205 0.5186841
v -1.840038 0.2741205 0.2675534
v -1.835978 0.2747473 0.5125946
v -1.835978 0.2747473 0.2736429
v -1.834545 0.2749861 0.5054305
v -1.834545 0.2749861 0.280807
v -2.007707 0.2668669 0.5241467
v -2.03111 0.1684802 0.5428927
v -2.106004 0.1684802 0.5428927
v -2.059199 0.2721802 0.5241467
v -1.806486 0.1684802 0.5428927
v -1.881351 0.1684802 0.5428927
v -1.904753 0.2668669 0.5241467
v -1.853292 0.2721802 0.5241467
v -2.106004 0.1684802 0.2059125
v -2.03111 0.1684802 0.2059125
v -2.007707 0.2668669 0.2620908
v -2.059199 0.2721802 0.2620908
v -1.904753 0.2668669 0.2620908
v -1.881351 0.1684802 0.2059125
v -1.806486 0.1684802 0.2059125
v -1.853292 0.2721802 0.2620908
v -1.840038 0.2741205 0.2675534
v -1.793233 0.1684802 0.211405
v -1.789173 0.1684802 0.2174646
v -1.835978 0.2747473 0.2736429
v -1.846128 0.2731951 0.2634938
v -1.799322 0.1684802 0.2073453
v -1.793233 0.1684802 0.211405
v -1.840038 0.2741205 0.2675534
v -1.853292 0.2721802 0.2620908
v -1.806486 0.1684802 0.2059125
v -1.799322 0.1684802 0.2073453
v -1.846128 0.2731951 0.2634938
v -2.113168 0.1684802 0.2073453
v -2.106004 0.1684802 0.2059125
v -2.059199 0.2721802 0.2620908
v -2.066363 0.2731951 0.2634938
v -2.119228 0.1684802 0.211405
v -2.113168 0.1684802 0.2073453
v -2.066363 0.2731951 0.2634938
v -2.072423 0.2741205 0.2675534
v -2.123287 0.1684802 0.2174646
v -2.119228 0.1684802 0.211405
v -2.072423 0.2741205 0.2675534
v -2.076512 0.2747473 0.2736429
v -2.12472 0.1684802 0.2246287
v -2.123287 0.1684802 0.2174646
v -2.076512 0.2747473 0.2736429
v -2.077915 0.2749861 0.280807
v -2.12472 0.1684802 0.5241467
v -2.12472 0.1684802 0.2246287
v -2.077915 0.2749861 0.280807
v -2.077915 0.2749861 0.5054305
v -2.123287 0.1684802 0.5313107
v -2.12472 0.1684802 0.5241467
v -2.077915 0.2749861 0.5054305
v -2.076512 0.2747473 0.5125946
v -2.119228 0.1684802 0.5374002
v -2.123287 0.1684802 0.5313107
v -2.076512 0.2747473 0.5125946
v -2.072423 0.2741205 0.5186841
v -2.113168 0.1684802 0.5414599
v -2.119228 0.1684802 0.5374002
v -2.072423 0.2741205 0.5186841
v -2.066363 0.2731951 0.5227437
v -2.106004 0.1684802 0.5428927
v -2.113168 0.1684802 0.5414599
v -2.066363 0.2731951 0.5227437
v -2.059199 0.2721802 0.5241467
v -1.846128 0.2731951 0.5227437
v -1.799322 0.1684802 0.5414599
v -1.806486 0.1684802 0.5428927
v -1.853292 0.2721802 0.5241467
v -1.840038 0.2741205 0.5186841
v -1.793233 0.1684802 0.5374002
v -1.799322 0.1684802 0.5414599
v -1.846128 0.2731951 0.5227437
v -1.835978 0.2747473 0.5125946
v -1.789173 0.1684802 0.5313107
v -1.793233 0.1684802 0.5374002
v -1.840038 0.2741205 0.5186841
v -1.834545 0.2749861 0.5054305
v -1.78777 0.1684802 0.5241467
v -1.789173 0.1684802 0.5313107
v -1.835978 0.2747473 0.5125946
v -1.834545 0.2749861 0.280807
v -1.78777 0.1684802 0.2246287
v -1.78777 0.1684802 0.5241467
v -1.834545 0.2749861 0.5054305
v -1.835978 0.2747473 0.2736429
v -1.789173 0.1684802 0.2174646
v -1.78777 0.1684802 0.2246287
v -1.834545 0.2749861 0.280807
vt 0.8804727 0.5191965
vt 0.953492 0.6652353
vt 0.953492 0.5191965
vt 0.8804727 0.5191965
vt 0.953492 0.6652353
vt 0.953492 0.5191965
vt 0.8804727 0.5191965
vt 0.953492 0.6652353
vt 0.953492 0.5191965
vt 0.8804727 0.5191965
vt 0.953492 0.6652353
vt 0.953492 0.5191965
vt 0.8804727 0.5191965
vt 0.953492 0.6652353
vt 0.953492 0.5191965
vt 0.8804727 0.5191965
vt 0.953492 0.6652353
vt 0.953492 0.5191965
vt 0.7501416 0.6338199
vt 0.749717 0.7446226
vt 0.7501416 0.7412264
vt 0.749717 0.6304237
vt 0.7484434 0.627452
vt 0.7484434 0.7475944
vt 0.7471699 0.6257539
vt 0.7471699 0.7492925
vt 0.7450472 0.6249048
vt 0.7450472 0.7501416
vt 0.7318867 0.7501416
vt 0.7318867 0.6249048
vt 0.7187262 0.6249048
vt 0.7187262 0.7501416
vt 0.7055658 0.6249048
vt 0.7055658 0.7501416
vt 0.6924053 0.6249048
vt 0.6924053 0.7501416
vt 0.6902826 0.7492925
vt 0.6902826 0.6257539
vt 0.6890091 0.7475944
vt 0.6890091 0.627452
vt 0.6877354 0.7446226
vt 0.6877354 0.6304237
vt 0.6873109 0.7412264
vt 0.6873109 0.6338199
vt 0.8804727 0.5191965
vt 0.8804727 0.6652353
vt 0.953492 0.6652353
vt 0.953492 0.5191965
vt 0.8804727 0.5191965
vt 0.8804727 0.6652353
vt 0.953492 0.6652353
vt 0.953492 0.5191965
vt 0.8804727 0.5191965
vt 0.8804727 0.6652353
vt 0.953492 0.6652353
vt 0.953492 0.5191965
vt 0.8804727 0.5191965
vt 0.8804727 0.6652353
vt 0.953492 0.6652353
vt 0.953492 0.5191965
vt 0.8804727 0.5191965
vt 0.8804727 0.6652353
vt 0.953492 0.6652353
vt 0.953492 0.5191965
vt 0.8804727 0.5191965
vt 0.8804727 0.6652353
vt 0.953492 0.6652353
vt 0.953492 0.5191965
vt 0.8804727 0.5191965
vt 0.8804727 0.6652353
vt 0.953492 0.6652353
vt 0.953492 0.5191965
vt 0.8804727 0.5191965
vt 0.8804727 0.6652353
vt 0.953492 0.6652353
vt 0.953492 0.5191965
vt 0.8804727 0.5191965
vt 0.8804727 0.6652353
vt 0.953492 0.6652353
vt 0.953492 0.5191965
vt 0.8804727 0.5191965
vt 0.8804727 0.6652353
vt 0.953492 0.6652353
vt 0.953492 0.5191965
vt 0.8804727 0.5191965
vt 0.8804727 0.6652353
vt 0.953492 0.6652353
vt 0.953492 0.5191965
vt 0.8804727 0.5191965
vt 0.8804727 0.6652353
vt 0.953492 0.6652353
vt 0.953492 0.5191965
vt 0.8804727 0.5191965
vt 0.8804727 0.6652353
vt 0.953492 0.6652353
vt 0.953492 0.5191965
vt 0.8804727 0.5191965
vt 0.8804727 0.6652353
vt 0.953492 0.6652353
vt 0.953492 0.5191965
vt 0.8804727 0.5191965
vt 0.8804727 0.6652353
vt 0.953492 0.6652353
vt 0.953492 0.5191965
vt 0.8804727 0.5191965
vt 0.8804727 0.6652353
vt 0.953492 0.6652353
vt 0.953492 0.5191965
vt 0.8804727 0.5191965
vt 0.8804727 0.6652353
vt 0.953492 0.6652353
vt 0.953492 0.5191965
vt 0.8804727 0.5191965
vt 0.8804727 0.6652353
vt 0.953492 0.6652353
vt 0.953492 0.5191965
vt 0.8804727 0.5191965
vt 0.8804727 0.6652353
vt 0.953492 0.6652353
vt 0.953492 0.5191965
vt 0.8804727 0.5191965
vt 0.8804727 0.6652353
vt 0.953492 0.6652353
vt 0.953492 0.5191965
vt 0.8804727 0.5191965
vt 0.8804727 0.6652353
vt 0.953492 0.6652353
vt 0.953492 0.5191965
vt 0.8804727 0.5191965
vt 0.8804727 0.6652353
vt 0.953492 0.6652353
vt 0.953492 0.5191965
vn 0.001606703 0.18526 0.9826882
vn 0.001606703 0.18526 0.9826882
vn 0.001606703 0.18526 0.9826882
vn 0.001606703 0.18526 0.9826882
vn 0.001606703 0.18526 0.9826882
vn 0.001606703 0.18526 0.9826882
vn 0.009081364 0.4917213 -0.8707052
vn 0.009081364 0.499196 -0.8664415
vn 0.001606703 0.499196 -0.8664876
vn 0.009081364 0.499196 -0.8664415
vn -0.005867958 0.499196 -0.8664692
vn 0.001606703 0.499196 -0.8664876
vn -0.005867958 0.18526 0.982672
vn 0.001606703 0.18526 0.9826882
vn 0.001606703 0.18526 0.9826882
vn 0.001606703 0.499196 -0.8664876
vn -0.005867958 0.499196 -0.8664692
vn -0.005867958 0.4917213 -0.8707328
vn 0.1585747 0.9850494 -0.06731777
vn 0.1585747 0.9850494 -0.06731777
vn 0.1585747 0.9850494 -0.06731777
vn 0.1585747 0.9850494 -0.06731777
vn 0.1511 0.9850494 -0.08274315
vn 0.1511 0.9850494 -0.08274315
vn 0.1432155 0.9896915 0
vn 0.1432155 0.9896915 0
vn 0.1212014 0.9925241 -0.01435663
vn 0.1212014 0.9925241 -0.01435663
vn 0.06871598 0.9976363 0
vn 0.06871598 0.9976363 0
vn 0.001606703 0.9999987 0
vn 0.001606703 0.9999987 0
vn -0.06552427 0.997851 0
vn -0.06552427 0.997851 0
vn -0.1179879 0.9925241 -0.03122138
vn -0.1179879 0.9925241 -0.03122138
vn -0.1473736 0.9890808 0
vn -0.1473736 0.9890808 0
vn -0.1553614 0.9850494 -0.07443447
vn -0.1553614 0.9850494 -0.07443447
vn -0.1553614 0.9850494 -0.07443447
vn -0.1553614 0.9850494 -0.07443447
vn -0.162836 0.9850494 -0.05623243
vn -0.162836 0.9850494 -0.05623243
vn 0.001606703 0.18526 0.9826882
vn 0.001606703 0.18526 0.9826882
vn -0.09556395 0.2226333 0.9702072
vn -0.09556395 0.2226333 0.9702072
vn 0.09130269 0.2226333 0.9706174
vn 0.001606703 0.18526 0.9826882
vn -0.005867958 0.18526 0.982672
vn 0.09130269 0.2226333 0.9706174
vn -0.08061463 0.5141453 -0.8539063
vn 0.009081364 0.499196 -0.8664415
vn 0.009081364 0.4917213 -0.8707052
vn -0.08061463 0.5141453 -0.8539063
vn -0.005867958 0.4917213 -0.8707328
vn -0.005867958 0.499196 -0.8664692
vn 0.08382803 0.5141453 -0.8535967
vn 0.08382803 0.5141453 -0.8535967
vn 0.5846307 0.5664681 -0.5807933
vn 0.5846307 0.5664681 -0.5807933
vn 0.7939214 0.52162 -0.3124123
vn 0.7939214 0.52162 -0.3124123
vn 0.3155427 0.5589934 -0.766785
vn 0.3155427 0.5589934 -0.766785
vn 0.5846307 0.5664681 -0.5807933
vn 0.5846307 0.5664681 -0.5807933
vn 0.08382803 0.5141453 -0.8535967
vn 0.08382803 0.5141453 -0.8535967
vn 0.3155427 0.5589934 -0.766785
vn 0.3155427 0.5589934 -0.766785
vn -0.3123294 0.5589934 -0.7680995
vn -0.08061463 0.5141453 -0.8539063
vn -0.08061463 0.5141453 -0.8539063
vn -0.3123294 0.5589934 -0.7680995
vn -0.5814174 0.5664681 -0.5840101
vn -0.3123294 0.5589934 -0.7680995
vn -0.3123294 0.5589934 -0.7680995
vn -0.5814174 0.5664681 -0.5840101
vn -0.790708 0.52162 -0.3204582
vn -0.5814174 0.5664681 -0.5840101
vn -0.5814174 0.5664681 -0.5840101
vn -0.790708 0.52162 -0.3204582
vn -0.8953534 0.4393987 -0.07260239
vn -0.790708 0.52162 -0.3204582
vn -0.790708 0.52162 -0.3204582
vn -0.8953534 0.4393987 -0.07260239
vn -0.902828 0.4169747 0.105041
vn -0.8953534 0.4393987 -0.07260239
vn -0.8953534 0.4393987 -0.07260239
vn -0.902828 0.4169747 0.105041
vn -0.8355561 0.4244494 0.3488392
vn -0.902828 0.4169747 0.105041
vn -0.902828 0.4169747 0.105041
vn -0.8355561 0.4244494 0.3488392
vn -0.6486893 0.4020254 0.6462026
vn -0.8355561 0.4244494 0.3488392
vn -0.8355561 0.4244494 0.3488392
vn -0.6486893 0.4020254 0.6462026
vn -0.3571773 0.319804 0.8775818
vn -0.6486893 0.4020254 0.6462026
vn -0.6486893 0.4020254 0.6462026
vn -0.3571773 0.319804 0.8775818
vn -0.09556395 0.2226333 0.9702072
vn -0.3571773 0.319804 0.8775818
vn -0.3571773 0.319804 0.8775818
vn -0.09556395 0.2226333 0.9702072
vn 0.3603907 0.319804 0.876267
vn 0.3603907 0.319804 0.876267
vn 0.09130269 0.2226333 0.9706174
vn 0.09130269 0.2226333 0.9706174
vn 0.6444281 0.4020254 0.6504521
vn 0.6444281 0.4020254 0.6504521
vn 0.3603907 0.319804 0.876267
vn 0.3603907 0.319804 0.876267
vn 0.8312948 0.4244494 0.3588756
vn 0.8312948 0.4244494 0.3588756
vn 0.6444281 0.4020254 0.6504521
vn 0.6444281 0.4020254 0.6504521
vn 0.9060414 0.4169747 0.07225624
vn 0.9060414 0.4169747 0.07225624
vn 0.8312948 0.4244494 0.3588756
vn 0.8312948 0.4244494 0.3588756
vn 0.8910921 0.4393987 -0.1135061
vn 0.8910921 0.4393987 -0.1135061
vn 0.9060414 0.4169747 0.07225624
vn 0.9060414 0.4169747 0.07225624
vn 0.7939214 0.52162 -0.3124123
vn 0.7939214 0.52162 -0.3124123
vn 0.8910921 0.4393987 -0.1135061
vn 0.8910921 0.4393987 -0.1135061
g Tastiera.049_0
f 3/3/3 2/2/2 1/1/1
f 6/6/6 5/5/5 4/4/4
f 9/9/9 8/8/8 7/7/7
f 12/12/12 11/11/11 10/10/10
f 15/15/15 14/14/14 13/13/13
f 18/18/18 17/17/17 16/16/16
f 21/21/21 20/20/20 19/19/19
f 20/20/20 22/22/22 19/19/19
f 22/22/22 20/20/20 23/23/23
f 20/20/20 24/24/24 23/23/23
f 23/23/23 24/24/24 25/25/25
f 24/24/24 26/26/26 25/25/25
f 25/25/25 26/26/26 27/27/27
f 26/26/26 28/28/28 27/27/27
f 27/27/27 28/28/28 29/29/29
f 30/30/30 27/27/27 29/29/29
f 31/31/31 30/30/30 29/29/29
f 32/32/32 31/31/31 29/29/29
f 33/33/33 31/31/31 32/32/32
f 34/34/34 33/33/33 32/32/32
f 33/33/33 34/34/34 35/35/35
f 34/34/34 36/36/36 35/35/35
f 35/35/35 36/36/36 37/37/37
f 38/38/38 35/35/35 37/37/37
f 38/38/38 37/37/37 39/39/39
f 40/40/40 38/38/38 39/39/39
f 40/40/40 39/39/39 41/41/41
f 42/42/42 40/40/40 41/41/41
f 41/41/41 43/43/43 42/42/42
f 43/43/43 44/44/44 42/42/42
f 47/47/47 46/46/46 45/45/45
f 48/48/48 47/47/47 45/45/45
f 51/51/51 50/50/50 49/49/49
f 52/52/52 51/51/51 49/49/49
f 55/55/55 54/54/54 53/53/53
f 56/56/56 55/55/55 53/53/53
f 59/59/59 58/58/58 57/57/57
f 60/60/60 59/59/59 57/57/57
f 63/63/63 62/62/62 61/61/61
f 64/64/64 63/63/63 61/61/61
f 67/67/67 66/66/66 65/65/65
f 68/68/68 67/67/67 65/65/65
f 71/71/71 70/70/70 69/69/69
f 72/72/72 71/71/71 69/69/69
f 75/75/75 74/74/74 73/73/73
f 76/76/76 75/75/75 73/73/73
f 79/79/79 78/78/78 77/77/77
f 80/80/80 79/79/79 77/77/77
f 83/83/83 82/82/82 81/81/81
f 84/84/84 83/83/83 81/81/81
f 87/87/87 86/86/86 85/85/85
f 88/88/88 87/87/87 85/85/85
f 91/91/91 90/90/90 89/89/89
f 92/92/92 91/91/91 89/89/89
f 95/95/95 94/94/94 93/93/93
f 96/96/96 95/95/95 93/93/93
f 99/99/99 98/98/98 97/97/97
f 100/100/100 99/99/99 97/97/97
f 103/103/103 102/102/102 101/101/101
f 104/104/104 103/103/103 101/101/101
f 107/107/107 106/106/106 105/105/105
f 108/108/108 107/107/107 105/105/105
f 111/111/111 110/110/110 109/109/109
f 112/112/112 111/111/111 109/109/109
f 115/115/115 114/114/114 113/113/113
f 116/116/116 115/115/115 113/113/113
f 119/119/119 118/118/118 117/117/117
f 120/120/120 119/119/119 117/117/117
f 123/123/123 122/122/122 121/121/121
f 124/124/124 123/123/123 121/121/121
f 127/127/127 126/126/126 125/125/125
f 128/128/128 127/127/127 125/125/125
f 131/131/131 130/130/130 129/129/129
f 132/132/132 131/131/131 129/129/129
