g Tastiera.050
v -1.909452 0.1684745 -0.1684827
v -2.452301 0.1684745 -0.1684827
v -2.180901 0.2651204 -0.1872133
v -2.180901 0.2651204 -0.1872133
v -2.452301 0.1684745 -0.1684827
v -2.428936 0.2668582 -0.1872133
v -2.428936 0.2668582 -0.4492965
v -2.452301 0.1684745 -0.5054399
v -2.180901 0.2651204 -0.4492965
v -2.180901 0.2651204 -0.4492965
v -2.452301 0.1684745 -0.5054399
v -1.909452 0.1684745 -0.5054399
v -1.932817 0.2668582 -0.1872133
v -1.909452 0.1684745 -0.1684827
v -2.180901 0.2651204 -0.1872133
v -2.180901 0.2651204 -0.4492965
v -1.909452 0.1684745 -0.5054399
v -1.932817 0.2668582 -0.4492965
v -2.611462 0.2749684 -0.4305659
v -2.610014 0.274727 -0.1987509
v -2.611462 0.2749684 -0.2059439
v -2.610014 0.274727 -0.4377106
v -2.605959 0.2740995 -0.4437932
v -2.605959 0.2740995 -0.1926683
v -2.599876 0.2731822 -0.4478483
v -2.599876 0.2731822 -0.1886133
v -2.592732 0.2721685 -0.4492965
v -2.592732 0.2721685 -0.1872133
v -2.428936 0.2668582 -0.1872133
v -2.428936 0.2668582 -0.4492965
v -2.180901 0.2651204 -0.4492965
v -2.180901 0.2651204 -0.1872133
v -1.932817 0.2668582 -0.4492965
v -1.932817 0.2668582 -0.1872133
v -1.769021 0.2721685 -0.4492965
v -1.769021 0.2721685 -0.1872133
v -1.761877 0.2731822 -0.1886133
v -1.761877 0.2731822 -0.4478483
v -1.755794 0.2740995 -0.1926683
v -1.755794 0.2740995 -0.4437932
v -1.751739 0.274727 -0.1987509
v -1.751739 0.274727 -0.4377106
v -1.750339 0.2749684 -0.2059439
v -1.750339 0.2749684 -0.4305659
v -2.428936 0.2668582 -0.1872133
v -2.452301 0.1684745 -0.1684827
v -2.63951 0.1684745 -0.1684827
v -2.592732 0.2721685 -0.1872133
v -1.722243 0.1684745 -0.1684827
v -1.909452 0.1684745 -0.1684827
v -1.932817 0.2668582 -0.1872133
v -1.769021 0.2721685 -0.1872133
v -2.63951 0.1684745 -0.5054399
v -2.452301 0.1684745 -0.5054399
v -2.428936 0.2668582 -0.4492965
v -2.592732 0.2721685 -0.4492965
v -1.932817 0.2668582 -0.4492965
v -1.909452 0.1684745 -0.5054399
v -1.722243 0.1684745 -0.5054399
v -1.769021 0.2721685 -0.4492965
v -1.755794 0.2740995 -0.4437932
v -1.709016 0.1684745 -0.4999366
v -1.704961 0.1684745 -0.4939023
v -1.751739 0.274727 -0.4377106
v -1.761877 0.2731822 -0.4478483
v -1.715098 0.1684745 -0.5039917
v -1.709016 0.1684745 -0.4999366
v -1.755794 0.2740995 -0.4437932
v -1.769021 0.2721685 -0.4492965
v -1.722243 0.1684745 -0.5054399
v -1.715098 0.1684745 -0.5039917
v -1.761877 0.2731822 -0.4478483
v -2.646703 0.1684745 -0.5039917
v -2.63951 0.1684745 -0.5054399
v -2.592732 0.2721685 -0.4492965
v -2.599876 0.2731822 -0.4478483
v -2.652737 0.1684745 -0.4999366
v -2.646703 0.1684745 -0.5039917
v -2.599876 0.2731822 -0.4478483
v -2.605959 0.2740995 -0.4437932
v -2.656841 0.1684745 -0.4939023
v -2.652737 0.1684745 -0.4999366
v -2.605959 0.2740995 -0.4437932
v -2.610014 0.274727 -0.4377106
v -2.658241 0.1684745 -0.4867094
v -2.656841 0.1684745 -0.4939023
v -2.610014 0.274727 -0.4377106
v -2.611462 0.2749684 -0.4305659
v -2.658241 0.1684745 -0.1872133
v -2.658241 0.1684745 -0.4867094
v -2.611462 0.2749684 -0.4305659
v -2.611462 0.2749684 -0.2059439
v -2.656841 0.1684745 -0.1800204
v -2.658241 0.1684745 -0.1872133
v -2.611462 0.2749684 -0.2059439
v -2.610014 0.274727 -0.1987509
v -2.652737 0.1684745 -0.173986
v -2.656841 0.1684745 -0.1800204
v -2.610014 0.274727 -0.1987509
v -2.605959 0.2740995 -0.1926683
v -2.646703 0.1684745 -0.1698827
v -2.652737 0.1684745 -0.173986
v -2.605959 0.2740995 -0.1926683
v -2.599876 0.2731822 -0.1886133
v -2.63951 0.1684745 -0.1684827
v -2.646703 0.1684745 -0.1698827
v -2.599876 0.2731822 -0.1886133
v -2.592732 0.2721685 -0.1872133
v -1.761877 0.2731822 -0.1886133
v -1.715098 0.1684745 -0.1698827
v -1.722243 0.1684745 -0.1684827
v -1.769021 0.2721685 -0.1872133
v -1.755794 0.2740995 -0.1926683
v -1.709016 0.1684745 -0.173986
v -1.715098 0.1684745 -0.1698827
v -1.761877 0.2731822 -0.1886133
v -1.751739 0.274727 -0.1987509
v -1.704961 0.1684745 -0.1800204
v -1.709016 0.1684745 -0.173986
v -1.755794 0.2740995 -0.1926683
v -1.750339 0.2749684 -0.2059439
v -1.703512 0.1684745 -0.1872133
v -1.704961 0.1684745 -0.1800204
v -1.751739 0.274727 -0.1987509
v -1.750339 0.2749684 -0.4305659
v -1.703512 0.1684745 -0.4867094
v -1.703512 0.1684745 -0.1872133
v -1.750339 0.2749684 -0.2059439
v -1.751739 0.274727 -0.4377106
v -1.704961 0.1684745 -0.4939023
v -1.703512 0.1684745 -0.4867094
v -1.750339 0.2749684 -0.4305659
vt 0.8805444 0.5191989
vt 0.953492 0.6650943
vt 0.953492 0.5191989
vt 0.8805444 0.5191989
vt 0.953492 0.6650943
vt 0.953492 0.5191989
vt 0.8805444 0.5191989
vt 0.953492 0.6650943
vt 0.953492 0.5191989
vt 0.8805444 0.5191989
vt 0.953492 0.6650943
vt 0.953492 0.5191989
vt 0.8805444 0.5191989
vt 0.953492 0.6650943
vt 0.953492 0.5191989
vt 0.8805444 0.5191989
vt 0.953492 0.6650943
vt 0.953492 0.5191989
vt 0.8471807 0.3840478
vt 0.8471807 0.4943175
vt 0.8471807 0.4909246
vt 0.8471807 0.3806549
vt 0.8460497 0.3778274
vt 0.8460497 0.4971449
vt 0.8443533 0.3755655
vt 0.8443533 0.4994069
vt 0.8426569 0.375
vt 0.8426569 0.4999724
vt 0.8002454 0.4999724
vt 0.8002454 0.375
vt 0.7363455 0.375
vt 0.7363455 0.4999724
vt 0.6718801 0.375
vt 0.6718801 0.4999724
vt 0.6300341 0.375
vt 0.6300341 0.4999724
vt 0.6277722 0.4994069
vt 0.6277722 0.3755655
vt 0.6266412 0.4971449
vt 0.6266412 0.3778274
vt 0.6255102 0.4943175
vt 0.6255102 0.3806549
vt 0.6249447 0.4909246
vt 0.6249447 0.3840478
vt 0.8805444 0.5191989
vt 0.8805444 0.6650943
vt 0.953492 0.6650943
vt 0.953492 0.5191989
vt 0.8805444 0.5191989
vt 0.8805444 0.6650943
vt 0.953492 0.6650943
vt 0.953492 0.5191989
vt 0.8805444 0.5191989
vt 0.8805444 0.6650943
vt 0.953492 0.6650943
vt 0.953492 0.5191989
vt 0.8805444 0.5191989
vt 0.8805444 0.6650943
vt 0.953492 0.6650943
vt 0.953492 0.5191989
vt 0.8805444 0.5191989
vt 0.8805444 0.6650943
vt 0.953492 0.6650943
vt 0.953492 0.5191989
vt 0.8805444 0.5191989
vt 0.8805444 0.6650943
vt 0.953492 0.6650943
vt 0.953492 0.5191989
vt 0.8805444 0.5191989
vt 0.8805444 0.6650943
vt 0.953492 0.6650943
vt 0.953492 0.5191989
vt 0.8805444 0.5191989
vt 0.8805444 0.6650943
vt 0.953492 0.6650943
vt 0.953492 0.5191989
vt 0.8805444 0.5191989
vt 0.8805444 0.6650943
vt 0.953492 0.6650943
vt 0.953492 0.5191989
vt 0.8805444 0.5191989
vt 0.8805444 0.6650943
vt 0.953492 0.6650943
vt 0.953492 0.5191989
vt 0.8805444 0.5191989
vt 0.8805444 0.6650943
vt 0.953492 0.6650943
vt 0.953492 0.5191989
vt 0.8805444 0.5191989
vt 0.8805444 0.6650943
vt 0.953492 0.6650943
vt 0.953492 0.5191989
vt 0.8805444 0.5191989
vt 0.8805444 0.6650943
vt 0.953492 0.6650943
vt 0.953492 0.5191989
vt 0.8805444 0.5191989
vt 0.8805444 0.6650943
vt 0.953492 0.6650943
vt 0.953492 0.5191989
vt 0.8805444 0.5191989
vt 0.8805444 0.6650943
vt 0.953492 0.6650943
vt 0.953492 0.5191989
vt 0.8805444 0.5191989
vt 0.8805444 0.6650943
vt 0.953492 0.6650943
vt 0.953492 0.5191989
vt 0.8805444 0.5191989
vt 0.8805444 0.6650943
vt 0.953492 0.6650943
vt 0.953492 0.5191989
vt 0.8805444 0.5191989
vt 0.8805444 0.6650943
vt 0.953492 0.6650943
vt 0.953492 0.5191989
vt 0.8805444 0.5191989
vt 0.8805444 0.6650943
vt 0.953492 0.6650943
vt 0.953492 0.5191989
vt 0.8805444 0.5191989
vt 0.8805444 0.6650943
vt 0.953492 0.6650943
vt 0.953492 0.5191989
vt 0.8805444 0.5191989
vt 0.8805444 0.6650943
vt 0.953492 0.6650943
vt 0.953492 0.5191989
vt 0.8805444 0.5191989
vt 0.8805444 0.6650943
vt 0.953492 0.6650943
vt 0.953492 0.5191989
vn 0.001607001 0.1852597 0.9826883
vn 0.001607001 0.1852597 0.9826883
vn 0.001607001 0.1852597 0.9826883
vn 0.001607001 0.1852597 0.9826883
vn 0.001607001 0.1852597 0.9826883
vn 0.001607001 0.1852597 0.9826883
vn 0.001607001 0.4917212 -0.8707513
vn 0.001607001 0.4991958 -0.8664877
vn 0.001607001 0.4991958 -0.8664877
vn 0.001607001 0.4991958 -0.8664877
vn 0.001607001 0.4991958 -0.8664877
vn 0.001607001 0.4991958 -0.8664877
vn 0.001607001 0.1852597 0.9826883
vn 0.001607001 0.1852597 0.9826883
vn 0.001607001 0.1852597 0.9826883
vn 0.001607001 0.4991958 -0.8664877
vn 0.001607001 0.4991958 -0.8664877
vn 0.001607001 0.4917212 -0.8707513
vn 0.1585751 0.9850492 -0.06731953
vn 0.1585751 0.9850492 -0.06731953
vn 0.1585751 0.9850492 -0.06731953
vn 0.1585751 0.9850492 -0.06731953
vn 0.1511004 0.9850492 -0.08274458
vn 0.1511004 0.9850492 -0.08274458
vn 0.1432158 0.9896914 0
vn 0.1432158 0.9896914 0
vn 0.08382839 0.992524 -0.0887064
vn 0.08382839 0.992524 -0.0887064
vn 0.01655414 0.999863 0
vn 0.01655414 0.999863 0
vn 0.001607001 0.9999987 -0.0002441406
vn 0.001607001 0.9999987 -0.0002441406
vn -0.0208125 0.9997835 0
vn -0.0208125 0.9997835 0
vn -0.08808899 0.992524 -0.08447689
vn -0.08808899 0.992524 -0.08447689
vn -0.1473734 0.9890809 0
vn -0.1473734 0.9890809 0
vn -0.1553611 0.9850492 -0.07443727
vn -0.1553611 0.9850492 -0.07443727
vn -0.1553611 0.9850492 -0.07443727
vn -0.1553611 0.9850492 -0.07443727
vn -0.1628357 0.9850492 -0.05623614
vn -0.1628357 0.9850492 -0.05623614
vn 0.001607001 0.1852597 0.9826883
vn 0.001607001 0.1852597 0.9826883
vn -0.09556365 0.222633 0.9702073
vn -0.09556365 0.222633 0.9702073
vn 0.09130305 0.222633 0.9706175
vn 0.001607001 0.1852597 0.9826883
vn 0.001607001 0.1852597 0.9826883
vn 0.09130305 0.222633 0.9706175
vn -0.08061433 0.5141451 -0.8539063
vn 0.001607001 0.4991958 -0.8664877
vn 0.001607001 0.4917212 -0.8707513
vn -0.08061433 0.5141451 -0.8539063
vn 0.001607001 0.4917212 -0.8707513
vn 0.001607001 0.4991958 -0.8664877
vn 0.08382839 0.5141451 -0.8535969
vn 0.08382839 0.5141451 -0.8535969
vn 0.5846312 0.5664679 -0.580793
vn 0.5846312 0.5664679 -0.580793
vn 0.7939219 0.5216198 -0.3124111
vn 0.7939219 0.5216198 -0.3124111
vn 0.3155431 0.5589932 -0.7667849
vn 0.3155431 0.5589932 -0.7667849
vn 0.5846312 0.5664679 -0.580793
vn 0.5846312 0.5664679 -0.580793
vn 0.08382839 0.5141451 -0.8535969
vn 0.08382839 0.5141451 -0.8535969
vn 0.3155431 0.5589932 -0.7667849
vn 0.3155431 0.5589932 -0.7667849
vn -0.3123291 0.5589932 -0.7680997
vn -0.08061433 0.5141451 -0.8539063
vn -0.08061433 0.5141451 -0.8539063
vn -0.3123291 0.5589932 -0.7680997
vn -0.5814172 0.5664679 -0.5840104
vn -0.3123291 0.5589932 -0.7680997
vn -0.3123291 0.5589932 -0.7680997
vn -0.5814172 0.5664679 -0.5840104
vn -0.7907079 0.5216198 -0.3204586
vn -0.5814172 0.5664679 -0.5840104
vn -0.5814172 0.5664679 -0.5840104
vn -0.7907079 0.5216198 -0.3204586
vn -0.8953533 0.4393984 -0.07260495
vn -0.7907079 0.5216198 -0.3204586
vn -0.7907079 0.5216198 -0.3204586
vn -0.8953533 0.4393984 -0.07260495
vn -0.902828 0.4169744 0.1050428
vn -0.8953533 0.4393984 -0.07260495
vn -0.8953533 0.4393984 -0.07260495
vn -0.902828 0.4169744 0.1050428
vn -0.8355559 0.4244491 0.3488399
vn -0.902828 0.4169744 0.1050428
vn -0.902828 0.4169744 0.1050428
vn -0.8355559 0.4244491 0.3488399
vn -0.6486892 0.4020251 0.6462029
vn -0.8355559 0.4244491 0.3488399
vn -0.8355559 0.4244491 0.3488399
vn -0.6486892 0.4020251 0.6462029
vn -0.3571771 0.3198037 0.877582
vn -0.6486892 0.4020251 0.6462029
vn -0.6486892 0.4020251 0.6462029
vn -0.3571771 0.3198037 0.877582
vn -0.09556365 0.222633 0.9702073
vn -0.3571771 0.3198037 0.877582
vn -0.3571771 0.3198037 0.877582
vn -0.09556365 0.222633 0.9702073
vn 0.3603911 0.3198037 0.876267
vn 0.3603911 0.3198037 0.876267
vn 0.09130305 0.222633 0.9706175
vn 0.09130305 0.222633 0.9706175
vn 0.6444286 0.4020251 0.6504519
vn 0.6444286 0.4020251 0.6504519
vn 0.3603911 0.3198037 0.876267
vn 0.3603911 0.3198037 0.876267
vn 0.8312953 0.4244491 0.3588747
vn 0.8312953 0.4244491 0.3588747
vn 0.6444286 0.4020251 0.6504519
vn 0.6444286 0.4020251 0.6504519
vn 0.906042 0.4169744 0.07225139
vn 0.906042 0.4169744 0.07225139
vn 0.8312953 0.4244491 0.3588747
vn 0.8312953 0.4244491 0.3588747
vn 0.8910927 0.4393984 -0.113503
vn 0.8910927 0.4393984 -0.113503
vn 0.906042 0.4169744 0.07225139
vn 0.906042 0.4169744 0.07225139
vn 0.7939219 0.5216198 -0.3124111
vn 0.7939219 0.5216198 -0.3124111
vn 0.8910927 0.4393984 -0.113503
vn 0.8910927 0.4393984 -0.113503
g Tastiera.050_0
f 3/3/3 2/2/2 1/1/1
f 6/6/6 5/5/5 4/4/4
f 9/9/9 8/8/8 7/7/7
f 12/12/12 11/11/11 10/10/10
f 15/15/15 14/14/14 13/13/13
f 18/18/18 17/17/17 16/16/16
f 21/21/21 20/20/20 19/19/19
f 20/20/20 22/22/22 19/19/19
f 22/22/22 20/20/20 23/23/23
f 20/20/20 24/24/24 23/23/23
f 23/23/23 24/24/24 25/25/25
f 24/24/24 26/26/26 25/25/25
f 25/25/25 26/26/26 27/27/27
f 26/26/26 28/28/28 27/27/27
f 27/27/27 28/28/28 29/29/29
f 30/30/30 27/27/27 29/29/29
f 31/31/31 30/30/30 29/29/29
f 32/32/32 31/31/31 29/29/29
f 33/33/33 31/31/31 32/32/32
f 34/34/34 33/33/33 32/32/32
f 33/33/33 34/34/34 35/35/35
f 34/34/34 36/36/36 35/35/35
f 35/35/35 36/36/36 37/37/37
f 38/38/38 35/35/35 37/37/37
f 38/38/38 37/37/37 39/39/39
f 40/40/40 38/38/38 39/39/39
f 40/40/40 39/39/39 41/41/41
f 42/42/42 40/40/40 41/41/41
f 41/41/41 43/43/43 42/42/42
f 43/43/43 44/44/44 42/42/42
f 47/47/47 46/46/46 45/45/45
f 48/48/48 47/47/47 45/45/45
f 51/51/51 50/50/50 49/49/49
f 52/52/52 51/51/51 49/49/49
f 55/55/55 54/54/54 53/53/53
f 56/56/56 55/55/55 53/53/53
f 59/59/59 58/58/58 57/57/57
f 60/60/60 59/59/59 57/57/57
f 63/63/63 62/62/62 61/61/61
f 64/64/64 63/63/63 61/61/61
f 67/67/67 66/66/66 65/65/65
f 68/68/68 67/67/67 65/65/65
f 71/71/71 70/70/70 69/69/69
f 72/72/72 71/71/71 69/69/69
f 75/75/75 74/74/74 73/73/73
f 76/76/76 75/75/75 73/73/73
f 79/79/79 78/78/78 77/77/77
f 80/80/80 79/79/79 77/77/77
f 83/83/83 82/82/82 81/81/81
f 84/84/84 83/83/83 81/81/81
f 87/87/87 86/86/86 85/85/85
f 88/88/88 87/87/87 85/85/85
f 91/91/91 90/90/90 89/89/89
f 92/92/92 91/91/91 89/89/89
f 95/95/95 94/94/94 93/93/93
f 96/96/96 95/95/95 93/93/93
f 99/99/99 98/98/98 97/97/97
f 100/100/100 99/99/99 97/97/97
f 103/103/103 102/102/102 101/101/101
f 104/104/104 103/103/103 101/101/101
f 107/107/107 106/106/106 105/105/105
f 108/108/108 107/107/107 105/105/105
f 111/111/111 110/110/110 109/109/109
f 112/112/112 111/111/111 109/109/109
f 115/115/115 114/114/114 113/113/113
f 116/116/116 115/115/115 113/113/113
f 119/119/119 118/118/118 117/117/117
f 120/120/120 119/119/119 117/117/117
f 123/123/123 122/122/122 121/121/121
f 124/124/124 123/123/123 121/121/121
f 127/127/127 126/126/126 125/125/125
f 128/128/128 127/127/127 125/125/125
f 131/131/131 130/130/130 129/129/129
f 132/132/132 131/131/131 129/129/129
