g Tastiera.013
v -1.778389 0.2650868 0.8798402
v -1.703519 0.1684804 0.8985645
v -1.853286 0.1684804 0.8985645
v -1.778389 0.2650868 0.8798402
v -1.853286 0.1684804 0.8985645
v -1.829867 0.2668778 0.8798402
v -1.829867 0.2668778 0.6177546
v -1.853286 0.1684804 0.5616089
v -1.778389 0.2650868 0.6177546
v -1.853286 0.1684804 0.5616089
v -1.703519 0.1684804 0.5616089
v -1.778389 0.2650868 0.6177546
v -1.72691 0.2668778 0.8798402
v -1.703519 0.1684804 0.8985645
v -1.778389 0.2650868 0.8798402
v -1.778389 0.2650868 0.6177546
v -1.703519 0.1684804 0.5616089
v -1.72691 0.2668778 0.6177546
v -1.900069 0.2749917 0.6364788
v -1.898658 0.2747474 0.86828
v -1.900069 0.2749917 0.8611159
v -1.898658 0.2747474 0.6293148
v -1.894588 0.2741233 0.6232362
v -1.894588 0.2741233 0.8743586
v -1.888536 0.2732006 0.6191928
v -1.888536 0.2732006 0.8784291
v -1.881372 0.2721694 0.6177546
v -1.881372 0.2721694 0.8798402
v -1.829867 0.2668778 0.8798402
v -1.829867 0.2668778 0.6177546
v -1.778389 0.2650868 0.6177546
v -1.778389 0.2650868 0.8798402
v -1.72691 0.2668778 0.6177546
v -1.72691 0.2668778 0.8798402
v -1.675432 0.2721694 0.6177546
v -1.675432 0.2721694 0.8798402
v -1.668268 0.2732006 0.8784291
v -1.668268 0.2732006 0.6191928
v -1.662217 0.2741233 0.8743586
v -1.662217 0.2741233 0.6232362
v -1.658146 0.2747474 0.86828
v -1.658146 0.2747474 0.6293148
v -1.656708 0.2749917 0.8611159
v -1.656708 0.2749917 0.6364788
v -1.829867 0.2668778 0.8798402
v -1.853286 0.1684804 0.8985645
v -1.928156 0.1684804 0.8985645
v -1.881372 0.2721694 0.8798402
v -1.628649 0.1684804 0.8985645
v -1.703519 0.1684804 0.8985645
v -1.72691 0.2668778 0.8798402
v -1.675432 0.2721694 0.8798402
v -1.928156 0.1684804 0.5616089
v -1.853286 0.1684804 0.5616089
v -1.829867 0.2668778 0.6177546
v -1.881372 0.2721694 0.6177546
v -1.72691 0.2668778 0.6177546
v -1.703519 0.1684804 0.5616089
v -1.628649 0.1684804 0.5616089
v -1.675432 0.2721694 0.6177546
v -1.662217 0.2741233 0.6232362
v -1.615406 0.1684804 0.5670905
v -1.611336 0.1684804 0.5731691
v -1.658146 0.2747474 0.6293148
v -1.668268 0.2732006 0.6191928
v -1.621485 0.1684804 0.5630199
v -1.615406 0.1684804 0.5670905
v -1.662217 0.2741233 0.6232362
v -1.675432 0.2721694 0.6177546
v -1.628649 0.1684804 0.5616089
v -1.621485 0.1684804 0.5630199
v -1.668268 0.2732006 0.6191928
v -1.93532 0.1684804 0.5630199
v -1.928156 0.1684804 0.5616089
v -1.881372 0.2721694 0.6177546
v -1.888536 0.2732006 0.6191928
v -1.941399 0.1684804 0.5670905
v -1.93532 0.1684804 0.5630199
v -1.888536 0.2732006 0.6191928
v -1.894588 0.2741233 0.6232362
v -1.945469 0.1684804 0.5731691
v -1.941399 0.1684804 0.5670905
v -1.894588 0.2741233 0.6232362
v -1.898658 0.2747474 0.6293148
v -1.94688 0.1684804 0.5803331
v -1.945469 0.1684804 0.5731691
v -1.898658 0.2747474 0.6293148
v -1.900069 0.2749917 0.6364788
v -1.94688 0.1684804 0.8798402
v -1.94688 0.1684804 0.5803331
v -1.900069 0.2749917 0.6364788
v -1.900069 0.2749917 0.8611159
v -1.945469 0.1684804 0.8870043
v -1.94688 0.1684804 0.8798402
v -1.900069 0.2749917 0.8611159
v -1.898658 0.2747474 0.86828
v -1.941399 0.1684804 0.8930829
v -1.945469 0.1684804 0.8870043
v -1.898658 0.2747474 0.86828
v -1.894588 0.2741233 0.8743586
v -1.93532 0.1684804 0.8971263
v -1.941399 0.1684804 0.8930829
v -1.894588 0.2741233 0.8743586
v -1.888536 0.2732006 0.8784291
v -1.928156 0.1684804 0.8985645
v -1.93532 0.1684804 0.8971263
v -1.888536 0.2732006 0.8784291
v -1.881372 0.2721694 0.8798402
v -1.668268 0.2732006 0.8784291
v -1.621485 0.1684804 0.8971263
v -1.628649 0.1684804 0.8985645
v -1.675432 0.2721694 0.8798402
v -1.662217 0.2741233 0.8743586
v -1.615406 0.1684804 0.8930829
v -1.621485 0.1684804 0.8971263
v -1.668268 0.2732006 0.8784291
v -1.658146 0.2747474 0.86828
v -1.611336 0.1684804 0.8870043
v -1.615406 0.1684804 0.8930829
v -1.662217 0.2741233 0.8743586
v -1.656708 0.2749917 0.8611159
v -1.609924 0.1684804 0.8798402
v -1.611336 0.1684804 0.8870043
v -1.658146 0.2747474 0.86828
v -1.656708 0.2749917 0.6364788
v -1.609924 0.1684804 0.5803331
v -1.609924 0.1684804 0.8798402
v -1.656708 0.2749917 0.8611159
v -1.658146 0.2747474 0.6293148
v -1.611336 0.1684804 0.5731691
v -1.609924 0.1684804 0.5803331
v -1.656708 0.2749917 0.6364788
vt 0.8804727 0.5191965
vt 0.953492 0.6652353
vt 0.953492 0.5191965
vt 0.8804727 0.5191965
vt 0.953492 0.6652353
vt 0.953492 0.5191965
vt 0.8804727 0.5191965
vt 0.953492 0.6652353
vt 0.953492 0.5191965
vt 0.8804727 0.5191965
vt 0.953492 0.6652353
vt 0.953492 0.5191965
vt 0.8804727 0.5191965
vt 0.953492 0.6652353
vt 0.953492 0.5191965
vt 0.8804727 0.5191965
vt 0.953492 0.6652353
vt 0.953492 0.5191965
vt 0.8125477 0.7590567
vt 0.8121231 0.8694348
vt 0.8125477 0.8660386
vt 0.8121231 0.7556605
vt 0.8112741 0.7526888
vt 0.8112741 0.8724066
vt 0.8095759 0.7505661
vt 0.8095759 0.8745292
vt 0.8078778 0.7501416
vt 0.8078778 0.8749537
vt 0.7942928 0.8749537
vt 0.7942928 0.7501416
vt 0.7811323 0.7501416
vt 0.7811323 0.8749537
vt 0.7679719 0.7501416
vt 0.7679719 0.8749537
vt 0.7548114 0.7501416
vt 0.7548114 0.8749537
vt 0.7531133 0.8745292
vt 0.7531133 0.7505661
vt 0.7514151 0.8724066
vt 0.7514151 0.7526888
vt 0.7505661 0.8694348
vt 0.7505661 0.7556605
vt 0.7501416 0.8660386
vt 0.7501416 0.7590567
vt 0.8804727 0.5191965
vt 0.8804727 0.6652353
vt 0.953492 0.6652353
vt 0.953492 0.5191965
vt 0.8804727 0.5191965
vt 0.8804727 0.6652353
vt 0.953492 0.6652353
vt 0.953492 0.5191965
vt 0.8804727 0.5191965
vt 0.8804727 0.6652353
vt 0.953492 0.6652353
vt 0.953492 0.5191965
vt 0.8804727 0.5191965
vt 0.8804727 0.6652353
vt 0.953492 0.6652353
vt 0.953492 0.5191965
vt 0.8804727 0.5191965
vt 0.8804727 0.6652353
vt 0.953492 0.6652353
vt 0.953492 0.5191965
vt 0.8804727 0.5191965
vt 0.8804727 0.6652353
vt 0.953492 0.6652353
vt 0.953492 0.5191965
vt 0.8804727 0.5191965
vt 0.8804727 0.6652353
vt 0.953492 0.6652353
vt 0.953492 0.5191965
vt 0.8804727 0.5191965
vt 0.8804727 0.6652353
vt 0.953492 0.6652353
vt 0.953492 0.5191965
vt 0.8804727 0.5191965
vt 0.8804727 0.6652353
vt 0.953492 0.6652353
vt 0.953492 0.5191965
vt 0.8804727 0.5191965
vt 0.8804727 0.6652353
vt 0.953492 0.6652353
vt 0.953492 0.5191965
vt 0.8804727 0.5191965
vt 0.8804727 0.6652353
vt 0.953492 0.6652353
vt 0.953492 0.5191965
vt 0.8804727 0.5191965
vt 0.8804727 0.6652353
vt 0.953492 0.6652353
vt 0.953492 0.5191965
vt 0.8804727 0.5191965
vt 0.8804727 0.6652353
vt 0.953492 0.6652353
vt 0.953492 0.5191965
vt 0.8804727 0.5191965
vt 0.8804727 0.6652353
vt 0.953492 0.6652353
vt 0.953492 0.5191965
vt 0.8804727 0.5191965
vt 0.8804727 0.6652353
vt 0.953492 0.6652353
vt 0.953492 0.5191965
vt 0.8804727 0.5191965
vt 0.8804727 0.6652353
vt 0.953492 0.6652353
vt 0.953492 0.5191965
vt 0.8804727 0.5191965
vt 0.8804727 0.6652353
vt 0.953492 0.6652353
vt 0.953492 0.5191965
vt 0.8804727 0.5191965
vt 0.8804727 0.6652353
vt 0.953492 0.6652353
vt 0.953492 0.5191965
vt 0.8804727 0.5191965
vt 0.8804727 0.6652353
vt 0.953492 0.6652353
vt 0.953492 0.5191965
vt 0.8804727 0.5191965
vt 0.8804727 0.6652353
vt 0.953492 0.6652353
vt 0.953492 0.5191965
vt 0.8804727 0.5191965
vt 0.8804727 0.6652353
vt 0.953492 0.6652353
vt 0.953492 0.5191965
vt 0.8804727 0.5191965
vt 0.8804727 0.6652353
vt 0.953492 0.6652353
vt 0.953492 0.5191965
vn 0.001606941 0.1852598 0.9826882
vn 0.001606941 0.1852598 0.9826882
vn 0.001606941 0.1852598 0.9826882
vn 0.001606941 0.1852598 0.9826882
vn 0.001606941 0.1852598 0.9826882
vn 0.001606941 0.1852598 0.9826882
vn 0.009081602 0.4917212 -0.8707053
vn 0.009081602 0.4991959 -0.8664415
vn 0.001606941 0.4991959 -0.8664877
vn 0.009081602 0.4991959 -0.8664415
vn -0.00586772 0.4991959 -0.8664693
vn 0.001606941 0.4991959 -0.8664877
vn -0.00586772 0.1852598 0.982672
vn 0.001606941 0.1852598 0.9826882
vn 0.001606941 0.1852598 0.9826882
vn 0.001606941 0.4991959 -0.8664877
vn -0.00586772 0.4991959 -0.8664693
vn -0.00586772 0.4917212 -0.8707329
vn 0.158575 0.9850493 -0.0673191
vn 0.158575 0.9850493 -0.0673191
vn 0.158575 0.9850493 -0.0673191
vn 0.158575 0.9850493 -0.0673191
vn 0.1511003 0.9850493 -0.08274387
vn 0.1511003 0.9850493 -0.08274387
vn 0.1432158 0.9896915 0
vn 0.1432158 0.9896915 0
vn 0.1212017 0.9925241 -0.01435455
vn 0.1212017 0.9925241 -0.01435455
vn 0.06871628 0.9976363 0
vn 0.06871628 0.9976363 0
vn 0.001606941 0.9999987 0
vn 0.001606941 0.9999987 0
vn -0.06552403 0.997851 0
vn -0.06552403 0.997851 0
vn -0.1179877 0.9925241 -0.03122233
vn -0.1179877 0.9925241 -0.03122233
vn -0.1473734 0.989081 0
vn -0.1473734 0.989081 0
vn -0.1553611 0.9850493 -0.07443647
vn -0.1553611 0.9850493 -0.07443647
vn -0.1553611 0.9850493 -0.07443647
vn -0.1553611 0.9850493 -0.07443647
vn -0.1628358 0.9850493 -0.05623508
vn -0.1628358 0.9850493 -0.05623508
vn 0.001606941 0.1852598 0.9826882
vn 0.001606941 0.1852598 0.9826882
vn -0.09556371 0.2226331 0.9702072
vn -0.09556371 0.2226331 0.9702072
vn 0.09130299 0.2226331 0.9706175
vn 0.001606941 0.1852598 0.9826882
vn -0.00586772 0.1852598 0.982672
vn 0.09130299 0.2226331 0.9706175
vn -0.08061439 0.5141452 -0.8539063
vn 0.009081602 0.4991959 -0.8664415
vn 0.009081602 0.4917212 -0.8707053
vn -0.08061439 0.5141452 -0.8539063
vn -0.00586772 0.4917212 -0.8707329
vn -0.00586772 0.4991959 -0.8664693
vn 0.08382833 0.5141452 -0.8535968
vn 0.08382833 0.5141452 -0.8535968
vn 0.5846311 0.5664679 -0.580793
vn 0.5846311 0.5664679 -0.580793
vn 0.7939219 0.5216199 -0.3124112
vn 0.7939219 0.5216199 -0.3124112
vn 0.3155431 0.5589933 -0.7667849
vn 0.3155431 0.5589933 -0.7667849
vn 0.5846311 0.5664679 -0.580793
vn 0.5846311 0.5664679 -0.580793
vn 0.08382833 0.5141452 -0.8535968
vn 0.08382833 0.5141452 -0.8535968
vn 0.3155431 0.5589933 -0.7667849
vn 0.3155431 0.5589933 -0.7667849
vn -0.3123291 0.5589933 -0.7680996
vn -0.08061439 0.5141452 -0.8539063
vn -0.08061439 0.5141452 -0.8539063
vn -0.3123291 0.5589933 -0.7680996
vn -0.5814173 0.5664679 -0.5840103
vn -0.3123291 0.5589933 -0.7680996
vn -0.3123291 0.5589933 -0.7680996
vn -0.5814173 0.5664679 -0.5840103
vn -0.790708 0.5216199 -0.3204584
vn -0.5814173 0.5664679 -0.5840103
vn -0.5814173 0.5664679 -0.5840103
vn -0.790708 0.5216199 -0.3204584
vn -0.8953534 0.4393985 -0.07260383
vn -0.790708 0.5216199 -0.3204584
vn -0.790708 0.5216199 -0.3204584
vn -0.8953534 0.4393985 -0.07260383
vn -0.902828 0.4169745 0.105042
vn -0.8953534 0.4393985 -0.07260383
vn -0.8953534 0.4393985 -0.07260383
vn -0.902828 0.4169745 0.105042
vn -0.835556 0.4244491 0.3488397
vn -0.902828 0.4169745 0.105042
vn -0.902828 0.4169745 0.105042
vn -0.835556 0.4244491 0.3488397
vn -0.6486892 0.4020252 0.6462028
vn -0.835556 0.4244491 0.3488397
vn -0.835556 0.4244491 0.3488397
vn -0.6486892 0.4020252 0.6462028
vn -0.3571772 0.3198038 0.8775819
vn -0.6486892 0.4020252 0.6462028
vn -0.6486892 0.4020252 0.6462028
vn -0.3571772 0.3198038 0.8775819
vn -0.09556371 0.2226331 0.9702072
vn -0.3571772 0.3198038 0.8775819
vn -0.3571772 0.3198038 0.8775819
vn -0.09556371 0.2226331 0.9702072
vn 0.3603911 0.3198038 0.876267
vn 0.3603911 0.3198038 0.876267
vn 0.09130299 0.2226331 0.9706175
vn 0.09130299 0.2226331 0.9706175
vn 0.6444285 0.4020252 0.6504519
vn 0.6444285 0.4020252 0.6504519
vn 0.3603911 0.3198038 0.876267
vn 0.3603911 0.3198038 0.876267
vn 0.8312953 0.4244491 0.3588748
vn 0.8312953 0.4244491 0.3588748
vn 0.6444285 0.4020252 0.6504519
vn 0.6444285 0.4020252 0.6504519
vn 0.9060419 0.4169745 0.07225191
vn 0.9060419 0.4169745 0.07225191
vn 0.8312953 0.4244491 0.3588748
vn 0.8312953 0.4244491 0.3588748
vn 0.8910926 0.4393985 -0.1135031
vn 0.8910926 0.4393985 -0.1135031
vn 0.9060419 0.4169745 0.07225191
vn 0.9060419 0.4169745 0.07225191
vn 0.7939219 0.5216199 -0.3124112
vn 0.7939219 0.5216199 -0.3124112
vn 0.8910926 0.4393985 -0.1135031
vn 0.8910926 0.4393985 -0.1135031
g Tastiera.013_0
f 3/3/3 2/2/2 1/1/1
f 6/6/6 5/5/5 4/4/4
f 9/9/9 8/8/8 7/7/7
f 12/12/12 11/11/11 10/10/10
f 15/15/15 14/14/14 13/13/13
f 18/18/18 17/17/17 16/16/16
f 21/21/21 20/20/20 19/19/19
f 20/20/20 22/22/22 19/19/19
f 22/22/22 20/20/20 23/23/23
f 20/20/20 24/24/24 23/23/23
f 23/23/23 24/24/24 25/25/25
f 24/24/24 26/26/26 25/25/25
f 25/25/25 26/26/26 27/27/27
f 26/26/26 28/28/28 27/27/27
f 27/27/27 28/28/28 29/29/29
f 30/30/30 27/27/27 29/29/29
f 31/31/31 30/30/30 29/29/29
f 32/32/32 31/31/31 29/29/29
f 33/33/33 31/31/31 32/32/32
f 34/34/34 33/33/33 32/32/32
f 33/33/33 34/34/34 35/35/35
f 34/34/34 36/36/36 35/35/35
f 35/35/35 36/36/36 37/37/37
f 38/38/38 35/35/35 37/37/37
f 38/38/38 37/37/37 39/39/39
f 40/40/40 38/38/38 39/39/39
f 40/40/40 39/39/39 41/41/41
f 42/42/42 40/40/40 41/41/41
f 41/41/41 43/43/43 42/42/42
f 43/43/43 44/44/44 42/42/42
f 47/47/47 46/46/46 45/45/45
f 48/48/48 47/47/47 45/45/45
f 51/51/51 50/50/50 49/49/49
f 52/52/52 51/51/51 49/49/49
f 55/55/55 54/54/54 53/53/53
f 56/56/56 55/55/55 53/53/53
f 59/59/59 58/58/58 57/57/57
f 60/60/60 59/59/59 57/57/57
f 63/63/63 62/62/62 61/61/61
f 64/64/64 63/63/63 61/61/61
f 67/67/67 66/66/66 65/65/65
f 68/68/68 67/67/67 65/65/65
f 71/71/71 70/70/70 69/69/69
f 72/72/72 71/71/71 69/69/69
f 75/75/75 74/74/74 73/73/73
f 76/76/76 75/75/75 73/73/73
f 79/79/79 78/78/78 77/77/77
f 80/80/80 79/79/79 77/77/77
f 83/83/83 82/82/82 81/81/81
f 84/84/84 83/83/83 81/81/81
f 87/87/87 86/86/86 85/85/85
f 88/88/88 87/87/87 85/85/85
f 91/91/91 90/90/90 89/89/89
f 92/92/92 91/91/91 89/89/89
f 95/95/95 94/94/94 93/93/93
f 96/96/96 95/95/95 93/93/93
f 99/99/99 98/98/98 97/97/97
f 100/100/100 99/99/99 97/97/97
f 103/103/103 102/102/102 101/101/101
f 104/104/104 103/103/103 101/101/101
f 107/107/107 106/106/106 105/105/105
f 108/108/108 107/107/107 105/105/105
f 111/111/111 110/110/110 109/109/109
f 112/112/112 111/111/111 109/109/109
f 115/115/115 114/114/114 113/113/113
f 116/116/116 115/115/115 113/113/113
f 119/119/119 118/118/118 117/117/117
f 120/120/120 119/119/119 117/117/117
f 123/123/123 122/122/122 121/121/121
f 124/124/124 123/123/123 121/121/121
f 127/127/127 126/126/126 125/125/125
f 128/128/128 127/127/127 125/125/125
f 131/131/131 130/130/130 129/129/129
f 132/132/132 131/131/131 129/129/129
