g Tastiera.048
v -1.60057 0.2650975 0.524152
v -1.52569 0.1684802 0.5428845
v -1.675451 0.1684802 0.5428845
v -1.60057 0.2650975 0.524152
v -1.675451 0.1684802 0.5428845
v -1.65203 0.266856 0.524152
v -1.65203 0.266856 0.2620691
v -1.675451 0.1684802 0.2059207
v -1.60057 0.2650975 0.2620691
v -1.675451 0.1684802 0.2059207
v -1.52569 0.1684802 0.2059207
v -1.60057 0.2650975 0.2620691
v -1.549087 0.266856 0.524152
v -1.52569 0.1684802 0.5428845
v -1.60057 0.2650975 0.524152
v -1.60057 0.2650975 0.2620691
v -1.52569 0.1684802 0.2059207
v -1.549087 0.266856 0.2620691
v -1.722246 0.2749888 0.2808015
v -1.720805 0.2747446 0.5126
v -1.722246 0.2749888 0.505444
v -1.720805 0.2747446 0.2736456
v -1.716751 0.2741096 0.2675643
v -1.716751 0.2741096 0.5186813
v -1.710694 0.2731816 0.26351
v -1.710694 0.2731816 0.5227355
v -1.703513 0.2721802 0.2620691
v -1.703513 0.2721802 0.524152
v -1.65203 0.266856 0.524152
v -1.65203 0.266856 0.2620691
v -1.60057 0.2650975 0.2620691
v -1.60057 0.2650975 0.524152
v -1.549087 0.266856 0.2620691
v -1.549087 0.266856 0.524152
v -1.497603 0.2721802 0.2620691
v -1.497603 0.2721802 0.524152
v -1.490447 0.2731816 0.5227355
v -1.490447 0.2731816 0.26351
v -1.484366 0.2741096 0.5186813
v -1.484366 0.2741096 0.2675643
v -1.480312 0.2747446 0.5126
v -1.480312 0.2747446 0.2736456
v -1.478871 0.2749888 0.505444
v -1.478871 0.2749888 0.2808015
v -1.65203 0.266856 0.524152
v -1.675451 0.1684802 0.5428845
v -1.750332 0.1684802 0.5428845
v -1.703513 0.2721802 0.524152
v -1.450809 0.1684802 0.5428845
v -1.52569 0.1684802 0.5428845
v -1.549087 0.266856 0.524152
v -1.497603 0.2721802 0.524152
v -1.750332 0.1684802 0.2059207
v -1.675451 0.1684802 0.2059207
v -1.65203 0.266856 0.2620691
v -1.703513 0.2721802 0.2620691
v -1.549087 0.266856 0.2620691
v -1.52569 0.1684802 0.2059207
v -1.450809 0.1684802 0.2059207
v -1.497603 0.2721802 0.2620691
v -1.484366 0.2741096 0.2675643
v -1.437572 0.1684802 0.2113914
v -1.433493 0.1684802 0.2174727
v -1.480312 0.2747446 0.2736456
v -1.490447 0.2731816 0.26351
v -1.443628 0.1684802 0.2073372
v -1.437572 0.1684802 0.2113914
v -1.484366 0.2741096 0.2675643
v -1.497603 0.2721802 0.2620691
v -1.450809 0.1684802 0.2059207
v -1.443628 0.1684802 0.2073372
v -1.490447 0.2731816 0.26351
v -1.757488 0.1684802 0.2073372
v -1.750332 0.1684802 0.2059207
v -1.703513 0.2721802 0.2620691
v -1.710694 0.2731816 0.26351
v -1.763545 0.1684802 0.2113914
v -1.757488 0.1684802 0.2073372
v -1.710694 0.2731816 0.26351
v -1.716751 0.2741096 0.2675643
v -1.767624 0.1684802 0.2174727
v -1.763545 0.1684802 0.2113914
v -1.716751 0.2741096 0.2675643
v -1.720805 0.2747446 0.2736456
v -1.76904 0.1684802 0.2246287
v -1.767624 0.1684802 0.2174727
v -1.720805 0.2747446 0.2736456
v -1.722246 0.2749888 0.2808015
v -1.76904 0.1684802 0.524152
v -1.76904 0.1684802 0.2246287
v -1.722246 0.2749888 0.2808015
v -1.722246 0.2749888 0.505444
v -1.767624 0.1684802 0.5313324
v -1.76904 0.1684802 0.524152
v -1.722246 0.2749888 0.505444
v -1.720805 0.2747446 0.5126
v -1.763545 0.1684802 0.5373893
v -1.767624 0.1684802 0.5313324
v -1.720805 0.2747446 0.5126
v -1.716751 0.2741096 0.5186813
v -1.757488 0.1684802 0.5414435
v -1.763545 0.1684802 0.5373893
v -1.716751 0.2741096 0.5186813
v -1.710694 0.2731816 0.5227355
v -1.750332 0.1684802 0.5428845
v -1.757488 0.1684802 0.5414435
v -1.710694 0.2731816 0.5227355
v -1.703513 0.2721802 0.524152
v -1.490447 0.2731816 0.5227355
v -1.443628 0.1684802 0.5414435
v -1.450809 0.1684802 0.5428845
v -1.497603 0.2721802 0.524152
v -1.484366 0.2741096 0.5186813
v -1.437572 0.1684802 0.5373893
v -1.443628 0.1684802 0.5414435
v -1.490447 0.2731816 0.5227355
v -1.480312 0.2747446 0.5126
v -1.433493 0.1684802 0.5313324
v -1.437572 0.1684802 0.5373893
v -1.484366 0.2741096 0.5186813
v -1.478871 0.2749888 0.505444
v -1.432076 0.1684802 0.524152
v -1.433493 0.1684802 0.5313324
v -1.480312 0.2747446 0.5126
v -1.478871 0.2749888 0.2808015
v -1.432076 0.1684802 0.2246287
v -1.432076 0.1684802 0.524152
v -1.478871 0.2749888 0.505444
v -1.480312 0.2747446 0.2736456
v -1.433493 0.1684802 0.2174727
v -1.432076 0.1684802 0.2246287
v -1.478871 0.2749888 0.2808015
vt 0.8804727 0.5191965
vt 0.953492 0.6652353
vt 0.953492 0.5191965
vt 0.8804727 0.5191965
vt 0.953492 0.6652353
vt 0.953492 0.5191965
vt 0.8804727 0.5191965
vt 0.953492 0.6652353
vt 0.953492 0.5191965
vt 0.8804727 0.5191965
vt 0.953492 0.6652353
vt 0.953492 0.5191965
vt 0.8804727 0.5191965
vt 0.953492 0.6652353
vt 0.953492 0.5191965
vt 0.8804727 0.5191965
vt 0.953492 0.6652353
vt 0.953492 0.5191965
vt 0.6873109 0.6338199
vt 0.6873109 0.7446226
vt 0.6873109 0.7412264
vt 0.6873109 0.6304237
vt 0.6860373 0.627452
vt 0.6860373 0.7475944
vt 0.6843392 0.6257539
vt 0.6843392 0.7492925
vt 0.6826411 0.6249048
vt 0.6826411 0.7501416
vt 0.6694806 0.7501416
vt 0.6694806 0.6249048
vt 0.6563201 0.6249048
vt 0.6563201 0.7501416
vt 0.6431596 0.6249048
vt 0.6431596 0.7501416
vt 0.6299992 0.6249048
vt 0.6299992 0.7501416
vt 0.6278765 0.7492925
vt 0.6278765 0.6257539
vt 0.6266029 0.7475944
vt 0.6266029 0.627452
vt 0.6253293 0.7446226
vt 0.6253293 0.6304237
vt 0.6249048 0.7412264
vt 0.6249048 0.6338199
vt 0.8804727 0.5191965
vt 0.8804727 0.6652353
vt 0.953492 0.6652353
vt 0.953492 0.5191965
vt 0.8804727 0.5191965
vt 0.8804727 0.6652353
vt 0.953492 0.6652353
vt 0.953492 0.5191965
vt 0.8804727 0.5191965
vt 0.8804727 0.6652353
vt 0.953492 0.6652353
vt 0.953492 0.5191965
vt 0.8804727 0.5191965
vt 0.8804727 0.6652353
vt 0.953492 0.6652353
vt 0.953492 0.5191965
vt 0.8804727 0.5191965
vt 0.8804727 0.6652353
vt 0.953492 0.6652353
vt 0.953492 0.5191965
vt 0.8804727 0.5191965
vt 0.8804727 0.6652353
vt 0.953492 0.6652353
vt 0.953492 0.5191965
vt 0.8804727 0.5191965
vt 0.8804727 0.6652353
vt 0.953492 0.6652353
vt 0.953492 0.5191965
vt 0.8804727 0.5191965
vt 0.8804727 0.6652353
vt 0.953492 0.6652353
vt 0.953492 0.5191965
vt 0.8804727 0.5191965
vt 0.8804727 0.6652353
vt 0.953492 0.6652353
vt 0.953492 0.5191965
vt 0.8804727 0.5191965
vt 0.8804727 0.6652353
vt 0.953492 0.6652353
vt 0.953492 0.5191965
vt 0.8804727 0.5191965
vt 0.8804727 0.6652353
vt 0.953492 0.6652353
vt 0.953492 0.5191965
vt 0.8804727 0.5191965
vt 0.8804727 0.6652353
vt 0.953492 0.6652353
vt 0.953492 0.5191965
vt 0.8804727 0.5191965
vt 0.8804727 0.6652353
vt 0.953492 0.6652353
vt 0.953492 0.5191965
vt 0.8804727 0.5191965
vt 0.8804727 0.6652353
vt 0.953492 0.6652353
vt 0.953492 0.5191965
vt 0.8804727 0.5191965
vt 0.8804727 0.6652353
vt 0.953492 0.6652353
vt 0.953492 0.5191965
vt 0.8804727 0.5191965
vt 0.8804727 0.6652353
vt 0.953492 0.6652353
vt 0.953492 0.5191965
vt 0.8804727 0.5191965
vt 0.8804727 0.6652353
vt 0.953492 0.6652353
vt 0.953492 0.5191965
vt 0.8804727 0.5191965
vt 0.8804727 0.6652353
vt 0.953492 0.6652353
vt 0.953492 0.5191965
vt 0.8804727 0.5191965
vt 0.8804727 0.6652353
vt 0.953492 0.6652353
vt 0.953492 0.5191965
vt 0.8804727 0.5191965
vt 0.8804727 0.6652353
vt 0.953492 0.6652353
vt 0.953492 0.5191965
vt 0.8804727 0.5191965
vt 0.8804727 0.6652353
vt 0.953492 0.6652353
vt 0.953492 0.5191965
vt 0.8804727 0.5191965
vt 0.8804727 0.6652353
vt 0.953492 0.6652353
vt 0.953492 0.5191965
vn 0.001608849 0.1852583 0.9826885
vn -0.005865872 0.1852583 0.9826723
vn 0.001608849 0.1852583 0.9826885
vn 0.001608849 0.1852583 0.9826885
vn 0.001608849 0.1852583 0.9826885
vn 0.001608849 0.1852583 0.9826885
vn 0.009083509 0.4917202 -0.8707059
vn 0.009083509 0.4991949 -0.8664421
vn 0.001608849 0.4991949 -0.8664883
vn 0.009083509 0.4991949 -0.8664421
vn -0.005865872 0.4991949 -0.8664699
vn 0.001608849 0.4991949 -0.8664883
vn -0.005865872 0.1852583 0.9826723
vn -0.005865872 0.1852583 0.9826723
vn 0.001608849 0.1852583 0.9826885
vn 0.001608849 0.4991949 -0.8664883
vn -0.005865872 0.4991949 -0.8664699
vn -0.005865872 0.4917202 -0.8707335
vn 0.1585771 0.9850492 -0.06731467
vn 0.1585771 0.9850492 -0.06731467
vn 0.1585771 0.9850492 -0.06731467
vn 0.1585771 0.9850492 -0.06731467
vn 0.1511025 0.9850492 -0.08274062
vn 0.1511025 0.9850492 -0.08274062
vn 0.1432179 0.9896912 0
vn 0.1432179 0.9896912 0
vn 0.1212037 0.992524 -0.01434209
vn 0.1212037 0.992524 -0.01434209
vn 0.06871825 0.9976362 0
vn 0.06871825 0.9976362 0
vn 0.001608849 0.9999987 -0.0002441406
vn 0.001608849 0.9999987 -0.0002441406
vn -0.06552232 0.9978511 0
vn -0.06552232 0.9978511 0
vn -0.1179861 0.992524 -0.03122997
vn -0.1179861 0.992524 -0.03122997
vn -0.1473719 0.9890811 0
vn -0.1473719 0.9890811 0
vn -0.1553595 0.9850492 -0.07444047
vn -0.1553595 0.9850492 -0.07444047
vn -0.1553595 0.9850492 -0.07444047
vn -0.1553595 0.9850492 -0.07444047
vn -0.1628342 0.9850492 -0.05624091
vn -0.1628342 0.9850492 -0.05624091
vn 0.001608849 0.1852583 0.9826885
vn 0.001608849 0.1852583 0.9826885
vn -0.0955621 0.2226317 0.9702077
vn -0.0955621 0.2226317 0.9702077
vn 0.09130502 0.2226317 0.9706176
vn -0.005865872 0.1852583 0.9826723
vn -0.005865872 0.1852583 0.9826723
vn 0.09130502 0.2226317 0.9706176
vn -0.08061266 0.5141443 -0.853907
vn 0.009083509 0.4991949 -0.8664421
vn 0.009083509 0.4917202 -0.8707059
vn -0.08061266 0.5141443 -0.853907
vn -0.005865872 0.4917202 -0.8707335
vn -0.005865872 0.4991949 -0.8664699
vn 0.08383036 0.5141443 -0.8535972
vn 0.08383036 0.5141443 -0.8535972
vn 0.5846341 0.566467 -0.5807909
vn 0.5846341 0.566467 -0.5807909
vn 0.7939252 0.521619 -0.3124044
vn 0.7939252 0.521619 -0.3124044
vn 0.3155455 0.5589924 -0.7667845
vn 0.3155455 0.5589924 -0.7667845
vn 0.5846341 0.566467 -0.5807909
vn 0.5846341 0.566467 -0.5807909
vn 0.08383036 0.5141443 -0.8535972
vn 0.08383036 0.5141443 -0.8535972
vn 0.3155455 0.5589924 -0.7667845
vn 0.3155455 0.5589924 -0.7667845
vn -0.3123279 0.5589924 -0.7681008
vn -0.08061266 0.5141443 -0.853907
vn -0.08061266 0.5141443 -0.853907
vn -0.3123279 0.5589924 -0.7681008
vn -0.5814164 0.566467 -0.584012
vn -0.3123279 0.5589924 -0.7681008
vn -0.3123279 0.5589924 -0.7681008
vn -0.5814164 0.566467 -0.584012
vn -0.7907076 0.521619 -0.3204608
vn -0.5814164 0.566467 -0.584012
vn -0.5814164 0.566467 -0.584012
vn -0.7907076 0.521619 -0.3204608
vn -0.8953531 0.4393975 -0.07261357
vn -0.7907076 0.521619 -0.3204608
vn -0.7907076 0.521619 -0.3204608
vn -0.8953531 0.4393975 -0.07261357
vn -0.9028277 0.4169734 0.105049
vn -0.8953531 0.4393975 -0.07261357
vn -0.8953531 0.4393975 -0.07261357
vn -0.9028277 0.4169734 0.105049
vn -0.8355557 0.4244481 0.3488417
vn -0.9028277 0.4169734 0.105049
vn -0.9028277 0.4169734 0.105049
vn -0.8355557 0.4244481 0.3488417
vn -0.6486886 0.402024 0.6462042
vn -0.8355557 0.4244481 0.3488417
vn -0.8355557 0.4244481 0.3488417
vn -0.6486886 0.402024 0.6462042
vn -0.3571759 0.3198025 0.8775828
vn -0.6486886 0.402024 0.6462042
vn -0.6486886 0.402024 0.6462042
vn -0.3571759 0.3198025 0.8775828
vn -0.0955621 0.2226317 0.9702077
vn -0.3571759 0.3198025 0.8775828
vn -0.3571759 0.3198025 0.8775828
vn -0.0955621 0.2226317 0.9702077
vn 0.3603936 0.3198025 0.8762664
vn 0.3603936 0.3198025 0.8762664
vn 0.09130502 0.2226317 0.9706176
vn 0.09130502 0.2226317 0.9706176
vn 0.6444315 0.402024 0.6504496
vn 0.6444315 0.402024 0.6504496
vn 0.3603936 0.3198025 0.8762664
vn 0.3603936 0.3198025 0.8762664
vn 0.8312986 0.4244481 0.3588683
vn 0.8312986 0.4244481 0.3588683
vn 0.6444315 0.402024 0.6504496
vn 0.6444315 0.402024 0.6504496
vn 0.9060454 0.4169734 0.07221426
vn 0.9060454 0.4169734 0.07221426
vn 0.8312986 0.4244481 0.3588683
vn 0.8312986 0.4244481 0.3588683
vn 0.8910961 0.4393975 -0.1134799
vn 0.8910961 0.4393975 -0.1134799
vn 0.9060454 0.4169734 0.07221426
vn 0.9060454 0.4169734 0.07221426
vn 0.7939252 0.521619 -0.3124044
vn 0.7939252 0.521619 -0.3124044
vn 0.8910961 0.4393975 -0.1134799
vn 0.8910961 0.4393975 -0.1134799
g Tastiera.048_0
f 3/3/3 2/2/2 1/1/1
f 6/6/6 5/5/5 4/4/4
f 9/9/9 8/8/8 7/7/7
f 12/12/12 11/11/11 10/10/10
f 15/15/15 14/14/14 13/13/13
f 18/18/18 17/17/17 16/16/16
f 21/21/21 20/20/20 19/19/19
f 20/20/20 22/22/22 19/19/19
f 22/22/22 20/20/20 23/23/23
f 20/20/20 24/24/24 23/23/23
f 23/23/23 24/24/24 25/25/25
f 24/24/24 26/26/26 25/25/25
f 25/25/25 26/26/26 27/27/27
f 26/26/26 28/28/28 27/27/27
f 27/27/27 28/28/28 29/29/29
f 30/30/30 27/27/27 29/29/29
f 31/31/31 30/30/30 29/29/29
f 32/32/32 31/31/31 29/29/29
f 33/33/33 31/31/31 32/32/32
f 34/34/34 33/33/33 32/32/32
f 33/33/33 34/34/34 35/35/35
f 34/34/34 36/36/36 35/35/35
f 35/35/35 36/36/36 37/37/37
f 38/38/38 35/35/35 37/37/37
f 38/38/38 37/37/37 39/39/39
f 40/40/40 38/38/38 39/39/39
f 40/40/40 39/39/39 41/41/41
f 42/42/42 40/40/40 41/41/41
f 41/41/41 43/43/43 42/42/42
f 43/43/43 44/44/44 42/42/42
f 47/47/47 46/46/46 45/45/45
f 48/48/48 47/47/47 45/45/45
f 51/51/51 50/50/50 49/49/49
f 52/52/52 51/51/51 49/49/49
f 55/55/55 54/54/54 53/53/53
f 56/56/56 55/55/55 53/53/53
f 59/59/59 58/58/58 57/57/57
f 60/60/60 59/59/59 57/57/57
f 63/63/63 62/62/62 61/61/61
f 64/64/64 63/63/63 61/61/61
f 67/67/67 66/66/66 65/65/65
f 68/68/68 67/67/67 65/65/65
f 71/71/71 70/70/70 69/69/69
f 72/72/72 71/71/71 69/69/69
f 75/75/75 74/74/74 73/73/73
f 76/76/76 75/75/75 73/73/73
f 79/79/79 78/78/78 77/77/77
f 80/80/80 79/79/79 77/77/77
f 83/83/83 82/82/82 81/81/81
f 84/84/84 83/83/83 81/81/81
f 87/87/87 86/86/86 85/85/85
f 88/88/88 87/87/87 85/85/85
f 91/91/91 90/90/90 89/89/89
f 92/92/92 91/91/91 89/89/89
f 95/95/95 94/94/94 93/93/93
f 96/96/96 95/95/95 93/93/93
f 99/99/99 98/98/98 97/97/97
f 100/100/100 99/99/99 97/97/97
f 103/103/103 102/102/102 101/101/101
f 104/104/104 103/103/103 101/101/101
f 107/107/107 106/106/106 105/105/105
f 108/108/108 107/107/107 105/105/105
f 111/111/111 110/110/110 109/109/109
f 112/112/112 111/111/111 109/109/109
f 115/115/115 114/114/114 113/113/113
f 116/116/116 115/115/115 113/113/113
f 119/119/119 118/118/118 117/117/117
f 120/120/120 119/119/119 117/117/117
f 123/123/123 122/122/122 121/121/121
f 124/124/124 123/123/123 121/121/121
f 127/127/127 126/126/126 125/125/125
f 128/128/128 127/127/127 125/125/125
f 131/131/131 130/130/130 129/129/129
f 132/132/132 131/131/131 129/129/129
