g Tastiera.046
v 0.9640912 0.1684757 0.5428801
v 0.8143295 0.1684757 0.5428801
v 0.8892104 0.2650931 0.5241721
v 0.8892104 0.2650931 0.5241721
v 0.8143295 0.1684757 0.5428801
v 0.8377267 0.266876 0.5241721
v 0.8377267 0.266876 0.262089
v 0.8143295 0.1684757 0.2059162
v 0.8892104 0.2650931 0.262089
v 0.8892104 0.2650931 0.262089
v 0.8143295 0.1684757 0.2059162
v 0.9640912 0.1684757 0.2059162
v 0.9406696 0.266876 0.5241721
v 0.9640912 0.1684757 0.5428801
v 0.8892104 0.2650931 0.5241721
v 0.8892104 0.2650931 0.262089
v 0.9640912 0.1684757 0.2059162
v 0.9406696 0.266876 0.262089
v 0.7675107 0.2749844 0.280797
v 0.7689517 0.2747401 0.5125955
v 0.7675107 0.2749844 0.5054396
v 0.7689517 0.2747401 0.2736411
v 0.7730058 0.2741052 0.2675598
v 0.7730058 0.2741052 0.5186769
v 0.7790872 0.2732015 0.2635056
v 0.7790872 0.2732015 0.5227311
v 0.7862431 0.2721757 0.262089
v 0.7862431 0.2721757 0.5241721
v 0.8377267 0.266876 0.5241721
v 0.8377267 0.266876 0.262089
v 0.8892104 0.2650931 0.262089
v 0.8892104 0.2650931 0.5241721
v 0.9406696 0.266876 0.262089
v 0.9406696 0.266876 0.5241721
v 0.9921533 0.2721757 0.262089
v 0.9921533 0.2721757 0.5241721
v 0.9993336 0.2732015 0.5227311
v 0.9993336 0.2732015 0.2635056
v 1.005391 0.2741052 0.5186769
v 1.005391 0.2741052 0.2675598
v 1.009445 0.2747401 0.5125955
v 1.009445 0.2747401 0.2736411
v 1.010886 0.2749844 0.5054396
v 1.010886 0.2749844 0.280797
v 0.8377267 0.266876 0.5241721
v 0.8143295 0.1684757 0.5428801
v 0.7394487 0.1684757 0.5428801
v 0.7862431 0.2721757 0.5241721
v 1.038972 0.1684757 0.5428801
v 0.9640912 0.1684757 0.5428801
v 0.9406696 0.266876 0.5241721
v 0.9921533 0.2721757 0.5241721
v 0.7394487 0.1684757 0.2059162
v 0.8143295 0.1684757 0.2059162
v 0.8377267 0.266876 0.262089
v 0.7862431 0.2721757 0.262089
v 0.9406696 0.266876 0.262089
v 0.9640912 0.1684757 0.2059162
v 1.038972 0.1684757 0.2059162
v 0.9921533 0.2721757 0.262089
v 1.005391 0.2741052 0.2675598
v 1.052185 0.1684757 0.2114114
v 1.056264 0.1684757 0.2174683
v 1.009445 0.2747401 0.2736411
v 0.9993336 0.2732015 0.2635056
v 1.046128 0.1684757 0.2073327
v 1.052185 0.1684757 0.2114114
v 1.005391 0.2741052 0.2675598
v 0.9921533 0.2721757 0.262089
v 1.038972 0.1684757 0.2059162
v 1.046128 0.1684757 0.2073327
v 0.9993336 0.2732015 0.2635056
v 0.7322683 0.1684757 0.2073327
v 0.7394487 0.1684757 0.2059162
v 0.7862431 0.2721757 0.262089
v 0.7790872 0.2732015 0.2635056
v 0.7262114 0.1684757 0.2114114
v 0.7322683 0.1684757 0.2073327
v 0.7790872 0.2732015 0.2635056
v 0.7730058 0.2741052 0.2675598
v 0.7221328 0.1684757 0.2174683
v 0.7262114 0.1684757 0.2114114
v 0.7730058 0.2741052 0.2675598
v 0.7689517 0.2747401 0.2736411
v 0.7207162 0.1684757 0.2246486
v 0.7221328 0.1684757 0.2174683
v 0.7689517 0.2747401 0.2736411
v 0.7675107 0.2749844 0.280797
v 0.7207162 0.1684757 0.5241721
v 0.7207162 0.1684757 0.2246486
v 0.7675107 0.2749844 0.280797
v 0.7675107 0.2749844 0.5054396
v 0.7221328 0.1684757 0.531328
v 0.7207162 0.1684757 0.5241721
v 0.7675107 0.2749844 0.5054396
v 0.7689517 0.2747401 0.5125955
v 0.7262114 0.1684757 0.5373849
v 0.7221328 0.1684757 0.531328
v 0.7689517 0.2747401 0.5125955
v 0.7730058 0.2741052 0.5186769
v 0.7322683 0.1684757 0.5414635
v 0.7262114 0.1684757 0.5373849
v 0.7730058 0.2741052 0.5186769
v 0.7790872 0.2732015 0.5227311
v 0.7394487 0.1684757 0.5428801
v 0.7322683 0.1684757 0.5414635
v 0.7790872 0.2732015 0.5227311
v 0.7862431 0.2721757 0.5241721
v 0.9993336 0.2732015 0.5227311
v 1.046128 0.1684757 0.5414635
v 1.038972 0.1684757 0.5428801
v 0.9921533 0.2721757 0.5241721
v 1.005391 0.2741052 0.5186769
v 1.052185 0.1684757 0.5373849
v 1.046128 0.1684757 0.5414635
v 0.9993336 0.2732015 0.5227311
v 1.009445 0.2747401 0.5125955
v 1.056264 0.1684757 0.531328
v 1.052185 0.1684757 0.5373849
v 1.005391 0.2741052 0.5186769
v 1.010886 0.2749844 0.5054396
v 1.05768 0.1684757 0.5241721
v 1.056264 0.1684757 0.531328
v 1.009445 0.2747401 0.5125955
v 1.010886 0.2749844 0.280797
v 1.05768 0.1684757 0.2246486
v 1.05768 0.1684757 0.5241721
v 1.010886 0.2749844 0.5054396
v 1.009445 0.2747401 0.2736411
v 1.056264 0.1684757 0.2174683
v 1.05768 0.1684757 0.2246486
v 1.010886 0.2749844 0.280797
vt 0.8808613 0.5192053
vt 0.9534921 0.6652155
vt 0.9534921 0.5192053
vt 0.8808613 0.5192053
vt 0.9534921 0.6652155
vt 0.9534921 0.5192053
vt 0.8808613 0.5192053
vt 0.9534921 0.6652155
vt 0.9534921 0.5192053
vt 0.8808613 0.5192053
vt 0.9534921 0.6652155
vt 0.9534921 0.5192053
vt 0.8808613 0.5192053
vt 0.9534921 0.6652155
vt 0.9534921 0.5192053
vt 0.8808613 0.5192053
vt 0.9534921 0.6652155
vt 0.9534921 0.5192053
vt 0.2496479 0.6337671
vt 0.2496479 0.7445852
vt 0.2496479 0.7408413
vt 0.2496479 0.6307721
vt 0.2488992 0.627777
vt 0.2488992 0.7475802
vt 0.2474016 0.6255307
vt 0.2474016 0.7490778
vt 0.2451553 0.6247818
vt 0.2451553 0.7498266
vt 0.2316774 0.7498266
vt 0.2316774 0.6247818
vt 0.2189484 0.6247818
vt 0.2189484 0.7498266
vt 0.2054705 0.6247818
vt 0.2054705 0.7498266
vt 0.1919926 0.6247818
vt 0.1919926 0.7498266
vt 0.1904951 0.7490778
vt 0.1904951 0.6255307
vt 0.1889975 0.7475802
vt 0.1889975 0.627777
vt 0.1875 0.7445852
vt 0.1875 0.6307721
vt 0.1875 0.7408413
vt 0.1875 0.6337671
vt 0.8808613 0.5192053
vt 0.8808613 0.6652155
vt 0.9534921 0.6652155
vt 0.9534921 0.5192053
vt 0.8808613 0.5192053
vt 0.8808613 0.6652155
vt 0.9534921 0.6652155
vt 0.9534921 0.5192053
vt 0.8808613 0.5192053
vt 0.8808613 0.6652155
vt 0.9534921 0.6652155
vt 0.9534921 0.5192053
vt 0.8808613 0.5192053
vt 0.8808613 0.6652155
vt 0.9534921 0.6652155
vt 0.9534921 0.5192053
vt 0.8808613 0.5192053
vt 0.8808613 0.6652155
vt 0.9534921 0.6652155
vt 0.9534921 0.5192053
vt 0.8808613 0.5192053
vt 0.8808613 0.6652155
vt 0.9534921 0.6652155
vt 0.9534921 0.5192053
vt 0.8808613 0.5192053
vt 0.8808613 0.6652155
vt 0.9534921 0.6652155
vt 0.9534921 0.5192053
vt 0.8808613 0.5192053
vt 0.8808613 0.6652155
vt 0.9534921 0.6652155
vt 0.9534921 0.5192053
vt 0.8808613 0.5192053
vt 0.8808613 0.6652155
vt 0.9534921 0.6652155
vt 0.9534921 0.5192053
vt 0.8808613 0.5192053
vt 0.8808613 0.6652155
vt 0.9534921 0.6652155
vt 0.9534921 0.5192053
vt 0.8808613 0.5192053
vt 0.8808613 0.6652155
vt 0.9534921 0.6652155
vt 0.9534921 0.5192053
vt 0.8808613 0.5192053
vt 0.8808613 0.6652155
vt 0.9534921 0.6652155
vt 0.9534921 0.5192053
vt 0.8808613 0.5192053
vt 0.8808613 0.6652155
vt 0.9534921 0.6652155
vt 0.9534921 0.5192053
vt 0.8808613 0.5192053
vt 0.8808613 0.6652155
vt 0.9534921 0.6652155
vt 0.9534921 0.5192053
vt 0.8808613 0.5192053
vt 0.8808613 0.6652155
vt 0.9534921 0.6652155
vt 0.9534921 0.5192053
vt 0.8808613 0.5192053
vt 0.8808613 0.6652155
vt 0.9534921 0.6652155
vt 0.9534921 0.5192053
vt 0.8808613 0.5192053
vt 0.8808613 0.6652155
vt 0.9534921 0.6652155
vt 0.9534921 0.5192053
vt 0.8808613 0.5192053
vt 0.8808613 0.6652155
vt 0.9534921 0.6652155
vt 0.9534921 0.5192053
vt 0.8808613 0.5192053
vt 0.8808613 0.6652155
vt 0.9534921 0.6652155
vt 0.9534921 0.5192053
vt 0.8808613 0.5192053
vt 0.8808613 0.6652155
vt 0.9534921 0.6652155
vt 0.9534921 0.5192053
vt 0.8808613 0.5192053
vt 0.8808613 0.6652155
vt 0.9534921 0.6652155
vt 0.9534921 0.5192053
vt 0.8808613 0.5192053
vt 0.8808613 0.6652155
vt 0.9534921 0.6652155
vt 0.9534921 0.5192053
vn 0.00160718 0.1852596 0.9826883
vn 0.00160718 0.1852596 0.9826883
vn 0.00160718 0.1852596 0.9826883
vn 0.00160718 0.1852596 0.9826883
vn 0.00160718 0.1852596 0.9826883
vn 0.00160718 0.1852596 0.9826883
vn 0.009081841 0.491721 -0.8707054
vn 0.009081841 0.4991957 -0.8664417
vn 0.00160718 0.4991957 -0.8664878
vn 0.00160718 0.4991957 -0.8664878
vn 0.009081841 0.4991957 -0.8664417
vn -0.005867541 0.4991957 -0.8664694
vn -0.005867541 0.1852596 0.9826721
vn 0.00160718 0.1852596 0.9826883
vn 0.00160718 0.1852596 0.9826883
vn 0.00160718 0.4991957 -0.8664878
vn -0.005867541 0.4991957 -0.8664694
vn -0.005867541 0.491721 -0.870733
vn 0.1585752 0.9850492 -0.0673191
vn 0.1585752 0.9850492 -0.0673191
vn 0.1585752 0.9850492 -0.0673191
vn 0.1585752 0.9850492 -0.0673191
vn 0.1511006 0.9850492 -0.08274423
vn 0.1511006 0.9850492 -0.08274423
vn 0.143216 0.9896914 0
vn 0.143216 0.9896914 0
vn 0.1212019 0.9925239 -0.01436493
vn 0.1212019 0.9925239 -0.01436493
vn 0.06871647 0.9976363 0
vn 0.06871647 0.9976363 0
vn 0.00160718 0.9999986 -0.000545915
vn 0.00160718 0.9999986 -0.000545915
vn -0.06552387 0.997851 0
vn -0.06552387 0.997851 0
vn -0.1179875 0.9925239 -0.03122806
vn -0.1179875 0.9925239 -0.03122806
vn -0.1473733 0.9890809 0
vn -0.1473733 0.9890809 0
vn -0.1553609 0.9850492 -0.07443767
vn -0.1553609 0.9850492 -0.07443767
vn -0.1553609 0.9850492 -0.07443767
vn -0.1553609 0.9850492 -0.07443767
vn -0.1628356 0.9850492 -0.05623667
vn -0.1628356 0.9850492 -0.05623667
vn 0.00160718 0.1852596 0.9826883
vn 0.00160718 0.1852596 0.9826883
vn -0.09556353 0.2226329 0.9702073
vn -0.09556353 0.2226329 0.9702073
vn 0.09130317 0.2226329 0.9706175
vn 0.00160718 0.1852596 0.9826883
vn -0.005867541 0.1852596 0.9826721
vn 0.09130317 0.2226329 0.9706175
vn -0.08061421 0.514145 -0.8539065
vn 0.009081841 0.4991957 -0.8664417
vn 0.009081841 0.491721 -0.8707054
vn -0.08061421 0.514145 -0.8539065
vn -0.005867541 0.491721 -0.870733
vn -0.005867541 0.4991957 -0.8664694
vn 0.08382851 0.514145 -0.8535969
vn 0.08382851 0.514145 -0.8535969
vn 0.5846314 0.5664678 -0.5807929
vn 0.5846314 0.5664678 -0.5807929
vn 0.7939222 0.5216198 -0.3124105
vn 0.7939222 0.5216198 -0.3124105
vn 0.3155433 0.5589931 -0.7667849
vn 0.3155433 0.5589931 -0.7667849
vn 0.5846314 0.5664678 -0.5807929
vn 0.5846314 0.5664678 -0.5807929
vn 0.08382851 0.514145 -0.8535969
vn 0.08382851 0.514145 -0.8535969
vn 0.3155433 0.5589931 -0.7667849
vn 0.3155433 0.5589931 -0.7667849
vn -0.3123289 0.5589931 -0.7680998
vn -0.08061421 0.514145 -0.8539065
vn -0.08061421 0.514145 -0.8539065
vn -0.3123289 0.5589931 -0.7680998
vn -0.5814171 0.5664678 -0.5840107
vn -0.3123289 0.5589931 -0.7680998
vn -0.3123289 0.5589931 -0.7680998
vn -0.5814171 0.5664678 -0.5840107
vn -0.7907078 0.5216198 -0.3204589
vn -0.5814171 0.5664678 -0.5840107
vn -0.5814171 0.5664678 -0.5840107
vn -0.7907078 0.5216198 -0.3204589
vn -0.8953532 0.4393984 -0.07260618
vn -0.7907078 0.5216198 -0.3204589
vn -0.7907078 0.5216198 -0.3204589
vn -0.8953532 0.4393984 -0.07260618
vn -0.9028279 0.4169743 0.1050441
vn -0.8953532 0.4393984 -0.07260618
vn -0.8953532 0.4393984 -0.07260618
vn -0.9028279 0.4169743 0.1050441
vn -0.8355559 0.4244491 0.3488399
vn -0.9028279 0.4169743 0.1050441
vn -0.9028279 0.4169743 0.1050441
vn -0.8355559 0.4244491 0.3488399
vn -0.6486892 0.402025 0.646203
vn -0.8355559 0.4244491 0.3488399
vn -0.8355559 0.4244491 0.3488399
vn -0.6486892 0.402025 0.646203
vn -0.357177 0.3198036 0.8775821
vn -0.6486892 0.402025 0.646203
vn -0.6486892 0.402025 0.646203
vn -0.357177 0.3198036 0.8775821
vn -0.09556353 0.2226329 0.9702073
vn -0.357177 0.3198036 0.8775821
vn -0.357177 0.3198036 0.8775821
vn -0.09556353 0.2226329 0.9702073
vn 0.3603913 0.3198036 0.8762669
vn 0.3603913 0.3198036 0.8762669
vn 0.09130317 0.2226329 0.9706175
vn 0.09130317 0.2226329 0.9706175
vn 0.6444287 0.402025 0.6504518
vn 0.6444287 0.402025 0.6504518
vn 0.3603913 0.3198036 0.8762669
vn 0.3603913 0.3198036 0.8762669
vn 0.8312955 0.4244491 0.3588743
vn 0.8312955 0.4244491 0.3588743
vn 0.6444287 0.402025 0.6504518
vn 0.6444287 0.402025 0.6504518
vn 0.9060422 0.4169743 0.07224923
vn 0.9060422 0.4169743 0.07224923
vn 0.8312955 0.4244491 0.3588743
vn 0.8312955 0.4244491 0.3588743
vn 0.8910929 0.4393984 -0.1135012
vn 0.8910929 0.4393984 -0.1135012
vn 0.9060422 0.4169743 0.07224923
vn 0.9060422 0.4169743 0.07224923
vn 0.7939222 0.5216198 -0.3124105
vn 0.7939222 0.5216198 -0.3124105
vn 0.8910929 0.4393984 -0.1135012
vn 0.8910929 0.4393984 -0.1135012
g Tastiera.046_0
f 3/3/3 2/2/2 1/1/1
f 6/6/6 5/5/5 4/4/4
f 9/9/9 8/8/8 7/7/7
f 12/12/12 11/11/11 10/10/10
f 15/15/15 14/14/14 13/13/13
f 18/18/18 17/17/17 16/16/16
f 21/21/21 20/20/20 19/19/19
f 20/20/20 22/22/22 19/19/19
f 22/22/22 20/20/20 23/23/23
f 20/20/20 24/24/24 23/23/23
f 23/23/23 24/24/24 25/25/25
f 24/24/24 26/26/26 25/25/25
f 25/25/25 26/26/26 27/27/27
f 26/26/26 28/28/28 27/27/27
f 27/27/27 28/28/28 29/29/29
f 30/30/30 27/27/27 29/29/29
f 31/31/31 30/30/30 29/29/29
f 32/32/32 31/31/31 29/29/29
f 33/33/33 31/31/31 32/32/32
f 34/34/34 33/33/33 32/32/32
f 33/33/33 34/34/34 35/35/35
f 34/34/34 36/36/36 35/35/35
f 35/35/35 36/36/36 37/37/37
f 38/38/38 35/35/35 37/37/37
f 38/38/38 37/37/37 39/39/39
f 40/40/40 38/38/38 39/39/39
f 40/40/40 39/39/39 41/41/41
f 42/42/42 40/40/40 41/41/41
f 41/41/41 43/43/43 42/42/42
f 43/43/43 44/44/44 42/42/42
f 47/47/47 46/46/46 45/45/45
f 48/48/48 47/47/47 45/45/45
f 51/51/51 50/50/50 49/49/49
f 52/52/52 51/51/51 49/49/49
f 55/55/55 54/54/54 53/53/53
f 56/56/56 55/55/55 53/53/53
f 59/59/59 58/58/58 57/57/57
f 60/60/60 59/59/59 57/57/57
f 63/63/63 62/62/62 61/61/61
f 64/64/64 63/63/63 61/61/61
f 67/67/67 66/66/66 65/65/65
f 68/68/68 67/67/67 65/65/65
f 71/71/71 70/70/70 69/69/69
f 72/72/72 71/71/71 69/69/69
f 75/75/75 74/74/74 73/73/73
f 76/76/76 75/75/75 73/73/73
f 79/79/79 78/78/78 77/77/77
f 80/80/80 79/79/79 77/77/77
f 83/83/83 82/82/82 81/81/81
f 84/84/84 83/83/83 81/81/81
f 87/87/87 86/86/86 85/85/85
f 88/88/88 87/87/87 85/85/85
f 91/91/91 90/90/90 89/89/89
f 92/92/92 91/91/91 89/89/89
f 95/95/95 94/94/94 93/93/93
f 96/96/96 95/95/95 93/93/93
f 99/99/99 98/98/98 97/97/97
f 100/100/100 99/99/99 97/97/97
f 103/103/103 102/102/102 101/101/101
f 104/104/104 103/103/103 101/101/101
f 107/107/107 106/106/106 105/105/105
f 108/108/108 107/107/107 105/105/105
f 111/111/111 110/110/110 109/109/109
f 112/112/112 111/111/111 109/109/109
f 115/115/115 114/114/114 113/113/113
f 116/116/116 115/115/115 113/113/113
f 119/119/119 118/118/118 117/117/117
f 120/120/120 119/119/119 117/117/117
f 123/123/123 122/122/122 121/121/121
f 124/124/124 123/123/123 121/121/121
f 127/127/127 126/126/126 125/125/125
f 128/128/128 127/127/127 125/125/125
f 131/131/131 130/130/130 129/129/129
f 132/132/132 131/131/131 129/129/129
