g Tastiera.047
v -0.4586415 0.1684802 0.5428763
v -0.6084031 0.1684802 0.5428763
v -0.5335223 0.2650975 0.5241601
v -0.5335223 0.2650975 0.5241601
v -0.6084031 0.1684802 0.5428763
v -0.5849978 0.2668641 0.5241601
v -0.5849978 0.2668641 0.2620772
v -0.6084031 0.1684802 0.2059207
v -0.5335223 0.2650975 0.2620772
v -0.5335223 0.2650975 0.2620772
v -0.6084031 0.1684802 0.2059207
v -0.4586415 0.1684802 0.2059207
v -0.4820387 0.2668641 0.5241601
v -0.4586415 0.1684802 0.5428763
v -0.5335223 0.2650975 0.5241601
v -0.5335223 0.2650975 0.2620772
v -0.4586415 0.1684802 0.2059207
v -0.4820387 0.2668641 0.2620772
v -0.6551976 0.2749807 0.2808015
v -0.6537729 0.2747527 0.5126081
v -0.6551976 0.2749807 0.505444
v -0.6537729 0.2747527 0.2736374
v -0.6497186 0.2741096 0.2675642
v -0.6497186 0.2741096 0.5186731
v -0.6436455 0.2731897 0.2635019
v -0.6436455 0.2731897 0.5227355
v -0.6364814 0.272172 0.2620772
v -0.6364814 0.272172 0.5241601
v -0.5849978 0.2668641 0.5241601
v -0.5849978 0.2668641 0.2620772
v -0.5335223 0.2650975 0.2620772
v -0.5335223 0.2650975 0.5241601
v -0.4820387 0.2668641 0.2620772
v -0.4820387 0.2668641 0.5241601
v -0.4305632 0.272172 0.2620772
v -0.4305632 0.272172 0.5241601
v -0.4233991 0.2731897 0.5227355
v -0.4233991 0.2731897 0.2635019
v -0.4173259 0.2741096 0.5186731
v -0.4173259 0.2741096 0.2675642
v -0.4132636 0.2747527 0.5126081
v -0.4132636 0.2747527 0.2736374
v -0.4118389 0.2749807 0.505444
v -0.4118389 0.2749807 0.2808015
v -0.5849978 0.2668641 0.5241601
v -0.6084031 0.1684802 0.5428763
v -0.6832839 0.1684802 0.5428763
v -0.6364814 0.272172 0.5241601
v -0.3837606 0.1684802 0.5428763
v -0.4586415 0.1684802 0.5428763
v -0.4820387 0.2668641 0.5241601
v -0.4305632 0.272172 0.5241601
v -0.6832839 0.1684802 0.2059207
v -0.6084031 0.1684802 0.2059207
v -0.5849978 0.2668641 0.2620772
v -0.6364814 0.272172 0.2620772
v -0.4820387 0.2668641 0.2620772
v -0.4586415 0.1684802 0.2059207
v -0.3837606 0.1684802 0.2059207
v -0.4305632 0.272172 0.2620772
v -0.4173259 0.2741096 0.2675642
v -0.3705233 0.1684802 0.2113995
v -0.366461 0.1684802 0.2174727
v -0.4132636 0.2747527 0.2736374
v -0.4233991 0.2731897 0.2635019
v -0.3765965 0.1684802 0.2073453
v -0.3705233 0.1684802 0.2113995
v -0.4173259 0.2741096 0.2675642
v -0.4305632 0.272172 0.2620772
v -0.3837606 0.1684802 0.2059207
v -0.3765965 0.1684802 0.2073453
v -0.4233991 0.2731897 0.2635019
v -0.690448 0.1684802 0.2073453
v -0.6832839 0.1684802 0.2059207
v -0.6364814 0.272172 0.2620772
v -0.6436455 0.2731897 0.2635019
v -0.6965131 0.1684802 0.2113995
v -0.690448 0.1684802 0.2073453
v -0.6436455 0.2731897 0.2635019
v -0.6497186 0.2741096 0.2675642
v -0.7005754 0.1684802 0.2174727
v -0.6965131 0.1684802 0.2113995
v -0.6497186 0.2741096 0.2675642
v -0.6537729 0.2747527 0.2736374
v -0.7020001 0.1684802 0.2246368
v -0.7005754 0.1684802 0.2174727
v -0.6537729 0.2747527 0.2736374
v -0.6551976 0.2749807 0.2808015
v -0.7020001 0.1684802 0.5241601
v -0.7020001 0.1684802 0.2246368
v -0.6551976 0.2749807 0.2808015
v -0.6551976 0.2749807 0.505444
v -0.7005754 0.1684802 0.5313242
v -0.7020001 0.1684802 0.5241601
v -0.6551976 0.2749807 0.505444
v -0.6537729 0.2747527 0.5126081
v -0.6965131 0.1684802 0.5373974
v -0.7005754 0.1684802 0.5313242
v -0.6537729 0.2747527 0.5126081
v -0.6497186 0.2741096 0.5186731
v -0.690448 0.1684802 0.5414516
v -0.6965131 0.1684802 0.5373974
v -0.6497186 0.2741096 0.5186731
v -0.6436455 0.2731897 0.5227355
v -0.6832839 0.1684802 0.5428763
v -0.690448 0.1684802 0.5414516
v -0.6436455 0.2731897 0.5227355
v -0.6364814 0.272172 0.5241601
v -0.4233991 0.2731897 0.5227355
v -0.3765965 0.1684802 0.5414516
v -0.3837606 0.1684802 0.5428763
v -0.4305632 0.272172 0.5241601
v -0.4173259 0.2741096 0.5186731
v -0.3705233 0.1684802 0.5373974
v -0.3765965 0.1684802 0.5414516
v -0.4233991 0.2731897 0.5227355
v -0.4132636 0.2747527 0.5126081
v -0.366461 0.1684802 0.5313242
v -0.3705233 0.1684802 0.5373974
v -0.4173259 0.2741096 0.5186731
v -0.4118389 0.2749807 0.505444
v -0.3650363 0.1684802 0.5241601
v -0.366461 0.1684802 0.5313242
v -0.4132636 0.2747527 0.5126081
v -0.4118389 0.2749807 0.2808015
v -0.3650363 0.1684802 0.2246368
v -0.3650363 0.1684802 0.5241601
v -0.4118389 0.2749807 0.505444
v -0.4132636 0.2747527 0.2736374
v -0.366461 0.1684802 0.2174727
v -0.3650363 0.1684802 0.2246368
v -0.4118389 0.2749807 0.2808015
vt 0.8803554 0.5192114
vt 0.953492 0.6649804
vt 0.953492 0.5192114
vt 0.8803554 0.5192114
vt 0.953492 0.6649804
vt 0.953492 0.5192114
vt 0.8803554 0.5192114
vt 0.953492 0.6649804
vt 0.953492 0.5192114
vt 0.8803554 0.5192114
vt 0.953492 0.6649804
vt 0.953492 0.5192114
vt 0.8803554 0.5192114
vt 0.953492 0.6649804
vt 0.953492 0.5192114
vt 0.8803554 0.5192114
vt 0.953492 0.6649804
vt 0.953492 0.5192114
vt 0.5000445 0.6337081
vt 0.4995401 0.7446741
vt 0.5000445 0.7411434
vt 0.4995401 0.6306818
vt 0.4985313 0.6276554
vt 0.4985313 0.7471961
vt 0.4970182 0.6256379
vt 0.4970182 0.7492137
vt 0.4950006 0.6251335
vt 0.4950006 0.7502224
vt 0.4818864 0.7502224
vt 0.4818864 0.6251335
vt 0.4687722 0.6251335
vt 0.4687722 0.7502224
vt 0.4556581 0.6251335
vt 0.4556581 0.7502224
vt 0.4425439 0.6251335
vt 0.4425439 0.7502224
vt 0.4405263 0.7492137
vt 0.4405263 0.6256379
vt 0.4390132 0.7471961
vt 0.4390132 0.6276554
vt 0.4380044 0.7446741
vt 0.4380044 0.6306818
vt 0.4375 0.7411434
vt 0.4375 0.6337081
vt 0.8803554 0.5192114
vt 0.8803554 0.6649804
vt 0.953492 0.6649804
vt 0.953492 0.5192114
vt 0.8803554 0.5192114
vt 0.8803554 0.6649804
vt 0.953492 0.6649804
vt 0.953492 0.5192114
vt 0.8803554 0.5192114
vt 0.8803554 0.6649804
vt 0.953492 0.6649804
vt 0.953492 0.5192114
vt 0.8803554 0.5192114
vt 0.8803554 0.6649804
vt 0.953492 0.6649804
vt 0.953492 0.5192114
vt 0.8803554 0.5192114
vt 0.8803554 0.6649804
vt 0.953492 0.6649804
vt 0.953492 0.5192114
vt 0.8803554 0.5192114
vt 0.8803554 0.6649804
vt 0.953492 0.6649804
vt 0.953492 0.5192114
vt 0.8803554 0.5192114
vt 0.8803554 0.6649804
vt 0.953492 0.6649804
vt 0.953492 0.5192114
vt 0.8803554 0.5192114
vt 0.8803554 0.6649804
vt 0.953492 0.6649804
vt 0.953492 0.5192114
vt 0.8803554 0.5192114
vt 0.8803554 0.6649804
vt 0.953492 0.6649804
vt 0.953492 0.5192114
vt 0.8803554 0.5192114
vt 0.8803554 0.6649804
vt 0.953492 0.6649804
vt 0.953492 0.5192114
vt 0.8803554 0.5192114
vt 0.8803554 0.6649804
vt 0.953492 0.6649804
vt 0.953492 0.5192114
vt 0.8803554 0.5192114
vt 0.8803554 0.6649804
vt 0.953492 0.6649804
vt 0.953492 0.5192114
vt 0.8803554 0.5192114
vt 0.8803554 0.6649804
vt 0.953492 0.6649804
vt 0.953492 0.5192114
vt 0.8803554 0.5192114
vt 0.8803554 0.6649804
vt 0.953492 0.6649804
vt 0.953492 0.5192114
vt 0.8803554 0.5192114
vt 0.8803554 0.6649804
vt 0.953492 0.6649804
vt 0.953492 0.5192114
vt 0.8803554 0.5192114
vt 0.8803554 0.6649804
vt 0.953492 0.6649804
vt 0.953492 0.5192114
vt 0.8803554 0.5192114
vt 0.8803554 0.6649804
vt 0.953492 0.6649804
vt 0.953492 0.5192114
vt 0.8803554 0.5192114
vt 0.8803554 0.6649804
vt 0.953492 0.6649804
vt 0.953492 0.5192114
vt 0.8803554 0.5192114
vt 0.8803554 0.6649804
vt 0.953492 0.6649804
vt 0.953492 0.5192114
vt 0.8803554 0.5192114
vt 0.8803554 0.6649804
vt 0.953492 0.6649804
vt 0.953492 0.5192114
vt 0.8803554 0.5192114
vt 0.8803554 0.6649804
vt 0.953492 0.6649804
vt 0.953492 0.5192114
vt 0.8803554 0.5192114
vt 0.8803554 0.6649804
vt 0.953492 0.6649804
vt 0.953492 0.5192114
vn -0.005863667 0.1852565 0.9826727
vn 0.001611054 0.1852565 0.9826889
vn 0.001611054 0.1852565 0.9826889
vn 0.001611054 0.1852565 0.9826889
vn 0.001611054 0.1852565 0.9826889
vn 0.001611054 0.1852565 0.9826889
vn 0.009085715 0.4917191 -0.8707064
vn 0.009085715 0.4991938 -0.8664427
vn 0.001611054 0.4991938 -0.8664889
vn 0.001611054 0.4991938 -0.8664889
vn 0.009085715 0.4991938 -0.8664427
vn -0.005863667 0.4991938 -0.8664705
vn -0.005863667 0.1852565 0.9826727
vn -0.005863667 0.1852565 0.9826727
vn 0.001611054 0.1852565 0.9826889
vn 0.001611054 0.4991938 -0.8664889
vn -0.005863667 0.4991938 -0.8664705
vn -0.005863667 0.4917191 -0.8707341
vn 0.1585797 0.9850492 -0.06730891
vn 0.1585797 0.9850492 -0.06730891
vn 0.1585797 0.9850492 -0.06730891
vn 0.1585797 0.9850492 -0.06730891
vn 0.151105 0.9850492 -0.08273594
vn 0.151105 0.9850492 -0.08273594
vn 0.1432204 0.9896908 0
vn 0.1432204 0.9896908 0
vn 0.1212062 0.9925239 -0.01432962
vn 0.1212062 0.9925239 -0.01432962
vn 0.06872056 0.997636 0
vn 0.06872056 0.997636 0
vn 0.001611054 0.9999986 -0.0004882813
vn 0.001611054 0.9999986 -0.0004882813
vn -0.06552026 0.9978513 0
vn -0.06552026 0.9978513 0
vn -0.1179842 0.9925239 -0.03124142
vn -0.1179842 0.9925239 -0.03124142
vn -0.14737 0.9890814 0
vn -0.14737 0.9890814 0
vn -0.1553576 0.9850492 -0.07444448
vn -0.1553576 0.9850492 -0.07444448
vn -0.1553576 0.9850492 -0.07444448
vn -0.1553576 0.9850492 -0.07444448
vn -0.1628324 0.9850492 -0.05624568
vn -0.1628324 0.9850492 -0.05624568
vn 0.001611054 0.1852565 0.9826889
vn 0.001611054 0.1852565 0.9826889
vn -0.09556007 0.2226299 0.9702083
vn -0.09556007 0.2226299 0.9702083
vn 0.0913074 0.2226299 0.9706178
vn -0.005863667 0.1852565 0.9826727
vn -0.005863667 0.1852565 0.9826727
vn 0.0913074 0.2226299 0.9706178
vn -0.08061063 0.5141432 -0.8539079
vn 0.009085715 0.4991938 -0.8664427
vn 0.009085715 0.4917191 -0.8707064
vn -0.08061063 0.5141432 -0.8539079
vn -0.005863667 0.4917191 -0.8707341
vn -0.005863667 0.4991938 -0.8664705
vn 0.08383274 0.5141432 -0.8535976
vn 0.08383274 0.5141432 -0.8535976
vn 0.5846375 0.5664661 -0.5807884
vn 0.5846375 0.5664661 -0.5807884
vn 0.7939291 0.5216179 -0.3123962
vn 0.7939291 0.5216179 -0.3123962
vn 0.3155484 0.5589914 -0.766784
vn 0.3155484 0.5589914 -0.766784
vn 0.5846375 0.5664661 -0.5807884
vn 0.5846375 0.5664661 -0.5807884
vn 0.08383274 0.5141432 -0.8535976
vn 0.08383274 0.5141432 -0.8535976
vn 0.3155484 0.5589914 -0.766784
vn 0.3155484 0.5589914 -0.766784
vn -0.3123263 0.5589914 -0.7681021
vn -0.08061063 0.5141432 -0.8539079
vn -0.08061063 0.5141432 -0.8539079
vn -0.3123263 0.5589914 -0.7681021
vn -0.5814155 0.5664661 -0.5840138
vn -0.3123263 0.5589914 -0.7681021
vn -0.3123263 0.5589914 -0.7681021
vn -0.5814155 0.5664661 -0.5840138
vn -0.790707 0.5216179 -0.3204641
vn -0.5814155 0.5664661 -0.5840138
vn -0.5814155 0.5664661 -0.5840138
vn -0.790707 0.5216179 -0.3204641
vn -0.8953528 0.4393961 -0.07262445
vn -0.790707 0.5216179 -0.3204641
vn -0.790707 0.5216179 -0.3204641
vn -0.8953528 0.4393961 -0.07262445
vn -0.9028275 0.4169722 0.1050557
vn -0.8953528 0.4393961 -0.07262445
vn -0.8953528 0.4393961 -0.07262445
vn -0.9028275 0.4169722 0.1050557
vn -0.8355552 0.4244468 0.3488444
vn -0.9028275 0.4169722 0.1050557
vn -0.9028275 0.4169722 0.1050557
vn -0.8355552 0.4244468 0.3488444
vn -0.6486877 0.4020227 0.6462058
vn -0.8355552 0.4244468 0.3488444
vn -0.8355552 0.4244468 0.3488444
vn -0.6486877 0.4020227 0.6462058
vn -0.3571745 0.319801 0.877584
vn -0.6486877 0.4020227 0.6462058
vn -0.6486877 0.4020227 0.6462058
vn -0.3571745 0.319801 0.877584
vn -0.09556007 0.2226299 0.9702083
vn -0.3571745 0.319801 0.877584
vn -0.3571745 0.319801 0.877584
vn -0.09556007 0.2226299 0.9702083
vn 0.3603966 0.319801 0.8762658
vn 0.3603966 0.319801 0.8762658
vn 0.0913074 0.2226299 0.9706178
vn 0.0913074 0.2226299 0.9706178
vn 0.6444352 0.4020227 0.6504468
vn 0.6444352 0.4020227 0.6504468
vn 0.3603966 0.319801 0.8762658
vn 0.3603966 0.319801 0.8762658
vn 0.8313026 0.4244468 0.3588605
vn 0.8313026 0.4244468 0.3588605
vn 0.6444352 0.4020227 0.6504468
vn 0.6444352 0.4020227 0.6504468
vn 0.9060496 0.4169722 0.07216875
vn 0.9060496 0.4169722 0.07216875
vn 0.8313026 0.4244468 0.3588605
vn 0.8313026 0.4244468 0.3588605
vn 0.8911002 0.4393961 -0.1134522
vn 0.8911002 0.4393961 -0.1134522
vn 0.9060496 0.4169722 0.07216875
vn 0.9060496 0.4169722 0.07216875
vn 0.7939291 0.5216179 -0.3123962
vn 0.7939291 0.5216179 -0.3123962
vn 0.8911002 0.4393961 -0.1134522
vn 0.8911002 0.4393961 -0.1134522
g Tastiera.047_0
f 3/3/3 2/2/2 1/1/1
f 6/6/6 5/5/5 4/4/4
f 9/9/9 8/8/8 7/7/7
f 12/12/12 11/11/11 10/10/10
f 15/15/15 14/14/14 13/13/13
f 18/18/18 17/17/17 16/16/16
f 21/21/21 20/20/20 19/19/19
f 20/20/20 22/22/22 19/19/19
f 22/22/22 20/20/20 23/23/23
f 20/20/20 24/24/24 23/23/23
f 23/23/23 24/24/24 25/25/25
f 24/24/24 26/26/26 25/25/25
f 25/25/25 26/26/26 27/27/27
f 26/26/26 28/28/28 27/27/27
f 27/27/27 28/28/28 29/29/29
f 30/30/30 27/27/27 29/29/29
f 31/31/31 30/30/30 29/29/29
f 32/32/32 31/31/31 29/29/29
f 33/33/33 31/31/31 32/32/32
f 34/34/34 33/33/33 32/32/32
f 33/33/33 34/34/34 35/35/35
f 34/34/34 36/36/36 35/35/35
f 35/35/35 36/36/36 37/37/37
f 38/38/38 35/35/35 37/37/37
f 38/38/38 37/37/37 39/39/39
f 40/40/40 38/38/38 39/39/39
f 40/40/40 39/39/39 41/41/41
f 42/42/42 40/40/40 41/41/41
f 41/41/41 43/43/43 42/42/42
f 43/43/43 44/44/44 42/42/42
f 47/47/47 46/46/46 45/45/45
f 48/48/48 47/47/47 45/45/45
f 51/51/51 50/50/50 49/49/49
f 52/52/52 51/51/51 49/49/49
f 55/55/55 54/54/54 53/53/53
f 56/56/56 55/55/55 53/53/53
f 59/59/59 58/58/58 57/57/57
f 60/60/60 59/59/59 57/57/57
f 63/63/63 62/62/62 61/61/61
f 64/64/64 63/63/63 61/61/61
f 67/67/67 66/66/66 65/65/65
f 68/68/68 67/67/67 65/65/65
f 71/71/71 70/70/70 69/69/69
f 72/72/72 71/71/71 69/69/69
f 75/75/75 74/74/74 73/73/73
f 76/76/76 75/75/75 73/73/73
f 79/79/79 78/78/78 77/77/77
f 80/80/80 79/79/79 77/77/77
f 83/83/83 82/82/82 81/81/81
f 84/84/84 83/83/83 81/81/81
f 87/87/87 86/86/86 85/85/85
f 88/88/88 87/87/87 85/85/85
f 91/91/91 90/90/90 89/89/89
f 92/92/92 91/91/91 89/89/89
f 95/95/95 94/94/94 93/93/93
f 96/96/96 95/95/95 93/93/93
f 99/99/99 98/98/98 97/97/97
f 100/100/100 99/99/99 97/97/97
f 103/103/103 102/102/102 101/101/101
f 104/104/104 103/103/103 101/101/101
f 107/107/107 106/106/106 105/105/105
f 108/108/108 107/107/107 105/105/105
f 111/111/111 110/110/110 109/109/109
f 112/112/112 111/111/111 109/109/109
f 115/115/115 114/114/114 113/113/113
f 116/116/116 115/115/115 113/113/113
f 119/119/119 118/118/118 117/117/117
f 120/120/120 119/119/119 117/117/117
f 123/123/123 122/122/122 121/121/121
f 124/124/124 123/123/123 121/121/121
f 127/127/127 126/126/126 125/125/125
f 128/128/128 127/127/127 125/125/125
f 131/131/131 130/130/130 129/129/129
f 132/132/132 131/131/131 129/129/129
