g Tastiera.019
v 0.5147983 0.1684785 0.1872016
v 0.3650408 0.1684785 0.1872016
v 0.4399195 0.2650997 0.1684785
v 0.4399195 0.2650997 0.1684785
v 0.3650408 0.1684785 0.1872016
v 0.3884413 0.2668656 0.1684785
v 0.3884413 0.2668656 -0.09360373
v 0.3650408 0.1684785 -0.1497594
v 0.4399195 0.2650997 -0.09360373
v 0.4399195 0.2650997 -0.09360373
v 0.3650408 0.1684785 -0.1497594
v 0.5147983 0.1684785 -0.1497594
v 0.4913978 0.2668656 0.1684785
v 0.5147983 0.1684785 0.1872016
v 0.4399195 0.2650997 0.1684785
v 0.4399195 0.2650997 -0.09360373
v 0.5147983 0.1684785 -0.1497594
v 0.4913978 0.2668656 -0.09360373
v 0.3182399 0.2749802 -0.07488072
v 0.3196688 0.2747511 0.1569266
v 0.3182399 0.2749802 0.1497555
v 0.3196688 0.2747511 -0.08203834
v 0.3237261 0.2741041 -0.0881176
v 0.3237261 0.2741041 0.1629924
v 0.3297919 0.2731875 -0.09217495
v 0.3297919 0.2731875 0.1670497
v 0.336963 0.2721764 -0.09360373
v 0.336963 0.2721764 0.1684785
v 0.3884413 0.2668656 0.1684785
v 0.3884413 0.2668656 -0.09360373
v 0.4399195 0.2650997 -0.09360373
v 0.4399195 0.2650997 0.1684785
v 0.4913978 0.2668656 -0.09360373
v 0.4913978 0.2668656 0.1684785
v 0.5428761 0.2721764 -0.09360373
v 0.5428761 0.2721764 0.1684785
v 0.5500472 0.2731875 0.1670497
v 0.5500472 0.2731875 -0.09217495
v 0.556113 0.2741041 0.1629924
v 0.556113 0.2741041 -0.0881176
v 0.5601704 0.2747511 0.1569266
v 0.5601704 0.2747511 -0.08203834
v 0.5615991 0.2749802 0.1497555
v 0.5615991 0.2749802 -0.07488072
v 0.3884413 0.2668656 0.1684785
v 0.3650408 0.1684785 0.1872016
v 0.2901621 0.1684785 0.1872016
v 0.336963 0.2721764 0.1684785
v 0.589677 0.1684785 0.1872016
v 0.5147983 0.1684785 0.1872016
v 0.4913978 0.2668656 0.1684785
v 0.5428761 0.2721764 0.1684785
v 0.2901621 0.1684785 -0.1497594
v 0.3650408 0.1684785 -0.1497594
v 0.3884413 0.2668656 -0.09360373
v 0.336963 0.2721764 -0.09360373
v 0.4913978 0.2668656 -0.09360373
v 0.5147983 0.1684785 -0.1497594
v 0.589677 0.1684785 -0.1497594
v 0.5428761 0.2721764 -0.09360373
v 0.556113 0.2741041 -0.0881176
v 0.6029139 0.1684785 -0.1442733
v 0.6069712 0.1684785 -0.1382075
v 0.5601704 0.2747511 -0.08203834
v 0.5500472 0.2731875 -0.09217495
v 0.5968481 0.1684785 -0.1483306
v 0.6029139 0.1684785 -0.1442733
v 0.556113 0.2741041 -0.0881176
v 0.5428761 0.2721764 -0.09360373
v 0.589677 0.1684785 -0.1497594
v 0.5968481 0.1684785 -0.1483306
v 0.5500472 0.2731875 -0.09217495
v 0.282991 0.1684785 -0.1483306
v 0.2901621 0.1684785 -0.1497594
v 0.336963 0.2721764 -0.09360373
v 0.3297919 0.2731875 -0.09217495
v 0.2769252 0.1684785 -0.1442733
v 0.282991 0.1684785 -0.1483306
v 0.3297919 0.2731875 -0.09217495
v 0.3237261 0.2741041 -0.0881176
v 0.2728679 0.1684785 -0.1382075
v 0.2769252 0.1684785 -0.1442733
v 0.3237261 0.2741041 -0.0881176
v 0.3196688 0.2747511 -0.08203834
v 0.271439 0.1684785 -0.1310364
v 0.2728679 0.1684785 -0.1382075
v 0.3196688 0.2747511 -0.08203834
v 0.3182399 0.2749802 -0.07488072
v 0.271439 0.1684785 0.1684785
v 0.271439 0.1684785 -0.1310364
v 0.3182399 0.2749802 -0.07488072
v 0.3182399 0.2749802 0.1497555
v 0.2728679 0.1684785 0.1756496
v 0.271439 0.1684785 0.1684785
v 0.3182399 0.2749802 0.1497555
v 0.3196688 0.2747511 0.1569266
v 0.2769252 0.1684785 0.1817154
v 0.2728679 0.1684785 0.1756496
v 0.3196688 0.2747511 0.1569266
v 0.3237261 0.2741041 0.1629924
v 0.282991 0.1684785 0.1857728
v 0.2769252 0.1684785 0.1817154
v 0.3237261 0.2741041 0.1629924
v 0.3297919 0.2731875 0.1670497
v 0.2901621 0.1684785 0.1872016
v 0.282991 0.1684785 0.1857728
v 0.3297919 0.2731875 0.1670497
v 0.336963 0.2721764 0.1684785
v 0.5500472 0.2731875 0.1670497
v 0.5968481 0.1684785 0.1857728
v 0.589677 0.1684785 0.1872016
v 0.5428761 0.2721764 0.1684785
v 0.556113 0.2741041 0.1629924
v 0.6029139 0.1684785 0.1817154
v 0.5968481 0.1684785 0.1857728
v 0.5500472 0.2731875 0.1670497
v 0.5601704 0.2747511 0.1569266
v 0.6069712 0.1684785 0.1756496
v 0.6029139 0.1684785 0.1817154
v 0.556113 0.2741041 0.1629924
v 0.5615991 0.2749802 0.1497555
v 0.6084 0.1684785 0.1684785
v 0.6069712 0.1684785 0.1756496
v 0.5601704 0.2747511 0.1569266
v 0.5615991 0.2749802 -0.07488072
v 0.6084 0.1684785 -0.1310364
v 0.6084 0.1684785 0.1684785
v 0.5615991 0.2749802 0.1497555
v 0.5601704 0.2747511 -0.08203834
v 0.6069712 0.1684785 -0.1382075
v 0.6084 0.1684785 -0.1310364
v 0.5615991 0.2749802 -0.07488072
vt 0.8805984 0.5188811
vt 0.953492 0.665356
vt 0.953492 0.5188811
vt 0.8805984 0.5188811
vt 0.953492 0.665356
vt 0.953492 0.5188811
vt 0.8805984 0.5188811
vt 0.953492 0.665356
vt 0.953492 0.5188811
vt 0.8805984 0.5188811
vt 0.953492 0.665356
vt 0.953492 0.5188811
vt 0.8805984 0.5188811
vt 0.953492 0.665356
vt 0.953492 0.5188811
vt 0.8805984 0.5188811
vt 0.953492 0.665356
vt 0.953492 0.5188811
vt 0.3125785 0.5092537
vt 0.3118908 0.6192818
vt 0.3125785 0.6158434
vt 0.3118908 0.5058153
vt 0.3112031 0.5023769
vt 0.3112031 0.6227201
vt 0.3098278 0.5010016
vt 0.3098278 0.6240955
vt 0.3077647 0.5003139
vt 0.3077647 0.6247832
vt 0.2946989 0.6247832
vt 0.2946989 0.5003139
vt 0.2809454 0.5003139
vt 0.2809454 0.6247832
vt 0.2678796 0.5003139
vt 0.2678796 0.6247832
vt 0.2548137 0.5003139
vt 0.2548137 0.6247832
vt 0.2527507 0.6240955
vt 0.2527507 0.5010016
vt 0.2513753 0.6227201
vt 0.2513753 0.5023769
vt 0.2506877 0.6192818
vt 0.2506877 0.5058153
vt 0.25 0.6158434
vt 0.25 0.5092537
vt 0.8805984 0.5188811
vt 0.8805984 0.665356
vt 0.953492 0.665356
vt 0.953492 0.5188811
vt 0.8805984 0.5188811
vt 0.8805984 0.665356
vt 0.953492 0.665356
vt 0.953492 0.5188811
vt 0.8805984 0.5188811
vt 0.8805984 0.665356
vt 0.953492 0.665356
vt 0.953492 0.5188811
vt 0.8805984 0.5188811
vt 0.8805984 0.665356
vt 0.953492 0.665356
vt 0.953492 0.5188811
vt 0.8805984 0.5188811
vt 0.8805984 0.665356
vt 0.953492 0.665356
vt 0.953492 0.5188811
vt 0.8805984 0.5188811
vt 0.8805984 0.665356
vt 0.953492 0.665356
vt 0.953492 0.5188811
vt 0.8805984 0.5188811
vt 0.8805984 0.665356
vt 0.953492 0.665356
vt 0.953492 0.5188811
vt 0.8805984 0.5188811
vt 0.8805984 0.665356
vt 0.953492 0.665356
vt 0.953492 0.5188811
vt 0.8805984 0.5188811
vt 0.8805984 0.665356
vt 0.953492 0.665356
vt 0.953492 0.5188811
vt 0.8805984 0.5188811
vt 0.8805984 0.665356
vt 0.953492 0.665356
vt 0.953492 0.5188811
vt 0.8805984 0.5188811
vt 0.8805984 0.665356
vt 0.953492 0.665356
vt 0.953492 0.5188811
vt 0.8805984 0.5188811
vt 0.8805984 0.665356
vt 0.953492 0.665356
vt 0.953492 0.5188811
vt 0.8805984 0.5188811
vt 0.8805984 0.665356
vt 0.953492 0.665356
vt 0.953492 0.5188811
vt 0.8805984 0.5188811
vt 0.8805984 0.665356
vt 0.953492 0.665356
vt 0.953492 0.5188811
vt 0.8805984 0.5188811
vt 0.8805984 0.665356
vt 0.953492 0.665356
vt 0.953492 0.5188811
vt 0.8805984 0.5188811
vt 0.8805984 0.665356
vt 0.953492 0.665356
vt 0.953492 0.5188811
vt 0.8805984 0.5188811
vt 0.8805984 0.665356
vt 0.953492 0.665356
vt 0.953492 0.5188811
vt 0.8805984 0.5188811
vt 0.8805984 0.665356
vt 0.953492 0.665356
vt 0.953492 0.5188811
vt 0.8805984 0.5188811
vt 0.8805984 0.665356
vt 0.953492 0.665356
vt 0.953492 0.5188811
vt 0.8805984 0.5188811
vt 0.8805984 0.665356
vt 0.953492 0.665356
vt 0.953492 0.5188811
vt 0.8805984 0.5188811
vt 0.8805984 0.665356
vt 0.953492 0.665356
vt 0.953492 0.5188811
vt 0.8805984 0.5188811
vt 0.8805984 0.665356
vt 0.953492 0.665356
vt 0.953492 0.5188811
vn -0.00586623 0.1852586 0.9826723
vn 0.001608491 0.1852586 0.9826885
vn 0.001608491 0.1852586 0.9826885
vn 0.001608491 0.1852586 0.9826885
vn 0.001608491 0.1852586 0.9826885
vn 0.001608491 0.1852586 0.9826885
vn 0.009083152 0.4917204 -0.8707058
vn 0.009083152 0.499195 -0.866442
vn 0.001608491 0.499195 -0.8664882
vn 0.001608491 0.499195 -0.8664882
vn 0.009083152 0.499195 -0.866442
vn -0.00586623 0.499195 -0.8664698
vn -0.00586623 0.1852586 0.9826723
vn -0.00586623 0.1852586 0.9826723
vn 0.001608491 0.1852586 0.9826885
vn 0.001608491 0.499195 -0.8664882
vn -0.00586623 0.499195 -0.8664698
vn -0.00586623 0.4917204 -0.8707334
vn 0.1585767 0.9850492 -0.06731644
vn 0.1585767 0.9850492 -0.06731644
vn 0.1585767 0.9850492 -0.06731644
vn 0.1585767 0.9850492 -0.06731644
vn 0.1511021 0.9850492 -0.08274207
vn 0.1511021 0.9850492 -0.08274207
vn 0.1432174 0.9896913 0
vn 0.1432174 0.9896913 0
vn 0.1212034 0.9925238 -0.01435663
vn 0.1212034 0.9925238 -0.01435663
vn 0.06871784 0.9976361 0
vn 0.06871784 0.9976361 0
vn 0.001608491 0.9999985 -0.0006459354
vn 0.001608491 0.9999985 -0.0006459354
vn -0.06552263 0.9978511 0
vn -0.06552263 0.9978511 0
vn -0.1179864 0.9925238 -0.03123474
vn -0.1179864 0.9925238 -0.03123474
vn -0.1473722 0.9890811 0
vn -0.1473722 0.9890811 0
vn -0.1553598 0.9850492 -0.07444087
vn -0.1553598 0.9850492 -0.07444087
vn -0.1553598 0.9850492 -0.07444087
vn -0.1553598 0.9850492 -0.07444087
vn -0.1628345 0.9850492 -0.05624091
vn -0.1628345 0.9850492 -0.05624091
vn 0.001608491 0.1852586 0.9826885
vn 0.001608491 0.1852586 0.9826885
vn -0.0955624 0.2226319 0.9702076
vn -0.0955624 0.2226319 0.9702076
vn 0.0913046 0.2226319 0.9706176
vn -0.00586623 0.1852586 0.9826723
vn -0.00586623 0.1852586 0.9826723
vn 0.0913046 0.2226319 0.9706176
vn -0.08061302 0.5141444 -0.8539069
vn 0.009083152 0.499195 -0.866442
vn 0.009083152 0.4917204 -0.8707058
vn -0.08061302 0.5141444 -0.8539069
vn -0.00586623 0.4917204 -0.8707334
vn -0.00586623 0.499195 -0.8664698
vn 0.08382994 0.5141444 -0.8535972
vn 0.08382994 0.5141444 -0.8535972
vn 0.5846335 0.5664671 -0.5807915
vn 0.5846335 0.5664671 -0.5807915
vn 0.7939245 0.5216191 -0.3124059
vn 0.7939245 0.5216191 -0.3124059
vn 0.315545 0.5589924 -0.7667847
vn 0.315545 0.5589924 -0.7667847
vn 0.5846335 0.5664671 -0.5807915
vn 0.5846335 0.5664671 -0.5807915
vn 0.08382994 0.5141444 -0.8535972
vn 0.08382994 0.5141444 -0.8535972
vn 0.315545 0.5589924 -0.7667847
vn 0.315545 0.5589924 -0.7667847
vn -0.312328 0.5589924 -0.7681007
vn -0.08061302 0.5141444 -0.8539069
vn -0.08061302 0.5141444 -0.8539069
vn -0.312328 0.5589924 -0.7681007
vn -0.5814165 0.5664671 -0.5840118
vn -0.312328 0.5589924 -0.7681007
vn -0.312328 0.5589924 -0.7681007
vn -0.5814165 0.5664671 -0.5840118
vn -0.7907075 0.5216191 -0.3204607
vn -0.5814165 0.5664671 -0.5840118
vn -0.5814165 0.5664671 -0.5840118
vn -0.7907075 0.5216191 -0.3204607
vn -0.895353 0.4393976 -0.07261337
vn -0.7907075 0.5216191 -0.3204607
vn -0.7907075 0.5216191 -0.3204607
vn -0.895353 0.4393976 -0.07261337
vn -0.9028277 0.4169735 0.1050489
vn -0.895353 0.4393976 -0.07261337
vn -0.895353 0.4393976 -0.07261337
vn -0.9028277 0.4169735 0.1050489
vn -0.8355556 0.4244483 0.3488416
vn -0.9028277 0.4169735 0.1050489
vn -0.9028277 0.4169735 0.1050489
vn -0.8355556 0.4244483 0.3488416
vn -0.6486886 0.4020242 0.646204
vn -0.8355556 0.4244483 0.3488416
vn -0.8355556 0.4244483 0.3488416
vn -0.6486886 0.4020242 0.646204
vn -0.3571761 0.3198027 0.8775827
vn -0.6486886 0.4020242 0.646204
vn -0.6486886 0.4020242 0.646204
vn -0.3571761 0.3198027 0.8775827
vn -0.0955624 0.2226319 0.9702076
vn -0.3571761 0.3198027 0.8775827
vn -0.3571761 0.3198027 0.8775827
vn -0.0955624 0.2226319 0.9702076
vn 0.360393 0.3198027 0.8762665
vn 0.360393 0.3198027 0.8762665
vn 0.0913046 0.2226319 0.9706176
vn 0.0913046 0.2226319 0.9706176
vn 0.6444309 0.4020242 0.6504501
vn 0.6444309 0.4020242 0.6504501
vn 0.360393 0.3198027 0.8762665
vn 0.360393 0.3198027 0.8762665
vn 0.8312979 0.4244483 0.3588698
vn 0.8312979 0.4244483 0.3588698
vn 0.6444309 0.4020242 0.6504501
vn 0.6444309 0.4020242 0.6504501
vn 0.9060447 0.4169735 0.07222272
vn 0.9060447 0.4169735 0.07222272
vn 0.8312979 0.4244483 0.3588698
vn 0.8312979 0.4244483 0.3588698
vn 0.8910953 0.4393976 -0.1134853
vn 0.8910953 0.4393976 -0.1134853
vn 0.9060447 0.4169735 0.07222272
vn 0.9060447 0.4169735 0.07222272
vn 0.7939245 0.5216191 -0.3124059
vn 0.7939245 0.5216191 -0.3124059
vn 0.8910953 0.4393976 -0.1134853
vn 0.8910953 0.4393976 -0.1134853
g Tastiera.019_0
f 3/3/3 2/2/2 1/1/1
f 6/6/6 5/5/5 4/4/4
f 9/9/9 8/8/8 7/7/7
f 12/12/12 11/11/11 10/10/10
f 15/15/15 14/14/14 13/13/13
f 18/18/18 17/17/17 16/16/16
f 21/21/21 20/20/20 19/19/19
f 20/20/20 22/22/22 19/19/19
f 22/22/22 20/20/20 23/23/23
f 20/20/20 24/24/24 23/23/23
f 23/23/23 24/24/24 25/25/25
f 24/24/24 26/26/26 25/25/25
f 25/25/25 26/26/26 27/27/27
f 26/26/26 28/28/28 27/27/27
f 27/27/27 28/28/28 29/29/29
f 30/30/30 27/27/27 29/29/29
f 31/31/31 30/30/30 29/29/29
f 32/32/32 31/31/31 29/29/29
f 33/33/33 31/31/31 32/32/32
f 34/34/34 33/33/33 32/32/32
f 33/33/33 34/34/34 35/35/35
f 34/34/34 36/36/36 35/35/35
f 35/35/35 36/36/36 37/37/37
f 38/38/38 35/35/35 37/37/37
f 38/38/38 37/37/37 39/39/39
f 40/40/40 38/38/38 39/39/39
f 40/40/40 39/39/39 41/41/41
f 42/42/42 40/40/40 41/41/41
f 41/41/41 43/43/43 42/42/42
f 43/43/43 44/44/44 42/42/42
f 47/47/47 46/46/46 45/45/45
f 48/48/48 47/47/47 45/45/45
f 51/51/51 50/50/50 49/49/49
f 52/52/52 51/51/51 49/49/49
f 55/55/55 54/54/54 53/53/53
f 56/56/56 55/55/55 53/53/53
f 59/59/59 58/58/58 57/57/57
f 60/60/60 59/59/59 57/57/57
f 63/63/63 62/62/62 61/61/61
f 64/64/64 63/63/63 61/61/61
f 67/67/67 66/66/66 65/65/65
f 68/68/68 67/67/67 65/65/65
f 71/71/71 70/70/70 69/69/69
f 72/72/72 71/71/71 69/69/69
f 75/75/75 74/74/74 73/73/73
f 76/76/76 75/75/75 73/73/73
f 79/79/79 78/78/78 77/77/77
f 80/80/80 79/79/79 77/77/77
f 83/83/83 82/82/82 81/81/81
f 84/84/84 83/83/83 81/81/81
f 87/87/87 86/86/86 85/85/85
f 88/88/88 87/87/87 85/85/85
f 91/91/91 90/90/90 89/89/89
f 92/92/92 91/91/91 89/89/89
f 95/95/95 94/94/94 93/93/93
f 96/96/96 95/95/95 93/93/93
f 99/99/99 98/98/98 97/97/97
f 100/100/100 99/99/99 97/97/97
f 103/103/103 102/102/102 101/101/101
f 104/104/104 103/103/103 101/101/101
f 107/107/107 106/106/106 105/105/105
f 108/108/108 107/107/107 105/105/105
f 111/111/111 110/110/110 109/109/109
f 112/112/112 111/111/111 109/109/109
f 115/115/115 114/114/114 113/113/113
f 116/116/116 115/115/115 113/113/113
f 119/119/119 118/118/118 117/117/117
f 120/120/120 119/119/119 117/117/117
f 123/123/123 122/122/122 121/121/121
f 124/124/124 123/123/123 121/121/121
f 127/127/127 126/126/126 125/125/125
f 128/128/128 127/127/127 125/125/125
f 131/131/131 130/130/130 129/129/129
f 132/132/132 131/131/131 129/129/129
