g Tastiera.007
v 2.208972 0.1684594 0.89856
v 2.05921 0.1684594 0.89856
v 2.134091 0.2650766 0.8798521
v 2.134091 0.2650766 0.8798521
v 2.05921 0.1684594 0.89856
v 2.082607 0.2668841 0.8798521
v 2.082607 0.2668841 0.6177447
v 2.05921 0.1684594 0.5616207
v 2.134091 0.2650766 0.6177447
v 2.134091 0.2650766 0.6177447
v 2.05921 0.1684594 0.5616207
v 2.208972 0.1684594 0.5616207
v 2.185574 0.2668841 0.8798521
v 2.208972 0.1684594 0.89856
v 2.134091 0.2650766 0.8798521
v 2.134091 0.2650766 0.6177447
v 2.208972 0.1684594 0.5616207
v 2.185574 0.2668841 0.6177447
v 2.012415 0.2749925 0.6365016
v 2.013832 0.2747483 0.8682756
v 2.012415 0.2749925 0.8611441
v 2.013832 0.2747483 0.6293211
v 2.017886 0.2741132 0.6232643
v 2.017886 0.2741132 0.8743324
v 2.023943 0.2731853 0.6191611
v 2.023943 0.2731853 0.8784356
v 2.031123 0.2721593 0.6177447
v 2.031123 0.2721593 0.8798521
v 2.082607 0.2668841 0.8798521
v 2.082607 0.2668841 0.6177447
v 2.134091 0.2650766 0.6177447
v 2.134091 0.2650766 0.8798521
v 2.185574 0.2668841 0.6177447
v 2.185574 0.2668841 0.8798521
v 2.237058 0.2721593 0.6177447
v 2.237058 0.2721593 0.8798521
v 2.24419 0.2731853 0.8784356
v 2.24419 0.2731853 0.6191611
v 2.250295 0.2741132 0.8743324
v 2.250295 0.2741132 0.6232643
v 2.254349 0.2747483 0.8682756
v 2.254349 0.2747483 0.6293211
v 2.255766 0.2749925 0.8611441
v 2.255766 0.2749925 0.6365016
v 2.082607 0.2668841 0.8798521
v 2.05921 0.1684594 0.89856
v 1.984329 0.1684594 0.89856
v 2.031123 0.2721593 0.8798521
v 2.283852 0.1684594 0.89856
v 2.208972 0.1684594 0.89856
v 2.185574 0.2668841 0.8798521
v 2.237058 0.2721593 0.8798521
v 1.984329 0.1684594 0.5616207
v 2.05921 0.1684594 0.5616207
v 2.082607 0.2668841 0.6177447
v 2.031123 0.2721593 0.6177447
v 2.185574 0.2668841 0.6177447
v 2.208972 0.1684594 0.5616207
v 2.283852 0.1684594 0.5616207
v 2.237058 0.2721593 0.6177447
v 2.250295 0.2741132 0.6232643
v 2.29709 0.1684594 0.5670915
v 2.301144 0.1684594 0.5731483
v 2.254349 0.2747483 0.6293211
v 2.24419 0.2731853 0.6191611
v 2.291033 0.1684594 0.5630372
v 2.29709 0.1684594 0.5670915
v 2.250295 0.2741132 0.6232643
v 2.237058 0.2721593 0.6177447
v 2.283852 0.1684594 0.5616207
v 2.291033 0.1684594 0.5630372
v 2.24419 0.2731853 0.6191611
v 1.977149 0.1684594 0.5630372
v 1.984329 0.1684594 0.5616207
v 2.031123 0.2721593 0.6177447
v 2.023943 0.2731853 0.6191611
v 1.971092 0.1684594 0.5670915
v 1.977149 0.1684594 0.5630372
v 2.023943 0.2731853 0.6191611
v 2.017886 0.2741132 0.6232643
v 1.967037 0.1684594 0.5731483
v 1.971092 0.1684594 0.5670915
v 2.017886 0.2741132 0.6232643
v 2.013832 0.2747483 0.6293211
v 1.965621 0.1684594 0.5803287
v 1.967037 0.1684594 0.5731483
v 2.013832 0.2747483 0.6293211
v 2.012415 0.2749925 0.6365016
v 1.965621 0.1684594 0.8798521
v 1.965621 0.1684594 0.5803287
v 2.012415 0.2749925 0.6365016
v 2.012415 0.2749925 0.8611441
v 1.967037 0.1684594 0.8869836
v 1.965621 0.1684594 0.8798521
v 2.012415 0.2749925 0.8611441
v 2.013832 0.2747483 0.8682756
v 1.971092 0.1684594 0.8930893
v 1.967037 0.1684594 0.8869836
v 2.013832 0.2747483 0.8682756
v 2.017886 0.2741132 0.8743324
v 1.977149 0.1684594 0.8971436
v 1.971092 0.1684594 0.8930893
v 2.017886 0.2741132 0.8743324
v 2.023943 0.2731853 0.8784356
v 1.984329 0.1684594 0.89856
v 1.977149 0.1684594 0.8971436
v 2.023943 0.2731853 0.8784356
v 2.031123 0.2721593 0.8798521
v 2.24419 0.2731853 0.8784356
v 2.291033 0.1684594 0.8971436
v 2.283852 0.1684594 0.89856
v 2.237058 0.2721593 0.8798521
v 2.250295 0.2741132 0.8743324
v 2.29709 0.1684594 0.8930893
v 2.291033 0.1684594 0.8971436
v 2.24419 0.2731853 0.8784356
v 2.254349 0.2747483 0.8682756
v 2.301144 0.1684594 0.8869836
v 2.29709 0.1684594 0.8930893
v 2.250295 0.2741132 0.8743324
v 2.255766 0.2749925 0.8611441
v 2.30256 0.1684594 0.8798521
v 2.301144 0.1684594 0.8869836
v 2.254349 0.2747483 0.8682756
v 2.255766 0.2749925 0.6365016
v 2.30256 0.1684594 0.5803287
v 2.30256 0.1684594 0.8798521
v 2.255766 0.2749925 0.8611441
v 2.254349 0.2747483 0.6293211
v 2.301144 0.1684594 0.5731483
v 2.30256 0.1684594 0.5803287
v 2.255766 0.2749925 0.6365016
vt 0.8803314 0.518883
vt 0.953492 0.6652043
vt 0.953492 0.518883
vt 0.8803314 0.518883
vt 0.953492 0.6652043
vt 0.953492 0.518883
vt 0.8803314 0.518883
vt 0.953492 0.6652043
vt 0.953492 0.518883
vt 0.8803314 0.518883
vt 0.953492 0.6652043
vt 0.953492 0.518883
vt 0.8803314 0.518883
vt 0.953492 0.6652043
vt 0.953492 0.518883
vt 0.8803314 0.518883
vt 0.953492 0.6652043
vt 0.953492 0.518883
vt 0.1252091 0.7592679
vt 0.1243382 0.8698798
vt 0.1252091 0.866396
vt 0.1243382 0.7557841
vt 0.1234672 0.7523003
vt 0.1234672 0.8724927
vt 0.1217253 0.7505583
vt 0.1217253 0.8742347
vt 0.1199834 0.7496874
vt 0.1199834 0.8751056
vt 0.106919 0.8751056
vt 0.106919 0.7496874
vt 0.09385456 0.7496874
vt 0.09385456 0.8751056
vt 0.08079016 0.7496874
vt 0.08079016 0.8751056
vt 0.06772576 0.7496874
vt 0.06772576 0.8751056
vt 0.06511288 0.8742347
vt 0.06511288 0.7505583
vt 0.06424192 0.8724927
vt 0.06424192 0.7523003
vt 0.0625 0.8698798
vt 0.0625 0.7557841
vt 0.0625 0.866396
vt 0.0625 0.7592679
vt 0.8803314 0.518883
vt 0.8803314 0.6652043
vt 0.953492 0.6652043
vt 0.953492 0.518883
vt 0.8803314 0.518883
vt 0.8803314 0.6652043
vt 0.953492 0.6652043
vt 0.953492 0.518883
vt 0.8803314 0.518883
vt 0.8803314 0.6652043
vt 0.953492 0.6652043
vt 0.953492 0.518883
vt 0.8803314 0.518883
vt 0.8803314 0.6652043
vt 0.953492 0.6652043
vt 0.953492 0.518883
vt 0.8803314 0.518883
vt 0.8803314 0.6652043
vt 0.953492 0.6652043
vt 0.953492 0.518883
vt 0.8803314 0.518883
vt 0.8803314 0.6652043
vt 0.953492 0.6652043
vt 0.953492 0.518883
vt 0.8803314 0.518883
vt 0.8803314 0.6652043
vt 0.953492 0.6652043
vt 0.953492 0.518883
vt 0.8803314 0.518883
vt 0.8803314 0.6652043
vt 0.953492 0.6652043
vt 0.953492 0.518883
vt 0.8803314 0.518883
vt 0.8803314 0.6652043
vt 0.953492 0.6652043
vt 0.953492 0.518883
vt 0.8803314 0.518883
vt 0.8803314 0.6652043
vt 0.953492 0.6652043
vt 0.953492 0.518883
vt 0.8803314 0.518883
vt 0.8803314 0.6652043
vt 0.953492 0.6652043
vt 0.953492 0.518883
vt 0.8803314 0.518883
vt 0.8803314 0.6652043
vt 0.953492 0.6652043
vt 0.953492 0.518883
vt 0.8803314 0.518883
vt 0.8803314 0.6652043
vt 0.953492 0.6652043
vt 0.953492 0.518883
vt 0.8803314 0.518883
vt 0.8803314 0.6652043
vt 0.953492 0.6652043
vt 0.953492 0.518883
vt 0.8803314 0.518883
vt 0.8803314 0.6652043
vt 0.953492 0.6652043
vt 0.953492 0.518883
vt 0.8803314 0.518883
vt 0.8803314 0.6652043
vt 0.953492 0.6652043
vt 0.953492 0.518883
vt 0.8803314 0.518883
vt 0.8803314 0.6652043
vt 0.953492 0.6652043
vt 0.953492 0.518883
vt 0.8803314 0.518883
vt 0.8803314 0.6652043
vt 0.953492 0.6652043
vt 0.953492 0.518883
vt 0.8803314 0.518883
vt 0.8803314 0.6652043
vt 0.953492 0.6652043
vt 0.953492 0.518883
vt 0.8803314 0.518883
vt 0.8803314 0.6652043
vt 0.953492 0.6652043
vt 0.953492 0.518883
vt 0.8803314 0.518883
vt 0.8803314 0.6652043
vt 0.953492 0.6652043
vt 0.953492 0.518883
vt 0.8803314 0.518883
vt 0.8803314 0.6652043
vt 0.953492 0.6652043
vt 0.953492 0.518883
vn -0.005865395 0.1852579 0.9826725
vn 0.001609325 0.1852579 0.9826887
vn 0.001609325 0.1852579 0.9826887
vn 0.001609325 0.1852579 0.9826887
vn 0.001609325 0.1852579 0.9826887
vn 0.001609325 0.1852579 0.9826887
vn 0.009083986 0.49172 -0.870706
vn 0.009083986 0.4991947 -0.8664423
vn 0.001609325 0.4991947 -0.8664884
vn 0.001609325 0.4991947 -0.8664884
vn 0.009083986 0.4991947 -0.8664423
vn -0.005865395 0.4991947 -0.86647
vn -0.005865395 0.1852579 0.9826725
vn -0.005865395 0.1852579 0.9826725
vn 0.001609325 0.1852579 0.9826887
vn 0.001609325 0.4991947 -0.8664884
vn -0.005865395 0.4991947 -0.86647
vn -0.005865395 0.49172 -0.8707336
vn 0.1585777 0.9850493 -0.06731245
vn 0.1585777 0.9850493 -0.06731245
vn 0.1585777 0.9850493 -0.06731245
vn 0.1585777 0.9850493 -0.06731245
vn 0.151103 0.9850493 -0.08273918
vn 0.151103 0.9850493 -0.08273918
vn 0.1432184 0.9896911 0
vn 0.1432184 0.9896911 0
vn 0.1212043 0.992524 -0.01434209
vn 0.1212043 0.992524 -0.01434209
vn 0.06871878 0.9976361 0
vn 0.06871878 0.9976361 0
vn 0.001609325 0.9999986 -0.000422864
vn 0.001609325 0.9999986 -0.000422864
vn -0.06552185 0.9978512 0
vn -0.06552185 0.9978512 0
vn -0.1179857 0.992524 -0.03123378
vn -0.1179857 0.992524 -0.03123378
vn -0.1473715 0.9890812 0
vn -0.1473715 0.9890812 0
vn -0.1553591 0.9850493 -0.07444087
vn -0.1553591 0.9850493 -0.07444087
vn -0.1553591 0.9850493 -0.07444087
vn -0.1553591 0.9850493 -0.07444087
vn -0.1628338 0.9850493 -0.05624091
vn -0.1628338 0.9850493 -0.05624091
vn 0.001609325 0.1852579 0.9826887
vn 0.001609325 0.1852579 0.9826887
vn -0.09556156 0.2226313 0.9702079
vn -0.09556156 0.2226313 0.9702079
vn 0.09130555 0.2226313 0.9706177
vn -0.005865395 0.1852579 0.9826725
vn -0.005865395 0.1852579 0.9826725
vn 0.09130555 0.2226313 0.9706177
vn -0.08061224 0.514144 -0.8539072
vn 0.009083986 0.4991947 -0.8664423
vn 0.009083986 0.49172 -0.870706
vn -0.08061224 0.514144 -0.8539072
vn -0.005865395 0.49172 -0.8707336
vn -0.005865395 0.4991947 -0.86647
vn 0.08383083 0.514144 -0.8535973
vn 0.08383083 0.514144 -0.8535973
vn 0.5846348 0.5664669 -0.5807903
vn 0.5846348 0.5664669 -0.5807903
vn 0.7939261 0.5216187 -0.3124026
vn 0.7939261 0.5216187 -0.3124026
vn 0.3155462 0.5589922 -0.7667844
vn 0.3155462 0.5589922 -0.7667844
vn 0.5846348 0.5664669 -0.5807903
vn 0.5846348 0.5664669 -0.5807903
vn 0.08383083 0.514144 -0.8535973
vn 0.08383083 0.514144 -0.8535973
vn 0.3155462 0.5589922 -0.7667844
vn 0.3155462 0.5589922 -0.7667844
vn -0.3123276 0.5589922 -0.768101
vn -0.08061224 0.514144 -0.8539072
vn -0.08061224 0.514144 -0.8539072
vn -0.3123276 0.5589922 -0.768101
vn -0.5814162 0.5664669 -0.5840124
vn -0.3123276 0.5589922 -0.768101
vn -0.3123276 0.5589922 -0.768101
vn -0.5814162 0.5664669 -0.5840124
vn -0.7907074 0.5216187 -0.3204618
vn -0.5814162 0.5664669 -0.5840124
vn -0.5814162 0.5664669 -0.5840124
vn -0.7907074 0.5216187 -0.3204618
vn -0.895353 0.4393972 -0.07261624
vn -0.7907074 0.5216187 -0.3204618
vn -0.7907074 0.5216187 -0.3204618
vn -0.895353 0.4393972 -0.07261624
vn -0.9028277 0.4169732 0.1050503
vn -0.895353 0.4393972 -0.07261624
vn -0.895353 0.4393972 -0.07261624
vn -0.9028277 0.4169732 0.1050503
vn -0.8355555 0.4244478 0.3488425
vn -0.9028277 0.4169732 0.1050503
vn -0.9028277 0.4169732 0.1050503
vn -0.8355555 0.4244478 0.3488425
vn -0.6486884 0.4020237 0.6462045
vn -0.8355555 0.4244478 0.3488425
vn -0.8355555 0.4244478 0.3488425
vn -0.6486884 0.4020237 0.6462045
vn -0.3571756 0.3198022 0.8775831
vn -0.6486884 0.4020237 0.6462045
vn -0.6486884 0.4020237 0.6462045
vn -0.3571756 0.3198022 0.8775831
vn -0.09556156 0.2226313 0.9702079
vn -0.3571756 0.3198022 0.8775831
vn -0.3571756 0.3198022 0.8775831
vn -0.09556156 0.2226313 0.9702079
vn 0.3603942 0.3198022 0.8762662
vn 0.3603942 0.3198022 0.8762662
vn 0.09130555 0.2226313 0.9706177
vn 0.09130555 0.2226313 0.9706177
vn 0.6444323 0.4020237 0.650449
vn 0.6444323 0.4020237 0.650449
vn 0.3603942 0.3198022 0.8762662
vn 0.3603942 0.3198022 0.8762662
vn 0.8312995 0.4244478 0.3588666
vn 0.8312995 0.4244478 0.3588666
vn 0.6444323 0.4020237 0.650449
vn 0.6444323 0.4020237 0.650449
vn 0.9060463 0.4169732 0.07220415
vn 0.9060463 0.4169732 0.07220415
vn 0.8312995 0.4244478 0.3588666
vn 0.8312995 0.4244478 0.3588666
vn 0.8910969 0.4393972 -0.113474
vn 0.8910969 0.4393972 -0.113474
vn 0.9060463 0.4169732 0.07220415
vn 0.9060463 0.4169732 0.07220415
vn 0.7939261 0.5216187 -0.3124026
vn 0.7939261 0.5216187 -0.3124026
vn 0.8910969 0.4393972 -0.113474
vn 0.8910969 0.4393972 -0.113474
g Tastiera.007_0
f 3/3/3 2/2/2 1/1/1
f 6/6/6 5/5/5 4/4/4
f 9/9/9 8/8/8 7/7/7
f 12/12/12 11/11/11 10/10/10
f 15/15/15 14/14/14 13/13/13
f 18/18/18 17/17/17 16/16/16
f 21/21/21 20/20/20 19/19/19
f 20/20/20 22/22/22 19/19/19
f 22/22/22 20/20/20 23/23/23
f 20/20/20 24/24/24 23/23/23
f 23/23/23 24/24/24 25/25/25
f 24/24/24 26/26/26 25/25/25
f 25/25/25 26/26/26 27/27/27
f 26/26/26 28/28/28 27/27/27
f 27/27/27 28/28/28 29/29/29
f 30/30/30 27/27/27 29/29/29
f 31/31/31 30/30/30 29/29/29
f 32/32/32 31/31/31 29/29/29
f 33/33/33 31/31/31 32/32/32
f 34/34/34 33/33/33 32/32/32
f 33/33/33 34/34/34 35/35/35
f 34/34/34 36/36/36 35/35/35
f 35/35/35 36/36/36 37/37/37
f 38/38/38 35/35/35 37/37/37
f 38/38/38 37/37/37 39/39/39
f 40/40/40 38/38/38 39/39/39
f 40/40/40 39/39/39 41/41/41
f 42/42/42 40/40/40 41/41/41
f 41/41/41 43/43/43 42/42/42
f 43/43/43 44/44/44 42/42/42
f 47/47/47 46/46/46 45/45/45
f 48/48/48 47/47/47 45/45/45
f 51/51/51 50/50/50 49/49/49
f 52/52/52 51/51/51 49/49/49
f 55/55/55 54/54/54 53/53/53
f 56/56/56 55/55/55 53/53/53
f 59/59/59 58/58/58 57/57/57
f 60/60/60 59/59/59 57/57/57
f 63/63/63 62/62/62 61/61/61
f 64/64/64 63/63/63 61/61/61
f 67/67/67 66/66/66 65/65/65
f 68/68/68 67/67/67 65/65/65
f 71/71/71 70/70/70 69/69/69
f 72/72/72 71/71/71 69/69/69
f 75/75/75 74/74/74 73/73/73
f 76/76/76 75/75/75 73/73/73
f 79/79/79 78/78/78 77/77/77
f 80/80/80 79/79/79 77/77/77
f 83/83/83 82/82/82 81/81/81
f 84/84/84 83/83/83 81/81/81
f 87/87/87 86/86/86 85/85/85
f 88/88/88 87/87/87 85/85/85
f 91/91/91 90/90/90 89/89/89
f 92/92/92 91/91/91 89/89/89
f 95/95/95 94/94/94 93/93/93
f 96/96/96 95/95/95 93/93/93
f 99/99/99 98/98/98 97/97/97
f 100/100/100 99/99/99 97/97/97
f 103/103/103 102/102/102 101/101/101
f 104/104/104 103/103/103 101/101/101
f 107/107/107 106/106/106 105/105/105
f 108/108/108 107/107/107 105/105/105
f 111/111/111 110/110/110 109/109/109
f 112/112/112 111/111/111 109/109/109
f 115/115/115 114/114/114 113/113/113
f 116/116/116 115/115/115 113/113/113
f 119/119/119 118/118/118 117/117/117
f 120/120/120 119/119/119 117/117/117
f 123/123/123 122/122/122 121/121/121
f 124/124/124 123/123/123 121/121/121
f 127/127/127 126/126/126 125/125/125
f 128/128/128 127/127/127 125/125/125
f 131/131/131 130/130/130 129/129/129
f 132/132/132 131/131/131 129/129/129
