g Tastiera.040
v 0.2527258 0.1684758 0.5428802
v 0.1029586 0.1684758 0.5428802
v 0.1778422 0.2650958 0.5241559
v 0.1778422 0.2650958 0.5241559
v 0.1029586 0.1684758 0.5428802
v 0.1263639 0.2668733 0.5241559
v 0.1263639 0.2668733 0.2620837
v 0.1029586 0.1684758 0.2059244
v 0.1778422 0.2650958 0.2620837
v 0.1778422 0.2650958 0.2620837
v 0.1029586 0.1684758 0.2059244
v 0.2527258 0.1684758 0.2059244
v 0.2293204 0.2668733 0.5241559
v 0.2527258 0.1684758 0.5428802
v 0.1778422 0.2650958 0.5241559
v 0.1778422 0.2650958 0.2620837
v 0.2527258 0.1684758 0.2059244
v 0.2293204 0.2668733 0.2620837
v 0.05616143 0.2749736 0.2807944
v 0.0575861 0.2747565 0.5126092
v 0.05616143 0.2749872 0.5054452
v 0.0575861 0.2747565 0.2736303
v 0.06164303 0.2741053 0.2675653
v 0.06164303 0.2741053 0.5186743
v 0.06772164 0.2731962 0.2635084
v 0.06772164 0.2731962 0.5227312
v 0.07488573 0.2721785 0.2620837
v 0.07488573 0.2721785 0.5241559
v 0.1263639 0.2668733 0.5241559
v 0.1263639 0.2668733 0.2620837
v 0.1778422 0.2650958 0.2620837
v 0.1778422 0.2650958 0.5241559
v 0.2293204 0.2668733 0.2620837
v 0.2293204 0.2668733 0.5241559
v 0.2807986 0.2721785 0.2620837
v 0.2807986 0.2721785 0.5241559
v 0.2879627 0.2731962 0.5227312
v 0.2879627 0.2731962 0.2635084
v 0.2940413 0.2741053 0.5186743
v 0.2940413 0.2741053 0.2675653
v 0.2980983 0.2747565 0.5126092
v 0.2980983 0.2747565 0.2736303
v 0.2995229 0.2749872 0.5054452
v 0.2995229 0.2749736 0.2807944
v 0.1263639 0.2668733 0.5241559
v 0.1029586 0.1684758 0.5428802
v 0.02807498 0.1684758 0.5428802
v 0.07488573 0.2721785 0.5241559
v 0.3275958 0.1684758 0.5428802
v 0.2527258 0.1684758 0.5428802
v 0.2293204 0.2668733 0.5241559
v 0.2807986 0.2721785 0.5241559
v 0.02807498 0.1684758 0.2059244
v 0.1029586 0.1684758 0.2059244
v 0.1263639 0.2668733 0.2620837
v 0.07488573 0.2721785 0.2620837
v 0.2293204 0.2668733 0.2620837
v 0.2527258 0.1684758 0.2059244
v 0.3275958 0.1684758 0.2059244
v 0.2807986 0.2721785 0.2620837
v 0.2940413 0.2741053 0.2675653
v 0.3408385 0.1684758 0.211406
v 0.3448954 0.1684758 0.217471
v 0.2980983 0.2747565 0.2736303
v 0.2879627 0.2731962 0.2635084
v 0.3347599 0.1684758 0.2073491
v 0.3408385 0.1684758 0.211406
v 0.2940413 0.2741053 0.2675653
v 0.2807986 0.2721785 0.2620837
v 0.3275958 0.1684758 0.2059244
v 0.3347599 0.1684758 0.2073491
v 0.2879627 0.2731962 0.2635084
v 0.02091092 0.1684758 0.2073491
v 0.02807498 0.1684758 0.2059244
v 0.07488573 0.2721785 0.2620837
v 0.06772164 0.2731962 0.2635084
v 0.01484588 0.1684758 0.211406
v 0.02091092 0.1684758 0.2073491
v 0.06772164 0.2731962 0.2635084
v 0.06164303 0.2741053 0.2675653
v 0.01078895 0.1684758 0.217471
v 0.01484588 0.1684758 0.211406
v 0.06164303 0.2741053 0.2675653
v 0.0575861 0.2747565 0.2736303
v 0.009364277 0.1684758 0.2246351
v 0.01078895 0.1684758 0.217471
v 0.0575861 0.2747565 0.2736303
v 0.05616143 0.2749736 0.2807944
v 0.009364277 0.1684758 0.5241559
v 0.009364277 0.1684758 0.2246351
v 0.05616143 0.2749736 0.2807944
v 0.05616143 0.2749872 0.5054452
v 0.01078895 0.1684758 0.53132
v 0.009364277 0.1684758 0.5241559
v 0.05616143 0.2749872 0.5054452
v 0.0575861 0.2747565 0.5126092
v 0.01484588 0.1684758 0.5373986
v 0.01078895 0.1684758 0.53132
v 0.0575861 0.2747565 0.5126092
v 0.06164303 0.2741053 0.5186743
v 0.02091092 0.1684758 0.5414555
v 0.01484588 0.1684758 0.5373986
v 0.06164303 0.2741053 0.5186743
v 0.06772164 0.2731962 0.5227312
v 0.02807498 0.1684758 0.5428802
v 0.02091092 0.1684758 0.5414555
v 0.06772164 0.2731962 0.5227312
v 0.07488573 0.2721785 0.5241559
v 0.2879627 0.2731962 0.5227312
v 0.3347599 0.1684758 0.5414555
v 0.3275958 0.1684758 0.5428802
v 0.2807986 0.2721785 0.5241559
v 0.2940413 0.2741053 0.5186743
v 0.3408385 0.1684758 0.5373986
v 0.3347599 0.1684758 0.5414555
v 0.2879627 0.2731962 0.5227312
v 0.2980983 0.2747565 0.5126092
v 0.3448954 0.1684758 0.53132
v 0.3408385 0.1684758 0.5373986
v 0.2940413 0.2741053 0.5186743
v 0.2995229 0.2749872 0.5054452
v 0.3463201 0.1684758 0.5241559
v 0.3448954 0.1684758 0.53132
v 0.2980983 0.2747565 0.5126092
v 0.2995229 0.2749736 0.2807944
v 0.3463201 0.1684758 0.2246351
v 0.3463201 0.1684758 0.5241559
v 0.2995229 0.2749872 0.5054452
v 0.2980983 0.2747565 0.2736303
v 0.3448954 0.1684758 0.217471
v 0.3463201 0.1684758 0.2246351
v 0.2995229 0.2749736 0.2807944
vt 0.8808087 0.5192716
vt 0.953492 0.665265
vt 0.953492 0.5192716
vt 0.8808087 0.5192716
vt 0.953492 0.665265
vt 0.953492 0.5192716
vt 0.8808087 0.5192716
vt 0.953492 0.665265
vt 0.953492 0.5192716
vt 0.8808087 0.5192716
vt 0.953492 0.665265
vt 0.953492 0.5192716
vt 0.8808087 0.5192716
vt 0.953492 0.665265
vt 0.953492 0.5192716
vt 0.8808087 0.5192716
vt 0.953492 0.665265
vt 0.953492 0.5192716
vt 0.3751581 0.6339359
vt 0.3745315 0.7442141
vt 0.3751581 0.7410812
vt 0.3745315 0.630803
vt 0.3739049 0.62767
vt 0.3739049 0.747347
vt 0.3720252 0.6257904
vt 0.3720252 0.7492267
vt 0.3701454 0.6251638
vt 0.3701454 0.7498533
vt 0.3569872 0.7498533
vt 0.3569872 0.6251638
vt 0.343829 0.6251638
vt 0.343829 0.7498533
vt 0.3306708 0.6251638
vt 0.3306708 0.7498533
vt 0.3175126 0.6251638
vt 0.3175126 0.7498533
vt 0.3156329 0.7492267
vt 0.3156329 0.6257904
vt 0.3137532 0.747347
vt 0.3137532 0.62767
vt 0.3131266 0.7442141
vt 0.3131266 0.630803
vt 0.3125 0.7410812
vt 0.3125 0.6339359
vt 0.8808087 0.5192716
vt 0.8808087 0.665265
vt 0.953492 0.665265
vt 0.953492 0.5192716
vt 0.8808087 0.5192716
vt 0.8808087 0.665265
vt 0.953492 0.665265
vt 0.953492 0.5192716
vt 0.8808087 0.5192716
vt 0.8808087 0.665265
vt 0.953492 0.665265
vt 0.953492 0.5192716
vt 0.8808087 0.5192716
vt 0.8808087 0.665265
vt 0.953492 0.665265
vt 0.953492 0.5192716
vt 0.8808087 0.5192716
vt 0.8808087 0.665265
vt 0.953492 0.665265
vt 0.953492 0.5192716
vt 0.8808087 0.5192716
vt 0.8808087 0.665265
vt 0.953492 0.665265
vt 0.953492 0.5192716
vt 0.8808087 0.5192716
vt 0.8808087 0.665265
vt 0.953492 0.665265
vt 0.953492 0.5192716
vt 0.8808087 0.5192716
vt 0.8808087 0.665265
vt 0.953492 0.665265
vt 0.953492 0.5192716
vt 0.8808087 0.5192716
vt 0.8808087 0.665265
vt 0.953492 0.665265
vt 0.953492 0.5192716
vt 0.8808087 0.5192716
vt 0.8808087 0.665265
vt 0.953492 0.665265
vt 0.953492 0.5192716
vt 0.8808087 0.5192716
vt 0.8808087 0.665265
vt 0.953492 0.665265
vt 0.953492 0.5192716
vt 0.8808087 0.5192716
vt 0.8808087 0.665265
vt 0.953492 0.665265
vt 0.953492 0.5192716
vt 0.8808087 0.5192716
vt 0.8808087 0.665265
vt 0.953492 0.665265
vt 0.953492 0.5192716
vt 0.8808087 0.5192716
vt 0.8808087 0.665265
vt 0.953492 0.665265
vt 0.953492 0.5192716
vt 0.8808087 0.5192716
vt 0.8808087 0.665265
vt 0.953492 0.665265
vt 0.953492 0.5192716
vt 0.8808087 0.5192716
vt 0.8808087 0.665265
vt 0.953492 0.665265
vt 0.953492 0.5192716
vt 0.8808087 0.5192716
vt 0.8808087 0.665265
vt 0.953492 0.665265
vt 0.953492 0.5192716
vt 0.8808087 0.5192716
vt 0.8808087 0.665265
vt 0.953492 0.665265
vt 0.953492 0.5192716
vt 0.8808087 0.5192716
vt 0.8808087 0.665265
vt 0.953492 0.665265
vt 0.953492 0.5192716
vt 0.8808087 0.5192716
vt 0.8808087 0.665265
vt 0.953492 0.665265
vt 0.953492 0.5192716
vt 0.8808087 0.5192716
vt 0.8808087 0.665265
vt 0.953492 0.665265
vt 0.953492 0.5192716
vt 0.8808087 0.5192716
vt 0.8808087 0.665265
vt 0.953492 0.665265
vt 0.953492 0.5192716
vn -0.005863249 0.1852561 0.9826728
vn 0.001611471 0.1852561 0.982689
vn 0.001611471 0.1852561 0.982689
vn 0.001611471 0.1852561 0.982689
vn 0.001611471 0.1852561 0.982689
vn 0.001611471 0.1852561 0.982689
vn 0.009086192 0.4917189 -0.8707066
vn 0.009086192 0.4991935 -0.8664429
vn 0.001611471 0.4991935 -0.866489
vn 0.001611471 0.4991935 -0.866489
vn 0.009086192 0.4991935 -0.8664429
vn -0.005863249 0.4991935 -0.8664706
vn -0.005863249 0.1852561 0.9826728
vn -0.005863249 0.1852561 0.9826728
vn 0.001611471 0.1852561 0.982689
vn 0.001611471 0.4991935 -0.866489
vn -0.005863249 0.4991935 -0.8664706
vn -0.005863249 0.4917189 -0.8707342
vn 0.1585802 0.9850492 -0.06730758
vn 0.1585802 0.9850492 -0.06730758
vn 0.1585802 0.9850492 -0.06730758
vn 0.1585802 0.9850492 -0.06730758
vn 0.1511055 0.9850492 -0.08273522
vn 0.1511055 0.9850492 -0.08273522
vn 0.1432208 0.9896907 0
vn 0.1432208 0.9896907 0
vn 0.1212067 0.9925239 -0.01432546
vn 0.1212067 0.9925239 -0.01432546
vn 0.06872103 0.997636 0
vn 0.06872103 0.997636 0
vn 0.001611471 0.9999987 0
vn 0.001611471 0.9999987 0
vn -0.06551983 0.9978513 0
vn -0.06551983 0.9978513 0
vn -0.1179838 0.9925239 -0.03124237
vn -0.1179838 0.9925239 -0.03124237
vn -0.1473697 0.9890815 0
vn -0.1473697 0.9890815 0
vn -0.1553572 0.9850492 -0.07444528
vn -0.1553572 0.9850492 -0.07444528
vn -0.1553572 0.9850492 -0.07444528
vn -0.1553572 0.9850492 -0.07444528
vn -0.162832 0.9850492 -0.05624674
vn -0.162832 0.9850492 -0.05624674
vn 0.001611471 0.1852561 0.982689
vn 0.001611471 0.1852561 0.982689
vn -0.09555972 0.2226297 0.9702084
vn -0.09555972 0.2226297 0.9702084
vn 0.09130788 0.2226297 0.9706178
vn -0.005863249 0.1852561 0.9826728
vn -0.005863249 0.1852561 0.9826728
vn 0.09130788 0.2226297 0.9706178
vn -0.08061028 0.514143 -0.8539081
vn 0.009086192 0.4991935 -0.8664429
vn 0.009086192 0.4917189 -0.8707066
vn -0.08061028 0.514143 -0.8539081
vn -0.005863249 0.4917189 -0.8707342
vn -0.005863249 0.4991935 -0.8664706
vn 0.08383316 0.514143 -0.8535977
vn 0.08383316 0.514143 -0.8535977
vn 0.5846382 0.566466 -0.5807878
vn 0.5846382 0.566466 -0.5807878
vn 0.7939299 0.5216177 -0.3123945
vn 0.7939299 0.5216177 -0.3123945
vn 0.315549 0.5589912 -0.766784
vn 0.315549 0.5589912 -0.766784
vn 0.5846382 0.566466 -0.5807878
vn 0.5846382 0.566466 -0.5807878
vn 0.08383316 0.514143 -0.8535977
vn 0.08383316 0.514143 -0.8535977
vn 0.315549 0.5589912 -0.766784
vn 0.315549 0.5589912 -0.766784
vn -0.3123261 0.5589912 -0.7681023
vn -0.08061028 0.514143 -0.8539081
vn -0.08061028 0.514143 -0.8539081
vn -0.3123261 0.5589912 -0.7681023
vn -0.5814153 0.566466 -0.5840142
vn -0.3123261 0.5589912 -0.7681023
vn -0.3123261 0.5589912 -0.7681023
vn -0.5814153 0.566466 -0.5840142
vn -0.790707 0.5216177 -0.3204644
vn -0.5814153 0.566466 -0.5840142
vn -0.5814153 0.566466 -0.5840142
vn -0.790707 0.5216177 -0.3204644
vn -0.8953528 0.439396 -0.07262517
vn -0.790707 0.5216177 -0.3204644
vn -0.790707 0.5216177 -0.3204644
vn -0.8953528 0.439396 -0.07262517
vn -0.9028275 0.4169719 0.1050567
vn -0.8953528 0.439396 -0.07262517
vn -0.8953528 0.439396 -0.07262517
vn -0.9028275 0.4169719 0.1050567
vn -0.8355552 0.4244466 0.3488447
vn -0.9028275 0.4169719 0.1050567
vn -0.9028275 0.4169719 0.1050567
vn -0.8355552 0.4244466 0.3488447
vn -0.6486876 0.4020225 0.6462061
vn -0.8355552 0.4244466 0.3488447
vn -0.8355552 0.4244466 0.3488447
vn -0.6486876 0.4020225 0.6462061
vn -0.3571743 0.3198007 0.8775842
vn -0.6486876 0.4020225 0.6462061
vn -0.6486876 0.4020225 0.6462061
vn -0.3571743 0.3198007 0.8775842
vn -0.09555972 0.2226297 0.9702084
vn -0.3571743 0.3198007 0.8775842
vn -0.3571743 0.3198007 0.8775842
vn -0.09555972 0.2226297 0.9702084
vn 0.3603972 0.3198007 0.8762656
vn 0.3603972 0.3198007 0.8762656
vn 0.09130788 0.2226297 0.9706178
vn 0.09130788 0.2226297 0.9706178
vn 0.6444359 0.4020225 0.6504462
vn 0.6444359 0.4020225 0.6504462
vn 0.3603972 0.3198007 0.8762656
vn 0.3603972 0.3198007 0.8762656
vn 0.8313034 0.4244466 0.3588589
vn 0.8313034 0.4244466 0.3588589
vn 0.6444359 0.4020225 0.6504462
vn 0.6444359 0.4020225 0.6504462
vn 0.9060504 0.4169719 0.07215977
vn 0.9060504 0.4169719 0.07215977
vn 0.8313034 0.4244466 0.3588589
vn 0.8313034 0.4244466 0.3588589
vn 0.8911011 0.439396 -0.1134461
vn 0.8911011 0.439396 -0.1134461
vn 0.9060504 0.4169719 0.07215977
vn 0.9060504 0.4169719 0.07215977
vn 0.7939299 0.5216177 -0.3123945
vn 0.7939299 0.5216177 -0.3123945
vn 0.8911011 0.439396 -0.1134461
vn 0.8911011 0.439396 -0.1134461
g Tastiera.040_0
f 3/3/3 2/2/2 1/1/1
f 6/6/6 5/5/5 4/4/4
f 9/9/9 8/8/8 7/7/7
f 12/12/12 11/11/11 10/10/10
f 15/15/15 14/14/14 13/13/13
f 18/18/18 17/17/17 16/16/16
f 21/21/21 20/20/20 19/19/19
f 20/20/20 22/22/22 19/19/19
f 22/22/22 20/20/20 23/23/23
f 20/20/20 24/24/24 23/23/23
f 23/23/23 24/24/24 25/25/25
f 24/24/24 26/26/26 25/25/25
f 25/25/25 26/26/26 27/27/27
f 26/26/26 28/28/28 27/27/27
f 27/27/27 28/28/28 29/29/29
f 30/30/30 27/27/27 29/29/29
f 31/31/31 30/30/30 29/29/29
f 32/32/32 31/31/31 29/29/29
f 33/33/33 31/31/31 32/32/32
f 34/34/34 33/33/33 32/32/32
f 33/33/33 34/34/34 35/35/35
f 34/34/34 36/36/36 35/35/35
f 35/35/35 36/36/36 37/37/37
f 38/38/38 35/35/35 37/37/37
f 38/38/38 37/37/37 39/39/39
f 40/40/40 38/38/38 39/39/39
f 40/40/40 39/39/39 41/41/41
f 42/42/42 40/40/40 41/41/41
f 41/41/41 43/43/43 42/42/42
f 43/43/43 44/44/44 42/42/42
f 47/47/47 46/46/46 45/45/45
f 48/48/48 47/47/47 45/45/45
f 51/51/51 50/50/50 49/49/49
f 52/52/52 51/51/51 49/49/49
f 55/55/55 54/54/54 53/53/53
f 56/56/56 55/55/55 53/53/53
f 59/59/59 58/58/58 57/57/57
f 60/60/60 59/59/59 57/57/57
f 63/63/63 62/62/62 61/61/61
f 64/64/64 63/63/63 61/61/61
f 67/67/67 66/66/66 65/65/65
f 68/68/68 67/67/67 65/65/65
f 71/71/71 70/70/70 69/69/69
f 72/72/72 71/71/71 69/69/69
f 75/75/75 74/74/74 73/73/73
f 76/76/76 75/75/75 73/73/73
f 79/79/79 78/78/78 77/77/77
f 80/80/80 79/79/79 77/77/77
f 83/83/83 82/82/82 81/81/81
f 84/84/84 83/83/83 81/81/81
f 87/87/87 86/86/86 85/85/85
f 88/88/88 87/87/87 85/85/85
f 91/91/91 90/90/90 89/89/89
f 92/92/92 91/91/91 89/89/89
f 95/95/95 94/94/94 93/93/93
f 96/96/96 95/95/95 93/93/93
f 99/99/99 98/98/98 97/97/97
f 100/100/100 99/99/99 97/97/97
f 103/103/103 102/102/102 101/101/101
f 104/104/104 103/103/103 101/101/101
f 107/107/107 106/106/106 105/105/105
f 108/108/108 107/107/107 105/105/105
f 111/111/111 110/110/110 109/109/109
f 112/112/112 111/111/111 109/109/109
f 115/115/115 114/114/114 113/113/113
f 116/116/116 115/115/115 113/113/113
f 119/119/119 118/118/118 117/117/117
f 120/120/120 119/119/119 117/117/117
f 123/123/123 122/122/122 121/121/121
f 124/124/124 123/123/123 121/121/121
f 127/127/127 126/126/126 125/125/125
f 128/128/128 127/127/127 125/125/125
f 131/131/131 130/130/130 129/129/129
f 132/132/132 131/131/131 129/129/129
