g Tela_Cavalletto
v -0.2777913 4.162667 -0.1134626
v -0.779784 -1.57587 -0.1134626
v -0.9396615 -1.561906 -0.1134626
v -0.4375806 4.17663 -0.1134626
v 0.2777591 4.162667 -0.1134626
v 0.4376366 4.17663 -0.1134626
v 0.9397177 -1.561906 -0.1134626
v 0.7798401 -1.57587 -0.1134626
v 1.130263 -0.180277 0.08406448
v -1.130207 -0.180277 0.08406448
v -1.130207 -0.01978076 0.08406448
v 1.130263 -0.01978076 0.08406448
v -1.130207 1.609325E-05 -0.0962286
v 1.130263 1.609325E-05 -0.0962286
v 1.130263 1.609325E-05 0.06426764
v -1.130207 1.609325E-05 0.06426764
v -0.9414291 -1.581614 -0.1331711
v -0.9593701 -1.560227 -0.1331711
v -0.9396615 -1.561906 -0.1134626
v -0.779784 -1.57587 -0.1134626
v -0.457289 4.178398 -0.1331711
v -0.4375806 4.17663 -0.1134626
v -0.7815516 -1.595578 -0.1331711
v -0.7601638 -1.577637 -0.1331711
v -0.2777913 4.162667 -0.1134626
v -0.9414291 -1.581614 -0.2936673
v -0.7815516 -1.595578 -0.2936673
v -0.9593701 -1.560227 -0.2936673
v -0.7601638 -1.577637 -0.2936673
v -0.9396615 -1.561906 -0.3134642
v -0.779784 -1.57587 -0.3134642
v -0.2580827 4.160987 -0.2936673
v -0.2580827 4.160987 -0.1331711
v -0.2760237 4.182375 -0.1331711
v -0.4359014 4.196339 -0.1331711
v -0.457289 4.178398 -0.2936673
v -0.4375806 4.17663 -0.3134642
v -0.4359014 4.196339 -0.2936673
v -0.2760237 4.182375 -0.2936673
v -0.2777913 4.162667 -0.3134642
v 0.9413969 -1.581614 -0.1331711
v 0.9397177 -1.561906 -0.1134626
v 0.9593378 -1.560227 -0.1331711
v 0.7815193 -1.595578 -0.1331711
v 0.4376366 4.17663 -0.1134626
v 0.7798401 -1.57587 -0.1134626
v 0.4573451 4.178398 -0.1331711
v 0.9593378 -1.560227 -0.2936673
v 0.4358691 4.196339 -0.1331711
v 0.2777591 4.162667 -0.1134626
v 0.7815193 -1.595578 -0.2936673
v 0.7601316 -1.577637 -0.1331711
v 0.2580506 4.160987 -0.1331711
v 0.2759914 4.182375 -0.1331711
v 0.4358691 4.196339 -0.2936673
v 0.2580506 4.160987 -0.2936673
v 0.4573451 4.178398 -0.2936673
v 0.9413969 -1.581614 -0.2936673
v 0.7601316 -1.577637 -0.2936673
v 0.2759914 4.182375 -0.2936673
v 0.4376366 4.17663 -0.3134642
v 0.9397177 -1.561906 -0.3134642
v 0.7798401 -1.57587 -0.3134642
v 0.2777591 4.162667 -0.3134642
v -1.130207 -0.01978076 -0.1159371
v -1.130207 1.609325E-05 -0.0962286
v -1.150003 -0.01978076 -0.0962286
v 1.130263 -0.01978076 -0.1159371
v -1.130207 1.609325E-05 0.06426764
v 1.130263 1.609325E-05 -0.0962286
v -1.150003 -0.180277 -0.0962286
v -1.150003 -0.01978076 0.06426764
v -1.130207 -0.180277 -0.1159371
v -1.130207 -0.01978076 0.08406448
v 1.130263 1.609325E-05 0.06426764
v -1.130207 -0.180277 0.08406448
v 1.130263 -0.01978076 0.08406448
v 1.149971 -0.01978076 0.06426764
v 1.149971 -0.01978076 -0.0962286
v 1.149971 -0.180277 0.06426764
v 1.130263 -0.180277 0.08406448
v -1.150003 -0.180277 0.06426764
v 1.130263 -0.180277 -0.1159371
v 1.149971 -0.180277 -0.0962286
v 1.130263 -0.1999855 0.06426764
v -1.130207 -0.1999855 0.06426764
v -1.130207 -0.1999855 -0.0962286
v 1.130263 -0.1999855 -0.0962286
v -0.6362565 3.166724 -0.5100191
v -0.6362565 3.186432 -0.4902221
v -0.6600304 3.166724 -0.4902221
v 0.6363126 3.166724 -0.5100191
v -0.6600304 3.006227 -0.4902221
v -0.6362565 3.006227 -0.5100191
v -0.6362565 3.186432 -0.3297259
v -0.6600304 3.166724 -0.3297259
v 0.6363126 3.186432 -0.3297259
v 0.6363126 3.186432 -0.4902221
v -0.6362565 3.166724 -0.3100173
v -0.6600304 3.006227 -0.3297259
v -0.6362565 2.986431 -0.4902221
v -0.6362565 3.006227 -0.3100173
v -0.6362565 2.986431 -0.3297259
v 0.6363126 2.986431 -0.4902221
v 0.6363126 3.006227 -0.5100191
v 0.6599982 3.166724 -0.4902221
v 0.6599982 3.166724 -0.3297259
v 0.6363126 3.006227 -0.3100173
v 0.6363126 3.166724 -0.3100173
v 0.6599982 3.006227 -0.3297259
v 0.6599982 3.006227 -0.4902221
v 0.6363126 2.986431 -0.3297259
vt 0.9937977 0.4799604
vt -0.001299251 0.4769988
vt 0.001168747 0.5584428
vt 0.9962658 0.5614043
vt 1.004163 0.5184612
vt 1.006631 0.4656461
vt 0.01153434 0.4612037
vt 0.009559942 0.5145124
vt 0.9933041 0.3718621
vt 0.006598344 0.3718621
vt 0.006598344 0.4750244
vt 0.9933041 0.4750244
vt 0.01498954 1.000214
vt 0.02436793 1.000214
vt 0.02634233 0.8807634
vt 0.01252154 0.8807634
vt -0.0003120517 0.6231043
vt 0.003143146 0.6477844
vt 0.001168747 0.6255723
vt -0.001299251 0.4049333
vt 0.9942913 0.6586435
vt 0.9962658 0.6334699
vt -0.00278005 0.4029589
vt 0.0001815481 0.3733429
vt 0.9937977 0.4128309
vt 0.01202794 0.5836164
vt 0.009559942 0.3698877
vt 0.01548314 0.6078027
vt 0.01252154 0.3417525
vt 0.01647034 0.5767059
vt 0.01400234 0.3639645
vt 0.9735601 0.3738365
vt 0.9913297 0.3842021
vt 0.994785 0.4088821
vt 0.9972528 0.6290275
vt 0.9765217 0.6398867
vt 0.9740537 0.6112579
vt 0.9794834 0.6112579
vt 0.9770154 0.3975293
vt 0.9720793 0.3985165
vt 0.01005354 0.3733429
vt 0.01153434 0.3708749
vt 0.01350874 0.3486629
vt 0.007585543 0.5934883
vt 1.006631 0.3881509
vt 0.009559942 0.5920075
vt 1.004657 0.3629773
vt 0.02584873 0.3876573
vt 1.007618 0.3925933
vt 1.004163 0.6092836
vt 0.01992553 0.6255723
vt 0.01054714 0.6231043
vt 1.001695 0.6374187
vt 1.00515 0.6127387
vt 0.989849 0.4093757
vt 0.9844193 0.6472907
vt 0.9868873 0.3807469
vt 0.02239353 0.4118437
vt 0.02288713 0.6542011
vt 0.9878745 0.6231043
vt 0.9844193 0.4088821
vt 0.02683593 0.4187541
vt 0.02486153 0.6314956
vt 0.9824449 0.6221172
vt 0.02584873 0.9301233
vt 0.02387433 1.000214
vt 0.01597674 0.9158089
vt 0.9745473 0.9301233
vt 0.008572742 0.8807634
vt 0.9760281 1.000214
vt 0.01597674 0.2311862
vt 0.0001815481 0.7938899
vt 0.02584873 0.2479686
vt 0.006598344 0.7780946
vt 0.9913297 0.8807634
vt 0.006598344 0.0687919
vt 0.9933041 0.7780946
vt 1.000214 0.7938899
vt 0.9844193 0.9158089
vt 1.000214 0.08705509
vt 0.9933041 0.0687919
vt 0.0001815481 0.08705509
vt 0.9745473 0.2479686
vt 0.9844193 0.2311862
vt 0.9913297 0.0001815481
vt 0.008572742 0.0001815481
vt 0.02387433 0.1467807
vt 0.9760281 0.1467807
vt 0.03374633 0.6388996
vt 0.03226553 0.7425555
vt 0.01498954 0.6695027
vt 0.9666498 0.6388996
vt 0.01498954 0.0732343
vt 0.03374633 0.04509912
vt 0.01795114 1.000214
vt 0.0001815481 0.9242002
vt 0.9819514 1.000214
vt 0.9681305 0.7425555
vt 0.01597674 0.9567777
vt 0.0001815481 0.3106557
vt 0.03226553 0.0001815481
vt 0.01597674 0.3407653
vt 0.01795114 0.235135
vt 0.9681305 0.0001815481
vt 0.9666498 0.04509912
vt 0.9859002 0.6695027
vt 1.000214 0.9242002
vt 0.9839257 0.3407653
vt 0.9839257 0.9567777
vt 1.000214 0.3106557
vt 0.9859002 0.0732343
vt 0.9819514 0.235135
vn 0.3714231 0.3077505 0.8759763
vn 0.3077505 -0.3714231 0.8759763
vn -0.3714231 -0.3077505 0.8759763
vn -0.3077505 0.3714231 0.8759763
vn -0.3714231 0.3077505 0.8759763
vn 0.3077505 0.3714231 0.8759763
vn 0.3714231 -0.3077505 0.8759763
vn -0.3077505 -0.3714231 0.8759763
vn 0.3431242 -0.3431242 0.874375
vn -0.3431242 -0.3431242 0.874375
vn -0.3431242 0.3431242 0.874375
vn 0.3431242 0.3431242 0.874375
vn -0.3431242 0.8737286 -0.3447669
vn 0.3431242 0.8737286 -0.3447669
vn 0.3431242 0.8737286 0.3447669
vn -0.3431242 0.8737286 0.3447669
vn -0.4138715 -0.8454297 0.3375783
vn -0.9020274 -0.2653022 0.3405309
vn -0.3714231 -0.3077505 0.8759763
vn 0.3077505 -0.3714231 0.8759763
vn -0.8454296 0.4138715 0.3375785
vn -0.3077505 0.3714231 0.8759763
vn 0.2653022 -0.9020274 0.3405309
vn 0.8454297 -0.4138714 0.3375784
vn 0.3714231 0.3077505 0.8759763
vn -0.4138715 -0.8454297 -0.3375783
vn 0.2653022 -0.9020274 -0.3405309
vn -0.9020274 -0.2653022 -0.3405309
vn 0.8454297 -0.4138714 -0.3375784
vn -0.3714231 -0.3077505 -0.8759763
vn 0.3077505 -0.3714231 -0.8759763
vn 0.9020274 0.2653022 -0.3405308
vn 0.9020274 0.2653022 0.3405308
vn 0.4138714 0.8454296 0.3375785
vn -0.2653022 0.9020274 0.3405308
vn -0.8454296 0.4138715 -0.3375785
vn -0.3077505 0.3714231 -0.8759763
vn -0.2653022 0.9020274 -0.3405308
vn 0.4138714 0.8454296 -0.3375785
vn 0.3714231 0.3077505 -0.8759763
vn 0.4138714 -0.8454297 0.3375783
vn 0.3714231 -0.3077505 0.8759763
vn 0.9020274 -0.2653022 0.3405309
vn -0.2653022 -0.9020274 0.3405308
vn 0.3077505 0.3714231 0.8759763
vn -0.3077505 -0.3714231 0.8759763
vn 0.8454297 0.4138715 0.3375783
vn 0.9020274 -0.2653022 -0.3405309
vn 0.2653022 0.9020274 0.3405309
vn -0.3714231 0.3077505 0.8759763
vn -0.2653022 -0.9020274 -0.3405308
vn -0.8454296 -0.4138714 0.3375785
vn -0.9020274 0.2653022 0.3405308
vn -0.4138715 0.8454296 0.3375785
vn 0.2653022 0.9020274 -0.3405309
vn -0.9020274 0.2653022 -0.3405308
vn 0.8454297 0.4138715 -0.3375783
vn 0.4138714 -0.8454297 -0.3375783
vn -0.8454296 -0.4138714 -0.3375785
vn -0.4138715 0.8454296 -0.3375785
vn 0.3077505 0.3714231 -0.8759763
vn 0.3714231 -0.3077505 -0.8759763
vn -0.3077505 -0.3714231 -0.8759763
vn -0.3714231 0.3077505 -0.8759763
vn -0.3431242 0.3431242 -0.874375
vn -0.3431242 0.8737286 -0.3447669
vn -0.8737286 0.3431242 -0.3447668
vn 0.3431242 0.3431242 -0.874375
vn -0.3431242 0.8737286 0.3447669
vn 0.3431242 0.8737286 -0.3447669
vn -0.8737286 -0.3431242 -0.3447669
vn -0.8737286 0.3431242 0.3447668
vn -0.3431242 -0.3431242 -0.874375
vn -0.3431242 0.3431242 0.874375
vn 0.3431242 0.8737286 0.3447669
vn -0.3431242 -0.3431242 0.874375
vn 0.3431242 0.3431242 0.874375
vn 0.8737285 0.3431242 0.344767
vn 0.8737285 0.3431242 -0.344767
vn 0.8737285 -0.3431242 0.344767
vn 0.3431242 -0.3431242 0.874375
vn -0.8737286 -0.3431242 0.3447669
vn 0.3431242 -0.3431242 -0.874375
vn 0.8737285 -0.3431242 -0.344767
vn 0.3431242 -0.8737285 0.344767
vn -0.3431242 -0.8737285 0.344767
vn -0.3431242 -0.8737285 -0.344767
vn 0.3431242 -0.8737285 -0.344767
vn -0.3077505 0.3501989 -0.8846753
vn -0.3077505 0.887878 -0.3419974
vn -0.8525043 0.3714231 -0.367806
vn 0.3077505 0.3501989 -0.8846753
vn -0.8525043 -0.3714231 -0.367806
vn -0.3077505 -0.3501989 -0.8846753
vn -0.3077505 0.887878 0.3419974
vn -0.8525043 0.3714231 0.367806
vn 0.3077505 0.887878 0.3419974
vn 0.3077505 0.887878 -0.3419974
vn -0.3077505 0.3501989 0.8846753
vn -0.8525043 -0.3714231 0.367806
vn -0.3077505 -0.887878 -0.3419974
vn -0.3077505 -0.3501989 0.8846753
vn -0.3077505 -0.887878 0.3419974
vn 0.3077505 -0.887878 -0.3419974
vn 0.3077505 -0.3501989 -0.8846753
vn 0.8525044 0.3714231 -0.3678059
vn 0.8525044 0.3714231 0.3678059
vn 0.3077505 -0.3501989 0.8846753
vn 0.3077505 0.3501989 0.8846753
vn 0.8525044 -0.3714231 0.3678059
vn 0.8525044 -0.3714231 -0.3678059
vn 0.3077505 -0.887878 0.3419974
g Tela_Cavalletto_0
f 3/3/3 2/2/2 1/1/1
f 4/4/4 3/3/3 1/1/1
f 7/7/7 6/6/6 5/5/5
f 8/8/8 7/7/7 5/5/5
f 11/11/11 10/10/10 9/9/9
f 12/12/12 11/11/11 9/9/9
f 15/15/15 14/14/14 13/13/13
f 16/16/16 15/15/15 13/13/13
f 19/19/19 18/18/18 17/17/17
f 19/19/19 17/17/17 20/20/20
f 21/21/21 18/18/18 19/19/19
f 22/22/22 21/21/21 19/19/19
f 17/17/17 23/23/23 20/20/20
f 23/23/23 24/24/24 20/20/20
f 20/20/20 24/24/24 25/25/25
f 17/17/17 18/18/18 26/26/26
f 23/23/23 17/17/17 27/27/27
f 17/17/17 26/26/26 27/27/27
f 18/18/18 28/28/28 26/26/26
f 18/18/18 21/21/21 28/28/28
f 29/29/29 24/24/24 23/23/23
f 27/27/27 29/29/29 23/23/23
f 27/27/27 26/26/26 30/30/30
f 26/26/26 28/28/28 30/30/30
f 29/29/29 27/27/27 31/31/31
f 31/31/31 27/27/27 30/30/30
f 24/24/24 29/29/29 32/32/32
f 32/32/32 29/29/29 31/31/31
f 24/24/24 33/33/33 25/25/25
f 33/33/33 24/24/24 32/32/32
f 25/25/25 34/34/34 22/22/22
f 33/33/33 34/34/34 25/25/25
f 35/35/35 21/21/21 22/22/22
f 34/34/34 35/35/35 22/22/22
f 21/21/21 36/36/36 28/28/28
f 36/36/36 21/21/21 35/35/35
f 30/30/30 28/28/28 37/37/37
f 31/31/31 30/30/30 37/37/37
f 28/28/28 36/36/36 37/37/37
f 38/38/38 36/36/36 35/35/35
f 35/35/35 34/34/34 38/38/38
f 36/36/36 38/38/38 37/37/37
f 39/39/39 34/34/34 33/33/33
f 32/32/32 39/39/39 33/33/33
f 34/34/34 39/39/39 38/38/38
f 40/40/40 32/32/32 31/31/31
f 40/40/40 31/31/31 37/37/37
f 37/37/37 38/38/38 40/40/40
f 39/39/39 32/32/32 40/40/40
f 38/38/38 39/39/39 40/40/40
f 43/43/43 42/42/42 41/41/41
f 41/41/41 42/42/42 44/44/44
f 45/45/45 42/42/42 43/43/43
f 42/42/42 46/46/46 44/44/44
f 47/47/47 45/45/45 43/43/43
f 43/43/43 41/41/41 48/48/48
f 47/47/47 43/43/43 48/48/48
f 47/47/47 49/49/49 45/45/45
f 50/50/50 45/45/45 49/49/49
f 41/41/41 44/44/44 51/51/51
f 52/52/52 44/44/44 46/46/46
f 51/51/51 44/44/44 52/52/52
f 46/46/46 50/50/50 53/53/53
f 52/52/52 46/46/46 53/53/53
f 54/54/54 50/50/50 49/49/49
f 54/54/54 53/53/53 50/50/50
f 55/55/55 49/49/49 47/47/47
f 54/54/54 49/49/49 55/55/55
f 52/52/52 53/53/53 56/56/56
f 56/56/56 53/53/53 54/54/54
f 57/57/57 47/47/47 48/48/48
f 57/57/57 55/55/55 47/47/47
f 41/41/41 58/58/58 48/48/48
f 58/58/58 41/41/41 51/51/51
f 59/59/59 51/51/51 52/52/52
f 59/59/59 52/52/52 56/56/56
f 60/60/60 54/54/54 55/55/55
f 60/60/60 56/56/56 54/54/54
f 55/55/55 57/57/57 61/61/61
f 55/55/55 61/61/61 60/60/60
f 48/48/48 62/62/62 57/57/57
f 48/48/48 58/58/58 62/62/62
f 62/62/62 61/61/61 57/57/57
f 51/51/51 63/63/63 58/58/58
f 63/63/63 62/62/62 58/58/58
f 51/51/51 59/59/59 63/63/63
f 62/62/62 63/63/63 61/61/61
f 56/56/56 60/60/60 64/64/64
f 56/56/56 64/64/64 59/59/59
f 61/61/61 64/64/64 60/60/60
f 63/63/63 64/64/64 61/61/61
f 64/64/64 63/63/63 59/59/59
f 67/67/67 66/66/66 65/65/65
f 65/65/65 66/66/66 68/68/68
f 69/69/69 66/66/66 67/67/67
f 66/66/66 70/70/70 68/68/68
f 71/71/71 67/67/67 65/65/65
f 72/72/72 69/69/69 67/67/67
f 72/72/72 67/67/67 71/71/71
f 73/73/73 65/65/65 68/68/68
f 73/73/73 71/71/71 65/65/65
f 74/74/74 69/69/69 72/72/72
f 75/75/75 69/69/69 74/74/74
f 74/74/74 72/72/72 76/76/76
f 77/77/77 75/75/75 74/74/74
f 70/70/70 75/75/75 78/78/78
f 78/78/78 75/75/75 77/77/77
f 70/70/70 79/79/79 68/68/68
f 79/79/79 70/70/70 78/78/78
f 80/80/80 78/78/78 77/77/77
f 78/78/78 80/80/80 79/79/79
f 81/81/81 80/80/80 77/77/77
f 82/82/82 72/72/72 71/71/71
f 72/72/72 82/82/82 76/76/76
f 68/68/68 79/79/79 83/83/83
f 83/83/83 73/73/73 68/68/68
f 80/80/80 84/84/84 79/79/79
f 79/79/79 84/84/84 83/83/83
f 85/85/85 80/80/80 81/81/81
f 84/84/84 80/80/80 85/85/85
f 76/76/76 86/86/86 81/81/81
f 82/82/82 86/86/86 76/76/76
f 86/86/86 85/85/85 81/81/81
f 71/71/71 87/87/87 82/82/82
f 87/87/87 71/71/71 73/73/73
f 87/87/87 86/86/86 82/82/82
f 84/84/84 88/88/88 83/83/83
f 88/88/88 84/84/84 85/85/85
f 83/83/83 88/88/88 73/73/73
f 85/85/85 86/86/86 88/88/88
f 86/86/86 87/87/87 88/88/88
f 88/88/88 87/87/87 73/73/73
f 91/91/91 90/90/90 89/89/89
f 89/89/89 90/90/90 92/92/92
f 93/93/93 91/91/91 89/89/89
f 94/94/94 89/89/89 92/92/92
f 94/94/94 93/93/93 89/89/89
f 95/95/95 90/90/90 91/91/91
f 96/96/96 91/91/91 93/93/93
f 96/96/96 95/95/95 91/91/91
f 95/95/95 97/97/97 90/90/90
f 90/90/90 98/98/98 92/92/92
f 97/97/97 98/98/98 90/90/90
f 99/99/99 95/95/95 96/96/96
f 97/97/97 95/95/95 99/99/99
f 100/100/100 96/96/96 93/93/93
f 101/101/101 93/93/93 94/94/94
f 93/93/93 101/101/101 100/100/100
f 96/96/96 100/100/100 102/102/102
f 99/99/99 96/96/96 102/102/102
f 101/101/101 103/103/103 100/100/100
f 100/100/100 103/103/103 102/102/102
f 104/104/104 101/101/101 94/94/94
f 103/103/103 101/101/101 104/104/104
f 105/105/105 94/94/94 92/92/92
f 105/105/105 104/104/104 94/94/94
f 98/98/98 106/106/106 92/92/92
f 92/92/92 106/106/106 105/105/105
f 98/98/98 97/97/97 107/107/107
f 106/106/106 98/98/98 107/107/107
f 99/99/99 102/102/102 108/108/108
f 102/102/102 103/103/103 108/108/108
f 109/109/109 97/97/97 99/99/99
f 107/107/107 97/97/97 109/109/109
f 109/109/109 99/99/99 108/108/108
f 110/110/110 107/107/107 109/109/109
f 107/107/107 110/110/110 106/106/106
f 108/108/108 110/110/110 109/109/109
f 106/106/106 111/111/111 105/105/105
f 111/111/111 104/104/104 105/105/105
f 110/110/110 111/111/111 106/106/106
f 112/112/112 103/103/103 104/104/104
f 103/103/103 112/112/112 108/108/108
f 104/104/104 111/111/111 112/112/112
f 112/112/112 110/110/110 108/108/108
f 111/111/111 110/110/110 112/112/112
