g TrancioTronco
v -0.5000225 1.207347 -1.471161
v -0.5000225 0.9259554 -1.38581
v 3.576279E-07 0.9259554 -1.38581
v 3.576279E-07 1.207347 -1.471161
v 3.576279E-07 0.666674 -1.247174
v -0.5000225 1.5 -1.500001
v -0.5000225 0.666674 -1.247174
v 3.576279E-07 1.5 -1.500001
v 3.576279E-07 0.4393222 -1.060678
v -0.5000225 1.792653 -1.471161
v -0.5000225 0.4393222 -1.060678
v 3.576279E-07 1.792653 -1.471161
v 3.576279E-07 0.2528265 -0.8333262
v -0.5000225 2.074044 -1.38581
v -0.5000225 0.2528265 -0.8333262
v 3.576279E-07 2.074044 -1.38581
v 3.576279E-07 0.1141906 -0.5740449
v -0.5000225 2.333326 -1.247174
v -0.5000225 0.1141906 -0.5740449
v 3.576279E-07 2.333326 -1.247174
v 3.576279E-07 0.02883923 -0.2926532
v -0.5000225 2.560678 -1.060678
v -0.5000225 0.02883923 -0.2926532
v 3.576279E-07 2.560678 -1.060678
v 3.576279E-07 -3.576279E-07 -3.576279E-07
v -0.5000225 2.747173 -0.8333262
v -0.5000225 -3.576279E-07 -3.576279E-07
v 3.576279E-07 2.747173 -0.8333262
v 3.576279E-07 0.02883923 0.2926525
v -0.5000225 2.885809 -0.5740449
v -0.5000225 0.02883923 0.2926525
v 3.576279E-07 2.885809 -0.5740449
v 3.576279E-07 0.1141906 0.5740441
v -0.5000225 2.971161 -0.2926532
v -0.5000225 0.1141906 0.5740441
v 3.576279E-07 2.971161 -0.2926532
v 3.576279E-07 0.2528265 0.8333255
v -0.5000225 3 -3.576279E-07
v -0.5000225 0.2528265 0.8333255
v 3.576279E-07 3 -3.576279E-07
v 3.576279E-07 0.4393222 1.060677
v -0.5000225 2.971161 0.2926525
v -0.5000225 0.4393222 1.060677
v 3.576279E-07 2.971161 0.2926525
v 3.576279E-07 0.666674 1.247173
v -0.5000225 2.885809 0.5740441
v -0.5000225 0.666674 1.247173
v 3.576279E-07 2.885809 0.5740441
v 3.576279E-07 0.9259554 1.385809
v -0.5000225 2.747173 0.8333255
v -0.5000225 0.9259554 1.385809
v 3.576279E-07 2.747173 0.8333255
v 3.576279E-07 1.207347 1.47116
v -0.5000225 2.560678 1.060677
v -0.5000225 1.207347 1.47116
v 3.576279E-07 2.560678 1.060677
v 3.576279E-07 1.5 1.5
v -0.5000225 2.333326 1.247173
v -0.5000225 1.5 1.5
v 3.576279E-07 2.333326 1.247173
v 3.576279E-07 1.792653 1.47116
v -0.5000225 2.074044 1.385809
v -0.5000225 1.792653 1.47116
v 3.576279E-07 2.074044 1.385809
v -0.5000225 1.5 -1.500001
v -0.5000225 1.792653 -1.471161
v -0.5000225 1.5 -3.576279E-07
v -0.5000225 1.207347 -1.471161
v -0.5000225 2.074044 -1.38581
v -0.5000225 0.9259554 -1.38581
v -0.5000225 2.333326 -1.247174
v -0.5000225 0.666674 -1.247174
v -0.5000225 2.560678 -1.060678
v -0.5000225 0.4393222 -1.060678
v -0.5000225 2.747173 -0.8333262
v -0.5000225 0.2528265 -0.8333262
v -0.5000225 2.885809 -0.5740449
v -0.5000225 0.1141906 -0.5740449
v -0.5000225 2.971161 -0.2926532
v -0.5000225 0.02883923 -0.2926532
v -0.5000225 3 -3.576279E-07
v -0.5000225 -3.576279E-07 -3.576279E-07
v -0.5000225 2.971161 0.2926525
v -0.5000225 0.02883923 0.2926525
v -0.5000225 2.885809 0.5740441
v -0.5000225 0.1141906 0.5740441
v -0.5000225 2.747173 0.8333255
v -0.5000225 0.2528265 0.8333255
v -0.5000225 2.560678 1.060677
v -0.5000225 0.4393222 1.060677
v -0.5000225 2.333326 1.247173
v -0.5000225 0.666674 1.247173
v -0.5000225 2.074044 1.385809
v -0.5000225 0.9259554 1.385809
v -0.5000225 1.792653 1.47116
v -0.5000225 1.207347 1.47116
v -0.5000225 1.5 1.5
v 3.576279E-07 1.5 1.5
v 3.576279E-07 1.792653 1.47116
v 3.576279E-07 1.5 -3.576279E-07
v 3.576279E-07 1.207347 1.47116
v 3.576279E-07 2.074044 1.385809
v 3.576279E-07 0.9259554 1.385809
v 3.576279E-07 2.333326 1.247173
v 3.576279E-07 0.666674 1.247173
v 3.576279E-07 2.560678 1.060677
v 3.576279E-07 0.4393222 1.060677
v 3.576279E-07 2.747173 0.8333255
v 3.576279E-07 0.2528265 0.8333255
v 3.576279E-07 2.885809 0.5740441
v 3.576279E-07 0.1141906 0.5740441
v 3.576279E-07 2.971161 0.2926525
v 3.576279E-07 0.02883923 0.2926525
v 3.576279E-07 3 -3.576279E-07
v 3.576279E-07 -3.576279E-07 -3.576279E-07
v 3.576279E-07 2.971161 -0.2926532
v 3.576279E-07 0.02883923 -0.2926532
v 3.576279E-07 2.885809 -0.5740449
v 3.576279E-07 0.1141906 -0.5740449
v 3.576279E-07 2.747173 -0.8333262
v 3.576279E-07 0.2528265 -0.8333262
v 3.576279E-07 2.560678 -1.060678
v 3.576279E-07 0.4393222 -1.060678
v 3.576279E-07 2.333326 -1.247174
v 3.576279E-07 0.666674 -1.247174
v 3.576279E-07 2.074044 -1.38581
v 3.576279E-07 0.9259554 -1.38581
v 3.576279E-07 1.792653 -1.471161
v 3.576279E-07 1.207347 -1.471161
v 3.576279E-07 1.5 -1.500001
vt 0.4009883 0.01341572
vt 0.3082183 0.01341572
vt 0.3082183 0.9871576
vt 0.4009883 0.9871576
vt 0.2230073 0.9871576
vt 0.4971943 0.01341572
vt 0.2230073 0.01341572
vt 0.4971943 0.9871576
vt 0.1268014 0.9871576
vt 0.5940875 0.01341572
vt 0.1268014 0.01341572
vt 0.5940875 0.9871576
vt 0.04159035 0.9871576
vt 0.6868575 0.01341572
vt 0.04159035 0.01341572
vt 0.6868575 0.9871576
vt -0.04980534 0.9871576
vt 0.7720686 0.01341572
vt -0.04980534 0.01341572
vt 0.7720686 0.9871576
vt -0.1357035 0.9871576
vt 0.8469718 0.01341572
vt -0.1357035 0.01341572
vt 0.8469718 0.9871576
vt -0.229848 0.9871576
vt 0.9438649 0.01341572
vt -0.229848 0.01341572
vt 0.9438649 0.9871576
vt -0.1357035 0.9871576
vt 1.022891 0.01341572
vt -0.1357035 0.01341572
vt 1.022891 0.9871576
vt -0.04980534 0.9871576
vt 1.092984 0.01341572
vt -0.04980534 0.01341572
vt 1.092984 0.9871576
vt 0.04159035 0.9871576
vt 1.176821 0.01341572
vt 0.04159035 0.01341572
vt 1.176821 0.9871576
vt 0.1268014 0.9871576
vt 1.092984 0.01341572
vt 0.1268014 0.01341572
vt 1.092984 0.9871576
vt 0.2230073 0.9871576
vt 1.022891 0.01341572
vt 0.2230073 0.01341572
vt 1.022891 0.9871576
vt 0.3082183 0.9871576
vt 0.9438649 0.01341572
vt 0.3082183 0.01341572
vt 0.9438649 0.9871576
vt 0.4009883 0.9871576
vt 0.8469718 0.01341572
vt 0.4009883 0.01341572
vt 0.8469718 0.9871576
vt 0.4971943 0.9871576
vt 0.7720686 0.01341572
vt 0.4971943 0.01341572
vt 0.7720686 0.9871576
vt 0.5940875 0.9871576
vt 0.6868575 0.01341572
vt 0.5940875 0.01341572
vt 0.6868575 0.9871576
vt 0.002420753 -0.001702353
vt 0.02097477 0.192084
vt 0.9974654 -0.001702353
vt 0.02097477 0.1934583
vt 0.07801117 0.3783112
vt 0.07801117 0.3796856
vt 0.1694068 0.5501076
vt 0.1694068 0.551482
vt 0.2931002 0.7006013
vt 0.2931002 0.7019756
vt 0.4435939 0.8242946
vt 0.4435939 0.825669
vt 0.6153902 0.9163775
vt 0.6153902 0.9170647
vt 0.8016176 0.9727268
vt 0.8016176 0.9741011
vt 0.9974654 0.991968
vt 0.9974654 0.9926551
vt 0.803679 0.9727268
vt 0.803679 0.9741011
vt 0.6167646 0.9163775
vt 0.6167646 0.9170647
vt 0.4456554 0.8242946
vt 0.4456554 0.825669
vt 0.2944746 0.7006013
vt 0.2944746 0.7019756
vt 0.1714684 0.5501076
vt 0.1714684 0.551482
vt 0.07938553 0.3783112
vt 0.07938553 0.3796856
vt 0.02303632 0.192084
vt 0.02303632 0.1934583
vt 0.003795132 -0.001702353
vt 0.003795132 -0.001702353
vt 0.02303632 0.192084
vt 0.9974654 -0.001702353
vt 0.02303632 0.1934583
vt 0.07938553 0.3783112
vt 0.07938553 0.3796856
vt 0.1714684 0.5501076
vt 0.1714684 0.551482
vt 0.2944746 0.7006013
vt 0.2944746 0.7019756
vt 0.4456554 0.8242946
vt 0.4456554 0.825669
vt 0.6167646 0.9163775
vt 0.6167646 0.9170647
vt 0.803679 0.9727268
vt 0.803679 0.9741011
vt 0.9974654 0.991968
vt 0.9974654 0.9926551
vt 0.8016176 0.9727268
vt 0.8016176 0.9741011
vt 0.6153902 0.9163775
vt 0.6153902 0.9170647
vt 0.4435939 0.8242946
vt 0.4435939 0.825669
vt 0.2931002 0.7006013
vt 0.2931002 0.7019756
vt 0.1694068 0.5501076
vt 0.1694068 0.551482
vt 0.07801117 0.3783112
vt 0.07801117 0.3796856
vt 0.02097477 0.192084
vt 0.02097477 0.1934583
vt 0.002420753 -0.001702353
vn -0.003921509 -0.1921554 -0.9813567
vn -0.003921509 -0.3803893 -0.9248182
vn -0.003921509 -0.3803893 -0.9248182
vn -0.003921509 -0.1921554 -0.9813567
vn -0.003921509 -0.552937 -0.8332139
vn -0.003921509 0.003921509 -0.9999846
vn -0.003921509 -0.552937 -0.8332139
vn -0.003921509 0.003921509 -0.9999846
vn -0.003921509 -0.7097985 -0.7043939
vn -0.003921509 0.1921554 -0.9813567
vn -0.003921509 -0.7097985 -0.7043939
vn -0.003921509 0.1921554 -0.9813567
vn -0.003921509 -0.8352877 -0.549799
vn -0.003921509 0.3803892 -0.9248182
vn -0.003921509 -0.8352877 -0.549799
vn -0.003921509 0.3803892 -0.9248182
vn -0.003921509 -0.9215616 -0.3882124
vn -0.003921509 0.5529369 -0.8332139
vn -0.003921509 -0.9215616 -0.3882124
vn -0.003921509 0.5529369 -0.8332139
vn -0.003921509 -0.9843062 -0.1764254
vn -0.003921509 0.7097985 -0.7043939
vn -0.003921509 -0.9843062 -0.1764254
vn -0.003921509 0.7097985 -0.7043939
vn -0.003921509 -0.9999924 0
vn -0.003921509 0.8352877 -0.5497991
vn -0.003921509 -0.9999924 0
vn -0.003921509 0.8352877 -0.5497991
vn -0.003921509 -0.9843062 0.1764254
vn -0.003921509 0.9215615 -0.3882126
vn -0.003921509 -0.9843062 0.1764254
vn -0.003921509 0.9215615 -0.3882126
vn -0.003921509 -0.9215616 0.3882124
vn -0.003921509 0.9843061 -0.176426
vn -0.003921509 -0.9215616 0.3882124
vn -0.003921509 0.9843061 -0.176426
vn -0.003921509 -0.8352877 0.549799
vn -0.003921509 0.9999923 -0.000345267
vn -0.003921509 -0.8352877 0.549799
vn -0.003921509 0.9999923 -0.000345267
vn -0.003921509 -0.7097985 0.7043939
vn -0.003921509 0.9843061 0.176426
vn -0.003921509 -0.7097985 0.7043939
vn -0.003921509 0.9843061 0.176426
vn -0.003921509 -0.552937 0.8332139
vn -0.003921509 0.9215615 0.3882126
vn -0.003921509 -0.552937 0.8332139
vn -0.003921509 0.9215615 0.3882126
vn -0.003921509 -0.3803893 0.9248182
vn -0.003921509 0.8352877 0.5497991
vn -0.003921509 -0.3803893 0.9248182
vn -0.003921509 0.8352877 0.5497991
vn -0.003921509 -0.1921554 0.9813567
vn -0.003921509 0.7097985 0.7043939
vn -0.003921509 -0.1921554 0.9813567
vn -0.003921509 0.7097985 0.7043939
vn -0.003921509 0.003921509 0.9999846
vn -0.003921509 0.5529369 0.8332139
vn -0.003921509 0.003921509 0.9999846
vn -0.003921509 0.5529369 0.8332139
vn -0.003921509 0.1921554 0.9813567
vn -0.003921509 0.3803892 0.9248182
vn -0.003921509 0.1921554 0.9813567
vn -0.003921509 0.3803892 0.9248182
vn -0.9999923 0.003921509 -0.0003449296
vn -0.9999923 0.003921509 -0.0003449296
vn -0.9999923 0.003921509 -0.0003449296
vn -0.9999923 0.003921509 -0.0003449296
vn -0.9999923 0.003921509 -0.0003449296
vn -0.9999923 0.003921509 -0.0003449296
vn -0.9999923 0.003921509 -0.0003449296
vn -0.9999923 0.003921509 -0.0003449296
vn -0.9999923 0.003921509 -0.0003449296
vn -0.9999923 0.003921509 -0.0003449296
vn -0.9999923 0.003921509 -0.0003449296
vn -0.9999923 0.003921509 -0.0003449296
vn -0.9999923 0.003921509 -0.0003449296
vn -0.9999923 0.003921509 -0.0003449296
vn -0.9999923 0.003921509 -0.0003449296
vn -0.9999923 0.003921509 -0.0003449296
vn -0.9999923 0.003921509 -0.0003449296
vn -0.9999923 0.003921509 -0.0003449296
vn -0.9999923 0.003921509 -0.0003449296
vn -0.9999923 0.003921509 -0.0003449296
vn -0.9999923 0.003921509 -0.0003449296
vn -0.9999923 0.003921509 -0.0003449296
vn -0.9999923 0.003921509 -0.0003449296
vn -0.9999923 0.003921509 -0.0003449296
vn -0.9999923 0.003921509 -0.0003449296
vn -0.9999923 0.003921509 -0.0003449296
vn -0.9999923 0.003921509 -0.0003449296
vn -0.9999923 0.003921509 -0.0003449296
vn -0.9999923 0.003921509 -0.0003449296
vn -0.9999923 0.003921509 -0.0003449296
vn -0.9999923 0.003921509 -0.0003449296
vn -0.9999923 0.003921509 -0.0003449296
vn -0.9999923 0.003921509 -0.0003449296
vn 0.9999924 0.003921509 0
vn 0.9999924 0.003921509 0
vn 0.9999924 0.003921509 0
vn 0.9999924 0.003921509 0
vn 0.9999924 0.003921509 0
vn 0.9999924 0.003921509 0
vn 0.9999924 0.003921509 0
vn 0.9999924 0.003921509 0
vn 0.9999924 0.003921509 0
vn 0.9999924 0.003921509 0
vn 0.9999924 0.003921509 0
vn 0.9999924 0.003921509 0
vn 0.9999924 0.003921509 0
vn 0.9999924 0.003921509 0
vn 0.9999924 0.003921509 0
vn 0.9999924 0.003921509 0
vn 0.9999924 0.003921509 0
vn 0.9999924 0.003921509 0
vn 0.9999924 0.003921509 0
vn 0.9999924 0.003921509 0
vn 0.9999924 0.003921509 0
vn 0.9999924 0.003921509 0
vn 0.9999924 0.003921509 0
vn 0.9999924 0.003921509 0
vn 0.9999924 0.003921509 0
vn 0.9999924 0.003921509 0
vn 0.9999924 0.003921509 0
vn 0.9999924 0.003921509 0
vn 0.9999924 0.003921509 0
vn 0.9999924 0.003921509 0
vn 0.9999924 0.003921509 0
vn 0.9999924 0.003921509 0
vn 0.9999924 0.003921509 0
g TrancioTronco_0
f 3/3/3 2/2/2 1/1/1
f 4/4/4 3/3/3 1/1/1
f 3/3/3 5/5/5 2/2/2
f 4/4/4 1/1/1 6/6/6
f 5/5/5 7/7/7 2/2/2
f 8/8/8 4/4/4 6/6/6
f 5/5/5 9/9/9 7/7/7
f 8/8/8 6/6/6 10/10/10
f 9/9/9 11/11/11 7/7/7
f 12/12/12 8/8/8 10/10/10
f 9/9/9 13/13/13 11/11/11
f 12/12/12 10/10/10 14/14/14
f 13/13/13 15/15/15 11/11/11
f 16/16/16 12/12/12 14/14/14
f 13/13/13 17/17/17 15/15/15
f 16/16/16 14/14/14 18/18/18
f 17/17/17 19/19/19 15/15/15
f 20/20/20 16/16/16 18/18/18
f 17/17/17 21/21/21 19/19/19
f 20/20/20 18/18/18 22/22/22
f 21/21/21 23/23/23 19/19/19
f 24/24/24 20/20/20 22/22/22
f 21/21/21 25/25/25 23/23/23
f 24/24/24 22/22/22 26/26/26
f 25/25/25 27/27/27 23/23/23
f 28/28/28 24/24/24 26/26/26
f 25/25/25 29/29/29 27/27/27
f 28/28/28 26/26/26 30/30/30
f 29/29/29 31/31/31 27/27/27
f 32/32/32 28/28/28 30/30/30
f 29/29/29 33/33/33 31/31/31
f 32/32/32 30/30/30 34/34/34
f 33/33/33 35/35/35 31/31/31
f 36/36/36 32/32/32 34/34/34
f 33/33/33 37/37/37 35/35/35
f 36/36/36 34/34/34 38/38/38
f 37/37/37 39/39/39 35/35/35
f 40/40/40 36/36/36 38/38/38
f 37/37/37 41/41/41 39/39/39
f 40/40/40 38/38/38 42/42/42
f 41/41/41 43/43/43 39/39/39
f 44/44/44 40/40/40 42/42/42
f 41/41/41 45/45/45 43/43/43
f 44/44/44 42/42/42 46/46/46
f 45/45/45 47/47/47 43/43/43
f 48/48/48 44/44/44 46/46/46
f 45/45/45 49/49/49 47/47/47
f 48/48/48 46/46/46 50/50/50
f 49/49/49 51/51/51 47/47/47
f 52/52/52 48/48/48 50/50/50
f 49/49/49 53/53/53 51/51/51
f 52/52/52 50/50/50 54/54/54
f 53/53/53 55/55/55 51/51/51
f 56/56/56 52/52/52 54/54/54
f 53/53/53 57/57/57 55/55/55
f 56/56/56 54/54/54 58/58/58
f 57/57/57 59/59/59 55/55/55
f 60/60/60 56/56/56 58/58/58
f 57/57/57 61/61/61 59/59/59
f 60/60/60 58/58/58 62/62/62
f 61/61/61 63/63/63 59/59/59
f 64/64/64 60/60/60 62/62/62
f 64/64/64 62/62/62 63/63/63
f 61/61/61 64/64/64 63/63/63
g TrancioTronco_1
f 67/67/67 66/66/66 65/65/65
f 67/67/67 65/65/65 68/68/68
f 67/67/67 69/69/69 66/66/66
f 67/67/67 68/68/68 70/70/70
f 67/67/67 71/71/71 69/69/69
f 67/67/67 70/70/70 72/72/72
f 67/67/67 73/73/73 71/71/71
f 67/67/67 72/72/72 74/74/74
f 67/67/67 75/75/75 73/73/73
f 67/67/67 74/74/74 76/76/76
f 67/67/67 77/77/77 75/75/75
f 67/67/67 76/76/76 78/78/78
f 67/67/67 79/79/79 77/77/77
f 67/67/67 78/78/78 80/80/80
f 79/79/79 67/67/67 81/81/81
f 67/67/67 80/80/80 82/82/82
f 67/67/67 83/83/83 81/81/81
f 67/67/67 82/82/82 84/84/84
f 67/67/67 85/85/85 83/83/83
f 67/67/67 84/84/84 86/86/86
f 67/67/67 87/87/87 85/85/85
f 67/67/67 86/86/86 88/88/88
f 67/67/67 89/89/89 87/87/87
f 67/67/67 88/88/88 90/90/90
f 67/67/67 91/91/91 89/89/89
f 67/67/67 90/90/90 92/92/92
f 67/67/67 93/93/93 91/91/91
f 67/67/67 92/92/92 94/94/94
f 67/67/67 95/95/95 93/93/93
f 67/67/67 94/94/94 96/96/96
f 67/67/67 97/97/97 95/95/95
f 67/67/67 96/96/96 97/97/97
f 100/100/100 99/99/99 98/98/98
f 100/100/100 98/98/98 101/101/101
f 100/100/100 102/102/102 99/99/99
f 100/100/100 101/101/101 103/103/103
f 100/100/100 104/104/104 102/102/102
f 100/100/100 103/103/103 105/105/105
f 100/100/100 106/106/106 104/104/104
f 100/100/100 105/105/105 107/107/107
f 100/100/100 108/108/108 106/106/106
f 100/100/100 107/107/107 109/109/109
f 100/100/100 110/110/110 108/108/108
f 100/100/100 109/109/109 111/111/111
f 100/100/100 112/112/112 110/110/110
f 100/100/100 111/111/111 113/113/113
f 112/112/112 100/100/100 114/114/114
f 100/100/100 113/113/113 115/115/115
f 100/100/100 116/116/116 114/114/114
f 100/100/100 115/115/115 117/117/117
f 100/100/100 118/118/118 116/116/116
f 100/100/100 117/117/117 119/119/119
f 100/100/100 120/120/120 118/118/118
f 100/100/100 119/119/119 121/121/121
f 100/100/100 122/122/122 120/120/120
f 100/100/100 121/121/121 123/123/123
f 100/100/100 124/124/124 122/122/122
f 100/100/100 123/123/123 125/125/125
f 100/100/100 126/126/126 124/124/124
f 100/100/100 125/125/125 127/127/127
f 100/100/100 128/128/128 126/126/126
f 100/100/100 127/127/127 129/129/129
f 100/100/100 130/130/130 128/128/128
f 100/100/100 129/129/129 130/130/130
