g BezierCurve.001
v 3.035637 -3.782204 4.830859
v 3.076665 -3.69973 4.830859
v 3.038932 -3.615164 4.830859
v 2.957323 -3.57049 4.830859
v 2.92695 -3.87857 4.830859
v 2.718891 -3.529955 4.830859
v 2.769311 -3.986686 4.830859
v 2.412507 -4.135099 4.830859
v 2.409292 -3.532279 4.830859
v 2.332849 -3.99083 4.830859
v 2.252121 -3.845537 4.830859
v 2.08975 -3.557952 4.830859
v 1.918006 -4.459692 4.830859
v 2.232493 -4.235118 4.830859
v 2.152069 -4.091275 4.830859
v 2.071341 -3.945983 4.830859
v 1.912917 -3.656205 4.830859
v 1.742935 -4.536436 4.830859
v 1.722332 -3.913971 4.830859
v 1.603699 -4.577821 4.830859
v 1.556823 -4.175627 4.830859
v 1.511999 -4.569095 4.830859
v 1.465298 -4.399494 4.830859
v 1.460123 -4.492385 4.830859
v 0.45948 -1.736084 4.830859
v 0.4541543 -1.800171 4.830859
v 0.4551006 -1.85888 4.830859
v 0.4638146 -1.909554 4.830859
v 0.4695816 -1.669276 4.830859
v 0.4817922 -1.949535 4.830859
v 0.482963 -1.602406 4.830859
v 0.4981286 -1.53813 4.830859
v 0.5135823 -1.479105 4.830859
v 0.5152521 -1.993793 4.830859
v 0.5278286 -1.42799 4.830859
v 0.5393709 -1.387442 4.830859
v 0.5467139 -1.360117 4.830859
v 0.5483614 -1.348674 4.830859
v 0.5564005 -2.041258 4.830859
v 0.6035069 -2.091196 4.830859
v 0.5043814 -0.6775915 4.830859
v 0.53621 -1.327368 4.830859
v 0.5185956 -1.292767 4.830859
v 0.4949394 -1.242138 4.830859
v 0.6075781 -0.8241 4.830859
v 0.6548407 -2.142875 4.830859
v 0.6854596 -0.9322285 4.830859
v 0.7086709 -2.19556 4.830859
v 0.744371 -1.014511 4.830859
v 0.7632667 -2.248519 4.830859
v 0.7887034 -1.078891 4.830859
v 0.38168 -0.5010267 4.830859
v 0.8168973 -2.301018 4.830859
v 0.463824 -1.170452 4.830859
v 0.425329 -1.076875 4.830859
v 0.3750982 -0.9535531 4.830859
v 0.8191744 -1.125758 4.830859
v 0.2534551 -0.3166277 4.830859
v 0.3058237 -0.7884218 4.830859
v 0.2214892 -0.5907928 4.830859
v 0.1389601 -0.155647 4.830859
v 0.1335469 -0.3842626 4.830859
v 0.8392504 -1.158992 4.830859
v 0.8509234 -1.180564 4.830859
v 0.8615098 -1.18521 4.830859
v 0.8678321 -2.352323 4.830859
v 0.8885899 -1.193408 4.830859
v 0.91434 -2.401701 4.830859
v 0.929117 -1.205025 4.830859
v 0.9546906 -2.448419 4.830859
v 0.05590823 -0.04654412 4.830859
v 0.05831702 -0.2016845 4.830859
v 0.01054654 -0.07313412 4.830859
v -0.0003006358 0.002400239 4.830858
v 0.9800444 -1.219929 4.830859
v 0.9871525 -2.491743 4.830859
v 1.009996 -2.53094 4.830859
v 1.033307 -2.580708 4.830859
v 1.038326 -1.237984 4.830859
v 1.059437 -2.635721 4.830859
v 1.088526 -2.693689 4.830859
v 1.100914 -1.259058 4.830859
v 1.120711 -2.752317 4.830859
v 1.15613 -2.809313 4.830859
v 1.164763 -1.283018 4.830859
v 1.194923 -2.862383 4.830859
v 1.226825 -1.309729 4.830859
v 1.237226 -2.909233 4.830859
v 1.28318 -2.947572 4.830859
v 1.284055 -1.339059 4.830859
v 1.332921 -2.975105 4.830859
v 1.333406 -1.370874 4.830859
v 1.371831 -1.40504 4.830859
v 1.386589 -2.989539 4.830859
v 1.396283 -1.441423 4.830859
v 1.416189 -1.493212 4.830859
v 1.434757 -1.553224 4.830859
v 1.444321 -2.988582 4.830859
v 1.452278 -1.6196 4.830859
v 1.469044 -1.690486 4.830859
v 1.485345 -1.764023 4.830859
v 1.501475 -1.838354 4.830859
v 1.506256 -2.969939 4.830859
v 1.517723 -1.911623 4.830859
v 1.520532 -2.991059 4.830859
v 1.534383 -1.981973 4.830859
v 1.551744 -2.047545 4.830859
v 1.556492 -3.051347 4.830859
v 1.570099 -2.106484 4.830859
v 1.589739 -2.156933 4.830859
v 1.610108 -3.143434 4.830859
v 1.610956 -2.197033 4.830859
v 1.6409 -2.243115 4.830859
v 1.67381 -2.294362 4.830859
v 1.677352 -3.25995 4.830859
v 1.707666 -2.349681 4.830859
v 1.721582 -2.850299 4.830859
v 1.740448 -2.407978 4.830859
v 1.731974 -2.873577 4.830859
v 1.770127 -2.807557 4.830859
v 1.770134 -2.468158 4.830859
v 1.794705 -2.52913 4.830859
v 1.801435 -2.759042 4.830859
v 1.812141 -2.589797 4.830859
v 1.817527 -2.705847 4.830859
v 1.820422 -2.649068 4.830859
v 1.754193 -3.393527 4.830859
v 1.76417 -2.935956 4.830859
v 1.814042 -3.030124 4.830859
v 1.836606 -3.536793 4.830859
v 1.877458 -3.148767 4.830859
v 1.920559 -3.682381 4.830859
v 1.95029 -3.284571 4.830859
v 2.002026 -3.822919 4.830859
v 2.028408 -3.430224 4.830859
v 2.076977 -3.951038 4.830859
v 2.107682 -3.578412 4.830859
v 2.141385 -4.059369 4.830859
v 2.183982 -3.72182 4.830859
v 2.19122 -4.140542 4.830859
v 2.222454 -4.187187 4.830859
v 2.253179 -3.853136 4.830859
v 2.287638 -4.19063 4.830859
v 2.288622 -4.190084 4.830859
v 2.291504 -4.188482 4.830859
v 2.296089 -4.185934 4.830859
v 2.302065 -4.182614 4.830859
v 2.309024 -4.178748 4.830859
v 2.311143 -3.965047 4.830859
v 2.316491 -4.174599 4.830859
v 2.323959 -4.170449 4.830859
v 2.330918 -4.166583 4.830859
v 2.336894 -4.163262 4.830859
v 2.34148 -4.160715 4.830859
v 2.344362 -4.159113 4.830859
v 2.345345 -4.158567 4.830859
v 2.353744 -4.05024 4.830859
v 2.376853 -4.101399 4.830859
vt 0.367229 0.9687651
vt 0.3525319 0.9590185
vt 0.350693 0.9413856
vt 0.3599473 0.9261669
vt 0.3944736 0.9743385
vt 0.3955989 0.8966227
vt 0.4309592 0.9771743
vt 0.5043234 0.9676262
vt 0.4471524 0.8673719
vt 0.5037206 0.9360815
vt 0.5031971 0.9042646
vt 0.5025894 0.8410406
vt 0.6173822 0.9741077
vt 0.5437437 0.9669777
vt 0.5433087 0.9354302
vt 0.5427853 0.9036135
vt 0.5413131 0.8404038
vt 0.6537548 0.9700733
vt 0.597586 0.8648976
vt 0.6808015 0.9636067
vt 0.6500739 0.8924365
vt 0.6951699 0.953382
vt 0.6866781 0.9207921
vt 0.6964279 0.9356981
vt 0.5984896 0.3829224
vt 0.6055071 0.3930381
vt 0.6109701 0.4028625
vt 0.6143759 0.4120983
vt 0.5904195 0.3728127
vt 0.6152225 0.420448
vt 0.5818 0.3630066
vt 0.5731327 0.3538015
vt 0.5649204 0.3454946
vt 0.6139114 0.4309887
vt 0.5576655 0.3383835
vt 0.5518703 0.3327654
vt 0.5480374 0.328938
vt 0.5466689 0.3271985
vt 0.6116326 0.4427972
vt 0.6086027 0.4555863
vt 0.4897221 0.2117241
vt 0.5466439 0.3225029
vt 0.5462521 0.3150798
vt 0.5453281 0.3044213
vt 0.4866366 0.2458934
vt 0.6050386 0.4690683
vt 0.4840744 0.2712762
vt 0.6011569 0.4829563
vt 0.4821833 0.2905575
vt 0.5971744 0.4969629
vt 0.4809958 0.3054754
vt 0.4931642 0.1707045
vt 0.5933079 0.5108008
vt 0.5436249 0.2895573
vt 0.5410498 0.2703575
vt 0.5375731 0.2451026
vt 0.4804301 0.3161626
vt 0.4967725 0.1278573
vt 0.5332517 0.211093
vt 0.5283165 0.1702535
vt 0.5003458 0.09020707
vt 0.5231273 0.1275931
vt 0.4802828 0.3235946
vt 0.4804124 0.3282885
vt 0.4791018 0.330072
vt 0.5897741 0.5241829
vt 0.4753968 0.3340235
vt 0.5867898 0.5368216
vt 0.4697895 0.3398291
vt 0.5845717 0.5484298
vt 0.5036719 0.06416807
vt 0.5181232 0.09012064
vt 0.5137382 0.06423441
vt 0.5083062 0.05067268
vt 0.4627725 0.3471749
vt 0.5833368 0.5587202
vt 0.5833015 0.5674057
vt 0.5842005 0.5778884
vt 0.4548379 0.3557475
vt 0.5851342 0.5895109
vt 0.5858601 0.6019063
vt 0.4464782 0.3652328
vt 0.5861361 0.6147077
vt 0.5857194 0.6275479
vt 0.4381855 0.3753172
vt 0.5843678 0.6400602
vt 0.4304526 0.3856867
vt 0.5818386 0.6518774
vt 0.5778896 0.6626328
vt 0.4237715 0.3960279
vt 0.5722781 0.6719591
vt 0.4186346 0.4060265
vt 0.4155344 0.4153695
vt 0.5647618 0.6794896
vt 0.414963 0.4237424
vt 0.4166201 0.4342344
vt 0.419286 0.4459616
vt 0.5550983 0.6848572
vt 0.4227349 0.4586439
vt 0.4267407 0.4720014
vt 0.431077 0.4857543
vt 0.4355181 0.4996222
vt 0.543045 0.6876948
vt 0.4398377 0.5133254
vt 0.5426996 0.6925631
vt 0.4438097 0.5265841
vt 0.447208 0.5391178
vt 0.5425085 0.7060009
vt 0.4498067 0.5506468
vt 0.4513796 0.560891
vt 0.542434 0.7264012
vt 0.4517005 0.5695706
vt 0.4511468 0.5800772
vt 0.4505959 0.5917242
vt 0.5424385 0.7521561
vt 0.450278 0.6041367
vt 0.4958918 0.6884705
vt 0.4504233 0.6169403
vt 0.4963971 0.6933248
vt 0.4837517 0.6860309
vt 0.451262 0.6297598
vt 0.4530246 0.6422209
vt 0.4739169 0.680984
vt 0.4559411 0.6539485
vt 0.4661569 0.6737049
vt 0.4602418 0.6645681
vt 0.5424848 0.7816585
vt 0.4970301 0.7067491
vt 0.4977757 0.7271358
vt 0.5425349 0.8133008
vt 0.4986182 0.7528771
vt 0.5425517 0.8454752
vt 0.4995425 0.782365
vt 0.5424975 0.8765745
vt 0.5005332 0.8139917
vt 0.5423348 0.904991
vt 0.5015746 0.8461494
vt 0.5420259 0.9291174
vt 0.5026518 0.87723
vt 0.5415335 0.9473462
vt 0.5408199 0.9580697
vt 0.5037493 0.9056258
vt 0.5303421 0.9648802
vt 0.5301267 0.9648837
vt 0.5294956 0.9648942
vt 0.5284914 0.9649107
vt 0.5271829 0.9649322
vt 0.525659 0.9649572
vt 0.5048515 0.9297291
vt 0.5240237 0.9649843
vt 0.5223884 0.9650111
vt 0.5208645 0.9650362
vt 0.5195558 0.9650578
vt 0.5185516 0.9650742
vt 0.5179205 0.9650846
vt 0.5177053 0.9650882
vt 0.5059432 0.9479318
vt 0.507009 0.958626
vn 0 0 -1
vn 0 0 -1
vn 0 0 -1
vn 0 0 -1
vn 0 0 -1
vn 0 0 -1
vn 0 0 -1
vn 0 0 -1
vn 0 0 -1
vn 0 0 -1
vn 0 0 -1
vn 0 0 -1
vn 0 0 -1
vn 0 0 -1
vn 0 0 -1
vn 0 0 -1
vn 0 0 -1
vn 0 0 -1
vn 0 0 -1
vn 0 0 -1
vn 0 0 -1
vn 0 0 -1
vn 0 0 -1
vn 0 0 -1
vn 0 0 -1
vn 0 0 -1
vn 0 0 -1
vn 0 0 -1
vn 0 0 -1
vn 0 0 -1
vn 0 0 -1
vn 0 0 -1
vn 0 0 -1
vn 0 0 -1
vn 0 0 -1
vn 0 0 -1
vn 0 0 -1
vn 0 0 -1
vn 0 0 -1
vn 0 0 -1
vn 0 0 -1
vn 0 0 -1
vn 0 0 -1
vn 0 0 -1
vn 0 0 -1
vn 0 0 -1
vn 0 0 -1
vn 0 0 -1
vn 0 0 -1
vn 0 0 -1
vn 0 0 -1
vn 0 0 -1
vn 0 0 -1
vn 0 0 -1
vn 0 0 -1
vn 0 0 -1
vn 0 0 -1
vn 0 0 -1
vn 0 0 -1
vn 0 0 -1
vn 0 0 -1
vn 0 0 -1
vn 0 0 -1
vn 0 0 -1
vn 0 0 -1
vn 0 0 -1
vn 0 0 -1
vn 0 0 -1
vn 0 0 -1
vn 0 0 -1
vn 0 0 -1
vn 0 0 -1
vn 0 0 -1
vn 0 0 -1
vn 0 0 -1
vn 0 0 -1
vn 0 0 -1
vn 0 0 -1
vn 0 0 -1
vn 0 0 -1
vn 0 0 -1
vn 0 0 -1
vn 0 0 -1
vn 0 0 -1
vn 0 0 -1
vn 0 0 -1
vn 0 0 -1
vn 0 0 -1
vn 0 0 -1
vn 0 0 -1
vn 0 0 -1
vn 0 0 -1
vn 0 0 -1
vn 0 0 -1
vn 0 0 -1
vn 0 0 -1
vn 0 0 -1
vn 0 0 -1
vn 0 0 -1
vn 0 0 -1
vn 0 0 -1
vn 0 0 -1
vn 0 0 -1
vn 0 0 -1
vn 0 0 -1
vn 0 0 -1
vn 0 0 -1
vn 0 0 -1
vn 0 0 -1
vn 0 0 -1
vn 0 0 -1
vn 0 0 -1
vn 0 0 -1
vn 0 0 -1
vn 0 0 -1
vn 0 0 -1
vn 0 0 -1
vn 0 0 -1
vn 0 0 -1
vn 0 0 -1
vn 0 0 -1
vn 0 0 -1
vn 0 0 -1
vn 0 0 -1
vn 0 0 -1
vn 0 0 -1
vn 0 0 -1
vn 0 0 -1
vn 0 0 -1
vn 0 0 -1
vn 0 0 -1
vn 0 0 -1
vn 0 0 -1
vn 0 0 -1
vn 0 0 -1
vn 0 0 -1
vn 0 0 -1
vn 0 0 -1
vn 0 0 -1
vn 0 0 -1
vn 0 0 -1
vn 0 0 -1
vn 0 0 -1
vn 0 0 -1
vn 0 0 -1
vn 0 0 -1
vn 0 0 -1
vn 0 0 -1
vn 0 0 -1
vn 0 0 -1
vn 0 0 -1
vn 0 0 -1
vn 0 0 -1
vn 0 0 -1
vn 0 0 -1
vn 0 0 -1
vn 0 0 -1
vn 0 0 -1
g BezierCurve.001_0
f 3/3/3 2/2/2 1/1/1
f 1/1/1 4/4/4 3/3/3
f 1/1/1 5/5/5 4/4/4
f 5/5/5 6/6/6 4/4/4
f 5/5/5 7/7/7 6/6/6
f 7/7/7 8/8/8 6/6/6
f 8/8/8 9/9/9 6/6/6
f 8/8/8 10/10/10 9/9/9
f 10/10/10 11/11/11 9/9/9
f 11/11/11 12/12/12 9/9/9
f 15/15/15 14/14/14 13/13/13
f 13/13/13 16/16/16 15/15/15
f 13/13/13 17/17/17 16/16/16
f 13/13/13 18/18/18 17/17/17
f 18/18/18 19/19/19 17/17/17
f 18/18/18 20/20/20 19/19/19
f 20/20/20 21/21/21 19/19/19
f 20/20/20 22/22/22 21/21/21
f 22/22/22 23/23/23 21/21/21
f 22/22/22 24/24/24 23/23/23
f 27/27/27 26/26/26 25/25/25
f 28/28/28 27/27/27 25/25/25
f 28/28/28 25/25/25 29/29/29
f 30/30/30 28/28/28 29/29/29
f 30/30/30 29/29/29 31/31/31
f 30/30/30 31/31/31 32/32/32
f 30/30/30 32/32/32 33/33/33
f 34/34/34 30/30/30 33/33/33
f 34/34/34 33/33/33 35/35/35
f 34/34/34 35/35/35 36/36/36
f 34/34/34 36/36/36 37/37/37
f 34/34/34 37/37/37 38/38/38
f 38/38/38 39/39/39 34/34/34
f 40/40/40 39/39/39 38/38/38
f 40/40/40 38/38/38 41/41/41
f 38/38/38 42/42/42 41/41/41
f 42/42/42 43/43/43 41/41/41
f 43/43/43 44/44/44 41/41/41
f 40/40/40 41/41/41 45/45/45
f 46/46/46 40/40/40 45/45/45
f 46/46/46 45/45/45 47/47/47
f 48/48/48 46/46/46 47/47/47
f 48/48/48 47/47/47 49/49/49
f 50/50/50 48/48/48 49/49/49
f 50/50/50 49/49/49 51/51/51
f 44/44/44 52/52/52 41/41/41
f 53/53/53 50/50/50 51/51/51
f 44/44/44 54/54/54 52/52/52
f 54/54/54 55/55/55 52/52/52
f 55/55/55 56/56/56 52/52/52
f 53/53/53 51/51/51 57/57/57
f 56/56/56 58/58/58 52/52/52
f 56/56/56 59/59/59 58/58/58
f 59/59/59 60/60/60 58/58/58
f 60/60/60 61/61/61 58/58/58
f 60/60/60 62/62/62 61/61/61
f 53/53/53 57/57/57 63/63/63
f 53/53/53 63/63/63 64/64/64
f 53/53/53 64/64/64 65/65/65
f 66/66/66 53/53/53 65/65/65
f 66/66/66 65/65/65 67/67/67
f 68/68/68 66/66/66 67/67/67
f 68/68/68 67/67/67 69/69/69
f 70/70/70 68/68/68 69/69/69
f 62/62/62 71/71/71 61/61/61
f 62/62/62 72/72/72 71/71/71
f 72/72/72 73/73/73 71/71/71
f 73/73/73 74/74/74 71/71/71
f 70/70/70 69/69/69 75/75/75
f 76/76/76 70/70/70 75/75/75
f 77/77/77 76/76/76 75/75/75
f 78/78/78 77/77/77 75/75/75
f 78/78/78 75/75/75 79/79/79
f 80/80/80 78/78/78 79/79/79
f 81/81/81 80/80/80 79/79/79
f 81/81/81 79/79/79 82/82/82
f 83/83/83 81/81/81 82/82/82
f 84/84/84 83/83/83 82/82/82
f 84/84/84 82/82/82 85/85/85
f 86/86/86 84/84/84 85/85/85
f 86/86/86 85/85/85 87/87/87
f 88/88/88 86/86/86 87/87/87
f 89/89/89 88/88/88 87/87/87
f 89/89/89 87/87/87 90/90/90
f 91/91/91 89/89/89 90/90/90
f 91/91/91 90/90/90 92/92/92
f 91/91/91 92/92/92 93/93/93
f 94/94/94 91/91/91 93/93/93
f 94/94/94 93/93/93 95/95/95
f 94/94/94 95/95/95 96/96/96
f 94/94/94 96/96/96 97/97/97
f 98/98/98 94/94/94 97/97/97
f 98/98/98 97/97/97 99/99/99
f 98/98/98 99/99/99 100/100/100
f 98/98/98 100/100/100 101/101/101
f 98/98/98 101/101/101 102/102/102
f 103/103/103 98/98/98 102/102/102
f 103/103/103 102/102/102 104/104/104
f 105/105/105 103/103/103 104/104/104
f 105/105/105 104/104/104 106/106/106
f 105/105/105 106/106/106 107/107/107
f 108/108/108 105/105/105 107/107/107
f 108/108/108 107/107/107 109/109/109
f 108/108/108 109/109/109 110/110/110
f 111/111/111 108/108/108 110/110/110
f 111/111/111 110/110/110 112/112/112
f 111/111/111 112/112/112 113/113/113
f 111/111/111 113/113/113 114/114/114
f 115/115/115 111/111/111 114/114/114
f 115/115/115 114/114/114 116/116/116
f 115/115/115 116/116/116 117/117/117
f 117/117/117 116/116/116 118/118/118
f 115/115/115 117/117/117 119/119/119
f 120/120/120 117/117/117 118/118/118
f 120/120/120 118/118/118 121/121/121
f 120/120/120 121/121/121 122/122/122
f 123/123/123 120/120/120 122/122/122
f 123/123/123 122/122/122 124/124/124
f 125/125/125 123/123/123 124/124/124
f 124/124/124 126/126/126 125/125/125
f 127/127/127 115/115/115 119/119/119
f 127/127/127 119/119/119 128/128/128
f 127/127/127 128/128/128 129/129/129
f 130/130/130 127/127/127 129/129/129
f 130/130/130 129/129/129 131/131/131
f 132/132/132 130/130/130 131/131/131
f 132/132/132 131/131/131 133/133/133
f 134/134/134 132/132/132 133/133/133
f 134/134/134 133/133/133 135/135/135
f 136/136/136 134/134/134 135/135/135
f 136/136/136 135/135/135 137/137/137
f 138/138/138 136/136/136 137/137/137
f 138/138/138 137/137/137 139/139/139
f 140/140/140 138/138/138 139/139/139
f 141/141/141 140/140/140 139/139/139
f 141/141/141 139/139/139 142/142/142
f 143/143/143 141/141/141 142/142/142
f 144/144/144 143/143/143 142/142/142
f 145/145/145 144/144/144 142/142/142
f 146/146/146 145/145/145 142/142/142
f 147/147/147 146/146/146 142/142/142
f 148/148/148 147/147/147 142/142/142
f 148/148/148 142/142/142 149/149/149
f 150/150/150 148/148/148 149/149/149
f 151/151/151 150/150/150 149/149/149
f 152/152/152 151/151/151 149/149/149
f 153/153/153 152/152/152 149/149/149
f 154/154/154 153/153/153 149/149/149
f 155/155/155 154/154/154 149/149/149
f 156/156/156 155/155/155 149/149/149
f 156/156/156 149/149/149 157/157/157
f 157/157/157 158/158/158 156/156/156
