g Bocca
v -0.3270789 -0.4453233 -1.061707
v -0.1676428 -0.2705929 -1.072281
v -0.3271858 -0.2705502 -1.06944
v -0.1676215 -0.4454515 -1.064356
v -0.3268653 -0.5928402 -1.046648
v -4.172325E-06 -0.2705929 -1.072687
v -0.1676 -0.593182 -1.048912
v -4.172325E-06 -0.4454728 -1.06474
v 0.1676344 -0.2705929 -1.072281
v -4.172325E-06 -0.5932246 -1.049232
v 0.1676131 -0.4454515 -1.064356
v 0.3271774 -0.2705502 -1.06944
v 0.1675918 -0.593182 -1.048912
v 0.3270706 -0.4453233 -1.061707
v 0.326857 -0.5928402 -1.046648
vt 1.379945 0.4264923
vt 0.9509344 1.379945
vt 1.379945 1.379945
vt 0.9509344 0.4256325
vt 1.379086 -0.3782255
vt 0.50043 1.379945
vt 0.9509344 -0.379945
vt 0.50043 0.4256325
vt 0.04906586 1.379945
vt 0.50043 -0.379945
vt 0.04906586 0.4256325
vt -0.379945 1.379945
vt 0.04906586 -0.379945
vt -0.379945 0.4264923
vt -0.3790852 -0.3782255
vn -0.0162914 -0.07364654 -0.9971513
vn -0.009629332 -0.04509481 -0.9989363
vn -0.01724312 -0.04461895 -0.9988553
vn -0.00915347 -0.0741224 -0.9972072
vn -0.01533968 -0.1026741 -0.9945968
vn -0.000112094 -0.04557068 -0.9989611
vn -0.008677609 -0.1036259 -0.9945785
vn -0.000112094 -0.07459827 -0.9972137
vn 0.009881012 -0.04509481 -0.9989339
vn -0.000112094 -0.1041017 -0.9945666
vn 0.009405151 -0.0741224 -0.9972048
vn 0.01701894 -0.04461895 -0.9988591
vn 0.00892929 -0.1036259 -0.9945763
vn 0.01654308 -0.07364654 -0.9971472
vn 0.01559136 -0.1026741 -0.9945928
g Bocca_0
f 3/3/3 2/2/2 1/1/1
f 2/2/2 4/4/4 1/1/1
f 1/1/1 4/4/4 5/5/5
f 2/2/2 6/6/6 4/4/4
f 4/4/4 7/7/7 5/5/5
f 6/6/6 8/8/8 4/4/4
f 4/4/4 8/8/8 7/7/7
f 6/6/6 9/9/9 8/8/8
f 8/8/8 10/10/10 7/7/7
f 9/9/9 11/11/11 8/8/8
f 8/8/8 11/11/11 10/10/10
f 9/9/9 12/12/12 11/11/11
f 11/11/11 13/13/13 10/10/10
f 12/12/12 14/14/14 11/11/11
f 11/11/11 14/14/14 13/13/13
f 14/14/14 15/15/15 13/13/13
