g Bottiglia_cell.009
v -0.103793 -0.1997301 0.4775335
v -0.08795887 -0.1969313 0.4795128
v -0.06685191 -0.1932047 0.4820333
v -0.1256267 -0.2035649 0.4402986
v -0.181912 -0.2134922 0.3203058
v -0.2549592 -0.2263728 0.1638822
v -0.2549592 -0.2263728 -0.3803842
v -0.06685191 -0.1932047 -0.439422
v -0.4091407 -0.1991889 -0.3298202
v -0.4430665 -0.1932047 -0.318656
v -0.4430665 -0.1932047 -0.2345218
v -0.4775799 -0.1732884 -0.3067185
v 0.09857118 -0.09770527 0.4957644
v 0.09857118 -0.09770527 -0.488687
v 0.1658971 -0.0174678 -0.507088
v 0.1285076 -0.06203213 0.4965839
v 0.2213628 0.04862106 0.4990116
v 0.1930346 0.01486534 -0.5143556
v 0.2213628 0.04862106 -0.4943156
v 0.2487014 0.1237557 -0.4567096
v 0.2866785 0.2281154 0.4914966
v 0.2526754 0.1346726 -0.4382158
v 0.2866785 0.2281154 -0.2792717
v 0.2866785 0.3337741 -0.1098437
v 0.2864466 0.2594125 0.4886205
v 0.2866785 0.2630773 0.4623024
v 0.2866785 0.3196254 0.00569576
v -0.181912 -0.2134922 0.3203058
v -0.2549592 -0.2263728 0.1638822
v -0.4430665 -0.1932047 -0.2345218
v -0.2681182 -0.1445891 0.1413217
v -0.4775799 -0.1732884 -0.3067185
v -0.4185731 -0.1259252 -0.1778654
v -0.478384 -0.09490648 -0.3032548
v -0.09420592 -0.1180391 0.4555451
v -0.2262753 -0.1413264 0.2302957
v -0.2549592 -0.1463828 0.1691396
v -0.09420592 -0.1180391 0.1627843
v -0.2549592 -0.1463828 0.1627843
v 0.04715675 -0.03642544 0.1627843
v 0.04715675 -0.03642544 0.4833012
v -0.08305711 -0.111591 0.4724153
v -0.07088774 -0.1045708 0.4734977
v 0.1520731 0.08862382 0.1627843
v 0.1520731 0.08862382 0.4860845
v 0.1986322 0.2165337 0.4807189
v 0.2078946 0.2420012 0.1627843
v 0.1997765 0.2196727 0.461653
v 0.2078946 0.2420012 0.3141361
v 0.2078946 0.2607578 0.1627843
v 0.216059 0.3060335 -0.1731956
v 0.2090388 0.2670822 0.1162407
v 0.2186104 0.2401147 -0.2782357
v 0.1887823 0.147043 -0.4354943
v 0.1825971 0.1277297 -0.4679202
v 0.1660362 0.0805676 -0.491424
v 0.1543153 0.06627977 -0.4998513
v 0.1196936 0.02538013 -0.4905581
v 0.05722314 -0.04842472 -0.473456
v -0.0892114 -0.1317548 -0.4297885
v -0.2549592 -0.1596964 -0.3777246
v -0.3580819 -0.1406769 -0.3438761
v -0.4198102 -0.1292962 -0.3235268
v -0.4185731 -0.1259252 -0.1778654
v -0.2681182 -0.1445891 0.1413217
v -0.478384 -0.09490648 -0.3032548
v 0.216059 0.3060335 -0.1731956
v 0.2866785 0.3337741 -0.1098437
v 0.2866785 0.3196254 0.00569576
v 0.2090388 0.2670822 0.1162407
v -0.103793 -0.1997301 0.4775335
v -0.1256267 -0.2035649 0.4402986
v -0.2262753 -0.1413264 0.2302957
v -0.09420592 -0.1180391 0.4555451
v -0.08305711 -0.111591 0.4724153
v 0.2864466 0.2594125 0.4886205
v 0.2866785 0.2281154 0.4914966
v 0.2213628 0.04862106 0.4990116
v 0.1986322 0.2165337 0.4807189
v 0.1285076 -0.06203213 0.4965839
v 0.1520731 0.08862382 0.4860845
v 0.04715675 -0.03642544 0.4833012
v 0.09857118 -0.09770527 0.4957644
v -0.06685191 -0.1932047 0.4820333
v -0.07088774 -0.1045708 0.4734977
v -0.08795887 -0.1969313 0.4795128
v 0.09857118 -0.09770527 -0.488687
v 0.1658971 -0.0174678 -0.507088
v 0.1196936 0.02538013 -0.4905581
v 0.05722314 -0.04842472 -0.473456
v -0.06685191 -0.1932047 -0.439422
v -0.0892114 -0.1317548 -0.4297885
v -0.2549592 -0.2263728 -0.3803842
v -0.2549592 -0.1596964 -0.3777246
v -0.4091407 -0.1991889 -0.3298202
v -0.3580819 -0.1406769 -0.3438761
v 0.1887823 0.147043 -0.4354943
v 0.2526754 0.1346726 -0.4382158
v 0.2866785 0.2281154 -0.2792717
v 0.2186104 0.2401147 -0.2782357
v 0.2866785 0.3337741 -0.1098437
v 0.216059 0.3060335 -0.1731956
v 0.1825971 0.1277297 -0.4679202
v 0.2487014 0.1237557 -0.4567096
v 0.2526754 0.1346726 -0.4382158
v 0.1887823 0.147043 -0.4354943
v 0.1196936 0.02538013 -0.4905581
v 0.1658971 -0.0174678 -0.507088
v 0.1930346 0.01486534 -0.5143556
v 0.1543153 0.06627977 -0.4998513
v 0.2090388 0.2670822 0.1162407
v 0.2866785 0.3196254 0.00569576
v 0.2866785 0.2630773 0.4623024
v 0.2078946 0.2607578 0.1627843
v 0.2078946 0.2420012 0.3141361
v 0.1997765 0.2196727 0.461653
v 0.1997765 0.2196727 0.461653
v 0.2866785 0.2630773 0.4623024
v 0.2864466 0.2594125 0.4886205
v 0.1986322 0.2165337 0.4807189
v -0.4091407 -0.1991889 -0.3298202
v -0.3580819 -0.1406769 -0.3438761
v -0.4198102 -0.1292962 -0.3235268
v -0.4430665 -0.1932047 -0.318656
v -0.478384 -0.09490648 -0.3032548
v -0.4775799 -0.1732884 -0.3067185
v 0.2213628 0.04862106 -0.4943156
v 0.2487014 0.1237557 -0.4567096
v 0.1825971 0.1277297 -0.4679202
v 0.1930346 0.01486534 -0.5143556
v 0.1660362 0.0805676 -0.491424
v 0.1543153 0.06627977 -0.4998513
v -0.2262753 -0.1413264 0.2302957
v -0.1256267 -0.2035649 0.4402986
v -0.2549592 -0.1463828 0.1691396
v -0.2549592 -0.1463828 0.1627843
v -0.2681182 -0.1445891 0.1413217
v -0.181912 -0.2134922 0.3203058
v -0.103793 -0.1997301 0.4775335
v -0.08305711 -0.111591 0.4724153
v -0.07088774 -0.1045708 0.4734977
v -0.08795887 -0.1969313 0.4795128
vt 0.544477 0.7253177
vt 0.5493646 0.7262952
vt 0.5552297 0.7262952
vt 0.5386119 0.718475
vt 0.5219941 0.6959922
vt 0.4995112 0.6666667
vt 0.4995112 0.5650049
vt 0.5552297 0.5542522
vt 0.4545455 0.57478
vt 0.4447703 0.5767351
vt 0.4447703 0.5923753
vt 0.4330401 0.5786901
vt 0.6109482 0.7292278
vt 0.6109482 0.544477
vt 0.6412512 0.5415445
vt 0.6246334 0.7292278
vt 0.6666667 0.7292278
vt 0.6539589 0.5395895
vt 0.6666667 0.5434995
vt 0.6901271 0.5503421
vt 0.7223852 0.7282503
vt 0.6930596 0.5542522
vt 0.7223852 0.5835777
vt 0.7526882 0.6158358
vt 0.7302053 0.7272727
vt 0.7321603 0.7223852
vt 0.7487781 0.6373411
vt 1 0.2424242
vt 0.7614858 0.1925709
vt 0.368524 0.3196481
vt 1 0.5063539
vt 0.5845552 0
vt 0.6598241 0.5777126
vt 0.2688172 0
vt 0.5552297 0.7214077
vt 0.5102639 0.6793744
vt 0.4995112 0.6676442
vt 0.5552297 0.6666667
vt 0.4995112 0.6666667
vt 0.6109482 0.6666667
vt 0.6109482 0.7262952
vt 0.5601173 0.7243402
vt 0.5650049 0.7253177
vt 0.6666667 0.6666667
vt 0.6666667 0.7272727
vt 0.7126099 0.7262952
vt 0.7223852 0.6666667
vt 0.714565 0.7223852
vt 0.7223852 0.6950147
vt 0.7282503 0.6666667
vt 0.7438905 0.6001955
vt 0.7311828 0.657869
vt 0.7223852 0.5786901
vt 0.6901271 0.5474096
vt 0.6832845 0.540567
vt 0.6666667 0.5366569
vt 0.6608016 0.5347019
vt 0.6432062 0.5366569
vt 0.6109482 0.5395895
vt 0.5552297 0.5483871
vt 0.4995112 0.5591398
vt 0.4652981 0.5659824
vt 0.4447703 0.5698925
vt 0.4447703 0.599218
vt 0.4956012 0.6627566
vt 0.4222874 0.5738025
vt 0.6999022 0.6999022
vt 0.8758553 0.8758553
vt 1 0.8651026
vt 1 0.6549364
vt 1 0.04789834
vt 0.943304 0
vt 0.6304985 0
vt 0.9736071 0.28739
vt 1 0.3245357
vt 1 0
vt 0.9442815 0.007820137
vt 0.6813294 0.255132
vt 1 0.2756598
vt 0.5640274 0.5640274
vt 0.8123167 0.4516129
vt 0.8719453 0.631476
vt 0.8533725 0.4711632
vt 0.2658847 0.2199413
vt 0.4525904 0.4525904
vt 0.2101662 0.2101662
vt 0.4213099 0.255132
vt 0.42522 0.42522
vt 0.540567 0.540567
vt 0.5376344 0.3841642
vt 0.5347019 0.07722385
vt 0.6402737 0.2297165
vt 0.7546432 0.05376344
vt 0.8347996 0.2121212
vt 1 0.1632454
vt 1 0.28739
vt 0.368524 0
vt 0.2091887 0
vt 0.5503421 0.4261975
vt 0.7155425 0.4213099
vt 1 0.8758553
vt 1 0.6999022
vt 0.3362659 0.3362659
vt 0.6217009 0.6217009
vt 1 0.7908114
vt 1 0.631476
vt 1 0.540567
vt 1 0.42522
vt 0.3822092 0
vt 0.2150538 0
vt 0.3450635 0
vt 0.1348974 0
vt 1 0.8631476
vt 0.4340176 0.08504399
vt 0.7204301 0.3714565
vt 1 0.6285435
vt 0.6285435 0.6285435
vt 0.8631476 0.8631476
vt 1 0.004887586
vt 0.7243402 0
vt 0.1632454 0.1632454
vt 0.28739 0.28739
vt 0.4662757 0.1397849
vt 0.2609971 0.08211144
vt 0.7311828 0
vt 0.4154448 0
vt 0.7390029 0.2424242
vt 1 0.6217009
vt 1 0.3362659
vt 0.6177908 0
vt 0.8357771 0.1016618
vt 0.7849463 0
vt 1 0.3695015
vt 1 0.05669599
vt 0.6138808 0.4643206
vt 0.5913978 0.4740958
vt 0.5063539 0.5063539
vt 0.2424242 0.2424242
vt 0.04789834 0.04789834
vt 0.3245357 0.3245357
vt 1 0.4525904
vt 1 0.2101662
vn 0.1765005 -0.9843006 0
vn 0.1765005 -0.9843006 0
vn 0.3489957 -0.9371243 0
vn 0.1765005 -0.9843006 0
vn 0.1765005 -0.9843006 0
vn 0.1216023 -0.9921497 -0.02918578
vn 0.03531002 -0.9993764 0
vn 0.3720862 -0.9281982 0
vn -0.176423 -0.9843069 -0.00384473
vn -0.3091275 -0.9510206 0
vn -0.2230978 -0.9747961 0
vn -0.4979765 -0.8666654 -0.03017286
vn 0.6459458 -0.7633833 0
vn 0.662661 -0.7489195 0
vn 0.7647094 -0.6392251 -0.08130689
vn 0.7647094 -0.6392251 -0.08130689
vn 0.8666654 -0.4980552 -0.0288453
vn 0.7647094 -0.6392251 -0.08130689
vn 0.8397733 -0.542937 0
vn 0.9372503 -0.3411998 -0.07172527
vn 0.9829107 -0.1840829 0
vn 0.9372503 -0.3411998 -0.07172527
vn 0.9583554 -0.2855783 0
vn 0.9999925 0.003882051 0
vn 0.9999925 0.003882051 0
vn 0.9999925 0.003882051 0
vn 0.9999925 0.003882051 0
vn -0.9058006 -0.02748901 0.4228116
vn -0.9058006 -0.02748901 0.4228116
vn -0.9058006 -0.02748901 0.4228116
vn -0.9058006 -0.02748901 0.4228116
vn -0.9058006 -0.02748901 0.4228116
vn -0.9058006 -0.02748901 0.4228116
vn -0.9058006 -0.02748901 0.4228116
vn -0.4424923 0.8967723 0
vn -0.176423 0.9842283 -0.01302668
vn -0.176423 0.9842283 -0.01302668
vn -0.3411212 0.9371717 -0.07311349
vn -0.1215236 0.992071 -0.03204758
vn -0.6391464 0.7646307 -0.08265449
vn -0.6459388 0.7633892 0
vn -0.4979765 0.8665867 -0.03235485
vn -0.4979765 0.8665867 -0.03235485
vn -0.8665867 0.4979765 -0.03235508
vn -0.8665867 0.4979765 -0.03235508
vn -0.9371717 0.3411212 -0.07311329
vn -0.9842283 0.176423 -0.01302704
vn -0.9371717 0.3411212 -0.07311329
vn -0.9450145 0.3254356 -0.03223823
vn -0.9999138 0.003882051 -0.01254218
vn -0.9999138 0.003882051 -0.01254218
vn -0.9999138 0.003882051 -0.01254218
vn -0.9583704 0.2855277 0
vn -0.9371717 0.3411212 -0.07311329
vn -0.9371717 0.3411212 -0.07311329
vn -0.839786 0.5429175 0
vn -0.7646307 0.6391464 -0.08265449
vn -0.7646307 0.6391464 -0.08265449
vn -0.6626559 0.748924 0
vn -0.3720455 0.9282146 0
vn -0.03523432 0.9993792 0
vn 0.1765016 0.9842283 -0.01191296
vn 0.3092217 0.95099 0
vn 0.2231896 0.974775 0
vn 0.1765016 0.9842283 -0.01191296
vn 0.4980552 0.8665867 -0.03112003
vn -0.4430772 0.890115 0.1066668
vn -0.4430772 0.890115 0.1066668
vn -0.4430772 0.890115 0.1066668
vn -0.4430772 0.890115 0.1066668
vn -0.8509011 0.2313224 0.4716537
vn -0.8509011 0.2313224 0.4716537
vn -0.8509011 0.2313224 0.4716537
vn -0.8509011 0.2313224 0.4716537
vn -0.8509011 0.2313224 0.4716537
vn -0.1293664 0.0901525 0.9874902
vn -0.1293664 0.0901525 0.9874902
vn -0.1293664 0.0901525 0.9874902
vn -0.1293664 0.0901525 0.9874902
vn -0.1293664 0.0901525 0.9874902
vn -0.1293664 0.0901525 0.9874902
vn -0.1293664 0.0901525 0.9874902
vn -0.1293664 0.0901525 0.9874902
vn -0.1293664 0.0901525 0.9874902
vn -0.1293664 0.0901525 0.9874902
vn -0.1293664 0.0901525 0.9874902
vn -0.3019073 0.03525317 -0.9526853
vn -0.3019073 0.03525317 -0.9526853
vn -0.3019073 0.03525317 -0.9526853
vn -0.3019073 0.03525317 -0.9526853
vn -0.3019073 0.03525317 -0.9526853
vn -0.3019073 0.03525317 -0.9526853
vn -0.3019073 0.03525317 -0.9526853
vn -0.3019073 0.03525317 -0.9526853
vn -0.3019073 0.03525317 -0.9526853
vn -0.3019073 0.03525317 -0.9526853
vn 0.1372878 0.8430585 -0.5200043
vn 0.1372878 0.8430585 -0.5200043
vn 0.1372878 0.8430585 -0.5200043
vn 0.1372878 0.8430585 -0.5200043
vn 0.1372878 0.8430585 -0.5200043
vn 0.1372878 0.8430585 -0.5200043
vn 0.1372878 0.8352157 -0.5325099
vn 0.1372878 0.8352157 -0.5325099
vn 0.1372878 0.8352157 -0.5325099
vn 0.1372878 0.8352157 -0.5325099
vn -0.3019073 0.04309595 -0.9523627
vn -0.3019073 0.04309595 -0.9523627
vn -0.3019073 0.04309595 -0.9523627
vn -0.3019073 0.04309595 -0.9523627
vn -0.4430772 0.890115 0.1066668
vn -0.4430772 0.890115 0.1066668
vn -0.4430772 0.890115 0.1066668
vn -0.4430772 0.890115 0.1066668
vn -0.4430772 0.890115 0.1066668
vn -0.4430772 0.890115 0.1066668
vn -0.4430772 0.890115 0.1066668
vn -0.4430772 0.890115 0.1066668
vn -0.4430772 0.890115 0.1066668
vn -0.4430772 0.890115 0.1066668
vn -0.3097501 0.03525317 -0.9501643
vn -0.3097501 0.03525317 -0.9501643
vn -0.3097501 0.03525317 -0.9501643
vn -0.3097501 0.03525317 -0.9501643
vn -0.3097501 0.03525317 -0.9501643
vn -0.3097501 0.03525317 -0.9501643
vn 0.1765016 0.3881778 -0.9045249
vn 0.1765016 0.3881778 -0.9045249
vn 0.1765016 0.3881778 -0.9045249
vn 0.1765016 0.3881778 -0.9045249
vn 0.1765016 0.3881778 -0.9045249
vn 0.1765016 0.3881778 -0.9045249
vn -0.9058006 -0.01964629 0.4232486
vn -0.9058006 -0.01964629 0.4232486
vn -0.9058006 -0.01964629 0.4232486
vn -0.9058006 -0.01964629 0.4232486
vn -0.9058006 -0.01964629 0.4232486
vn -0.9058006 -0.01964629 0.4232486
vn -0.1372092 0.0901525 0.9864311
vn -0.1372092 0.0901525 0.9864311
vn -0.1372092 0.0901525 0.9864311
vn -0.1372092 0.0901525 0.9864311
g Bottiglia_cell.009_0
f 3/3/3 2/2/2 1/1/1
f 3/3/3 1/1/1 4/4/4
f 3/3/3 4/4/4 5/5/5
f 3/3/3 5/5/5 6/6/6
f 3/3/3 6/6/6 7/7/7
f 7/7/7 8/8/8 3/3/3
f 9/9/9 7/7/7 6/6/6
f 6/6/6 10/10/10 9/9/9
f 6/6/6 11/11/11 10/10/10
f 12/12/12 10/10/10 11/11/11
f 13/13/13 3/3/3 8/8/8
f 14/14/14 13/13/13 8/8/8
f 13/13/13 14/14/14 15/15/15
f 15/15/15 16/16/16 13/13/13
f 15/15/15 17/17/17 16/16/16
f 15/15/15 18/18/18 17/17/17
f 18/18/18 19/19/19 17/17/17
f 17/17/17 19/19/19 20/20/20
f 20/20/20 21/21/21 17/17/17
f 20/20/20 22/22/22 21/21/21
f 22/22/22 23/23/23 21/21/21
f 21/21/21 23/23/23 24/24/24
f 24/24/24 25/25/25 21/21/21
f 24/24/24 26/26/26 25/25/25
f 24/24/24 27/27/27 26/26/26
f 30/30/30 29/29/29 28/28/28
f 28/28/28 31/31/31 30/30/30
f 31/31/31 32/32/32 30/30/30
f 31/31/31 33/33/33 32/32/32
f 33/33/33 34/34/34 32/32/32
f 37/37/37 36/36/36 35/35/35
f 37/37/37 35/35/35 38/38/38
f 38/38/38 39/39/39 37/37/37
f 40/40/40 38/38/38 35/35/35
f 35/35/35 41/41/41 40/40/40
f 35/35/35 42/42/42 41/41/41
f 42/42/42 43/43/43 41/41/41
f 40/40/40 41/41/41 44/44/44
f 41/41/41 45/45/45 44/44/44
f 44/44/44 45/45/45 46/46/46
f 46/46/46 47/47/47 44/44/44
f 46/46/46 48/48/48 47/47/47
f 48/48/48 49/49/49 47/47/47
f 50/50/50 47/47/47 49/49/49
f 47/47/47 50/50/50 51/51/51
f 50/50/50 52/52/52 51/51/51
f 51/51/51 53/53/53 47/47/47
f 47/47/47 53/53/53 54/54/54
f 47/47/47 54/54/54 55/55/55
f 44/44/44 47/47/47 55/55/55
f 55/55/55 56/56/56 44/44/44
f 44/44/44 56/56/56 57/57/57
f 44/44/44 57/57/57 58/58/58
f 40/40/40 44/44/44 58/58/58
f 58/58/58 59/59/59 40/40/40
f 38/38/38 40/40/40 59/59/59
f 60/60/60 38/38/38 59/59/59
f 39/39/39 38/38/38 60/60/60
f 61/61/61 39/39/39 60/60/60
f 39/39/39 61/61/61 62/62/62
f 62/62/62 63/63/63 39/39/39
f 63/63/63 64/64/64 39/39/39
f 64/64/64 65/65/65 39/39/39
f 66/66/66 64/64/64 63/63/63
f 69/69/69 68/68/68 67/67/67
f 70/70/70 69/69/69 67/67/67
f 73/73/73 72/72/72 71/71/71
f 71/71/71 74/74/74 73/73/73
f 71/71/71 75/75/75 74/74/74
f 78/78/78 77/77/77 76/76/76
f 76/76/76 79/79/79 78/78/78
f 79/79/79 80/80/80 78/78/78
f 79/79/79 81/81/81 80/80/80
f 81/81/81 82/82/82 80/80/80
f 82/82/82 83/83/83 80/80/80
f 82/82/82 84/84/84 83/83/83
f 82/82/82 85/85/85 84/84/84
f 85/85/85 86/86/86 84/84/84
f 89/89/89 88/88/88 87/87/87
f 87/87/87 90/90/90 89/89/89
f 87/87/87 91/91/91 90/90/90
f 91/91/91 92/92/92 90/90/90
f 91/91/91 93/93/93 92/92/92
f 93/93/93 94/94/94 92/92/92
f 93/93/93 95/95/95 94/94/94
f 95/95/95 96/96/96 94/94/94
f 99/99/99 98/98/98 97/97/97
f 97/97/97 100/100/100 99/99/99
f 100/100/100 101/101/101 99/99/99
f 100/100/100 102/102/102 101/101/101
f 105/105/105 104/104/104 103/103/103
f 106/106/106 105/105/105 103/103/103
f 109/109/109 108/108/108 107/107/107
f 110/110/110 109/109/109 107/107/107
f 113/113/113 112/112/112 111/111/111
f 111/111/111 114/114/114 113/113/113
f 114/114/114 115/115/115 113/113/113
f 115/115/115 116/116/116 113/113/113
f 119/119/119 118/118/118 117/117/117
f 120/120/120 119/119/119 117/117/117
f 123/123/123 122/122/122 121/121/121
f 121/121/121 124/124/124 123/123/123
f 124/124/124 125/125/125 123/123/123
f 124/124/124 126/126/126 125/125/125
f 129/129/129 128/128/128 127/127/127
f 127/127/127 130/130/130 129/129/129
f 130/130/130 131/131/131 129/129/129
f 130/130/130 132/132/132 131/131/131
f 135/135/135 134/134/134 133/133/133
f 134/134/134 135/135/135 136/136/136
f 134/134/134 136/136/136 137/137/137
f 137/137/137 138/138/138 134/134/134
f 141/141/141 140/140/140 139/139/139
f 142/142/142 141/141/141 139/139/139
