g Bottiglia_cell.036
v -0.1544281 -0.02589738 -0.6851938
v -0.1258822 -0.02425361 -0.6734927
v -0.1631775 -0.01546884 -0.6903374
v 0.4452311 -0.1479645 0.1767876
v 0.4538215 -0.1429976 0.1731818
v 0.4330174 -0.2301025 0.1782901
v 0.2844724 -0.1762983 0.2474543
v 0.2909593 -0.2551664 0.24072
v 0.2822453 -0.2559088 0.2445909
v 0.1237137 -0.1479645 0.3208607
v 0.09636968 -0.2231384 0.3294687
v -0.01763737 -0.06633896 0.3881336
v -0.06905544 -0.12762 0.408213
v -0.04118115 -0.03828794 0.4000469
v -0.1289931 -0.05619323 0.4385265
v -0.1258822 -0.02425361 -0.6734927
v -0.1544281 -0.02589738 -0.6851938
v -0.06905544 -0.12762 -0.3848693
v -0.06378812 -0.02976835 -0.6253799
v -0.0233112 -0.07309103 -0.4951822
v 0.1230066 -0.1499441 -0.22305
v 0.09636968 -0.2231384 -0.05576903
v 0.2146188 -0.1639785 -0.1373591
v 0.2844724 -0.1762983 -0.06796509
v 0.3133542 -0.1712078 -0.06460679
v 0.4140869 -0.2334432 0.1460323
v 0.2844724 -0.2562976 0.1309197
v -0.1746312 -0.001805663 -0.6714069
v -0.1631775 -0.01546884 -0.6903374
v -0.1258822 -0.02425361 -0.6734927
v -0.06378812 -0.02976835 -0.6253799
v -0.07375711 -0.01720107 -0.6074216
v -0.1918471 0.01869792 -0.6424191
v -0.1746312 -0.001805663 -0.6714069
v -0.07375711 -0.01720107 -0.6074216
v -0.2571759 0.1981927 -0.3054886
v -0.1303717 0.05419034 -0.5032598
v -0.1798986 0.2118205 -0.1997537
v -0.2571759 0.3892119 0.1208447
v -0.1783785 0.2391115 -0.1373591
v -0.1783785 0.375319 0.1667126
v -0.2441844 0.4248633 0.2131285
v -0.1685508 0.4023448 0.2366723
v -0.2571759 0.3892119 0.2328897
v -0.2571759 0.3892119 0.1208447
v -0.2441844 0.4248633 0.2131285
v -0.2571759 0.1981927 0.3479396
v -0.2571759 0.1981927 -0.3054886
v -0.1918471 0.01869792 0.464651
v -0.1918471 0.01869792 -0.6424191
v -0.1878702 0.01396084 0.468027
v -0.1746312 -0.001805663 -0.6714069
v -0.1631775 -0.01546884 -0.6903374
v -0.1544281 -0.02589738 -0.6851938
v -0.1289931 -0.05619323 0.4385265
v -0.06905544 -0.12762 -0.3848693
v -0.06905544 -0.12762 0.408213
v 0.09636968 -0.2231384 0.3294687
v 0.09636968 -0.2231384 -0.05576903
v 0.2822453 -0.2559088 0.2445909
v 0.2844724 -0.2562976 0.1309197
v 0.4140869 -0.2334432 0.1460323
v 0.2909593 -0.2551664 0.24072
v 0.4330174 -0.2301025 0.1782901
v 0.4452311 -0.1479645 0.1767876
v 0.4452311 -0.1479645 0.160208
v 0.4538215 -0.1429976 0.1731818
v 0.2844724 -0.1762983 0.2474543
v 0.3133542 -0.1712078 -0.06460679
v 0.2844724 -0.1762983 -0.06796509
v 0.1237137 -0.1479645 0.3208607
v 0.2146188 -0.1639785 -0.1373591
v 0.1237137 -0.1479645 -0.1373591
v -0.01763737 -0.06633896 0.3881336
v 0.1230066 -0.1499441 -0.22305
v -0.01763737 -0.06633896 -0.1373591
v -0.0233112 -0.07309103 -0.4951822
v -0.04118115 -0.03828794 0.4000469
v -0.06378812 -0.02976835 -0.6253799
v -0.1225592 0.05869758 -0.1373591
v -0.07375711 -0.01720107 -0.6074216
v -0.1225592 0.05869758 0.440842
v -0.1303717 0.05419034 -0.5032598
v -0.1783785 0.2120856 -0.1373591
v -0.1263064 0.06902009 0.4429808
v -0.1798986 0.2118205 -0.1997537
v -0.1783785 0.2120856 0.3499546
v -0.1783785 0.2391115 -0.1373591
v -0.1783785 0.375319 0.2516434
v -0.1783785 0.375319 0.1667126
v -0.1685508 0.4023448 0.2366723
v 0.3133542 -0.1712078 -0.06460679
v 0.4140869 -0.2334432 0.1460323
v 0.4330174 -0.2301025 0.1782901
v 0.4452311 -0.1479645 0.160208
v 0.4538215 -0.1429976 0.1731818
v -0.2441844 0.4248633 0.2131285
v -0.1685508 0.4023448 0.2366723
v -0.1783785 0.375319 0.2516434
v -0.1878702 0.01396084 0.468027
v -0.1783785 0.2120856 0.3499546
v -0.1263064 0.06902009 0.4429808
v -0.1918471 0.01869792 0.464651
v -0.2571759 0.1981927 0.3479396
v -0.2571759 0.3892119 0.2328897
v -0.1225592 0.05869758 0.440842
v -0.04118115 -0.03828794 0.4000469
v -0.1289931 -0.05619323 0.4385265
v -0.1263064 0.06902009 0.4429808
v -0.1878702 0.01396084 0.468027
vt 0.8426197 0.8426197
vt 1 1
vt 1 0.7937439
vt 0.9892473 0.3030303
vt 1 0.3167155
vt 1 0.04105572
vt 0.7761486 0.2561095
vt 0.8113392 0
vt 0.799609 0
vt 0.544477 0.3919844
vt 0.5307918 0.1573803
vt 0.5092864 0.3558162
vt 0.6832845 0.2932551
vt 0.3274682 0.3274682
vt 0.2189638 0.2189638
vt 1 0
vt 1 0.8426197
vt 0.6500489 0.200391
vt 1 0.2639296
vt 0.8387097 0.1652004
vt 0.5806451 0.3528837
vt 0.3059629 0.01661779
vt 0.8367546 0.5053763
vt 0.5239491 0.3831867
vt 0.3636364 0.3636364
vt 0.04887586 0.04887586
vt 0.771261 0.1358749
vt 1 0.3176931
vt 0.2062561 0
vt 0 0
vt 0.2639296 0.2639296
vt 1 0.5601173
vt 0.3186706 0.2766373
vt 0.3176931 0.3176931
vt 0.5601173 0.5601173
vt 0.5601173 0.1202346
vt 0.5718475 0.4242424
vt 0.8064516 0.3059629
vt 0.1192571 0.1085044
vt 0.8748778 0.3088954
vt 0.2922776 0.08211144
vt 0.1407625 0
vt 0.3079179 0
vt 0.2218964 0.7360704
vt 0.2218964 0.714565
vt 0.2111437 0.7321603
vt 0.2776149 0.7575758
vt 0.2776149 0.6353861
vt 0.3333333 0.7790811
vt 0.3333333 0.5718475
vt 0.3352884 0.7800586
vt 0.3411535 0.5669599
vt 0.3460411 0.5630499
vt 0.3499511 0.5640274
vt 0.3616813 0.7741935
vt 0.3890518 0.6207234
vt 0.3890518 0.7683284
vt 0.4447703 0.7536657
vt 0.4447703 0.6823069
vt 0.4995112 0.7380254
vt 0.4995112 0.71652
vt 0.5386119 0.7194526
vt 0.5014663 0.7370479
vt 0.5434995 0.7253177
vt 0.5552297 0.7253177
vt 0.5552297 0.7223852
vt 0.5591398 0.7243402
vt 0.4995112 0.7390029
vt 0.5102639 0.6803519
vt 0.4995112 0.6793744
vt 0.4447703 0.7526882
vt 0.4760508 0.6666667
vt 0.4447703 0.6666667
vt 0.3890518 0.7653959
vt 0.4447703 0.6500489
vt 0.3890518 0.6666667
vt 0.3890518 0.5953079
vt 0.3763441 0.7673509
vt 0.3695015 0.5698925
vt 0.3333333 0.6666667
vt 0.3636364 0.572825
vt 0.3333333 0.775171
vt 0.3333333 0.5933529
vt 0.2776149 0.6666667
vt 0.3294233 0.775171
vt 0.2776149 0.6539589
vt 0.2776149 0.7575758
vt 0.2688172 0.6666667
vt 0.2218964 0.7399805
vt 0.2218964 0.7233627
vt 0.2121212 0.7370479
vt 0.3636364 0
vt 0.04887586 0
vt 0.04105572 0.04105572
vt 0.3088954 0.2883675
vt 0.3167155 0.3167155
vt 0.1407625 0.1407625
vt 0.3079179 0.3079179
vt 0.342131 0.2864125
vt 1 0.2649071
vt 0.6461388 0.2864125
vt 1 0.4017595
vt 0.9843597 0.2561095
vt 0.5415445 0.1114369
vt 0.1847507 0.1114369
vt 0.6344086 0.02443793
vt 1 0.3274682
vt 1 0.2189638
vt 0.5982405 0
vt 0.7350929 0
vn 0.3806475 -0.1297866 -0.915567
vn 0.3806475 -0.1297866 -0.915567
vn 0.3806475 -0.1297866 -0.915567
vn 0.4120051 -0.04355317 0.9101401
vn 0.4120051 -0.04355317 0.9101401
vn 0.4120051 -0.04355317 0.9101401
vn 0.4120051 -0.04355317 0.9101401
vn 0.4120051 -0.04355317 0.9101401
vn 0.4120051 -0.04355317 0.9101401
vn 0.4120051 -0.04355317 0.9101401
vn 0.4120051 -0.04355317 0.9101401
vn 0.4120051 -0.04355317 0.9101401
vn 0.4120051 -0.04355317 0.9101401
vn 0.4120051 -0.04355317 0.9101401
vn 0.4120051 -0.04355317 0.9101401
vn 0.2003412 -0.9058875 -0.3731371
vn 0.2003412 -0.9058875 -0.3731371
vn 0.2003412 -0.9058875 -0.3731371
vn 0.2003412 -0.9058875 -0.3731371
vn 0.2003412 -0.9058875 -0.3731371
vn 0.2003412 -0.9058875 -0.3731371
vn 0.2003412 -0.9058875 -0.3731371
vn 0.2003412 -0.9058875 -0.3731371
vn 0.2003412 -0.9058875 -0.3731371
vn 0.2003412 -0.9058875 -0.3731371
vn 0.2003412 -0.9058875 -0.3731371
vn 0.2003412 -0.9058875 -0.3731371
vn 0.3728081 0.8422993 -0.389289
vn 0.3728081 0.8422993 -0.389289
vn 0.3728081 0.8422993 -0.389289
vn 0.3728081 0.8422993 -0.389289
vn 0.3728081 0.8422993 -0.389289
vn 0.3728081 0.8501388 -0.3718578
vn 0.3728081 0.8501388 -0.3718578
vn 0.3728081 0.8501388 -0.3718578
vn 0.3728081 0.8501388 -0.3718578
vn 0.3728081 0.8501388 -0.3718578
vn 0.3728081 0.8501388 -0.3718578
vn 0.3728081 0.8501388 -0.3718578
vn 0.3728081 0.8501388 -0.3718578
vn 0.3728081 0.8501388 -0.3718578
vn 0.3728081 0.8501388 -0.3718578
vn 0.3728081 0.8501388 -0.3718578
vn -0.991248 0.1210743 -0.05261553
vn -0.9990875 0.04268026 -0.001629371
vn -0.9363722 0.3405776 -0.08493555
vn -0.9729363 -0.2310735 0
vn -0.952051 -0.294414 -0.08318145
vn -0.833519 -0.5524907 0
vn -0.8031024 -0.5923114 -0.06475988
vn -0.7639053 -0.6393478 -0.08765346
vn -0.7639053 -0.6393478 -0.08765346
vn -0.7639053 -0.6393478 -0.08765346
vn -0.7639053 -0.6393478 -0.08765346
vn -0.7639053 -0.6393478 -0.08765346
vn -0.7297257 -0.68374 0
vn -0.6698325 -0.7412601 -0.04310448
vn -0.387614 -0.9215662 -0.02170381
vn -0.4262148 -0.904622 0
vn -0.05045735 -0.9987262 0
vn -0.04264313 -0.9990904 0
vn 0.1689836 -0.9842815 0.05132763
vn 0.1689836 -0.9842815 0.05132763
vn 0.1689836 -0.9842815 0.05132763
vn -0.3013805 0.952051 -0.05261726
vn -0.2386653 0.9677298 -0.08085737
vn -0.4973656 0.8658175 -0.05465752
vn 0.04355159 0.9990513 0
vn -0.1759502 0.9834086 -0.04414897
vn 0.04355159 0.9990513 0
vn 0.3884869 0.9206934 -0.03743799
vn 0.176823 0.9834086 -0.0405119
vn 0.3414505 0.9363722 -0.08135563
vn 0.6707054 0.7403871 -0.044512
vn 0.4272643 0.9041267 0
vn 0.6393478 0.7639053 -0.08765362
vn 0.7255812 0.6855114 -0.06005115
vn 0.763783 0.6454731 0
vn 0.763783 0.6454731 0
vn 0.8666905 0.4973656 -0.03840736
vn 0.763783 0.6454731 0
vn 0.8810018 0.473113 0
vn 0.8017694 0.5976337 0
vn 0.9842815 0.1759502 -0.01521564
vn 0.9372451 0.3405776 -0.07468972
vn 0.9529239 0.3013805 -0.03325414
vn 0.9686027 0.2308259 -0.09234808
vn 0.9999603 0.003483295 -0.008201222
vn 0.9921209 -0.1219472 -0.02872171
vn 0.9990528 -0.04351365 0
vn 0.9372451 -0.3414505 -0.07059211
vn 0.8510116 -0.2316988 -0.4712694
vn 0.8510116 -0.2316988 -0.4712694
vn 0.8510116 -0.2316988 -0.4712694
vn 0.8510116 -0.2316988 -0.4712694
vn 0.8510116 -0.2316988 -0.4712694
vn -0.1132349 0.5130445 0.8508603
vn -0.1132349 0.5130445 0.8508603
vn -0.1132349 0.5130445 0.8508603
vn -0.1132349 0.5130445 0.8508603
vn -0.1132349 0.5130445 0.8508603
vn -0.1132349 0.5130445 0.8508603
vn -0.1132349 0.5130445 0.8508603
vn -0.1132349 0.5130445 0.8508603
vn -0.1132349 0.5130445 0.8508603
vn 0.4041657 -0.04355317 0.9136483
vn 0.4041657 -0.04355317 0.9136483
vn 0.4041657 -0.04355317 0.9136483
vn 0.4041657 -0.04355317 0.9136483
vn 0.4041657 -0.04355317 0.9136483
g Bottiglia_cell.036_0
f 3/3/3 2/2/2 1/1/1
f 6/6/6 5/5/5 4/4/4
f 4/4/4 7/7/7 6/6/6
f 7/7/7 8/8/8 6/6/6
f 7/7/7 9/9/9 8/8/8
f 7/7/7 10/10/10 9/9/9
f 10/10/10 11/11/11 9/9/9
f 10/10/10 12/12/12 11/11/11
f 12/12/12 13/13/13 11/11/11
f 12/12/12 14/14/14 13/13/13
f 14/14/14 15/15/15 13/13/13
f 18/18/18 17/17/17 16/16/16
f 16/16/16 19/19/19 18/18/18
f 19/19/19 20/20/20 18/18/18
f 20/20/20 21/21/21 18/18/18
f 21/21/21 22/22/22 18/18/18
f 21/21/21 23/23/23 22/22/22
f 23/23/23 24/24/24 22/22/22
f 24/24/24 25/25/25 22/22/22
f 25/25/25 26/26/26 22/22/22
f 26/26/26 27/27/27 22/22/22
f 30/30/30 29/29/29 28/28/28
f 28/28/28 31/31/31 30/30/30
f 28/28/28 32/32/32 31/31/31
f 35/35/35 34/34/34 33/33/33
f 33/33/33 36/36/36 35/35/35
f 36/36/36 37/37/37 35/35/35
f 36/36/36 38/38/38 37/37/37
f 36/36/36 39/39/39 38/38/38
f 39/39/39 40/40/40 38/38/38
f 39/39/39 41/41/41 40/40/40
f 39/39/39 42/42/42 41/41/41
f 42/42/42 43/43/43 41/41/41
f 46/46/46 45/45/45 44/44/44
f 47/47/47 44/44/44 45/45/45
f 48/48/48 47/47/47 45/45/45
f 49/49/49 47/47/47 48/48/48
f 50/50/50 49/49/49 48/48/48
f 51/51/51 49/49/49 50/50/50
f 51/51/51 50/50/50 52/52/52
f 51/51/51 52/52/52 53/53/53
f 51/51/51 53/53/53 54/54/54
f 55/55/55 51/51/51 54/54/54
f 55/55/55 54/54/54 56/56/56
f 56/56/56 57/57/57 55/55/55
f 58/58/58 57/57/57 56/56/56
f 59/59/59 58/58/58 56/56/56
f 60/60/60 58/58/58 59/59/59
f 61/61/61 60/60/60 59/59/59
f 60/60/60 61/61/61 62/62/62
f 62/62/62 63/63/63 60/60/60
f 62/62/62 64/64/64 63/63/63
f 67/67/67 66/66/66 65/65/65
f 68/68/68 65/65/65 66/66/66
f 68/68/68 66/66/66 69/69/69
f 69/69/69 70/70/70 68/68/68
f 71/71/71 68/68/68 70/70/70
f 71/71/71 70/70/70 72/72/72
f 72/72/72 73/73/73 71/71/71
f 74/74/74 71/71/71 73/73/73
f 75/75/75 73/73/73 72/72/72
f 76/76/76 74/74/74 73/73/73
f 76/76/76 73/73/73 75/75/75
f 77/77/77 76/76/76 75/75/75
f 78/78/78 74/74/74 76/76/76
f 76/76/76 77/77/77 79/79/79
f 76/76/76 80/80/80 78/78/78
f 79/79/79 80/80/80 76/76/76
f 79/79/79 81/81/81 80/80/80
f 80/80/80 82/82/82 78/78/78
f 81/81/81 83/83/83 80/80/80
f 82/82/82 80/80/80 84/84/84
f 84/84/84 80/80/80 83/83/83
f 84/84/84 85/85/85 82/82/82
f 86/86/86 84/84/84 83/83/83
f 84/84/84 87/87/87 85/85/85
f 88/88/88 84/84/84 86/86/86
f 87/87/87 84/84/84 88/88/88
f 88/88/88 89/89/89 87/87/87
f 88/88/88 90/90/90 89/89/89
f 91/91/91 89/89/89 90/90/90
f 94/94/94 93/93/93 92/92/92
f 92/92/92 95/95/95 94/94/94
f 95/95/95 96/96/96 94/94/94
f 99/99/99 98/98/98 97/97/97
f 97/97/97 100/100/100 99/99/99
f 101/101/101 99/99/99 100/100/100
f 100/100/100 102/102/102 101/101/101
f 97/97/97 103/103/103 100/100/100
f 97/97/97 104/104/104 103/103/103
f 97/97/97 105/105/105 104/104/104
f 108/108/108 107/107/107 106/106/106
f 106/106/106 109/109/109 108/108/108
f 109/109/109 110/110/110 108/108/108
