g Bottoni
v -0.7515715 2.527038 0.9508656
v -0.8541957 2.527038 0.9712758
v -0.8405677 2.527038 0.9508656
v -0.7379434 2.527038 1.01942
v -0.8405677 2.527038 1.03983
v -0.8541957 2.527038 1.01942
v -0.4813669 2.50443 0.9667544
v -0.5572127 2.50443 0.9818472
v -0.547119 2.50443 0.9667544
v -0.4712733 2.50443 1.017446
v -0.547119 2.50443 1.032506
v -0.5572127 2.50443 1.017446
v -0.7330399 2.516371 0.9323022
v -0.7515715 2.527038 0.9508656
v -0.7719817 2.527038 0.9372058
v -0.7619517 2.516371 0.9129746
v -0.7960855 2.527038 0.9324296
v -0.7960855 2.516371 0.9061924
v -0.7578124 2.490675 0.9029446
v -0.7960855 2.490675 0.8953346
v -0.7253662 2.490675 0.9246285
v -0.7036823 2.490675 0.9570746
v -0.7137123 2.516371 0.9612459
v -0.7578124 2.38251 0.9029446
v -0.7960855 2.38251 0.8953346
v -0.7253662 2.38251 0.9246285
v -0.7036823 2.38251 0.9570746
v -0.8343268 2.38251 0.9029446
v -0.6960722 2.490675 0.9953479
v -0.6960722 2.38251 0.9953479
v -0.8343268 2.490675 0.9029446
v -0.866773 2.38251 0.9246285
v -0.7036823 2.490675 1.033621
v -0.7036823 2.38251 1.033621
v -0.7069301 2.516371 0.9953479
v -0.7253662 2.490675 1.066067
v -0.7253662 2.38251 1.066067
v -0.8301874 2.516371 0.9129746
v -0.7960855 2.516371 0.9061924
v -0.866773 2.490675 0.9246285
v -0.8884568 2.38251 0.9570746
v -0.7137123 2.516371 1.02945
v -0.7578124 2.490675 1.087719
v -0.7578124 2.38251 1.087719
v -0.8201575 2.527038 0.9372058
v -0.7960855 2.527038 0.9324296
v -0.7719817 2.527038 0.9372058
v -0.8405677 2.527038 0.9508656
v -0.7515715 2.527038 0.9508656
v -0.8590993 2.516371 0.9323022
v -0.8541957 2.527038 0.9712758
v -0.8784269 2.516371 0.9612459
v -0.8884568 2.490675 0.9570746
v -0.8960669 2.38251 0.9953479
v -0.8852091 2.516371 0.9953479
v -0.8960669 2.490675 0.9953479
v -0.8884568 2.38251 1.033621
v -0.8884568 2.490675 1.033621
v -0.866773 2.38251 1.066067
v -0.8784269 2.516371 1.02945
v -0.866773 2.490675 1.066067
v -0.8343268 2.38251 1.087719
v -0.8541957 2.527038 1.01942
v -0.8589719 2.527038 0.9953479
v -0.7331673 2.527038 0.9953479
v -0.8405677 2.527038 1.03983
v -0.7379434 2.527038 1.01942
v -0.8590993 2.516371 1.058362
v -0.8201575 2.527038 1.053458
v -0.8343268 2.490675 1.087719
v -0.7960855 2.38251 1.095329
v -0.8301874 2.516371 1.077689
v -0.7960855 2.490675 1.095329
v -0.7960855 2.527038 1.058266
v -0.7719817 2.527038 1.053458
v -0.7960855 2.516371 1.084471
v -0.7619517 2.516371 1.077689
v -0.7619517 2.516371 1.077689
v -0.7330399 2.516371 1.058362
v -0.7515715 2.527038 1.03983
v -0.7719817 2.527038 1.053458
v -0.8201575 2.527038 1.053458
v -0.8405677 2.527038 1.03983
v -0.7379434 2.527038 0.9712758
v -0.7515715 2.527038 0.9508656
v -0.7330399 2.516371 0.9323022
v -0.8541957 2.527038 0.9712758
v -0.8589719 2.527038 0.9953479
v -0.7331673 2.527038 0.9953479
v -0.8784269 2.516371 0.9612459
v -0.8852091 2.516371 0.9953479
v -0.4676434 2.496566 0.9530308
v -0.4813669 2.50443 0.9667544
v -0.4964597 2.50443 0.9566607
v -0.4890407 2.496566 0.938766
v -0.5142589 2.50443 0.9531263
v -0.5142589 2.496566 0.9337351
v -0.4859521 2.477556 0.931347
v -0.5142589 2.477556 0.9257111
v -0.4619756 2.477556 0.9473631
v -0.4459595 2.477556 0.9713396
v -0.4533785 2.496566 0.9744282
v -0.4859521 2.397603 0.931347
v -0.5142589 2.397603 0.9257111
v -0.4619756 2.397603 0.9473631
v -0.4459595 2.397603 0.9713396
v -0.5425339 2.397603 0.931347
v -0.4403236 2.477556 0.9996464
v -0.4403236 2.397603 0.9996464
v -0.5425339 2.477556 0.931347
v -0.5665103 2.397603 0.9473631
v -0.4459595 2.477556 1.027921
v -0.4459595 2.397603 1.027921
v -0.4483476 2.496566 0.9996464
v -0.4619756 2.477556 1.051898
v -0.4619756 2.397603 1.051898
v -0.5394453 2.496566 0.938766
v -0.5142589 2.496566 0.9337351
v -0.5665103 2.477556 0.9473631
v -0.5825264 2.397603 0.9713396
v -0.4533785 2.496566 1.024865
v -0.4859521 2.477556 1.067914
v -0.4859521 2.397603 1.067914
v -0.5320263 2.50443 0.9566607
v -0.5142589 2.50443 0.9531263
v -0.4964597 2.50443 0.9566607
v -0.547119 2.50443 0.9667544
v -0.4813669 2.50443 0.9667544
v -0.5608426 2.496566 0.9530308
v -0.5572127 2.50443 0.9818472
v -0.5751075 2.496566 0.9744282
v -0.5825264 2.477556 0.9713396
v -0.5881624 2.397603 0.9996464
v -0.5881624 2.477556 0.9996464
v -0.5825264 2.397603 1.027921
v -0.5801384 2.496566 0.9996464
v -0.5751075 2.496566 0.9744282
v -0.5825264 2.477556 1.027921
v -0.5665103 2.397603 1.051898
v -0.5751075 2.496566 1.024865
v -0.5665103 2.477556 1.051898
v -0.5425339 2.397603 1.067914
v -0.5572127 2.50443 1.017446
v -0.5607471 2.50443 0.9996464
v -0.4677389 2.50443 0.9996464
v -0.547119 2.50443 1.032506
v -0.4712733 2.50443 1.017446
v -0.5608426 2.496566 1.04623
v -0.5320263 2.50443 1.0426
v -0.5425339 2.477556 1.067914
v -0.5142589 2.397603 1.07355
v -0.5394453 2.496566 1.060495
v -0.5142589 2.477556 1.07355
v -0.5142589 2.50443 1.046135
v -0.4964597 2.50443 1.0426
v -0.5142589 2.496566 1.065526
v -0.4890407 2.496566 1.060495
v -0.4890407 2.496566 1.060495
v -0.4676434 2.496566 1.04623
v -0.4813669 2.50443 1.032506
v -0.4964597 2.50443 1.0426
v -0.5320263 2.50443 1.0426
v -0.547119 2.50443 1.032506
v -0.4677389 2.50443 0.9996464
v -0.4712733 2.50443 0.9818472
v -0.5607471 2.50443 0.9996464
v -0.4813669 2.50443 0.9667544
v -0.4676434 2.496566 0.9530308
v -0.5572127 2.50443 0.9818472
v -0.5801384 2.496566 0.9996464
vt 0.04478839 0.6855119
vt 0.04478839 0.6855119
vt 0.04478839 0.6855119
vt 0.04478839 0.6855119
vt 0.04478839 0.6855119
vt 0.04478839 0.6855119
vt 0.04478839 0.6855119
vt 0.04478839 0.6855119
vt 0.04478839 0.6855119
vt 0.04478839 0.6855119
vt 0.04478839 0.6855119
vt 0.04478839 0.6855119
vt 0.04478839 0.6855119
vt 0.04478839 0.6855119
vt 0.04478839 0.6855119
vt 0.04478839 0.6855119
vt 0.04478839 0.6855119
vt 0.04478839 0.6855119
vt 0.1518888 0.6855119
vt 0.1518888 0.6855119
vt 0.1518888 0.6855119
vt 0.1518888 0.6855119
vt 0.04478839 0.6855119
vt 0.4700585 0.6855119
vt 0.4700585 0.6855119
vt 0.4700585 0.6855119
vt 0.4700585 0.6855119
vt 0.4700585 0.6855119
vt 0.1518888 0.6855119
vt 0.4700585 0.6855119
vt 0.1518888 0.6855119
vt 0.4700585 0.6855119
vt 0.1518888 0.6855119
vt 0.4700585 0.6855119
vt 0.04478839 0.6855119
vt 0.1518888 0.6855119
vt 0.4700585 0.6855119
vt 0.04478839 0.6855119
vt 0.04478839 0.6855119
vt 0.1518888 0.6855119
vt 0.4700585 0.6855119
vt 0.04478839 0.6855119
vt 0.1518888 0.6855119
vt 0.4700585 0.6855119
vt 0.04478839 0.6855119
vt 0.04478839 0.6855119
vt 0.04478839 0.6855119
vt 0.04478839 0.6855119
vt 0.04478839 0.6855119
vt 0.04478839 0.6855119
vt 0.04478839 0.6855119
vt 0.04478839 0.6855119
vt 0.1518888 0.6855119
vt 0.4700585 0.6855119
vt 0.04478839 0.6855119
vt 0.1518888 0.6855119
vt 0.4700585 0.6855119
vt 0.1518888 0.6855119
vt 0.4700585 0.6855119
vt 0.04478839 0.6855119
vt 0.1518888 0.6855119
vt 0.4700585 0.6855119
vt 0.04478839 0.6855119
vt 0.04478839 0.6855119
vt 0.04478839 0.6855119
vt 0.04478839 0.6855119
vt 0.04478839 0.6855119
vt 0.04478839 0.6855119
vt 0.04478839 0.6855119
vt 0.1518888 0.6855119
vt 0.4700585 0.6855119
vt 0.04478839 0.6855119
vt 0.1518888 0.6855119
vt 0.04478839 0.6855119
vt 0.04478839 0.6855119
vt 0.04478839 0.6855119
vt 0.04478839 0.6855119
vt 0.04478839 0.6855119
vt 0.04478839 0.6855119
vt 0.04478839 0.6855119
vt 0.04478839 0.6855119
vt 0.04478839 0.6855119
vt 0.04478839 0.6855119
vt 0.04478839 0.6855119
vt 0.04478839 0.6855119
vt 0.04478839 0.6855119
vt 0.04478839 0.6855119
vt 0.04478839 0.6855119
vt 0.04478839 0.6855119
vt 0.04478839 0.6855119
vt 0.04478839 0.6855119
vt 0.04478839 0.6855119
vt 0.04478839 0.6855119
vt 0.04478839 0.6855119
vt 0.04478839 0.6855119
vt 0.04478839 0.6855119
vt 0.04478839 0.6855119
vt 0.1518888 0.6855119
vt 0.1518888 0.6855119
vt 0.1518888 0.6855119
vt 0.1518888 0.6855119
vt 0.04478839 0.6855119
vt 0.4700585 0.6855119
vt 0.4700585 0.6855119
vt 0.4700585 0.6855119
vt 0.4700585 0.6855119
vt 0.4700585 0.6855119
vt 0.1518888 0.6855119
vt 0.4700585 0.6855119
vt 0.1518888 0.6855119
vt 0.4700585 0.6855119
vt 0.1518888 0.6855119
vt 0.4700585 0.6855119
vt 0.04478839 0.6855119
vt 0.1518888 0.6855119
vt 0.4700585 0.6855119
vt 0.04478839 0.6855119
vt 0.04478839 0.6855119
vt 0.1518888 0.6855119
vt 0.4700585 0.6855119
vt 0.04478839 0.6855119
vt 0.1518888 0.6855119
vt 0.4700585 0.6855119
vt 0.04478839 0.6855119
vt 0.04478839 0.6855119
vt 0.04478839 0.6855119
vt 0.04478839 0.6855119
vt 0.04478839 0.6855119
vt 0.04478839 0.6855119
vt 0.04478839 0.6855119
vt 0.04478839 0.6855119
vt 0.1518888 0.6855119
vt 0.4700585 0.6855119
vt 0.1518888 0.6855119
vt 0.4700585 0.6855119
vt 0.04478839 0.6855119
vt 0.04478839 0.6855119
vt 0.1518888 0.6855119
vt 0.4700585 0.6855119
vt 0.04478839 0.6855119
vt 0.1518888 0.6855119
vt 0.4700585 0.6855119
vt 0.04478839 0.6855119
vt 0.04478839 0.6855119
vt 0.04478839 0.6855119
vt 0.04478839 0.6855119
vt 0.04478839 0.6855119
vt 0.04478839 0.6855119
vt 0.04478839 0.6855119
vt 0.1518888 0.6855119
vt 0.4700585 0.6855119
vt 0.04478839 0.6855119
vt 0.1518888 0.6855119
vt 0.04478839 0.6855119
vt 0.04478839 0.6855119
vt 0.04478839 0.6855119
vt 0.04478839 0.6855119
vt 0.04478839 0.6855119
vt 0.04478839 0.6855119
vt 0.04478839 0.6855119
vt 0.04478839 0.6855119
vt 0.04478839 0.6855119
vt 0.04478839 0.6855119
vt 0.04478839 0.6855119
vt 0.04478839 0.6855119
vt 0.04478839 0.6855119
vt 0.04478839 0.6855119
vt 0.04478839 0.6855119
vt 0.04478839 0.6855119
vt 0.04478839 0.6855119
vn 0.15294 0.9764631 -0.1520829
vn -0.1999984 0.9764631 -0.08074968
vn -0.1529399 0.9764631 -0.1520831
vn 0.1999985 0.9764631 0.0807493
vn -0.1529399 0.9764631 0.1520831
vn -0.1999984 0.9764631 0.08074968
vn 0.15294 0.9764631 -0.1520829
vn -0.1999984 0.9764631 -0.08074968
vn -0.1529399 0.9764631 -0.1520831
vn 0.1999985 0.9764631 0.0807493
vn -0.1529399 0.9764631 0.1520831
vn -0.1999984 0.9764631 0.08074968
vn 0.5137216 0.6862692 -0.5149027
vn 0.15294 0.9764631 -0.1520829
vn 0.08235234 0.9764631 -0.1993438
vn 0.2784293 0.6862692 -0.6719462
vn -0.003921509 0.9764631 -0.215649
vn -0.003921509 0.6862692 -0.7273371
vn 0.3725462 0.1921554 -0.9079018
vn -0.003921509 0.1921554 -0.9813567
vn 0.6941124 0.1921554 -0.6937466
vn 0.9058754 0.1921554 -0.3774467
vn 0.6705831 0.6862692 -0.2816964
vn 0.3803893 0.003921509 -0.9248182
vn -0.003921509 0.003921509 -0.9999846
vn 0.7097985 0.003921509 -0.7043939
vn 0.9215616 0.003921509 -0.3882124
vn -0.3803892 0.003921509 -0.9248182
vn 0.9814727 0.1916022 0
vn 0.9999924 0.003921509 0
vn -0.3725461 0.1921554 -0.9079018
vn -0.7097985 0.003921509 -0.7043939
vn 0.9058754 0.1921554 0.3774467
vn 0.9215616 0.003921509 0.3882124
vn 0.7254847 0.6862692 -0.05202516
vn 0.6941124 0.1921554 0.6937466
vn 0.7097985 0.003921509 0.7043939
vn -0.2784292 0.6862692 -0.6719463
vn -0.003921509 0.6862692 -0.7273371
vn -0.6941123 0.1921554 -0.6937467
vn -0.9215615 0.003921509 -0.3882126
vn 0.6705831 0.6862692 0.2816964
vn 0.3725462 0.1921554 0.9079018
vn 0.3803893 0.003921509 0.9248182
vn -0.08235228 0.9764631 -0.1993439
vn -0.003921509 0.9764631 -0.215649
vn 0.08235234 0.9764631 -0.1993438
vn -0.1529399 0.9764631 -0.1520831
vn 0.15294 0.9764631 -0.1520829
vn -0.5137215 0.6862692 -0.5149028
vn -0.1999984 0.9764631 -0.08074968
vn -0.670583 0.6862692 -0.2816968
vn -0.9058753 0.1921554 -0.377447
vn -0.9999923 0.003921509 -0.0003449296
vn -0.7254846 0.6862692 -0.05202631
vn -0.9814727 0.1916022 0
vn -0.9215615 0.003921509 0.3882126
vn -0.9058753 0.1921554 0.377447
vn -0.7097985 0.003921509 0.7043939
vn -0.670583 0.6862692 0.2816968
vn -0.6941123 0.1921554 0.6937467
vn -0.3803892 0.003921509 0.9248182
vn -0.1999984 0.9764631 0.08074968
vn -0.2156845 0.9764631 -0.0002441406
vn 0.2156847 0.9764631 0
vn -0.1529399 0.9764631 0.1520831
vn 0.1999985 0.9764631 0.0807493
vn -0.5137215 0.6862692 0.5149028
vn -0.08235228 0.9764631 0.1993439
vn -0.3725461 0.1921554 0.9079018
vn -0.003921509 0.003921509 0.9999846
vn -0.2784292 0.6862692 0.6719463
vn -0.003921509 0.1921554 0.9813567
vn -0.003921509 0.9764631 0.215649
vn 0.08235234 0.9764631 0.1993438
vn -0.003921509 0.6862692 0.7273371
vn 0.2784293 0.6862692 0.6719462
vn 0.2784293 0.6862692 0.6719462
vn 0.5137216 0.6862692 0.5149027
vn 0.15294 0.9764631 0.1520829
vn 0.08235234 0.9764631 0.1993438
vn -0.08235228 0.9764631 0.1993439
vn -0.1529399 0.9764631 0.1520831
vn 0.1999985 0.9764631 -0.0807493
vn 0.15294 0.9764631 -0.1520829
vn 0.5137216 0.6862692 -0.5149027
vn -0.1999984 0.9764631 -0.08074968
vn -0.2156845 0.9764631 -0.0002441406
vn 0.2156847 0.9764631 0
vn -0.670583 0.6862692 -0.2816968
vn -0.7254846 0.6862692 -0.05202631
vn 0.5137216 0.6862692 -0.5149027
vn 0.15294 0.9764631 -0.1520829
vn 0.08235234 0.9764631 -0.1993438
vn 0.2784293 0.6862692 -0.6719462
vn -0.003921509 0.9764631 -0.215649
vn -0.003921509 0.6862692 -0.7273371
vn 0.3725462 0.1921554 -0.9079018
vn -0.003921509 0.1921554 -0.9813567
vn 0.6941124 0.1921554 -0.6937466
vn 0.9058754 0.1921554 -0.3774467
vn 0.6705831 0.6862692 -0.2816964
vn 0.3803893 0.003921509 -0.9248182
vn -0.003921509 0.003921509 -0.9999846
vn 0.7097985 0.003921509 -0.7043939
vn 0.9215616 0.003921509 -0.3882124
vn -0.3803892 0.003921509 -0.9248182
vn 0.9814727 0.1916022 0
vn 0.9999924 0.003921509 0
vn -0.3725461 0.1921554 -0.9079018
vn -0.7097985 0.003921509 -0.7043939
vn 0.9058754 0.1921554 0.3774467
vn 0.9215616 0.003921509 0.3882124
vn 0.7254847 0.6862692 -0.05202516
vn 0.6941124 0.1921554 0.6937466
vn 0.7097985 0.003921509 0.7043939
vn -0.2784292 0.6862692 -0.6719463
vn -0.003921509 0.6862692 -0.7273371
vn -0.6941123 0.1921554 -0.6937467
vn -0.9215615 0.003921509 -0.3882126
vn 0.6705831 0.6862692 0.2816964
vn 0.3725462 0.1921554 0.9079018
vn 0.3803893 0.003921509 0.9248182
vn -0.08235228 0.9764631 -0.1993439
vn -0.003921509 0.9764631 -0.215649
vn 0.08235234 0.9764631 -0.1993438
vn -0.1529399 0.9764631 -0.1520831
vn 0.15294 0.9764631 -0.1520829
vn -0.5137215 0.6862692 -0.5149028
vn -0.1999984 0.9764631 -0.08074968
vn -0.670583 0.6862692 -0.2816968
vn -0.9058753 0.1921554 -0.377447
vn -0.9999923 0.003921509 -0.0003449296
vn -0.9814727 0.1916022 0
vn -0.9215615 0.003921509 0.3882126
vn -0.7254846 0.6862692 -0.05202631
vn -0.670583 0.6862692 -0.2816968
vn -0.9058753 0.1921554 0.377447
vn -0.7097985 0.003921509 0.7043939
vn -0.670583 0.6862692 0.2816968
vn -0.6941123 0.1921554 0.6937467
vn -0.3803892 0.003921509 0.9248182
vn -0.1999984 0.9764631 0.08074968
vn -0.2156845 0.9764631 -0.0002441406
vn 0.2156847 0.9764631 0
vn -0.1529399 0.9764631 0.1520831
vn 0.1999985 0.9764631 0.0807493
vn -0.5137215 0.6862692 0.5149028
vn -0.08235228 0.9764631 0.1993439
vn -0.3725461 0.1921554 0.9079018
vn -0.003921509 0.003921509 0.9999846
vn -0.2784292 0.6862692 0.6719463
vn -0.003921509 0.1921554 0.9813567
vn -0.003921509 0.9764631 0.215649
vn 0.08235234 0.9764631 0.1993438
vn -0.003921509 0.6862692 0.7273371
vn 0.2784293 0.6862692 0.6719462
vn 0.2784293 0.6862692 0.6719462
vn 0.5137216 0.6862692 0.5149027
vn 0.15294 0.9764631 0.1520829
vn 0.08235234 0.9764631 0.1993438
vn -0.08235228 0.9764631 0.1993439
vn -0.1529399 0.9764631 0.1520831
vn 0.2156847 0.9764631 0
vn 0.1999985 0.9764631 -0.0807493
vn -0.2156845 0.9764631 -0.0002441406
vn 0.15294 0.9764631 -0.1520829
vn 0.5137216 0.6862692 -0.5149027
vn -0.1999984 0.9764631 -0.08074968
vn -0.7254846 0.6862692 -0.05202631
g Bottoni_0
f 3/3/3 2/2/2 1/1/1
f 6/6/6 5/5/5 4/4/4
f 9/9/9 8/8/8 7/7/7
f 12/12/12 11/11/11 10/10/10
f 15/15/15 14/14/14 13/13/13
f 16/16/16 15/15/15 13/13/13
f 17/17/17 15/15/15 16/16/16
f 18/18/18 17/17/17 16/16/16
f 18/18/18 16/16/16 19/19/19
f 20/20/20 18/18/18 19/19/19
f 16/16/16 13/13/13 21/21/21
f 19/19/19 16/16/16 21/21/21
f 21/21/21 13/13/13 22/22/22
f 13/13/13 23/23/23 22/22/22
f 19/19/19 21/21/21 24/24/24
f 19/19/19 24/24/24 25/25/25
f 20/20/20 19/19/19 25/25/25
f 21/21/21 26/26/26 24/24/24
f 21/21/21 22/22/22 26/26/26
f 22/22/22 27/27/27 26/26/26
f 20/20/20 25/25/25 28/28/28
f 22/22/22 29/29/29 27/27/27
f 22/22/22 23/23/23 29/29/29
f 29/29/29 30/30/30 27/27/27
f 31/31/31 20/20/20 28/28/28
f 31/31/31 28/28/28 32/32/32
f 29/29/29 33/33/33 30/30/30
f 33/33/33 34/34/34 30/30/30
f 23/23/23 35/35/35 29/29/29
f 29/29/29 35/35/35 33/33/33
f 33/33/33 36/36/36 34/34/34
f 36/36/36 37/37/37 34/34/34
f 31/31/31 38/38/38 20/20/20
f 38/38/38 39/39/39 20/20/20
f 40/40/40 31/31/31 32/32/32
f 40/40/40 32/32/32 41/41/41
f 35/35/35 42/42/42 33/33/33
f 33/33/33 42/42/42 36/36/36
f 36/36/36 43/43/43 37/37/37
f 43/43/43 44/44/44 37/37/37
f 38/38/38 45/45/45 39/39/39
f 45/45/45 46/46/46 39/39/39
f 47/47/47 46/46/46 45/45/45
f 45/45/45 48/48/48 47/47/47
f 48/48/48 45/45/45 38/38/38
f 48/48/48 49/49/49 47/47/47
f 50/50/50 48/48/48 38/38/38
f 50/50/50 38/38/38 31/31/31
f 51/51/51 48/48/48 50/50/50
f 40/40/40 50/50/50 31/31/31
f 52/52/52 51/51/51 50/50/50
f 52/52/52 50/50/50 40/40/40
f 53/53/53 52/52/52 40/40/40
f 53/53/53 40/40/40 41/41/41
f 53/53/53 41/41/41 54/54/54
f 55/55/55 52/52/52 53/53/53
f 56/56/56 53/53/53 54/54/54
f 56/56/56 55/55/55 53/53/53
f 56/56/56 54/54/54 57/57/57
f 58/58/58 56/56/56 57/57/57
f 58/58/58 57/57/57 59/59/59
f 60/60/60 55/55/55 56/56/56
f 58/58/58 60/60/60 56/56/56
f 61/61/61 58/58/58 59/59/59
f 61/61/61 59/59/59 62/62/62
f 60/60/60 63/63/63 55/55/55
f 63/63/63 64/64/64 55/55/55
f 64/64/64 63/63/63 65/65/65
f 66/66/66 63/63/63 60/60/60
f 63/63/63 67/67/67 65/65/65
f 68/68/68 60/60/60 58/58/58
f 68/68/68 66/66/66 60/60/60
f 61/61/61 68/68/68 58/58/58
f 69/69/69 66/66/66 68/68/68
f 70/70/70 61/61/61 62/62/62
f 70/70/70 62/62/62 71/71/71
f 72/72/72 68/68/68 61/61/61
f 72/72/72 69/69/69 68/68/68
f 70/70/70 72/72/72 61/61/61
f 73/73/73 70/70/70 71/71/71
f 73/73/73 71/71/71 44/44/44
f 43/43/43 73/73/73 44/44/44
f 74/74/74 69/69/69 72/72/72
f 69/69/69 74/74/74 75/75/75
f 76/76/76 72/72/72 70/70/70
f 76/76/76 74/74/74 72/72/72
f 75/75/75 74/74/74 76/76/76
f 73/73/73 76/76/76 70/70/70
f 77/77/77 75/75/75 76/76/76
f 78/78/78 76/76/76 73/73/73
f 43/43/43 78/78/78 73/73/73
f 79/79/79 78/78/78 43/43/43
f 36/36/36 79/79/79 43/43/43
f 42/42/42 79/79/79 36/36/36
f 79/79/79 80/80/80 78/78/78
f 80/80/80 81/81/81 78/78/78
f 82/82/82 81/81/81 80/80/80
f 83/83/83 82/82/82 80/80/80
f 83/83/83 80/80/80 67/67/67
f 67/67/67 80/80/80 79/79/79
f 42/42/42 67/67/67 79/79/79
f 65/65/65 67/67/67 42/42/42
f 35/35/35 65/65/65 42/42/42
f 84/84/84 65/65/65 35/35/35
f 23/23/23 84/84/84 35/35/35
f 85/85/85 84/84/84 23/23/23
f 86/86/86 85/85/85 23/23/23
f 87/87/87 84/84/84 85/85/85
f 87/87/87 88/88/88 84/84/84
f 88/88/88 89/89/89 84/84/84
f 88/88/88 87/87/87 90/90/90
f 91/91/91 88/88/88 90/90/90
f 94/94/94 93/93/93 92/92/92
f 95/95/95 94/94/94 92/92/92
f 96/96/96 94/94/94 95/95/95
f 97/97/97 96/96/96 95/95/95
f 97/97/97 95/95/95 98/98/98
f 99/99/99 97/97/97 98/98/98
f 95/95/95 92/92/92 100/100/100
f 98/98/98 95/95/95 100/100/100
f 100/100/100 92/92/92 101/101/101
f 92/92/92 102/102/102 101/101/101
f 98/98/98 100/100/100 103/103/103
f 98/98/98 103/103/103 104/104/104
f 99/99/99 98/98/98 104/104/104
f 100/100/100 105/105/105 103/103/103
f 100/100/100 101/101/101 105/105/105
f 101/101/101 106/106/106 105/105/105
f 99/99/99 104/104/104 107/107/107
f 101/101/101 108/108/108 106/106/106
f 101/101/101 102/102/102 108/108/108
f 108/108/108 109/109/109 106/106/106
f 110/110/110 99/99/99 107/107/107
f 110/110/110 107/107/107 111/111/111
f 108/108/108 112/112/112 109/109/109
f 112/112/112 113/113/113 109/109/109
f 102/102/102 114/114/114 108/108/108
f 108/108/108 114/114/114 112/112/112
f 112/112/112 115/115/115 113/113/113
f 115/115/115 116/116/116 113/113/113
f 110/110/110 117/117/117 99/99/99
f 117/117/117 118/118/118 99/99/99
f 119/119/119 110/110/110 111/111/111
f 119/119/119 111/111/111 120/120/120
f 114/114/114 121/121/121 112/112/112
f 112/112/112 121/121/121 115/115/115
f 115/115/115 122/122/122 116/116/116
f 122/122/122 123/123/123 116/116/116
f 117/117/117 124/124/124 118/118/118
f 124/124/124 125/125/125 118/118/118
f 126/126/126 125/125/125 124/124/124
f 124/124/124 127/127/127 126/126/126
f 127/127/127 124/124/124 117/117/117
f 127/127/127 128/128/128 126/126/126
f 129/129/129 127/127/127 117/117/117
f 129/129/129 117/117/117 110/110/110
f 130/130/130 127/127/127 129/129/129
f 131/131/131 130/130/130 129/129/129
f 119/119/119 129/129/129 110/110/110
f 131/131/131 129/129/129 119/119/119
f 132/132/132 131/131/131 119/119/119
f 132/132/132 119/119/119 120/120/120
f 132/132/132 120/120/120 133/133/133
f 134/134/134 132/132/132 133/133/133
f 134/134/134 133/133/133 135/135/135
f 134/134/134 136/136/136 132/132/132
f 136/136/136 137/137/137 132/132/132
f 138/138/138 134/134/134 135/135/135
f 138/138/138 135/135/135 139/139/139
f 140/140/140 136/136/136 134/134/134
f 138/138/138 140/140/140 134/134/134
f 141/141/141 138/138/138 139/139/139
f 141/141/141 139/139/139 142/142/142
f 140/140/140 143/143/143 136/136/136
f 143/143/143 144/144/144 136/136/136
f 144/144/144 143/143/143 145/145/145
f 146/146/146 143/143/143 140/140/140
f 143/143/143 147/147/147 145/145/145
f 148/148/148 140/140/140 138/138/138
f 148/148/148 146/146/146 140/140/140
f 141/141/141 148/148/148 138/138/138
f 149/149/149 146/146/146 148/148/148
f 150/150/150 141/141/141 142/142/142
f 150/150/150 142/142/142 151/151/151
f 152/152/152 148/148/148 141/141/141
f 152/152/152 149/149/149 148/148/148
f 150/150/150 152/152/152 141/141/141
f 153/153/153 150/150/150 151/151/151
f 153/153/153 151/151/151 123/123/123
f 122/122/122 153/153/153 123/123/123
f 154/154/154 149/149/149 152/152/152
f 149/149/149 154/154/154 155/155/155
f 156/156/156 152/152/152 150/150/150
f 156/156/156 154/154/154 152/152/152
f 155/155/155 154/154/154 156/156/156
f 153/153/153 156/156/156 150/150/150
f 157/157/157 155/155/155 156/156/156
f 158/158/158 156/156/156 153/153/153
f 122/122/122 158/158/158 153/153/153
f 159/159/159 158/158/158 122/122/122
f 115/115/115 159/159/159 122/122/122
f 121/121/121 159/159/159 115/115/115
f 159/159/159 160/160/160 158/158/158
f 160/160/160 161/161/161 158/158/158
f 162/162/162 161/161/161 160/160/160
f 163/163/163 162/162/162 160/160/160
f 163/163/163 160/160/160 147/147/147
f 147/147/147 160/160/160 159/159/159
f 121/121/121 147/147/147 159/159/159
f 145/145/145 147/147/147 121/121/121
f 114/114/114 145/145/145 121/121/121
f 165/165/165 164/164/164 114/114/114
f 102/102/102 165/165/165 114/114/114
f 166/166/166 164/164/164 165/165/165
f 167/167/167 165/165/165 102/102/102
f 168/168/168 167/167/167 102/102/102
f 169/169/169 165/165/165 167/167/167
f 169/169/169 166/166/166 165/165/165
f 166/166/166 169/169/169 137/137/137
f 170/170/170 166/166/166 137/137/137
