g Bottiglia_cell.019
v -0.2214898 0.1180693 -0.3344835
v -0.1613747 0.1070262 -0.310651
v -0.1658347 0.1130817 -0.2912283
v -0.2214898 0.1180693 -0.3344835
v -0.2374576 0.09438756 -0.2841552
v -0.2556366 0.1160466 -0.3484287
v -0.006683648 -0.07901016 0.2759011
v 0.1349919 -0.1039984 0.416245
v 0.1814256 -0.1121771 0.4619249
v 0.1814256 -0.1121771 0.2046048
v 0.3080505 -0.08985221 0.4749027
v 0.3048217 -0.09043014 0.467905
v -0.006683648 -0.07901016 -0.1932476
v -0.1721037 0.01649553 -0.05349424
v -0.1478818 0.002512664 -0.005163491
v -0.04335573 -0.05784112 -0.2700341
v -0.1721037 0.01649553 -0.3190433
v -0.2374576 0.09438756 -0.2841552
v -0.2395557 0.09688765 -0.3428631
v -0.2556366 0.1160466 -0.3484287
v -0.1721037 0.01649553 -0.3190433
v -0.04335573 -0.05784112 -0.2700341
v -0.04383314 0.02035245 -0.2668682
v -0.1285721 0.06836912 -0.2991431
v -0.1482461 0.09156084 -0.3061031
v -0.2395557 0.09688765 -0.3428631
v 0.1872298 -0.03115681 0.2212636
v 0.3048217 -0.09043014 0.467905
v 0.3080505 -0.08985221 0.4749027
v 0.2072933 -0.02762654 0.2646822
v -0.2395557 0.09688765 -0.3428631
v -0.1482461 0.09156084 -0.3061031
v -0.1613747 0.1070262 -0.310651
v -0.2214898 0.1180693 -0.3344835
v -0.2556366 0.1160466 -0.3484287
v -0.2374576 0.09438756 -0.2841552
v -0.2214898 0.1180693 -0.3344835
v -0.1658347 0.1130817 -0.2912283
v -0.1264364 0.07091945 -0.1641386
v -0.1721037 0.01649553 -0.05349424
v 0.01991272 -0.005942404 0.1083453
v -0.1478818 0.002512664 -0.005163491
v -0.006683648 -0.07901016 0.2759011
v 0.07712567 -0.01471153 0.1617391
v 0.1349919 -0.1039984 0.416245
v 0.01783979 -0.01163355 -0.1375422
v -0.04383314 0.02035245 -0.2668682
v -0.04335573 -0.05784112 -0.2700341
v 0.1814256 -0.03218699 0.2088889
v 0.1768024 -0.03137037 0.1990895
v -0.006683648 -0.07901016 -0.1932476
v 0.1872298 -0.03115681 0.2212636
v 0.3048217 -0.09043014 0.467905
v 0.1814256 -0.1121771 0.2046048
v 0.1814256 -0.03218699 0.2620313
v 0.1872298 -0.03115681 0.2212636
v 0.2072933 -0.02762654 0.2646822
v 0.1814256 -0.03218699 0.2088889
v 0.1174411 -0.0209052 0.1990895
v 0.1768024 -0.03137037 0.1990895
v 0.07712567 -0.01471153 0.1617391
v 0.01991272 -0.005942404 0.1083453
v 0.01783979 -0.01163355 -0.1375422
v -0.1264364 0.07091945 -0.1641386
v -0.04383314 0.02035245 -0.2668682
v -0.1285721 0.06836912 -0.2991431
v -0.1482461 0.09156084 -0.3061031
v -0.1658347 0.1130817 -0.2912283
v -0.1613747 0.1070262 -0.310651
v 0.1349919 -0.1039984 0.416245
v 0.07712567 -0.01471153 0.1617391
v 0.1174411 -0.0209052 0.1990895
v 0.1814256 -0.03218699 0.2620313
v 0.2072933 -0.02762654 0.2646822
v 0.3080505 -0.08985221 0.4749027
v 0.1814256 -0.1121771 0.4619249
vt 0 0
vt 0.3391984 0.3391984
vt 0.2463343 0
vt 0 0
vt 0.08504399 0.08504399
vt 0.1808407 0
vt 0.4447703 0.6813294
vt 0.485826 0.7077224
vt 0.4995112 0.7155425
vt 0.4995112 0.6676442
vt 0.5376344 0.718475
vt 0.5366569 0.71652
vt 0.4447703 0.5933529
vt 0.3890518 0.6197459
vt 0.396872 0.6285435
vt 0.4320626 0.5786901
vt 0.3890518 0.5698925
vt 0.3597263 0.5757576
vt 0.3587488 0.5650049
vt 0.3509286 0.5640274
vt 0.7116324 0.6060606
vt 1 0.5796676
vt 1 0.2629521
vt 0.9169111 0.7565982
vt 1 0.7155425
vt 1 0.4662757
vt 0.6226784 0.6226784
vt 0.9393939 0.9393939
vt 1 0.9403715
vt 1 0.6285435
vt 0.4662757 0.4662757
vt 0.7155425 0.7155425
vt 1 0.3391984
vt 1 0
vt 0.8191593 0
vt 1 0.08504399
vt 1 0
vt 0.7536657 0
vt 0.4701857 0.1300098
vt 0.5073314 0.3274682
vt 0.398827 0.3108504
vt 0.3665689 0
vt 0.6803519 0.4652981
vt 0.4330401 0.4330401
vt 0.7761486 0.7761486
vt 0.7331378 0.1661779
vt 0.7370479 0
vt 0.4203323 0
vt 0.9843597 0.6070381
vt 0.9775171 0.5943304
vt 0.4095797 0.09872923
vt 1 0.6226784
vt 1 0.9393939
vt 0.6598241 0.6060606
vt 0.4995112 0.6783969
vt 0.5024438 0.6705768
vt 0.5092864 0.6793744
vt 0.4995112 0.6686217
vt 0.4780059 0.6666667
vt 0.4985337 0.6666667
vt 0.4643206 0.6588466
vt 0.4447703 0.6490713
vt 0.4447703 0.599218
vt 0.3890518 0.5943304
vt 0.4213099 0.5738025
vt 0.3890518 0.5669599
vt 0.3792766 0.5659824
vt 0.3695015 0.5689149
vt 0.372434 0.5650049
vt 0.7761486 0
vt 0.4330401 0
vt 0.5004888 0.1876833
vt 0.6119257 0.4799609
vt 0.6285435 0.6285435
vt 0.9403715 0.9403715
vt 0.8572825 0.2121212
vn 0.2622409 0.9354563 -0.2369626
vn 0.2622409 0.9354563 -0.2369626
vn 0.2622409 0.9354563 -0.2369626
vn -0.1996162 0.911972 0.3584137
vn -0.1996162 0.911972 0.3584137
vn -0.1996162 0.911972 0.3584137
vn -0.2379439 -0.9712789 0
vn -0.176132 -0.9824248 -0.06179845
vn 0.05871063 -0.998081 -0.01968325
vn -0.1291634 -0.9902529 -0.0521153
vn 0.176132 -0.9824248 -0.06179845
vn 0.176132 -0.9824248 -0.06179845
vn -0.4579431 -0.8884878 -0.02962564
vn -0.5429273 -0.8397796 0
vn -0.4970834 -0.8650035 -0.06838814
vn -0.4970834 -0.8650035 -0.06838814
vn -0.6670229 -0.7450372 0
vn -0.7632384 -0.6458171 -0.01968249
vn -0.7632384 -0.6458171 -0.01968249
vn -0.7632384 -0.6458171 -0.01968249
vn 0.3718341 0.04305446 -0.9273002
vn 0.3718341 0.04305446 -0.9273002
vn 0.3718341 0.04305446 -0.9273002
vn 0.3718341 0.04305446 -0.9273002
vn 0.3718341 0.04305446 -0.9273002
vn 0.3718341 0.04305446 -0.9273002
vn 0.9041439 0.04305446 -0.425053
vn 0.9041439 0.04305446 -0.425053
vn 0.9041439 0.04305446 -0.425053
vn 0.9041439 0.04305446 -0.425053
vn 0.3718341 0.04305446 -0.9273002
vn 0.3718341 0.04305446 -0.9273002
vn 0.3718341 0.04305446 -0.9273002
vn 0.3718341 0.04305446 -0.9273002
vn 0.3718341 0.04305446 -0.9273002
vn -0.1996162 0.911972 0.3584137
vn -0.1996162 0.911972 0.3584137
vn -0.1996162 0.911972 0.3584137
vn -0.1996162 0.911972 0.3584137
vn -0.1996162 0.911972 0.3584137
vn -0.1996162 0.911972 0.3584137
vn -0.1996162 0.911972 0.3584137
vn -0.1996162 0.911972 0.3584137
vn -0.1996162 0.911972 0.3584137
vn -0.1996162 0.911972 0.3584137
vn 0.9041439 0.01957023 -0.4267795
vn 0.9041439 0.01957023 -0.4267795
vn 0.9041439 0.01957023 -0.4267795
vn 0.9041439 0.01957023 -0.4267795
vn 0.9041439 0.01957023 -0.4267795
vn 0.9041439 0.01957023 -0.4267795
vn 0.9041439 0.01957023 -0.4267795
vn 0.9041439 0.01957023 -0.4267795
vn 0.9041439 0.01957023 -0.4267795
vn -0.05871069 0.998081 -0.01968325
vn -0.176132 0.9824247 -0.06179941
vn -0.176132 0.9824247 -0.06179941
vn 0.1291634 0.9902529 -0.05211588
vn 0.176132 0.9824247 -0.06179941
vn 0.176132 0.9824247 -0.06179941
vn 0.176132 0.9824247 -0.06179941
vn 0.2379439 0.9712789 0
vn 0.457943 0.8884877 -0.02962765
vn 0.5429273 0.8397796 0
vn 0.4970835 0.8650035 -0.06838858
vn 0.6670229 0.7450372 0
vn 0.7632384 0.645817 -0.01968552
vn 0.7632384 0.645817 -0.01968552
vn 0.7632384 0.645817 -0.01968552
vn -0.1996162 0.911972 0.3584137
vn -0.1996162 0.911972 0.3584137
vn -0.1996162 0.911972 0.3584137
vn -0.1996162 0.911972 0.3584137
vn -0.1996162 0.911972 0.3584137
vn -0.1996162 0.911972 0.3584137
vn -0.1996162 0.911972 0.3584137
g Bottiglia_cell.019_0
f 3/3/3 2/2/2 1/1/1
f 6/6/6 5/5/5 4/4/4
f 9/9/9 8/8/8 7/7/7
f 10/10/10 9/9/9 7/7/7
f 11/11/11 9/9/9 10/10/10
f 12/12/12 11/11/11 10/10/10
f 7/7/7 13/13/13 10/10/10
f 13/13/13 7/7/7 14/14/14
f 7/7/7 15/15/15 14/14/14
f 16/16/16 13/13/13 14/14/14
f 14/14/14 17/17/17 16/16/16
f 17/17/17 14/14/14 18/18/18
f 18/18/18 19/19/19 17/17/17
f 18/18/18 20/20/20 19/19/19
f 23/23/23 22/22/22 21/21/21
f 21/21/21 24/24/24 23/23/23
f 21/21/21 25/25/25 24/24/24
f 21/21/21 26/26/26 25/25/25
f 29/29/29 28/28/28 27/27/27
f 30/30/30 29/29/29 27/27/27
f 33/33/33 32/32/32 31/31/31
f 31/31/31 34/34/34 33/33/33
f 31/31/31 35/35/35 34/34/34
f 38/38/38 37/37/37 36/36/36
f 36/36/36 39/39/39 38/38/38
f 36/36/36 40/40/40 39/39/39
f 40/40/40 41/41/41 39/39/39
f 40/40/40 42/42/42 41/41/41
f 42/42/42 43/43/43 41/41/41
f 43/43/43 44/44/44 41/41/41
f 43/43/43 45/45/45 44/44/44
f 48/48/48 47/47/47 46/46/46
f 46/46/46 49/49/49 48/48/48
f 46/46/46 50/50/50 49/49/49
f 51/51/51 48/48/48 49/49/49
f 51/51/51 49/49/49 52/52/52
f 51/51/51 52/52/52 53/53/53
f 53/53/53 54/54/54 51/51/51
f 57/57/57 56/56/56 55/55/55
f 56/56/56 58/58/58 55/55/55
f 59/59/59 55/55/55 58/58/58
f 60/60/60 59/59/59 58/58/58
f 61/61/61 59/59/59 60/60/60
f 62/62/62 61/61/61 60/60/60
f 60/60/60 63/63/63 62/62/62
f 64/64/64 62/62/62 63/63/63
f 64/64/64 63/63/63 65/65/65
f 65/65/65 66/66/66 64/64/64
f 64/64/64 66/66/66 67/67/67
f 67/67/67 68/68/68 64/64/64
f 67/67/67 69/69/69 68/68/68
f 72/72/72 71/71/71 70/70/70
f 70/70/70 73/73/73 72/72/72
f 70/70/70 74/74/74 73/73/73
f 70/70/70 75/75/75 74/74/74
f 70/70/70 76/76/76 75/75/75
