g Bottiglia_cell.006
v -0.04650173 0.1633122 0.04770756
v -0.07254928 0.06784385 0.0241442
v -0.04504207 0.1638743 0.04268482
v 0.04054397 0.1979546 -0.1502102
v 0.03196724 0.2770492 -0.08549479
v 0.02447847 0.2056247 -0.1433651
v -0.04650173 0.1633122 0.04770756
v -0.04504207 0.1638743 0.04268482
v -0.04207736 0.1645543 0.03347343
v -0.01427099 0.1314169 0.03347343
v -0.06430799 0.1228764 0.182424
v -0.05757171 0.106421 0.2008377
v -0.05639309 0.08943981 0.2168035
v 0.01183096 0.05970231 0.03347343
v -0.04210457 0.05019173 0.2168035
v -0.04210457 0.04987442 0.260086
v 0.1440904 0.2228507 -0.1325762
v 0.03196724 0.2770492 -0.08549479
v 0.1714435 0.2024968 -0.1498566
v -0.04210457 -0.007116467 0.2168035
v -0.04210457 -0.007796437 0.3121993
v 0.01183096 -0.01662703 0.03347343
v -0.01427099 -0.08835067 0.03347343
v -0.06170595 -0.06096132 0.2168035
v -0.06170595 -0.06190422 0.3489541
v -0.09854239 -0.1048604 0.2168035
v -0.09854239 -0.1052775 0.275662
v -0.1224412 -0.1186594 0.2168035
v -0.1384795 -0.1385146 0.1856244
v -0.1400208 -0.1480524 0.1601571
v -0.1408912 -0.1535012 0.1455875
v -0.06333789 -0.1468194 0.03347343
v -0.1294313 -0.1849795 0.03347343
v -0.1453971 -0.1877901 0.03347343
v -0.1216796 -0.2062853 0.01287475
v -0.1462947 -0.1945263 0.02749875
v -0.0040351 -0.2368751 -0.0657846
v 0.01672676 -0.2422333 -0.07962887
v 0.06785172 -0.2449079 -0.1173266
v 0.07599328 -0.245207 -0.123256
v 0.1340268 -0.173973 -0.122023
v 0.1964121 -0.04917511 -0.1367195
v 0.2106644 0.008813053 -0.1498566
v 0.2106644 0.09476176 -0.1498566
v 0.2223055 0.09681073 -0.1740727
v 0.2168113 0.1313534 -0.1878988
v 0.2140008 0.1485885 -0.1946714
v 0.2064667 0.1582532 -0.1868109
v -0.1224412 -0.1186594 0.2168035
v -0.1384795 -0.1385146 0.1856244
v -0.0706 0.10313 0.1969391
v -0.09854239 -0.1052775 0.275662
v -0.06170595 -0.06190422 0.3489541
v -0.0706 0.10313 0.1969391
v -0.09095389 0.01725379 0.1100204
v -0.08227742 0.04309282 0.08167905
v -0.07254928 0.06784385 0.0241442
v -0.04650173 0.1633122 0.04770756
v -0.06430799 0.1228764 0.182424
v 0.1316151 0.1352882 -0.2036108
v 0.2064667 0.1582532 -0.1868109
v 0.1714435 0.2024968 -0.1498566
v 0.1440904 0.2228507 -0.1325762
v 0.03196724 0.2770492 -0.08549479
v 0.1254138 0.1430852 -0.1971012
v 0.07335499 0.182016 -0.1640454
v 0.04054397 0.1979546 -0.1502102
v -0.0309802 0.1217703 -0.05387147
v 0.04054397 0.1979546 -0.1502102
v 0.02447847 0.2056247 -0.1433651
v 0.07335499 0.182016 -0.1640454
v -0.05414465 0.04807022 -0.01025341
v -0.06194168 0.06949392 -0.01025341
v -0.07254928 0.06784385 0.0241442
v -0.08227742 0.04309282 0.08167905
v -0.09095389 0.01725379 0.1100204
v 0.1254138 0.1430852 -0.1971012
v -0.09590411 0.002348766 0.1262219
v 0.1470823 0.08354673 -0.1971012
v 0.1446797 0.1117974 -0.2123598
v 0.1432926 0.1203741 -0.2157324
v 0.1316151 0.1352882 -0.2036108
v 0.1470823 0.06891367 -0.1971012
v 0.1214337 -0.03594735 -0.1732839
v -0.05414465 -0.004994944 -0.01025341
v 0.07501411 -0.1289134 -0.1623046
v 0.06087066 -0.131733 -0.1508539
v -0.07228634 -0.05485062 -0.01025341
v -0.05840582 -0.1261482 -0.06268393
v -0.1060856 -0.03535804 0.1153423
v -0.08163372 -0.1250149 -0.04548512
v -0.1063938 -0.095504 -0.01025341
v -0.1163033 -0.08369058 0.03938469
v -0.11954 -0.1030834 -0.01025341
v -0.1224231 -0.1145886 -0.01815924
v -0.1384795 -0.1385146 0.1856244
v -0.1400208 -0.1480524 0.1601571
v -0.1224231 -0.1145886 -0.01815924
v -0.1163033 -0.08369058 0.03938469
v -0.11954 -0.1030834 -0.01025341
v -0.1060856 -0.03535804 0.1153423
v -0.0706 0.10313 0.1969391
v -0.09590411 0.002348766 0.1262219
v -0.09095389 0.01725379 0.1100204
v 0.2064667 0.1582532 -0.1868109
v 0.1316151 0.1352882 -0.2036108
v 0.1432926 0.1203741 -0.2157324
v 0.2140008 0.1485885 -0.1946714
v 0.2140008 0.1485885 -0.1946714
v 0.1432926 0.1203741 -0.2157324
v 0.1446797 0.1117974 -0.2123598
v 0.2168113 0.1313534 -0.1878988
v 0.06087066 -0.131733 -0.1508539
v 0.06785172 -0.2449079 -0.1173266
v 0.07599328 -0.245207 -0.123256
v 0.07501411 -0.1289134 -0.1623046
v -0.04504207 0.1638743 0.04268482
v -0.07254928 0.06784385 0.0241442
v -0.06194168 0.06949392 -0.01025341
v -0.0309802 0.1217703 -0.05387147
v -0.04207736 0.1645543 0.03347343
v 0.02447847 0.2056247 -0.1433651
v 0.03196724 0.2770492 -0.08549479
v -0.1216796 -0.2062853 0.01287475
v -0.0040351 -0.2368751 -0.0657846
v -0.05840582 -0.1261482 -0.06268393
v -0.08163372 -0.1250149 -0.04548512
v -0.1224231 -0.1145886 -0.01815924
v -0.1462947 -0.1945263 0.02749875
v -0.05639309 0.08943981 0.2168035
v -0.04210457 0.04987442 0.260086
v -0.04210457 -0.007796437 0.3121993
v -0.06170595 -0.06190422 0.3489541
v -0.05757171 0.106421 0.2008377
v -0.06430799 0.1228764 0.182424
v -0.0706 0.10313 0.1969391
v 0.01672676 -0.2422333 -0.07962887
v 0.06785172 -0.2449079 -0.1173266
v 0.06087066 -0.131733 -0.1508539
v -0.05840582 -0.1261482 -0.06268393
v -0.0040351 -0.2368751 -0.0657846
v -0.1453971 -0.1877901 0.03347343
v -0.1462947 -0.1945263 0.02749875
v -0.1224231 -0.1145886 -0.01815924
v -0.1408912 -0.1535012 0.1455875
v -0.1400208 -0.1480524 0.1601571
v 0.1214337 -0.03594735 -0.1732839
v 0.07501411 -0.1289134 -0.1623046
v 0.07599328 -0.245207 -0.123256
v 0.1340268 -0.173973 -0.122023
v 0.1470823 0.06891367 -0.1971012
v 0.1964121 -0.04917511 -0.1367195
v 0.1470823 0.08354673 -0.1971012
v 0.1446797 0.1117974 -0.2123598
v 0.2106644 0.008813053 -0.1498566
v 0.2168113 0.1313534 -0.1878988
v 0.2223055 0.09681073 -0.1740727
vt 0.2799219 0.2799219
vt 0.5305325 0.5305325
vt 1 0.2936004
vt 1 0.5232047
vt 1 0.1069858
vt 0.344895 0
vt 0.8661457 1
vt 0.8656572 1
vt 0.8646801 1
vt 0.8334149 1
vt 0.849536 1
vt 0.8334149 1
vt 0.8182707 1
vt 0.7777236 1
vt 0.7777236 1
vt 0.7777236 1
vt 0.8334149 1
vt 0.8808013 1
vt 0.8212019 1
vt 0.7220323 1
vt 0.7220323 1
vt 0.7220323 1
vt 0.6668296 1
vt 0.6668296 1
vt 0.6668296 1
vt 0.6111383 1
vt 0.6111383 1
vt 0.5842698 1
vt 0.5622863 1
vt 0.5578896 1
vt 0.555447 1
vt 0.6111383 1
vt 0.555447 1
vt 0.5437226 1
vt 0.555447 1
vt 0.542257 1
vt 0.6047876 1
vt 0.6111383 1
vt 0.6272595 1
vt 0.6292136 1
vt 0.6668296 1
vt 0.7220323 1
vt 0.7449927 1
vt 0.7777236 1
vt 0.7777236 1
vt 0.7904251 1
vt 0.7967759 1
vt 0.8011726 1
vt 0.860772 0.1152907
vt 0.9428433 0
vt 0 0
vt 0.7992185 0.3375672
vt 0.6116269 0.6116269
vt 0 0
vt 0.4005863 0.4005863
vt 0.6121154 0.4255008
vt 1 0.5305325
vt 1 0.2799219
vt 0.1182218 0
vt 1 0.714216
vt 1 0.4626283
vt 0.7107964 0.2784563
vt 0.5593552 0.2129947
vt 0.1069858 0.1069858
vt 0.9491941 0.6819737
vt 0.6599903 0.5559356
vt 0.5232047 0.5232047
vt 0.8334149 1
vt 0.849536 1
vt 0.8578408 1
vt 0.8334149 1
vt 0.7777236 1
vt 0.8016611 1
vt 0.8036152 1
vt 0.7777236 1
vt 0.7440157 1
vt 0.8060578 1
vt 0.7220323 1
vt 0.7777236 1
vt 0.7904251 1
vt 0.7938448 1
vt 0.8021496 1
vt 0.7713729 1
vt 0.7220323 1
vt 0.7220323 1
vt 0.6717148 1
vt 0.6668296 1
vt 0.6668296 1
vt 0.6243284 1
vt 0.6668296 1
vt 0.6111383 1
vt 0.6111383 1
vt 0.6111383 1
vt 0.5950172 1
vt 0.5881779 1
vt 0.05715682 0
vt 0.1206644 0.1206644
vt 0.9819249 0.9819249
vt 0.8724964 0.7191012
vt 0.9936494 0.9545678
vt 0.763068 0.3629702
vt 1 0
vt 0.8734735 0.3190035
vt 1 0.4005863
vt 0.4626283 0.4626283
vt 0.714216 0.714216
vt 0.7410846 0
vt 0.480215 0
vt 0.480215 0.480215
vt 0.7410846 0.7410846
vt 1 0.7718614
vt 1 0.5417685
vt 0.4709331 0.4709331
vt 0.6917441 0.6917441
vt 1 0.6819737
vt 1 0.4469956
vt 0.2936004 0.2936004
vt 0.5393259 0.5393259
vt 0.7645336 0.5456766
vt 0.4518808 0.4142648
vt 0.3600391 0.2945775
vt 0.6551051 0
vt 0.1338544 0
vt 0.2051783 0.1006351
vt 1 0.5173425
vt 1 0.1944309
vt 0.5930631 0.1299463
vt 0.9599415 0
vt 0 0
vt 0.7870055 0.184172
vt 0.5974598 0.4513923
vt 0.6507084 0.6340988
vt 1 0.6116269
vt 0.7904251 0.1187103
vt 0.8817783 0
vt 1 0
vt 0.6555936 0.5730338
vt 1 0.6917441
vt 1 0.4709331
vt 0.1944309 0.1944309
vt 0.5173425 0.5173425
vt 0.9487056 0.899365
vt 0.997069 0.997069
vt 1 0.04005863
vt 0.2188569 0.1152907
vt 0.1206644 0
vt 0.3463606 0.1304348
vt 0.4469956 0.4469956
vt 0.6819737 0.6819737
vt 0.6463118 0.3776259
vt 0.2721055 0.1226185
vt 0.5388374 0.492428
vt 0.2662433 0.08158281
vt 0.2281388 0
vt 0.5393259 0.3400098
vt 0.4582316 0
vt 0.505618 0.1016121
vn -0.9238375 0.3094131 -0.2253613
vn -0.9238375 0.3094131 -0.2253613
vn -0.9238375 0.3094131 -0.2253613
vn -0.02524173 0.6319859 -0.7745687
vn -0.02524173 0.6319859 -0.7745687
vn -0.02524173 0.6319859 -0.7745687
vn 0.7351084 0.6166253 0.2817602
vn 0.7351084 0.6166253 0.2817602
vn 0.6506251 0.5475025 0.5262395
vn 0.7274281 0.4169374 0.5449877
vn 0.7351084 0.6166253 0.2817602
vn 0.873354 0.4015768 0.275661
vn 0.9194358 0.332454 0.210029
vn 0.8272721 0.1481267 0.5419219
vn 0.9731979 0.1711676 0.153582
vn 0.9962358 0.08668397 0
vn 0.6045432 0.2940525 0.7403112
vn 0.5200599 0.4322979 0.736652
vn 0.6890266 0.2479707 0.680994
vn 0.9731979 -0.1744462 0.1498476
vn 0.9655176 -0.2512492 -0.06818821
vn 0.8272721 -0.1437249 0.5431058
vn 0.7274281 -0.4202159 0.5424637
vn 0.8579934 -0.497019 0.1296903
vn 0.8810343 -0.4662977 -0.079656
vn 0.6352645 -0.7581494 0.1471344
vn 0.7334172 -0.6797788 0
vn 0.4893387 -0.850313 0.1936889
vn 0.4816583 -0.8272721 0.2891818
vn 0.4816583 -0.8272721 0.2891818
vn 0.4662977 -0.8349524 0.2922685
vn 0.5354205 -0.6429448 0.547674
vn 0.2896507 -0.7888706 0.54202
vn 0.1437249 -0.8195918 0.5546282
vn 0.2896507 -0.6045432 0.7420444
vn 0.120684 -0.6659857 0.7361374
vn 0.3357326 -0.5891826 0.7349473
vn 0.4893387 -0.4662977 0.7369627
vn 0.5200599 -0.4355766 0.7347181
vn 0.5200599 -0.4355766 0.7347181
vn 0.5815023 -0.3280523 0.7444708
vn 0.6659857 -0.09764308 0.7395464
vn 0.7043872 0.002200902 0.7098125
vn 0.7965509 0.1404464 0.5880319
vn 0.8810343 0.1942085 0.4313487
vn 0.850313 0.3094131 0.4257127
vn 0.850313 0.3094131 0.4257127
vn 0.850313 0.3094131 0.4257127
vn -0.9161572 0.2402903 0.320806
vn -0.9161572 0.2402903 0.320806
vn -0.9161572 0.2402903 0.320806
vn -0.9161572 0.2402903 0.320806
vn -0.9161572 0.2402903 0.320806
vn -0.962239 0.2710116 -0.02547163
vn -0.962239 0.2710116 -0.02547163
vn -0.962239 0.2710116 -0.02547163
vn -0.962239 0.2710116 -0.02547163
vn -0.962239 0.2710116 -0.02547163
vn -0.962239 0.2710116 -0.02547163
vn -0.01756144 0.6319859 -0.7747809
vn -0.01756144 0.6319859 -0.7747809
vn -0.01756144 0.6319859 -0.7747809
vn -0.01756144 0.6319859 -0.7747809
vn -0.01756144 0.6319859 -0.7747809
vn -0.01756144 0.6319859 -0.7747809
vn -0.01756144 0.6319859 -0.7747809
vn -0.01756144 0.6319859 -0.7747809
vn -0.6243056 -0.2589295 -0.7370197
vn -0.5244616 -0.4355766 -0.7315826
vn -0.5244616 -0.4355766 -0.7315826
vn -0.608945 -0.297331 -0.7353776
vn -0.8239936 -0.1437249 -0.5480673
vn -0.7779117 -0.2819704 -0.5615569
vn -0.9007967 -0.3280523 -0.284512
vn -0.9545587 -0.04388094 -0.2947747
vn -0.9545587 0.002200902 -0.2980148
vn -0.6934284 -0.2512492 -0.6753006
vn -0.9315178 0.2095691 -0.2972462
vn -0.7011087 -0.1514052 -0.6967948
vn -0.8470345 -0.3050113 -0.4353168
vn -0.8470345 -0.3050113 -0.4353168
vn -0.8470345 -0.3050113 -0.4353168
vn -0.6780678 0.002200902 -0.7349961
vn -0.6703874 0.1020448 -0.7349609
vn -0.8239936 0.1481267 -0.5468941
vn -0.6396662 0.23261 -0.7326116
vn -0.6243056 0.2633313 -0.7354584
vn -0.7241496 0.4169374 -0.5493366
vn -0.5244616 0.4399782 -0.7289438
vn -0.8700753 0.3938965 -0.2963351
vn -0.4937404 0.4630193 -0.7360935
vn -0.5398222 0.6396662 -0.547192
vn -0.708789 0.6396662 -0.2973976
vn -0.4092571 0.7011087 -0.5839137
vn -0.3401343 0.5859041 -0.735544
vn -0.962239 0.2710116 -0.02547163
vn -0.962239 0.2710116 -0.02547163
vn -0.962239 0.2710116 -0.02547163
vn -0.962239 0.2710116 -0.02547163
vn -0.962239 0.2710116 -0.02547163
vn -0.962239 0.2710116 -0.02547163
vn -0.962239 0.2710116 -0.02547163
vn -0.962239 0.2710116 -0.02547163
vn -0.962239 0.2710116 -0.02547163
vn -0.01756144 0.6243056 -0.7809828
vn -0.01756144 0.6243056 -0.7809828
vn -0.01756144 0.6243056 -0.7809828
vn -0.01756144 0.6243056 -0.7809828
vn 0.3741341 -0.2819704 -0.8834684
vn 0.3741341 -0.2819704 -0.8834684
vn 0.3741341 -0.2819704 -0.8834684
vn 0.3741341 -0.2819704 -0.8834684
vn -0.5705435 -0.2666098 -0.7767878
vn -0.5705435 -0.2666098 -0.7767878
vn -0.5705435 -0.2666098 -0.7767878
vn -0.5705435 -0.2666098 -0.7767878
vn -0.9084769 0.3170934 -0.2722525
vn -0.9084769 0.3170934 -0.2722525
vn -0.9084769 0.3170934 -0.2722525
vn -0.9084769 0.3170934 -0.2722525
vn -0.9084769 0.3170934 -0.2722525
vn -0.9084769 0.3170934 -0.2722525
vn -0.9084769 0.3170934 -0.2722525
vn -0.5859041 -0.2666098 -0.7652683
vn -0.5859041 -0.2666098 -0.7652683
vn -0.5859041 -0.2666098 -0.7652683
vn -0.5859041 -0.2666098 -0.7652683
vn -0.5859041 -0.2666098 -0.7652683
vn -0.5859041 -0.2666098 -0.7652683
vn -0.3862162 0.6166253 0.6860105
vn -0.3862162 0.6166253 0.6860105
vn -0.3862162 0.6166253 0.6860105
vn -0.3862162 0.6166253 0.6860105
vn -0.3862162 0.6166253 0.6860105
vn -0.3862162 0.6166253 0.6860105
vn -0.3862162 0.6166253 0.6860105
vn -0.5782238 -0.2666098 -0.7710878
vn -0.5782238 -0.2666098 -0.7710878
vn -0.5782238 -0.2666098 -0.7710878
vn -0.5782238 -0.2666098 -0.7710878
vn -0.5782238 -0.2666098 -0.7710878
vn -0.962239 0.2710116 -0.02547163
vn -0.962239 0.2710116 -0.02547163
vn -0.962239 0.2710116 -0.02547163
vn -0.962239 0.2710116 -0.02547163
vn -0.962239 0.2710116 -0.02547163
vn 0.3741341 -0.2896507 -0.8809803
vn 0.3741341 -0.2896507 -0.8809803
vn 0.3741341 -0.2896507 -0.8809803
vn 0.3741341 -0.2896507 -0.8809803
vn 0.3741341 -0.2896507 -0.8809803
vn 0.3741341 -0.2896507 -0.8809803
vn 0.3741341 -0.2896507 -0.8809803
vn 0.3741341 -0.2896507 -0.8809803
vn 0.3741341 -0.2896507 -0.8809803
vn 0.3741341 -0.2896507 -0.8809803
vn 0.3741341 -0.2896507 -0.8809803
g Bottiglia_cell.006_0
f 3/3/3 2/2/2 1/1/1
f 6/6/6 5/5/5 4/4/4
f 9/9/9 8/8/8 7/7/7
f 10/10/10 9/9/9 7/7/7
f 10/10/10 7/7/7 11/11/11
f 11/11/11 12/12/12 10/10/10
f 10/10/10 12/12/12 13/13/13
f 14/14/14 10/10/10 13/13/13
f 13/13/13 15/15/15 14/14/14
f 13/13/13 16/16/16 15/15/15
f 9/9/9 10/10/10 17/17/17
f 17/17/17 10/10/10 14/14/14
f 18/18/18 9/9/9 17/17/17
f 19/19/19 17/17/17 14/14/14
f 15/15/15 16/16/16 20/20/20
f 16/16/16 21/21/21 20/20/20
f 14/14/14 15/15/15 22/22/22
f 15/15/15 20/20/20 22/22/22
f 22/22/22 20/20/20 23/23/23
f 20/20/20 21/21/21 24/24/24
f 20/20/20 24/24/24 23/23/23
f 21/21/21 25/25/25 24/24/24
f 24/24/24 25/25/25 26/26/26
f 25/25/25 27/27/27 26/26/26
f 28/28/28 26/26/26 27/27/27
f 26/26/26 28/28/28 29/29/29
f 26/26/26 29/29/29 30/30/30
f 26/26/26 30/30/30 31/31/31
f 24/24/24 26/26/26 32/32/32
f 23/23/23 24/24/24 32/32/32
f 26/26/26 31/31/31 33/33/33
f 33/33/33 32/32/32 26/26/26
f 34/34/34 33/33/33 31/31/31
f 35/35/35 33/33/33 34/34/34
f 32/32/32 33/33/33 35/35/35
f 36/36/36 35/35/35 34/34/34
f 32/32/32 35/35/35 37/37/37
f 37/37/37 38/38/38 32/32/32
f 23/23/23 32/32/32 38/38/38
f 23/23/23 38/38/38 39/39/39
f 23/23/23 39/39/39 40/40/40
f 40/40/40 41/41/41 23/23/23
f 22/22/22 23/23/23 41/41/41
f 42/42/42 22/22/22 41/41/41
f 14/14/14 22/22/22 42/42/42
f 14/14/14 42/42/42 43/43/43
f 43/43/43 44/44/44 14/14/14
f 45/45/45 44/44/44 43/43/43
f 14/14/14 44/44/44 19/19/19
f 19/19/19 44/44/44 45/45/45
f 45/45/45 46/46/46 19/19/19
f 46/46/46 47/47/47 19/19/19
f 47/47/47 48/48/48 19/19/19
f 51/51/51 50/50/50 49/49/49
f 49/49/49 52/52/52 51/51/51
f 52/52/52 53/53/53 51/51/51
f 56/56/56 55/55/55 54/54/54
f 54/54/54 57/57/57 56/56/56
f 54/54/54 58/58/58 57/57/57
f 54/54/54 59/59/59 58/58/58
f 62/62/62 61/61/61 60/60/60
f 60/60/60 63/63/63 62/62/62
f 60/60/60 64/64/64 63/63/63
f 60/60/60 65/65/65 64/64/64
f 65/65/65 66/66/66 64/64/64
f 66/66/66 67/67/67 64/64/64
f 70/70/70 69/69/69 68/68/68
f 69/69/69 71/71/71 68/68/68
f 72/72/72 68/68/68 71/71/71
f 72/72/72 73/73/73 68/68/68
f 74/74/74 73/73/73 72/72/72
f 75/75/75 74/74/74 72/72/72
f 76/76/76 75/75/75 72/72/72
f 72/72/72 71/71/71 77/77/77
f 78/78/78 76/76/76 72/72/72
f 77/77/77 79/79/79 72/72/72
f 80/80/80 79/79/79 77/77/77
f 77/77/77 81/81/81 80/80/80
f 77/77/77 82/82/82 81/81/81
f 72/72/72 79/79/79 83/83/83
f 83/83/83 84/84/84 72/72/72
f 84/84/84 85/85/85 72/72/72
f 72/72/72 85/85/85 78/78/78
f 85/85/85 84/84/84 86/86/86
f 86/86/86 87/87/87 85/85/85
f 78/78/78 85/85/85 88/88/88
f 87/87/87 88/88/88 85/85/85
f 88/88/88 87/87/87 89/89/89
f 90/90/90 78/78/78 88/88/88
f 89/89/89 91/91/91 88/88/88
f 90/90/90 88/88/88 92/92/92
f 91/91/91 92/92/92 88/88/88
f 93/93/93 90/90/90 92/92/92
f 93/93/93 92/92/92 94/94/94
f 94/94/94 92/92/92 91/91/91
f 95/95/95 94/94/94 91/91/91
f 98/98/98 97/97/97 96/96/96
f 96/96/96 99/99/99 98/98/98
f 99/99/99 100/100/100 98/98/98
f 96/96/96 101/101/101 99/99/99
f 96/96/96 102/102/102 101/101/101
f 102/102/102 103/103/103 101/101/101
f 102/102/102 104/104/104 103/103/103
f 107/107/107 106/106/106 105/105/105
f 108/108/108 107/107/107 105/105/105
f 111/111/111 110/110/110 109/109/109
f 112/112/112 111/111/111 109/109/109
f 115/115/115 114/114/114 113/113/113
f 116/116/116 115/115/115 113/113/113
f 119/119/119 118/118/118 117/117/117
f 117/117/117 120/120/120 119/119/119
f 117/117/117 121/121/121 120/120/120
f 121/121/121 122/122/122 120/120/120
f 121/121/121 123/123/123 122/122/122
f 126/126/126 125/125/125 124/124/124
f 124/124/124 127/127/127 126/126/126
f 124/124/124 128/128/128 127/127/127
f 124/124/124 129/129/129 128/128/128
f 132/132/132 131/131/131 130/130/130
f 130/130/130 133/133/133 132/132/132
f 130/130/130 134/134/134 133/133/133
f 134/134/134 135/135/135 133/133/133
f 135/135/135 136/136/136 133/133/133
f 139/139/139 138/138/138 137/137/137
f 137/137/137 140/140/140 139/139/139
f 137/137/137 141/141/141 140/140/140
f 144/144/144 143/143/143 142/142/142
f 142/142/142 145/145/145 144/144/144
f 145/145/145 146/146/146 144/144/144
f 149/149/149 148/148/148 147/147/147
f 150/150/150 149/149/149 147/147/147
f 150/150/150 147/147/147 151/151/151
f 152/152/152 150/150/150 151/151/151
f 151/151/151 153/153/153 152/152/152
f 152/152/152 153/153/153 154/154/154
f 155/155/155 152/152/152 154/154/154
f 155/155/155 154/154/154 156/156/156
f 156/156/156 157/157/157 155/155/155
