g Bottiglia_cell.025
v -0.2815776 -0.02934283 0.1878187
v -0.3131222 -0.0311079 0.1749957
v -0.3228225 -0.01955205 0.1692178
v 0.4898249 -0.1185609 -0.1469374
v 0.3672067 -0.01504141 -0.1649651
v 0.4820406 -0.1278236 -0.1649651
v -0.4166115 0.1938531 -0.1649651
v -0.4166115 0.3049909 -0.1649651
v -0.4166115 0.2898598 -0.1503167
v -0.4166115 0.1938531 -0.05761379
v -0.3512745 0.01436102 -0.1649651
v -0.3512745 0.01436102 0.1302962
v -0.3268806 -0.01472461 0.1638321
v -0.3228225 -0.01955205 0.1692178
v -0.3131222 -0.0311079 0.1749957
v -0.2972066 -0.05008596 0.1808642
v -0.2285054 -0.1319722 -0.1649651
v -0.2285054 -0.1319722 0.2050921
v -0.0630734 -0.2274811 0.2417056
v -0.09935498 -0.2065268 0.2541363
v -0.0630734 -0.2274811 -0.1649651
v 0.1250327 -0.2606399 -0.1649651
v 0.1250327 -0.2606399 0.18014
v 0.3131388 -0.2274811 -0.1649651
v 0.3131388 -0.2274811 0.121124
v 0.4785708 -0.1319722 -0.1649651
v 0.4785708 -0.1319722 0.07176286
v 0.4820406 -0.1278236 -0.1649651
v 0.5446773 -0.05319363 0.05356932
v 0.4898249 -0.1185609 -0.1469374
v 0.5595217 -0.0354979 0.01586962
v 0.5720431 -0.02056283 0.04598105
v -0.3581235 0.2041568 -0.1113649
v -0.3572032 0.2237081 -0.07318246
v -0.3581235 0.2629465 -0.1113649
v -0.3567507 0.2043982 -0.05444574
v -0.2998466 0.0440501 -0.1113649
v -0.2950945 0.04679573 0.1115142
v -0.2219732 -0.03668964 0.2084411
v -0.2183979 -0.04077792 0.2130273
v -0.2057408 -0.05568284 0.2177039
v -0.1849977 -0.08012196 0.2250357
v -0.190323 -0.08647314 -0.1113649
v -0.04276776 -0.1716632 -0.1113649
v -0.03984112 -0.1636074 0.2367122
v -0.1000037 -0.1282912 0.2573647
v 0.1250327 -0.2012618 -0.1113649
v 0.1250327 -0.1940055 0.1827046
v 0.2928332 -0.1716632 -0.1113649
v 0.2907966 -0.1660663 0.1306432
v 0.4403884 -0.08647314 -0.1113649
v 0.4372505 -0.08273184 0.08687896
v 0.4631832 -0.05931854 -0.1113649
v 0.4986049 -0.01025915 0.06996769
v 0.5265591 0.02203977 0.04296392
v 0.5334684 0.03092533 0.06029761
v -0.2219732 -0.03668964 0.2084411
v -0.2183979 -0.04077792 0.2130273
v -0.2815776 -0.02934283 0.1878187
v -0.3268806 -0.01472461 0.1638321
v -0.3228225 -0.01955205 0.1692178
v -0.2950945 0.04679573 0.1115142
v -0.2219732 -0.03668964 0.2084411
v -0.3268806 -0.01472461 0.1638321
v -0.3567507 0.2043982 -0.05444574
v -0.3512745 0.01436102 0.1302962
v -0.4166115 0.1938531 -0.05761379
v -0.3572032 0.2237081 -0.07318246
v -0.4166115 0.2898598 -0.1503167
v 0.5720431 -0.02056283 0.04598105
v 0.5334684 0.03092533 0.06029761
v 0.5265591 0.02203977 0.04296392
v 0.5595217 -0.0354979 0.01586962
v -0.01093656 0.286028 -0.1113649
v -0.1496816 0.3386174 -0.1649651
v 0.1037163 0.2434555 -0.1649651
v 0.1868396 0.21176 -0.1113649
v 0.1868396 0.21176 -0.1113649
v 0.4631832 -0.05931854 -0.1113649
v 0.4403884 -0.08647314 -0.1113649
v 0.2928332 -0.1716632 -0.1113649
v 0.1250327 -0.2012618 -0.1113649
v -0.01093656 0.286028 -0.1113649
v -0.04276776 -0.1716632 -0.1113649
v -0.1037903 0.320801 -0.1113649
v -0.190323 -0.08647314 -0.1113649
v -0.2358673 0.2908555 -0.1113649
v -0.2998466 0.0440501 -0.1113649
v -0.3581235 0.2629465 -0.1113649
v -0.3581235 0.2041568 -0.1113649
v -0.2183979 -0.04077792 0.2130273
v -0.2057408 -0.05568284 0.2177039
v -0.2972066 -0.05008596 0.1808642
v -0.2815776 -0.02934283 0.1878187
v -0.3131222 -0.0311079 0.1749957
v -0.1037903 0.320801 -0.1113649
v -0.1945772 0.3554231 -0.1649651
v -0.1496816 0.3386174 -0.1649651
v -0.01093656 0.286028 -0.1113649
v 0.4785708 -0.1319722 -0.1649651
v 0.4820406 -0.1278236 -0.1649651
v 0.3672067 -0.01504141 -0.1649651
v 0.3131388 -0.2274811 -0.1649651
v 0.1037163 0.2434555 -0.1649651
v 0.1250327 -0.2606399 -0.1649651
v -0.0630734 -0.2274811 -0.1649651
v -0.1496816 0.3386174 -0.1649651
v -0.2285054 -0.1319722 -0.1649651
v -0.1945772 0.3554231 -0.1649651
v -0.3553175 0.3189906 -0.1649651
v -0.3512745 0.01436102 -0.1649651
v -0.4166115 0.1938531 -0.1649651
v -0.4166115 0.3049909 -0.1649651
v -0.1000037 -0.1282912 0.2573647
v -0.09935498 -0.2065268 0.2541363
v -0.2285054 -0.1319722 0.2050921
v -0.1849977 -0.08012196 0.2250357
v -0.2057408 -0.05568284 0.2177039
v -0.2972066 -0.05008596 0.1808642
v 0.1868396 0.21176 -0.1113649
v 0.1037163 0.2434555 -0.1649651
v 0.3672067 -0.01504141 -0.1649651
v 0.4898249 -0.1185609 -0.1469374
v 0.4631832 -0.05931854 -0.1113649
v 0.5595217 -0.0354979 0.01586962
v 0.5265591 0.02203977 0.04296392
v -0.1945772 0.3554231 -0.1649651
v -0.1037903 0.320801 -0.1113649
v -0.2358673 0.2908555 -0.1113649
v -0.3553175 0.3189906 -0.1649651
v 0.5446773 -0.05319363 0.05356932
v 0.4986049 -0.01025915 0.06996769
v 0.5334684 0.03092533 0.06029761
v 0.5720431 -0.02056283 0.04598105
v -0.3553175 0.3189906 -0.1649651
v -0.2358673 0.2908555 -0.1113649
v -0.3581235 0.2629465 -0.1113649
v -0.4166115 0.3049909 -0.1649651
v -0.4166115 0.2898598 -0.1503167
v -0.3572032 0.2237081 -0.07318246
v 0.4986049 -0.01025915 0.06996769
v 0.5446773 -0.05319363 0.05356932
v 0.4785708 -0.1319722 0.07176286
v 0.4372505 -0.08273184 0.08687896
v 0.3131388 -0.2274811 0.121124
v 0.2907966 -0.1660663 0.1306432
v 0.1250327 -0.2606399 0.18014
v 0.1250327 -0.1940055 0.1827046
v -0.03984112 -0.1636074 0.2367122
v -0.0630734 -0.2274811 0.2417056
v -0.1000037 -0.1282912 0.2573647
v -0.09935498 -0.2065268 0.2541363
vt 0 0
vt 0.170088 0.170088
vt 0.2238514 0
vt 0.3284458 0.3284458
vt 0.5063539 0.5063539
vt 0.5063539 0.3128055
vt 0.2776149 0.5004888
vt 0.2453568 0.5004888
vt 0.2502444 0.5024438
vt 0.2776149 0.5200391
vt 0.3333333 0.5004888
vt 0.3333333 0.5552297
vt 0.344086 0.5610948
vt 0.3460411 0.5630499
vt 0.3509286 0.5640274
vt 0.3577712 0.5650049
vt 0.3890518 0.5004888
vt 0.3890518 0.5689149
vt 0.4447703 0.5757576
vt 0.4320626 0.5786901
vt 0.4447703 0.5004888
vt 0.4995112 0.5004888
vt 0.4995112 0.5650049
vt 0.5552297 0.5004888
vt 0.5552297 0.5532747
vt 0.6109482 0.5004888
vt 0.6109482 0.544477
vt 0.6129032 0.5004888
vt 0.6412512 0.540567
vt 0.6158358 0.5034213
vt 0.6480938 0.5337244
vt 0.6529814 0.5395895
vt 0.2776149 0.5004888
vt 0.2717498 0.5073314
vt 0.259042 0.5004888
vt 0.2776149 0.5112414
vt 0.3333333 0.5004888
vt 0.3333333 0.544477
vt 0.3695015 0.5640274
vt 0.3714565 0.5650049
vt 0.3782991 0.5659824
vt 0.3890518 0.5669599
vt 0.3890518 0.5004888
vt 0.4447703 0.5004888
vt 0.4447703 0.5689149
vt 0.4213099 0.5738025
vt 0.4995112 0.5004888
vt 0.4995112 0.5581623
vt 0.5552297 0.5004888
vt 0.5552297 0.5483871
vt 0.6109482 0.5004888
vt 0.6109482 0.5395895
vt 0.6226784 0.5004888
vt 0.6422287 0.5356794
vt 0.6559139 0.5307918
vt 0.6598241 0.5337244
vt 1 0.3323558
vt 0.3489736 0
vt 0 0
vt 1 0.6187683
vt 0.2238514 0.2238514
vt 0.6744868 0.2062561
vt 0.6676442 0
vt 0.3812317 0
vt 0.943304 0.6441838
vt 0.3870968 0.07233626
vt 0.7096774 0.5738025
vt 1 0.7018573
vt 1 0.8641251
vt 0.6168133 0.6168133
vt 0.7820137 0.7820137
vt 1 0.8123167
vt 1 0.6715543
vt 0.6471163 0.6471163
vt 0.829912 0.829912
vt 0.829912 0
vt 0.6471163 0
vt 0.7800586 0.2121212
vt 0.914956 0.07917888
vt 0.9042033 0.06647117
vt 0.831867 0.02443793
vt 0.7497556 0.009775171
vt 0.6832845 0.2482893
vt 0.6676442 0.02443793
vt 0.6383187 0.2649071
vt 0.5953079 0.06647117
vt 0.5738025 0.2512219
vt 0.542522 0.1300098
vt 0.5131965 0.2375367
vt 0.5131965 0.2082111
vt 0.6510264 0
vt 0.28739 0.28739
vt 0.5376344 0.5376344
vt 1 0
vt 1 0.170088
vt 0.7038123 0.7038123
vt 0.8572825 0.8572825
vt 1 0.829912
vt 1 0.6471163
vt 0.9042033 0.06647117
vt 0.9061583 0.0684262
vt 0.8553275 0.1173021
vt 0.831867 0.02443793
vt 0.740958 0.2297165
vt 0.7497556 0.009775171
vt 0.6676442 0.02443793
vt 0.6304985 0.2717498
vt 0.5953079 0.06647117
vt 0.6109482 0.2785924
vt 0.540567 0.2629521
vt 0.542522 0.1300098
vt 0.5131965 0.2082111
vt 0.5131965 0.257087
vt 0.7341154 0
vt 0.4193548 0
vt 0.6871945 0.3509286
vt 0.9071359 0.2316716
vt 1 0.28739
vt 1 0.5376344
vt 1 0.3528837
vt 1 0.170088
vt 0.5063539 0
vt 0.3284458 0
vt 0.4819159 0.173998
vt 0.6715543 0.6715543
vt 0.8123167 0.8123167
vt 1 0.8572825
vt 1 0.7038123
vt 0.2952102 0
vt 0.14174 0
vt 0.427175 0.427175
vt 0.5415445 0.5415445
vt 0.7820137 0
vt 0.6168133 0
vt 1 0.85826
vt 1 0.7047898
vt 0.8230694 0.7673509
vt 0.911046 0.8895406
vt 0.8641251 0.8641251
vt 0.7018573 0.7018573
vt 1 0.5415445
vt 1 0.427175
vt 0.7702835 0.1241447
vt 0.7878788 0.2619746
vt 0.6412512 0.1358749
vt 0.8719453 0.3939394
vt 0.368524 0.09384164
vt 0.6363636 0.3616813
vt 0.6363636 0.5630499
vt 0.3616813 0.3176931
vt 0.7341154 0.7341154
vt 0.4193548 0.4193548
vn -0.3804782 0.1373776 0.9145293
vn -0.3804782 0.1373776 0.9145293
vn -0.3804782 0.1373776 0.9145293
vn 0.5840826 0.5922111 -0.5550978
vn 0.5840826 0.5922111 -0.5550978
vn 0.5840826 0.5922111 -0.5550978
vn -0.7333663 -0.129249 -0.6674343
vn -0.3961621 -0.003777742 -0.9181728
vn -0.9999929 -0.003777742 0
vn -0.967119 -0.2543243 0
vn -0.6392629 -0.3723497 -0.6728289
vn -0.8196278 -0.5683987 -0.07164644
vn -0.7647341 -0.6389763 -0.08301248
vn -0.7647341 -0.6389763 -0.08301248
vn -0.7647341 -0.6389763 -0.08301248
vn -0.7647341 -0.6389763 -0.08301248
vn -0.4745817 -0.5683987 -0.6720827
vn -0.6205601 -0.7841589 0
vn -0.3722386 -0.9281371 0
vn -0.4981076 -0.866393 -0.03538271
vn -0.2550068 -0.6938699 -0.673436
vn 0.003777742 -0.7409217 -0.6715807
vn -0.03542021 -0.9993725 0
vn 0.2547203 -0.6938699 -0.6735444
vn 0.3090873 -0.9510337 0
vn 0.4742952 -0.5683987 -0.672285
vn 0.6232923 -0.7801315 -0.05386552
vn 0.6076084 -0.513505 -0.6059081
vn 0.7644476 -0.6389763 -0.0856109
vn 0.7644476 -0.6389763 -0.0856109
vn 0.7644476 -0.6389763 -0.0856109
vn 0.7644476 -0.6389763 -0.0856109
vn 0.7409217 0.1295356 0.6589806
vn 0.9997063 -0.003777742 -0.02393769
vn 0.3958756 -0.003777742 0.9182964
vn 0.9670301 0.2546623 0
vn 0.6468183 0.3726363 0.6654084
vn 0.8193413 0.5686852 -0.07264281
vn 0.7644476 0.6392629 -0.08344414
vn 0.7644476 0.6392629 -0.08344414
vn 0.7644476 0.6392629 -0.08344414
vn 0.620246 0.7844074 0
vn 0.4821371 0.5765272 0.6596668
vn 0.2547203 0.7019984 0.6650682
vn 0.3718931 0.9282756 0
vn 0.497821 0.8666796 -0.03225891
vn 0.003777742 0.7490502 0.6625025
vn 0.03512408 0.9993829 0
vn -0.2550068 0.7019984 0.6649584
vn -0.3092618 0.9509769 0
vn -0.4824236 0.5765272 0.6594573
vn -0.6235788 0.780418 -0.04579508
vn -0.6157369 0.5137915 0.5973997
vn -0.7647341 0.6392629 -0.08077606
vn -0.7647341 0.6392629 -0.08077606
vn -0.7647341 0.6392629 -0.08077606
vn -0.1687453 0.6706306 0.7223431
vn -0.1687453 0.6706306 0.7223431
vn -0.1687453 0.6706306 0.7223431
vn -0.1687453 0.6706306 0.7223431
vn -0.1687453 0.6706306 0.7223431
vn -0.1609034 0.6863145 0.7092831
vn -0.1609034 0.6863145 0.7092831
vn -0.1609034 0.6863145 0.7092831
vn -0.1609034 0.6863145 0.7092831
vn -0.1609034 0.6863145 0.7092831
vn -0.1609034 0.6863145 0.7092831
vn -0.1609034 0.6863145 0.7092831
vn -0.1609034 0.6863145 0.7092831
vn 0.5919245 0.5922111 -0.5467279
vn 0.5919245 0.5922111 -0.5467279
vn 0.5919245 0.5922111 -0.5467279
vn 0.5919245 0.5922111 -0.5467279
vn 0.3488013 0.9371967 0
vn 0.3488013 0.9371967 0
vn 0.3488013 0.9371967 0
vn 0.3488013 0.9371967 0
vn 0.003777742 -0.003777742 0.9999858
vn -0.6157369 0.5137915 0.5973997
vn -0.4824236 0.5765272 0.6594573
vn -0.2550068 0.7019984 0.6649584
vn 0.003777742 0.7490502 0.6625025
vn 0.003777742 -0.003777742 0.9999858
vn 0.2547203 0.7019984 0.6650682
vn 0.003777742 -0.003777742 0.9999858
vn 0.4821371 0.5765272 0.6596668
vn 0.003777742 -0.003777742 0.9999858
vn 0.6468183 0.3726363 0.6654084
vn 0.3958756 -0.003777742 0.9182964
vn 0.7409217 0.1295356 0.6589806
vn -0.3726363 -0.02730358 0.9275757
vn -0.3726363 -0.02730358 0.9275757
vn -0.3726363 -0.02730358 0.9275757
vn -0.3726363 -0.02730358 0.9275757
vn -0.3726363 -0.02730358 0.9275757
vn 0.3488013 0.9371967 0
vn 0.3488013 0.9371967 0
vn 0.3488013 0.9371967 0
vn 0.3488013 0.9371967 0
vn 0.4742952 -0.5683987 -0.672285
vn 0.6076084 -0.513505 -0.6059081
vn 0.003777742 -0.003777742 -0.9999858
vn 0.2547203 -0.6938699 -0.6735444
vn 0.003777742 -0.003777742 -0.9999858
vn 0.003777742 -0.7409217 -0.6715807
vn -0.2550068 -0.6938699 -0.673436
vn 0.003777742 -0.003777742 -0.9999858
vn -0.4745817 -0.5683987 -0.6720827
vn 0.003777742 -0.003777742 -0.9999858
vn 0.003777742 -0.003777742 -0.9999858
vn -0.6392629 -0.3723497 -0.6728289
vn -0.7333663 -0.129249 -0.6674343
vn -0.3961621 -0.003777742 -0.9181728
vn -0.3726363 -0.04298753 0.9269813
vn -0.3726363 -0.04298753 0.9269813
vn -0.3726363 -0.04298753 0.9269813
vn -0.3726363 -0.04298753 0.9269813
vn -0.3726363 -0.04298753 0.9269813
vn -0.3726363 -0.04298753 0.9269813
vn 0.5840826 0.5922111 -0.5550978
vn 0.5840826 0.5922111 -0.5550978
vn 0.5840826 0.5922111 -0.5550978
vn 0.5840826 0.5922111 -0.5550978
vn 0.5840826 0.5922111 -0.5550978
vn 0.5840826 0.5922111 -0.5550978
vn 0.5840826 0.5922111 -0.5550978
vn -0.1530614 0.6863145 0.7110166
vn -0.1530614 0.6863145 0.7110166
vn -0.1530614 0.6863145 0.7110166
vn -0.1530614 0.6863145 0.7110166
vn 0.3096141 -0.03514552 0.9502126
vn 0.3096141 -0.03514552 0.9502126
vn 0.3096141 -0.03514552 0.9502126
vn 0.3096141 -0.03514552 0.9502126
vn -0.1530614 0.6863145 0.7110166
vn -0.1530614 0.6863145 0.7110166
vn -0.1530614 0.6863145 0.7110166
vn -0.1530614 0.6863145 0.7110166
vn -0.1530614 0.6863145 0.7110166
vn -0.1530614 0.6863145 0.7110166
vn 0.3017721 -0.03514552 0.9527321
vn 0.3017721 -0.03514552 0.9527321
vn 0.3017721 -0.03514552 0.9527321
vn 0.3017721 -0.03514552 0.9527321
vn 0.3017721 -0.03514552 0.9527321
vn 0.3017721 -0.03514552 0.9527321
vn 0.3017721 -0.03514552 0.9527321
vn 0.3017721 -0.03514552 0.9527321
vn 0.3017721 -0.03514552 0.9527321
vn 0.3017721 -0.03514552 0.9527321
vn 0.3017721 -0.03514552 0.9527321
vn 0.3017721 -0.03514552 0.9527321
g Bottiglia_cell.025_0
f 3/3/3 2/2/2 1/1/1
f 6/6/6 5/5/5 4/4/4
f 9/9/9 8/8/8 7/7/7
f 10/10/10 9/9/9 7/7/7
f 10/10/10 7/7/7 11/11/11
f 12/12/12 10/10/10 11/11/11
f 13/13/13 12/12/12 11/11/11
f 14/14/14 13/13/13 11/11/11
f 15/15/15 14/14/14 11/11/11
f 16/16/16 15/15/15 11/11/11
f 16/16/16 11/11/11 17/17/17
f 17/17/17 18/18/18 16/16/16
f 19/19/19 18/18/18 17/17/17
f 19/19/19 20/20/20 18/18/18
f 17/17/17 21/21/21 19/19/19
f 19/19/19 21/21/21 22/22/22
f 23/23/23 19/19/19 22/22/22
f 23/23/23 22/22/22 24/24/24
f 25/25/25 23/23/23 24/24/24
f 25/25/25 24/24/24 26/26/26
f 27/27/27 25/25/25 26/26/26
f 27/27/27 26/26/26 28/28/28
f 28/28/28 29/29/29 27/27/27
f 28/28/28 30/30/30 29/29/29
f 30/30/30 31/31/31 29/29/29
f 31/31/31 32/32/32 29/29/29
f 35/35/35 34/34/34 33/33/33
f 34/34/34 36/36/36 33/33/33
f 33/33/33 36/36/36 37/37/37
f 36/36/36 38/38/38 37/37/37
f 37/37/37 38/38/38 39/39/39
f 37/37/37 39/39/39 40/40/40
f 37/37/37 40/40/40 41/41/41
f 37/37/37 41/41/41 42/42/42
f 42/42/42 43/43/43 37/37/37
f 44/44/44 43/43/43 42/42/42
f 42/42/42 45/45/45 44/44/44
f 42/42/42 46/46/46 45/45/45
f 44/44/44 45/45/45 47/47/47
f 45/45/45 48/48/48 47/47/47
f 47/47/47 48/48/48 49/49/49
f 48/48/48 50/50/50 49/49/49
f 49/49/49 50/50/50 51/51/51
f 50/50/50 52/52/52 51/51/51
f 53/53/53 51/51/51 52/52/52
f 52/52/52 54/54/54 53/53/53
f 54/54/54 55/55/55 53/53/53
f 54/54/54 56/56/56 55/55/55
f 59/59/59 58/58/58 57/57/57
f 57/57/57 60/60/60 59/59/59
f 60/60/60 61/61/61 59/59/59
f 64/64/64 63/63/63 62/62/62
f 62/62/62 65/65/65 64/64/64
f 65/65/65 66/66/66 64/64/64
f 65/65/65 67/67/67 66/66/66
f 65/65/65 68/68/68 67/67/67
f 68/68/68 69/69/69 67/67/67
f 72/72/72 71/71/71 70/70/70
f 73/73/73 72/72/72 70/70/70
f 76/76/76 75/75/75 74/74/74
f 77/77/77 76/76/76 74/74/74
f 80/80/80 79/79/79 78/78/78
f 78/78/78 81/81/81 80/80/80
f 78/78/78 82/82/82 81/81/81
f 78/78/78 83/83/83 82/82/82
f 83/83/83 84/84/84 82/82/82
f 83/83/83 85/85/85 84/84/84
f 85/85/85 86/86/86 84/84/84
f 85/85/85 87/87/87 86/86/86
f 87/87/87 88/88/88 86/86/86
f 87/87/87 89/89/89 88/88/88
f 89/89/89 90/90/90 88/88/88
f 93/93/93 92/92/92 91/91/91
f 91/91/91 94/94/94 93/93/93
f 94/94/94 95/95/95 93/93/93
f 98/98/98 97/97/97 96/96/96
f 99/99/99 98/98/98 96/96/96
f 102/102/102 101/101/101 100/100/100
f 100/100/100 103/103/103 102/102/102
f 103/103/103 104/104/104 102/102/102
f 103/103/103 105/105/105 104/104/104
f 105/105/105 106/106/106 104/104/104
f 106/106/106 107/107/107 104/104/104
f 106/106/106 108/108/108 107/107/107
f 108/108/108 109/109/109 107/107/107
f 108/108/108 110/110/110 109/109/109
f 108/108/108 111/111/111 110/110/110
f 111/111/111 112/112/112 110/110/110
f 112/112/112 113/113/113 110/110/110
f 116/116/116 115/115/115 114/114/114
f 114/114/114 117/117/117 116/116/116
f 117/117/117 118/118/118 116/116/116
f 118/118/118 119/119/119 116/116/116
f 122/122/122 121/121/121 120/120/120
f 120/120/120 123/123/123 122/122/122
f 120/120/120 124/124/124 123/123/123
f 125/125/125 123/123/123 124/124/124
f 124/124/124 126/126/126 125/125/125
f 129/129/129 128/128/128 127/127/127
f 130/130/130 129/129/129 127/127/127
f 133/133/133 132/132/132 131/131/131
f 134/134/134 133/133/133 131/131/131
f 137/137/137 136/136/136 135/135/135
f 135/135/135 138/138/138 137/137/137
f 137/137/137 138/138/138 139/139/139
f 139/139/139 140/140/140 137/137/137
f 143/143/143 142/142/142 141/141/141
f 141/141/141 144/144/144 143/143/143
f 144/144/144 145/145/145 143/143/143
f 144/144/144 146/146/146 145/145/145
f 146/146/146 147/147/147 145/145/145
f 146/146/146 148/148/148 147/147/147
f 148/148/148 149/149/149 147/147/147
f 149/149/149 150/150/150 147/147/147
f 149/149/149 151/151/151 150/150/150
f 151/151/151 152/152/152 150/150/150
