g breath_out
v 0.4805 0.594 0
v 0.4805 0.682 0
v 1.0505 0.682 0
v 1.0505 0.594 0
v 0.7165 0.594 0
v 0.8145 0.594 0
v 0.7165 0 0
v 0.8145 0 0
v -0.1835 0.258 0
v -0.1835 0.682 0
v -0.08549997 0.682 0
v -0.08549997 0.279 0
v -0.08528526 0.260662 0
v -0.0846157 0.2440463 0
v -0.180662 0.2136736 0
v -0.08345308 0.229 0
v -0.08175921 0.2153704 0
v -0.07949591 0.2030046 0
v -0.1724629 0.1736389 0
v -0.07662496 0.19175 0
v -0.07310818 0.1814537 0
v -0.06890737 0.171963 0
v -0.159375 0.1378125 0
v -0.06398434 0.163125 0
v -0.0583009 0.154787 0
v -0.05181884 0.1467963 0
v -0.04449998 0.139 0
v -0.03454163 0.1296661 0
v -0.1418703 0.1061111 0
v -0.02416663 0.1211621 0
v -0.01337496 0.1134844 0
v -0.002166631 0.1066296 0
v 0.00945837 0.1005943 0
v -0.1204213 0.07845137 0
v 0.02150004 0.09537501 0
v 0.03395837 0.09096818 0
v 0.04683337 0.08737037 0
v 0.06012503 0.08457813 0
v 0.07383336 0.08258796 0
v 0.08795836 0.08139642 0
v 0.1025 0.081 0
v 0.328125 0.066875 0
v 0.1208114 0.08149017 0
v 0.1382408 0.0829213 0
v 0.1547813 0.08523438 0
v 0.170426 0.08837038 0
v -0.09549998 0.05474998 0
v 0.1851679 0.09227026 0
v 0.3008212 0.04445776 0
v -0.06757867 0.03492359 0
v 0.2692778 0.0257037 0
v -0.0371296 0.01888886 0
v 0.2334844 0.01079687 0
v -0.004624959 0.006562468 0
v 0.1934306 -7.870374E-05 0
v 0.02946301 -0.002138926 0
v 0.149106 -0.006739005 0
v 0.0646621 -0.007298653 0
v 0.1005 -0.009000001 0
v 0.3511997 0.09277142 0
v 0.199 0.096875 0
v 0.2119156 0.1021256 0
v 0.2239075 0.107963 0
v 0.2349688 0.1143281 0
v 0.2450926 0.121162 0
v 0.3700556 0.121963 0
v 0.254272 0.1284057 0
v 0.2625 0.136 0
v 0.2706985 0.145062 0
v 0.3847032 0.1542656 0
v 0.277838 0.1547454 0
v 0.2839844 0.1650469 0
v 0.2892038 0.175963 0
v 0.293562 0.1874902 0
v 0.3951528 0.1894954 0
v 0.297125 0.199625 0
v 0.2999589 0.212364 0
v 0.3021297 0.2257037 0
v 0.401415 0.2274682 0
v 0.3037032 0.2396406 0
v 0.3047454 0.2541713 0
v 0.4035 0.268 0
v 0.3053224 0.2692923 0
v 0.3055 0.285 0
v 0.4035 0.682 0
v 0.3055 0.682 0
v -0.7101267 0.6877229 0
v -0.6565 0.691 0
v -0.6020133 0.6877419 0
v -0.5511898 0.6782686 0
v -0.7603472 0.6781991 0
v -0.5042343 0.6630313 0
v -0.8069218 0.6628907 0
v -0.4613518 0.6424815 0
v -0.8496111 0.6422593 0
v -0.4227471 0.6170706 0
v -0.8881754 0.6167668 0
v -0.388625 0.58725 0
v -0.6565 0.601 0
v -0.922375 0.586875 0
v -0.6191255 0.5987489 0
v -0.5836713 0.5921574 0
v -0.5503906 0.5814688 0
v -0.6936447 0.5987488 0
v -0.7289074 0.5921574 0
v -0.7620313 0.5814687 0
v -0.3591903 0.553471 0
v -0.519537 0.5669259 0
v -0.491364 0.548772 0
v -0.9519705 0.5530457 0
v -0.7927592 0.5669259 0
v -0.8208345 0.548772 0
v -0.3346481 0.5161852 0
v -0.466125 0.5272501 0
v -0.4440735 0.5026031 0
v -0.3152031 0.4758438 0
v -0.4254629 0.4750741 0
v -0.9767222 0.5157408 0
v -0.846 0.52725 0
v -0.8679988 0.502603 0
v -0.9963906 0.4754219 0
v -0.886574 0.4750741 0
v -0.3010601 0.4328982 0
v -0.4105468 0.4449063 0
v -0.3995787 0.4123426 0
v -0.2924241 0.3877998 0
v -0.3928119 0.3776262 0
v -1.010736 0.4325509 0
v -0.9014687 0.4449063 0
v -0.9124259 0.4123426 0
v -1.019519 0.3875897 0
v -0.9191886 0.3776262 0
v -1.0225 0.341 0
v -0.9215 0.341 0
v -0.2894999 0.341 0
v -0.3904999 0.341 0
v -0.3928119 0.3045839 0
v -0.2923488 0.2954607 0
v -0.3995787 0.2700047 0
v -0.3007916 0.2511852 0
v -0.4105468 0.2375157 0
v -0.3146718 0.2086875 0
v -0.4254629 0.2073704 0
v -1.019597 0.2952506 0
v -0.9191886 0.3045839 0
v -0.9124258 0.2700047 0
v -1.011023 0.250838 0
v -0.9014686 0.2375156 0
v -0.9969844 0.2082656 0
v -0.886574 0.2073704 0
v -0.3338332 0.1684815 0
v -0.4440735 0.1798224 0
v -0.466125 0.155125 0
v -0.9776852 0.168037 0
v -0.8679987 0.1798224 0
v -0.8459999 0.155125 0
v -0.3581197 0.131081 0
v -0.491364 0.1335319 0
v -0.519537 0.1152963 0
v -0.9533304 0.1306557 0
v -0.8208344 0.1335318 0
v -0.7927592 0.1152963 0
v -0.3873749 0.097 0
v -0.5503906 0.1006719 0
v -0.5836713 0.08991209 0
v -0.924125 0.096625 0
v -0.7620312 0.1006719 0
v -0.7289073 0.08991203 0
v -0.4214427 0.06675231 0
v -0.8902737 0.06644849 0
v -0.6191255 0.08327031 0
v -0.6936446 0.08327025 0
v -0.6565 0.081 0
v -0.4601666 0.04085185 0
v -0.8519815 0.04062963 0
v -0.5033906 0.0198125 0
v -0.8094531 0.01967187 0
v -0.5509583 0.004148148 0
v -0.7628934 0.004078702 0
v -0.6027135 -0.005627315 0
v -0.7125074 -0.005646415 0
v -0.6585 -0.009000001 0
vn 0 0 1
vn 0 0 1
vn 0 0 1
vn 0 0 1
vn 0 0 1
vn 0 0 1
vn 0 0 1
vn 0 0 1
vn 0 0 1
vn 0 0 1
vn 0 0 1
vn 0 0 1
vn 0 0 1
vn 0 0 1
vn 0 0 1
vn 0 0 1
vn 0 0 1
vn 0 0 1
vn 0 0 1
vn 0 0 1
vn 0 0 1
vn 0 0 1
vn 0 0 1
vn 0 0 1
vn 0 0 1
vn 0 0 1
vn 0 0 1
vn 0 0 1
vn 0 0 1
vn 0 0 1
vn 0 0 1
vn 0 0 1
vn 0 0 1
vn 0 0 1
vn 0 0 1
vn 0 0 1
vn 0 0 1
vn 0 0 1
vn 0 0 1
vn 0 0 1
vn 0 0 1
vn 0 0 1
vn 0 0 1
vn 0 0 1
vn 0 0 1
vn 0 0 1
vn 0 0 1
vn 0 0 1
vn 0 0 1
vn 0 0 1
vn 0 0 1
vn 0 0 1
vn 0 0 1
vn 0 0 1
vn 0 0 1
vn 0 0 1
vn 0 0 1
vn 0 0 1
vn 0 0 1
vn 0 0 1
vn 0 0 1
vn 0 0 1
vn 0 0 1
vn 0 0 1
vn 0 0 1
vn 0 0 1
vn 0 0 1
vn 0 0 1
vn 0 0 1
vn 0 0 1
vn 0 0 1
vn 0 0 1
vn 0 0 1
vn 0 0 1
vn 0 0 1
vn 0 0 1
vn 0 0 1
vn 0 0 1
vn 0 0 1
vn 0 0 1
vn 0 0 1
vn 0 0 1
vn 0 0 1
vn 0 0 1
vn 0 0 1
vn 0 0 1
vn 0 0 1
vn 0 0 1
vn 0 0 1
vn 0 0 1
vn 0 0 1
vn 0 0 1
vn 0 0 1
vn 0 0 1
vn 0 0 1
vn 0 0 1
vn 0 0 1
vn 0 0 1
vn 0 0 1
vn 0 0 1
vn 0 0 1
vn 0 0 1
vn 0 0 1
vn 0 0 1
vn 0 0 1
vn 0 0 1
vn 0 0 1
vn 0 0 1
vn 0 0 1
vn 0 0 1
vn 0 0 1
vn 0 0 1
vn 0 0 1
vn 0 0 1
vn 0 0 1
vn 0 0 1
vn 0 0 1
vn 0 0 1
vn 0 0 1
vn 0 0 1
vn 0 0 1
vn 0 0 1
vn 0 0 1
vn 0 0 1
vn 0 0 1
vn 0 0 1
vn 0 0 1
vn 0 0 1
vn 0 0 1
vn 0 0 1
vn 0 0 1
vn 0 0 1
vn 0 0 1
vn 0 0 1
vn 0 0 1
vn 0 0 1
vn 0 0 1
vn 0 0 1
vn 0 0 1
vn 0 0 1
vn 0 0 1
vn 0 0 1
vn 0 0 1
vn 0 0 1
vn 0 0 1
vn 0 0 1
vn 0 0 1
vn 0 0 1
vn 0 0 1
vn 0 0 1
vn 0 0 1
vn 0 0 1
vn 0 0 1
vn 0 0 1
vn 0 0 1
vn 0 0 1
vn 0 0 1
vn 0 0 1
vn 0 0 1
vn 0 0 1
vn 0 0 1
vn 0 0 1
vn 0 0 1
vn 0 0 1
vn 0 0 1
vn 0 0 1
vn 0 0 1
vn 0 0 1
vn 0 0 1
vn 0 0 1
vn 0 0 1
vn 0 0 1
vn 0 0 1
vn 0 0 1
vn 0 0 1
vn 0 0 1
vn 0 0 1
vn 0 0 1
vn 0 0 1
vn 0 0 1
vn 0 0 1
vn 0 0 1
g breath_out_0
f 3/3/3 2/2/2 1/1/1
f 4/4/4 3/3/3 1/1/1
f 4/4/4 1/1/1 5/5/5
f 4/4/4 5/5/5 6/6/6
f 6/6/6 5/5/5 7/7/7
f 8/8/8 6/6/6 7/7/7
f 11/11/11 10/10/10 9/9/9
f 12/12/12 11/11/11 9/9/9
f 13/13/13 12/12/12 9/9/9
f 14/14/14 13/13/13 9/9/9
f 14/14/14 9/9/9 15/15/15
f 16/16/16 14/14/14 15/15/15
f 17/17/17 16/16/16 15/15/15
f 18/18/18 17/17/17 15/15/15
f 18/18/18 15/15/15 19/19/19
f 20/20/20 18/18/18 19/19/19
f 21/21/21 20/20/20 19/19/19
f 22/22/22 21/21/21 19/19/19
f 22/22/22 19/19/19 23/23/23
f 24/24/24 22/22/22 23/23/23
f 25/25/25 24/24/24 23/23/23
f 26/26/26 25/25/25 23/23/23
f 27/27/27 26/26/26 23/23/23
f 28/28/28 27/27/27 23/23/23
f 28/28/28 23/23/23 29/29/29
f 30/30/30 28/28/28 29/29/29
f 31/31/31 30/30/30 29/29/29
f 32/32/32 31/31/31 29/29/29
f 33/33/33 32/32/32 29/29/29
f 33/33/33 29/29/29 34/34/34
f 35/35/35 33/33/33 34/34/34
f 36/36/36 35/35/35 34/34/34
f 37/37/37 36/36/36 34/34/34
f 38/38/38 37/37/37 34/34/34
f 39/39/39 38/38/38 34/34/34
f 40/40/40 39/39/39 34/34/34
f 41/41/41 40/40/40 34/34/34
f 42/42/42 41/41/41 34/34/34
f 42/42/42 43/43/43 41/41/41
f 42/42/42 44/44/44 43/43/43
f 42/42/42 45/45/45 44/44/44
f 42/42/42 46/46/46 45/45/45
f 42/42/42 34/34/34 47/47/47
f 42/42/42 48/48/48 46/46/46
f 49/49/49 42/42/42 47/47/47
f 49/49/49 47/47/47 50/50/50
f 51/51/51 49/49/49 50/50/50
f 51/51/51 50/50/50 52/52/52
f 53/53/53 51/51/51 52/52/52
f 53/53/53 52/52/52 54/54/54
f 55/55/55 53/53/53 54/54/54
f 55/55/55 54/54/54 56/56/56
f 57/57/57 55/55/55 56/56/56
f 57/57/57 56/56/56 58/58/58
f 59/59/59 57/57/57 58/58/58
f 42/42/42 60/60/60 48/48/48
f 60/60/60 61/61/61 48/48/48
f 60/60/60 62/62/62 61/61/61
f 60/60/60 63/63/63 62/62/62
f 60/60/60 64/64/64 63/63/63
f 60/60/60 65/65/65 64/64/64
f 60/60/60 66/66/66 65/65/65
f 66/66/66 67/67/67 65/65/65
f 66/66/66 68/68/68 67/67/67
f 66/66/66 69/69/69 68/68/68
f 66/66/66 70/70/70 69/69/69
f 70/70/70 71/71/71 69/69/69
f 70/70/70 72/72/72 71/71/71
f 70/70/70 73/73/73 72/72/72
f 70/70/70 74/74/74 73/73/73
f 70/70/70 75/75/75 74/74/74
f 75/75/75 76/76/76 74/74/74
f 75/75/75 77/77/77 76/76/76
f 75/75/75 78/78/78 77/77/77
f 75/75/75 79/79/79 78/78/78
f 79/79/79 80/80/80 78/78/78
f 79/79/79 81/81/81 80/80/80
f 79/79/79 82/82/82 81/81/81
f 82/82/82 83/83/83 81/81/81
f 82/82/82 84/84/84 83/83/83
f 82/82/82 85/85/85 84/84/84
f 85/85/85 86/86/86 84/84/84
f 89/89/89 88/88/88 87/87/87
f 90/90/90 89/89/89 87/87/87
f 90/90/90 87/87/87 91/91/91
f 92/92/92 90/90/90 91/91/91
f 92/92/92 91/91/91 93/93/93
f 94/94/94 92/92/92 93/93/93
f 94/94/94 93/93/93 95/95/95
f 96/96/96 94/94/94 95/95/95
f 96/96/96 95/95/95 97/97/97
f 98/98/98 96/96/96 97/97/97
f 98/98/98 97/97/97 99/99/99
f 99/99/99 97/97/97 100/100/100
f 98/98/98 99/99/99 101/101/101
f 98/98/98 101/101/101 102/102/102
f 98/98/98 102/102/102 103/103/103
f 104/104/104 99/99/99 100/100/100
f 105/105/105 104/104/104 100/100/100
f 106/106/106 105/105/105 100/100/100
f 107/107/107 98/98/98 103/103/103
f 107/107/107 103/103/103 108/108/108
f 107/107/107 108/108/108 109/109/109
f 106/106/106 100/100/100 110/110/110
f 111/111/111 106/106/106 110/110/110
f 112/112/112 111/111/111 110/110/110
f 113/113/113 107/107/107 109/109/109
f 113/113/113 109/109/109 114/114/114
f 113/113/113 114/114/114 115/115/115
f 116/116/116 113/113/113 115/115/115
f 116/116/116 115/115/115 117/117/117
f 112/112/112 110/110/110 118/118/118
f 119/119/119 112/112/112 118/118/118
f 120/120/120 119/119/119 118/118/118
f 120/120/120 118/118/118 121/121/121
f 122/122/122 120/120/120 121/121/121
f 123/123/123 116/116/116 117/117/117
f 123/123/123 117/117/117 124/124/124
f 123/123/123 124/124/124 125/125/125
f 126/126/126 123/123/123 125/125/125
f 126/126/126 125/125/125 127/127/127
f 122/122/122 121/121/121 128/128/128
f 129/129/129 122/122/122 128/128/128
f 130/130/130 129/129/129 128/128/128
f 130/130/130 128/128/128 131/131/131
f 132/132/132 130/130/130 131/131/131
f 132/132/132 131/131/131 133/133/133
f 134/134/134 132/132/132 133/133/133
f 135/135/135 126/126/126 127/127/127
f 135/135/135 127/127/127 136/136/136
f 135/135/135 136/136/136 137/137/137
f 138/138/138 135/135/135 137/137/137
f 138/138/138 137/137/137 139/139/139
f 140/140/140 138/138/138 139/139/139
f 140/140/140 139/139/139 141/141/141
f 142/142/142 140/140/140 141/141/141
f 142/142/142 141/141/141 143/143/143
f 134/134/134 133/133/133 144/144/144
f 145/145/145 134/134/134 144/144/144
f 146/146/146 145/145/145 144/144/144
f 146/146/146 144/144/144 147/147/147
f 148/148/148 146/146/146 147/147/147
f 148/148/148 147/147/147 149/149/149
f 150/150/150 148/148/148 149/149/149
f 151/151/151 142/142/142 143/143/143
f 151/151/151 143/143/143 152/152/152
f 151/151/151 152/152/152 153/153/153
f 150/150/150 149/149/149 154/154/154
f 155/155/155 150/150/150 154/154/154
f 156/156/156 155/155/155 154/154/154
f 157/157/157 151/151/151 153/153/153
f 157/157/157 153/153/153 158/158/158
f 157/157/157 158/158/158 159/159/159
f 156/156/156 154/154/154 160/160/160
f 161/161/161 156/156/156 160/160/160
f 162/162/162 161/161/161 160/160/160
f 163/163/163 157/157/157 159/159/159
f 163/163/163 159/159/159 164/164/164
f 163/163/163 164/164/164 165/165/165
f 162/162/162 160/160/160 166/166/166
f 167/167/167 162/162/162 166/166/166
f 168/168/168 167/167/167 166/166/166
f 169/169/169 163/163/163 165/165/165
f 168/168/168 166/166/166 170/170/170
f 169/169/169 165/165/165 171/171/171
f 172/172/172 168/168/168 170/170/170
f 169/169/169 171/171/171 173/173/173
f 173/173/173 172/172/172 170/170/170
f 169/169/169 173/173/173 170/170/170
f 174/174/174 169/169/169 170/170/170
f 174/174/174 170/170/170 175/175/175
f 176/176/176 174/174/174 175/175/175
f 176/176/176 175/175/175 177/177/177
f 178/178/178 176/176/176 177/177/177
f 178/178/178 177/177/177 179/179/179
f 180/180/180 178/178/178 179/179/179
f 180/180/180 179/179/179 181/181/181
f 182/182/182 180/180/180 181/181/181
