g Calice_cell
v 0.04177652 0.02677514 0.01489545
v 0.05871968 0.06825669 -0.01529065
v 0.04547675 0.02638565 0.01041622
v 0.008863926 -0.05034547 0.01236372
v -0.01898518 -0.07975258 -0.03593405
v 0.003605701 -0.04664524 0.02054318
v -0.01606395 -0.07274161 -0.03749204
v -0.01898518 -0.07975258 -0.03593405
v 0.008863926 -0.05034547 0.01236372
v 0.0147064 -0.006137446 -0.04333451
v 0.02580709 -0.01120092 0.00535275
v 0.04547675 0.02638565 0.01041622
v 0.01938038 0.003405258 -0.04275026
v 0.05871968 0.06825669 -0.01529065
v 0.02580709 -0.01120092 0.00535275
v 0.008863926 -0.05034547 0.01236372
v 0.003605701 -0.04664524 0.02054318
v -0.03086488 -0.02113312 0.07390441
v -0.004379004 0.002626263 0.04897654
v 0.04177652 0.02677514 0.01489545
v 0.04547675 0.02638565 0.01041622
v -0.03086488 -0.02113312 0.07390441
v -0.1194757 -0.01120092 0.1089592
v -0.07039893 0.03281236 0.06280372
v -0.02872264 0.05462426 0.03183862
v -0.004379004 0.002626263 0.04897654
v 0.04177652 0.02677514 0.01489545
v 0.05871968 0.06825669 -0.01529065
v 0.06573065 0.09260032 -0.03184431
v -0.02872264 0.05462426 0.03183862
v 0.02152262 0.08091538 -0.005553193
v -0.01606395 -0.07274161 -0.03749204
v -0.02677514 -0.07838934 -0.03164957
v -0.01898518 -0.07975258 -0.03593405
v -0.02677514 -0.07118362 -0.03164957
v 0.0147064 -0.006137446 -0.04333451
v -0.04196557 -0.06904139 -0.01178516
v -0.005158 0.003015764 -0.03164957
v -0.1194757 -0.01120092 0.1089592
v 0.01938038 0.003405258 -0.04275026
v -0.07039893 0.03281236 0.06280372
v 0.03671304 0.06786719 -0.03164957
v 0.04722949 0.05871399 -0.03924478
v -0.02872264 0.05462426 0.03183862
v 0.06573065 0.09260032 -0.03184431
v 0.02152262 0.08091538 -0.005553193
v 0.01938038 0.003405258 -0.04275026
v 0.05871968 0.06825669 -0.01529065
v 0.06573065 0.09260032 -0.03184431
v 0.04722949 0.05871399 -0.03924478
v 0.003605701 -0.04664524 0.02054318
v -0.01898518 -0.07975258 -0.03593405
v -0.02677514 -0.07838934 -0.03164957
v -0.04196557 -0.06904139 -0.01178516
v -0.1194757 -0.01120092 0.1089592
v -0.03086488 -0.02113312 0.07390441
vt 0.5607843 0.5607843
vt 1 1
vt 1 0.5764706
vt 0.2392157 0.2392157
vt 0.5921569 0.5921569
vt 1 0.227451
vt 0.9411765 0.5764706
vt 1 0.5921569
vt 1 0.2392157
vt 0.4235294 0.3882353
vt 0.6784314 0.1490196
vt 0.4235294 0
vt 0.3568628 0.3568628
vt 0 0
vt 0.282353 0.5568628
vt 0.2627451 0.5607843
vt 0.254902 0.5647059
vt 0.2117647 0.6039216
vt 0.2431373 0.5843138
vt 0.2941177 0.5607843
vt 0.3019608 0.5568628
vt 0.8470588 0
vt 0.5803922 0
vt 0.6705883 0.4980392
vt 0.7647059 0.7647059
vt 0.8941177 0.2666667
vt 1 0.5607843
vt 1 1
vt 0.9372549 0.9333333
vt 1 0.7647059
vt 0.9490196 0.8352941
vt 0.2745098 0.5490196
vt 0.2627451 0.5529412
vt 0.2666667 0.5529412
vt 0.2627451 0.5529412
vt 0.3019608 0.5450981
vt 0.2470588 0.5686275
vt 0.282353 0.5529412
vt 0.1529412 0.6470588
vt 0.3058824 0.5450981
vt 0.2078431 0.6156863
vt 0.3215686 0.5529412
vt 0.3294118 0.5490196
vt 0.2509804 0.5960785
vt 0.345098 0.5529412
vt 0.3019608 0.572549
vt 1 0.3568628
vt 1 0
vt 0.9372549 0
vt 0.9529412 0.1490196
vt 0.227451 0.227451
vt 0.6 0.6
vt 0.6 0.5882353
vt 0.5411765 0.454902
vt 0.4196078 0
vt 0.1529412 0
vn 0.7716359 0.1438051 0.6195952
vn 0.7716359 0.1438051 0.6195952
vn 0.7716359 0.1438051 0.6195952
vn 0.1177495 -0.8762577 0.4672339
vn 0.1177495 -0.8762577 0.4672339
vn 0.1177495 -0.8762577 0.4672339
vn 0.8762577 -0.431615 -0.2141984
vn 0.8762577 -0.431615 -0.2141984
vn 0.8762577 -0.431615 -0.2141984
vn 0.8762577 -0.431615 -0.2141984
vn 0.8762577 -0.431615 -0.2141984
vn 0.8762577 -0.431615 -0.2141984
vn 0.8762577 -0.431615 -0.2141984
vn 0.8762577 -0.431615 -0.2141984
vn 0.7193249 -0.3269932 0.6129006
vn 0.7716359 -0.2223713 0.595927
vn 0.7716359 -0.2223713 0.595927
vn 0.7716359 -0.2223713 0.595927
vn 0.7454804 -0.2746822 0.6072961
vn 0.6670141 -0.431615 0.6072897
vn 0.6670141 -0.431615 0.6072897
vn 0.3793041 0.431515 0.8184884
vn 0.3793041 0.431515 0.8184884
vn 0.3793041 0.431515 0.8184884
vn 0.3793041 0.431515 0.8184884
vn 0.3793041 0.431515 0.8184884
vn 0.3793041 0.431515 0.8184884
vn 0.3793041 0.431515 0.8184884
vn 0.3793041 0.4576705 0.8041556
vn 0.3793041 0.4576705 0.8041556
vn 0.3793041 0.4576705 0.8041556
vn -0.4576705 0.09149414 -0.8844018
vn -0.6146032 0.01302779 -0.7887288
vn -0.483826 0.01302779 -0.8750673
vn -0.6407587 0.09149414 -0.762271
vn -0.431515 0.196116 -0.8805301
vn -0.7715361 0.196116 -0.6052029
vn -0.5884479 0.2745823 -0.7604825
vn -0.7715361 0.2222714 -0.5960936
vn -0.4053597 0.2484269 -0.8797543
vn -0.7453806 0.2745823 -0.6074638
vn -0.5099815 0.431515 -0.7441195
vn -0.3530487 0.3007378 -0.8859533
vn -0.6669142 0.431515 -0.6074704
vn -0.4576705 0.5361369 -0.7092918
vn -0.6407587 0.483826 -0.5961046
vn 0.8762577 -0.431615 -0.2141984
vn 0.8762577 -0.431615 -0.2141984
vn 0.8762577 -0.431615 -0.2141984
vn 0.8762577 -0.431615 -0.2141984
vn 0.09159404 -0.8762577 0.473057
vn 0.09159404 -0.8762577 0.473057
vn 0.09159404 -0.8762577 0.473057
vn 0.09159404 -0.8762577 0.473057
vn 0.09159404 -0.8762577 0.473057
vn 0.09159404 -0.8762577 0.473057
g Calice_cell_0
f 3/3/3 2/2/2 1/1/1
f 6/6/6 5/5/5 4/4/4
f 9/9/9 8/8/8 7/7/7
f 7/7/7 10/10/10 9/9/9
f 10/10/10 11/11/11 9/9/9
f 10/10/10 12/12/12 11/11/11
f 10/10/10 13/13/13 12/12/12
f 13/13/13 14/14/14 12/12/12
f 17/17/17 16/16/16 15/15/15
f 15/15/15 18/18/18 17/17/17
f 15/15/15 19/19/19 18/18/18
f 20/20/20 19/19/19 15/15/15
f 21/21/21 20/20/20 15/15/15
f 24/24/24 23/23/23 22/22/22
f 25/25/25 24/24/24 22/22/22
f 25/25/25 22/22/22 26/26/26
f 25/25/25 26/26/26 27/27/27
f 27/27/27 28/28/28 25/25/25
f 30/30/30 28/28/28 29/29/29
f 31/31/31 30/30/30 29/29/29
f 34/34/34 33/33/33 32/32/32
f 33/33/33 35/35/35 32/32/32
f 32/32/32 35/35/35 36/36/36
f 37/37/37 35/35/35 33/33/33
f 35/35/35 38/38/38 36/36/36
f 38/38/38 35/35/35 37/37/37
f 37/37/37 39/39/39 38/38/38
f 40/40/40 36/36/36 38/38/38
f 39/39/39 41/41/41 38/38/38
f 40/40/40 38/38/38 42/42/42
f 42/42/42 38/38/38 41/41/41
f 42/42/42 43/43/43 40/40/40
f 41/41/41 44/44/44 42/42/42
f 43/43/43 42/42/42 45/45/45
f 44/44/44 46/46/46 42/42/42
f 46/46/46 45/45/45 42/42/42
f 49/49/49 48/48/48 47/47/47
f 50/50/50 49/49/49 47/47/47
f 53/53/53 52/52/52 51/51/51
f 51/51/51 54/54/54 53/53/53
f 51/51/51 55/55/55 54/54/54
f 51/51/51 56/56/56 55/55/55
