g Calice_cell.005
v 0.2103257 -0.1246402 0.07545763
v 0.2435103 -0.1182015 0.03831074
v 0.2123069 -0.1305838 0.07545763
v -0.1646101 0.06357062 0.02493787
v -0.1591619 0.06802824 0.02989078
v -0.08833522 0.1239962 0.08982107
v -0.1547043 0.02890021 -0.02211486
v -0.08833522 0.03880602 -0.02211486
v -0.2156252 0.001163855 -0.02211486
v -0.2205781 0.009088516 -0.01022786
v -0.257725 -0.03548774 -0.02211486
v -0.2270169 -0.0379642 -0.0379642
v -0.2631732 -0.04192653 -0.02360073
v -0.1933371 -0.03400186 -0.05133708
v -0.1353879 -0.03647831 -0.06966287
v -0.08833522 -0.04638416 -0.08105458
v -0.06901884 -0.05331823 -0.08452162
v -0.04821658 -0.06124291 -0.08749337
v 0.01171373 0.1433126 0.133902
v -0.04574013 0.1512372 0.133902
v -0.0219661 0.02890021 -0.02211486
v 0.01419018 0.1522278 0.1601525
v -0.01156497 0.1636195 0.1814501
v 0.05084178 0.1254821 0.133902
v 0.09294158 0.08486816 0.1081469
v 0.03945006 0.001163855 -0.02211486
v -0.01354614 -0.08105458 -0.08996983
v 0.1499001 0.009088516 0.08140111
v 0.1063145 0.06654236 0.1017081
v 0.08996983 -0.04291712 -0.02211486
v 0.01765724 -0.1053239 -0.08897924
v 0.1915046 -0.06966287 0.07149529
v 0.1261261 -0.09938037 -0.02211486
v 0.2103257 -0.1246402 0.07545763
v 0.2123069 -0.1305838 0.07545763
v 0.2068587 -0.1390037 0.06555179
v 0.1964576 -0.1563389 0.04574013
v 0.1726836 -0.1568342 0.01552731
v 0.04588886 -0.136032 -0.08353104
v 0.1434613 -0.1578248 -0.02211486
v 0.06966287 -0.171693 -0.07461578
v -0.08833522 0.1551996 0.04920715
v -0.1096328 0.1383597 0.03137666
v -0.1720395 0.0888305 -0.02211486
v -0.08833522 0.07446703 -0.05728057
v -0.1646101 0.06307533 -0.05728057
v -0.2289981 0.03385311 -0.05728057
v -0.1868983 0.01404145 -0.07659695
v -0.1487608 0.009583831 -0.08749337
v -0.2270169 0.01899436 -0.06520525
v -0.2334557 0.02890021 -0.05876645
v -0.2408851 0.01899436 -0.06025232
v -0.08833522 -0.006265521 -0.100371
v -0.05663654 -0.0191431 -0.1048286
v -0.03831074 -0.02706778 -0.1078003
v -0.01156497 0.06307533 -0.05728057
v 0.005274937 -0.05183236 -0.1102768
v 0.02409603 0.1854124 0.1106233
v -0.02939549 0.1933371 0.1106233
v 0.05827115 0.03137666 -0.05728057
v 0.04390769 -0.08254045 -0.1087909
v 0.0260772 0.1923465 0.130435
v 0.0003220141 0.2037382 0.1522278
v 0.05430882 0.1715442 0.1106233
v 0.1127533 0.1155763 0.07446703
v 0.1167156 -0.0196384 -0.05728057
v 0.08055928 -0.1201826 -0.1033427
v 0.1588154 -0.08452162 -0.05728057
v 0.1756553 0.03137666 0.04524481
v 0.1295932 0.09279284 0.06654236
v 0.2217174 -0.0557947 0.0343484
v 0.2435103 -0.1182015 0.03831074
v 0.2415291 -0.1256308 0.03335783
v 0.2365762 -0.1340508 0.02345198
v 0.2246892 -0.1345461 0.008097947
v 0.1736741 -0.136032 -0.05728057
v 0.1043333 -0.1518813 -0.09591334
v 0.2435103 -0.1182015 0.03831074
v 0.2103257 -0.1246402 0.07545763
v 0.1915046 -0.06966287 0.07149529
v 0.2217174 -0.0557947 0.0343484
v 0.1499001 0.009088516 0.08140111
v 0.1756553 0.03137666 0.04524481
v 0.1063145 0.06654236 0.1017081
v 0.1295932 0.09279284 0.06654236
v 0.2123069 -0.1305838 0.07545763
v 0.2435103 -0.1182015 0.03831074
v 0.2415291 -0.1256308 0.03335783
v 0.2068587 -0.1390037 0.06555179
v 0.1736741 -0.136032 -0.05728057
v 0.1043333 -0.1518813 -0.09591334
v 0.06966287 -0.171693 -0.07461578
v 0.1434613 -0.1578248 -0.02211486
v 0.2246892 -0.1345461 0.008097947
v 0.1726836 -0.1568342 0.01552731
v -0.257725 -0.03548774 -0.02211486
v -0.2631732 -0.04192653 -0.02360073
v -0.2408851 0.01899436 -0.06025232
v -0.2205781 0.009088516 -0.01022786
v -0.1646101 0.06357062 0.02493787
v -0.2334557 0.02890021 -0.05876645
v -0.2289981 0.03385311 -0.05728057
v -0.1720395 0.0888305 -0.02211486
v -0.1591619 0.06802824 0.02989078
v -0.1096328 0.1383597 0.03137666
v 0.1964576 -0.1563389 0.04574013
v 0.2365762 -0.1340508 0.02345198
v 0.2246892 -0.1345461 0.008097947
v 0.1726836 -0.1568342 0.01552731
v 0.1295932 0.09279284 0.06654236
v 0.1063145 0.06654236 0.1017081
v 0.09294158 0.08486816 0.1081469
v 0.05084178 0.1254821 0.133902
v 0.1127533 0.1155763 0.07446703
v 0.05430882 0.1715442 0.1106233
v 0.01419018 0.1522278 0.1601525
v -0.01156497 0.1636195 0.1814501
v 0.0003220141 0.2037382 0.1522278
v 0.0260772 0.1923465 0.130435
v -0.06901884 -0.05331823 -0.08452162
v -0.05663654 -0.0191431 -0.1048286
v -0.08833522 -0.006265521 -0.100371
v -0.08833522 -0.04638416 -0.08105458
v -0.1353879 -0.03647831 -0.06966287
v -0.1487608 0.009583831 -0.08749337
v -0.1933371 -0.03400186 -0.05133708
v -0.1868983 0.01404145 -0.07659695
v -0.2270169 -0.0379642 -0.0379642
v -0.2270169 -0.0379642 -0.0379642
v -0.1868983 0.01404145 -0.07659695
v -0.2270169 0.01899436 -0.06520525
v -0.2631732 -0.04192653 -0.02360073
v -0.2408851 0.01899436 -0.06025232
v 0.06966287 -0.171693 -0.07461578
v 0.1043333 -0.1518813 -0.09591334
v 0.08055928 -0.1201826 -0.1033427
v 0.04390769 -0.08254045 -0.1087909
v 0.04588886 -0.136032 -0.08353104
v 0.01765724 -0.1053239 -0.08897924
v 0.005274937 -0.05183236 -0.1102768
v -0.01354614 -0.08105458 -0.08996983
v -0.03831074 -0.02706778 -0.1078003
v -0.04821658 -0.06124291 -0.08749337
v -0.05663654 -0.0191431 -0.1048286
v -0.06901884 -0.05331823 -0.08452162
v -0.08833522 0.1239962 0.08982107
v -0.1591619 0.06802824 0.02989078
v -0.1096328 0.1383597 0.03137666
v -0.04574013 0.1512372 0.133902
v -0.08833522 0.1551996 0.04920715
v -0.01156497 0.1636195 0.1814501
v -0.02939549 0.1933371 0.1106233
v 0.0003220141 0.2037382 0.1522278
v 0.2068587 -0.1390037 0.06555179
v 0.2415291 -0.1256308 0.03335783
v 0.2365762 -0.1340508 0.02345198
v 0.1964576 -0.1563389 0.04574013
vt 0.827451 0.827451
vt 0.9137255 0.9137255
vt 1 0.827451
vt 0.4196078 0.5882353
vt 0.427451 0.5921569
vt 0.5019608 0.6352941
vt 0.4313726 0.5529412
vt 0.5019608 0.5529412
vt 0.372549 0.5529412
vt 0.3647059 0.5607843
vt 0.3294118 0.5529412
vt 0.3607843 0.5450981
vt 0.3215686 0.5529412
vt 0.3921569 0.5372549
vt 0.4509804 0.5254902
vt 0.5019608 0.5176471
vt 0.5176471 0.5137255
vt 0.5411765 0.5137255
vt 0.6078432 0.6666667
vt 0.5450981 0.6666667
vt 0.5686275 0.5529412
vt 0.6117647 0.6901961
vt 0.5843138 0.7098039
vt 0.6509804 0.6666667
vt 0.6980392 0.6470588
vt 0.627451 0.5529412
vt 0.5764706 0.5137255
vt 0.7568628 0.627451
vt 0.7098039 0.6431373
vt 0.6784314 0.5529412
vt 0.6078432 0.5137255
vt 0.8 0.6196079
vt 0.7176471 0.5529412
vt 0.8196079 0.6235294
vt 0.8235294 0.6235294
vt 0.8156863 0.6156863
vt 0.8 0.6039216
vt 0.772549 0.5803922
vt 0.6352941 0.5176471
vt 0.7333333 0.5529412
vt 0.6588235 0.5215687
vt 0.5019608 0.6235294
vt 0.4784314 0.6117647
vt 0.4235294 0.5764706
vt 0.5019608 0.5529412
vt 0.4313726 0.5529412
vt 0.3764706 0.5529412
vt 0.4117647 0.5411765
vt 0.4470588 0.5333334
vt 0.3764706 0.5490196
vt 0.372549 0.5529412
vt 0.3647059 0.5529412
vt 0.5019608 0.5215687
vt 0.5254902 0.5215687
vt 0.5450981 0.5176471
vt 0.5686275 0.5529412
vt 0.5803922 0.5176471
vt 0.6078432 0.6666667
vt 0.5568628 0.6666667
vt 0.627451 0.5529412
vt 0.6156863 0.5176471
vt 0.6117647 0.682353
vt 0.5882353 0.7019608
vt 0.6392157 0.6666667
vt 0.6941177 0.6431373
vt 0.6784314 0.5529412
vt 0.6470588 0.5215687
vt 0.7176471 0.5529412
vt 0.7490196 0.6235294
vt 0.7098039 0.6352941
vt 0.7921569 0.6156863
vt 0.8117647 0.6156863
vt 0.8117647 0.6156863
vt 0.8039216 0.6078432
vt 0.7882353 0.5960785
vt 0.7294118 0.5529412
vt 0.6666667 0.5254902
vt 0.9137255 0
vt 0.827451 0
vt 0.7529412 0.1294118
vt 0.8235294 0.145098
vt 0.6039216 0.3176471
vt 0.6588235 0.3568628
vt 0.4588235 0.4588235
vt 0.509804 0.509804
vt 0.827451 0.827451
vt 0.9137255 0.9137255
vt 1 0.9137255
vt 1 0.8313726
vt 0.6 0.2588235
vt 1 0.4313726
vt 1 0.372549
vt 0.5176471 0.1490196
vt 0.1215686 0
vt 0.2392157 0
vt 0.9843137 0.8196079
vt 1 0.8313726
vt 1 0.7058824
vt 0.854902 0.7294118
vt 0.6313726 0.6156863
vt 0.9764706 0.6862745
vt 0.9607843 0.6745098
vt 0.7333333 0.5647059
vt 0.6078432 0.6078432
vt 0.4627451 0.4627451
vt 0.7960784 0.7960784
vt 0.8980392 0.8980392
vt 1 0.8784314
vt 1 0.7607843
vt 1 0.509804
vt 1 0.4588235
vt 0.9058824 0.4
vt 0.6627451 0.2313726
vt 0.8862745 0.4352941
vt 0.5450981 0.2
vt 0.4745098 0.09019608
vt 0.3647059 0
vt 0.2901961 0
vt 0.4 0.09019608
vt 0.372549 0.372549
vt 0.4235294 0.4235294
vt 0.5764706 0.3960784
vt 0.4627451 0.3529412
vt 0.6627451 0.2980392
vt 0.8470588 0.3294118
vt 0.8862745 0.2235294
vt 1 0.282353
vt 1 0.1764706
vt 0.1764706 0.1764706
vt 0.282353 0.282353
vt 0.2941177 0.07058824
vt 0.1686275 0
vt 0.2941177 0
vt 0.372549 0.372549
vt 0.4313726 0.4313726
vt 0.4431373 0.3568628
vt 0.4509804 0.254902
vt 0.3921569 0.2980392
vt 0.3960784 0.2156863
vt 0.4470588 0.1529412
vt 0.3960784 0.1333333
vt 0.4313726 0.04313726
vt 0.3843137 0.04705882
vt 0.4235294 0
vt 0.372549 0
vt 0.8588235 0.3294118
vt 1 0.6078432
vt 1 0.4627451
vt 0.7529412 0.1529412
vt 0.9568627 0.3764706
vt 0.6352941 0
vt 0.8117647 0.1333333
vt 0.7098039 0
vt 0.8313726 0.8313726
vt 0.9137255 0.9137255
vt 1 0.8980392
vt 1 0.7960784
vn 0.6968133 0.2518153 0.6715953
vn 0.6968133 0.2518153 0.6715953
vn 0.6968133 0.2518153 0.6715953
vn 0.1928544 -0.7857472 0.5877147
vn 0.1039205 -0.7857472 0.6097556
vn -0.07394737 -0.7857472 0.6141117
vn 0.1928544 -0.6671686 0.719509
vn -0.01465809 -0.6968133 0.7171027
vn 0.3707222 -0.5782347 0.7267804
vn 0.4003668 -0.6968133 0.5951115
vn 0.4003668 -0.4596561 0.7927311
vn 0.3707222 -0.4300115 0.8231981
vn 0.3707222 -0.4300115 0.8231981
vn 0.2817883 -0.4893008 0.8253364
vn 0.1335651 -0.5485901 0.825354
vn -0.01465809 -0.5782347 0.8157388
vn -0.07394737 -0.5782347 0.8125125
vn -0.1628813 -0.5485901 0.8200723
vn -0.2518153 -0.8450364 0.4717017
vn -0.1332367 -0.8450364 0.5178431
vn -0.1925259 -0.6671686 0.719597
vn -0.2221707 -0.9043257 0.3644657
vn -0.1332367 -0.9339704 0.3315831
vn -0.3407492 -0.7561026 0.5587476
vn -0.4000384 -0.6968133 0.5953323
vn -0.3703938 -0.5782347 0.7269478
vn -0.3111045 -0.4893008 0.8147384
vn -0.5779063 -0.5485901 0.6042129
vn -0.518617 -0.6078793 0.6012646
vn -0.518617 -0.4596561 0.7209387
vn -0.429683 -0.3707222 0.8233696
vn -0.7261295 -0.3410776 0.5969942
vn -0.6371955 -0.2817883 0.7173404
vn -0.7557741 -0.222499 0.6158732
vn -0.7557741 -0.222499 0.6158732
vn -0.7557741 -0.222499 0.6158732
vn -0.7557741 -0.222499 0.6158732
vn -0.7557741 -0.222499 0.6158732
vn -0.518617 -0.2521437 0.8169822
vn -0.6668403 -0.1928544 0.7198133
vn -0.5482616 -0.1632097 0.8202267
vn 0.07427579 0.7854188 -0.614492
vn -0.103592 0.7854188 -0.6102344
vn -0.1925259 0.7854188 -0.5882611
vn -0.01465809 0.6668403 -0.7450565
vn -0.1925259 0.6371955 -0.7462678
vn -0.2221707 0.4889724 -0.843532
vn -0.1925259 0.429683 -0.8822167
vn -0.103592 0.4593278 -0.8822056
vn -0.2221707 0.4000384 -0.8891622
vn -0.2518153 0.4000384 -0.8812255
vn -0.3111045 0.3703938 -0.875227
vn 0.01498652 0.4593278 -0.8881404
vn 0.07427579 0.4593278 -0.885156
vn 0.1335651 0.4593278 -0.8781676
vn 0.1928544 0.6371955 -0.746183
vn 0.2521437 0.4000384 -0.8811315
vn 0.2521437 0.844708 -0.4721143
vn 0.1335651 0.844708 -0.518294
vn 0.3707222 0.5482616 -0.7496495
vn 0.3410776 0.3111045 -0.8870627
vn 0.222499 0.9039974 -0.3650794
vn 0.1335651 0.933642 -0.3323748
vn 0.3410776 0.7557741 -0.5589916
vn 0.4003668 0.6964849 -0.5954958
vn 0.4893008 0.429683 -0.7589184
vn 0.4300115 0.2221707 -0.8750602
vn 0.6078793 0.2814599 -0.7424709
vn 0.5782347 0.5482616 -0.6041969
vn 0.5189455 0.6075509 -0.6013131
vn 0.7264579 0.3407492 -0.5967821
vn 0.7561026 0.2221707 -0.6155884
vn 0.7561026 0.2221707 -0.6155884
vn 0.7561026 0.2221707 -0.6155884
vn 0.7561026 0.2221707 -0.6155884
vn 0.637524 0.1925259 -0.7459872
vn 0.4596561 0.1332367 -0.8780457
vn 0.6968133 0.2814599 0.6597209
vn 0.6968133 0.2814599 0.6597209
vn 0.6968133 0.2814599 0.6597209
vn 0.6968133 0.2814599 0.6597209
vn 0.6968133 0.2814599 0.6597209
vn 0.6968133 0.2814599 0.6597209
vn 0.6968133 0.2814599 0.6597209
vn 0.6968133 0.2814599 0.6597209
vn 0.6671686 -0.637524 0.385291
vn 0.6671686 -0.637524 0.385291
vn 0.6671686 -0.637524 0.385291
vn 0.6671686 -0.637524 0.385291
vn 0.3410776 -0.9043257 -0.2566342
vn 0.3410776 -0.9043257 -0.2566342
vn 0.3410776 -0.9043257 -0.2566342
vn 0.3410776 -0.9043257 -0.2566342
vn 0.3410776 -0.9043257 -0.2566342
vn 0.3410776 -0.9043257 -0.2566342
vn -0.7557741 0.518617 0.3998024
vn -0.7557741 0.518617 0.3998024
vn -0.7557741 0.518617 0.3998024
vn -0.7557741 0.518617 0.3998024
vn -0.7557741 0.518617 0.3998024
vn -0.7557741 0.518617 0.3998024
vn -0.7557741 0.518617 0.3998024
vn -0.7557741 0.518617 0.3998024
vn -0.7557741 0.518617 0.3998024
vn -0.7557741 0.518617 0.3998024
vn 0.3410776 -0.9043257 -0.2566342
vn 0.3410776 -0.9043257 -0.2566342
vn 0.3410776 -0.9043257 -0.2566342
vn 0.3410776 -0.9043257 -0.2566342
vn 0.6968133 0.2814599 0.6597209
vn 0.6968133 0.2814599 0.6597209
vn 0.6968133 0.2814599 0.6597209
vn 0.6968133 0.2814599 0.6597209
vn 0.6968133 0.2814599 0.6597209
vn 0.6968133 0.2814599 0.6597209
vn 0.6968133 0.2814599 0.6597209
vn 0.6968133 0.2814599 0.6597209
vn 0.6968133 0.2814599 0.6597209
vn 0.6968133 0.2814599 0.6597209
vn -0.2814599 -0.4003668 -0.8720589
vn -0.2814599 -0.4003668 -0.8720589
vn -0.2814599 -0.4003668 -0.8720589
vn -0.2814599 -0.4003668 -0.8720589
vn -0.2814599 -0.4003668 -0.8720589
vn -0.2814599 -0.4003668 -0.8720589
vn -0.2814599 -0.4003668 -0.8720589
vn -0.2814599 -0.4003668 -0.8720589
vn -0.2814599 -0.4003668 -0.8720589
vn -0.2814599 -0.4003668 -0.8720589
vn -0.2814599 -0.4003668 -0.8720589
vn -0.2814599 -0.4003668 -0.8720589
vn -0.2814599 -0.4003668 -0.8720589
vn -0.2814599 -0.4003668 -0.8720589
vn -0.2814599 -0.4003668 -0.8720589
vn -0.2814599 -0.4003668 -0.8720589
vn -0.2814599 -0.4003668 -0.8720589
vn -0.2814599 -0.4003668 -0.8720589
vn -0.2814599 -0.4003668 -0.8720589
vn -0.2814599 -0.4003668 -0.8720589
vn -0.2814599 -0.4003668 -0.8720589
vn -0.2814599 -0.4003668 -0.8720589
vn -0.2814599 -0.4003668 -0.8720589
vn -0.2814599 -0.4003668 -0.8720589
vn -0.2814599 -0.4003668 -0.8720589
vn -0.2814599 -0.4003668 -0.8720589
vn -0.7557741 0.518617 0.3998024
vn -0.7557741 0.518617 0.3998024
vn -0.7557741 0.518617 0.3998024
vn -0.7557741 0.518617 0.3998024
vn -0.7557741 0.518617 0.3998024
vn -0.7557741 0.518617 0.3998024
vn -0.7557741 0.518617 0.3998024
vn -0.7557741 0.518617 0.3998024
vn 0.5782347 -0.7264579 0.3713537
vn 0.5782347 -0.7264579 0.3713537
vn 0.5782347 -0.7264579 0.3713537
vn 0.5782347 -0.7264579 0.3713537
g Calice_cell.005_0
f 3/3/3 2/2/2 1/1/1
f 6/6/6 5/5/5 4/4/4
f 6/6/6 4/4/4 7/7/7
f 7/7/7 8/8/8 6/6/6
f 7/7/7 4/4/4 9/9/9
f 4/4/4 10/10/10 9/9/9
f 11/11/11 9/9/9 10/10/10
f 9/9/9 11/11/11 12/12/12
f 11/11/11 13/13/13 12/12/12
f 12/12/12 14/14/14 9/9/9
f 7/7/7 9/9/9 14/14/14
f 15/15/15 7/7/7 14/14/14
f 8/8/8 7/7/7 15/15/15
f 16/16/16 8/8/8 15/15/15
f 8/8/8 16/16/16 17/17/17
f 8/8/8 17/17/17 18/18/18
f 19/19/19 6/6/6 8/8/8
f 19/19/19 20/20/20 6/6/6
f 18/18/18 21/21/21 8/8/8
f 8/8/8 21/21/21 19/19/19
f 20/20/20 19/19/19 22/22/22
f 23/23/23 20/20/20 22/22/22
f 24/24/24 22/22/22 19/19/19
f 25/25/25 24/24/24 19/19/19
f 25/25/25 19/19/19 21/21/21
f 26/26/26 21/21/21 18/18/18
f 21/21/21 26/26/26 25/25/25
f 27/27/27 26/26/26 18/18/18
f 28/28/28 25/25/25 26/26/26
f 28/28/28 29/29/29 25/25/25
f 30/30/30 26/26/26 27/27/27
f 26/26/26 30/30/30 28/28/28
f 31/31/31 30/30/30 27/27/27
f 32/32/32 28/28/28 30/30/30
f 33/33/33 30/30/30 31/31/31
f 33/33/33 32/32/32 30/30/30
f 34/34/34 32/32/32 33/33/33
f 35/35/35 34/34/34 33/33/33
f 36/36/36 35/35/35 33/33/33
f 37/37/37 36/36/36 33/33/33
f 38/38/38 37/37/37 33/33/33
f 39/39/39 33/33/33 31/31/31
f 33/33/33 40/40/40 38/38/38
f 40/40/40 33/33/33 39/39/39
f 41/41/41 40/40/40 39/39/39
f 44/44/44 43/43/43 42/42/42
f 44/44/44 42/42/42 45/45/45
f 45/45/45 46/46/46 44/44/44
f 44/44/44 46/46/46 47/47/47
f 48/48/48 47/47/47 46/46/46
f 46/46/46 49/49/49 48/48/48
f 48/48/48 50/50/50 47/47/47
f 50/50/50 51/51/51 47/47/47
f 52/52/52 51/51/51 50/50/50
f 49/49/49 46/46/46 53/53/53
f 46/46/46 45/45/45 53/53/53
f 54/54/54 53/53/53 45/45/45
f 55/55/55 54/54/54 45/45/45
f 45/45/45 56/56/56 55/55/55
f 56/56/56 45/45/45 42/42/42
f 55/55/55 56/56/56 57/57/57
f 42/42/42 58/58/58 56/56/56
f 42/42/42 59/59/59 58/58/58
f 56/56/56 60/60/60 57/57/57
f 60/60/60 56/56/56 58/58/58
f 57/57/57 60/60/60 61/61/61
f 62/62/62 58/58/58 59/59/59
f 63/63/63 62/62/62 59/59/59
f 62/62/62 64/64/64 58/58/58
f 58/58/58 64/64/64 65/65/65
f 58/58/58 65/65/65 60/60/60
f 60/60/60 66/66/66 61/61/61
f 66/66/66 60/60/60 65/65/65
f 61/61/61 66/66/66 67/67/67
f 66/66/66 68/68/68 67/67/67
f 65/65/65 69/69/69 66/66/66
f 65/65/65 70/70/70 69/69/69
f 69/69/69 71/71/71 66/66/66
f 71/71/71 68/68/68 66/66/66
f 68/68/68 71/71/71 72/72/72
f 68/68/68 72/72/72 73/73/73
f 68/68/68 73/73/73 74/74/74
f 68/68/68 74/74/74 75/75/75
f 75/75/75 76/76/76 68/68/68
f 67/67/67 68/68/68 76/76/76
f 77/77/77 67/67/67 76/76/76
f 80/80/80 79/79/79 78/78/78
f 78/78/78 81/81/81 80/80/80
f 81/81/81 82/82/82 80/80/80
f 81/81/81 83/83/83 82/82/82
f 83/83/83 84/84/84 82/82/82
f 83/83/83 85/85/85 84/84/84
f 88/88/88 87/87/87 86/86/86
f 89/89/89 88/88/88 86/86/86
f 92/92/92 91/91/91 90/90/90
f 90/90/90 93/93/93 92/92/92
f 90/90/90 94/94/94 93/93/93
f 94/94/94 95/95/95 93/93/93
f 98/98/98 97/97/97 96/96/96
f 96/96/96 99/99/99 98/98/98
f 99/99/99 100/100/100 98/98/98
f 100/100/100 101/101/101 98/98/98
f 100/100/100 102/102/102 101/101/101
f 100/100/100 103/103/103 102/102/102
f 100/100/100 104/104/104 103/103/103
f 104/104/104 105/105/105 103/103/103
f 108/108/108 107/107/107 106/106/106
f 109/109/109 108/108/108 106/106/106
f 112/112/112 111/111/111 110/110/110
f 110/110/110 113/113/113 112/112/112
f 110/110/110 114/114/114 113/113/113
f 114/114/114 115/115/115 113/113/113
f 115/115/115 116/116/116 113/113/113
f 115/115/115 117/117/117 116/116/116
f 115/115/115 118/118/118 117/117/117
f 115/115/115 119/119/119 118/118/118
f 122/122/122 121/121/121 120/120/120
f 120/120/120 123/123/123 122/122/122
f 123/123/123 124/124/124 122/122/122
f 124/124/124 125/125/125 122/122/122
f 124/124/124 126/126/126 125/125/125
f 126/126/126 127/127/127 125/125/125
f 126/126/126 128/128/128 127/127/127
f 131/131/131 130/130/130 129/129/129
f 129/129/129 132/132/132 131/131/131
f 132/132/132 133/133/133 131/131/131
f 136/136/136 135/135/135 134/134/134
f 134/134/134 137/137/137 136/136/136
f 134/134/134 138/138/138 137/137/137
f 138/138/138 139/139/139 137/137/137
f 139/139/139 140/140/140 137/137/137
f 139/139/139 141/141/141 140/140/140
f 141/141/141 142/142/142 140/140/140
f 141/141/141 143/143/143 142/142/142
f 143/143/143 144/144/144 142/142/142
f 143/143/143 145/145/145 144/144/144
f 148/148/148 147/147/147 146/146/146
f 146/146/146 149/149/149 148/148/148
f 149/149/149 150/150/150 148/148/148
f 149/149/149 151/151/151 150/150/150
f 151/151/151 152/152/152 150/150/150
f 151/151/151 153/153/153 152/152/152
f 156/156/156 155/155/155 154/154/154
f 157/157/157 156/156/156 154/154/154
