g Calice_cell.256
v -0.0022901 0.219456 0.007680744
v -0.1062525 0.1640094 0.05388626
v -0.05850682 0.1894224 0.03232369
v -0.08700022 0.1470673 0.05388626
v -0.0893105 0.1447571 0.1224244
v -0.07852921 0.1208842 0.1963532
v -0.07236847 0.1239646 0.05388626
v 0.08319005 0.2672017 -0.0331341
v -0.07544884 0.09624133 0.2656615
v 0.1186143 0.210985 -0.0331341
v 0.2695523 0.3511417 -0.0724088
v -0.06466755 0.09778151 0.05388626
v -0.07775912 0.07313856 0.3257286
v -0.06466755 0.07082829 0.05388626
v -0.08006939 0.0692881 0.3341996
v -0.08391985 0.0508059 0.3164875
v 0.1432572 0.127815 -0.0331341
v 0.3049765 0.2964651 -0.0724088
v -0.07236847 0.04464516 0.05388626
v -0.09547123 0.03001341 0.2779829
v 0.1432572 0.0407947 -0.0331341
v -0.08700022 0.02231249 0.05388626
v -0.1116432 0.0115312 0.2248466
v 0.2957354 0.2926147 -0.1216947
v 0.2510701 0.362693 -0.1216947
v 0.3457913 0.1570785 -0.0724088
v 0.1186143 -0.04237521 -0.0331341
v -0.1070226 0.004600376 0.05388626
v -0.1332057 -0.00156033 0.1578486
v 0.3365502 0.1555384 -0.1216947
v 0.1032124 0.2040541 -0.08010969
v 0.06470788 0.2779829 -0.08087978
v 0.05931723 0.2733624 -0.08010969
v 0.3457913 0.0123013 -0.0724088
v 0.0716387 -0.1155339 -0.0331341
v -0.1316655 -0.006950974 0.05388626
v -0.1586187 -0.00926125 0.08083948
v 0.1263152 0.1255048 -0.08010969
v 0.3365502 0.01307139 -0.1216947
v 0.1263152 0.04387507 -0.08010969
v 0.1032124 -0.03544438 -0.08010969
v 0.2957354 -0.1232348 -0.1216947
v 0.05931723 -0.1039825 -0.08010969
v -0.1686299 0.1901925 -0.08010969
v 0.3049765 -0.1270853 -0.0724088
v 0.2194963 -0.2425991 -0.1216947
v 0.2264271 -0.2495299 -0.0724088
v -0.003060192 -0.1578889 -0.08010969
v 0.1116835 -0.3357801 -0.1216947
v 0.006180882 -0.1725207 -0.0331341
v 0.1170741 -0.3442512 -0.0724088
v -0.07775912 -0.191773 -0.08010969
v -0.07236847 -0.2079449 -0.0331341
v -0.01769194 -0.3950772 -0.1216947
v -0.1586187 -0.2040945 -0.08010969
v -0.01538166 -0.4043183 -0.0724088
v -0.1586187 -0.01080143 0.05388626
v -0.1678598 -0.00926125 0.05388626
v -0.1586187 -0.2202664 -0.0331341
v -0.1801813 -0.217186 -0.0331341
v -0.1586187 -0.4251108 -0.0724088
v -0.177871 -0.4220304 -0.0724088
v -0.1586187 -0.4150996 -0.1216947
v -0.1955831 -0.410479 -0.1216947
v -0.1978934 -0.1979337 -0.08010969
v -0.2263868 0.1686299 -0.08010969
v 0.06470788 0.2779829 -0.08087978
v 0.2510701 0.362693 -0.1216947
v 0.2695523 0.3511417 -0.0724088
v 0.05931723 0.2733624 -0.08010969
v -0.1686299 0.1901925 -0.08010969
v 0.08319005 0.2672017 -0.0331341
v -0.05850682 0.1894224 0.03232369
v -0.0022901 0.219456 0.007680744
v -0.08006939 0.0692881 0.3341996
v -0.2263868 0.1686299 -0.08010969
v -0.1686299 0.1901925 -0.08010969
v -0.1062525 0.1640094 0.05388626
v -0.05850682 0.1894224 0.03232369
v -0.0893105 0.1447571 0.1224244
v -0.07852921 0.1208842 0.1963532
v -0.07544884 0.09624133 0.2656615
v -0.07775912 0.07313856 0.3257286
v -0.1801813 -0.217186 -0.0331341
v -0.177871 -0.4220304 -0.0724088
v -0.1955831 -0.410479 -0.1216947
v -0.1978934 -0.1979337 -0.08010969
v -0.1678598 -0.00926125 0.05388626
v -0.2263868 0.1686299 -0.08010969
v -0.1586187 -0.00926125 0.08083948
v -0.1332057 -0.00156033 0.1578486
v -0.1116432 0.0115312 0.2248466
v -0.09547123 0.03001341 0.2779829
v -0.08391985 0.0508059 0.3164875
v -0.08006939 0.0692881 0.3341996
vt 0.6431373 0.05490196
vt 0.5411765 0.09019608
vt 0.5882353 0.07450981
vt 0.5568628 0.09019608
vt 0.5568628 0.1333333
vt 0.5647059 0.172549
vt 0.5686275 0.09019608
vt 0.7294118 0.02352941
vt 0.5686275 0.2156863
vt 0.7647059 0.02352941
vt 0.9254902 0
vt 0.5764706 0.09019608
vt 0.5647059 0.2470588
vt 0.5764706 0.09019608
vt 0.5647059 0.254902
vt 0.5607843 0.2431373
vt 0.7882353 0.02352941
vt 0.9607843 0
vt 0.5686275 0.09019608
vt 0.5529412 0.2196078
vt 0.7882353 0.02352941
vt 0.5568628 0.09019608
vt 0.5372549 0.1921569
vt 0.9607843 0
vt 0.9137255 0
vt 1 0
vt 0.7647059 0.02352941
vt 0.5411765 0.09019608
vt 0.5215687 0.1529412
vt 1 0
vt 0.7647059 0.02352941
vt 0.7254902 0.02352941
vt 0.7215686 0.02352941
vt 1 0
vt 0.7215686 0.02352941
vt 0.5215687 0.09019608
vt 0.5019608 0.1058824
vt 0.7882353 0.02352941
vt 1 0
vt 0.7882353 0.02352941
vt 0.7647059 0.02352941
vt 0.9607843 0
vt 0.7215686 0.02352941
vt 0.4901961 0.02352941
vt 0.9607843 0
vt 0.8823529 0
vt 0.8823529 0
vt 0.6588235 0.02352941
vt 0.772549 0
vt 0.6588235 0.02352941
vt 0.772549 0
vt 0.5803922 0.02352941
vt 0.5803922 0.02352941
vt 0.6431373 0
vt 0.5019608 0.02352941
vt 0.6431373 0
vt 0.5019608 0.09019608
vt 0.4941176 0.09019608
vt 0.5019608 0.02352941
vt 0.4784314 0.02352941
vt 0.5019608 0
vt 0.4823529 0
vt 0.5019608 0
vt 0.4627451 0
vt 0.4588235 0.02352941
vt 0.4313726 0.02352941
vt 0.6431373 0.1372549
vt 0.2980392 0.07450981
vt 0.3411765 0.1490196
vt 0.654902 0.1372549
vt 1 0.1372549
vt 0.6862745 0.2078431
vt 1 0.3058824
vt 0.8784314 0.2705882
vt 0.9294118 0
vt 0.1686275 0
vt 0.1372549 0.1372549
vt 0.3764706 0.172549
vt 0.3058824 0.3058824
vt 0.5058824 0.1568628
vt 0.6509804 0.1176471
vt 0.7882353 0.07058824
vt 0.9137255 0.01176471
vt 0.4352941 0.1803922
vt 0.2078431 0.09803922
vt 0.1137255 0.02352941
vt 0.4509804 0.2784314
vt 0.7803922 0.3647059
vt 1 0.8313726
vt 0.7921569 0.3254902
vt 0.8313726 0.2235294
vt 0.8745098 0.145098
vt 0.9215686 0.09411765
vt 0.9647059 0.06666667
vt 1 0.07058824
vn 0.3195105 0.204953 0.9251526
vn 0.5354661 0.6060135 0.5882378
vn 0.2578089 0.2975054 0.9192525
vn 0.5971677 0.5134611 0.6162373
vn 0.8131233 0.5751627 0.08954471
vn 0.9365265 0.2975054 0.1854955
vn 0.7205709 0.3283563 0.6107042
vn 0.2578089 0.1741022 0.9503804
vn 0.9982281 0.01984829 0.05609475
vn 0.2578089 0.1124007 0.9596357
vn 0.7205709 0.4517595 0.5260141
vn 0.7822725 0.1124007 0.6127118
vn 0.9662743 -0.257515 0
vn 0.7822725 -0.1035549 0.6142688
vn 0.9582488 -0.2859358 0
vn 0.9365265 -0.3195105 0.1443298
vn 0.2886598 0.05069906 0.9560885
vn 0.7822725 0.3592071 0.50894
vn 0.7205709 -0.3195105 0.6153784
vn 0.8131233 -0.566317 0.1345939
vn 0.2886598 -0.04185331 0.9565165
vn 0.5971677 -0.5354661 0.5972158
vn 0.6260316 -0.7797977 0
vn 0.5354661 0.2358039 -0.8109701
vn 0.3503613 0.204953 -0.9139153
vn 0.8439741 0.1124007 0.5244747
vn 0.2578089 -0.1035549 0.9606305
vn 0.4429137 -0.6588693 0.608045
vn 0.3812121 -0.9056757 0.1855501
vn 0.5971677 0.08154982 -0.7979601
vn -0.08154982 -0.04185331 -0.9957901
vn -0.1741022 -0.1035549 -0.9792675
vn -0.08154982 -0.04185331 -0.9957901
vn 0.8439741 -0.1344057 0.5192714
vn 0.1961073 -0.1961073 0.9607725
vn 0.2269582 -0.7822725 0.5801204
vn 0.103185 -0.9946622 0
vn -0.1124007 -0.01100254 -0.993602
vn 0.5971677 -0.07270414 -0.7988146
vn -0.1124007 0.01984829 -0.9934647
vn -0.08154982 0.05069906 -0.9953789
vn 0.5354661 -0.2578089 -0.8042454
vn -0.08154982 0.08154982 -0.9933274
vn 0.01100254 -0.01100254 -0.9998789
vn 0.7822725 -0.3503613 0.5150695
vn 0.4429137 -0.3812121 -0.8114831
vn 0.6280185 -0.566317 0.5337395
vn -0.05069906 0.08154982 -0.9953789
vn 0.3195105 -0.5046153 -0.8020452
vn 0.1652565 -0.2269582 0.9597813
vn 0.4737645 -0.7205709 0.5062852
vn -0.01984829 0.1124007 -0.9934647
vn 0.07270414 -0.2578089 0.9634566
vn 0.1652565 -0.566317 -0.8074499
vn 0.01100254 0.1124007 -0.993602
vn 0.2269582 -0.8131233 0.5360228
vn 0.01100254 -0.8131233 0.5819874
vn -0.1124007 -0.7822725 0.6127118
vn 0.01100254 -0.2886598 0.9573686
vn -0.05069906 -0.2886598 0.9560885
vn 0.01100254 -0.8439741 0.536271
vn -0.1124007 -0.8439741 0.5244747
vn 0.01100254 -0.5971677 -0.8020409
vn -0.05069906 -0.4120629 -0.9097438
vn 0.01100254 0.08154982 -0.9966086
vn 0.01100254 -0.01100254 -0.9998789
vn -0.3283563 0.8836706 0.333629
vn -0.3283563 0.8836706 0.333629
vn -0.3283563 0.8836706 0.333629
vn -0.3283563 0.8836706 0.333629
vn -0.3283563 0.8836706 0.333629
vn -0.3283563 0.8836706 0.333629
vn -0.3283563 0.8836706 0.333629
vn -0.3283563 0.8836706 0.333629
vn -0.3283563 0.8836706 0.333629
vn -0.3283563 0.8836706 0.333629
vn -0.3283563 0.8836706 0.333629
vn -0.3283563 0.8836706 0.333629
vn -0.3283563 0.8836706 0.333629
vn -0.3283563 0.8836706 0.333629
vn -0.3283563 0.8836706 0.333629
vn -0.3283563 0.8836706 0.333629
vn -0.3283563 0.8836706 0.333629
vn -0.9453723 -0.07270414 0.317782
vn -0.9453723 -0.07270414 0.317782
vn -0.9453723 -0.07270414 0.317782
vn -0.9453723 -0.07270414 0.317782
vn -0.9453723 -0.07270414 0.317782
vn -0.9453723 -0.07270414 0.317782
vn -0.9453723 -0.07270414 0.317782
vn -0.9453723 -0.07270414 0.317782
vn -0.9453723 -0.07270414 0.317782
vn -0.9453723 -0.07270414 0.317782
vn -0.9453723 -0.07270414 0.317782
vn -0.9453723 -0.07270414 0.317782
g Calice_cell.256_0
f 3/3/3 2/2/2 1/1/1
f 2/2/2 4/4/4 1/1/1
f 5/5/5 4/4/4 2/2/2
f 5/5/5 6/6/6 4/4/4
f 1/1/1 4/4/4 7/7/7
f 6/6/6 7/7/7 4/4/4
f 8/8/8 1/1/1 7/7/7
f 6/6/6 9/9/9 7/7/7
f 7/7/7 10/10/10 8/8/8
f 8/8/8 10/10/10 11/11/11
f 9/9/9 12/12/12 7/7/7
f 7/7/7 12/12/12 10/10/10
f 9/9/9 13/13/13 12/12/12
f 13/13/13 14/14/14 12/12/12
f 14/14/14 13/13/13 15/15/15
f 14/14/14 15/15/15 16/16/16
f 12/12/12 17/17/17 10/10/10
f 12/12/12 14/14/14 17/17/17
f 10/10/10 18/18/18 11/11/11
f 10/10/10 17/17/17 18/18/18
f 16/16/16 19/19/19 14/14/14
f 16/16/16 20/20/20 19/19/19
f 14/14/14 21/21/21 17/17/17
f 14/14/14 19/19/19 21/21/21
f 20/20/20 22/22/22 19/19/19
f 20/20/20 23/23/23 22/22/22
f 11/11/11 18/18/18 24/24/24
f 25/25/25 11/11/11 24/24/24
f 17/17/17 26/26/26 18/18/18
f 17/17/17 21/21/21 26/26/26
f 19/19/19 27/27/27 21/21/21
f 19/19/19 22/22/22 27/27/27
f 23/23/23 28/28/28 22/22/22
f 23/23/23 29/29/29 28/28/28
f 24/24/24 18/18/18 30/30/30
f 18/18/18 26/26/26 30/30/30
f 25/25/25 24/24/24 31/31/31
f 31/31/31 32/32/32 25/25/25
f 31/31/31 33/33/33 32/32/32
f 21/21/21 34/34/34 26/26/26
f 21/21/21 27/27/27 34/34/34
f 22/22/22 35/35/35 27/27/27
f 22/22/22 28/28/28 35/35/35
f 29/29/29 36/36/36 28/28/28
f 29/29/29 37/37/37 36/36/36
f 38/38/38 31/31/31 24/24/24
f 30/30/30 38/38/38 24/24/24
f 30/30/30 26/26/26 39/39/39
f 26/26/26 34/34/34 39/39/39
f 40/40/40 38/38/38 30/30/30
f 31/31/31 38/38/38 40/40/40
f 39/39/39 40/40/40 30/30/30
f 40/40/40 41/41/41 31/31/31
f 41/41/41 40/40/40 39/39/39
f 41/41/41 33/33/33 31/31/31
f 39/39/39 34/34/34 42/42/42
f 42/42/42 41/41/41 39/39/39
f 41/41/41 43/43/43 33/33/33
f 43/43/43 41/41/41 42/42/42
f 43/43/43 44/44/44 33/33/33
f 34/34/34 45/45/45 42/42/42
f 27/27/27 45/45/45 34/34/34
f 27/27/27 35/35/35 45/45/45
f 46/46/46 43/43/43 42/42/42
f 42/42/42 45/45/45 46/46/46
f 35/35/35 47/47/47 45/45/45
f 45/45/45 47/47/47 46/46/46
f 48/48/48 43/43/43 46/46/46
f 43/43/43 48/48/48 44/44/44
f 49/49/49 48/48/48 46/46/46
f 46/46/46 47/47/47 49/49/49
f 35/35/35 50/50/50 47/47/47
f 28/28/28 50/50/50 35/35/35
f 28/28/28 36/36/36 50/50/50
f 50/50/50 51/51/51 47/47/47
f 47/47/47 51/51/51 49/49/49
f 52/52/52 48/48/48 49/49/49
f 48/48/48 52/52/52 44/44/44
f 36/36/36 53/53/53 50/50/50
f 50/50/50 53/53/53 51/51/51
f 54/54/54 52/52/52 49/49/49
f 49/49/49 51/51/51 54/54/54
f 52/52/52 55/55/55 44/44/44
f 55/55/55 52/52/52 54/54/54
f 51/51/51 56/56/56 54/54/54
f 53/53/53 56/56/56 51/51/51
f 36/36/36 57/57/57 53/53/53
f 37/37/37 57/57/57 36/36/36
f 37/37/37 58/58/58 57/57/57
f 57/57/57 59/59/59 53/53/53
f 57/57/57 58/58/58 59/59/59
f 53/53/53 59/59/59 56/56/56
f 58/58/58 60/60/60 59/59/59
f 59/59/59 60/60/60 61/61/61
f 59/59/59 61/61/61 56/56/56
f 60/60/60 62/62/62 61/61/61
f 54/54/54 56/56/56 63/63/63
f 56/56/56 61/61/61 63/63/63
f 63/63/63 61/61/61 62/62/62
f 63/63/63 55/55/55 54/54/54
f 64/64/64 63/63/63 62/62/62
f 64/64/64 65/65/65 63/63/63
f 65/65/65 55/55/55 63/63/63
f 55/55/55 65/65/65 44/44/44
f 65/65/65 66/66/66 44/44/44
f 69/69/69 68/68/68 67/67/67
f 67/67/67 70/70/70 69/69/69
f 70/70/70 71/71/71 69/69/69
f 71/71/71 72/72/72 69/69/69
f 71/71/71 73/73/73 72/72/72
f 73/73/73 74/74/74 72/72/72
f 77/77/77 76/76/76 75/75/75
f 75/75/75 78/78/78 77/77/77
f 78/78/78 79/79/79 77/77/77
f 75/75/75 80/80/80 78/78/78
f 75/75/75 81/81/81 80/80/80
f 75/75/75 82/82/82 81/81/81
f 75/75/75 83/83/83 82/82/82
f 86/86/86 85/85/85 84/84/84
f 84/84/84 87/87/87 86/86/86
f 84/84/84 88/88/88 87/87/87
f 88/88/88 89/89/89 87/87/87
f 88/88/88 90/90/90 89/89/89
f 90/90/90 91/91/91 89/89/89
f 91/91/91 92/92/92 89/89/89
f 92/92/92 93/93/93 89/89/89
f 93/93/93 94/94/94 89/89/89
f 94/94/94 95/95/95 89/89/89
