g Calice_cell.006
v 0.0406913 0.06481835 -0.01527982
v -0.01607586 -0.04202875 0.05352436
v -0.02172286 -0.02166984 0.06169765
v -0.02157425 -0.0007165149 0.06273788
v -0.01607586 0.01949378 0.05634786
v -0.005079083 0.03762361 0.04312199
v 0.01037585 0.05233552 0.02365473
v 0.02954591 0.06244066 -0.001013726
v 0.009335615 -0.07635654 -0.01364516
v 0.01022725 -0.07501909 0.0171161
v 0.0291001 -0.08512424 -0.00829538
v -0.007605366 -0.06209044 -0.01929216
v -0.005376294 -0.06015857 0.03836664
v -0.01979099 -0.0436634 -0.02493916
v -0.01607586 -0.04202875 0.05352436
v -0.02632962 -0.02241287 -0.02984313
v -0.02172286 -0.02166984 0.06169765
v -0.02647822 -0.0001221001 -0.03385546
v -0.02157425 -0.0007165149 0.06273788
v -0.01607586 0.01949378 0.05634786
v -0.02484357 0.005376294 -0.03444989
v -0.02023681 0.02142565 -0.03653036
v -0.008199789 0.04029851 -0.03757059
v -0.005079083 0.03762361 0.04312199
v 0.008741193 0.0548618 -0.03682757
v 0.01037585 0.05233552 0.02365473
v 0.0291001 0.06407532 -0.03459849
v 0.02954591 0.06244066 -0.001013726
v 0.05243111 0.06689882 -0.03073476
v 0.0406913 0.06481835 -0.01527982
v 0.05243111 0.06689882 -0.03073476
v 0.0291001 -0.08512424 -0.00829538
v 0.01022725 -0.07501909 0.0171161
v -0.005376294 -0.06015857 0.03836664
v -0.01607586 -0.04202875 0.05352436
v 0.0406913 0.06481835 -0.01527982
v -0.01979099 -0.0436634 -0.02493916
v -0.02484357 0.005376294 -0.03444989
v -0.02647822 -0.0001221001 -0.03385546
v -0.02632962 -0.02241287 -0.02984313
v 0.0291001 -0.08512424 -0.00829538
v 0.05243111 0.06689882 -0.03073476
v 0.0291001 0.06407532 -0.03459849
v 0.008741193 0.0548618 -0.03682757
v 0.009335615 -0.07635654 -0.01364516
v -0.007605366 -0.06209044 -0.01929216
v -0.008199789 0.04029851 -0.03757059
v -0.01979099 -0.0436634 -0.02493916
v -0.02023681 0.02142565 -0.03653036
v -0.02484357 0.005376294 -0.03444989
vt 0.9254902 0
vt 0.6745098 0
vt 0.7411765 0.07058824
vt 0.8039216 0.1176471
vt 0.854902 0.1372549
vt 0.8980392 0.1333333
vt 0.9254902 0.09803922
vt 0.9333333 0.03921569
vt 0.4666667 0.2941177
vt 0.4666667 0.3098039
vt 0.4823529 0.2980392
vt 0.4509804 0.2901961
vt 0.454902 0.3254902
vt 0.4431373 0.2862745
vt 0.4470588 0.3333333
vt 0.4392157 0.282353
vt 0.4431373 0.3372549
vt 0.4352941 0.282353
vt 0.4431373 0.3372549
vt 0.4470588 0.3333333
vt 0.4392157 0.282353
vt 0.4431373 0.2784314
vt 0.4509804 0.2784314
vt 0.454902 0.3254902
vt 0.4666667 0.2784314
vt 0.4666667 0.3137255
vt 0.4823529 0.282353
vt 0.4823529 0.3019608
vt 0.5019608 0.282353
vt 0.4901961 0.2941177
vt 0.9921569 0.9215686
vt 1 0.5137255
vt 0.8705882 0.5568628
vt 0.7568628 0.6156863
vt 0.6745098 0.6745098
vt 0.9254902 0.9254902
vt 0.4627451 0.4627451
vt 0.5490196 0.5490196
vt 0.5450981 0.5372549
vt 0.5019608 0.4941176
vt 0.4862745 0
vt 0.07843138 0
vt 0.3411765 0.1843137
vt 0.5764706 0.3411765
vt 0.6980392 0.172549
vt 0.8745098 0.3254902
vt 0.7803922 0.4588235
vt 1 0.4627451
vt 0.9333333 0.5333334
vt 1 0.5490196
vn 0.7876984 -0.03386903 0.6151294
vn 0.7876984 -0.03386903 0.6151294
vn 0.7876984 -0.03386903 0.6151294
vn 0.7876984 -0.03386903 0.6151294
vn 0.7876984 -0.03386903 0.6151294
vn 0.7876984 -0.03386903 0.6151294
vn 0.7876984 -0.03386903 0.6151294
vn 0.7876984 -0.03386903 0.6151294
vn -0.5691946 -0.8178516 0.08447654
vn -0.5993477 -0.7876984 0.1425259
vn -0.4184053 -0.9082605 0
vn -0.7746708 -0.6323646 0
vn -0.8004908 -0.5993451 0
vn -0.9203244 -0.3911559 0
vn -0.9308225 -0.3654715 0
vn -0.991339 -0.1243286 0.04230168
vn -0.991339 -0.1243286 0.04230168
vn -0.9891767 0.1467293 0
vn -0.991339 0.1168969 0.05985101
vn -0.9229554 0.384907 0
vn -0.9611858 0.2676628 0.06692126
vn -0.9008795 0.4184287 0.1154711
vn -0.7501136 0.659654 0.04675627
vn -0.7802668 0.5993477 0.1787907
vn -0.5390414 0.8405731 0.05358428
vn -0.5946103 0.8040141 0
vn -0.2959613 0.9552 0
vn -0.3581223 0.9310327 0.07018948
vn -0.1467293 0.9891767 0
vn -0.1467293 0.9891767 0
vn 0.7876984 -0.03386903 0.6151294
vn 0.7876984 -0.03386903 0.6151294
vn 0.7876984 -0.03386903 0.6151294
vn 0.7876984 -0.03386903 0.6151294
vn 0.7876984 -0.03386903 0.6151294
vn 0.7876984 -0.03386903 0.6151294
vn 0.1846349 -0.1846349 -0.9653082
vn 0.1846349 -0.1846349 -0.9653082
vn 0.1846349 -0.1846349 -0.9653082
vn 0.1846349 -0.1846349 -0.9653082
vn 0.1846349 -0.1846349 -0.9653082
vn 0.1846349 -0.1846349 -0.9653082
vn 0.1846349 -0.1846349 -0.9653082
vn 0.1846349 -0.1846349 -0.9653082
vn 0.1846349 -0.1846349 -0.9653082
vn 0.1846349 -0.1846349 -0.9653082
vn 0.1846349 -0.1846349 -0.9653082
vn 0.1846349 -0.1846349 -0.9653082
vn 0.1846349 -0.1846349 -0.9653082
vn 0.1846349 -0.1846349 -0.9653082
g Calice_cell.006_0
f 3/3/3 2/2/2 1/1/1
f 1/1/1 4/4/4 3/3/3
f 1/1/1 5/5/5 4/4/4
f 1/1/1 6/6/6 5/5/5
f 1/1/1 7/7/7 6/6/6
f 1/1/1 8/8/8 7/7/7
f 11/11/11 10/10/10 9/9/9
f 9/9/9 10/10/10 12/12/12
f 10/10/10 13/13/13 12/12/12
f 12/12/12 13/13/13 14/14/14
f 13/13/13 15/15/15 14/14/14
f 14/14/14 15/15/15 16/16/16
f 15/15/15 17/17/17 16/16/16
f 16/16/16 17/17/17 18/18/18
f 17/17/17 19/19/19 18/18/18
f 18/18/18 19/19/19 20/20/20
f 20/20/20 21/21/21 18/18/18
f 20/20/20 22/22/22 21/21/21
f 22/22/22 20/20/20 23/23/23
f 20/20/20 24/24/24 23/23/23
f 23/23/23 24/24/24 25/25/25
f 24/24/24 26/26/26 25/25/25
f 25/25/25 26/26/26 27/27/27
f 26/26/26 28/28/28 27/27/27
f 27/27/27 28/28/28 29/29/29
f 28/28/28 30/30/30 29/29/29
f 33/33/33 32/32/32 31/31/31
f 31/31/31 34/34/34 33/33/33
f 31/31/31 35/35/35 34/34/34
f 31/31/31 36/36/36 35/35/35
f 39/39/39 38/38/38 37/37/37
f 40/40/40 39/39/39 37/37/37
f 43/43/43 42/42/42 41/41/41
f 41/41/41 44/44/44 43/43/43
f 41/41/41 45/45/45 44/44/44
f 45/45/45 46/46/46 44/44/44
f 46/46/46 47/47/47 44/44/44
f 46/46/46 48/48/48 47/47/47
f 48/48/48 49/49/49 47/47/47
f 48/48/48 50/50/50 49/49/49
