g CarillonCoperchio
v -0.950403 0.3259718 -3.340954
v 0.9504342 0.3259718 -3.340954
v 1.900853 0.3259718 -1.694771
v -1.900821 0.3259718 -1.694771
v 0.9504342 0.3259718 -0.04858804
v -0.950403 0.3259718 -0.04858804
v -0.8424551 -1.549721E-05 -0.2356205
v -0.9694526 -1.549721E-05 -0.01560163
v -0.9093349 -1.549721E-05 -1.549721E-05
v -0.8161485 -1.549721E-05 -0.2287757
v -0.8615048 -1.549721E-05 -0.2549174
v 0.9093664 -1.549721E-05 -1.549721E-05
v -1.012995 -1.549721E-05 -0.05988574
v 0.81618 -1.549721E-05 -0.2287757
v -1.677669 -1.549721E-05 -1.668629
v 0.9694839 -1.549721E-05 -0.01560163
v -1.922345 -1.549721E-05 -1.634901
v 0.8424039 -1.549721E-05 -0.2356205
v -1.684844 -1.549721E-05 -1.694771
v 1.013026 -1.549721E-05 -0.05988574
v -1.938921 -1.549721E-05 -1.694771
v 0.8614535 -1.549721E-05 -0.2549174
v -1.677669 -1.549721E-05 -1.720912
v 1.922376 -1.549721E-05 -1.634901
v -1.922345 -1.549721E-05 -1.754641
v 1.677618 -1.549721E-05 -1.668629
v -0.8615048 -1.549721E-05 -3.134542
v 1.93887 -1.549721E-05 -1.694771
v -1.012995 -1.549721E-05 -3.329656
v 1.684875 -1.549721E-05 -1.694771
v -0.8424551 -1.549721E-05 -3.153921
v 1.922376 -1.549721E-05 -1.754641
v -0.9694526 -1.549721E-05 -3.373857
v 1.677618 -1.549721E-05 -1.720912
v -0.8161485 -1.549721E-05 -3.160683
v 1.013026 -1.549721E-05 -3.329656
v -0.9093349 -1.549721E-05 -3.389526
v 0.8614535 -1.549721E-05 -3.134542
v 0.81618 -1.549721E-05 -3.160683
v 0.9694839 -1.549721E-05 -3.373857
v 0.9093664 -1.549721E-05 -3.389526
v 0.8424039 -1.549721E-05 -3.153921
v 1.677618 -1.549721E-05 -1.668629
v 1.677618 0.1894908 -1.668629
v 0.8614535 0.1894908 -0.2549174
v 0.8614535 -1.549721E-05 -0.2549174
v 1.684875 -1.549721E-05 -1.694771
v 0.8424039 0.1894908 -0.2356205
v 1.684875 0.1894908 -1.694771
v 0.8424039 -1.549721E-05 -0.2356205
v 1.677618 -1.549721E-05 -1.720912
v 0.81618 0.1894908 -0.2287757
v 1.677618 0.1894908 -1.720912
v 0.81618 -1.549721E-05 -0.2287757
v 0.8614535 -1.549721E-05 -3.134542
v -0.8161485 0.1894908 -0.2287757
v 0.8614535 0.1894908 -3.134542
v -0.8161485 -1.549721E-05 -0.2287757
v 0.8424039 -1.549721E-05 -3.153921
v -0.8424551 0.1894908 -0.2356205
v 0.8424039 0.1894908 -3.153921
v -0.8424551 -1.549721E-05 -0.2356205
v 0.81618 -1.549721E-05 -3.160683
v -0.8615048 0.1894908 -0.2549174
v 0.81618 0.1894908 -3.160683
v -0.8615048 -1.549721E-05 -0.2549174
v -0.8161485 -1.549721E-05 -3.160683
v -1.677669 0.1894908 -1.668629
v -0.8161485 0.1894908 -3.160683
v -1.677669 -1.549721E-05 -1.668629
v -0.8424551 -1.549721E-05 -3.153921
v -1.684844 0.1894908 -1.694771
v -0.8424551 0.1894908 -3.153921
v -1.684844 -1.549721E-05 -1.694771
v -0.8615048 -1.549721E-05 -3.134542
v -1.677669 0.1894908 -1.720912
v -0.8615048 0.1894908 -3.134542
v -1.677669 -1.549721E-05 -1.720912
v 0.7638965 0.1894908 -3.017853
v 0.854774 0.1894908 -3.17528
v -0.8547428 0.1894908 -3.17528
v -0.7638652 0.1894908 -3.017853
v -1.709501 0.1894908 -1.694771
v 1.527777 0.1894908 -1.694771
v 1.709532 0.1894908 -1.694771
v -1.527829 0.1894908 -1.694771
v -0.8547428 0.1894908 -0.2142618
v 0.7638965 0.1894908 -0.3716066
v 0.854774 0.1894908 -0.2142618
v -0.7638652 0.1894908 -0.3716066
v 1.957095 0.03734136 -1.620387
v 1.922376 -1.549721E-05 -1.634901
v 1.013026 -1.549721E-05 -0.05988574
v 1.042961 0.03734136 -0.03704286
v 0.9694839 -1.549721E-05 -0.01560163
v 1.977629 0.03734136 -1.694771
v 1.93887 -1.549721E-05 -1.694771
v 0.9887807 0.03734136 0.01787949
v 0.9093664 -1.549721E-05 -1.549721E-05
v 1.957095 0.03734136 -1.769155
v 1.922376 -1.549721E-05 -1.754641
v 0.9141493 0.03734136 0.03734136
v -0.9093349 -1.549721E-05 -1.549721E-05
v 1.042961 0.03734136 -3.352416
v 1.013026 -1.549721E-05 -3.329656
v -0.9141181 0.03734136 0.03734136
v -0.9694526 -1.549721E-05 -0.01560163
v 0.9887807 0.03734136 -3.407421
v 0.9694839 -1.549721E-05 -3.373857
v -0.9888322 0.03734136 0.01787949
v -1.012995 -1.549721E-05 -0.05988574
v 0.9141493 0.03734136 -3.4268
v 0.9093664 -1.549721E-05 -3.389526
v -1.04293 0.03734136 -0.03704286
v -1.922345 -1.549721E-05 -1.634901
v -0.9141181 0.03734136 -3.4268
v -0.9093349 -1.549721E-05 -3.389526
v -1.957063 0.03734136 -1.620387
v -1.938921 -1.549721E-05 -1.694771
v -0.9888322 0.03734136 -3.407421
v -0.9694526 -1.549721E-05 -3.373857
v -1.977597 0.03734136 -1.694771
v -1.922345 -1.549721E-05 -1.754641
v -1.04293 0.03734136 -3.352416
v -1.012995 -1.549721E-05 -3.329656
v -1.957063 0.03734136 -1.769155
v -0.9141181 0.2400424 -3.4268
v -0.9888322 0.2400424 -3.407421
v -1.04293 0.2400424 -3.352416
v -1.957063 0.2400424 -1.769155
v -1.977597 0.2400424 -1.694771
v -1.957063 0.2400424 -1.620387
v -1.960857 0.2896869 -1.694771
v 0.9141493 0.2400424 -3.4268
v -0.9804204 0.2896869 -3.392907
v -1.937849 0.3008196 -1.747301
v -1.014479 0.3008196 -3.346644
v -0.9233544 0.3008196 -3.399257
v -1.900821 0.3259718 -1.694771
v -0.950403 0.3259718 -3.340954
v -1.937849 0.3008196 -1.642158
v -0.950403 0.3259718 -0.04858804
v 0.9233854 0.3008196 -3.399257
v 0.9504342 0.3259718 -3.340954
v -1.014479 0.3008196 -0.04281545
v 0.9804518 0.2896869 -3.392907
v -1.04293 0.2400424 -0.03704286
v -0.9804204 0.2896869 0.003448009
v -0.9888322 0.2400424 0.01787949
v -0.9141181 0.2400424 0.03734136
v -0.9233544 0.3008196 0.009797812
v 0.9504342 0.3259718 -0.04858804
v 0.9141493 0.2400424 0.03734136
v 0.9233854 0.3008196 0.009797812
v 0.9887807 0.2400424 0.01787949
v 0.9804518 0.2896869 0.003448009
v 1.042961 0.2400424 -0.03704286
v 1.014428 0.3008196 -0.04281545
v 1.900853 0.3259718 -1.694771
v 1.957095 0.2400424 -1.620387
v 1.93788 0.3008196 -1.642158
v 1.977629 0.2400424 -1.694771
v 1.960888 0.2896869 -1.694771
v 1.957095 0.2400424 -1.769155
v 1.93788 0.3008196 -1.747301
v 1.014428 0.3008196 -3.346644
v 1.042961 0.2400424 -3.352416
v 0.9887807 0.2400424 -3.407421
vt 0.5004888 0.03616813
vt 0.8954057 0.2639296
vt 0.8954057 0.7204301
vt 0.1045943 0.2639296
vt 0.4995112 0.9481916
vt 0.1045943 0.7204301
vt 0.7174975 0.06940372
vt 0.7497556 0.004887586
vt 0.7341154 0
vt 0.7106549 0.06744868
vt 0.7223852 0.07526882
vt 0.2658847 0
vt 0.7614858 0.01759531
vt 0.2893451 0.06744868
vt 0.9325513 0.4926686
vt 0.2502444 0.004887586
vt 0.9960899 0.4819159
vt 0.2825024 0.06940372
vt 0.9345064 0.4995112
vt 0.2385142 0.01759531
vt 1 0.4995112
vt 0.2776149 0.07526882
vt 0.9325513 0.5073314
vt 0.003910068 0.4819159
vt 0.9960899 0.518084
vt 0.06744868 0.4926686
vt 0.7223852 0.9247312
vt 0 0.5004888
vt 0.7614858 0.9824047
vt 0.06549364 0.5004888
vt 0.7174975 0.9305963
vt 0.003910068 0.518084
vt 0.7497556 0.9951124
vt 0.06744868 0.5073314
vt 0.7106549 0.9325513
vt 0.2385142 0.9824047
vt 0.7341154 1
vt 0.2776149 0.9247312
vt 0.2893451 0.9325513
vt 0.2502444 0.9951124
vt 0.2658847 1
vt 0.2825024 0.9305963
vt 0.6500489 0.4848485
vt 0.6080157 0.4848485
vt 0.6080157 0.09286413
vt 0.6500489 0.09286413
vt 0.6500489 0.4926686
vt 0.6080157 0.08797654
vt 0.6080157 0.4926686
vt 0.6500489 0.08797654
vt 0.6500489 0.4995112
vt 0.6080157 0.08602151
vt 0.6080157 0.4995112
vt 0.6500489 0.08602151
vt 0.6500489 0.8914956
vt 0.6080157 0.08602151
vt 0.6080157 0.8914956
vt 0.6500489 0.08602151
vt 0.6500489 0.8973607
vt 0.6080157 0.08797654
vt 0.6080157 0.8973607
vt 0.6500489 0.08797654
vt 0.6500489 0.8993157
vt 0.6080157 0.09286413
vt 0.6080157 0.8993157
vt 0.6500489 0.09286413
vt 0.6500489 0.8993157
vt 0.6080157 0.4848485
vt 0.6080157 0.8993157
vt 0.6500489 0.4848485
vt 0.6500489 0.8973607
vt 0.6080157 0.4926686
vt 0.6080157 0.8973607
vt 0.6500489 0.4926686
vt 0.6500489 0.8914956
vt 0.6080157 0.4995112
vt 0.6080157 0.8914956
vt 0.6500489 0.4995112
vt 0.2932551 0.8514174
vt 0.2678397 0.8954057
vt 0.7478006 0.8954057
vt 0.7223852 0.8514174
vt 0.9882698 0.4789834
vt 0.07917888 0.4789834
vt 0.02737048 0.4789834
vt 0.9364614 0.4789834
vt 0.7478006 0.06353861
vt 0.2932551 0.1075269
vt 0.2678397 0.06353861
vt 0.7223852 0.1075269
vt 0.6412512 0.4721408
vt 0.6500489 0.4760508
vt 0.6500489 0.03910068
vt 0.6412512 0.03225806
vt 0.6500489 0.02639296
vt 0.6412512 0.4926686
vt 0.6500489 0.4926686
vt 0.6412512 0.01759531
vt 0.6500489 0.02248289
vt 0.6412512 0.5131965
vt 0.6500489 0.5092864
vt 0.6412512 0.01173021
vt 0.6500489 0.02248289
vt 0.6412512 0.9521016
vt 0.6500489 0.9462366
vt 0.6412512 0.01173021
vt 0.6500489 0.02639296
vt 0.6412512 0.9677419
vt 0.6500489 0.9579667
vt 0.6412512 0.01759531
vt 0.6500489 0.03910068
vt 0.6412512 0.9726295
vt 0.6500489 0.9628543
vt 0.6412512 0.03225806
vt 0.6500489 0.4760508
vt 0.6412512 0.9726295
vt 0.6500489 0.9628543
vt 0.6412512 0.4721408
vt 0.6500489 0.4926686
vt 0.6412512 0.9677419
vt 0.6500489 0.9579667
vt 0.6412512 0.4926686
vt 0.6500489 0.5092864
vt 0.6412512 0.9521016
vt 0.6500489 0.9462366
vt 0.6412512 0.5131965
vt 0.597263 0.9726295
vt 0.597263 0.9677419
vt 0.597263 0.9521016
vt 0.597263 0.5131965
vt 0.597263 0.4926686
vt 0.597263 0.4721408
vt 0.5865102 0.4926686
vt 0.597263 0.9726295
vt 0.5865102 0.9638318
vt 0.5835777 0.5073314
vt 0.5835777 0.9511241
vt 0.5835777 0.9657869
vt 0.5786901 0.4926686
vt 0.5786901 0.9491691
vt 0.5835777 0.4780059
vt 0.5786901 0.03616813
vt 0.5835777 0.9657869
vt 0.5786901 0.9491691
vt 0.5835777 0.0342131
vt 0.5865102 0.9638318
vt 0.597263 0.03225806
vt 0.5865102 0.02150538
vt 0.597263 0.01759531
vt 0.597263 0.01173021
vt 0.5835777 0.01955034
vt 0.5786901 0.03616813
vt 0.597263 0.01173021
vt 0.5835777 0.01955034
vt 0.597263 0.01759531
vt 0.5865102 0.02150538
vt 0.597263 0.03225806
vt 0.5835777 0.0342131
vt 0.5786901 0.4926686
vt 0.597263 0.4721408
vt 0.5835777 0.4780059
vt 0.597263 0.4926686
vt 0.5865102 0.4926686
vt 0.597263 0.5131965
vt 0.5835777 0.5073314
vt 0.5835777 0.9511241
vt 0.597263 0.9521016
vt 0.597263 0.9677419
vn -0.1450969 0.9607769 -0.2363357
vn 0.145097 0.9607769 -0.2363357
vn 0.2855531 0.9583629 0
vn -0.285553 0.9583629 0
vn 0.145097 0.9607769 0.2363357
vn -0.1450969 0.9607769 0.2363357
vn 0.3176447 -0.7725431 -0.549799
vn -0.2156845 -0.9058754 0.3645132
vn -0.05097997 -0.9137185 0.4031371
vn 0.08235234 -0.7333277 -0.6748692
vn 0.5372508 -0.7333277 -0.4166437
vn 0.05098003 -0.9137185 0.4031371
vn -0.3254876 -0.9137185 0.2432617
vn -0.08235228 -0.7333277 -0.6748693
vn 0.6235247 -0.7333277 -0.2710119
vn 0.2156847 -0.9058754 0.3645131
vn -0.3725461 -0.9137185 0.1622586
vn -0.3176446 -0.7725431 -0.549799
vn 0.6374876 -0.7704605 0
vn 0.3254877 -0.9137185 0.2432616
vn -0.4267395 -0.9043746 0
vn -0.5372508 -0.7333277 -0.4166438
vn 0.6235247 -0.7333277 0.2710119
vn 0.3725462 -0.9137185 0.1622584
vn -0.3725461 -0.9137185 -0.1622586
vn -0.6235245 -0.7333277 -0.2710122
vn 0.5372508 -0.7333277 0.4166437
vn 0.4267395 -0.9043746 0
vn -0.3254876 -0.9137185 -0.2432617
vn -0.6374876 -0.7704606 0
vn 0.3176447 -0.7725431 0.549799
vn 0.3725462 -0.9137185 -0.1622584
vn -0.2156845 -0.9058754 -0.3645132
vn -0.6235245 -0.7333277 0.2710122
vn 0.08235234 -0.7333277 0.6748692
vn 0.3254877 -0.9137185 -0.2432616
vn -0.05097997 -0.9137185 -0.4031371
vn -0.5372508 -0.7333277 0.4166438
vn -0.08235228 -0.7333277 0.6748693
vn 0.2156847 -0.9058754 -0.3645131
vn 0.05098003 -0.9137185 -0.4031371
vn -0.3176446 -0.7725431 0.549799
vn -0.6235245 -0.7333277 -0.2710122
vn -0.9215615 0.003921509 -0.3882126
vn -0.7960722 0.003921509 -0.6051889
vn -0.5372508 -0.7333277 -0.4166438
vn -0.6374876 -0.7704606 0
vn -0.4980353 0.003921509 -0.8671479
vn -0.9999923 0.003921509 -0.0003449296
vn -0.3176446 -0.7725431 -0.549799
vn -0.6235245 -0.7333277 0.2710122
vn -0.1294107 0.003921509 -0.9915833
vn -0.9215615 0.003921509 0.3882126
vn -0.08235228 -0.7333277 -0.6748693
vn -0.5372508 -0.7333277 0.4166438
vn 0.1294108 0.003921509 -0.9915833
vn -0.7960722 0.003921509 0.6051889
vn 0.08235234 -0.7333277 -0.6748692
vn -0.3176446 -0.7725431 0.549799
vn 0.4980354 0.003921509 -0.8671478
vn -0.4980353 0.003921509 0.8671479
vn 0.3176447 -0.7725431 -0.549799
vn -0.08235228 -0.7333277 0.6748693
vn 0.7960724 0.003921509 -0.6051888
vn -0.1294107 0.003921509 0.9915833
vn 0.5372508 -0.7333277 -0.4166437
vn 0.08235234 -0.7333277 0.6748692
vn 0.9215616 0.003921509 -0.3882124
vn 0.1294108 0.003921509 0.9915833
vn 0.6235247 -0.7333277 -0.2710119
vn 0.3176447 -0.7725431 0.549799
vn 0.9999924 0.003921509 0
vn 0.4980354 0.003921509 0.8671478
vn 0.6374876 -0.7704605 0
vn 0.5372508 -0.7333277 0.4166437
vn 0.9215616 0.003921509 0.3882124
vn 0.7960724 0.003921509 0.6051888
vn 0.6235247 -0.7333277 0.2710119
vn -0.003921509 -0.9999924 0
vn -0.003921509 -0.9999924 0
vn -0.003921509 -0.9999924 0
vn -0.003921509 -0.9999924 0
vn -0.003921509 -0.9999924 0
vn -0.003921509 -0.9999924 0
vn -0.003921509 -0.9999924 0
vn -0.003921509 -0.9999924 0
vn -0.003921509 -0.9999924 0
vn -0.003921509 -0.9999924 0
vn -0.003921509 -0.9999924 0
vn -0.003921509 -0.9999924 0
vn 0.858817 -0.3725462 0.3516287
vn 0.3725462 -0.9137185 0.1622584
vn 0.3254877 -0.9137185 0.2432616
vn 0.7411708 -0.3725462 0.5584579
vn 0.2156847 -0.9058754 0.3645131
vn 0.9282063 -0.3720658 0
vn 0.4267395 -0.9043746 0
vn 0.4666631 -0.3725462 0.8021439
vn 0.05098003 -0.9137185 0.4031371
vn 0.858817 -0.3725462 -0.3516287
vn 0.3725462 -0.9137185 -0.1622584
vn 0.1137246 -0.3725462 0.921019
vn -0.05097997 -0.9137185 0.4031371
vn 0.7411708 -0.3725462 -0.5584579
vn 0.3254877 -0.9137185 -0.2432616
vn -0.1137246 -0.3725462 0.921019
vn -0.2156845 -0.9058754 0.3645132
vn 0.4666631 -0.3725462 -0.8021439
vn 0.2156847 -0.9058754 -0.3645131
vn -0.466663 -0.3725462 0.802144
vn -0.3254876 -0.9137185 0.2432617
vn 0.1137246 -0.3725462 -0.921019
vn 0.05098003 -0.9137185 -0.4031371
vn -0.7411708 -0.3725462 0.5584579
vn -0.3725461 -0.9137185 0.1622586
vn -0.1137246 -0.3725462 -0.921019
vn -0.05097997 -0.9137185 -0.4031371
vn -0.8588169 -0.3725462 0.351629
vn -0.4267395 -0.9043746 0
vn -0.466663 -0.3725462 -0.802144
vn -0.2156845 -0.9058754 -0.3645132
vn -0.9282063 -0.3720658 0
vn -0.3725461 -0.9137185 -0.1622586
vn -0.7411708 -0.3725462 -0.5584579
vn -0.3254876 -0.9137185 -0.2432617
vn -0.8588169 -0.3725462 -0.351629
vn -0.1137246 0.1921554 -0.9747528
vn -0.4901923 0.1764692 -0.8535632
vn -0.7882292 0.1921554 -0.5846119
vn -0.8980323 0.1921554 -0.3957452
vn -0.9843061 0.1764692 -0.0003712624
vn -0.8980323 0.1921554 0.3957452
vn -0.8117584 0.5764661 -0.09346203
vn 0.1137246 0.1921554 -0.9747528
vn -0.4039184 0.5764661 -0.7103075
vn -0.670583 0.6941123 -0.2617757
vn -0.5607799 0.6941123 -0.451369
vn -0.1137246 0.6941123 -0.7108269
vn -0.285553 0.9583629 0
vn -0.1450969 0.9607769 -0.2363357
vn -0.670583 0.6941123 0.2617757
vn -0.1450969 0.9607769 0.2363357
vn 0.1137246 0.6941123 -0.7108268
vn 0.145097 0.9607769 -0.2363357
vn -0.5607799 0.6941123 0.451369
vn 0.4039185 0.5764661 -0.7103074
vn -0.7882292 0.1921554 0.5846119
vn -0.4039184 0.5764661 0.7103075
vn -0.4901923 0.1764692 0.8535632
vn -0.1137246 0.1921554 0.9747528
vn -0.1137246 0.6941123 0.7108269
vn 0.145097 0.9607769 0.2363357
vn 0.1137246 0.1921554 0.9747528
vn 0.1137246 0.6941123 0.7108268
vn 0.4901924 0.1764692 0.8535631
vn 0.4039185 0.5764661 0.7103074
vn 0.7882293 0.1921554 0.5846118
vn 0.56078 0.6941123 0.4513689
vn 0.2855531 0.9583629 0
vn 0.8980324 0.1921554 0.3957451
vn 0.6705831 0.6941123 0.2617754
vn 0.9843062 0.1764692 0
vn 0.8117585 0.5764661 -0.09346107
vn 0.8980324 0.1921554 -0.3957451
vn 0.6705831 0.6941123 -0.2617754
vn 0.56078 0.6941123 -0.4513689
vn 0.7882293 0.1921554 -0.5846118
vn 0.4901924 0.1764692 -0.8535631
g CarillonCoperchio_0
f 3/3/3 2/2/2 1/1/1
f 1/1/1 4/4/4 3/3/3
f 4/4/4 5/5/5 3/3/3
f 4/4/4 6/6/6 5/5/5
f 9/9/9 8/8/8 7/7/7
f 10/10/10 9/9/9 7/7/7
f 7/7/7 8/8/8 11/11/11
f 12/12/12 9/9/9 10/10/10
f 8/8/8 13/13/13 11/11/11
f 14/14/14 12/12/12 10/10/10
f 11/11/11 13/13/13 15/15/15
f 16/16/16 12/12/12 14/14/14
f 13/13/13 17/17/17 15/15/15
f 18/18/18 16/16/16 14/14/14
f 15/15/15 17/17/17 19/19/19
f 20/20/20 16/16/16 18/18/18
f 17/17/17 21/21/21 19/19/19
f 22/22/22 20/20/20 18/18/18
f 19/19/19 21/21/21 23/23/23
f 24/24/24 20/20/20 22/22/22
f 21/21/21 25/25/25 23/23/23
f 26/26/26 24/24/24 22/22/22
f 23/23/23 25/25/25 27/27/27
f 28/28/28 24/24/24 26/26/26
f 25/25/25 29/29/29 27/27/27
f 30/30/30 28/28/28 26/26/26
f 27/27/27 29/29/29 31/31/31
f 32/32/32 28/28/28 30/30/30
f 29/29/29 33/33/33 31/31/31
f 34/34/34 32/32/32 30/30/30
f 31/31/31 33/33/33 35/35/35
f 36/36/36 32/32/32 34/34/34
f 33/33/33 37/37/37 35/35/35
f 38/38/38 36/36/36 34/34/34
f 35/35/35 37/37/37 39/39/39
f 40/40/40 36/36/36 38/38/38
f 37/37/37 41/41/41 39/39/39
f 42/42/42 40/40/40 38/38/38
f 39/39/39 41/41/41 42/42/42
f 41/41/41 40/40/40 42/42/42
f 45/45/45 44/44/44 43/43/43
f 46/46/46 45/45/45 43/43/43
f 43/43/43 44/44/44 47/47/47
f 48/48/48 45/45/45 46/46/46
f 44/44/44 49/49/49 47/47/47
f 50/50/50 48/48/48 46/46/46
f 47/47/47 49/49/49 51/51/51
f 52/52/52 48/48/48 50/50/50
f 49/49/49 53/53/53 51/51/51
f 54/54/54 52/52/52 50/50/50
f 51/51/51 53/53/53 55/55/55
f 56/56/56 52/52/52 54/54/54
f 53/53/53 57/57/57 55/55/55
f 58/58/58 56/56/56 54/54/54
f 55/55/55 57/57/57 59/59/59
f 60/60/60 56/56/56 58/58/58
f 57/57/57 61/61/61 59/59/59
f 62/62/62 60/60/60 58/58/58
f 59/59/59 61/61/61 63/63/63
f 64/64/64 60/60/60 62/62/62
f 61/61/61 65/65/65 63/63/63
f 66/66/66 64/64/64 62/62/62
f 63/63/63 65/65/65 67/67/67
f 68/68/68 64/64/64 66/66/66
f 65/65/65 69/69/69 67/67/67
f 70/70/70 68/68/68 66/66/66
f 67/67/67 69/69/69 71/71/71
f 72/72/72 68/68/68 70/70/70
f 69/69/69 73/73/73 71/71/71
f 74/74/74 72/72/72 70/70/70
f 71/71/71 73/73/73 75/75/75
f 76/76/76 72/72/72 74/74/74
f 73/73/73 77/77/77 75/75/75
f 78/78/78 76/76/76 74/74/74
f 75/75/75 77/77/77 78/78/78
f 77/77/77 76/76/76 78/78/78
f 81/81/81 80/80/80 79/79/79
f 82/82/82 81/81/81 79/79/79
f 83/83/83 81/81/81 82/82/82
f 79/79/79 80/80/80 84/84/84
f 82/82/82 79/79/79 84/84/84
f 80/80/80 85/85/85 84/84/84
f 86/86/86 83/83/83 82/82/82
f 84/84/84 86/86/86 82/82/82
f 87/87/87 83/83/83 86/86/86
f 84/84/84 85/85/85 88/88/88
f 84/84/84 88/88/88 86/86/86
f 85/85/85 89/89/89 88/88/88
f 90/90/90 87/87/87 86/86/86
f 88/88/88 90/90/90 86/86/86
f 89/89/89 87/87/87 90/90/90
f 88/88/88 89/89/89 90/90/90
f 93/93/93 92/92/92 91/91/91
f 94/94/94 93/93/93 91/91/91
f 95/95/95 93/93/93 94/94/94
f 91/91/91 92/92/92 96/96/96
f 92/92/92 97/97/97 96/96/96
f 98/98/98 95/95/95 94/94/94
f 99/99/99 95/95/95 98/98/98
f 96/96/96 97/97/97 100/100/100
f 97/97/97 101/101/101 100/100/100
f 102/102/102 99/99/99 98/98/98
f 103/103/103 99/99/99 102/102/102
f 100/100/100 101/101/101 104/104/104
f 101/101/101 105/105/105 104/104/104
f 106/106/106 103/103/103 102/102/102
f 107/107/107 103/103/103 106/106/106
f 104/104/104 105/105/105 108/108/108
f 105/105/105 109/109/109 108/108/108
f 110/110/110 107/107/107 106/106/106
f 111/111/111 107/107/107 110/110/110
f 108/108/108 109/109/109 112/112/112
f 109/109/109 113/113/113 112/112/112
f 114/114/114 111/111/111 110/110/110
f 115/115/115 111/111/111 114/114/114
f 112/112/112 113/113/113 116/116/116
f 113/113/113 117/117/117 116/116/116
f 118/118/118 115/115/115 114/114/114
f 119/119/119 115/115/115 118/118/118
f 116/116/116 117/117/117 120/120/120
f 117/117/117 121/121/121 120/120/120
f 122/122/122 119/119/119 118/118/118
f 123/123/123 119/119/119 122/122/122
f 120/120/120 121/121/121 124/124/124
f 121/121/121 125/125/125 124/124/124
f 125/125/125 123/123/123 126/126/126
f 126/126/126 123/123/123 122/122/122
f 124/124/124 125/125/125 126/126/126
f 112/112/112 116/116/116 127/127/127
f 116/116/116 120/120/120 128/128/128
f 127/127/127 116/116/116 128/128/128
f 120/120/120 124/124/124 129/129/129
f 128/128/128 120/120/120 129/129/129
f 124/124/124 126/126/126 130/130/130
f 129/129/129 124/124/124 130/130/130
f 126/126/126 122/122/122 131/131/131
f 130/130/130 126/126/126 131/131/131
f 122/122/122 118/118/118 132/132/132
f 131/131/131 122/122/122 132/132/132
f 131/131/131 133/133/133 130/130/130
f 133/133/133 131/131/131 132/132/132
f 134/134/134 112/112/112 127/127/127
f 108/108/108 112/112/112 134/134/134
f 128/128/128 135/135/135 127/127/127
f 135/135/135 128/128/128 129/129/129
f 130/130/130 136/136/136 129/129/129
f 133/133/133 136/136/136 130/130/130
f 136/136/136 137/137/137 129/129/129
f 137/137/137 135/135/135 129/129/129
f 135/135/135 138/138/138 127/127/127
f 127/127/127 138/138/138 134/134/134
f 136/136/136 133/133/133 139/139/139
f 136/136/136 139/139/139 137/137/137
f 135/135/135 137/137/137 140/140/140
f 138/138/138 135/135/135 140/140/140
f 139/139/139 140/140/140 137/137/137
f 133/133/133 141/141/141 139/139/139
f 142/142/142 139/139/139 141/141/141
f 141/141/141 133/133/133 132/132/132
f 138/138/138 140/140/140 143/143/143
f 138/138/138 143/143/143 134/134/134
f 140/140/140 144/144/144 143/143/143
f 145/145/145 141/141/141 132/132/132
f 145/145/145 142/142/142 141/141/141
f 143/143/143 146/146/146 134/134/134
f 146/146/146 143/143/143 144/144/144
f 147/147/147 145/145/145 132/132/132
f 132/132/132 118/118/118 147/147/147
f 118/118/118 114/114/114 147/147/147
f 145/145/145 148/148/148 142/142/142
f 148/148/148 145/145/145 147/147/147
f 147/147/147 114/114/114 149/149/149
f 149/149/149 148/148/148 147/147/147
f 114/114/114 110/110/110 149/149/149
f 149/149/149 110/110/110 150/150/150
f 148/148/148 149/149/149 150/150/150
f 110/110/110 106/106/106 150/150/150
f 148/148/148 151/151/151 142/142/142
f 151/151/151 148/148/148 150/150/150
f 152/152/152 142/142/142 151/151/151
f 150/150/150 106/106/106 153/153/153
f 106/106/106 102/102/102 153/153/153
f 154/154/154 151/151/151 150/150/150
f 154/154/154 152/152/152 151/151/151
f 153/153/153 154/154/154 150/150/150
f 153/153/153 102/102/102 155/155/155
f 102/102/102 98/98/98 155/155/155
f 156/156/156 154/154/154 153/153/153
f 154/154/154 156/156/156 152/152/152
f 155/155/155 156/156/156 153/153/153
f 155/155/155 98/98/98 157/157/157
f 156/156/156 155/155/155 157/157/157
f 98/98/98 94/94/94 157/157/157
f 156/156/156 158/158/158 152/152/152
f 158/158/158 156/156/156 157/157/157
f 159/159/159 152/152/152 158/158/158
f 157/157/157 94/94/94 160/160/160
f 94/94/94 91/91/91 160/160/160
f 161/161/161 158/158/158 157/157/157
f 161/161/161 159/159/159 158/158/158
f 160/160/160 161/161/161 157/157/157
f 160/160/160 91/91/91 162/162/162
f 91/91/91 96/96/96 162/162/162
f 163/163/163 161/161/161 160/160/160
f 161/161/161 163/163/163 159/159/159
f 162/162/162 163/163/163 160/160/160
f 162/162/162 96/96/96 164/164/164
f 163/163/163 162/162/162 164/164/164
f 96/96/96 100/100/100 164/164/164
f 163/163/163 165/165/165 159/159/159
f 165/165/165 163/163/163 164/164/164
f 144/144/144 159/159/159 165/165/165
f 166/166/166 144/144/144 165/165/165
f 166/166/166 165/165/165 164/164/164
f 166/166/166 146/146/146 144/144/144
f 164/164/164 100/100/100 167/167/167
f 167/167/167 166/166/166 164/164/164
f 146/146/146 166/166/166 167/167/167
f 100/100/100 104/104/104 167/167/167
f 168/168/168 146/146/146 167/167/167
f 167/167/167 104/104/104 168/168/168
f 146/146/146 168/168/168 134/134/134
f 104/104/104 108/108/108 168/168/168
f 168/168/168 108/108/108 134/134/134
