g Carota.006
v -0.8018118 0.2914965 -0.1594892
v -0.8175299 0.2914965 1.239777E-05
v -0.7497423 -0.2914965 1.239777E-05
v -0.7353216 -0.2914965 -0.146266
v -0.7553061 0.2914965 -0.3128532
v -0.692658 -0.2914965 -0.2869058
v -0.6797592 0.2914965 -0.4541917
v -0.6233736 -0.2914965 -0.416518
v -0.5780904 0.2914965 -0.5780904
v -0.5301376 -0.2914965 -0.5301377
v -0.4541915 0.2914965 -0.6797593
v -0.4165179 -0.2914965 -0.6233736
v -0.3128532 0.2914965 -0.7553061
v -0.2869057 -0.2914965 -0.6926582
v -0.1594891 0.2914965 -0.8018119
v -0.1462659 -0.2914965 -0.7353216
v -1.239777E-05 0.2914965 -0.81753
v -1.239777E-05 -0.2914965 -0.7497424
v 0.1594892 0.2914965 -0.8018119
v 0.146266 -0.2914965 -0.7353216
v 0.3128532 0.2914965 -0.7553061
v 0.2869058 -0.2914965 -0.6926582
v 0.4541917 0.2914965 -0.6797593
v 0.416518 -0.2914965 -0.6233736
v 0.5780904 0.2914965 -0.5780904
v 0.5301377 -0.2914965 -0.5301377
v 0.6797593 0.2914965 -0.4541917
v 0.6233736 -0.2914965 -0.416518
v 0.7553061 0.2914965 -0.3128532
v 0.6926582 -0.2914965 -0.2869058
v 0.8018119 0.2914965 -0.1594892
v 0.7353216 -0.2914965 -0.146266
v 0.81753 0.2914965 -1.251698E-05
v 0.7497424 -0.2914965 -1.251698E-05
v -0.8175299 0.2914965 1.239777E-05
v -0.7353216 -0.2914965 0.1462659
v -0.7497423 -0.2914965 1.239777E-05
v -0.8018118 0.2914965 0.1594891
v -0.692658 -0.2914965 0.2869057
v -0.7553061 0.2914965 0.3128532
v -0.6233736 -0.2914965 0.4165179
v -0.6797592 0.2914965 0.4541915
v -0.5301376 -0.2914965 0.5301376
v -0.5780904 0.2914965 0.5780904
v -0.4165179 -0.2914965 0.6233736
v -0.4541915 0.2914965 0.6797592
v -0.2869057 -0.2914965 0.692658
v -0.3128532 0.2914965 0.7553061
v -0.1462659 -0.2914965 0.7353216
v -0.1594891 0.2914965 0.8018118
v -1.239777E-05 -0.2914965 0.7497423
v -1.239777E-05 0.2914965 0.8175299
v 0.146266 -0.2914965 0.7353216
v 0.1594892 0.2914965 0.8018118
v 0.2869058 -0.2914965 0.692658
v 0.3128532 0.2914965 0.7553061
v 0.416518 -0.2914965 0.6233736
v 0.4541917 0.2914965 0.6797592
v 0.5301377 -0.2914965 0.5301376
v 0.5780904 0.2914965 0.5780904
v 0.6233736 -0.2914965 0.4165179
v 0.6797593 0.2914965 0.4541915
v 0.6926582 -0.2914965 0.2869057
v 0.7553061 0.2914965 0.3128532
v 0.7353216 -0.2914965 0.1462659
v 0.8018119 0.2914965 0.1594891
v 0.7497424 -0.2914965 -1.251698E-05
v 0.81753 0.2914965 -1.251698E-05
v 0.146266 -0.2914965 -0.7353216
v -1.239777E-05 -0.2914965 -0.7497424
v -0.1462659 -0.2914965 -0.7353216
v 0.2869058 -0.2914965 -0.6926582
v -0.2869057 -0.2914965 -0.6926582
v 0.416518 -0.2914965 -0.6233736
v -0.4165179 -0.2914965 -0.6233736
v 0.5301377 -0.2914965 -0.5301377
v -0.5301376 -0.2914965 -0.5301377
v 0.6233736 -0.2914965 -0.416518
v -0.6233736 -0.2914965 -0.416518
v 0.6926582 -0.2914965 -0.2869058
v -0.692658 -0.2914965 -0.2869058
v 0.7353216 -0.2914965 -0.146266
v -0.7353216 -0.2914965 -0.146266
v 0.7497424 -0.2914965 -1.251698E-05
v -0.7497423 -0.2914965 1.239777E-05
v 0.7353216 -0.2914965 0.1462659
v -0.7353216 -0.2914965 0.1462659
v 0.6926582 -0.2914965 0.2869057
v -0.692658 -0.2914965 0.2869057
v 0.6233736 -0.2914965 0.4165179
v -0.6233736 -0.2914965 0.4165179
v 0.5301377 -0.2914965 0.5301376
v -0.5301376 -0.2914965 0.5301376
v 0.416518 -0.2914965 0.6233736
v -0.4165179 -0.2914965 0.6233736
v 0.2869058 -0.2914965 0.692658
v -0.2869057 -0.2914965 0.692658
v 0.146266 -0.2914965 0.7353216
v -0.1462659 -0.2914965 0.7353216
v -1.239777E-05 -0.2914965 0.7497423
v -0.1594891 0.2914965 -0.8018119
v -1.239777E-05 0.2914965 -0.81753
v 0.1594892 0.2914965 -0.8018119
v 0.3128532 0.2914965 -0.7553061
v -0.3128532 0.2914965 -0.7553061
v 0.4541917 0.2914965 -0.6797593
v -0.4541915 0.2914965 -0.6797593
v 0.5780904 0.2914965 -0.5780904
v -0.5780904 0.2914965 -0.5780904
v 0.6797593 0.2914965 -0.4541917
v -0.6797592 0.2914965 -0.4541917
v 0.7553061 0.2914965 -0.3128532
v -0.7553061 0.2914965 -0.3128532
v 0.8018119 0.2914965 -0.1594892
v -0.8018118 0.2914965 -0.1594892
v 0.81753 0.2914965 -1.251698E-05
v -0.8175299 0.2914965 1.239777E-05
v 0.8018119 0.2914965 0.1594891
v -0.8018118 0.2914965 0.1594891
v 0.7553061 0.2914965 0.3128532
v -0.7553061 0.2914965 0.3128532
v 0.6797593 0.2914965 0.4541915
v -0.6797592 0.2914965 0.4541915
v 0.5780904 0.2914965 0.5780904
v -0.5780904 0.2914965 0.5780904
v 0.4541917 0.2914965 0.6797592
v -0.4541915 0.2914965 0.6797592
v 0.3128532 0.2914965 0.7553061
v -0.3128532 0.2914965 0.7553061
v 0.1594892 0.2914965 0.8018118
v -0.1594891 0.2914965 0.8018118
v -1.239777E-05 0.2914965 0.8175299
vt 0.05479436 0.3316173
vt 0.05300841 0.3316173
vt 0.05925925 0.2798247
vt 0.06015223 0.2798247
vt 0.05836627 0.3316173
vt 0.06372414 0.2798247
vt 0.06551009 0.3316173
vt 0.06997497 0.2798247
vt 0.07443986 0.3316173
vt 0.07890475 0.2798247
vt 0.08515559 0.3316173
vt 0.0887275 0.2798247
vt 0.09765728 0.3316173
vt 0.1003362 0.2798247
vt 0.1110519 0.3316173
vt 0.1128379 0.2798247
vt 0.1253396 0.3316173
vt 0.1253396 0.2798247
vt 0.1396272 0.3316173
vt 0.1387342 0.2798247
vt 0.1539148 0.3316173
vt 0.1512359 0.2798247
vt 0.1664165 0.3316173
vt 0.1628446 0.2798247
vt 0.1771322 0.3316173
vt 0.1726674 0.2798247
vt 0.186062 0.3316173
vt 0.1807042 0.2798247
vt 0.1932058 0.3316173
vt 0.186955 0.2798247
vt 0.1967778 0.3316173
vt 0.1914199 0.2798247
vt 0.1985637 0.3316173
vt 0.1923129 0.2798247
vt 0.05300841 0.3316173
vt 0.06015223 0.2798247
vt 0.05925925 0.2798247
vt 0.05479436 0.3316173
vt 0.06372414 0.2798247
vt 0.05836627 0.3316173
vt 0.06997497 0.2798247
vt 0.06551009 0.3316173
vt 0.07890475 0.2798247
vt 0.07443986 0.3316173
vt 0.0887275 0.2798247
vt 0.08515559 0.3316173
vt 0.1003362 0.2798247
vt 0.09765728 0.3316173
vt 0.1128379 0.2798247
vt 0.1110519 0.3316173
vt 0.1253396 0.2798247
vt 0.1253396 0.3316173
vt 0.1387342 0.2798247
vt 0.1396272 0.3316173
vt 0.1512359 0.2798247
vt 0.1539148 0.3316173
vt 0.1628446 0.2798247
vt 0.1664165 0.3316173
vt 0.1726674 0.2798247
vt 0.1771322 0.3316173
vt 0.1807042 0.2798247
vt 0.186062 0.3316173
vt 0.186955 0.2798247
vt 0.1932058 0.3316173
vt 0.1914199 0.2798247
vt 0.1967778 0.3316173
vt 0.1923129 0.2798247
vt 0.1985637 0.3316173
vt 0.5262864 0.6495173
vt 0.4968182 0.6468383
vt 0.4664569 0.6495173
vt 0.5548617 0.658447
vt 0.4378816 0.658447
vt 0.581651 0.6727347
vt 0.4119853 0.6727347
vt 0.6048684 0.6914872
vt 0.3887679 0.6914872
vt 0.623621 0.7147046
vt 0.3691224 0.7147046
vt 0.6379086 0.7414939
vt 0.3548347 0.7414939
vt 0.6468383 0.7700692
vt 0.3467979 0.7700692
vt 0.6495173 0.7995374
vt 0.343226 0.7995374
vt 0.6468383 0.8298987
vt 0.3467979 0.8298987
vt 0.6379086 0.858474
vt 0.3548347 0.858474
vt 0.623621 0.8843703
vt 0.3691224 0.8843703
vt 0.6048684 0.9075878
vt 0.3887679 0.9075878
vt 0.581651 0.9272332
vt 0.4119853 0.9272332
vt 0.5548617 0.9406279
vt 0.4378816 0.9406279
vt 0.5262864 0.9495577
vt 0.4664569 0.9495577
vt 0.4968182 0.9531295
vt 0.463778 0.6361226
vt 0.4968182 0.6325507
vt 0.5289654 0.6361226
vt 0.5602195 0.6459453
vt 0.4325238 0.6459453
vt 0.5887948 0.661126
vt 0.4039485 0.661126
vt 0.6146911 0.6816645
vt 0.3789451 0.6816645
vt 0.6352296 0.7066678
vt 0.3575137 0.7066678
vt 0.6504103 0.7361361
vt 0.3423331 0.7361361
vt 0.660233 0.7673903
vt 0.3334033 0.7673903
vt 0.6629119 0.7995374
vt 0.3298314 0.7995374
vt 0.660233 0.8325776
vt 0.3334033 0.8325776
vt 0.6504103 0.8638319
vt 0.3423331 0.8638319
vt 0.6352296 0.8924071
vt 0.3575137 0.8924071
vt 0.6146911 0.9174105
vt 0.3789451 0.9174105
vt 0.5887948 0.9388419
vt 0.4039485 0.9388419
vt 0.5602195 0.9540225
vt 0.4325238 0.9540225
vt 0.5289654 0.9629524
vt 0.463778 0.9629524
vt 0.4968182 0.9665242
vn -0.7541007 0.639934 -0.1477042
vn -0.7661182 0.639934 -0.05955955
vn -0.6880042 -0.724057 -0.04890497
vn -0.6759867 -0.724057 -0.1370527
vn -0.7060305 0.639934 -0.3033238
vn -0.6339253 -0.724057 -0.2718093
vn -0.639934 0.639934 -0.4254045
vn -0.5738376 -0.724057 -0.3826904
vn -0.5437937 0.639934 -0.5429299
vn -0.4837061 -0.724057 -0.4917011
vn -0.4236183 0.639934 -0.6411178
vn -0.3815569 -0.724057 -0.5745919
vn -0.2914253 0.639934 -0.7110245
vn -0.2613814 -0.724057 -0.6382956
vn -0.1472148 0.639934 -0.7541964
vn -0.1351973 -0.724057 -0.6763602
vn -0.003004313 0.639934 -0.768424
vn -0.003004313 -0.724057 -0.6897336
vn 0.1472149 0.639934 -0.7541964
vn 0.1351974 -0.724057 -0.6763602
vn 0.2914254 0.639934 -0.7110243
vn 0.2613816 -0.724057 -0.6382955
vn 0.4236184 0.639934 -0.6411177
vn 0.381557 -0.724057 -0.5745918
vn 0.5437938 0.639934 -0.5429298
vn 0.4837061 -0.724057 -0.491701
vn 0.6399342 0.639934 -0.4254042
vn 0.5738377 -0.724057 -0.3826903
vn 0.7060306 0.639934 -0.3033236
vn 0.6339254 -0.724057 -0.2718089
vn 0.7541008 0.639934 -0.147704
vn 0.6759868 -0.724057 -0.1370525
vn 0.7661183 0.639934 -0.05955805
vn 0.6880043 -0.724057 -0.04890375
vn -0.7661182 0.639934 -0.05955955
vn -0.6759867 -0.724057 0.1370527
vn -0.6880042 -0.724057 -0.04890497
vn -0.7541007 0.639934 0.1477042
vn -0.6339253 -0.724057 0.2718093
vn -0.7060305 0.639934 0.3033238
vn -0.5738376 -0.724057 0.3826904
vn -0.639934 0.639934 0.4254045
vn -0.4837061 -0.724057 0.4917011
vn -0.5437937 0.639934 0.5429299
vn -0.3815569 -0.724057 0.5745919
vn -0.4236183 0.639934 0.6411178
vn -0.2613814 -0.724057 0.6382956
vn -0.2914253 0.639934 0.7110245
vn -0.1351973 -0.724057 0.6763602
vn -0.1472148 0.639934 0.7541964
vn -0.003004313 -0.724057 0.6897336
vn -0.003004313 0.639934 0.768424
vn 0.1351974 -0.724057 0.6763602
vn 0.1472149 0.639934 0.7541964
vn 0.2613816 -0.724057 0.6382955
vn 0.2914254 0.639934 0.7110243
vn 0.381557 -0.724057 0.5745918
vn 0.4236184 0.639934 0.6411177
vn 0.4837061 -0.724057 0.491701
vn 0.5437938 0.639934 0.5429298
vn 0.5738377 -0.724057 0.3826903
vn 0.6399342 0.639934 0.4254042
vn 0.6339254 -0.724057 0.2718089
vn 0.7060306 0.639934 0.3033236
vn 0.6759868 -0.724057 0.1370525
vn 0.7541008 0.639934 0.147704
vn 0.6880043 -0.724057 -0.04890375
vn 0.7661183 0.639934 -0.05955805
vn 0.1351974 -0.724057 -0.6763602
vn -0.003004313 -0.724057 -0.6897336
vn -0.1351973 -0.724057 -0.6763602
vn 0.2613816 -0.724057 -0.6382955
vn -0.2613814 -0.724057 -0.6382956
vn 0.381557 -0.724057 -0.5745918
vn -0.3815569 -0.724057 -0.5745919
vn 0.4837061 -0.724057 -0.491701
vn -0.4837061 -0.724057 -0.4917011
vn 0.5738377 -0.724057 -0.3826903
vn -0.5738376 -0.724057 -0.3826904
vn 0.6339254 -0.724057 -0.2718089
vn -0.6339253 -0.724057 -0.2718093
vn 0.6759868 -0.724057 -0.1370525
vn -0.6759867 -0.724057 -0.1370527
vn 0.6880043 -0.724057 -0.04890375
vn -0.6880042 -0.724057 -0.04890497
vn 0.6759868 -0.724057 0.1370525
vn -0.6759867 -0.724057 0.1370527
vn 0.6339254 -0.724057 0.2718089
vn -0.6339253 -0.724057 0.2718093
vn 0.5738377 -0.724057 0.3826903
vn -0.5738376 -0.724057 0.3826904
vn 0.4837061 -0.724057 0.491701
vn -0.4837061 -0.724057 0.4917011
vn 0.381557 -0.724057 0.5745918
vn -0.3815569 -0.724057 0.5745919
vn 0.2613816 -0.724057 0.6382955
vn -0.2613814 -0.724057 0.6382956
vn 0.1351974 -0.724057 0.6763602
vn -0.1351973 -0.724057 0.6763602
vn -0.003004313 -0.724057 0.6897336
vn -0.1472148 0.639934 -0.7541964
vn -0.003004313 0.639934 -0.768424
vn 0.1472149 0.639934 -0.7541964
vn 0.2914254 0.639934 -0.7110243
vn -0.2914253 0.639934 -0.7110245
vn 0.4236184 0.639934 -0.6411177
vn -0.4236183 0.639934 -0.6411178
vn 0.5437938 0.639934 -0.5429298
vn -0.5437937 0.639934 -0.5429299
vn 0.6399342 0.639934 -0.4254042
vn -0.639934 0.639934 -0.4254045
vn 0.7060306 0.639934 -0.3033236
vn -0.7060305 0.639934 -0.3033238
vn 0.7541008 0.639934 -0.147704
vn -0.7541007 0.639934 -0.1477042
vn 0.7661183 0.639934 -0.05955805
vn -0.7661182 0.639934 -0.05955955
vn 0.7541008 0.639934 0.147704
vn -0.7541007 0.639934 0.1477042
vn 0.7060306 0.639934 0.3033236
vn -0.7060305 0.639934 0.3033238
vn 0.6399342 0.639934 0.4254042
vn -0.639934 0.639934 0.4254045
vn 0.5437938 0.639934 0.5429298
vn -0.5437937 0.639934 0.5429299
vn 0.4236184 0.639934 0.6411177
vn -0.4236183 0.639934 0.6411178
vn 0.2914254 0.639934 0.7110243
vn -0.2914253 0.639934 0.7110245
vn 0.1472149 0.639934 0.7541964
vn -0.1472148 0.639934 0.7541964
vn -0.003004313 0.639934 0.768424
g Carota.006_0
f 3/3/3 2/2/2 1/1/1
f 4/4/4 3/3/3 1/1/1
f 4/4/4 1/1/1 5/5/5
f 6/6/6 4/4/4 5/5/5
f 6/6/6 5/5/5 7/7/7
f 8/8/8 6/6/6 7/7/7
f 8/8/8 7/7/7 9/9/9
f 10/10/10 8/8/8 9/9/9
f 10/10/10 9/9/9 11/11/11
f 12/12/12 10/10/10 11/11/11
f 12/12/12 11/11/11 13/13/13
f 14/14/14 12/12/12 13/13/13
f 14/14/14 13/13/13 15/15/15
f 16/16/16 14/14/14 15/15/15
f 16/16/16 15/15/15 17/17/17
f 18/18/18 16/16/16 17/17/17
f 18/18/18 17/17/17 19/19/19
f 20/20/20 18/18/18 19/19/19
f 20/20/20 19/19/19 21/21/21
f 22/22/22 20/20/20 21/21/21
f 22/22/22 21/21/21 23/23/23
f 24/24/24 22/22/22 23/23/23
f 24/24/24 23/23/23 25/25/25
f 26/26/26 24/24/24 25/25/25
f 26/26/26 25/25/25 27/27/27
f 28/28/28 26/26/26 27/27/27
f 28/28/28 27/27/27 29/29/29
f 30/30/30 28/28/28 29/29/29
f 30/30/30 29/29/29 31/31/31
f 32/32/32 30/30/30 31/31/31
f 32/32/32 31/31/31 33/33/33
f 34/34/34 32/32/32 33/33/33
f 37/37/37 36/36/36 35/35/35
f 36/36/36 38/38/38 35/35/35
f 36/36/36 39/39/39 38/38/38
f 39/39/39 40/40/40 38/38/38
f 39/39/39 41/41/41 40/40/40
f 41/41/41 42/42/42 40/40/40
f 41/41/41 43/43/43 42/42/42
f 43/43/43 44/44/44 42/42/42
f 43/43/43 45/45/45 44/44/44
f 45/45/45 46/46/46 44/44/44
f 45/45/45 47/47/47 46/46/46
f 47/47/47 48/48/48 46/46/46
f 47/47/47 49/49/49 48/48/48
f 49/49/49 50/50/50 48/48/48
f 49/49/49 51/51/51 50/50/50
f 51/51/51 52/52/52 50/50/50
f 51/51/51 53/53/53 52/52/52
f 53/53/53 54/54/54 52/52/52
f 53/53/53 55/55/55 54/54/54
f 55/55/55 56/56/56 54/54/54
f 55/55/55 57/57/57 56/56/56
f 57/57/57 58/58/58 56/56/56
f 57/57/57 59/59/59 58/58/58
f 59/59/59 60/60/60 58/58/58
f 59/59/59 61/61/61 60/60/60
f 61/61/61 62/62/62 60/60/60
f 61/61/61 63/63/63 62/62/62
f 63/63/63 64/64/64 62/62/62
f 63/63/63 65/65/65 64/64/64
f 65/65/65 66/66/66 64/64/64
f 65/65/65 67/67/67 66/66/66
f 67/67/67 68/68/68 66/66/66
f 71/71/71 70/70/70 69/69/69
f 69/69/69 72/72/72 71/71/71
f 72/72/72 73/73/73 71/71/71
f 72/72/72 74/74/74 73/73/73
f 74/74/74 75/75/75 73/73/73
f 74/74/74 76/76/76 75/75/75
f 76/76/76 77/77/77 75/75/75
f 76/76/76 78/78/78 77/77/77
f 78/78/78 79/79/79 77/77/77
f 78/78/78 80/80/80 79/79/79
f 80/80/80 81/81/81 79/79/79
f 80/80/80 82/82/82 81/81/81
f 82/82/82 83/83/83 81/81/81
f 82/82/82 84/84/84 83/83/83
f 84/84/84 85/85/85 83/83/83
f 84/84/84 86/86/86 85/85/85
f 86/86/86 87/87/87 85/85/85
f 86/86/86 88/88/88 87/87/87
f 88/88/88 89/89/89 87/87/87
f 88/88/88 90/90/90 89/89/89
f 90/90/90 91/91/91 89/89/89
f 90/90/90 92/92/92 91/91/91
f 92/92/92 93/93/93 91/91/91
f 92/92/92 94/94/94 93/93/93
f 94/94/94 95/95/95 93/93/93
f 94/94/94 96/96/96 95/95/95
f 96/96/96 97/97/97 95/95/95
f 96/96/96 98/98/98 97/97/97
f 98/98/98 99/99/99 97/97/97
f 98/98/98 100/100/100 99/99/99
f 103/103/103 102/102/102 101/101/101
f 101/101/101 104/104/104 103/103/103
f 101/101/101 105/105/105 104/104/104
f 105/105/105 106/106/106 104/104/104
f 105/105/105 107/107/107 106/106/106
f 107/107/107 108/108/108 106/106/106
f 107/107/107 109/109/109 108/108/108
f 109/109/109 110/110/110 108/108/108
f 109/109/109 111/111/111 110/110/110
f 111/111/111 112/112/112 110/110/110
f 111/111/111 113/113/113 112/112/112
f 113/113/113 114/114/114 112/112/112
f 113/113/113 115/115/115 114/114/114
f 115/115/115 116/116/116 114/114/114
f 115/115/115 117/117/117 116/116/116
f 117/117/117 118/118/118 116/116/116
f 117/117/117 119/119/119 118/118/118
f 119/119/119 120/120/120 118/118/118
f 119/119/119 121/121/121 120/120/120
f 121/121/121 122/122/122 120/120/120
f 121/121/121 123/123/123 122/122/122
f 123/123/123 124/124/124 122/122/122
f 123/123/123 125/125/125 124/124/124
f 125/125/125 126/126/126 124/124/124
f 125/125/125 127/127/127 126/126/126
f 127/127/127 128/128/128 126/126/126
f 127/127/127 129/129/129 128/128/128
f 129/129/129 130/130/130 128/128/128
f 129/129/129 131/131/131 130/130/130
f 131/131/131 132/132/132 130/130/130
