g Carota.004
v -0.6583418 0.2447464 -0.1309515
v -0.6712474 0.2447464 1.013279E-05
v -0.5820755 -0.2447466 1.013279E-05
v -0.5708906 -0.2447466 -0.1135596
v -0.6201574 0.2447464 -0.2568738
v -0.5377662 -0.2447466 -0.2227455
v -0.5581284 0.2447464 -0.3729222
v -0.4839721 -0.2447466 -0.3233891
v -0.4746514 0.2447464 -0.4746516
v -0.411598 -0.2447466 -0.4115982
v -0.372922 0.2447464 -0.5581286
v -0.3233889 -0.2447466 -0.4839723
v -0.2568736 0.2447464 -0.6201577
v -0.2227453 -0.2447466 -0.5377663
v -0.1309513 0.2447464 -0.658342
v -0.1135594 -0.2447466 -0.5708908
v -1.013279E-05 0.2447464 -0.6712477
v -1.013279E-05 -0.2447466 -0.5820758
v 0.1309515 0.2447464 -0.658342
v 0.1135596 -0.2447466 -0.5708908
v 0.2568738 0.2447464 -0.6201577
v 0.2227455 -0.2447466 -0.5377663
v 0.3729222 0.2447464 -0.5581286
v 0.3233891 -0.2447466 -0.4839723
v 0.4746516 0.2447464 -0.4746516
v 0.4115982 -0.2447466 -0.4115982
v 0.5581286 0.2447464 -0.3729222
v 0.4839723 -0.2447466 -0.3233891
v 0.6201577 0.2447464 -0.2568738
v 0.5377663 -0.2447466 -0.2227455
v 0.658342 0.2447464 -0.1309515
v 0.5708908 -0.2447466 -0.1135596
v 0.6712477 0.2447464 -1.037121E-05
v 0.5820758 -0.2447466 -1.037121E-05
v -0.6712474 0.2447464 1.013279E-05
v -0.5708906 -0.2447466 0.1135594
v -0.5820755 -0.2447466 1.013279E-05
v -0.6583418 0.2447464 0.1309513
v -0.5377662 -0.2447466 0.2227453
v -0.6201574 0.2447464 0.2568736
v -0.4839721 -0.2447466 0.3233889
v -0.5581284 0.2447464 0.372922
v -0.411598 -0.2447466 0.411598
v -0.4746514 0.2447464 0.4746514
v -0.3233889 -0.2447466 0.4839721
v -0.372922 0.2447464 0.5581284
v -0.2227453 -0.2447466 0.5377662
v -0.2568736 0.2447464 0.6201574
v -0.1135594 -0.2447466 0.5708906
v -0.1309513 0.2447464 0.6583418
v -1.013279E-05 -0.2447466 0.5820755
v -1.013279E-05 0.2447464 0.6712474
v 0.1135596 -0.2447466 0.5708906
v 0.1309515 0.2447464 0.6583418
v 0.2227455 -0.2447466 0.5377662
v 0.2568738 0.2447464 0.6201574
v 0.3233891 -0.2447466 0.4839721
v 0.3729222 0.2447464 0.5581284
v 0.4115982 -0.2447466 0.411598
v 0.4746516 0.2447464 0.4746514
v 0.4839723 -0.2447466 0.3233889
v 0.5581286 0.2447464 0.372922
v 0.5377663 -0.2447466 0.2227453
v 0.6201577 0.2447464 0.2568736
v 0.5708908 -0.2447466 0.1135594
v 0.658342 0.2447464 0.1309513
v 0.5820758 -0.2447466 -1.037121E-05
v 0.6712477 0.2447464 -1.037121E-05
v 0.1135596 -0.2447466 -0.5708908
v -1.013279E-05 -0.2447466 -0.5820758
v -0.1135594 -0.2447466 -0.5708908
v 0.2227455 -0.2447466 -0.5377663
v -0.2227453 -0.2447466 -0.5377663
v 0.3233891 -0.2447466 -0.4839723
v -0.3233889 -0.2447466 -0.4839723
v 0.4115982 -0.2447466 -0.4115982
v -0.411598 -0.2447466 -0.4115982
v 0.4839723 -0.2447466 -0.3233891
v -0.4839721 -0.2447466 -0.3233891
v 0.5377663 -0.2447466 -0.2227455
v -0.5377662 -0.2447466 -0.2227455
v 0.5708908 -0.2447466 -0.1135596
v -0.5708906 -0.2447466 -0.1135596
v 0.5820758 -0.2447466 -1.037121E-05
v -0.5820755 -0.2447466 1.013279E-05
v 0.5708908 -0.2447466 0.1135594
v -0.5708906 -0.2447466 0.1135594
v 0.5377663 -0.2447466 0.2227453
v -0.5377662 -0.2447466 0.2227453
v 0.4839723 -0.2447466 0.3233889
v -0.4839721 -0.2447466 0.3233889
v 0.4115982 -0.2447466 0.411598
v -0.411598 -0.2447466 0.411598
v 0.3233891 -0.2447466 0.4839721
v -0.3233889 -0.2447466 0.4839721
v 0.2227455 -0.2447466 0.5377662
v -0.2227453 -0.2447466 0.5377662
v 0.1135596 -0.2447466 0.5708906
v -0.1135594 -0.2447466 0.5708906
v -1.013279E-05 -0.2447466 0.5820755
v -0.1309513 0.2447464 -0.658342
v -1.013279E-05 0.2447464 -0.6712477
v 0.1309515 0.2447464 -0.658342
v 0.2568738 0.2447464 -0.6201577
v -0.2568736 0.2447464 -0.6201577
v 0.3729222 0.2447464 -0.5581286
v -0.372922 0.2447464 -0.5581286
v 0.4746516 0.2447464 -0.4746516
v -0.4746514 0.2447464 -0.4746516
v 0.5581286 0.2447464 -0.3729222
v -0.5581284 0.2447464 -0.3729222
v 0.6201577 0.2447464 -0.2568738
v -0.6201574 0.2447464 -0.2568738
v 0.658342 0.2447464 -0.1309515
v -0.6583418 0.2447464 -0.1309515
v 0.6712477 0.2447464 -1.037121E-05
v -0.6712474 0.2447464 1.013279E-05
v 0.658342 0.2447464 0.1309513
v -0.6583418 0.2447464 0.1309513
v 0.6201577 0.2447464 0.2568736
v -0.6201574 0.2447464 0.2568736
v 0.5581286 0.2447464 0.372922
v -0.5581284 0.2447464 0.372922
v 0.4746516 0.2447464 0.4746514
v -0.4746514 0.2447464 0.4746514
v 0.3729222 0.2447464 0.5581284
v -0.372922 0.2447464 0.5581284
v 0.2568738 0.2447464 0.6201574
v -0.2568736 0.2447464 0.6201574
v 0.1309515 0.2447464 0.6583418
v -0.1309513 0.2447464 0.6583418
v -1.013279E-05 0.2447464 0.6712474
vt 0.06686318 0.2316391
vt 0.06600942 0.2316391
vt 0.07369327 0.1880973
vt 0.07454703 0.1880973
vt 0.07027822 0.2316391
vt 0.07796207 0.1880973
vt 0.07625455 0.2316391
vt 0.08223088 0.1880973
vt 0.08308464 0.2316391
vt 0.08906097 0.1880973
vt 0.09247601 0.2316391
vt 0.09674482 0.1880973
vt 0.1027211 0.2316391
vt 0.1061362 0.1880973
vt 0.11382 0.2316391
vt 0.1155276 0.1880973
vt 0.1257727 0.2316391
vt 0.1257727 0.1880973
vt 0.1377254 0.2316391
vt 0.1360178 0.1880973
vt 0.1488242 0.2316391
vt 0.1454092 0.1880973
vt 0.1590694 0.2316391
vt 0.1548006 0.1880973
vt 0.167607 0.2316391
vt 0.1624844 0.1880973
vt 0.1752909 0.2316391
vt 0.1684608 0.1880973
vt 0.1804134 0.2316391
vt 0.1735833 0.1880973
vt 0.1838285 0.2316391
vt 0.1761446 0.1880973
vt 0.185536 0.2316391
vt 0.1769984 0.1880973
vt 0.06600942 0.2316391
vt 0.07454703 0.1880973
vt 0.07369327 0.1880973
vt 0.06686318 0.2316391
vt 0.07796207 0.1880973
vt 0.07027822 0.2316391
vt 0.08223088 0.1880973
vt 0.07625455 0.2316391
vt 0.08906097 0.1880973
vt 0.08308464 0.2316391
vt 0.09674482 0.1880973
vt 0.09247601 0.2316391
vt 0.1061362 0.1880973
vt 0.1027211 0.2316391
vt 0.1155276 0.1880973
vt 0.11382 0.2316391
vt 0.1257727 0.1880973
vt 0.1257727 0.2316391
vt 0.1360178 0.1880973
vt 0.1377254 0.2316391
vt 0.1454092 0.1880973
vt 0.1488242 0.2316391
vt 0.1548006 0.1880973
vt 0.1590694 0.2316391
vt 0.1624844 0.1880973
vt 0.167607 0.2316391
vt 0.1684608 0.1880973
vt 0.1752909 0.2316391
vt 0.1735833 0.1880973
vt 0.1804134 0.2316391
vt 0.1761446 0.1880973
vt 0.1838285 0.2316391
vt 0.1769984 0.1880973
vt 0.185536 0.2316391
vt 0.5227717 0.6593734
vt 0.4971588 0.6568121
vt 0.471546 0.6593734
vt 0.5475307 0.6662035
vt 0.4467869 0.6662035
vt 0.5697285 0.6790099
vt 0.4237354 0.6790099
vt 0.5902188 0.6952314
vt 0.4040989 0.6952314
vt 0.6064402 0.7148679
vt 0.3878774 0.7148679
vt 0.6183929 0.7379194
vt 0.3759247 0.7379194
vt 0.6260768 0.7618248
vt 0.3682409 0.7618248
vt 0.628638 0.7882914
vt 0.3656796 0.7882914
vt 0.6260768 0.8139042
vt 0.3682409 0.8139042
vt 0.6183929 0.8378095
vt 0.3759247 0.8378095
vt 0.6064402 0.8608611
vt 0.3878774 0.8608611
vt 0.5902188 0.8804976
vt 0.4040989 0.8804976
vt 0.5697285 0.896719
vt 0.4237354 0.896719
vt 0.5475307 0.9095255
vt 0.4467869 0.9095255
vt 0.5227717 0.9163556
vt 0.471546 0.9163556
vt 0.4971588 0.9189168
vt 0.4672772 0.6388832
vt 0.4971588 0.6363219
vt 0.5261867 0.6388832
vt 0.5552146 0.6482745
vt 0.4391031 0.6482745
vt 0.5808274 0.6619347
vt 0.4126365 0.6619347
vt 0.603879 0.6807175
vt 0.3895849 0.6807175
vt 0.6226617 0.703769
vt 0.3708022 0.703769
vt 0.6371756 0.7302356
vt 0.357142 0.7302356
vt 0.6457133 0.7584097
vt 0.3486044 0.7584097
vt 0.6482745 0.7882914
vt 0.3451893 0.7882914
vt 0.6457133 0.8173193
vt 0.3486044 0.8173193
vt 0.6371756 0.8454934
vt 0.357142 0.8454934
vt 0.6226617 0.87196
vt 0.3708022 0.87196
vt 0.603879 0.8950115
vt 0.3895849 0.8950115
vt 0.5808274 0.9137943
vt 0.4126365 0.9137943
vt 0.5552146 0.9274545
vt 0.4391031 0.9274545
vt 0.5261867 0.9368458
vt 0.4672772 0.9368458
vt 0.4971588 0.9394071
vn -0.7730362 0.6190448 -0.1385588
vn -0.7853555 0.6190448 -0.0004882813
vn -0.6621625 -0.7483976 -0.0379723
vn -0.6498432 -0.7483976 -0.1326834
vn -0.723759 0.6190448 -0.3048876
vn -0.6128853 -0.7483976 -0.2535206
vn -0.6560028 0.6190448 -0.4317914
vn -0.5512888 -0.7483976 -0.368757
vn -0.5574484 0.6190448 -0.5532041
vn -0.4712133 -0.7483976 -0.4667538
vn -0.4342554 0.6190448 -0.6543743
vn -0.3664992 -0.7483976 -0.5527923
vn -0.2987431 0.6190448 -0.7263168
vn -0.2556255 -0.7483976 -0.6120103
vn -0.1509115 0.6190448 -0.7707199
vn -0.1262728 -0.7483976 -0.6511192
vn 0.003079832 0.6190448 -0.7853496
vn 0.003079832 -0.7483976 -0.6632432
vn 0.1509115 0.6190448 -0.7707199
vn 0.1262729 -0.7483976 -0.6511192
vn 0.2987431 0.6190448 -0.7263168
vn 0.2556255 -0.7483976 -0.6120103
vn 0.4342554 0.6190448 -0.6543743
vn 0.3664992 -0.7483976 -0.5527923
vn 0.5574484 0.6190448 -0.5532041
vn 0.4712133 -0.7483976 -0.4667538
vn 0.6560028 0.6190448 -0.4317914
vn 0.5512888 -0.7483976 -0.368757
vn 0.723759 0.6190448 -0.3048876
vn 0.6128853 -0.7483976 -0.2535206
vn 0.7730362 0.6190448 -0.1385588
vn 0.6498432 -0.7483976 -0.1326834
vn 0.7853555 0.6190448 -0.0004882813
vn 0.6621625 -0.7483976 -0.0379723
vn -0.7853555 0.6190448 -0.0004882813
vn -0.6498432 -0.7483976 0.1326834
vn -0.6621625 -0.7483976 -0.0379723
vn -0.7730362 0.6190448 0.1385588
vn -0.6128853 -0.7483976 0.2535206
vn -0.723759 0.6190448 0.3048876
vn -0.5512888 -0.7483976 0.368757
vn -0.6560028 0.6190448 0.4317914
vn -0.4712133 -0.7483976 0.4667538
vn -0.5574484 0.6190448 0.5532041
vn -0.3664992 -0.7483976 0.5527923
vn -0.4342554 0.6190448 0.6543743
vn -0.2556255 -0.7483976 0.6120103
vn -0.2987431 0.6190448 0.7263168
vn -0.1262728 -0.7483976 0.6511192
vn -0.1509115 0.6190448 0.7707199
vn 0.003079832 -0.7483976 0.6632432
vn 0.003079832 0.6190448 0.7853496
vn 0.1262729 -0.7483976 0.6511192
vn 0.1509115 0.6190448 0.7707199
vn 0.2556255 -0.7483976 0.6120103
vn 0.2987431 0.6190448 0.7263168
vn 0.3664992 -0.7483976 0.5527923
vn 0.4342554 0.6190448 0.6543743
vn 0.4712133 -0.7483976 0.4667538
vn 0.5574484 0.6190448 0.5532041
vn 0.5512888 -0.7483976 0.368757
vn 0.6560028 0.6190448 0.4317914
vn 0.6128853 -0.7483976 0.2535206
vn 0.723759 0.6190448 0.3048876
vn 0.6498432 -0.7483976 0.1326834
vn 0.7730362 0.6190448 0.1385588
vn 0.6621625 -0.7483976 -0.0379723
vn 0.7853555 0.6190448 -0.0004882813
vn 0.1262729 -0.7483976 -0.6511192
vn 0.003079832 -0.7483976 -0.6632432
vn -0.1262728 -0.7483976 -0.6511192
vn 0.2556255 -0.7483976 -0.6120103
vn -0.2556255 -0.7483976 -0.6120103
vn 0.3664992 -0.7483976 -0.5527923
vn -0.3664992 -0.7483976 -0.5527923
vn 0.4712133 -0.7483976 -0.4667538
vn -0.4712133 -0.7483976 -0.4667538
vn 0.5512888 -0.7483976 -0.368757
vn -0.5512888 -0.7483976 -0.368757
vn 0.6128853 -0.7483976 -0.2535206
vn -0.6128853 -0.7483976 -0.2535206
vn 0.6498432 -0.7483976 -0.1326834
vn -0.6498432 -0.7483976 -0.1326834
vn 0.6621625 -0.7483976 -0.0379723
vn -0.6621625 -0.7483976 -0.0379723
vn 0.6498432 -0.7483976 0.1326834
vn -0.6498432 -0.7483976 0.1326834
vn 0.6128853 -0.7483976 0.2535206
vn -0.6128853 -0.7483976 0.2535206
vn 0.5512888 -0.7483976 0.368757
vn -0.5512888 -0.7483976 0.368757
vn 0.4712133 -0.7483976 0.4667538
vn -0.4712133 -0.7483976 0.4667538
vn 0.3664992 -0.7483976 0.5527923
vn -0.3664992 -0.7483976 0.5527923
vn 0.2556255 -0.7483976 0.6120103
vn -0.2556255 -0.7483976 0.6120103
vn 0.1262729 -0.7483976 0.6511192
vn -0.1262728 -0.7483976 0.6511192
vn 0.003079832 -0.7483976 0.6632432
vn -0.1509115 0.6190448 -0.7707199
vn 0.003079832 0.6190448 -0.7853496
vn 0.1509115 0.6190448 -0.7707199
vn 0.2987431 0.6190448 -0.7263168
vn -0.2987431 0.6190448 -0.7263168
vn 0.4342554 0.6190448 -0.6543743
vn -0.4342554 0.6190448 -0.6543743
vn 0.5574484 0.6190448 -0.5532041
vn -0.5574484 0.6190448 -0.5532041
vn 0.6560028 0.6190448 -0.4317914
vn -0.6560028 0.6190448 -0.4317914
vn 0.723759 0.6190448 -0.3048876
vn -0.723759 0.6190448 -0.3048876
vn 0.7730362 0.6190448 -0.1385588
vn -0.7730362 0.6190448 -0.1385588
vn 0.7853555 0.6190448 -0.0004882813
vn -0.7853555 0.6190448 -0.0004882813
vn 0.7730362 0.6190448 0.1385588
vn -0.7730362 0.6190448 0.1385588
vn 0.723759 0.6190448 0.3048876
vn -0.723759 0.6190448 0.3048876
vn 0.6560028 0.6190448 0.4317914
vn -0.6560028 0.6190448 0.4317914
vn 0.5574484 0.6190448 0.5532041
vn -0.5574484 0.6190448 0.5532041
vn 0.4342554 0.6190448 0.6543743
vn -0.4342554 0.6190448 0.6543743
vn 0.2987431 0.6190448 0.7263168
vn -0.2987431 0.6190448 0.7263168
vn 0.1509115 0.6190448 0.7707199
vn -0.1509115 0.6190448 0.7707199
vn 0.003079832 0.6190448 0.7853496
g Carota.004_0
f 3/3/3 2/2/2 1/1/1
f 4/4/4 3/3/3 1/1/1
f 4/4/4 1/1/1 5/5/5
f 6/6/6 4/4/4 5/5/5
f 6/6/6 5/5/5 7/7/7
f 8/8/8 6/6/6 7/7/7
f 8/8/8 7/7/7 9/9/9
f 10/10/10 8/8/8 9/9/9
f 10/10/10 9/9/9 11/11/11
f 12/12/12 10/10/10 11/11/11
f 12/12/12 11/11/11 13/13/13
f 14/14/14 12/12/12 13/13/13
f 14/14/14 13/13/13 15/15/15
f 16/16/16 14/14/14 15/15/15
f 16/16/16 15/15/15 17/17/17
f 18/18/18 16/16/16 17/17/17
f 18/18/18 17/17/17 19/19/19
f 20/20/20 18/18/18 19/19/19
f 20/20/20 19/19/19 21/21/21
f 22/22/22 20/20/20 21/21/21
f 22/22/22 21/21/21 23/23/23
f 24/24/24 22/22/22 23/23/23
f 24/24/24 23/23/23 25/25/25
f 26/26/26 24/24/24 25/25/25
f 26/26/26 25/25/25 27/27/27
f 28/28/28 26/26/26 27/27/27
f 28/28/28 27/27/27 29/29/29
f 30/30/30 28/28/28 29/29/29
f 30/30/30 29/29/29 31/31/31
f 32/32/32 30/30/30 31/31/31
f 32/32/32 31/31/31 33/33/33
f 34/34/34 32/32/32 33/33/33
f 37/37/37 36/36/36 35/35/35
f 36/36/36 38/38/38 35/35/35
f 36/36/36 39/39/39 38/38/38
f 39/39/39 40/40/40 38/38/38
f 39/39/39 41/41/41 40/40/40
f 41/41/41 42/42/42 40/40/40
f 41/41/41 43/43/43 42/42/42
f 43/43/43 44/44/44 42/42/42
f 43/43/43 45/45/45 44/44/44
f 45/45/45 46/46/46 44/44/44
f 45/45/45 47/47/47 46/46/46
f 47/47/47 48/48/48 46/46/46
f 47/47/47 49/49/49 48/48/48
f 49/49/49 50/50/50 48/48/48
f 49/49/49 51/51/51 50/50/50
f 51/51/51 52/52/52 50/50/50
f 51/51/51 53/53/53 52/52/52
f 53/53/53 54/54/54 52/52/52
f 53/53/53 55/55/55 54/54/54
f 55/55/55 56/56/56 54/54/54
f 55/55/55 57/57/57 56/56/56
f 57/57/57 58/58/58 56/56/56
f 57/57/57 59/59/59 58/58/58
f 59/59/59 60/60/60 58/58/58
f 59/59/59 61/61/61 60/60/60
f 61/61/61 62/62/62 60/60/60
f 61/61/61 63/63/63 62/62/62
f 63/63/63 64/64/64 62/62/62
f 63/63/63 65/65/65 64/64/64
f 65/65/65 66/66/66 64/64/64
f 65/65/65 67/67/67 66/66/66
f 67/67/67 68/68/68 66/66/66
f 71/71/71 70/70/70 69/69/69
f 69/69/69 72/72/72 71/71/71
f 72/72/72 73/73/73 71/71/71
f 72/72/72 74/74/74 73/73/73
f 74/74/74 75/75/75 73/73/73
f 74/74/74 76/76/76 75/75/75
f 76/76/76 77/77/77 75/75/75
f 76/76/76 78/78/78 77/77/77
f 78/78/78 79/79/79 77/77/77
f 78/78/78 80/80/80 79/79/79
f 80/80/80 81/81/81 79/79/79
f 80/80/80 82/82/82 81/81/81
f 82/82/82 83/83/83 81/81/81
f 82/82/82 84/84/84 83/83/83
f 84/84/84 85/85/85 83/83/83
f 84/84/84 86/86/86 85/85/85
f 86/86/86 87/87/87 85/85/85
f 86/86/86 88/88/88 87/87/87
f 88/88/88 89/89/89 87/87/87
f 88/88/88 90/90/90 89/89/89
f 90/90/90 91/91/91 89/89/89
f 90/90/90 92/92/92 91/91/91
f 92/92/92 93/93/93 91/91/91
f 92/92/92 94/94/94 93/93/93
f 94/94/94 95/95/95 93/93/93
f 94/94/94 96/96/96 95/95/95
f 96/96/96 97/97/97 95/95/95
f 96/96/96 98/98/98 97/97/97
f 98/98/98 99/99/99 97/97/97
f 98/98/98 100/100/100 99/99/99
f 103/103/103 102/102/102 101/101/101
f 101/101/101 104/104/104 103/103/103
f 101/101/101 105/105/105 104/104/104
f 105/105/105 106/106/106 104/104/104
f 105/105/105 107/107/107 106/106/106
f 107/107/107 108/108/108 106/106/106
f 107/107/107 109/109/109 108/108/108
f 109/109/109 110/110/110 108/108/108
f 109/109/109 111/111/111 110/110/110
f 111/111/111 112/112/112 110/110/110
f 111/111/111 113/113/113 112/112/112
f 113/113/113 114/114/114 112/112/112
f 113/113/113 115/115/115 114/114/114
f 115/115/115 116/116/116 114/114/114
f 115/115/115 117/117/117 116/116/116
f 117/117/117 118/118/118 116/116/116
f 117/117/117 119/119/119 118/118/118
f 119/119/119 120/120/120 118/118/118
f 119/119/119 121/121/121 120/120/120
f 121/121/121 122/122/122 120/120/120
f 121/121/121 123/123/123 122/122/122
f 123/123/123 124/124/124 122/122/122
f 123/123/123 125/125/125 124/124/124
f 125/125/125 126/126/126 124/124/124
f 125/125/125 127/127/127 126/126/126
f 127/127/127 128/128/128 126/126/126
f 127/127/127 129/129/129 128/128/128
f 129/129/129 130/130/130 128/128/128
f 129/129/129 131/131/131 130/130/130
f 131/131/131 132/132/132 130/130/130
