g Carota.000
v -0.4729428 0.1674486 -0.09407353
v -0.482214 0.1674486 7.331371E-06
v -0.3716657 -0.1674487 7.331371E-06
v -0.3645284 -0.1674487 -0.07251427
v -0.4455118 0.1674486 -0.1845342
v -0.3433811 -0.1674487 -0.142225
v -0.400951 0.1674486 -0.2679017
v -0.3090335 -0.1674487 -0.2064908
v -0.3409824 0.1674486 -0.3409824
v -0.2628098 -0.1674487 -0.2628098
v -0.2679015 0.1674486 -0.4009511
v -0.2064908 -0.1674487 -0.3090335
v -0.1845341 0.1674486 -0.4455118
v -0.142225 -0.1674487 -0.3433812
v -0.09407347 0.1674486 -0.4729429
v -0.07251418 -0.1674487 -0.3645284
v -7.331371E-06 0.1674486 -0.4822141
v -7.331371E-06 -0.1674487 -0.3716658
v 0.09407353 0.1674486 -0.4729429
v 0.07251427 -0.1674487 -0.3645284
v 0.1845342 0.1674486 -0.4455118
v 0.142225 -0.1674487 -0.3433812
v 0.2679017 0.1674486 -0.4009511
v 0.2064908 -0.1674487 -0.3090335
v 0.3409824 0.1674486 -0.3409824
v 0.2628098 -0.1674487 -0.2628098
v 0.4009511 0.1674486 -0.2679017
v 0.3090335 -0.1674487 -0.2064908
v 0.4455118 0.1674486 -0.1845342
v 0.3433812 -0.1674487 -0.142225
v 0.4729429 0.1674486 -0.09407353
v 0.3645284 -0.1674487 -0.07251427
v 0.4822141 0.1674486 -7.390976E-06
v 0.3716658 -0.1674487 -7.390976E-06
v -0.482214 0.1674486 7.331371E-06
v -0.3645284 -0.1674487 0.07251418
v -0.3716657 -0.1674487 7.331371E-06
v -0.4729428 0.1674486 0.09407347
v -0.3433811 -0.1674487 0.142225
v -0.4455118 0.1674486 0.1845341
v -0.3090335 -0.1674487 0.2064908
v -0.400951 0.1674486 0.2679015
v -0.2628098 -0.1674487 0.2628098
v -0.3409824 0.1674486 0.3409824
v -0.2064908 -0.1674487 0.3090335
v -0.2679015 0.1674486 0.400951
v -0.142225 -0.1674487 0.3433811
v -0.1845341 0.1674486 0.4455118
v -0.07251418 -0.1674487 0.3645284
v -0.09407347 0.1674486 0.4729428
v -7.331371E-06 -0.1674634 0.3716657
v -7.331371E-06 0.1674486 0.482214
v 0.07251427 -0.1674487 0.3645284
v 0.09407353 0.1674486 0.4729428
v 0.142225 -0.1674487 0.3433811
v 0.1845342 0.1674486 0.4455118
v 0.2064908 -0.1674487 0.3090335
v 0.2679017 0.1674486 0.400951
v 0.2628098 -0.1674487 0.2628098
v 0.3409824 0.1674486 0.3409824
v 0.3090335 -0.1674487 0.2064908
v 0.4009511 0.1674486 0.2679015
v 0.3433812 -0.1674487 0.142225
v 0.4455118 0.1674486 0.1845341
v 0.3645284 -0.1674487 0.07251418
v 0.4729429 0.1674486 0.09407347
v 0.3716658 -0.1674487 -7.390976E-06
v 0.4822141 0.1674486 -7.390976E-06
v 0.07251427 -0.1674487 -0.3645284
v -7.331371E-06 -0.1674487 -0.3716658
v -0.07251418 -0.1674487 -0.3645284
v 0.142225 -0.1674487 -0.3433812
v -0.142225 -0.1674487 -0.3433812
v 0.2064908 -0.1674487 -0.3090335
v -0.2064908 -0.1674487 -0.3090335
v 0.2628098 -0.1674487 -0.2628098
v -0.2628098 -0.1674487 -0.2628098
v 0.3090335 -0.1674487 -0.2064908
v -0.3090335 -0.1674487 -0.2064908
v 0.3433812 -0.1674487 -0.142225
v -0.3433811 -0.1674487 -0.142225
v 0.3645284 -0.1674487 -0.07251427
v -0.3645284 -0.1674487 -0.07251427
v 0.3716658 -0.1674487 -7.390976E-06
v -0.3716657 -0.1674487 7.331371E-06
v 0.3645284 -0.1674487 0.07251418
v -0.3645284 -0.1674487 0.07251418
v 0.3433812 -0.1674487 0.142225
v -0.3433811 -0.1674487 0.142225
v 0.3090335 -0.1674487 0.2064908
v -0.3090335 -0.1674487 0.2064908
v 0.2628098 -0.1674487 0.2628098
v -0.2628098 -0.1674487 0.2628098
v 0.2064908 -0.1674487 0.3090335
v -0.2064908 -0.1674487 0.3090335
v 0.142225 -0.1674487 0.3433811
v -0.142225 -0.1674487 0.3433811
v 0.07251427 -0.1674487 0.3645284
v -0.07251418 -0.1674487 0.3645284
v -7.331371E-06 -0.1674634 0.3716657
v -0.09407347 0.1674486 -0.4729429
v -7.331371E-06 0.1674486 -0.4822141
v 0.09407353 0.1674486 -0.4729429
v 0.1845342 0.1674486 -0.4455118
v -0.1845341 0.1674486 -0.4455118
v 0.2679017 0.1674486 -0.4009511
v -0.2679015 0.1674486 -0.4009511
v 0.3409824 0.1674486 -0.3409824
v -0.3409824 0.1674486 -0.3409824
v 0.4009511 0.1674486 -0.2679017
v -0.400951 0.1674486 -0.2679017
v 0.4455118 0.1674486 -0.1845342
v -0.4455118 0.1674486 -0.1845342
v 0.4729429 0.1674486 -0.09407353
v -0.4729428 0.1674486 -0.09407353
v 0.4822141 0.1674486 -7.390976E-06
v -0.482214 0.1674486 7.331371E-06
v 0.4729429 0.1674486 0.09407347
v -0.4729428 0.1674486 0.09407347
v 0.4455118 0.1674486 0.1845341
v -0.4455118 0.1674486 0.1845341
v 0.4009511 0.1674486 0.2679015
v -0.400951 0.1674486 0.2679015
v 0.3409824 0.1674486 0.3409824
v -0.3409824 0.1674486 0.3409824
v 0.2679017 0.1674486 0.400951
v -0.2679015 0.1674486 0.400951
v 0.1845342 0.1674486 0.4455118
v -0.1845341 0.1674486 0.4455118
v 0.09407353 0.1674486 0.4729428
v -0.09407347 0.1674486 0.4729428
v -7.331371E-06 0.1674486 0.482214
vt 0.08366416 0.1511628
vt 0.08280975 0.1511628
vt 0.09220829 0.1212583
vt 0.0930627 0.1212583
vt 0.08622739 0.1511628
vt 0.09477153 0.1212583
vt 0.08964505 0.1511628
vt 0.09818918 0.1212583
vt 0.09562594 0.1511628
vt 0.1024612 0.1212583
vt 0.1016068 0.1511628
vt 0.1075877 0.1212583
vt 0.1092965 0.1511628
vt 0.1127142 0.1212583
vt 0.1169863 0.1511628
vt 0.1195495 0.1212583
vt 0.1255304 0.1511628
vt 0.1255304 0.1212583
vt 0.1340745 0.1511628
vt 0.1323657 0.1212583
vt 0.1417642 0.1511628
vt 0.1383466 0.1212583
vt 0.1494539 0.1511628
vt 0.1443275 0.1212583
vt 0.1562892 0.1511628
vt 0.1485995 0.1212583
vt 0.1614157 0.1511628
vt 0.1528716 0.1212583
vt 0.1656878 0.1511628
vt 0.1562892 0.1212583
vt 0.1673966 0.1511628
vt 0.1579981 0.1212583
vt 0.168251 0.1511628
vt 0.1588525 0.1212583
vt 0.08280975 0.1511628
vt 0.0930627 0.1212583
vt 0.09220829 0.1212583
vt 0.08366416 0.1511628
vt 0.09477153 0.1212583
vt 0.08622739 0.1511628
vt 0.09818918 0.1212583
vt 0.08964505 0.1511628
vt 0.1024612 0.1212583
vt 0.09562594 0.1511628
vt 0.1075877 0.1212583
vt 0.1016068 0.1511628
vt 0.1127142 0.1212583
vt 0.1092965 0.1511628
vt 0.1195495 0.1212583
vt 0.1169863 0.1511628
vt 0.1255304 0.1212583
vt 0.1255304 0.1511628
vt 0.1323657 0.1212583
vt 0.1340745 0.1511628
vt 0.1383466 0.1212583
vt 0.1417642 0.1511628
vt 0.1443275 0.1212583
vt 0.1494539 0.1511628
vt 0.1485995 0.1212583
vt 0.1562892 0.1511628
vt 0.1528716 0.1212583
vt 0.1614157 0.1511628
vt 0.1562892 0.1212583
vt 0.1656878 0.1511628
vt 0.1579981 0.1212583
vt 0.1673966 0.1511628
vt 0.1588525 0.1212583
vt 0.168251 0.1511628
vt 0.5194147 0.6766267
vt 0.4954911 0.6740634
vt 0.4715676 0.6766267
vt 0.5424838 0.683462
vt 0.4484984 0.683462
vt 0.5638442 0.6945693
vt 0.4271381 0.6945693
vt 0.5826412 0.7099488
vt 0.408341 0.7099488
vt 0.5980207 0.7287458
vt 0.3929616 0.7287458
vt 0.6091281 0.7501062
vt 0.3818542 0.7501062
vt 0.6159633 0.7731753
vt 0.3750189 0.7731753
vt 0.6185266 0.7970989
vt 0.3724557 0.7970989
vt 0.6159633 0.8210225
vt 0.3750189 0.8210225
vt 0.6091281 0.8440916
vt 0.3818542 0.8440916
vt 0.5980207 0.8654519
vt 0.3929616 0.8654519
vt 0.5826412 0.884249
vt 0.408341 0.884249
vt 0.5638442 0.8996284
vt 0.4271381 0.8996284
vt 0.5424838 0.9107358
vt 0.4484984 0.9107358
vt 0.5194147 0.9175711
vt 0.4715676 0.9175711
vt 0.4954911 0.9201343
vt 0.4638779 0.6407413
vt 0.4954911 0.6373237
vt 0.52625 0.6407413
vt 0.5561545 0.6492854
vt 0.4339734 0.6492854
vt 0.58435 0.6646649
vt 0.4066322 0.6646649
vt 0.6082736 0.6843164
vt 0.3827086 0.6843164
vt 0.6279252 0.7082399
vt 0.3630572 0.7082399
vt 0.6433046 0.7364355
vt 0.3476777 0.7364355
vt 0.6518487 0.76634
vt 0.3391336 0.76634
vt 0.6552663 0.7970989
vt 0.3357159 0.7970989
vt 0.6518487 0.8287122
vt 0.3391336 0.8287122
vt 0.6433046 0.8586166
vt 0.3476777 0.8586166
vt 0.6279252 0.8859578
vt 0.3630572 0.8859578
vt 0.6082736 0.9098814
vt 0.3827086 0.9098814
vt 0.58435 0.9303873
vt 0.4066322 0.9303873
vt 0.5561545 0.9449123
vt 0.4339734 0.9449123
vt 0.52625 0.9534564
vt 0.4638779 0.9534564
vt 0.4954911 0.9568741
vn -0.8117584 0.5607799 -0.1630158
vn -0.8274446 0.5607799 -0.02934922
vn -0.6068686 -0.7948023 0
vn -0.5999954 -0.7960724 -0.07921112
vn -0.7646999 0.5607799 -0.317427
vn -0.5607799 -0.7960724 -0.2275845
vn -0.6862692 0.5607799 -0.4632067
vn -0.5058784 -0.7960724 -0.3321984
vn -0.5843092 0.5607799 -0.5866077
vn -0.4274477 -0.7960724 -0.4284359
vn -0.45882 0.5607799 -0.6892098
vn -0.3411738 -0.7960724 -0.4998693
vn -0.3176446 0.5607799 -0.7646095
vn -0.2313707 -0.7960724 -0.5592284
vn -0.1607831 0.5607799 -0.8122036
vn -0.1215676 -0.7960724 -0.5928661
vn -0.003921509 0.5607799 -0.8279556
vn -0.003921509 -0.7960724 -0.6051888
vn 0.1607831 0.5607799 -0.8122036
vn 0.1215677 -0.7960724 -0.592866
vn 0.3176447 0.5607799 -0.7646095
vn 0.2313708 -0.7960724 -0.5592284
vn 0.45882 0.5607799 -0.6892097
vn 0.3411739 -0.7960724 -0.4998691
vn 0.5843093 0.5607799 -0.5866076
vn 0.4274477 -0.7960724 -0.4284358
vn 0.6862693 0.5607799 -0.4632066
vn 0.5058785 -0.7960724 -0.3321983
vn 0.7647001 0.5607799 -0.3174267
vn 0.56078 -0.7960724 -0.2275842
vn 0.8117585 0.5607799 -0.1630153
vn 0.5999954 -0.7960724 -0.07921037
vn 0.8274447 0.5607799 -0.02934617
vn 0.6068687 -0.7948022 0
vn -0.8274446 0.5607799 -0.02934922
vn -0.5999954 -0.7960724 0.07921112
vn -0.6068686 -0.7948023 0
vn -0.8117584 0.5607799 0.1630158
vn -0.5607799 -0.7960724 0.2275845
vn -0.7646999 0.5607799 0.317427
vn -0.5058784 -0.7960724 0.3321984
vn -0.6862692 0.5607799 0.4632067
vn -0.4274477 -0.7960724 0.4284359
vn -0.5843092 0.5607799 0.5866077
vn -0.3411738 -0.7960724 0.4998693
vn -0.45882 0.5607799 0.6892098
vn -0.2313707 -0.7960724 0.5592284
vn -0.3176446 0.5607799 0.7646095
vn -0.1215676 -0.7960724 0.5928661
vn -0.1607831 0.5607799 0.8122036
vn -0.003921509 -0.7960724 0.6051888
vn -0.003921509 0.5607799 0.8279556
vn 0.1215677 -0.7960724 0.592866
vn 0.1607831 0.5607799 0.8122036
vn 0.2313708 -0.7960724 0.5592284
vn 0.3176447 0.5607799 0.7646095
vn 0.3411739 -0.7960724 0.4998691
vn 0.45882 0.5607799 0.6892097
vn 0.4274477 -0.7960724 0.4284358
vn 0.5843093 0.5607799 0.5866076
vn 0.5058785 -0.7960724 0.3321983
vn 0.6862693 0.5607799 0.4632066
vn 0.56078 -0.7960724 0.2275842
vn 0.7647001 0.5607799 0.3174267
vn 0.5999954 -0.7960724 0.07921037
vn 0.8117585 0.5607799 0.1630153
vn 0.6068687 -0.7948022 0
vn 0.8274447 0.5607799 -0.02934617
vn -0.003921509 -0.9999924 0
vn -0.003921509 -0.9999924 0
vn -0.003921509 -0.9999924 0
vn -0.003921509 -0.9999924 0
vn -0.003921509 -0.9999924 0
vn -0.003921509 -0.9999924 0
vn -0.003921509 -0.9999924 0
vn -0.003921509 -0.9999924 0
vn -0.003921509 -0.9999924 0
vn -0.003921509 -0.9999924 0
vn -0.003921509 -0.9999924 0
vn -0.003921509 -0.9999924 0
vn -0.003921509 -0.9999924 0
vn -0.003921509 -0.9999924 0
vn -0.003921509 -0.9999924 0
vn -0.003921509 -0.9999924 0
vn -0.003921509 -0.9999924 0
vn -0.003921509 -0.9999924 0
vn -0.003921509 -0.9999924 0
vn -0.003921509 -0.9999924 0
vn -0.003921509 -0.9999924 0
vn -0.003921509 -0.9999924 0
vn -0.003921509 -0.9999924 0
vn -0.003921509 -0.9999924 0
vn -0.003921509 -0.9999924 0
vn -0.003921509 -0.9999924 0
vn -0.003921509 -0.9999924 0
vn -0.003921509 -0.9999924 0
vn -0.003921509 -0.9999924 0
vn -0.003921509 -0.9999924 0
vn -0.003921509 -0.9999924 0
vn -0.003921509 -0.9999924 0
vn -0.003921509 0.9999923 -0.000345267
vn -0.003921509 0.9999923 -0.000345267
vn -0.003921509 0.9999923 -0.000345267
vn -0.003921509 0.9999923 -0.000345267
vn -0.003921509 0.9999923 -0.000345267
vn -0.003921509 0.9999923 -0.000345267
vn -0.003921509 0.9999923 -0.000345267
vn -0.003921509 0.9999923 -0.000345267
vn -0.003921509 0.9999923 -0.000345267
vn -0.003921509 0.9999923 -0.000345267
vn -0.003921509 0.9999923 -0.000345267
vn -0.003921509 0.9999923 -0.000345267
vn -0.003921509 0.9999923 -0.000345267
vn -0.003921509 0.9999923 -0.000345267
vn -0.003921509 0.9999923 -0.000345267
vn -0.003921509 0.9999923 -0.000345267
vn -0.003921509 0.9999923 -0.000345267
vn -0.003921509 0.9999923 -0.000345267
vn -0.003921509 0.9999923 -0.000345267
vn -0.003921509 0.9999923 -0.000345267
vn -0.003921509 0.9999923 -0.000345267
vn -0.003921509 0.9999923 -0.000345267
vn -0.003921509 0.9999923 -0.000345267
vn -0.003921509 0.9999923 -0.000345267
vn -0.003921509 0.9999923 -0.000345267
vn -0.003921509 0.9999923 -0.000345267
vn -0.003921509 0.9999923 -0.000345267
vn -0.003921509 0.9999923 -0.000345267
vn -0.003921509 0.9999923 -0.000345267
vn -0.003921509 0.9999923 -0.000345267
vn -0.003921509 0.9999923 -0.000345267
vn -0.003921509 0.9999923 -0.000345267
g Carota.000_0
f 3/3/3 2/2/2 1/1/1
f 4/4/4 3/3/3 1/1/1
f 4/4/4 1/1/1 5/5/5
f 6/6/6 4/4/4 5/5/5
f 6/6/6 5/5/5 7/7/7
f 8/8/8 6/6/6 7/7/7
f 8/8/8 7/7/7 9/9/9
f 10/10/10 8/8/8 9/9/9
f 10/10/10 9/9/9 11/11/11
f 12/12/12 10/10/10 11/11/11
f 12/12/12 11/11/11 13/13/13
f 14/14/14 12/12/12 13/13/13
f 14/14/14 13/13/13 15/15/15
f 16/16/16 14/14/14 15/15/15
f 16/16/16 15/15/15 17/17/17
f 18/18/18 16/16/16 17/17/17
f 18/18/18 17/17/17 19/19/19
f 20/20/20 18/18/18 19/19/19
f 20/20/20 19/19/19 21/21/21
f 22/22/22 20/20/20 21/21/21
f 22/22/22 21/21/21 23/23/23
f 24/24/24 22/22/22 23/23/23
f 24/24/24 23/23/23 25/25/25
f 26/26/26 24/24/24 25/25/25
f 26/26/26 25/25/25 27/27/27
f 28/28/28 26/26/26 27/27/27
f 28/28/28 27/27/27 29/29/29
f 30/30/30 28/28/28 29/29/29
f 30/30/30 29/29/29 31/31/31
f 32/32/32 30/30/30 31/31/31
f 32/32/32 31/31/31 33/33/33
f 34/34/34 32/32/32 33/33/33
f 37/37/37 36/36/36 35/35/35
f 36/36/36 38/38/38 35/35/35
f 36/36/36 39/39/39 38/38/38
f 39/39/39 40/40/40 38/38/38
f 39/39/39 41/41/41 40/40/40
f 41/41/41 42/42/42 40/40/40
f 41/41/41 43/43/43 42/42/42
f 43/43/43 44/44/44 42/42/42
f 43/43/43 45/45/45 44/44/44
f 45/45/45 46/46/46 44/44/44
f 45/45/45 47/47/47 46/46/46
f 47/47/47 48/48/48 46/46/46
f 47/47/47 49/49/49 48/48/48
f 49/49/49 50/50/50 48/48/48
f 49/49/49 51/51/51 50/50/50
f 51/51/51 52/52/52 50/50/50
f 51/51/51 53/53/53 52/52/52
f 53/53/53 54/54/54 52/52/52
f 53/53/53 55/55/55 54/54/54
f 55/55/55 56/56/56 54/54/54
f 55/55/55 57/57/57 56/56/56
f 57/57/57 58/58/58 56/56/56
f 57/57/57 59/59/59 58/58/58
f 59/59/59 60/60/60 58/58/58
f 59/59/59 61/61/61 60/60/60
f 61/61/61 62/62/62 60/60/60
f 61/61/61 63/63/63 62/62/62
f 63/63/63 64/64/64 62/62/62
f 63/63/63 65/65/65 64/64/64
f 65/65/65 66/66/66 64/64/64
f 65/65/65 67/67/67 66/66/66
f 67/67/67 68/68/68 66/66/66
f 71/71/71 70/70/70 69/69/69
f 69/69/69 72/72/72 71/71/71
f 72/72/72 73/73/73 71/71/71
f 72/72/72 74/74/74 73/73/73
f 74/74/74 75/75/75 73/73/73
f 74/74/74 76/76/76 75/75/75
f 76/76/76 77/77/77 75/75/75
f 76/76/76 78/78/78 77/77/77
f 78/78/78 79/79/79 77/77/77
f 78/78/78 80/80/80 79/79/79
f 80/80/80 81/81/81 79/79/79
f 80/80/80 82/82/82 81/81/81
f 82/82/82 83/83/83 81/81/81
f 82/82/82 84/84/84 83/83/83
f 84/84/84 85/85/85 83/83/83
f 84/84/84 86/86/86 85/85/85
f 86/86/86 87/87/87 85/85/85
f 86/86/86 88/88/88 87/87/87
f 88/88/88 89/89/89 87/87/87
f 88/88/88 90/90/90 89/89/89
f 90/90/90 91/91/91 89/89/89
f 90/90/90 92/92/92 91/91/91
f 92/92/92 93/93/93 91/91/91
f 92/92/92 94/94/94 93/93/93
f 94/94/94 95/95/95 93/93/93
f 94/94/94 96/96/96 95/95/95
f 96/96/96 97/97/97 95/95/95
f 96/96/96 98/98/98 97/97/97
f 98/98/98 99/99/99 97/97/97
f 98/98/98 100/100/100 99/99/99
f 103/103/103 102/102/102 101/101/101
f 101/101/101 104/104/104 103/103/103
f 101/101/101 105/105/105 104/104/104
f 105/105/105 106/106/106 104/104/104
f 105/105/105 107/107/107 106/106/106
f 107/107/107 108/108/108 106/106/106
f 107/107/107 109/109/109 108/108/108
f 109/109/109 110/110/110 108/108/108
f 109/109/109 111/111/111 110/110/110
f 111/111/111 112/112/112 110/110/110
f 111/111/111 113/113/113 112/112/112
f 113/113/113 114/114/114 112/112/112
f 113/113/113 115/115/115 114/114/114
f 115/115/115 116/116/116 114/114/114
f 115/115/115 117/117/117 116/116/116
f 117/117/117 118/118/118 116/116/116
f 117/117/117 119/119/119 118/118/118
f 119/119/119 120/120/120 118/118/118
f 119/119/119 121/121/121 120/120/120
f 121/121/121 122/122/122 120/120/120
f 121/121/121 123/123/123 122/122/122
f 123/123/123 124/124/124 122/122/122
f 123/123/123 125/125/125 124/124/124
f 125/125/125 126/126/126 124/124/124
f 125/125/125 127/127/127 126/126/126
f 127/127/127 128/128/128 126/126/126
f 127/127/127 129/129/129 128/128/128
f 129/129/129 130/130/130 128/128/128
f 129/129/129 131/131/131 130/130/130
f 131/131/131 132/132/132 130/130/130
