g ColliderStone_1
v 0.5844905 0.08572683 0.3564892
v 0.5966522 -0.06927727 0.3565001
v 0.4849662 -0.246077 0.3565001
v 0.4931653 0.2273147 0.3564892
v 0.2916701 0.3157324 0.3565
v 0.3356596 -0.3239312 0.3565001
v 0.1636707 -0.3878995 0.3564892
v 0.1133806 0.3707348 0.3565
v -0.1458804 -0.3881929 0.3565001
v -0.1161963 0.371439 0.3565
v -0.2667931 0.364514 0.3565
v -0.3018724 -0.3425641 0.3565001
v -0.4248668 0.3260157 0.3565
v -0.4174413 -0.2695728 0.3564892
v -0.5105724 -0.1971683 0.3565001
v -0.5637702 0.2353092 0.3565
v -0.5884363 -0.07378309 0.3565
v -0.6110324 0.08650286 0.3565
v 0.4849662 -0.246077 -0.3565
v 0.5966522 -0.06927727 -0.3565
v 0.5844905 0.08572683 -0.3564892
v 0.4931653 0.2273147 -0.3564892
v 0.2916701 0.3157324 -0.3565001
v 0.3356596 -0.3239312 -0.3565
v 0.1636707 -0.3878995 -0.3564891
v 0.1133806 0.3707348 -0.3565001
v -0.1458804 -0.3881929 -0.3565
v -0.1161963 0.371439 -0.3565001
v -0.2667931 0.364514 -0.3565001
v -0.3018724 -0.3425641 -0.3565
v -0.4248668 0.3260157 -0.3565001
v -0.4174413 -0.2695728 -0.3564891
v -0.5105724 -0.1971683 -0.3565
v -0.5637702 0.2353092 -0.3565001
v -0.5884363 -0.07378309 -0.3565
v -0.6110324 0.08650286 -0.3565001
v -0.5105724 -0.1971683 0.3565001
v -0.5105724 -0.1971683 -0.3565
v -0.5884363 -0.07378309 -0.3565
v -0.5884363 -0.07378309 0.3565
v 0.3356596 -0.3239312 0.3565001
v 0.3356596 -0.3239312 -0.3565
v 0.1636707 -0.3878995 -0.3564891
v 0.1636707 -0.3878995 0.3564892
v 0.1133806 0.3707348 0.3565
v 0.1133806 0.3707348 -0.3565001
v 0.2916701 0.3157324 -0.3565001
v 0.2916701 0.3157324 0.3565
v -0.4248668 0.3260157 0.3565
v -0.4248668 0.3260157 -0.3565001
v -0.2667931 0.364514 -0.3565001
v -0.2667931 0.364514 0.3565
v 0.5844905 0.08572683 0.3564892
v 0.5844905 0.08572683 -0.3564892
v 0.5966522 -0.06927727 -0.3565
v 0.5966522 -0.06927727 0.3565001
v 0.2916701 0.3157324 0.3565
v 0.2916701 0.3157324 -0.3565001
v 0.4931653 0.2273147 -0.3564892
v 0.4931653 0.2273147 0.3564892
v 0.4931653 0.2273147 0.3564892
v 0.4931653 0.2273147 -0.3564892
v 0.5844905 0.08572683 -0.3564892
v 0.5844905 0.08572683 0.3564892
v 0.5966522 -0.06927727 0.3565001
v 0.5966522 -0.06927727 -0.3565
v 0.4849662 -0.246077 -0.3565
v 0.4849662 -0.246077 0.3565001
v 0.4849662 -0.246077 0.3565001
v 0.4849662 -0.246077 -0.3565
v 0.3356596 -0.3239312 -0.3565
v 0.3356596 -0.3239312 0.3565001
v 0.1636707 -0.3878995 0.3564892
v 0.1636707 -0.3878995 -0.3564891
v -0.1458804 -0.3881929 -0.3565
v -0.1458804 -0.3881929 0.3565001
v -0.1458804 -0.3881929 0.3565001
v -0.1458804 -0.3881929 -0.3565
v -0.3018724 -0.3425641 -0.3565
v -0.3018724 -0.3425641 0.3565001
v -0.3018724 -0.3425641 0.3565001
v -0.3018724 -0.3425641 -0.3565
v -0.4174413 -0.2695728 -0.3564891
v -0.4174413 -0.2695728 0.3564892
v -0.4174413 -0.2695728 0.3564892
v -0.4174413 -0.2695728 -0.3564891
v -0.5105724 -0.1971683 -0.3565
v -0.5105724 -0.1971683 0.3565001
v -0.5884363 -0.07378309 0.3565
v -0.5884363 -0.07378309 -0.3565
v -0.6110324 0.08650286 -0.3565001
v -0.6110324 0.08650286 0.3565
v -0.6110324 0.08650286 0.3565
v -0.6110324 0.08650286 -0.3565001
v -0.5637702 0.2353092 -0.3565001
v -0.5637702 0.2353092 0.3565
v -0.5637702 0.2353092 0.3565
v -0.5637702 0.2353092 -0.3565001
v -0.4248668 0.3260157 -0.3565001
v -0.4248668 0.3260157 0.3565
v -0.2667931 0.364514 0.3565
v -0.2667931 0.364514 -0.3565001
v -0.1161963 0.371439 -0.3565001
v -0.1161963 0.371439 0.3565
v -0.1161963 0.371439 0.3565
v -0.1161963 0.371439 -0.3565001
v 0.1133806 0.3707348 -0.3565001
v 0.1133806 0.3707348 0.3565
vn 0 0 1
vn 0 0 1
vn 0 0 1
vn 0 0 1
vn 0 0 1
vn 0 0 1
vn 0 0 1
vn 0 0 1
vn 0 0 1
vn 0 0 1
vn 0 0 1
vn 0 0 1
vn 0 0 1
vn 0 0 1
vn 0 0 1
vn 0 0 1
vn 0 0 1
vn 0 0 1
vn 0 0 -1
vn 0 0 -1
vn 0 0 -1
vn 0 0 -1
vn 0 0 -1
vn 0 0 -1
vn 0 0 -1
vn 0 0 -1
vn 0 0 -1
vn 0 0 -1
vn 0 0 -1
vn 0 0 -1
vn 0 0 -1
vn 0 0 -1
vn 0 0 -1
vn 0 0 -1
vn 0 0 -1
vn 0 0 -1
vn -0.8456857 -0.5336814 0
vn -0.8456857 -0.5336814 0
vn -0.8456857 -0.5336814 0
vn -0.8456857 -0.5336814 0
vn 0.3486021 -0.9372709 0
vn 0.3486021 -0.9372709 0
vn 0.3486021 -0.9372709 0
vn 0.3486021 -0.9372709 0
vn 0.294791 0.9555619 0
vn 0.294791 0.9555619 0
vn 0.294791 0.9555619 0
vn 0.294791 0.9555619 0
vn -0.2366298 0.9715999 0
vn -0.2366298 0.9715999 0
vn -0.2366298 0.9715999 0
vn -0.2366298 0.9715999 0
vn 0.9969361 0.07822015 0
vn 0.9969361 0.07822015 0
vn 0.9969361 0.07822015 0
vn 0.9969361 0.07822015 0
vn 0.4018241 0.9157169 0
vn 0.4018241 0.9157169 0
vn 0.4018241 0.9157169 0
vn 0.4018241 0.9157169 0
vn 0.8403555 0.5420356 0
vn 0.8403555 0.5420356 0
vn 0.8403555 0.5420356 0
vn 0.8403555 0.5420356 0
vn 0.8454391 -0.5340717 0
vn 0.8454391 -0.5340717 0
vn 0.8454391 -0.5340717 0
vn 0.8454391 -0.5340717 0
vn 0.4623561 -0.8866943 0
vn 0.4623561 -0.8866943 0
vn 0.4623561 -0.8866943 0
vn 0.4623561 -0.8866943 0
vn 0.0009478362 -0.9999995 0
vn 0.0009478362 -0.9999995 0
vn 0.0009478362 -0.9999995 0
vn 0.0009478362 -0.9999995 0
vn -0.2807436 -0.9597828 0
vn -0.2807436 -0.9597828 0
vn -0.2807436 -0.9597828 0
vn -0.2807436 -0.9597828 0
vn -0.5339953 -0.8454875 0
vn -0.5339953 -0.8454875 0
vn -0.5339953 -0.8454875 0
vn -0.5339953 -0.8454875 0
vn -0.6137777 -0.7894789 0
vn -0.6137777 -0.7894789 0
vn -0.6137777 -0.7894789 0
vn -0.6137777 -0.7894789 0
vn -0.990209 -0.1395932 0
vn -0.990209 -0.1395932 0
vn -0.990209 -0.1395932 0
vn -0.990209 -0.1395932 0
vn -0.9530836 0.3027073 0
vn -0.9530836 0.3027073 0
vn -0.9530836 0.3027073 0
vn -0.9530836 0.3027073 0
vn -0.546764 0.8372869 0
vn -0.546764 0.8372869 0
vn -0.546764 0.8372869 0
vn -0.546764 0.8372869 0
vn -0.04593512 0.9989445 0
vn -0.04593512 0.9989445 0
vn -0.04593512 0.9989445 0
vn -0.04593512 0.9989445 0
vn 0.003067623 0.9999954 0
vn 0.003067623 0.9999954 0
vn 0.003067623 0.9999954 0
vn 0.003067623 0.9999954 0
g ColliderStone_1_0
f 3/3/3 2/2/2 1/1/1
f 1/1/1 4/4/4 3/3/3
f 4/4/4 5/5/5 3/3/3
f 5/5/5 6/6/6 3/3/3
f 5/5/5 7/7/7 6/6/6
f 5/5/5 8/8/8 7/7/7
f 8/8/8 9/9/9 7/7/7
f 8/8/8 10/10/10 9/9/9
f 10/10/10 11/11/11 9/9/9
f 11/11/11 12/12/12 9/9/9
f 11/11/11 13/13/13 12/12/12
f 13/13/13 14/14/14 12/12/12
f 13/13/13 15/15/15 14/14/14
f 13/13/13 16/16/16 15/15/15
f 16/16/16 17/17/17 15/15/15
f 16/16/16 18/18/18 17/17/17
f 21/21/21 20/20/20 19/19/19
f 19/19/19 22/22/22 21/21/21
f 19/19/19 23/23/23 22/22/22
f 19/19/19 24/24/24 23/23/23
f 24/24/24 25/25/25 23/23/23
f 25/25/25 26/26/26 23/23/23
f 25/25/25 27/27/27 26/26/26
f 27/27/27 28/28/28 26/26/26
f 27/27/27 29/29/29 28/28/28
f 27/27/27 30/30/30 29/29/29
f 30/30/30 31/31/31 29/29/29
f 30/30/30 32/32/32 31/31/31
f 32/32/32 33/33/33 31/31/31
f 33/33/33 34/34/34 31/31/31
f 33/33/33 35/35/35 34/34/34
f 35/35/35 36/36/36 34/34/34
f 39/39/39 38/38/38 37/37/37
f 40/40/40 39/39/39 37/37/37
f 43/43/43 42/42/42 41/41/41
f 44/44/44 43/43/43 41/41/41
f 47/47/47 46/46/46 45/45/45
f 48/48/48 47/47/47 45/45/45
f 51/51/51 50/50/50 49/49/49
f 52/52/52 51/51/51 49/49/49
f 55/55/55 54/54/54 53/53/53
f 56/56/56 55/55/55 53/53/53
f 59/59/59 58/58/58 57/57/57
f 60/60/60 59/59/59 57/57/57
f 63/63/63 62/62/62 61/61/61
f 64/64/64 63/63/63 61/61/61
f 67/67/67 66/66/66 65/65/65
f 68/68/68 67/67/67 65/65/65
f 71/71/71 70/70/70 69/69/69
f 72/72/72 71/71/71 69/69/69
f 75/75/75 74/74/74 73/73/73
f 76/76/76 75/75/75 73/73/73
f 79/79/79 78/78/78 77/77/77
f 80/80/80 79/79/79 77/77/77
f 83/83/83 82/82/82 81/81/81
f 84/84/84 83/83/83 81/81/81
f 87/87/87 86/86/86 85/85/85
f 88/88/88 87/87/87 85/85/85
f 91/91/91 90/90/90 89/89/89
f 92/92/92 91/91/91 89/89/89
f 95/95/95 94/94/94 93/93/93
f 96/96/96 95/95/95 93/93/93
f 99/99/99 98/98/98 97/97/97
f 100/100/100 99/99/99 97/97/97
f 103/103/103 102/102/102 101/101/101
f 104/104/104 103/103/103 101/101/101
f 107/107/107 106/106/106 105/105/105
f 108/108/108 107/107/107 105/105/105
