g CrestDavanti
v -2.699989 0.5998654 -5.994869
v -2.739003 0.5998654 -5.984306
v -2.957592 0.6009922 -6.121065
v -2.895621 0.6009922 -6.169516
v -2.640834 0.5998654 -5.995996
v -2.699989 0.5998654 -5.994869
v -2.895621 0.6009922 -6.169516
v -2.824214 0.6009922 -6.204163
v -2.739003 0.5998654 -5.984306
v -2.774073 0.5998654 -5.972053
v -3.023789 0.6009922 -6.04177
v -2.957592 0.6009922 -6.121065
v 2.719403 0.5998654 -5.996982
v 2.644192 0.5998654 -5.995996
v 2.826304 0.6009922 -6.206417
v 2.906585 0.6009922 -6.176839
v 2.753628 0.5998654 -5.989235
v 2.719403 0.5998654 -5.996982
v 2.906585 0.6009922 -6.176839
v 2.983485 0.6009922 -6.12191
v 2.644192 0.5998654 -5.995996
v -2.640834 0.5998654 -5.995996
v -2.824214 0.6009922 -6.204163
v 2.826304 0.6009922 -6.206417
v 2.775459 0.5998654 -5.972616
v 2.753628 0.5998654 -5.989235
v 2.983485 0.6009922 -6.12191
v 3.054471 0.6009922 -6.034587
vt 0 0
vt 1 0
vt 1 1
vt 0 1
vt 0 0
vt 1 0
vt 1 1
vt 0 1
vt 0 0
vt 1 0
vt 1 1
vt 0 1
vt 0 0
vt 1 0
vt 1 1
vt 0 1
vt 0 0
vt 1 0
vt 1 1
vt 0 1
vt 0 0
vt 1 0
vt 1 1
vt 0 1
vt 0 0
vt 1 0
vt 1 1
vt 0 1
vn 0.003433413 0.9999891 0.003164424
vn 0.003433413 0.9999891 0.003164424
vn 0.003433413 0.9999891 0.003164424
vn 0.003433413 0.9999891 0.003164424
vn -0.0005015773 0.9999891 0.004645092
vn -0.0005015773 0.9999891 0.004645092
vn -0.0005015773 0.9999891 0.004645092
vn -0.0005015773 0.9999891 0.004645092
vn 0.003433413 0.9999891 0.003164424
vn 0.003433413 0.9999891 0.003164424
vn 0.003433413 0.9999891 0.003164424
vn 0.003433413 0.9999891 0.003164424
vn -0.0005015773 0.9999891 0.004645092
vn -0.0005015773 0.9999891 0.004645092
vn -0.0005015773 0.9999891 0.004645092
vn -0.0005015773 0.9999891 0.004645092
vn -0.0005015773 0.9999891 0.004645092
vn -0.0005015773 0.9999891 0.004645092
vn -0.0005015773 0.9999891 0.004645092
vn -0.0005015773 0.9999891 0.004645092
vn -0.0005015773 0.9999891 0.004645092
vn -0.0005015773 0.9999891 0.004645092
vn -0.0005015773 0.9999891 0.004645092
vn -0.0005015773 0.9999891 0.004645092
vn -0.004436567 0.9999891 0.001464844
vn -0.004436567 0.9999891 0.001464844
vn -0.004436567 0.9999891 0.001464844
vn -0.004436567 0.9999891 0.001464844
g CrestDavanti_0
f 3/3/3 2/2/2 1/1/1
f 4/4/4 3/3/3 1/1/1
f 7/7/7 6/6/6 5/5/5
f 8/8/8 7/7/7 5/5/5
f 11/11/11 10/10/10 9/9/9
f 12/12/12 11/11/11 9/9/9
f 15/15/15 14/14/14 13/13/13
f 16/16/16 15/15/15 13/13/13
f 19/19/19 18/18/18 17/17/17
f 20/20/20 19/19/19 17/17/17
f 23/23/23 22/22/22 21/21/21
f 24/24/24 23/23/23 21/21/21
f 27/27/27 26/26/26 25/25/25
f 28/28/28 27/27/27 25/25/25
