g Cubetto_Rubik
v -0.4334477 -0.4334477 -0.5
v -0.4666802 -0.4334477 -0.4911089
v -0.4652738 -0.4652738 -0.4824723
v -0.4334477 -0.4666802 -0.4911089
v -0.4911089 -0.4334477 -0.4666802
v -0.4334477 0.4334477 -0.5
v -0.4666802 0.4334477 -0.4911089
v -0.4652738 -0.4824723 -0.4652738
v -0.4824723 -0.4652738 -0.4652738
v 0.4334477 -0.4666802 -0.4911089
v 0.4334477 -0.4334477 -0.5
v 0.4334477 -0.4911089 -0.4666802
v -0.4334477 -0.4911089 -0.4666802
v 0.4652738 -0.4652738 -0.4824723
v -0.4334477 -0.5 -0.4334477
v 0.4334477 -0.5 -0.4334477
v -0.4666802 -0.4911089 -0.4334477
v 0.4652738 -0.4824723 -0.4652738
v -0.5 -0.4334477 -0.4334477
v -0.4911089 -0.4666802 -0.4334477
v -0.4911089 0.4334477 -0.4666802
v -0.4666802 -0.4911089 0.4334477
v -0.4911089 -0.4666802 0.4334477
v -0.4334477 -0.5 0.4334477
v -0.5 -0.4334477 0.4334477
v -0.4652738 -0.4824723 0.4652738
v -0.4824723 -0.4652738 0.4652738
v -0.4824723 0.4652738 -0.4652738
v -0.5 0.4334477 -0.4334477
v -0.5 0.4334477 0.4334477
v -0.4911089 -0.4334477 0.4666802
v -0.4652738 0.4652738 -0.4824723
v -0.4652738 -0.4652738 0.4824723
v -0.4666802 -0.4334477 0.4911089
v -0.4911089 0.4334477 0.4666802
v -0.4334477 -0.4911089 0.4666802
v -0.4911089 0.4666802 -0.4334477
v -0.4911089 0.4666802 0.4334477
v -0.4824723 0.4652738 0.4652738
v -0.4652738 0.4824723 -0.4652738
v -0.4666802 0.4911089 0.4334477
v -0.4666802 0.4911089 -0.4334477
v -0.4652738 0.4652738 0.4824723
v -0.4652738 0.4824723 0.4652738
v -0.4334477 0.5 0.4334477
v -0.4334477 0.5 -0.4334477
v -0.4334477 0.4911089 -0.4666802
v -0.4666802 0.4334477 0.4911089
v -0.4334477 -0.4334477 0.5
v -0.4334477 0.4334477 0.5
v -0.4334477 0.4666802 0.4911089
v -0.4334477 0.4911089 0.4666802
v 0.4334477 0.5 0.4334477
v 0.4334477 0.4911089 0.4666802
v 0.4334477 0.4666802 0.4911089
v 0.4334477 0.4334477 0.5
v -0.4334477 -0.4666802 0.4911089
v 0.4652738 0.4652738 0.4824723
v 0.4334477 -0.4334477 0.5
v 0.4334477 -0.4666802 0.4911089
v 0.4652738 0.4824723 0.4652738
v 0.4334477 -0.4911089 0.4666802
v 0.4334477 -0.5 0.4334477
v 0.4652738 -0.4824723 0.4652738
v 0.4652738 -0.4652738 0.4824723
v 0.4666802 -0.4334477 0.4911089
v 0.4666802 0.4334477 0.4911089
v 0.4666802 -0.4911089 -0.4334477
v 0.4666802 -0.4911089 0.4334477
v 0.4911089 -0.4334477 0.4666802
v 0.4824723 -0.4652738 0.4652738
v 0.4824723 0.4652738 0.4652738
v 0.4911089 -0.4666802 -0.4334477
v 0.4911089 0.4334477 0.4666802
v 0.4911089 -0.4666802 0.4334477
v 0.5 -0.4334477 0.4334477
v 0.4824723 -0.4652738 -0.4652738
v 0.5 -0.4334477 -0.4334477
v 0.5 0.4334477 0.4334477
v 0.4911089 0.4666802 0.4334477
v 0.4666802 -0.4334477 -0.4911089
v 0.5 0.4334477 -0.4334477
v 0.4911089 -0.4334477 -0.4666802
v 0.4911089 0.4334477 -0.4666802
v 0.4666802 0.4334477 -0.4911089
v 0.4911089 0.4666802 -0.4334477
v 0.4666802 0.4911089 0.4334477
v 0.4334477 0.4334477 -0.5
v 0.4824723 0.4652738 -0.4652738
v 0.4666802 0.4911089 -0.4334477
v 0.4334477 0.5 -0.4334477
v 0.4652738 0.4652738 -0.4824723
v 0.4652738 0.4824723 -0.4652738
v 0.4334477 0.4911089 -0.4666802
v 0.4334477 0.4666802 -0.4911089
v -0.4334477 0.4666802 -0.4911089
vn -0.129582 -0.129582 -0.9830651
vn -0.4915457 -0.1215588 -0.8623261
vn -0.4473447 -0.4473447 -0.7744452
vn -0.1215588 -0.4915457 -0.8623261
vn -0.8623261 -0.1215588 -0.4915457
vn -0.129582 0.129582 -0.9830651
vn -0.4915457 0.1215588 -0.8623261
vn -0.4473447 -0.7744452 -0.4473447
vn -0.7744452 -0.4473447 -0.4473447
vn 0.1215588 -0.4915457 -0.8623261
vn 0.129582 -0.129582 -0.9830651
vn 0.1215588 -0.8623261 -0.4915457
vn -0.1215588 -0.8623261 -0.4915457
vn 0.4473447 -0.4473447 -0.7744452
vn -0.129582 -0.9830651 -0.129582
vn 0.129582 -0.9830651 -0.129582
vn -0.4915457 -0.8623261 -0.1215588
vn 0.4473447 -0.7744452 -0.4473447
vn -0.9830651 -0.129582 -0.129582
vn -0.8623261 -0.4915457 -0.1215588
vn -0.8623261 0.1215588 -0.4915457
vn -0.4915457 -0.8623261 0.1215588
vn -0.8623261 -0.4915457 0.1215588
vn -0.129582 -0.9830651 0.129582
vn -0.9830651 -0.129582 0.129582
vn -0.4473447 -0.7744452 0.4473447
vn -0.7744452 -0.4473447 0.4473447
vn -0.7744452 0.4473447 -0.4473447
vn -0.9830651 0.129582 -0.129582
vn -0.9830651 0.129582 0.129582
vn -0.8623261 -0.1215588 0.4915457
vn -0.4473447 0.4473447 -0.7744452
vn -0.4473447 -0.4473447 0.7744452
vn -0.4915457 -0.1215588 0.8623261
vn -0.8623261 0.1215588 0.4915457
vn -0.1215588 -0.8623261 0.4915457
vn -0.8623261 0.4915457 -0.1215588
vn -0.8623261 0.4915457 0.1215588
vn -0.7744452 0.4473447 0.4473447
vn -0.4473447 0.7744452 -0.4473447
vn -0.4915457 0.8623261 0.1215588
vn -0.4915457 0.8623261 -0.1215588
vn -0.4473447 0.4473447 0.7744452
vn -0.4473447 0.7744452 0.4473447
vn -0.129582 0.9830651 0.129582
vn -0.129582 0.9830651 -0.129582
vn -0.1215588 0.8623261 -0.4915457
vn -0.4915457 0.1215588 0.8623261
vn -0.129582 -0.129582 0.9830651
vn -0.129582 0.129582 0.9830651
vn -0.1215588 0.4915457 0.8623261
vn -0.1215588 0.8623261 0.4915457
vn 0.129582 0.9830651 0.129582
vn 0.1215588 0.8623261 0.4915457
vn 0.1215588 0.4915457 0.8623261
vn 0.129582 0.129582 0.9830651
vn -0.1215588 -0.4915457 0.8623261
vn 0.4473447 0.4473447 0.7744452
vn 0.129582 -0.129582 0.9830651
vn 0.1215588 -0.4915457 0.8623261
vn 0.4473447 0.7744452 0.4473447
vn 0.1215588 -0.8623261 0.4915457
vn 0.129582 -0.9830651 0.129582
vn 0.4473447 -0.7744452 0.4473447
vn 0.4473447 -0.4473447 0.7744452
vn 0.4915457 -0.1215588 0.8623261
vn 0.4915457 0.1215588 0.8623261
vn 0.4915457 -0.8623261 -0.1215588
vn 0.4915457 -0.8623261 0.1215588
vn 0.8623261 -0.1215588 0.4915457
vn 0.7744452 -0.4473447 0.4473447
vn 0.7744452 0.4473447 0.4473447
vn 0.8623261 -0.4915457 -0.1215588
vn 0.8623261 0.1215588 0.4915457
vn 0.8623261 -0.4915457 0.1215588
vn 0.9830651 -0.129582 0.129582
vn 0.7744452 -0.4473447 -0.4473447
vn 0.9830651 -0.129582 -0.129582
vn 0.9830651 0.129582 0.129582
vn 0.8623261 0.4915457 0.1215588
vn 0.4915457 -0.1215588 -0.8623261
vn 0.9830651 0.129582 -0.129582
vn 0.8623261 -0.1215588 -0.4915457
vn 0.8623261 0.1215588 -0.4915457
vn 0.4915457 0.1215588 -0.8623261
vn 0.8623261 0.4915457 -0.1215588
vn 0.4915457 0.8623261 0.1215588
vn 0.129582 0.129582 -0.9830651
vn 0.7744452 0.4473447 -0.4473447
vn 0.4915457 0.8623261 -0.1215588
vn 0.129582 0.9830651 -0.129582
vn 0.4473447 0.4473447 -0.7744452
vn 0.4473447 0.7744452 -0.4473447
vn 0.1215588 0.8623261 -0.4915457
vn 0.1215588 0.4915457 -0.8623261
vn -0.1215588 0.4915457 -0.8623261
g Cubetto_Rubik_0
f 3/3/3 2/2/2 1/1/1
f 4/4/4 3/3/3 1/1/1
f 2/2/2 3/3/3 5/5/5
f 1/1/1 2/2/2 6/6/6
f 2/2/2 5/5/5 7/7/7
f 2/2/2 7/7/7 6/6/6
f 8/8/8 3/3/3 4/4/4
f 3/3/3 9/9/9 5/5/5
f 8/8/8 9/9/9 3/3/3
f 10/10/10 4/4/4 1/1/1
f 11/11/11 1/1/1 6/6/6
f 11/11/11 10/10/10 1/1/1
f 10/10/10 12/12/12 4/4/4
f 13/13/13 8/8/8 4/4/4
f 12/12/12 13/13/13 4/4/4
f 14/14/14 10/10/10 11/11/11
f 10/10/10 14/14/14 12/12/12
f 8/8/8 13/13/13 15/15/15
f 12/12/12 16/16/16 13/13/13
f 16/16/16 15/15/15 13/13/13
f 9/9/9 8/8/8 17/17/17
f 17/17/17 8/8/8 15/15/15
f 14/14/14 18/18/18 12/12/12
f 12/12/12 18/18/18 16/16/16
f 5/5/5 9/9/9 19/19/19
f 20/20/20 9/9/9 17/17/17
f 9/9/9 20/20/20 19/19/19
f 5/5/5 19/19/19 21/21/21
f 5/5/5 21/21/21 7/7/7
f 22/22/22 17/17/17 15/15/15
f 23/23/23 20/20/20 17/17/17
f 22/22/22 23/23/23 17/17/17
f 24/24/24 22/22/22 15/15/15
f 24/24/24 15/15/15 16/16/16
f 25/25/25 19/19/19 20/20/20
f 23/23/23 25/25/25 20/20/20
f 22/22/22 26/26/26 23/23/23
f 26/26/26 22/22/22 24/24/24
f 23/23/23 27/27/27 25/25/25
f 26/26/26 27/27/27 23/23/23
f 21/21/21 28/28/28 7/7/7
f 19/19/19 29/29/29 21/21/21
f 28/28/28 21/21/21 29/29/29
f 25/25/25 30/30/30 19/19/19
f 30/30/30 29/29/29 19/19/19
f 27/27/27 31/31/31 25/25/25
f 30/30/30 25/25/25 31/31/31
f 28/28/28 32/32/32 7/7/7
f 7/7/7 32/32/32 6/6/6
f 33/33/33 27/27/27 26/26/26
f 31/31/31 27/27/27 34/34/34
f 27/27/27 33/33/33 34/34/34
f 35/35/35 30/30/30 31/31/31
f 35/35/35 31/31/31 34/34/34
f 33/33/33 26/26/26 36/36/36
f 36/36/36 26/26/26 24/24/24
f 37/37/37 28/28/28 29/29/29
f 29/29/29 30/30/30 38/38/38
f 37/37/37 29/29/29 38/38/38
f 39/39/39 38/38/38 30/30/30
f 35/35/35 39/39/39 30/30/30
f 28/28/28 40/40/40 32/32/32
f 40/40/40 28/28/28 37/37/37
f 37/37/37 38/38/38 41/41/41
f 38/38/38 39/39/39 41/41/41
f 42/42/42 40/40/40 37/37/37
f 42/42/42 37/37/37 41/41/41
f 43/43/43 39/39/39 35/35/35
f 39/39/39 44/44/44 41/41/41
f 44/44/44 39/39/39 43/43/43
f 42/42/42 41/41/41 45/45/45
f 41/41/41 44/44/44 45/45/45
f 40/40/40 42/42/42 46/46/46
f 46/46/46 42/42/42 45/45/45
f 32/32/32 40/40/40 47/47/47
f 47/47/47 40/40/40 46/46/46
f 48/48/48 43/43/43 35/35/35
f 48/48/48 35/35/35 34/34/34
f 48/48/48 34/34/34 49/49/49
f 34/34/34 33/33/33 49/49/49
f 43/43/43 48/48/48 50/50/50
f 50/50/50 48/48/48 49/49/49
f 44/44/44 43/43/43 51/51/51
f 51/51/51 43/43/43 50/50/50
f 44/44/44 52/52/52 45/45/45
f 52/52/52 44/44/44 51/51/51
f 53/53/53 45/45/45 52/52/52
f 45/45/45 53/53/53 46/46/46
f 54/54/54 52/52/52 51/51/51
f 54/54/54 53/53/53 52/52/52
f 55/55/55 51/51/51 50/50/50
f 55/55/55 54/54/54 51/51/51
f 56/56/56 55/55/55 50/50/50
f 50/50/50 49/49/49 56/56/56
f 33/33/33 57/57/57 49/49/49
f 57/57/57 33/33/33 36/36/36
f 55/55/55 58/58/58 54/54/54
f 58/58/58 55/55/55 56/56/56
f 49/49/49 57/57/57 59/59/59
f 49/49/49 59/59/59 56/56/56
f 57/57/57 36/36/36 60/60/60
f 57/57/57 60/60/60 59/59/59
f 54/54/54 61/61/61 53/53/53
f 58/58/58 61/61/61 54/54/54
f 36/36/36 62/62/62 60/60/60
f 36/36/36 24/24/24 62/62/62
f 24/24/24 63/63/63 62/62/62
f 63/63/63 24/24/24 16/16/16
f 62/62/62 64/64/64 60/60/60
f 64/64/64 62/62/62 63/63/63
f 60/60/60 65/65/65 59/59/59
f 64/64/64 65/65/65 60/60/60
f 59/59/59 66/66/66 56/56/56
f 65/65/65 66/66/66 59/59/59
f 67/67/67 58/58/58 56/56/56
f 66/66/66 67/67/67 56/56/56
f 16/16/16 68/68/68 63/63/63
f 18/18/18 68/68/68 16/16/16
f 69/69/69 64/64/64 63/63/63
f 68/68/68 69/69/69 63/63/63
f 66/66/66 65/65/65 70/70/70
f 66/66/66 70/70/70 67/67/67
f 64/64/64 71/71/71 65/65/65
f 71/71/71 64/64/64 69/69/69
f 65/65/65 71/71/71 70/70/70
f 72/72/72 58/58/58 67/67/67
f 72/72/72 61/61/61 58/58/58
f 68/68/68 18/18/18 73/73/73
f 68/68/68 73/73/73 69/69/69
f 70/70/70 74/74/74 67/67/67
f 74/74/74 72/72/72 67/67/67
f 75/75/75 71/71/71 69/69/69
f 73/73/73 75/75/75 69/69/69
f 70/70/70 71/71/71 76/76/76
f 70/70/70 76/76/76 74/74/74
f 71/71/71 75/75/75 76/76/76
f 18/18/18 77/77/77 73/73/73
f 77/77/77 18/18/18 14/14/14
f 73/73/73 78/78/78 75/75/75
f 78/78/78 76/76/76 75/75/75
f 73/73/73 77/77/77 78/78/78
f 72/72/72 74/74/74 79/79/79
f 76/76/76 79/79/79 74/74/74
f 61/61/61 72/72/72 80/80/80
f 80/80/80 72/72/72 79/79/79
f 77/77/77 14/14/14 81/81/81
f 81/81/81 14/14/14 11/11/11
f 76/76/76 78/78/78 82/82/82
f 79/79/79 76/76/76 82/82/82
f 77/77/77 83/83/83 78/78/78
f 83/83/83 77/77/77 81/81/81
f 82/82/82 78/78/78 83/83/83
f 84/84/84 83/83/83 81/81/81
f 84/84/84 82/82/82 83/83/83
f 85/85/85 81/81/81 11/11/11
f 85/85/85 84/84/84 81/81/81
f 82/82/82 86/86/86 79/79/79
f 86/86/86 80/80/80 79/79/79
f 87/87/87 61/61/61 80/80/80
f 61/61/61 87/87/87 53/53/53
f 88/88/88 85/85/85 11/11/11
f 88/88/88 11/11/11 6/6/6
f 84/84/84 89/89/89 82/82/82
f 89/89/89 86/86/86 82/82/82
f 86/86/86 90/90/90 80/80/80
f 90/90/90 87/87/87 80/80/80
f 86/86/86 89/89/89 90/90/90
f 91/91/91 53/53/53 87/87/87
f 90/90/90 91/91/91 87/87/87
f 53/53/53 91/91/91 46/46/46
f 85/85/85 92/92/92 84/84/84
f 92/92/92 89/89/89 84/84/84
f 92/92/92 85/85/85 88/88/88
f 89/89/89 93/93/93 90/90/90
f 90/90/90 93/93/93 91/91/91
f 93/93/93 89/89/89 92/92/92
f 46/46/46 91/91/91 94/94/94
f 93/93/93 94/94/94 91/91/91
f 47/47/47 46/46/46 94/94/94
f 93/93/93 92/92/92 95/95/95
f 94/94/94 93/93/93 95/95/95
f 95/95/95 92/92/92 88/88/88
f 47/47/47 94/94/94 95/95/95
f 96/96/96 95/95/95 88/88/88
f 96/96/96 47/47/47 95/95/95
f 6/6/6 96/96/96 88/88/88
f 96/96/96 32/32/32 47/47/47
f 32/32/32 96/96/96 6/6/6
