g Cube
v 0.01350838 -0.4521594 -0.1072945
v -0.172105 -0.4521594 0.02890867
v -0.1918398 -0.6597411 0.0162586
v 0.00120616 -0.6597411 -0.1254
v -0.172105 -0.4521594 0.02890867
v -0.1718853 -0.6597411 0.06446058
v -0.1918398 -0.6597411 0.0162586
v -0.1529011 -0.4521594 0.07524335
v -0.1574229 -0.2599922 0.02110994
v -0.1401229 -0.6597411 0.1058707
v -0.1388963 -0.2599922 0.06583363
v -0.1714094 -0.0678432 0.004798472
v -0.1223652 -0.4521594 0.1150425
v -0.09873104 -0.6597411 0.1376332
v -0.1522238 -0.0678432 0.05115151
v -0.1834187 0.1398666 0.0162769
v -0.08258438 -0.4521594 0.1455784
v -0.05051076 -0.6597411 0.1575876
v -0.1094223 -0.2599922 0.1042597
v -0.1634459 0.1398666 0.06447887
v -0.1757847 0.3437869 0.02775532
v -0.0362314 -0.4521594 0.1647823
v 0.00120616 -0.6597411 0.1643978
v -0.1216879 -0.0678432 0.09095067
v -0.07099617 -0.2599922 0.1337338
v -0.1561781 0.3437869 0.07507861
v -0.1780365 0.54 0.01858354
v -0.1587593 0.54 0.06511962
v 0.01350838 -0.4521594 0.1713361
v 0.05294138 -0.6597411 0.1575876
v -0.1317018 0.1398666 0.1058524
v -0.1250014 0.3437869 0.1157199
v -0.1280953 0.54 0.1051019
v -0.08188874 -0.0678432 0.1214865
v -0.02627248 -0.2599922 0.1522604
v 0.06322986 -0.4521594 0.1647823
v 0.1011434 -0.6597411 0.1376332
v -0.08437848 0.3437869 0.1468965
v -0.08811307 0.54 0.1357659
v -0.09032822 0.1398666 0.1376148
v -0.03553575 -0.0678432 0.1406721
v 0.02174646 -0.2599922 0.1585945
v 0.1095829 -0.4521594 0.1455784
v 0.1425353 -0.6597411 0.1058707
v -0.03705519 0.3437869 0.1665031
v -0.04157698 0.54 0.155043
v -0.04212618 0.1398666 0.1575693
v 0.01420403 -0.0678432 0.147226
v 0.06974709 -0.2599922 0.1522604
v 0.149382 -0.4521594 0.1150425
v 0.1742977 -0.6597411 0.06446058
v 0.01372808 0.3437869 0.1731851
v 0.00838244 0.54 0.1616152
v 0.009572387 0.1398666 0.1643795
v 0.1144891 -0.2599922 0.1337338
v 0.06394386 -0.0678432 0.1406721
v 0.1799179 -0.4521594 0.07524335
v 0.1942705 -0.6597411 0.0162586
v 0.1991035 -0.4521594 0.02890867
v 0.06451136 0.3437869 0.1665031
v 0.05832362 0.54 0.155043
v 0.06128931 0.1398666 0.1575693
v 0.1529152 -0.2599922 0.1042597
v 0.1823893 -0.2599922 0.06583363
v 0.2009159 -0.2599922 0.02110994
v 0.1102785 -0.0678432 0.1214865
v 0.1118346 0.3437869 0.1468965
v 0.104878 0.54 0.1357659
v 0.1094913 0.1398666 0.1376148
v 0.1500777 -0.0678432 0.09095067
v 0.1806135 -0.0678432 0.05115151
v 0.1998175 -0.0678432 0.004798472
v 0.1508649 0.1398666 0.1058524
v 0.1524759 0.3437869 0.1157199
v 0.1448419 0.54 0.1051019
v 0.182609 0.1398666 0.06447887
v 0.2025818 0.1398666 0.0162769
v 0.1836525 0.3437869 0.07507861
v 0.1755242 0.54 0.06511962
v 0.2032592 0.3437869 0.02775532
v 0.1948014 0.54 0.01858354
v 0.1991035 -0.4521594 0.02890867
v 0.01350838 -0.4521594 -0.1072945
v 0.00120616 -0.6597411 -0.1254
v 0.1942705 -0.6597411 0.0162586
v -0.1780365 0.54 0.01858354
v 0.00838244 0.54 -0.1182237
v 0.1948014 0.54 0.01858354
v 0.1755242 0.54 0.06511962
v -0.1587593 0.54 0.06511962
v 0.1448419 0.54 0.1051019
v -0.1280953 0.54 0.1051019
v 0.104878 0.54 0.1357659
v -0.08811307 0.54 0.1357659
v 0.05832362 0.54 0.155043
v -0.04157698 0.54 0.155043
v 0.00838244 0.54 0.1616152
v 0.1942705 -0.6597411 0.0162586
v 0.00120616 -0.6597411 -0.1254
v -0.1918398 -0.6597411 0.0162586
v 0.1742977 -0.6597411 0.06446058
v -0.1718853 -0.6597411 0.06446058
v 0.1425353 -0.6597411 0.1058707
v -0.1401229 -0.6597411 0.1058707
v 0.1011434 -0.6597411 0.1376332
v -0.09873104 -0.6597411 0.1376332
v 0.05294138 -0.6597411 0.1575876
v -0.05051076 -0.6597411 0.1575876
v 0.00120616 -0.6597411 0.1643978
v 0.1948014 0.54 0.01858354
v 0.00838244 0.54 -0.1182237
v 0.01372808 0.3437869 -0.111322
v 0.2032592 0.3437869 0.02775532
v 0.2032592 0.3437869 0.02775532
v 0.01372808 0.3437869 -0.111322
v 0.009572387 0.1398666 -0.1253451
v 0.2025818 0.1398666 0.0162769
v 0.2025818 0.1398666 0.0162769
v 0.009572387 0.1398666 -0.1253451
v 0.01420403 -0.0678432 -0.1314047
v 0.1998175 -0.0678432 0.004798472
v 0.1998175 -0.0678432 0.004798472
v 0.01420403 -0.0678432 -0.1314047
v 0.02174646 -0.2599922 -0.1103884
v 0.2009159 -0.2599922 0.02110994
v 0.2009159 -0.2599922 0.02110994
v 0.02174646 -0.2599922 -0.1103884
v 0.01350838 -0.4521594 -0.1072945
v 0.1991035 -0.4521594 0.02890867
v 0.00838244 0.54 -0.1182237
v -0.1780365 0.54 0.01858354
v -0.1757847 0.3437869 0.02775532
v 0.01372808 0.3437869 -0.111322
v 0.01372808 0.3437869 -0.111322
v -0.1757847 0.3437869 0.02775532
v -0.1834187 0.1398666 0.0162769
v 0.009572387 0.1398666 -0.1253451
v 0.009572387 0.1398666 -0.1253451
v -0.1834187 0.1398666 0.0162769
v -0.1714094 -0.0678432 0.004798472
v 0.01420403 -0.0678432 -0.1314047
v 0.01420403 -0.0678432 -0.1314047
v -0.1714094 -0.0678432 0.004798472
v -0.1574229 -0.2599922 0.02110994
v 0.02174646 -0.2599922 -0.1103884
v 0.02174646 -0.2599922 -0.1103884
v -0.1574229 -0.2599922 0.02110994
v -0.172105 -0.4521594 0.02890867
v 0.01350838 -0.4521594 -0.1072945
vt 0.9003878 0.9424049
vt 0.9925306 0.9424049
vt 0.9925306 0.9799992
vt 0.9040735 0.9799992
vt 0.5443478 -0.4928122
vt 0.5111763 -1.011761
vt 0.5671992 -1.010286
vt 0.4912735 -0.4957607
vt 0.5384506 -0.009983659
vt 0.4558907 -1.011024
vt 0.4861134 -0.01219505
vt 0.5613021 0.4721078
vt 0.4381992 -0.4964979
vt 0.3998678 -1.008812
vt 0.5067534 0.4757935
vt 0.5671992 0.994005
vt 0.3858621 -0.4957607
vt 0.3445821 -1.005864
vt 0.4337764 -0.0144065
vt 0.5111763 0.9991648
vt 0.5583534 1.504108
vt 0.3335249 -0.4935493
vt 0.2885592 -1.002915
vt 0.4522049 0.4780049
vt 0.3814392 -0.01514363
vt 0.5030677 1.504845
vt 0.5657248 1.995782
vt 0.5111763 1.993571
vt 0.2811878 -0.4913379
vt 0.2325363 -0.9999664
vt 0.4566277 1.003588
vt 0.4492563 1.505582
vt 0.4573649 1.992833
vt 0.3969193 0.478742
vt 0.328365 -0.01514363
vt 0.2288506 -0.4876522
vt 0.1765136 -0.997755
vt 0.3954449 1.507056
vt 0.4035535 1.991359
vt 0.401342 1.007273
vt 0.3408964 0.4802164
vt 0.2760278 -0.0144065
vt 0.1765136 -0.4847036
vt 0.1212277 -0.9962807
vt 0.3423706 1.507793
vt 0.3497421 1.991359
vt 0.3460563 1.009485
vt 0.2848735 0.4809535
vt 0.2236906 -0.01293218
vt 0.1241764 -0.481755
vt 0.06520498 -0.9955436
vt 0.2885592 1.508531
vt 0.2951934 1.991359
vt 0.2907706 1.010959
vt 0.1720906 -0.009983659
vt 0.2288506 0.4809535
vt 0.07110202 -0.4795436
vt 0.009182096 -0.9970179
vt 0.01802778 -0.4780693
vt 0.236222 1.509268
vt 0.2413821 1.992833
vt 0.235485 1.010959
vt 0.1204907 -0.007035017
vt 0.0681535 -0.002612233
vt 0.01655352 0.00181067
vt 0.1735649 0.4816906
vt 0.1831478 1.510005
vt 0.1868335 1.994308
vt 0.1801993 1.010959
vt 0.117542 0.4824277
vt 0.06299353 0.4831649
vt 0.008444905 0.4839021
vt 0.1249135 1.009485
vt 0.1293364 1.511479
vt 0.1330221 1.997256
vt 0.06889069 1.008011
vt 0.01434207 1.006536
vt 0.07552493 1.512954
vt 0.07921064 2.000942
vt 0.02245069 1.516639
vt 0.02466214 2.006839
vt 0.9040735 0.9424049
vt 0.9888449 0.9424049
vt 0.9925306 0.9799992
vt 0.9040735 0.9799992
vt 0.6932507 0.1706164
vt 0.5856278 0.3681706
vt 0.6932507 0.6342791
vt 0.7175763 0.6106906
vt 0.7175763 0.1949421
vt 0.7382163 0.5723592
vt 0.7382163 0.2325363
vt 0.7536963 0.5229707
vt 0.7536963 0.282662
vt 0.7640163 0.4647363
vt 0.7640163 0.3401592
vt 0.7669649 0.4028163
vt 0.6932507 0.6342791
vt 0.5856278 0.3681706
vt 0.6932507 0.1706164
vt 0.7175763 0.6106906
vt 0.7175763 0.1949421
vt 0.7382163 0.5723592
vt 0.7382163 0.2325363
vt 0.7536963 0.5229707
vt 0.7536963 0.282662
vt 0.7640163 0.4647363
vt 0.7640163 0.3401592
vt 0.7669649 0.4028163
vt 0.9040735 0.9424049
vt 0.9925306 0.9424049
vt 0.9925306 0.9799992
vt 0.9055477 0.9814734
vt 0.9055477 0.9438791
vt 0.9925306 0.9424049
vt 0.9954791 0.9799992
vt 0.9055477 0.9814734
vt 0.9055477 0.9438791
vt 0.9954791 0.9424049
vt 0.9954791 0.9799992
vt 0.9040735 0.9799992
vt 0.9040735 0.9424049
vt 0.9954791 0.9424049
vt 0.9888449 0.9799992
vt 0.9040735 0.9799992
vt 0.9040735 0.9424049
vt 0.9888449 0.9424049
vt 0.9888449 0.9799992
vt 0.9040735 0.9799992
vt 0.9040735 0.9424049
vt 0.9925306 0.9424049
vt 0.9925306 0.9799992
vt 0.9040735 0.9799992
vt 0.9040735 0.9424049
vt 0.9925306 0.9424049
vt 0.9925306 0.9799992
vt 0.907022 0.9799992
vt 0.907022 0.9424049
vt 0.9925306 0.9424049
vt 0.9925306 0.9799992
vt 0.907022 0.9799992
vt 0.907022 0.9424049
vt 0.9925306 0.9424049
vt 0.9925306 0.9799992
vt 0.9003878 0.9799992
vt 0.9003878 0.9424049
vt 0.9925306 0.9424049
vt 0.9925306 0.9799992
vt 0.9003878 0.9799992
vn -0.5921522 0.1058815 -0.7988397
vn -0.5921522 0.1058815 -0.7988397
vn -0.5921522 0.1058815 -0.7988397
vn -0.5921522 0.1058815 -0.7988397
vn -0.9607769 0.08235228 -0.2648128
vn -0.6548969 -0.6627401 0.3631608
vn -0.8039154 -0.552937 -0.2190452
vn -0.8588169 0.06666613 0.5079264
vn -0.9607769 -0.01176465 -0.2770727
vn -0.5294076 -0.6705831 0.5196593
vn -0.86666 0.03529382 0.4976493
vn -0.9529338 -0.06666619 -0.2957581
vn -0.7019553 0.05882299 0.7097877
vn -0.3725461 -0.6784262 0.633204
vn -0.86666 -0.05098003 0.4962877
vn -0.9607769 0.003921509 -0.2772946
vn -0.4980353 0.04313684 0.8660831
vn -0.1921554 -0.6862693 0.7015061
vn -0.7019553 0.04313684 0.7109135
vn -0.86666 -0.03529388 0.4976493
vn -0.9686199 0.01176453 -0.248268
vn -0.2549 0.02745068 0.9665777
vn -0.003921509 -0.6941124 0.719856
vn -0.7097985 -0.04313695 0.7030827
vn -0.4980353 0.05882299 0.8651593
vn -0.86666 0.01176453 0.4987605
vn -0.7803861 0.5843092 -0.2226663
vn -0.6313677 0.6862692 0.3611226
vn 0.003921568 0.01960766 0.9998001
vn 0.1843123 -0.6941124 0.6958714
vn -0.7097985 -0.05098003 0.7025576
vn -0.7019553 0.01176453 0.7121239
vn -0.5137215 0.6862692 0.5149028
vn -0.5058784 -0.0274508 0.8621679
vn -0.2549 0.05882299 0.9651766
vn 0.2549 0.003921509 0.9669595
vn 0.35686 -0.7019554 0.616368
vn -0.4980353 0.003921509 0.8671479
vn -0.3647031 0.6941123 0.6206447
vn -0.4980353 -0.05882311 0.8651593
vn -0.262743 -0.01960772 0.9646666
vn 0.003921568 0.05882299 0.9982607
vn 0.4980354 -0.003921568 0.8671478
vn 0.5058785 -0.7019554 0.5013437
vn -0.2549 0.003921509 0.9669595
vn -0.1843122 0.6941123 0.6958715
vn -0.262743 -0.05882311 0.9630711
vn -0.003921509 -0.01176465 0.9999231
vn 0.2627431 0.05882299 0.9630711
vn 0.7019554 -0.01176465 0.7121237
vn 0.6235247 -0.6941124 0.3597569
vn 0.003921568 0.003921509 0.9999846
vn -0.003921509 0.7019553 0.7122102
vn -0.003921509 -0.05882311 0.9982607
vn 0.4980354 0.05097997 0.8656569
vn 0.2627431 -0.003921568 0.9648579
vn 0.8666601 -0.01960772 0.4985137
vn 0.7725431 -0.5921524 -0.2292001
vn 0.9686201 -0.01176465 -0.2482675
vn 0.2627431 0.01176453 0.9647941
vn 0.1843123 0.7019553 0.6879591
vn 0.2549 -0.05882311 0.9651766
vn 0.7097985 0.04313684 0.7030827
vn 0.8666601 0.02745068 0.4981434
vn 0.9686201 -0.01960772 -0.2477714
vn 0.5058785 0.003921509 0.8625958
vn 0.4980354 0.01176453 0.8670769
vn 0.35686 0.7019553 0.6163681
vn 0.4980354 -0.05882311 0.8651593
vn 0.7097985 0.003921509 0.7043939
vn 0.8666601 0.003921509 0.4988837
vn 0.9529339 -0.01176465 -0.3029498
vn 0.7019554 -0.04313695 0.7109133
vn 0.7097985 0.01176453 0.7043065
vn 0.5058785 0.7019553 0.5013438
vn 0.8666601 -0.03529388 0.4976492
vn 0.960777 0.003921509 -0.2772944
vn 0.8666601 0.01176453 0.4987604
vn 0.6156816 0.7019553 0.3580432
vn 0.9686201 0.01960766 -0.2477714
vn 0.7647001 0.5999954 -0.2350307
vn 0.5921524 0.03529382 -0.8050528
vn 0.5921524 0.03529382 -0.8050528
vn 0.5921524 0.03529382 -0.8050528
vn 0.5921524 0.03529382 -0.8050528
vn -0.003921509 0.9999923 -0.000345267
vn -0.003921509 0.9999923 -0.000345267
vn -0.003921509 0.9999923 -0.000345267
vn -0.003921509 0.9999923 -0.000345267
vn -0.003921509 0.9999923 -0.000345267
vn -0.003921509 0.9999923 -0.000345267
vn -0.003921509 0.9999923 -0.000345267
vn -0.003921509 0.9999923 -0.000345267
vn -0.003921509 0.9999923 -0.000345267
vn -0.003921509 0.9999923 -0.000345267
vn -0.003921509 0.9999923 -0.000345267
vn -0.003921509 0.9999923 -0.000345267
vn -0.003921509 -0.9999924 0
vn -0.003921509 -0.9999924 0
vn -0.003921509 -0.9999924 0
vn -0.003921509 -0.9999924 0
vn -0.003921509 -0.9999924 0
vn -0.003921509 -0.9999924 0
vn -0.003921509 -0.9999924 0
vn -0.003921509 -0.9999924 0
vn -0.003921509 -0.9999924 0
vn -0.003921509 -0.9999924 0
vn -0.003921509 -0.9999924 0
vn -0.003921509 -0.9999924 0
vn 0.5921524 -0.01176465 -0.8057402
vn 0.5921524 -0.01176465 -0.8057402
vn 0.5921524 -0.01176465 -0.8057402
vn 0.5921524 -0.01176465 -0.8057402
vn 0.5921524 0.04313684 -0.8046706
vn 0.5921524 0.04313684 -0.8046706
vn 0.5921524 0.04313684 -0.8046706
vn 0.5921524 0.04313684 -0.8046706
vn 0.5921524 0.03529382 -0.8050528
vn 0.5921524 0.03529382 -0.8050528
vn 0.5921524 0.03529382 -0.8050528
vn 0.5921524 0.03529382 -0.8050528
vn 0.5921524 -0.06666619 -0.8030636
vn 0.5921524 -0.06666619 -0.8030636
vn 0.5921524 -0.06666619 -0.8030636
vn 0.5921524 -0.06666619 -0.8030636
vn 0.5921524 -0.03529388 -0.8050528
vn 0.5921524 -0.03529388 -0.8050528
vn 0.5921524 -0.03529388 -0.8050528
vn 0.5921524 -0.03529388 -0.8050528
vn -0.5921522 -0.04313695 -0.8046708
vn -0.5921522 -0.04313695 -0.8046708
vn -0.5921522 -0.04313695 -0.8046708
vn -0.5921522 -0.04313695 -0.8046708
vn -0.5921522 0.06666613 -0.8030638
vn -0.5921522 0.06666613 -0.8030638
vn -0.5921522 0.06666613 -0.8030638
vn -0.5921522 0.06666613 -0.8030638
vn -0.5921522 0.01176453 -0.8057402
vn -0.5921522 0.01176453 -0.8057402
vn -0.5921522 0.01176453 -0.8057402
vn -0.5921522 0.01176453 -0.8057402
vn -0.5843092 -0.1137246 -0.8035231
vn -0.5843092 -0.1137246 -0.8035231
vn -0.5843092 -0.1137246 -0.8035231
vn -0.5843092 -0.1137246 -0.8035231
vn -0.5921522 0.01176453 -0.8057402
vn -0.5921522 0.01176453 -0.8057402
vn -0.5921522 0.01176453 -0.8057402
vn -0.5921522 0.01176453 -0.8057402
g Cube_0
f 3/3/3 2/2/2 1/1/1
f 4/4/4 3/3/3 1/1/1
f 7/7/7 6/6/6 5/5/5
f 6/6/6 8/8/8 5/5/5
f 5/5/5 8/8/8 9/9/9
f 6/6/6 10/10/10 8/8/8
f 8/8/8 11/11/11 9/9/9
f 9/9/9 11/11/11 12/12/12
f 10/10/10 13/13/13 8/8/8
f 8/8/8 13/13/13 11/11/11
f 10/10/10 14/14/14 13/13/13
f 11/11/11 15/15/15 12/12/12
f 12/12/12 15/15/15 16/16/16
f 14/14/14 17/17/17 13/13/13
f 14/14/14 18/18/18 17/17/17
f 13/13/13 19/19/19 11/11/11
f 11/11/11 19/19/19 15/15/15
f 13/13/13 17/17/17 19/19/19
f 15/15/15 20/20/20 16/16/16
f 16/16/16 20/20/20 21/21/21
f 18/18/18 22/22/22 17/17/17
f 18/18/18 23/23/23 22/22/22
f 19/19/19 24/24/24 15/15/15
f 15/15/15 24/24/24 20/20/20
f 17/17/17 25/25/25 19/19/19
f 17/17/17 22/22/22 25/25/25
f 19/19/19 25/25/25 24/24/24
f 20/20/20 26/26/26 21/21/21
f 21/21/21 26/26/26 27/27/27
f 26/26/26 28/28/28 27/27/27
f 23/23/23 29/29/29 22/22/22
f 23/23/23 30/30/30 29/29/29
f 24/24/24 31/31/31 20/20/20
f 20/20/20 31/31/31 26/26/26
f 26/26/26 32/32/32 28/28/28
f 31/31/31 32/32/32 26/26/26
f 32/32/32 33/33/33 28/28/28
f 25/25/25 34/34/34 24/24/24
f 24/24/24 34/34/34 31/31/31
f 22/22/22 35/35/35 25/25/25
f 22/22/22 29/29/29 35/35/35
f 25/25/25 35/35/35 34/34/34
f 30/30/30 36/36/36 29/29/29
f 30/30/30 37/37/37 36/36/36
f 32/32/32 38/38/38 33/33/33
f 38/38/38 39/39/39 33/33/33
f 31/31/31 40/40/40 32/32/32
f 34/34/34 40/40/40 31/31/31
f 40/40/40 38/38/38 32/32/32
f 35/35/35 41/41/41 34/34/34
f 34/34/34 41/41/41 40/40/40
f 29/29/29 42/42/42 35/35/35
f 29/29/29 36/36/36 42/42/42
f 35/35/35 42/42/42 41/41/41
f 37/37/37 43/43/43 36/36/36
f 37/37/37 44/44/44 43/43/43
f 38/38/38 45/45/45 39/39/39
f 45/45/45 46/46/46 39/39/39
f 40/40/40 47/47/47 38/38/38
f 41/41/41 47/47/47 40/40/40
f 47/47/47 45/45/45 38/38/38
f 42/42/42 48/48/48 41/41/41
f 41/41/41 48/48/48 47/47/47
f 36/36/36 49/49/49 42/42/42
f 36/36/36 43/43/43 49/49/49
f 42/42/42 49/49/49 48/48/48
f 44/44/44 50/50/50 43/43/43
f 44/44/44 51/51/51 50/50/50
f 45/45/45 52/52/52 46/46/46
f 52/52/52 53/53/53 46/46/46
f 47/47/47 54/54/54 45/45/45
f 48/48/48 54/54/54 47/47/47
f 54/54/54 52/52/52 45/45/45
f 43/43/43 55/55/55 49/49/49
f 43/43/43 50/50/50 55/55/55
f 49/49/49 56/56/56 48/48/48
f 48/48/48 56/56/56 54/54/54
f 49/49/49 55/55/55 56/56/56
f 51/51/51 57/57/57 50/50/50
f 51/51/51 58/58/58 57/57/57
f 58/58/58 59/59/59 57/57/57
f 52/52/52 60/60/60 53/53/53
f 60/60/60 61/61/61 53/53/53
f 54/54/54 62/62/62 52/52/52
f 56/56/56 62/62/62 54/54/54
f 62/62/62 60/60/60 52/52/52
f 50/50/50 63/63/63 55/55/55
f 50/50/50 57/57/57 63/63/63
f 57/57/57 59/59/59 64/64/64
f 57/57/57 64/64/64 63/63/63
f 59/59/59 65/65/65 64/64/64
f 55/55/55 66/66/66 56/56/56
f 56/56/56 66/66/66 62/62/62
f 55/55/55 63/63/63 66/66/66
f 60/60/60 67/67/67 61/61/61
f 67/67/67 68/68/68 61/61/61
f 62/62/62 69/69/69 60/60/60
f 66/66/66 69/69/69 62/62/62
f 69/69/69 67/67/67 60/60/60
f 63/63/63 70/70/70 66/66/66
f 63/63/63 64/64/64 70/70/70
f 66/66/66 70/70/70 69/69/69
f 64/64/64 65/65/65 71/71/71
f 64/64/64 71/71/71 70/70/70
f 65/65/65 72/72/72 71/71/71
f 70/70/70 73/73/73 69/69/69
f 69/69/69 73/73/73 67/67/67
f 70/70/70 71/71/71 73/73/73
f 67/67/67 74/74/74 68/68/68
f 73/73/73 74/74/74 67/67/67
f 74/74/74 75/75/75 68/68/68
f 71/71/71 72/72/72 76/76/76
f 71/71/71 76/76/76 73/73/73
f 73/73/73 76/76/76 74/74/74
f 72/72/72 77/77/77 76/76/76
f 74/74/74 78/78/78 75/75/75
f 76/76/76 78/78/78 74/74/74
f 76/76/76 77/77/77 78/78/78
f 78/78/78 79/79/79 75/75/75
f 77/77/77 80/80/80 78/78/78
f 78/78/78 80/80/80 79/79/79
f 80/80/80 81/81/81 79/79/79
f 84/84/84 83/83/83 82/82/82
f 85/85/85 84/84/84 82/82/82
f 88/88/88 87/87/87 86/86/86
f 86/86/86 89/89/89 88/88/88
f 86/86/86 90/90/90 89/89/89
f 90/90/90 91/91/91 89/89/89
f 90/90/90 92/92/92 91/91/91
f 92/92/92 93/93/93 91/91/91
f 92/92/92 94/94/94 93/93/93
f 94/94/94 95/95/95 93/93/93
f 94/94/94 96/96/96 95/95/95
f 96/96/96 97/97/97 95/95/95
f 100/100/100 99/99/99 98/98/98
f 98/98/98 101/101/101 100/100/100
f 101/101/101 102/102/102 100/100/100
f 101/101/101 103/103/103 102/102/102
f 103/103/103 104/104/104 102/102/102
f 103/103/103 105/105/105 104/104/104
f 105/105/105 106/106/106 104/104/104
f 105/105/105 107/107/107 106/106/106
f 107/107/107 108/108/108 106/106/106
f 107/107/107 109/109/109 108/108/108
f 112/112/112 111/111/111 110/110/110
f 113/113/113 112/112/112 110/110/110
f 116/116/116 115/115/115 114/114/114
f 117/117/117 116/116/116 114/114/114
f 120/120/120 119/119/119 118/118/118
f 121/121/121 120/120/120 118/118/118
f 124/124/124 123/123/123 122/122/122
f 125/125/125 124/124/124 122/122/122
f 128/128/128 127/127/127 126/126/126
f 129/129/129 128/128/128 126/126/126
f 132/132/132 131/131/131 130/130/130
f 133/133/133 132/132/132 130/130/130
f 136/136/136 135/135/135 134/134/134
f 137/137/137 136/136/136 134/134/134
f 140/140/140 139/139/139 138/138/138
f 141/141/141 140/140/140 138/138/138
f 144/144/144 143/143/143 142/142/142
f 145/145/145 144/144/144 142/142/142
f 148/148/148 147/147/147 146/146/146
f 149/149/149 148/148/148 146/146/146
