g CuoreSpezzato_1_Ombra
v 0.4713938 9.536743E-07 -1.039329
v 0.5555823 9.536743E-07 -1.051325
v 0.6343905 9.536743E-07 -1.046906
v 0.7071049 9.536743E-07 -1.02695
v 0.3826762 9.536743E-07 -1.010123
v 0.7730118 9.536743E-07 -0.9924178
v 0.2902803 9.536743E-07 -0.9631289
v 0.8314798 9.536743E-07 -0.9444905
v 0.1950845 9.536743E-07 -0.897771
v 0.8819325 9.536743E-07 -0.8844578
v 0.09802216 9.536743E-07 -0.8135825
v 0.9238757 9.536743E-07 -0.8137198
v 0.9569527 9.536743E-07 -0.7339783
v -9.536743E-07 9.536743E-07 -0.7085323
v 0.9807791 9.536743E-07 -0.6470449
v 0.02259016 9.536743E-07 -0.6626089
v 0.04658127 9.536743E-07 -0.6166854
v 0.9951902 9.536743E-07 -0.5547588
v 0.07057238 9.536743E-07 -0.5707345
v 0.04089916 9.536743E-07 -0.5248111
v 0.9999939 9.536743E-07 -0.4580258
v 0.007794738 9.536743E-07 -0.4788876
v -0.02382731 9.536743E-07 -0.4329641
v 0.9951902 9.536743E-07 -0.3586577
v -0.01572967 9.536743E-07 -0.3870407
v 0.01482189 9.536743E-07 -0.3411173
v 0.9807791 9.536743E-07 -0.259015
v 0.04663622 9.536743E-07 -0.2951664
v 0.07065475 9.536743E-07 -0.2492429
v 0.9569527 9.536743E-07 -0.1618154
v 0.04663622 9.536743E-07 -0.2033194
v 0.06736076 9.536743E-07 -0.157396
v 0.9238757 9.536743E-07 -0.06966656
v 0.1147665 9.536743E-07 -0.1114725
v 0.051934 9.536743E-07 -0.06554908
v 0.8819325 9.536743E-07 0.01671791
v -9.536743E-07 9.536743E-07 -0.01959813
v -0.03071725 9.536743E-07 0.02632523
v 0.8314798 9.536743E-07 0.09744763
v -0.06788421 9.536743E-07 0.0722487
v -0.03071725 9.536743E-07 0.1181722
v 0.7730118 9.536743E-07 0.173154
v -9.536743E-07 9.536743E-07 0.1640956
v 0.03922474 9.536743E-07 0.2100191
v 0.7071049 9.536743E-07 0.2450175
v 0.08668542 9.536743E-07 0.25597
v 0.6343905 9.536743E-07 0.3147125
v 0.03922474 9.536743E-07 0.3018935
v -9.536743E-07 9.536743E-07 0.3478169
v 0.5555823 9.536743E-07 0.3836937
v 0.04169524 9.536743E-07 0.3937403
v 0.4713938 9.536743E-07 0.4514397
v 0.09214789 9.536743E-07 0.4396638
v 0.04169524 9.536743E-07 0.4855872
v 0.3826762 9.536743E-07 0.5122135
v -9.536743E-07 9.536743E-07 0.5315381
v 0.2902803 9.536743E-07 0.5707364
v -0.0248704 9.536743E-07 0.5774616
v 0.1950845 9.536743E-07 0.6312906
v -0.05495536 9.536743E-07 0.6233851
v -0.0248704 9.536743E-07 0.6693085
v 0.09802216 9.536743E-07 0.6929427
v -0.003679156 9.536743E-07 0.7475952
vt 0 0
vt 0 0
vt 0 0
vt 0 0
vt 0 0
vt 0 0
vt 0 0
vt 0 0
vt 0 0
vt 0 0
vt 0 0
vt 0 0
vt 0 0
vt 0 0
vt 0 0
vt 0 0
vt 0 0
vt 0 0
vt 0 0
vt 0 0
vt 0 0
vt 0 0
vt 0 0
vt 0 0
vt 0 0
vt 0 0
vt 0 0
vt 0 0
vt 0 0
vt 0 0
vt 0 0
vt 0 0
vt 0 0
vt 0 0
vt 0 0
vt 0 0
vt 0 0
vt 0 0
vt 0 0
vt 0 0
vt 0 0
vt 0 0
vt 0 0
vt 0 0
vt 0 0
vt 0 0
vt 0 0
vt 0 0
vt 0 0
vt 0 0
vt 0 0
vt 0 0
vt 0 0
vt 0 0
vt 0 0
vt 0 0
vt 0 0
vt 0 0
vt 0 0
vt 0 0
vt 0 0
vt 0 0
vt 0 0
vn 0 1 0
vn 0 1 0
vn 0 1 0
vn 0 1 0
vn 0 1 0
vn 0 1 0
vn 0 1 0
vn 0 1 0
vn 0 1 0
vn 0 1 0
vn 0 1 0
vn 0 1 0
vn 0 1 0
vn 0 1 0
vn 0 1 0
vn 0 1 0
vn 0 1 0
vn 0 1 0
vn 0 1 0
vn 0 1 0
vn 0 1 0
vn 0 1 0
vn 0 1 0
vn 0 1 0
vn 0 1 0
vn 0 1 0
vn 0 1 0
vn 0 1 0
vn 0 1 0
vn 0 1 0
vn 0 1 0
vn 0 1 0
vn 0 1 0
vn 0 1 0
vn 0 1 0
vn 0 1 0
vn 0 1 0
vn 0 1 0
vn 0 1 0
vn 0 1 0
vn 0 1 0
vn 0 1 0
vn 0 1 0
vn 0 1 0
vn 0 1 0
vn 0 1 0
vn 0 1 0
vn 0 1 0
vn 0 1 0
vn 0 1 0
vn 0 1 0
vn 0 1 0
vn 0 1 0
vn 0 1 0
vn 0 1 0
vn 0 1 0
vn 0 1 0
vn 0 1 0
vn 0 1 0
vn 0 1 0
vn 0 1 0
vn 0 1 0
vn 0 1 0
g CuoreSpezzato_1_Ombra_0
f 3/3/3 2/2/2 1/1/1
f 1/1/1 4/4/4 3/3/3
f 1/1/1 5/5/5 4/4/4
f 5/5/5 6/6/6 4/4/4
f 5/5/5 7/7/7 6/6/6
f 7/7/7 8/8/8 6/6/6
f 7/7/7 9/9/9 8/8/8
f 9/9/9 10/10/10 8/8/8
f 9/9/9 11/11/11 10/10/10
f 11/11/11 12/12/12 10/10/10
f 11/11/11 13/13/13 12/12/12
f 11/11/11 14/14/14 13/13/13
f 14/14/14 15/15/15 13/13/13
f 14/14/14 16/16/16 15/15/15
f 16/16/16 17/17/17 15/15/15
f 17/17/17 18/18/18 15/15/15
f 17/17/17 19/19/19 18/18/18
f 19/19/19 20/20/20 18/18/18
f 20/20/20 21/21/21 18/18/18
f 20/20/20 22/22/22 21/21/21
f 22/22/22 23/23/23 21/21/21
f 23/23/23 24/24/24 21/21/21
f 23/23/23 25/25/25 24/24/24
f 25/25/25 26/26/26 24/24/24
f 26/26/26 27/27/27 24/24/24
f 26/26/26 28/28/28 27/27/27
f 28/28/28 29/29/29 27/27/27
f 29/29/29 30/30/30 27/27/27
f 29/29/29 31/31/31 30/30/30
f 31/31/31 32/32/32 30/30/30
f 32/32/32 33/33/33 30/30/30
f 32/32/32 34/34/34 33/33/33
f 34/34/34 35/35/35 33/33/33
f 35/35/35 36/36/36 33/33/33
f 35/35/35 37/37/37 36/36/36
f 37/37/37 38/38/38 36/36/36
f 38/38/38 39/39/39 36/36/36
f 38/38/38 40/40/40 39/39/39
f 40/40/40 41/41/41 39/39/39
f 41/41/41 42/42/42 39/39/39
f 41/41/41 43/43/43 42/42/42
f 43/43/43 44/44/44 42/42/42
f 44/44/44 45/45/45 42/42/42
f 44/44/44 46/46/46 45/45/45
f 46/46/46 47/47/47 45/45/45
f 46/46/46 48/48/48 47/47/47
f 48/48/48 49/49/49 47/47/47
f 49/49/49 50/50/50 47/47/47
f 49/49/49 51/51/51 50/50/50
f 51/51/51 52/52/52 50/50/50
f 51/51/51 53/53/53 52/52/52
f 53/53/53 54/54/54 52/52/52
f 54/54/54 55/55/55 52/52/52
f 54/54/54 56/56/56 55/55/55
f 56/56/56 57/57/57 55/55/55
f 56/56/56 58/58/58 57/57/57
f 58/58/58 59/59/59 57/57/57
f 58/58/58 60/60/60 59/59/59
f 60/60/60 61/61/61 59/59/59
f 61/61/61 62/62/62 59/59/59
f 61/61/61 63/63/63 62/62/62
