g FoglioA4
v 1.440935 2.036294 0.4309187
v -1.440932 2.036294 0.4309187
v -1.47386 2.035318 0.4261682
v 1.473862 2.035318 0.4261682
v -1.503533 2.03252 0.4123726
v 1.503536 2.03252 0.4123726
v -1.52709 2.028095 0.3908331
v 1.527093 2.028095 0.3908331
v -1.542253 2.022564 0.3637624
v 1.542255 2.022564 0.3637624
v -1.547458 2.016447 0.3337631
v 1.547461 2.016447 0.3337631
v -1.547458 2.016447 0.333698
v 1.547461 2.016447 0.333698
v 1.547461 1.976882 0.2427897
v -1.547458 1.976882 0.2427897
v 1.547461 1.919421 0.1619027
v -1.547458 1.919421 0.1619027
v 1.547461 1.846538 0.09468126
v -1.547458 1.846538 0.09468126
v 1.547461 1.761292 0.0439887
v -1.547458 1.761292 0.0439887
v 1.547461 1.667455 0.01197219
v -1.547458 1.667455 0.01197219
v 1.547461 1.568998 -1.430511E-06
v -1.547458 1.568998 -1.430511E-06
v 1.547461 -2.038379 -1.430511E-06
v -1.547458 -2.038379 -1.430511E-06
v 1.543622 -2.174579 -1.430511E-06
v 1.547461 -2.150567 -1.430511E-06
v 1.532624 -2.196249 -1.430511E-06
v 1.51538 -2.213494 -1.430511E-06
v 1.49371 -2.224556 -1.430511E-06
v 1.469698 -2.22833 -1.430511E-06
v -1.469695 -2.22833 -1.430511E-06
v -1.493707 -2.224556 -1.430511E-06
v -1.515377 -2.213494 -1.430511E-06
v -1.532622 -2.196249 -1.430511E-06
v -1.543619 -2.174579 -1.430511E-06
v -1.547458 -2.150567 -1.430511E-06
vt 0.0236105 1.000002
vt 0.9799054 1.000002
vt 0.9872577 0.9990215
vt 0.01625815 0.9990215
vt 0.9936298 0.9955904
vt 0.00988612 0.9955904
vt 0.9990215 0.9906888
vt 0.004494401 0.9906888
vt 1.002453 0.984807
vt 0.001063307 0.984807
vt 1.003433 0.9779447
vt 8.299476E-05 0.9779447
vt 1.003433 0.9779447
vt 8.299476E-05 0.9779447
vt 8.299476E-05 0.9558877
vt 1.003433 0.9558877
vt 8.299476E-05 0.9338307
vt 1.003433 0.9338307
vt 8.299476E-05 0.9117736
vt 1.003433 0.9117736
vt 8.299476E-05 0.8897166
vt 1.003433 0.8897166
vt 8.299476E-05 0.8676596
vt 1.003433 0.8676596
vt 8.299476E-05 0.8456026
vt 1.003433 0.8456026
vt 8.299476E-05 0.04223644
vt 1.003433 0.04223644
vt 0.001063307 0.01184675
vt 8.299476E-05 0.01723846
vt 0.003514089 0.007435339
vt 0.007435339 0.003514089
vt 0.01184675 0.001063307
vt 0.01723846 8.299476E-05
vt 0.9862774 8.299476E-05
vt 0.9916691 0.001063307
vt 0.9960805 0.003514089
vt 1.000002 0.007435339
vt 1.002453 0.01184675
vt 1.003433 0.01723846
vn 0 0.9797168 -0.2003873
vn 0 0.9797168 -0.2003873
vn 0 0.9797168 -0.2003873
vn 0 0.9797168 -0.2003873
vn 0 0.9797168 -0.2003873
vn 0 0.9797168 -0.2003873
vn 0 0.9797168 -0.2003873
vn 0 0.9797168 -0.2003873
vn 0 0.9797168 -0.2003873
vn 0 0.9797168 -0.2003873
vn 0 0.9797168 -0.2003873
vn 0 0.9797168 -0.2003873
vn 0 0.9528226 -0.3035277
vn 0 0.9528226 -0.3035277
vn 0 0.87214 -0.4892563
vn 0 0.87214 -0.4892563
vn 0 0.7491952 -0.6623492
vn 0 0.7491952 -0.6623492
vn 0 0.5993562 -0.8004825
vn 0 0.5993562 -0.8004825
vn 0 0.4187809 -0.9080873
vn 0 0.4187809 -0.9080873
vn 0 0.2228376 -0.9748556
vn 0 0.2228376 -0.9748556
vn 0 0.06147243 -0.9981087
vn 0 0.06147243 -0.9981087
vn 0 0 -1
vn 0 0 -1
vn 0 0 -1
vn 0 0 -1
vn 0 0 -1
vn 0 0 -1
vn 0 0 -1
vn 0 0 -1
vn 0 0 -1
vn 0 0 -1
vn 0 0 -1
vn 0 0 -1
vn 0 0 -1
vn 0 0 -1
g FoglioA4_0
f 3/3/3 2/2/2 1/1/1
f 3/3/3 1/1/1 4/4/4
f 5/5/5 3/3/3 4/4/4
f 5/5/5 4/4/4 6/6/6
f 7/7/7 5/5/5 6/6/6
f 7/7/7 6/6/6 8/8/8
f 9/9/9 7/7/7 8/8/8
f 9/9/9 8/8/8 10/10/10
f 11/11/11 9/9/9 10/10/10
f 11/11/11 10/10/10 12/12/12
f 13/13/13 11/11/11 12/12/12
f 12/12/12 14/14/14 13/13/13
f 13/13/13 14/14/14 15/15/15
f 16/16/16 13/13/13 15/15/15
f 16/16/16 15/15/15 17/17/17
f 18/18/18 16/16/16 17/17/17
f 18/18/18 17/17/17 19/19/19
f 20/20/20 18/18/18 19/19/19
f 20/20/20 19/19/19 21/21/21
f 22/22/22 20/20/20 21/21/21
f 22/22/22 21/21/21 23/23/23
f 24/24/24 22/22/22 23/23/23
f 24/24/24 23/23/23 25/25/25
f 26/26/26 24/24/24 25/25/25
f 26/26/26 25/25/25 27/27/27
f 28/28/28 26/26/26 27/27/27
f 29/29/29 28/28/28 27/27/27
f 27/27/27 30/30/30 29/29/29
f 29/29/29 31/31/31 28/28/28
f 31/31/31 32/32/32 28/28/28
f 32/32/32 33/33/33 28/28/28
f 33/33/33 34/34/34 28/28/28
f 34/34/34 35/35/35 28/28/28
f 35/35/35 36/36/36 28/28/28
f 36/36/36 37/37/37 28/28/28
f 37/37/37 38/38/38 28/28/28
f 38/38/38 39/39/39 28/28/28
f 39/39/39 40/40/40 28/28/28
