g Ombra_TesseraMemory
v 0.9811774 -1.835823E-05 -0.7637359
v 1.198472 -1.835823E-05 -1.011293
v 1.207834 -1.835823E-05 -0.9401515
v 0.9735841 -1.835823E-05 -0.8215336
v 0.3539551 -1.835823E-05 -0.2755155
v 0.3511906 -1.835823E-05 -0.2963418
v 0.9811774 -1.835823E-05 0.7637361
v 1.207834 -1.835823E-05 -0.9401515
v 1.207834 -1.835823E-05 0.9401516
v 0.9811774 -1.835823E-05 -0.7637359
v 0.3539551 -1.835823E-05 0.2755157
v 0.3539551 -1.835823E-05 -0.2755155
v 0.9735841 -1.835823E-05 -0.8215336
v 1.172006 -1.835823E-05 -1.075135
v 1.198472 -1.835823E-05 -1.011293
v 0.9520943 -1.835823E-05 -0.8733966
v 0.3511906 -1.835823E-05 -0.2963418
v 0.3434498 -1.835823E-05 -0.3150671
v -0.8215338 1.859665E-05 0.9735843
v -0.9401516 1.859665E-05 1.207834
v -1.011293 1.859665E-05 1.198472
v -0.7637361 1.859665E-05 0.9811777
v -0.296342 -1.835823E-05 0.3511908
v -0.2755157 -1.835823E-05 0.3539554
v 0.7637359 -1.835823E-05 -0.9811774
v -0.9401516 -1.835823E-05 -1.207834
v 0.9401515 -1.835823E-05 -1.207834
v -0.7637361 -1.835823E-05 -0.9811774
v 0.2755155 -1.835823E-05 -0.3539551
v -0.2755157 -1.835823E-05 -0.3539551
v -0.296342 -1.835823E-05 -0.3511906
v 0.2755155 -1.835823E-05 -0.3539551
v 0.2963418 -1.835823E-05 -0.3511906
v -0.3150673 -1.835823E-05 -0.3434498
v 0.3150671 -1.835823E-05 -0.3434498
v -0.3311385 -1.835823E-05 -0.3311383
v 0.3311383 -1.835823E-05 -0.3311383
v -0.3434501 -1.835823E-05 -0.3150671
v 0.3434498 -1.835823E-05 -0.3150671
v -0.3511908 -1.835823E-05 -0.2963418
v 0.3511906 -1.835823E-05 -0.2963418
v -0.3539554 -1.835823E-05 -0.2755155
v 0.3539551 -1.835823E-05 -0.2755155
v -0.3539554 -1.835823E-05 0.2755157
v 0.3539551 -1.835823E-05 0.2755157
v -0.3511908 -1.835823E-05 0.296342
v 0.3511906 -1.835823E-05 0.296342
v -0.3434501 -1.835823E-05 0.3150673
v 0.3434498 -1.835823E-05 0.3150673
v -0.3311385 -1.835823E-05 0.3311385
v 0.3311383 1.859665E-05 0.3311385
v -0.3150673 -1.835823E-05 0.3434501
v 0.3150671 -1.835823E-05 0.3434501
v -0.296342 -1.835823E-05 0.3511908
v 0.2963418 1.859665E-05 0.3511908
v -0.2755157 -1.835823E-05 0.3539554
v 0.2755155 -1.835823E-05 0.3539554
v 0.7637359 1.859665E-05 0.9811777
v -0.7637361 1.859665E-05 0.9811777
v 0.9401515 1.859665E-05 1.207834
v -0.9401516 1.859665E-05 1.207834
v 0.9520943 -1.835823E-05 -0.8733966
v 1.129947 -1.835823E-05 -1.129947
v 1.172006 -1.835823E-05 -1.075135
v 0.9179244 -1.835823E-05 -0.9179244
v 0.3434498 -1.835823E-05 -0.3150671
v 0.3311383 -1.835823E-05 -0.3311383
v -0.8733968 -1.835823E-05 0.9520944
v -1.011293 1.859665E-05 1.198472
v -1.075136 -1.835823E-05 1.172006
v -0.8215338 1.859665E-05 0.9735843
v -0.3150673 -1.835823E-05 0.3434501
v -0.296342 -1.835823E-05 0.3511908
v 0.9179244 -1.835823E-05 -0.9179244
v 1.075135 -1.835823E-05 -1.172006
v 1.129947 -1.835823E-05 -1.129947
v 0.8733966 -1.835823E-05 -0.9520943
v 0.3311383 -1.835823E-05 -0.3311383
v 0.3150671 -1.835823E-05 -0.3434498
v -0.9179245 1.859665E-05 0.9179245
v -1.075136 -1.835823E-05 1.172006
v -1.129948 1.859665E-05 1.129948
v -0.8733968 -1.835823E-05 0.9520944
v -0.3311385 -1.835823E-05 0.3311385
v -0.3150673 -1.835823E-05 0.3434501
v 0.8733966 -1.835823E-05 -0.9520943
v 1.011293 -1.835823E-05 -1.198472
v 1.075135 -1.835823E-05 -1.172006
v 0.8215336 -1.835823E-05 -0.9735841
v 0.3150671 -1.835823E-05 -0.3434498
v 0.2963418 -1.835823E-05 -0.3511906
v -0.9520944 1.859665E-05 0.8733968
v -1.129948 1.859665E-05 1.129948
v -1.172006 1.859665E-05 1.075136
v -0.9179245 1.859665E-05 0.9179245
v -0.3434501 -1.835823E-05 0.3150673
v -0.3311385 -1.835823E-05 0.3311385
v 0.8215336 -1.835823E-05 -0.9735841
v 0.9401515 -1.835823E-05 -1.207834
v 1.011293 -1.835823E-05 -1.198472
v 0.7637359 -1.835823E-05 -0.9811774
v 0.2963418 -1.835823E-05 -0.3511906
v 0.2755155 -1.835823E-05 -0.3539551
v -0.9735843 -1.835823E-05 0.8215338
v -1.172006 1.859665E-05 1.075136
v -1.198472 -1.835823E-05 1.011293
v -0.9520944 1.859665E-05 0.8733968
v -0.3511908 -1.835823E-05 0.296342
v -0.3434501 -1.835823E-05 0.3150673
v 0.7637359 1.859665E-05 0.9811777
v 1.011293 1.859665E-05 1.198472
v 0.9401515 1.859665E-05 1.207834
v 0.8215336 1.859665E-05 0.9735843
v 0.2755155 -1.835823E-05 0.3539554
v 0.2963418 1.859665E-05 0.3511908
v -0.9811777 -1.835823E-05 0.7637361
v -1.198472 -1.835823E-05 1.011293
v -1.207834 -1.835823E-05 0.9401516
v -0.9735843 -1.835823E-05 0.8215338
v -0.3539554 -1.835823E-05 0.2755157
v -0.3511908 -1.835823E-05 0.296342
v 0.8215336 1.859665E-05 0.9735843
v 1.075135 -1.835823E-05 1.172006
v 1.011293 1.859665E-05 1.198472
v 0.8733966 -1.835823E-05 0.9520944
v 0.2963418 1.859665E-05 0.3511908
v 0.3150671 -1.835823E-05 0.3434501
v -0.7637361 -1.835823E-05 -0.9811774
v -1.011293 1.859665E-05 -1.198472
v -0.9401516 -1.835823E-05 -1.207834
v -0.8215338 1.859665E-05 -0.9735841
v -0.2755157 -1.835823E-05 -0.3539551
v -0.296342 -1.835823E-05 -0.3511906
v 0.8733966 -1.835823E-05 0.9520944
v 1.129947 1.859665E-05 1.129948
v 1.075135 -1.835823E-05 1.172006
v 0.9179244 1.859665E-05 0.9179245
v 0.3150671 -1.835823E-05 0.3434501
v 0.3311383 1.859665E-05 0.3311385
v -0.8215338 1.859665E-05 -0.9735841
v -1.075136 -1.835823E-05 -1.172006
v -1.011293 1.859665E-05 -1.198472
v -0.8733968 -1.835823E-05 -0.9520943
v -0.296342 -1.835823E-05 -0.3511906
v -0.3150673 -1.835823E-05 -0.3434498
v 0.9179244 1.859665E-05 0.9179245
v 1.172006 1.859665E-05 1.075136
v 1.129947 1.859665E-05 1.129948
v 0.9520943 1.859665E-05 0.8733968
v 0.3311383 1.859665E-05 0.3311385
v 0.3434498 -1.835823E-05 0.3150673
v -0.8733968 -1.835823E-05 -0.9520943
v -1.129948 -1.835823E-05 -1.129947
v -1.075136 -1.835823E-05 -1.172006
v -0.9179245 -1.835823E-05 -0.9179244
v -0.3150673 -1.835823E-05 -0.3434498
v -0.3311385 -1.835823E-05 -0.3311383
v 0.9520943 1.859665E-05 0.8733968
v 1.198472 -1.835823E-05 1.011293
v 1.172006 1.859665E-05 1.075136
v 0.9735841 -1.835823E-05 0.8215338
v 0.3434498 -1.835823E-05 0.3150673
v 0.3511906 -1.835823E-05 0.296342
v -0.9179245 -1.835823E-05 -0.9179244
v -1.172006 -1.835823E-05 -1.075135
v -1.129948 -1.835823E-05 -1.129947
v -0.9520944 -1.835823E-05 -0.8733966
v -0.3311385 -1.835823E-05 -0.3311383
v -0.3434501 -1.835823E-05 -0.3150671
v 0.9735841 -1.835823E-05 0.8215338
v 1.207834 -1.835823E-05 0.9401516
v 1.198472 -1.835823E-05 1.011293
v 0.9811774 -1.835823E-05 0.7637361
v 0.3511906 -1.835823E-05 0.296342
v 0.3539551 -1.835823E-05 0.2755157
v -0.9520944 -1.835823E-05 -0.8733966
v -1.198472 -1.835823E-05 -1.011293
v -1.172006 -1.835823E-05 -1.075135
v -0.9735843 -1.835823E-05 -0.8215336
v -0.3434501 -1.835823E-05 -0.3150671
v -0.3511908 -1.835823E-05 -0.2963418
v -0.9811777 -1.835823E-05 -0.7637359
v -1.207834 -1.835823E-05 0.9401516
v -1.207834 -1.835823E-05 -0.9401515
v -0.9811777 -1.835823E-05 0.7637361
v -0.3539554 -1.835823E-05 -0.2755155
v -0.3539554 -1.835823E-05 0.2755157
v -0.9735843 -1.835823E-05 -0.8215336
v -1.207834 -1.835823E-05 -0.9401515
v -1.198472 -1.835823E-05 -1.011293
v -0.9811777 -1.835823E-05 -0.7637359
v -0.3511908 -1.835823E-05 -0.2963418
v -0.3539554 -1.835823E-05 -0.2755155
vt 0 0.3499511
vt 1 0.01173021
vt 0 0.01173021
vt 1 0.3499511
vt 0 0.4975562
vt 1 0.4975562
vt 0 0.3499511
vt 1 0.01173021
vt 0 0.01173021
vt 1 0.3499511
vt 0 0.4975562
vt 1 0.4975562
vt 0 0.3499511
vt 1 0.01173021
vt 0 0.01173021
vt 1 0.3499511
vt 0 0.4975562
vt 1 0.4975562
vt 0 0.3499511
vt 1 0.01173021
vt 0 0.01173021
vt 1 0.3499511
vt 0 0.4975562
vt 1 0.4975562
vt 0 0.3499511
vt 1 0.01173021
vt 0 0.01173021
vt 1 0.3499511
vt 0 0.4975562
vt 1 0.4975562
vt 1 0.4975562
vt 1 0.4975562
vt 1 0.4975562
vt 1 0.4975562
vt 1 0.4975562
vt 1 0.4975562
vt 1 0.4975562
vt 1 0.4975562
vt 1 0.4975562
vt 1 0.4975562
vt 1 0.4975562
vt 1 0.4975562
vt 1 0.4975562
vt 1 0.4975562
vt 1 0.4975562
vt 1 0.4975562
vt 1 0.4975562
vt 1 0.4975562
vt 1 0.4975562
vt 1 0.4975562
vt 1 0.4975562
vt 1 0.4975562
vt 1 0.4975562
vt 1 0.4975562
vt 1 0.4975562
vt 0 0.4975562
vt 1 0.4975562
vt 1 0.3499511
vt 0 0.3499511
vt 1 0.01173021
vt 0 0.01173021
vt 0 0.3499511
vt 1 0.01173021
vt 0 0.01173021
vt 1 0.3499511
vt 0 0.4975562
vt 1 0.4975562
vt 0 0.3499511
vt 1 0.01173021
vt 0 0.01173021
vt 1 0.3499511
vt 0 0.4975562
vt 1 0.4975562
vt 0 0.3499511
vt 1 0.01173021
vt 0 0.01173021
vt 1 0.3499511
vt 0 0.4975562
vt 1 0.4975562
vt 0 0.3499511
vt 1 0.01173021
vt 0 0.01173021
vt 1 0.3499511
vt 0 0.4975562
vt 1 0.4975562
vt 0 0.3499511
vt 1 0.01173021
vt 0 0.01173021
vt 1 0.3499511
vt 0 0.4975562
vt 1 0.4975562
vt 0 0.3499511
vt 1 0.01173021
vt 0 0.01173021
vt 1 0.3499511
vt 0 0.4975562
vt 1 0.4975562
vt 0 0.3499511
vt 1 0.01173021
vt 0 0.01173021
vt 1 0.3499511
vt 0 0.4975562
vt 1 0.4975562
vt 0 0.3499511
vt 1 0.01173021
vt 0 0.01173021
vt 1 0.3499511
vt 0 0.4975562
vt 1 0.4975562
vt 0 0.3499511
vt 1 0.01173021
vt 0 0.01173021
vt 1 0.3499511
vt 0 0.4975562
vt 1 0.4975562
vt 0 0.3499511
vt 1 0.01173021
vt 0 0.01173021
vt 1 0.3499511
vt 0 0.4975562
vt 1 0.4975562
vt 0 0.3499511
vt 1 0.01173021
vt 0 0.01173021
vt 1 0.3499511
vt 0 0.4975562
vt 1 0.4975562
vt 0 0.3499511
vt 1 0.01173021
vt 0 0.01173021
vt 1 0.3499511
vt 0 0.4975562
vt 1 0.4975562
vt 0 0.3499511
vt 1 0.01173021
vt 0 0.01173021
vt 1 0.3499511
vt 0 0.4975562
vt 1 0.4975562
vt 0 0.3499511
vt 1 0.01173021
vt 0 0.01173021
vt 1 0.3499511
vt 0 0.4975562
vt 1 0.4975562
vt 0 0.3499511
vt 1 0.01173021
vt 0 0.01173021
vt 1 0.3499511
vt 0 0.4975562
vt 1 0.4975562
vt 0 0.3499511
vt 1 0.01173021
vt 0 0.01173021
vt 1 0.3499511
vt 0 0.4975562
vt 1 0.4975562
vt 0 0.3499511
vt 1 0.01173021
vt 0 0.01173021
vt 1 0.3499511
vt 0 0.4975562
vt 1 0.4975562
vt 0 0.3499511
vt 1 0.01173021
vt 0 0.01173021
vt 1 0.3499511
vt 0 0.4975562
vt 1 0.4975562
vt 0 0.3499511
vt 1 0.01173021
vt 0 0.01173021
vt 1 0.3499511
vt 0 0.4975562
vt 1 0.4975562
vt 0 0.3499511
vt 1 0.01173021
vt 0 0.01173021
vt 1 0.3499511
vt 0 0.4975562
vt 1 0.4975562
vt 0 0.3499511
vt 1 0.01173021
vt 0 0.01173021
vt 1 0.3499511
vt 0 0.4975562
vt 1 0.4975562
vt 0 0.3499511
vt 1 0.01173021
vt 0 0.01173021
vt 1 0.3499511
vt 0 0.4975562
vt 1 0.4975562
vn 0 1 0
vn 0 1 0
vn 0 1 0
vn 0 1 0
vn 0 1 0
vn 0 1 0
vn 0 1 0
vn 0 1 0
vn 0 1 0
vn 0 1 0
vn 0 1 0
vn 0 1 0
vn 0 1 0
vn 0 1 0
vn 0 1 0
vn 0 1 0
vn 0 1 0
vn 0 1 0
vn 0 1 0
vn 0 1 0
vn 0 1 0
vn 0 1 0
vn 0 1 0
vn 0 1 0
vn 0 1 0
vn 0 1 0
vn 0 1 0
vn 0 1 0
vn 0 1 0
vn 0 1 0
vn 0 1 0
vn 0 1 0
vn 0 1 0
vn 0 1 0
vn 0 1 0
vn 0 1 0
vn 0 1 0
vn 0 1 0
vn 0 1 0
vn 0 1 0
vn 0 1 0
vn 0 1 0
vn 0 1 0
vn 0 1 0
vn 0 1 0
vn 0 1 0
vn 0 1 0
vn 0 1 0
vn 0 1 0
vn 0 1 0
vn 0 1 0
vn 0 1 0
vn 0 1 0
vn 0 1 0
vn 0 1 0
vn 0 1 0
vn 0 1 0
vn 0 1 0
vn 0 1 0
vn 0 1 0
vn 0 1 0
vn 0 1 0
vn 0 1 0
vn 0 1 0
vn 0 1 0
vn 0 1 0
vn 0 1 0
vn 0 1 0
vn 0 1 0
vn 0 1 0
vn 0 1 0
vn 0 1 0
vn 0 1 0
vn 0 1 0
vn 0 1 0
vn 0 1 0
vn 0 1 0
vn 0 1 0
vn 0 1 0
vn 0 1 0
vn 0 1 0
vn 0 1 0
vn 0 1 0
vn 0 1 0
vn 0 1 0
vn 0 1 0
vn 0 1 0
vn 0 1 0
vn 0 1 0
vn 0 1 0
vn 0 1 0
vn 0 1 0
vn 0 1 0
vn 0 1 0
vn 0 1 0
vn 0 1 0
vn 0 1 0
vn 0 1 0
vn 0 1 0
vn 0 1 0
vn 0 1 0
vn 0 1 0
vn 0 1 0
vn 0 1 0
vn 0 1 0
vn 0 1 0
vn 0 1 0
vn 0 1 0
vn 0 1 0
vn 0 1 0
vn 0 1 0
vn 0 1 0
vn 0 1 0
vn 0 1 0
vn 0 1 0
vn 0 1 0
vn 0 1 0
vn 0 1 0
vn 0 1 0
vn 0 1 0
vn 0 1 0
vn 0 1 0
vn 0 1 0
vn 0 1 0
vn 0 1 0
vn 0 1 0
vn 0 1 0
vn 0 1 0
vn 0 1 0
vn 0 1 0
vn 0 1 0
vn 0 1 0
vn 0 1 0
vn 0 1 0
vn 0 1 0
vn 0 1 0
vn 0 1 0
vn 0 1 0
vn 0 1 0
vn 0 1 0
vn 0 1 0
vn 0 1 0
vn 0 1 0
vn 0 1 0
vn 0 1 0
vn 0 1 0
vn 0 1 0
vn 0 1 0
vn 0 1 0
vn 0 1 0
vn 0 1 0
vn 0 1 0
vn 0 1 0
vn 0 1 0
vn 0 1 0
vn 0 1 0
vn 0 1 0
vn 0 1 0
vn 0 1 0
vn 0 1 0
vn 0 1 0
vn 0 1 0
vn 0 1 0
vn 0 1 0
vn 0 1 0
vn 0 1 0
vn 0 1 0
vn 0 1 0
vn 0 1 0
vn 0 1 0
vn 0 1 0
vn 0 1 0
vn 0 1 0
vn 0 1 0
vn 0 1 0
vn 0 1 0
vn 0 1 0
vn 0 1 0
vn 0 1 0
vn 0 1 0
vn 0 1 0
vn 0 1 0
vn 0 1 0
vn 0 1 0
vn 0 1 0
vn 0 1 0
vn 0 1 0
vn 0 1 0
vn 0 1 0
vn 0 1 0
vn 0 1 0
vn 0 1 0
vn 0 1 0
g Ombra_TesseraMemory_0
f 3/3/3 2/2/2 1/1/1
f 2/2/2 4/4/4 1/1/1
f 1/1/1 4/4/4 5/5/5
f 4/4/4 6/6/6 5/5/5
f 9/9/9 8/8/8 7/7/7
f 8/8/8 10/10/10 7/7/7
f 7/7/7 10/10/10 11/11/11
f 10/10/10 12/12/12 11/11/11
f 15/15/15 14/14/14 13/13/13
f 14/14/14 16/16/16 13/13/13
f 13/13/13 16/16/16 17/17/17
f 16/16/16 18/18/18 17/17/17
f 21/21/21 20/20/20 19/19/19
f 20/20/20 22/22/22 19/19/19
f 19/19/19 22/22/22 23/23/23
f 22/22/22 24/24/24 23/23/23
f 27/27/27 26/26/26 25/25/25
f 26/26/26 28/28/28 25/25/25
f 25/25/25 28/28/28 29/29/29
f 28/28/28 30/30/30 29/29/29
f 32/32/32 30/30/30 31/31/31
f 31/31/31 33/33/33 32/32/32
f 31/31/31 34/34/34 33/33/33
f 34/34/34 35/35/35 33/33/33
f 34/34/34 36/36/36 35/35/35
f 36/36/36 37/37/37 35/35/35
f 36/36/36 38/38/38 37/37/37
f 38/38/38 39/39/39 37/37/37
f 38/38/38 40/40/40 39/39/39
f 40/40/40 41/41/41 39/39/39
f 40/40/40 42/42/42 41/41/41
f 42/42/42 43/43/43 41/41/41
f 42/42/42 44/44/44 43/43/43
f 44/44/44 45/45/45 43/43/43
f 44/44/44 46/46/46 45/45/45
f 46/46/46 47/47/47 45/45/45
f 46/46/46 48/48/48 47/47/47
f 48/48/48 49/49/49 47/47/47
f 48/48/48 50/50/50 49/49/49
f 50/50/50 51/51/51 49/49/49
f 50/50/50 52/52/52 51/51/51
f 52/52/52 53/53/53 51/51/51
f 52/52/52 54/54/54 53/53/53
f 54/54/54 55/55/55 53/53/53
f 54/54/54 56/56/56 55/55/55
f 56/56/56 57/57/57 55/55/55
f 58/58/58 57/57/57 56/56/56
f 59/59/59 58/58/58 56/56/56
f 60/60/60 58/58/58 59/59/59
f 61/61/61 60/60/60 59/59/59
f 64/64/64 63/63/63 62/62/62
f 63/63/63 65/65/65 62/62/62
f 62/62/62 65/65/65 66/66/66
f 65/65/65 67/67/67 66/66/66
f 70/70/70 69/69/69 68/68/68
f 69/69/69 71/71/71 68/68/68
f 68/68/68 71/71/71 72/72/72
f 71/71/71 73/73/73 72/72/72
f 76/76/76 75/75/75 74/74/74
f 75/75/75 77/77/77 74/74/74
f 74/74/74 77/77/77 78/78/78
f 77/77/77 79/79/79 78/78/78
f 82/82/82 81/81/81 80/80/80
f 81/81/81 83/83/83 80/80/80
f 80/80/80 83/83/83 84/84/84
f 83/83/83 85/85/85 84/84/84
f 88/88/88 87/87/87 86/86/86
f 87/87/87 89/89/89 86/86/86
f 86/86/86 89/89/89 90/90/90
f 89/89/89 91/91/91 90/90/90
f 94/94/94 93/93/93 92/92/92
f 93/93/93 95/95/95 92/92/92
f 92/92/92 95/95/95 96/96/96
f 95/95/95 97/97/97 96/96/96
f 100/100/100 99/99/99 98/98/98
f 99/99/99 101/101/101 98/98/98
f 98/98/98 101/101/101 102/102/102
f 101/101/101 103/103/103 102/102/102
f 106/106/106 105/105/105 104/104/104
f 105/105/105 107/107/107 104/104/104
f 104/104/104 107/107/107 108/108/108
f 107/107/107 109/109/109 108/108/108
f 112/112/112 111/111/111 110/110/110
f 111/111/111 113/113/113 110/110/110
f 110/110/110 113/113/113 114/114/114
f 113/113/113 115/115/115 114/114/114
f 118/118/118 117/117/117 116/116/116
f 117/117/117 119/119/119 116/116/116
f 116/116/116 119/119/119 120/120/120
f 119/119/119 121/121/121 120/120/120
f 124/124/124 123/123/123 122/122/122
f 123/123/123 125/125/125 122/122/122
f 122/122/122 125/125/125 126/126/126
f 125/125/125 127/127/127 126/126/126
f 130/130/130 129/129/129 128/128/128
f 129/129/129 131/131/131 128/128/128
f 128/128/128 131/131/131 132/132/132
f 131/131/131 133/133/133 132/132/132
f 136/136/136 135/135/135 134/134/134
f 135/135/135 137/137/137 134/134/134
f 134/134/134 137/137/137 138/138/138
f 137/137/137 139/139/139 138/138/138
f 142/142/142 141/141/141 140/140/140
f 141/141/141 143/143/143 140/140/140
f 140/140/140 143/143/143 144/144/144
f 143/143/143 145/145/145 144/144/144
f 148/148/148 147/147/147 146/146/146
f 147/147/147 149/149/149 146/146/146
f 146/146/146 149/149/149 150/150/150
f 149/149/149 151/151/151 150/150/150
f 154/154/154 153/153/153 152/152/152
f 153/153/153 155/155/155 152/152/152
f 152/152/152 155/155/155 156/156/156
f 155/155/155 157/157/157 156/156/156
f 160/160/160 159/159/159 158/158/158
f 159/159/159 161/161/161 158/158/158
f 158/158/158 161/161/161 162/162/162
f 161/161/161 163/163/163 162/162/162
f 166/166/166 165/165/165 164/164/164
f 165/165/165 167/167/167 164/164/164
f 164/164/164 167/167/167 168/168/168
f 167/167/167 169/169/169 168/168/168
f 172/172/172 171/171/171 170/170/170
f 171/171/171 173/173/173 170/170/170
f 170/170/170 173/173/173 174/174/174
f 173/173/173 175/175/175 174/174/174
f 178/178/178 177/177/177 176/176/176
f 177/177/177 179/179/179 176/176/176
f 176/176/176 179/179/179 180/180/180
f 179/179/179 181/181/181 180/180/180
f 184/184/184 183/183/183 182/182/182
f 183/183/183 185/185/185 182/182/182
f 182/182/182 185/185/185 186/186/186
f 185/185/185 187/187/187 186/186/186
f 190/190/190 189/189/189 188/188/188
f 189/189/189 191/191/191 188/188/188
f 188/188/188 191/191/191 192/192/192
f 191/191/191 193/193/193 192/192/192
