g OmbraPianoforte
v 4.464646 -1.211981 -10.18268
v 4.493094 -1.211981 -2.86765
v 2.08462 -1.204513 1.045362
v 2.165342 -1.204513 -7.645124
v -10.8222 -1.211625 -10.18268
v 4.464646 -1.211981 -10.18268
v 2.165342 -1.204513 -7.645124
v -13.12151 -1.204513 -7.645124
vt -4.46855 -10.18252
vt -4.497003 -2.868097
vt -2.088498 1.045545
vt -2.168877 -7.645271
vt 10.82254 -10.18608
vt -4.464282 -10.18608
vt -2.16532 -7.648829
vt 13.1215 -7.648829
vn 0.003083633 0.9999953 0
vn 0.003083633 0.9999953 0
vn 0.003083633 0.9999953 0
vn 0.003083633 0.9999953 0
vn -0.0008500118 0.9999979 -0.00185932
vn 0.003083633 0.9999953 0
vn 0.003083633 0.9999953 0
vn -0.0008500118 0.9999979 -0.00185932
g OmbraPianoforte_0
f 3/3/3 2/2/2 1/1/1
f 4/4/4 3/3/3 1/1/1
f 7/7/7 6/6/6 5/5/5
f 8/8/8 7/7/7 5/5/5
