g OmbraPenna
v -6.925236 -7.113938 -0.0002098083
v -8.390471 -6.672429 4.196167E-05
v -7.506194 -8.105697 4.196167E-05
v -0.9328995 -1.120595 4.196167E-05
v -1.18109 -0.8945546 -0.0002098083
v -1.007659 -0.6174159 4.196167E-05
v -1.18688 -0.4273705 4.196167E-05
v -0.1170893 0.02546501 4.196167E-05
v -7.535394 -6.244262 -0.0002098083
v -2.300468 -0.5046473 -0.0002098083
v -2.417517 -0.3707347 4.196167E-05
v -1.547337 0.0576849 4.196167E-05
v -1.664384 0.2734051 4.196167E-05
v -0.4065619 0.09166622 -0.0002098083
v -0.9439745 0.6504745 -0.0002098083
v -1.000107 0.9195585 4.196167E-05
v -0.156105 1.134523 4.196167E-05
v -0.3959904 0.8533573 -0.0002098083
vt 6.925466 -7.113923
vt 8.390471 -6.672407
vt 7.50593 -8.105697
vt 0.9325342 -1.120488
vt 1.181232 -0.894444
vt 1.007546 -0.6175528
vt 1.18677 -0.4272532
vt 0.1169634 0.02533817
vt 7.535633 -6.243981
vt 1.757669 -0.1035423
vt 2.417678 -0.3708682
vt 1.511992 -0.03104687
vt 1.664534 0.2735329
vt 0.4608126 0.06208897
vt 0.9441128 0.6506081
vt 0.9999952 0.919445
vt 0.1562319 1.134413
vt 0.3958683 0.8529911
vn -0.0002161264 0.0002161264 -0.9999999
vn -0.0002161264 0.0002161264 -0.9999999
vn -0.0002161264 0.0002161264 -0.9999999
vn -0.0002161264 0.0002161264 -0.9999999
vn -0.0002161264 0.0002161264 -0.9999999
vn -0.0002161264 0.0002161264 -0.9999999
vn -0.0002161264 0.0002161264 -0.9999999
vn -0.0002161264 0.0002161264 -0.9999999
vn -0.0002161264 0.0002161264 -0.9999999
vn 0.5555872 -0.7457304 -0.3677079
vn -0.0002161264 0.0002161264 -0.9999999
vn -0.0002161264 0.0002161264 -0.9999999
vn -0.0002161264 0.0002161264 -0.9999999
vn -0.0002161264 0.0002161264 -0.9999999
vn -0.0002161264 0.0002161264 -0.9999999
vn -0.0002161264 0.0002161264 -0.9999999
vn -0.0002161264 0.0002161264 -0.9999999
vn -0.0002161264 0.0002161264 -0.9999999
g OmbraPenna_0
f 3/3/3 2/2/2 1/1/1
f 3/3/3 1/1/1 4/4/4
f 5/5/5 4/4/4 1/1/1
f 4/4/4 5/5/5 6/6/6
f 7/7/7 6/6/6 5/5/5
f 6/6/6 7/7/7 8/8/8
f 9/9/9 1/1/1 2/2/2
f 9/9/9 2/2/2 10/10/10
f 9/9/9 10/10/10 1/1/1
f 5/5/5 1/1/1 10/10/10
f 11/11/11 10/10/10 2/2/2
f 10/10/10 12/12/12 5/5/5
f 10/10/10 11/11/11 12/12/12
f 7/7/7 5/5/5 12/12/12
f 13/13/13 12/12/12 11/11/11
f 14/14/14 8/8/8 7/7/7
f 7/7/7 12/12/12 14/14/14
f 12/12/12 13/13/13 15/15/15
f 12/12/12 15/15/15 14/14/14
f 16/16/16 15/15/15 13/13/13
f 16/16/16 17/17/17 15/15/15
f 17/17/17 8/8/8 18/18/18
f 14/14/14 18/18/18 8/8/8
f 14/14/14 15/15/15 18/18/18
f 18/18/18 15/15/15 17/17/17
