g OmbraAngolo
v 0.9551737 0.02987242 -0.02987218
v 0.9551737 1.94022 -0.02987218
v -0.955174 1.94022 -0.02987218
v -0.955174 0.02987242 -0.02987218
v -0.955174 0.02987242 -1.94022
v 0.9551737 0.02987242 -1.94022
v 0.9551737 0.02987242 -0.02987218
v -0.955174 0.02987242 -0.02987218
vt 0.3753666 0.25
vt 0.6253666 0.25
vt 0.6253666 0.5
vt 0.3753666 0.5
vt 0.3753666 0.75
vt 0.6253666 0.75
vt 0.6253666 1
vt 0.3753666 1
vn 0 0 -1
vn 0 0 -1
vn 0 0 -1
vn 0 0 -1
vn 0 1 0
vn 0 1 0
vn 0 1 0
vn 0 1 0
g OmbraAngolo_0
f 3/3/3 2/2/2 1/1/1
f 4/4/4 3/3/3 1/1/1
f 7/7/7 6/6/6 5/5/5
f 8/8/8 7/7/7 5/5/5
