g OmbraQuindici
v -2.877864 0.5775352 -7.176399E-05
v -3.105503 0.3946915 9.775162E-06
v 1.04167 0.3869543 9.775162E-06
v -3.382496 0.5934169 9.775162E-06
v 0.9222719 0.6045749 -7.176399E-05
v 1.347251 0.5856798 9.775162E-06
v 1.105034 0.7178648 -7.176399E-05
v 1.658452 0.90079 9.775162E-06
v -3.093123 0.7032046 -7.176399E-05
v 1.287796 0.8640583 -7.176399E-05
v -3.679037 0.90079 9.775162E-06
v -3.308382 0.8640583 -7.176399E-05
vn -3.257015E-05 -0.0002239029 -0.9999999
vn 0.0001677994 -0.0001677994 -1
vn 0.0001116959 -0.0003521394 -0.9999999
vn -0.0002169102 -0.0002639768 -0.9999999
vn 4.757766E-05 -0.0002158881 -0.9999999
vn 0.0002239029 -0.0002719916 -0.9999999
vn 0.0001116959 -0.000143755 -1
vn -0.0002088954 0.00169163 -0.9999985
vn -0.0001047032 -0.0001357403 -1
vn -0.0002169102 -0.0001277255 -0.9999999
vn 0.0001677994 0.001651556 -0.9999986
vn 0.0001918437 -0.0001357403 -0.9999999
g OmbraQuindici_0
f 3/3/3 2/2/2 1/1/1
f 2/2/2 4/4/4 1/1/1
f 5/5/5 3/3/3 1/1/1
f 3/3/3 5/5/5 6/6/6
f 5/5/5 7/7/7 6/6/6
f 5/5/5 1/1/1 7/7/7
f 6/6/6 7/7/7 8/8/8
f 4/4/4 9/9/9 1/1/1
f 1/1/1 9/9/9 7/7/7
f 7/7/7 10/10/10 8/8/8
f 7/7/7 9/9/9 10/10/10
f 11/11/11 8/8/8 10/10/10
f 4/4/4 11/11/11 12/12/12
f 9/9/9 4/4/4 12/12/12
f 12/12/12 11/11/11 10/10/10
f 9/9/9 12/12/12 10/10/10
