g OmbraTelefono
v 5.498002 -5.197525E-05 -5.519862
v 5.932484 -5.197525E-05 5.065157
v 5.563968 -5.197525E-05 5.51995
v 6.059578 -5.197525E-05 -5.494133
v 6.037138 -5.197525E-05 -5.726463
v 7.058731 -5.197525E-05 -5.448093
v 6.919255 -5.197525E-05 2.491929
v 6.749409 -5.197525E-05 3.482763
v 6.315121 -5.197525E-05 4.527569
v 6.936085 -5.197525E-05 -6.070798
v 5.929195 -5.197525E-05 -5.862649
v 6.742639 -5.197525E-05 -6.508761
v 5.823767 -5.197525E-05 -5.935385
v 6.482066 -5.197525E-05 -6.774751
v 5.680036 -5.197525E-05 -5.992839
v 5.474595 -5.197525E-05 -6.049712
v -5.497898 -5.197525E-05 -5.563968
v 6.081244 -5.197525E-05 -7.034743
v -5.190704 -5.197525E-05 -5.910237
v 5.425847 -5.197525E-05 -7.157582
v -4.416724 -5.197525E-05 -6.531201
v -2.42577 -5.197525E-05 -7.147329
v -3.40461 -5.197525E-05 -6.98406
vt 1 1
vt 0 0
vt 0 0
vt 1 0.9467515
vt 1 0.972643
vt 1 0.8524671
vt 0 0
vt 0 0
vt 0 0
vt 1 0.9272107
vt 1 0.9814364
vt 1 0.946263
vt 1 1
vt 1 1
vt 0.9770397 1
vt 0.9521252 1
vt 0 1
vt 0.9267222 1
vt 0 1
vt 0.8514901 1
vt 0.02002931 1
vt 0.14851 1
vt 0.07474354 1
vn 0 1 0
vn 0 1 0
vn 0 1 0
vn 0 1 0
vn 0 1 0
vn 0 1 0
vn 0 1 0
vn 0 1 0
vn 0 1 0
vn 0 1 0
vn 0 1 0
vn 0 1 0
vn 0 1 0
vn 0 1 0
vn 0 1 0
vn 0 1 0
vn 0 1 0
vn 0 1 0
vn 0 1 0
vn 0 1 0
vn 0 1 0
vn 0 1 0
vn 0 1 0
g OmbraTelefono_0
f 3/3/3 2/2/2 1/1/1
f 2/2/2 4/4/4 1/1/1
f 5/5/5 1/1/1 4/4/4
f 6/6/6 4/4/4 2/2/2
f 5/5/5 4/4/4 6/6/6
f 2/2/2 7/7/7 6/6/6
f 2/2/2 8/8/8 7/7/7
f 2/2/2 9/9/9 8/8/8
f 10/10/10 5/5/5 6/6/6
f 11/11/11 5/5/5 10/10/10
f 11/11/11 1/1/1 5/5/5
f 12/12/12 11/11/11 10/10/10
f 13/13/13 11/11/11 12/12/12
f 13/13/13 1/1/1 11/11/11
f 14/14/14 13/13/13 12/12/12
f 15/15/15 13/13/13 14/14/14
f 15/15/15 1/1/1 13/13/13
f 16/16/16 1/1/1 15/15/15
f 17/17/17 1/1/1 16/16/16
f 18/18/18 15/15/15 14/14/14
f 16/16/16 15/15/15 18/18/18
f 19/19/19 17/17/17 16/16/16
f 20/20/20 16/16/16 18/18/18
f 21/21/21 19/19/19 16/16/16
f 16/16/16 20/20/20 22/22/22
f 23/23/23 21/21/21 16/16/16
f 22/22/22 23/23/23 16/16/16
