g OmbraSpugna
v 0.4694309 9.596348E-06 -0.5914276
v 0.5303562 9.596348E-06 -0.01246172
v 0.440633 9.596348E-06 -0.01231569
v 0.4510598 9.596348E-06 0.5667378
v 0.5650539 9.596348E-06 -0.6787851
v 0.453338 9.596348E-06 -0.804345
v 0.3766994 9.596348E-06 -0.7005733
v 0.001363158 9.596348E-06 -0.8600131
v 0.001450777 9.596348E-06 -0.7489398
v -0.3636923 9.596348E-06 -0.6921033
v 0.5429151 9.596348E-06 0.653774
v 0.6200794 3.880262E-05 -0.01263696
v 0.6606476 3.880262E-05 -0.7661133
v 0.5299765 3.880262E-05 -0.9081166
v 0.6347705 3.880262E-05 0.7408102
v 0.001304746 3.880262E-05 -0.9710864
v 0.499806 3.880262E-05 0.8829303
v 0.4275192 9.596348E-06 0.7794507
v 0.3552616 9.596348E-06 0.6759711
v -0.003339171 3.880262E-05 0.9429795
v -0.4384325 9.596348E-06 -0.7946191
v -0.5131434 3.880262E-05 -0.8971057
v -0.6463262 3.880262E-05 -0.7517728
v -0.002579749 9.596348E-06 0.8325487
v -0.001849592 9.596348E-06 0.722147
v -0.3555145 9.596348E-06 0.6749489
v -0.5522805 9.596348E-06 -0.6660801
v -0.4582638 9.596348E-06 -0.5803875
v -0.6242167 3.880262E-05 -0.01547003
v -0.4285606 9.596348E-06 0.7782533
v -0.5016068 3.880262E-05 0.8815868
v -0.6368633 3.880262E-05 0.7389409
v -0.5334129 9.596348E-06 -0.01500273
v -0.4425798 9.596348E-06 -0.01450616
v -0.451517 9.596348E-06 0.5653359
v -0.5441902 9.596348E-06 0.6521384
vt 0 0
vt 0 0
vt 0 0
vt 0 0
vt 0 0
vt 0 0
vt 0 0
vt 0 0
vt 0 0
vt 0 0
vt 0 0
vt 0 0
vt 0 0
vt 0 0
vt 0 0
vt 0 0
vt 0 0
vt 0 0
vt 0 0
vt 0 0
vt 0 0
vt 0 0
vt 0 0
vt 0 0
vt 0 0
vt 0 0
vt 0 0
vt 0 0
vt 0 0
vt 0 0
vt 0 0
vt 0 0
vt 0 0
vt 0 0
vt 0 0
vt 0 0
vn 0.0005121168 0.9999999 0
vn 0.0005121168 0.9999999 0
vn 0.0005121168 0.9999999 0
vn 0.0005121168 0.9999999 0
vn 0.0005121168 0.9999999 0
vn 0.0005121168 0.9999999 0
vn 0.0005121168 0.9999999 0
vn 0.0005121168 0.9999999 0
vn 0.0005121168 0.9999999 0
vn 0.0005121168 0.9999999 0
vn 0.0005121168 0.9999999 0
vn 0.0005121168 0.9999999 0
vn 0.0005121168 0.9999999 0
vn 0.0005121168 0.9999999 0
vn 0.0005121168 0.9999999 0
vn 0.0005121168 0.9999999 0
vn 0.0005121168 0.9999999 0
vn 0.0005121168 0.9999999 0
vn 0.0005121168 0.9999999 0
vn 0.0005121168 0.9999999 0
vn 0.0005121168 0.9999999 0
vn 0.0005121168 0.9999999 0
vn 0.0005121168 0.9999999 0
vn 0.0005121168 0.9999999 0
vn 0.0005121168 0.9999999 0
vn 0.0005121168 0.9999999 0
vn 0.0005121168 0.9999999 0
vn 0.0005121168 0.9999999 0
vn 0.0005121168 0.9999999 0
vn 0.0005121168 0.9999999 0
vn 0.0005121168 0.9999999 0
vn 0.0005121168 0.9999999 0
vn 0.0005121168 0.9999999 0
vn 0.0005121168 0.9999999 0
vn 0.0005121168 0.9999999 0
vn 0.0005121168 0.9999999 0
g OmbraSpugna_0
f 3/3/3 2/2/2 1/1/1
f 2/2/2 3/3/3 4/4/4
f 2/2/2 5/5/5 1/1/1
f 5/5/5 6/6/6 1/1/1
f 6/6/6 7/7/7 1/1/1
f 6/6/6 8/8/8 7/7/7
f 8/8/8 9/9/9 7/7/7
f 9/9/9 8/8/8 10/10/10
f 11/11/11 2/2/2 4/4/4
f 2/2/2 12/12/12 5/5/5
f 12/12/12 2/2/2 11/11/11
f 12/12/12 13/13/13 5/5/5
f 13/13/13 14/14/14 5/5/5
f 14/14/14 6/6/6 5/5/5
f 15/15/15 12/12/12 11/11/11
f 14/14/14 16/16/16 6/6/6
f 16/16/16 8/8/8 6/6/6
f 17/17/17 15/15/15 11/11/11
f 18/18/18 11/11/11 4/4/4
f 18/18/18 17/17/17 11/11/11
f 19/19/19 18/18/18 4/4/4
f 20/20/20 17/17/17 18/18/18
f 8/8/8 16/16/16 21/21/21
f 16/16/16 22/22/22 21/21/21
f 8/8/8 21/21/21 10/10/10
f 22/22/22 23/23/23 21/21/21
f 24/24/24 18/18/18 19/19/19
f 24/24/24 20/20/20 18/18/18
f 25/25/25 24/24/24 19/19/19
f 24/24/24 25/25/25 26/26/26
f 21/21/21 27/27/27 10/10/10
f 23/23/23 27/27/27 21/21/21
f 27/27/27 28/28/28 10/10/10
f 23/23/23 29/29/29 27/27/27
f 20/20/20 24/24/24 30/30/30
f 30/30/30 24/24/24 26/26/26
f 31/31/31 20/20/20 30/30/30
f 32/32/32 31/31/31 30/30/30
f 27/27/27 33/33/33 28/28/28
f 29/29/29 33/33/33 27/27/27
f 33/33/33 34/34/34 28/28/28
f 34/34/34 33/33/33 35/35/35
f 36/36/36 30/30/30 26/26/26
f 36/36/36 32/32/32 30/30/30
f 29/29/29 32/32/32 36/36/36
f 35/35/35 36/36/36 26/26/26
f 33/33/33 29/29/29 36/36/36
f 33/33/33 36/36/36 35/35/35
