g PufferBall_Tentacolo
v -0.05303325 0.8343098 -0.05303301
v -2.466142E-07 0.8343098 -0.07500001
v -2.489819E-07 0.8760584 -0.05195782
v -0.03673995 0.8760584 -0.03673975
v -0.07500024 0.8343098 -2.770074E-08
v 0.03673944 0.8760584 -0.03673975
v 0.05303273 0.8343098 -0.05303301
v -0.05195801 0.8760584 -4.924465E-08
v -0.05303325 0.8343098 0.05303297
v 0.05195754 0.8760584 -4.635391E-08
v 0.07499976 0.8343098 -2.352802E-08
v -0.03673995 0.8760584 0.03673965
v -2.531709E-07 0.8343098 0.075
v 0.03673944 0.8760584 0.03673965
v 0.05303273 0.8343098 0.05303297
v -2.535242E-07 0.8760584 0.05195774
v -2.486608E-07 0.9148631 -0.04000005
v 0.02828402 0.914863 -0.02828432
v -0.02828452 0.914863 -0.02828432
v 0.03999975 0.914863 -5.054872E-08
v -0.04000023 0.914863 -5.277418E-08
v -0.02828452 0.914863 0.02828421
v -2.521577E-07 0.914863 0.03999994
v 0.02828402 0.914863 0.02828421
v -2.483698E-07 0.9802285 -0.04000007
v 0.02828402 0.9802285 -0.02828433
v -0.02828452 0.9802285 -0.02828433
v -0.04000023 0.9802285 -6.59479E-08
v 0.03999975 0.9802285 -6.372245E-08
v -0.02828452 0.9802285 0.0282842
v -2.518667E-07 0.9802285 0.03999993
v 0.02828402 0.9802285 0.0282842
v -2.483407E-07 1.048068 -0.04000008
v 0.02828402 1.048068 -0.02828433
v -0.02828452 1.048068 -0.02828433
v -0.04000023 1.048068 -6.99449E-08
v 0.03999975 1.048068 -6.771945E-08
v -0.02828452 1.048068 0.02828419
v -2.518376E-07 1.048068 0.03999992
v 0.02828402 1.048068 0.02828419
v 0.02828402 1.1 -0.02828434
v -2.483116E-07 1.1 -0.04000008
v -0.02828452 1.1 -0.02828434
v -0.04000023 1.1 -7.324659E-08
v 0.03999975 1.1 -7.102113E-08
v -0.02828452 1.1 0.02828419
v 0.02828402 1.1 0.02828419
v -2.518085E-07 1.1 0.03999992
v -2.482505E-07 1.125 -0.03640009
v -0.02573894 1.125 -0.02573876
v -0.03640024 1.125 -7.745869E-08
v 0.02573843 1.125 -0.02573876
v -0.02573894 1.125 0.02573861
v -2.514327E-07 1.125 0.03639992
v 0.03639976 1.125 -7.543352E-08
v 0.02573843 1.125 0.02573861
v -0.01600024 1.15 -8.245969E-08
v -0.01131396 1.15 -0.01131379
v -0.01131396 1.15 0.01131362
v -2.48278E-07 1.15 -0.01600009
v 0.01131346 1.15 -0.01131379
v 0.01599975 1.15 -8.156951E-08
v 0.01131346 1.15 0.01131362
v -2.496768E-07 1.15 0.01599991
vn -0.6190766 0.4832063 -0.6190766
vn 0 0.4832105 -0.8755043
vn 0 0.4002232 -0.9164177
vn -0.6480051 0.4002232 -0.6480051
vn -0.8755043 0.4832105 0
vn 0.6480051 0.4002232 -0.6480051
vn 0.6190766 0.4832063 -0.6190766
vn -0.9164177 0.4002232 0
vn -0.6190766 0.4832063 0.6190766
vn 0.9164177 0.4002232 0
vn 0.8755043 0.4832105 0
vn -0.6480051 0.4002232 0.6480051
vn 0 0.4832105 0.8755043
vn 0.6480051 0.4002232 0.6480051
vn 0.6190766 0.4832063 0.6190766
vn 0 0.4002232 0.9164177
vn 0 0.1545174 -0.9879901
vn 0.6986143 0.1545185 -0.6986143
vn -0.6986143 0.1545185 -0.6986143
vn 0.9879901 0.1545174 0
vn -0.9879901 0.1545174 0
vn -0.6986143 0.1545185 0.6986143
vn 0 0.1545174 0.9879901
vn 0.6986143 0.1545185 0.6986143
vn 0 0 -1
vn 0.7071068 0 -0.7071068
vn -0.7071068 0 -0.7071068
vn -1 0 0
vn 1 0 0
vn -0.7071068 0 0.7071068
vn 0 0 1
vn 0.7071068 0 0.7071068
vn 0 0 -1
vn 0.7071068 0 -0.7071068
vn -0.7071068 0 -0.7071068
vn -1 0 0
vn 1 0 0
vn -0.7071068 0 0.7071068
vn 0 0 1
vn 0.7071068 0 0.7071068
vn 0.7053611 0.07022481 -0.7053611
vn 0 0.07022332 -0.9975313
vn -0.7053611 0.07022481 -0.7053611
vn -0.9975313 0.07022332 0
vn 0.9975313 0.07022332 0
vn -0.7053611 0.07022481 0.7053611
vn 0.7053611 0.07022481 0.7053611
vn 0 0.07022332 0.9975313
vn 0 0.379784 -0.9250751
vn -0.6541264 0.3797858 -0.6541264
vn -0.9250751 0.379784 0
vn 0.6541264 0.3797858 -0.6541264
vn -0.6541264 0.3797858 0.6541264
vn 0 0.379784 0.9250751
vn 0.9250751 0.379784 0
vn 0.6541264 0.3797858 0.6541264
vn -0.5079641 0.8613782 0
vn -0.359183 0.8613799 -0.359183
vn -0.359183 0.8613799 0.359183
vn 0 0.8613782 -0.5079641
vn 0.359183 0.8613799 -0.359183
vn 0.5079641 0.8613782 0
vn 0.359183 0.8613799 0.359183
vn 0 0.8613782 0.5079641
g PufferBall_Tentacolo_0
f 3/3/3 2/2/2 1/1/1
f 4/4/4 3/3/3 1/1/1
f 4/4/4 1/1/1 5/5/5
f 3/3/3 6/6/6 2/2/2
f 6/6/6 7/7/7 2/2/2
f 8/8/8 4/4/4 5/5/5
f 8/8/8 5/5/5 9/9/9
f 6/6/6 10/10/10 7/7/7
f 10/10/10 11/11/11 7/7/7
f 12/12/12 8/8/8 9/9/9
f 12/12/12 9/9/9 13/13/13
f 10/10/10 14/14/14 11/11/11
f 14/14/14 15/15/15 11/11/11
f 16/16/16 13/13/13 15/15/15
f 16/16/16 12/12/12 13/13/13
f 14/14/14 16/16/16 15/15/15
f 17/17/17 3/3/3 4/4/4
f 18/18/18 6/6/6 3/3/3
f 17/17/17 18/18/18 3/3/3
f 19/19/19 4/4/4 8/8/8
f 19/19/19 17/17/17 4/4/4
f 20/20/20 10/10/10 6/6/6
f 18/18/18 20/20/20 6/6/6
f 21/21/21 8/8/8 12/12/12
f 21/21/21 19/19/19 8/8/8
f 22/22/22 12/12/12 16/16/16
f 22/22/22 21/21/21 12/12/12
f 23/23/23 16/16/16 14/14/14
f 23/23/23 22/22/22 16/16/16
f 24/24/24 14/14/14 10/10/10
f 20/20/20 24/24/24 10/10/10
f 24/24/24 23/23/23 14/14/14
f 25/25/25 17/17/17 19/19/19
f 26/26/26 18/18/18 17/17/17
f 25/25/25 26/26/26 17/17/17
f 27/27/27 19/19/19 21/21/21
f 27/27/27 25/25/25 19/19/19
f 28/28/28 21/21/21 22/22/22
f 28/28/28 27/27/27 21/21/21
f 29/29/29 20/20/20 18/18/18
f 26/26/26 29/29/29 18/18/18
f 30/30/30 22/22/22 23/23/23
f 30/30/30 28/28/28 22/22/22
f 31/31/31 23/23/23 24/24/24
f 31/31/31 30/30/30 23/23/23
f 32/32/32 24/24/24 20/20/20
f 29/29/29 32/32/32 20/20/20
f 32/32/32 31/31/31 24/24/24
f 33/33/33 25/25/25 27/27/27
f 34/34/34 26/26/26 25/25/25
f 33/33/33 34/34/34 25/25/25
f 35/35/35 27/27/27 28/28/28
f 35/35/35 33/33/33 27/27/27
f 36/36/36 28/28/28 30/30/30
f 36/36/36 35/35/35 28/28/28
f 37/37/37 29/29/29 26/26/26
f 34/34/34 37/37/37 26/26/26
f 38/38/38 30/30/30 31/31/31
f 38/38/38 36/36/36 30/30/30
f 39/39/39 31/31/31 32/32/32
f 39/39/39 38/38/38 31/31/31
f 40/40/40 32/32/32 29/29/29
f 37/37/37 40/40/40 29/29/29
f 40/40/40 39/39/39 32/32/32
f 41/41/41 34/34/34 33/33/33
f 42/42/42 33/33/33 35/35/35
f 42/42/42 41/41/41 33/33/33
f 43/43/43 35/35/35 36/36/36
f 43/43/43 42/42/42 35/35/35
f 44/44/44 36/36/36 38/38/38
f 44/44/44 43/43/43 36/36/36
f 45/45/45 37/37/37 34/34/34
f 41/41/41 45/45/45 34/34/34
f 46/46/46 38/38/38 39/39/39
f 46/46/46 44/44/44 38/38/38
f 47/47/47 40/40/40 37/37/37
f 45/45/45 47/47/47 37/37/37
f 48/48/48 39/39/39 40/40/40
f 48/48/48 46/46/46 39/39/39
f 47/47/47 48/48/48 40/40/40
f 42/42/42 49/49/49 41/41/41
f 43/43/43 50/50/50 42/42/42
f 50/50/50 49/49/49 42/42/42
f 44/44/44 51/51/51 43/43/43
f 51/51/51 50/50/50 43/43/43
f 41/41/41 52/52/52 45/45/45
f 49/49/49 52/52/52 41/41/41
f 46/46/46 53/53/53 44/44/44
f 53/53/53 51/51/51 44/44/44
f 48/48/48 54/54/54 46/46/46
f 54/54/54 53/53/53 46/46/46
f 45/45/45 55/55/55 47/47/47
f 52/52/52 55/55/55 45/45/45
f 47/47/47 56/56/56 48/48/48
f 56/56/56 54/54/54 48/48/48
f 55/55/55 56/56/56 47/47/47
f 51/51/51 57/57/57 50/50/50
f 50/50/50 58/58/58 49/49/49
f 57/57/57 58/58/58 50/50/50
f 53/53/53 59/59/59 51/51/51
f 59/59/59 57/57/57 51/51/51
f 49/49/49 60/60/60 52/52/52
f 58/58/58 60/60/60 49/49/49
f 60/60/60 61/61/61 52/52/52
f 61/61/61 60/60/60 58/58/58
f 52/52/52 61/61/61 55/55/55
f 58/58/58 57/57/57 61/61/61
f 61/61/61 62/62/62 55/55/55
f 57/57/57 62/62/62 61/61/61
f 55/55/55 62/62/62 56/56/56
f 57/57/57 59/59/59 62/62/62
f 62/62/62 63/63/63 56/56/56
f 56/56/56 63/63/63 54/54/54
f 59/59/59 63/63/63 62/62/62
f 64/64/64 59/59/59 53/53/53
f 54/54/54 64/64/64 53/53/53
f 63/63/63 64/64/64 54/54/54
f 59/59/59 64/64/64 63/63/63
