g Rasoio
v 8.285046E-06 0.04535341 -0.04547113
v 0.2690418 0.04535341 -0.04547113
v 0.2690418 0.05508339 -0.02204829
v 8.285046E-06 0.05508339 -0.02204829
v -0.2690421 0.05508339 -0.02204829
v -0.2690421 0.04535341 -0.04547113
v 0.01373482 -0.8108019 -0.0278998
v 0.03133988 -0.8282889 -0.02520174
v 0.03300929 -0.8108357 -0.0278998
v 0.01376855 -0.8282889 -0.02520174
v 8.285046E-06 -0.8282889 -0.02520174
v 8.285046E-06 -0.8107851 -0.0278998
v -0.01373512 -0.8108019 -0.0278998
v -0.01376885 -0.8282889 -0.02520174
v -0.03134018 -0.8282889 -0.02520174
v -0.03300965 -0.8108357 -0.0278998
v 0.2748259 0.03805172 -0.0430091
v 0.2464116 -0.05454344 -0.01187986
v 0.2464116 -0.04479659 0.01155978
v 0.2748259 0.04778171 -0.01958632
v 0.2399698 -0.05911338 -0.01032847
v 8.285046E-06 -0.04938334 0.01309437
v 0.2399698 -0.04938334 0.01309437
v 8.285046E-06 -0.05911338 -0.01032847
v -0.2399701 -0.05911338 -0.01032847
v -0.2399701 -0.04938334 0.01309437
v 0.2748259 0.03805172 -0.0430091
v 0.2748259 0.04778171 -0.01958632
v 0.2690418 0.05508339 -0.02204829
v 0.2690418 0.04535341 -0.04547113
v 0.2464116 -0.04479659 0.01155978
v 0.2464116 -0.05454344 -0.01187986
v 0.2399698 -0.05911338 -0.01032847
v 0.2399698 -0.04938334 0.01309437
v 0.2690418 0.04535341 -0.04547113
v 0.2464116 -0.05454344 -0.01187986
v 0.2748259 0.03805172 -0.0430091
v 0.2399698 -0.05911338 -0.01032847
v 8.285046E-06 0.04535341 -0.04547113
v 8.285046E-06 -0.05911338 -0.01032847
v -0.2399701 -0.05911338 -0.01032847
v -0.2690421 0.04535341 -0.04547113
v -0.2463951 -0.05454344 -0.01187986
v -0.2748261 0.03805172 -0.0430091
v 0.1480155 -0.03855729 0.01188022
v 0.159533 -0.02499938 0.02123922
v 0.159533 -0.02499938 -0.005370736
v 0.1480155 -0.03855729 -0.01472974
v 0.0617103 -0.1044413 0.01188022
v 0.1398032 -0.02499938 -0.01855767
v 0.0617103 -0.1044413 -0.01472974
v 0.05159241 -0.1155878 0.01188022
v 0.1282857 -0.03855729 -0.0278998
v 0.09125435 -0.02499938 -0.01855767
v 0.04381853 -0.1030416 -0.0278998
v 0.07973689 -0.03855729 -0.0278998
v 0.07452619 -0.02499938 -0.01855767
v 0.0493328 -0.03855729 -0.0278998
v 0.06086713 -0.02499938 0.02123922
v 0.0493328 -0.03855729 0.01188022
v 0.01560664 -0.08138949 -0.0278998
v 0.01560664 -0.08138949 0.01188022
v 0.002756953 -0.08762884 -0.0278998
v 0.002756953 -0.08762884 0.01188022
v 8.285046E-06 -0.08762884 -0.0278998
v 8.285046E-06 -0.08762884 0.01188022
v -0.002757251 -0.08762884 0.01188022
v -0.002757251 -0.08762884 -0.0278998
v -0.01560694 -0.08138949 0.01188022
v -0.01559007 -0.08138949 -0.0278998
v -0.0493331 -0.03855729 0.01188022
v -0.0493331 -0.03855729 -0.0278998
v -0.06086743 -0.02499938 0.02123922
v -0.07452655 -0.02499938 -0.01855767
v -0.07973725 -0.03855729 -0.0278998
v -0.09125471 -0.02499938 -0.01855767
v -0.128286 -0.03855729 -0.0278998
v -0.1398035 -0.02499938 -0.01855767
v -0.1480158 -0.03855729 -0.01472974
v -0.04381889 -0.1030416 -0.0278998
v -0.1595333 -0.02499938 -0.005370736
v -0.1480158 -0.03855729 0.01188022
v -0.1595333 -0.02499938 0.02123922
v -0.0617106 -0.1044413 0.01188022
v -0.0617106 -0.1044413 -0.01472974
v -0.03849012 -0.10891 -0.0278998
v -0.05159277 -0.1155878 0.01188022
v -0.05159277 -0.1155878 -0.01472974
v -0.03459477 -0.1168019 -0.0278998
v -0.04418987 -0.1305622 0.01188022
v -0.04418987 -0.1305622 -0.01472974
v -0.030379 -0.1294661 -0.0278998
v -0.03869247 -0.1502246 0.01188022
v -0.03869247 -0.1502246 -0.01472974
v -0.02486479 -0.2204762 -0.0278998
v -0.03317827 -0.2308638 0.01188022
v -0.03317827 -0.2308638 -0.01472974
v -0.03300965 -0.8108357 -0.0278998
v -0.04132313 -0.8110043 0.01188022
v -0.04132313 -0.8110043 -0.01472974
v -0.03134018 -0.8282889 -0.02520174
v -0.03752893 -0.8282889 0.004443586
v -0.03101981 -0.8302956 0.0008180141
v -0.03752893 -0.8282889 -0.01538742
v 0.03133988 -0.8282889 -0.02520174
v 0.03101945 -0.8302956 0.0008180141
v 0.03752863 -0.8282889 0.004443586
v 0.03752863 -0.8282889 -0.01538742
v 0.04132283 -0.8110043 -0.01472974
v 0.03300929 -0.8108357 -0.0278998
v 0.04132283 -0.8110043 0.01188022
v 0.03317797 -0.2308638 -0.01472974
v 0.02486444 -0.2204762 -0.0278998
v 0.03317797 -0.2308638 0.01188022
v 0.03869218 -0.1502246 -0.01472974
v 0.0303787 -0.1294661 -0.0278998
v 0.03869218 -0.1502246 0.01188022
v 0.04418951 -0.1305622 -0.01472974
v 0.03459442 -0.1168019 -0.0278998
v 0.04418951 -0.1305622 0.01188022
v 0.05159241 -0.1155878 -0.01472974
v 0.03848982 -0.10891 -0.0278998
v 0.01376855 -0.8282889 -0.02520174
v 0.03101945 -0.8302956 0.0008180141
v 0.03133988 -0.8282889 -0.02520174
v 0.01461172 -0.8302956 0.0008180141
v 8.285046E-06 -0.8282889 -0.02520174
v 8.285046E-06 -0.8302956 0.0008180141
v -0.01461202 -0.8302956 0.0008180141
v -0.01376885 -0.8282889 -0.02520174
v -0.03101981 -0.8302956 0.0008180141
v -0.03134018 -0.8282889 -0.02520174
v -0.2748261 0.03805172 -0.0430091
v -0.2748261 0.04778171 -0.01958632
v -0.2463951 -0.04479659 0.01155978
v -0.2463951 -0.05454344 -0.01187986
v -0.2748261 0.03805172 -0.0430091
v -0.2690421 0.04535341 -0.04547113
v -0.2690421 0.05508339 -0.02204829
v -0.2748261 0.04778171 -0.01958632
v -0.2463951 -0.04479659 0.01155978
v -0.2399701 -0.04938334 0.01309437
v -0.2399701 -0.05911338 -0.01032847
v -0.2463951 -0.05454344 -0.01187986
v 0.0493328 -0.03855729 -0.0278998
v 0.01560664 -0.08138949 -0.0278998
v 0.01616311 -0.09336227 -0.0278998
v 0.07973689 -0.03855729 -0.0278998
v 0.1282857 -0.03855729 -0.0278998
v 0.04381853 -0.1030416 -0.0278998
v 0.002756953 -0.08762884 -0.0278998
v 0.01064885 -0.09587485 -0.0278998
v 0.03848982 -0.10891 -0.0278998
v 0.03459442 -0.1168019 -0.0278998
v 8.285046E-06 -0.08762884 -0.0278998
v 0.01080066 -0.1122489 -0.0278998
v 0.0303787 -0.1294661 -0.0278998
v 0.01093554 -0.1212369 -0.0278998
v 0.02486444 -0.2204762 -0.0278998
v 0.008591592 -0.2188067 -0.0278998
v 0.03300929 -0.8108357 -0.0278998
v 0.01373482 -0.8108019 -0.0278998
v 8.285046E-06 -0.8107851 -0.0278998
v 8.285046E-06 -0.2179973 -0.0278998
v 8.285046E-06 -0.1196349 -0.0278998
v 8.285046E-06 -0.1092641 -0.0278998
v 8.285046E-06 -0.09646505 -0.0278998
v -0.0106492 -0.09587485 -0.0278998
v -0.002757251 -0.08762884 -0.0278998
v -0.01616341 -0.09336227 -0.0278998
v -0.01559007 -0.08138949 -0.0278998
v -0.0493331 -0.03855729 -0.0278998
v -0.07973725 -0.03855729 -0.0278998
v -0.128286 -0.03855729 -0.0278998
v -0.04381889 -0.1030416 -0.0278998
v -0.03849012 -0.10891 -0.0278998
v -0.03459477 -0.1168019 -0.0278998
v -0.01080096 -0.1122489 -0.0278998
v -0.030379 -0.1294661 -0.0278998
v -0.01093584 -0.1212369 -0.0278998
v -0.02486479 -0.2204762 -0.0278998
v -0.00859189 -0.2188067 -0.0278998
v -0.03300965 -0.8108357 -0.0278998
v -0.01373512 -0.8108019 -0.0278998
vt 0.07994618 0.9041069
vt 0.07994618 0.9041069
vt 0.07994618 0.1634887
vt 0.07994618 0.1634887
vt 0.07994618 0.1634887
vt 0.07994618 0.9041069
vt 0.01611596 0.03770559
vt 0.01611596 0.02456408
vt 0.01611596 0.03770559
vt 0.01611596 0.02456408
vt 0.01611596 0.02456408
vt 0.01611596 0.03770559
vt 0.01611596 0.03770559
vt 0.01611596 0.02456408
vt 0.01611596 0.02456408
vt 0.01611596 0.03770559
vt 0.07994618 0.8590503
vt 0.07994618 0.2864557
vt 0.07994618 0.3728142
vt 0.07994618 0.9454088
vt 0.07994618 0.2573566
vt 0.07994618 0.3446538
vt 0.07994618 0.3446538
vt 0.07994618 0.2573566
vt 0.07994618 0.2573566
vt 0.07994618 0.3446538
vt 0.07994618 0.8590503
vt 0.07994618 0.9454088
vt 0.07994618 0.1634887
vt 0.07994618 0.9041069
vt 0.07994618 0.3728142
vt 0.07994618 0.2864557
vt 0.07994618 0.2573566
vt 0.07994618 0.3446538
vt 0.07994618 0.9041069
vt 0.07994618 0.2864557
vt 0.07994618 0.8590503
vt 0.07994618 0.2573566
vt 0.07994618 0.9041069
vt 0.07994618 0.2573566
vt 0.07994618 0.2573566
vt 0.07994618 0.9041069
vt 0.07994618 0.2864557
vt 0.07994618 0.8590503
vt 0.01611596 0.9763852
vt 0.01611596 0.9763852
vt 0.01611596 0.9763852
vt 0.01611596 0.9763852
vt 0.01611596 0.8965975
vt 0.01611596 0.9763852
vt 0.01611596 0.8965975
vt 0.01611596 0.8834559
vt 0.01611596 0.9763852
vt 0.01611596 0.9763852
vt 0.01611596 0.8984748
vt 0.01611596 0.9763852
vt 0.01611596 0.9763852
vt 0.01611596 0.9763852
vt 0.01611596 0.9763852
vt 0.01611596 0.9763852
vt 0.01611596 0.9247578
vt 0.01611596 0.9247578
vt 0.01611596 0.9172484
vt 0.01611596 0.9172484
vt 0.01611596 0.9172484
vt 0.01611596 0.9172484
vt 0.01611596 0.9172484
vt 0.01611596 0.9172484
vt 0.01611596 0.9247578
vt 0.01611596 0.9247578
vt 0.01611596 0.9763852
vt 0.01611596 0.9763852
vt 0.01611596 0.9763852
vt 0.01611596 0.9763852
vt 0.01611596 0.9763852
vt 0.01611596 0.9763852
vt 0.01611596 0.9763852
vt 0.01611596 0.9763852
vt 0.01611596 0.9763852
vt 0.01611596 0.8984748
vt 0.01611596 0.9763852
vt 0.01611596 0.9763852
vt 0.01611596 0.9763852
vt 0.01611596 0.8965975
vt 0.01611596 0.8965975
vt 0.01611596 0.8919041
vt 0.01611596 0.8834559
vt 0.01611596 0.8834559
vt 0.01611596 0.8825173
vt 0.01611596 0.865621
vt 0.01611596 0.865621
vt 0.01611596 0.8665597
vt 0.01611596 0.8421541
vt 0.01611596 0.8421541
vt 0.01611596 0.7576729
vt 0.01611596 0.7445314
vt 0.01611596 0.7445314
vt 0.01611596 0.03770559
vt 0.01611596 0.03770559
vt 0.01611596 0.03770559
vt 0.01611596 0.02456408
vt 0.01611596 0.02456408
vt 0.01611596 0.02456408
vt 0.01611596 0.02456408
vt 0.01611596 0.02456408
vt 0.01611596 0.02456408
vt 0.01611596 0.02456408
vt 0.01611596 0.02456408
vt 0.01611596 0.03770559
vt 0.01611596 0.03770559
vt 0.01611596 0.03770559
vt 0.01611596 0.7445314
vt 0.01611596 0.7576729
vt 0.01611596 0.7445314
vt 0.01611596 0.8421541
vt 0.01611596 0.8665597
vt 0.01611596 0.8421541
vt 0.01611596 0.865621
vt 0.01611596 0.8825173
vt 0.01611596 0.865621
vt 0.01611596 0.8834559
vt 0.01611596 0.8919041
vt 0.01611596 0.02456408
vt 0.01611596 0.02456408
vt 0.01611596 0.02456408
vt 0.01611596 0.02456408
vt 0.01611596 0.02456408
vt 0.01611596 0.02456408
vt 0.01611596 0.02456408
vt 0.01611596 0.02456408
vt 0.01611596 0.02456408
vt 0.01611596 0.02456408
vt 0.07994618 0.8590503
vt 0.07994618 0.9454088
vt 0.07994618 0.3728142
vt 0.07994618 0.2864557
vt 0.07994618 0.8590503
vt 0.07994618 0.9041069
vt 0.07994618 0.1634887
vt 0.07994618 0.9454088
vt 0.07994618 0.3728142
vt 0.07994618 0.3446538
vt 0.07994618 0.2573566
vt 0.07994618 0.2864557
vt 0.01611596 0.9763852
vt 0.01611596 0.9247578
vt 0.01611596 0.9106777
vt 0.01611596 0.9763852
vt 0.01611596 0.9763852
vt 0.01611596 0.8984748
vt 0.01611596 0.9172484
vt 0.01611596 0.9069229
vt 0.01611596 0.8919041
vt 0.01611596 0.8825173
vt 0.01611596 0.9172484
vt 0.01611596 0.8872107
vt 0.01611596 0.8665597
vt 0.01611596 0.8768852
vt 0.01611596 0.7576729
vt 0.01611596 0.7595503
vt 0.01611596 0.03770559
vt 0.01611596 0.03770559
vt 0.01611596 0.03770559
vt 0.01611596 0.7604889
vt 0.01611596 0.8787625
vt 0.01611596 0.8909654
vt 0.01611596 0.9069229
vt 0.01611596 0.9069229
vt 0.01611596 0.9172484
vt 0.01611596 0.9106777
vt 0.01611596 0.9247578
vt 0.01611596 0.9763852
vt 0.01611596 0.9763852
vt 0.01611596 0.9763852
vt 0.01611596 0.8984748
vt 0.01611596 0.8919041
vt 0.01611596 0.8825173
vt 0.01611596 0.8872107
vt 0.01611596 0.8665597
vt 0.01611596 0.8768852
vt 0.01611596 0.7576729
vt 0.01611596 0.7595503
vt 0.01611596 0.03770559
vt 0.01611596 0.03770559
vn 0.003740191 0.9215765 -0.3881788
vn 0.003740191 0.9215765 -0.3881788
vn 0.003740191 0.9215765 -0.3881788
vn 0.003740191 0.9215765 -0.3881788
vn 0.003740191 0.9215765 -0.3881788
vn 0.003740191 0.9215765 -0.3881788
vn 0.003740191 -0.1527319 -0.9882606
vn 0.003740191 -0.1527319 -0.9882606
vn 0.003740191 -0.1527319 -0.9882606
vn 0.003740191 -0.1527319 -0.9882606
vn 0.003740191 -0.1527319 -0.9882606
vn 0.003740191 -0.1527319 -0.9882606
vn 0.003740191 -0.1527319 -0.9882606
vn 0.003740191 -0.1527319 -0.9882606
vn 0.003740191 -0.1527319 -0.9882606
vn 0.003740191 -0.1527319 -0.9882606
vn 0.9604235 -0.2546735 0.1128186
vn 0.9604235 -0.2546735 0.1128186
vn 0.9604235 -0.2546735 0.1128186
vn 0.9604235 -0.2546735 0.1128186
vn 0.003740191 -0.9212152 0.3890353
vn 0.003740191 -0.9212152 0.3890353
vn 0.003740191 -0.9212152 0.3890353
vn 0.003740191 -0.9212152 0.3890353
vn 0.003740191 -0.9212152 0.3890353
vn 0.003740191 -0.9212152 0.3890353
vn 0.7957485 0.5530181 -0.2468912
vn 0.7957485 0.5530181 -0.2468912
vn 0.7957485 0.5530181 -0.2468912
vn 0.7957485 0.5530181 -0.2468912
vn 0.5997069 -0.7408569 0.3024611
vn 0.5997069 -0.7408569 0.3024611
vn 0.5997069 -0.7408569 0.3024611
vn 0.5997069 -0.7408569 0.3024611
vn 0.003740191 -0.3174069 -0.9482821
vn 0.003740191 -0.3174069 -0.9482821
vn 0.003740191 -0.3174069 -0.9482821
vn 0.003740191 -0.3174069 -0.9482821
vn 0.003740191 -0.3174069 -0.9482821
vn 0.003740191 -0.3174069 -0.9482821
vn 0.003740191 -0.3174069 -0.9482821
vn 0.003740191 -0.3174069 -0.9482821
vn 0.003740191 -0.3174069 -0.9482821
vn 0.003740191 -0.3174069 -0.9482821
vn 0.6992487 -0.7148784 0
vn 0.7634 -0.6459261 0
vn 0.8192735 -0.5212902 -0.2388461
vn 0.7173319 -0.4585569 -0.5245575
vn 0.6781235 -0.7330152 -0.05326575
vn 0.4193485 0.2471931 -0.873523
vn 0.6153902 -0.6938069 -0.3740681
vn 0.8271152 -0.5604985 -0.04149529
vn 0.3017235 -0.003740191 -0.9533881
vn 0.003740191 0.5687015 -0.8225355
vn 0.2468319 -0.2546735 -0.9349949
vn 0.003740191 0.2942431 -0.9557233
vn -0.2393515 0.7490598 -0.6177542
vn -0.4667598 0.5608598 -0.6837921
vn -0.5608598 0.8196348 -0.1167692
vn -0.6628015 0.7412181 -0.1062539
vn -0.4040265 0.5059681 -0.7620753
vn -0.6235931 0.7804265 -0.04545476
vn -0.1452515 0.6314348 -0.7617034
vn -0.2232758 0.9747553 0
vn 0.003740191 0.7098515 -0.7043414
vn 0.003740191 0.9999931 0
vn 0.2229331 0.9748337 0
vn 0.1448902 0.6314348 -0.7617722
vn 0.6232319 0.7804265 -0.05016481
vn 0.4036652 0.5059681 -0.7622669
vn 0.6624402 0.7412181 -0.1084836
vn 0.4663985 0.5608598 -0.6840385
vn 0.5604985 0.8196348 -0.1184912
vn 0.2389902 0.7490598 -0.6178941
vn 0.003740191 0.2942431 -0.9557233
vn 0.003740191 0.5687015 -0.8225355
vn -0.3020848 -0.003740191 -0.9532737
vn -0.4197098 0.2471931 -0.8733495
vn -0.7176931 -0.4585569 -0.5240632
vn -0.2471931 -0.2546735 -0.9348994
vn -0.8196348 -0.5212902 -0.2376033
vn -0.6994327 -0.7146985 0
vn -0.7635504 -0.6457483 0
vn -0.6784848 -0.7330152 -0.048447
vn -0.6157515 -0.6938069 -0.373473
vn -0.2707181 -0.1840985 -0.9448912
vn -0.8274765 -0.5604985 -0.03352647
vn -0.7490598 -0.5134485 -0.4186645
vn -0.3256098 -0.1370485 -0.935519
vn -0.9346324 -0.3556155 0
vn -0.8588431 -0.3252485 -0.3957296
vn -0.3569765 -0.0821569 -0.9304934
vn -0.9843098 -0.1684152 -0.05263621
vn -0.9294181 -0.1370485 -0.3426364
vn -0.4589181 -0.01942354 -0.8882662
vn -0.9996285 -0.02725525 0
vn -0.9607848 -0.01942354 -0.276614
vn -0.4824431 -0.0821569 -0.8720658
vn -0.9966421 -0.08188158 0
vn -0.9607848 -0.08999854 -0.2622839
vn -0.3726598 -0.6545985 -0.6577426
vn -0.8196348 -0.5683402 -0.07202934
vn -0.1138848 -0.9917902 -0.05815827
vn -0.7255348 -0.6545985 -0.2123676
vn 0.3722985 -0.6545985 -0.6579472
vn 0.1135235 -0.9917902 -0.05886017
vn 0.8192735 -0.5683402 -0.07602854
vn 0.7251736 -0.6545985 -0.2135977
vn 0.9604235 -0.08999854 -0.2636037
vn 0.4820819 -0.0821569 -0.8722656
vn 0.9966397 -0.08191098 0
vn 0.9604235 -0.01942354 -0.2778657
vn 0.4585569 -0.01942354 -0.8884527
vn 0.9996283 -0.02726509 0
vn 0.9368985 -0.1370485 -0.3216191
vn 0.3566152 -0.0821569 -0.930632
vn 0.9839485 -0.1684152 -0.05900504
vn 0.8584819 -0.3252485 -0.3965126
vn 0.3252485 -0.1370485 -0.9356447
vn 0.9345867 -0.3557352 0
vn 0.7486986 -0.5134485 -0.4193102
vn 0.2781985 -0.1840985 -0.9427159
vn 0.003740191 -0.9996319 -0.02687211
vn 0.003740191 -0.9996319 -0.02687211
vn 0.003740191 -0.9996319 -0.02687211
vn 0.003740191 -0.9996319 -0.02687211
vn 0.003740191 -0.9996319 -0.02687211
vn 0.003740191 -0.9996319 -0.02687211
vn 0.003740191 -0.9996319 -0.02687211
vn 0.003740191 -0.9996319 -0.02687211
vn 0.003740191 -0.9996319 -0.02687211
vn 0.003740191 -0.9996319 -0.02687211
vn -0.9607848 -0.2546735 0.1096993
vn -0.9607848 -0.2546735 0.1096993
vn -0.9607848 -0.2546735 0.1096993
vn -0.9607848 -0.2546735 0.1096993
vn -0.7961098 0.5530181 -0.2457238
vn -0.7961098 0.5530181 -0.2457238
vn -0.7961098 0.5530181 -0.2457238
vn -0.7961098 0.5530181 -0.2457238
vn -0.6000681 -0.7408569 0.3017439
vn -0.6000681 -0.7408569 0.3017439
vn -0.6000681 -0.7408569 0.3017439
vn -0.6000681 -0.7408569 0.3017439
vn 0.003740191 -0.003740191 -0.999986
vn 0.003740191 -0.003740191 -0.999986
vn 0.003740191 -0.003740191 -0.999986
vn 0.003740191 -0.003740191 -0.999986
vn 0.003740191 -0.003740191 -0.999986
vn 0.003740191 -0.003740191 -0.999986
vn 0.003740191 -0.003740191 -0.999986
vn 0.003740191 -0.003740191 -0.999986
vn 0.003740191 -0.003740191 -0.999986
vn 0.003740191 -0.003740191 -0.999986
vn 0.003740191 -0.003740191 -0.999986
vn 0.003740191 -0.003740191 -0.999986
vn 0.003740191 -0.003740191 -0.999986
vn 0.003740191 -0.003740191 -0.999986
vn 0.003740191 -0.003740191 -0.999986
vn 0.003740191 -0.003740191 -0.999986
vn 0.003740191 -0.003740191 -0.999986
vn 0.003740191 -0.003740191 -0.999986
vn 0.003740191 -0.003740191 -0.999986
vn 0.003740191 -0.003740191 -0.999986
vn 0.003740191 -0.003740191 -0.999986
vn 0.003740191 -0.003740191 -0.999986
vn 0.003740191 -0.003740191 -0.999986
vn 0.003740191 -0.003740191 -0.999986
vn 0.003740191 -0.003740191 -0.999986
vn 0.003740191 -0.003740191 -0.999986
vn 0.003740191 -0.003740191 -0.999986
vn 0.003740191 -0.003740191 -0.999986
vn 0.003740191 -0.003740191 -0.999986
vn 0.003740191 -0.003740191 -0.999986
vn 0.003740191 -0.003740191 -0.999986
vn 0.003740191 -0.003740191 -0.999986
vn 0.003740191 -0.003740191 -0.999986
vn 0.003740191 -0.003740191 -0.999986
vn 0.003740191 -0.003740191 -0.999986
vn 0.003740191 -0.003740191 -0.999986
vn 0.003740191 -0.003740191 -0.999986
vn 0.003740191 -0.003740191 -0.999986
vn 0.003740191 -0.003740191 -0.999986
vn 0.003740191 -0.003740191 -0.999986
g Rasoio_0
f 3/3/3 2/2/2 1/1/1
f 4/4/4 3/3/3 1/1/1
f 5/5/5 4/4/4 1/1/1
f 6/6/6 5/5/5 1/1/1
f 9/9/9 8/8/8 7/7/7
f 8/8/8 10/10/10 7/7/7
f 7/7/7 10/10/10 11/11/11
f 12/12/12 7/7/7 11/11/11
f 13/13/13 12/12/12 11/11/11
f 14/14/14 13/13/13 11/11/11
f 14/14/14 15/15/15 13/13/13
f 15/15/15 16/16/16 13/13/13
f 19/19/19 18/18/18 17/17/17
f 20/20/20 19/19/19 17/17/17
f 23/23/23 22/22/22 21/21/21
f 22/22/22 24/24/24 21/21/21
f 24/24/24 22/22/22 25/25/25
f 22/22/22 26/26/26 25/25/25
f 29/29/29 28/28/28 27/27/27
f 30/30/30 29/29/29 27/27/27
f 33/33/33 32/32/32 31/31/31
f 34/34/34 33/33/33 31/31/31
f 37/37/37 36/36/36 35/35/35
f 36/36/36 38/38/38 35/35/35
f 39/39/39 35/35/35 38/38/38
f 40/40/40 39/39/39 38/38/38
f 39/39/39 40/40/40 41/41/41
f 42/42/42 39/39/39 41/41/41
f 41/41/41 43/43/43 42/42/42
f 43/43/43 44/44/44 42/42/42
f 47/47/47 46/46/46 45/45/45
f 48/48/48 47/47/47 45/45/45
f 45/45/45 49/49/49 48/48/48
f 50/50/50 47/47/47 48/48/48
f 49/49/49 51/51/51 48/48/48
f 49/49/49 52/52/52 51/51/51
f 53/53/53 50/50/50 48/48/48
f 54/54/54 50/50/50 53/53/53
f 53/53/53 48/48/48 55/55/55
f 48/48/48 51/51/51 55/55/55
f 56/56/56 54/54/54 53/53/53
f 57/57/57 54/54/54 56/56/56
f 58/58/58 57/57/57 56/56/56
f 59/59/59 57/57/57 58/58/58
f 60/60/60 59/59/59 58/58/58
f 60/60/60 58/58/58 61/61/61
f 62/62/62 60/60/60 61/61/61
f 62/62/62 61/61/61 63/63/63
f 64/64/64 62/62/62 63/63/63
f 64/64/64 63/63/63 65/65/65
f 66/66/66 64/64/64 65/65/65
f 67/67/67 66/66/66 65/65/65
f 68/68/68 67/67/67 65/65/65
f 69/69/69 67/67/67 68/68/68
f 70/70/70 69/69/69 68/68/68
f 71/71/71 69/69/69 70/70/70
f 72/72/72 71/71/71 70/70/70
f 73/73/73 71/71/71 72/72/72
f 74/74/74 73/73/73 72/72/72
f 74/74/74 72/72/72 75/75/75
f 76/76/76 74/74/74 75/75/75
f 76/76/76 75/75/75 77/77/77
f 78/78/78 76/76/76 77/77/77
f 78/78/78 77/77/77 79/79/79
f 79/79/79 77/77/77 80/80/80
f 81/81/81 78/78/78 79/79/79
f 81/81/81 79/79/79 82/82/82
f 83/83/83 81/81/81 82/82/82
f 84/84/84 82/82/82 79/79/79
f 85/85/85 79/79/79 80/80/80
f 85/85/85 84/84/84 79/79/79
f 80/80/80 86/86/86 85/85/85
f 87/87/87 84/84/84 85/85/85
f 86/86/86 88/88/88 85/85/85
f 88/88/88 87/87/87 85/85/85
f 86/86/86 89/89/89 88/88/88
f 90/90/90 87/87/87 88/88/88
f 89/89/89 91/91/91 88/88/88
f 91/91/91 90/90/90 88/88/88
f 89/89/89 92/92/92 91/91/91
f 93/93/93 90/90/90 91/91/91
f 92/92/92 94/94/94 91/91/91
f 94/94/94 93/93/93 91/91/91
f 92/92/92 95/95/95 94/94/94
f 96/96/96 93/93/93 94/94/94
f 95/95/95 97/97/97 94/94/94
f 97/97/97 96/96/96 94/94/94
f 95/95/95 98/98/98 97/97/97
f 99/99/99 96/96/96 97/97/97
f 98/98/98 100/100/100 97/97/97
f 100/100/100 99/99/99 97/97/97
f 98/98/98 101/101/101 100/100/100
f 102/102/102 99/99/99 100/100/100
f 103/103/103 102/102/102 101/101/101
f 101/101/101 104/104/104 100/100/100
f 104/104/104 102/102/102 100/100/100
f 102/102/102 104/104/104 101/101/101
f 107/107/107 106/106/106 105/105/105
f 108/108/108 107/107/107 105/105/105
f 108/108/108 105/105/105 109/109/109
f 107/107/107 108/108/108 109/109/109
f 105/105/105 110/110/110 109/109/109
f 111/111/111 107/107/107 109/109/109
f 109/109/109 110/110/110 112/112/112
f 111/111/111 109/109/109 112/112/112
f 110/110/110 113/113/113 112/112/112
f 114/114/114 111/111/111 112/112/112
f 112/112/112 113/113/113 115/115/115
f 114/114/114 112/112/112 115/115/115
f 113/113/113 116/116/116 115/115/115
f 117/117/117 114/114/114 115/115/115
f 115/115/115 116/116/116 118/118/118
f 117/117/117 115/115/115 118/118/118
f 116/116/116 119/119/119 118/118/118
f 120/120/120 117/117/117 118/118/118
f 118/118/118 119/119/119 121/121/121
f 120/120/120 118/118/118 121/121/121
f 52/52/52 120/120/120 121/121/121
f 119/119/119 122/122/122 121/121/121
f 52/52/52 121/121/121 51/51/51
f 121/121/121 122/122/122 51/51/51
f 122/122/122 55/55/55 51/51/51
f 125/125/125 124/124/124 123/123/123
f 124/124/124 126/126/126 123/123/123
f 123/123/123 126/126/126 127/127/127
f 126/126/126 128/128/128 127/127/127
f 128/128/128 129/129/129 127/127/127
f 129/129/129 130/130/130 127/127/127
f 129/129/129 131/131/131 130/130/130
f 131/131/131 132/132/132 130/130/130
f 135/135/135 134/134/134 133/133/133
f 136/136/136 135/135/135 133/133/133
f 139/139/139 138/138/138 137/137/137
f 140/140/140 139/139/139 137/137/137
f 143/143/143 142/142/142 141/141/141
f 144/144/144 143/143/143 141/141/141
f 147/147/147 146/146/146 145/145/145
f 148/148/148 147/147/147 145/145/145
f 147/147/147 148/148/148 149/149/149
f 150/150/150 147/147/147 149/149/149
f 146/146/146 147/147/147 151/151/151
f 147/147/147 152/152/152 151/151/151
f 150/150/150 153/153/153 147/147/147
f 153/153/153 152/152/152 147/147/147
f 152/152/152 153/153/153 154/154/154
f 155/155/155 151/151/151 152/152/152
f 156/156/156 152/152/152 154/154/154
f 156/156/156 154/154/154 157/157/157
f 158/158/158 156/156/156 157/157/157
f 157/157/157 159/159/159 158/158/158
f 159/159/159 160/160/160 158/158/158
f 159/159/159 161/161/161 160/160/160
f 161/161/161 162/162/162 160/160/160
f 160/160/160 162/162/162 163/163/163
f 158/158/158 160/160/160 164/164/164
f 164/164/164 160/160/160 163/163/163
f 156/156/156 158/158/158 165/165/165
f 165/165/165 158/158/158 164/164/164
f 152/152/152 156/156/156 166/166/166
f 166/166/166 156/156/156 165/165/165
f 167/167/167 155/155/155 152/152/152
f 167/167/167 152/152/152 166/166/166
f 155/155/155 167/167/167 168/168/168
f 168/168/168 167/167/167 166/166/166
f 169/169/169 155/155/155 168/168/168
f 168/168/168 170/170/170 169/169/169
f 170/170/170 171/171/171 169/169/169
f 171/171/171 170/170/170 172/172/172
f 170/170/170 173/173/173 172/172/172
f 173/173/173 170/170/170 174/174/174
f 170/170/170 175/175/175 174/174/174
f 176/176/176 175/175/175 170/170/170
f 168/168/168 176/176/176 170/170/170
f 176/176/176 168/168/168 177/177/177
f 178/178/178 168/168/168 166/166/166
f 168/168/168 178/178/178 177/177/177
f 178/178/178 166/166/166 165/165/165
f 177/177/177 178/178/178 179/179/179
f 180/180/180 178/178/178 165/165/165
f 178/178/178 180/180/180 179/179/179
f 180/180/180 165/165/165 164/164/164
f 181/181/181 179/179/179 180/180/180
f 182/182/182 180/180/180 164/164/164
f 182/182/182 181/181/181 180/180/180
f 182/182/182 164/164/164 163/163/163
f 183/183/183 181/181/181 182/182/182
f 184/184/184 182/182/182 163/163/163
f 184/184/184 183/183/183 182/182/182
