g Sequin
v -0.6599999 -1.180207E-08 -0.66
v -0.6599999 -1.180207E-08 0.66
v 0.6599999 -1.180207E-08 0.66
v 0.6599999 -1.180207E-08 -0.66
v -0.6599999 0 -0.66
v 0.6599999 0 -0.66
v 0.6599999 0 0.66
v -0.6599999 0 0.66
vt 0.003615469 0.5032299
vt 0.003615469 1.00023
vt 0.9976149 1.00023
vt 0.9976149 0.5032299
vt 0.003615469 0.003229856
vt 0.9976149 0.003229856
vt 0.9976149 0.5002296
vt 0.003615469 0.5002296
vn 0 -1 0
vn 0 -1 0
vn 0 -1 0
vn 0 -1 0
vn 0 1 0
vn 0 1 0
vn 0 1 0
vn 0 1 0
g Sequin_0
f 3/3/3 2/2/2 1/1/1
f 4/4/4 3/3/3 1/1/1
f 7/7/7 6/6/6 5/5/5
f 8/8/8 7/7/7 5/5/5
