g SingingBowlCollider
v -1.254206 1.19706 -0.3804585
v -1.210875 1.19706 -0.50156
v -0.6034172 1.19706 -0.2499437
v -0.62501 1.19706 -0.1895951
v -1.285458 1.19706 -0.2556928
v -1.254206 1.19706 -0.3804585
v -0.62501 1.19706 -0.1895951
v -0.6405838 1.19706 -0.1274209
v -1.304331 1.19706 -0.1284646
v -1.285458 1.19706 -0.2556928
v -0.6405838 1.19706 -0.1274209
v -0.6499897 1.19706 -0.06401845
v -1.310642 1.19706 8.1049E-07
v -1.304331 1.19706 -0.1284646
v -0.6499897 1.19706 -0.06401845
v -0.6531348 1.19706 5.756542E-07
v -1.304331 1.19706 0.1284663
v -1.310642 1.19706 8.1049E-07
v -0.6531348 1.19706 5.756542E-07
v -0.6499897 1.19706 0.06401961
v -1.285458 1.19706 0.2556943
v -1.304331 1.19706 0.1284663
v -0.6499897 1.19706 0.06401961
v -0.6405838 1.19706 0.1274221
v -1.254206 1.19706 0.38046
v -1.285458 1.19706 0.2556943
v -0.6405838 1.19706 0.1274221
v -0.6250101 1.19706 0.1895963
v -1.210875 1.19706 0.5015616
v -1.254206 1.19706 0.38046
v -0.6250101 1.19706 0.1895963
v -0.6034172 1.19706 0.2499448
v -1.155883 1.19706 0.617833
v -1.210875 1.19706 0.5015616
v -0.6034172 1.19706 0.2499448
v -0.5760134 1.19706 0.307886
v -1.089759 1.19706 0.7281543
v -1.155883 1.19706 0.617833
v -0.5760134 1.19706 0.307886
v -0.5430608 1.19706 0.3628633
v -1.01314 1.19706 0.8314631
v -1.089759 1.19706 0.7281543
v -0.5430608 1.19706 0.3628633
v -0.5048791 1.19706 0.4143443
v -0.9267635 1.19706 0.9267645
v -1.01314 1.19706 0.8314631
v -0.5048791 1.19706 0.4143443
v -0.4618356 1.19706 0.4618362
v -0.8314623 1.19706 1.013141
v -0.9267635 1.19706 0.9267645
v -0.4618356 1.19706 0.4618362
v -0.4143436 1.19706 0.5048797
v -0.7281535 1.19706 1.089759
v -0.8314623 1.19706 1.013141
v -0.4143436 1.19706 0.5048797
v -0.3628626 1.19706 0.5430615
v -0.6178323 1.19706 1.155884
v -0.7281535 1.19706 1.089759
v -0.3628626 1.19706 0.5430615
v -0.3078854 1.19706 0.5760141
v -0.5015609 1.19706 1.210876
v -0.6178323 1.19706 1.155884
v -0.3078854 1.19706 0.5760141
v -0.2499442 1.19706 0.6034179
v -0.3804593 1.19706 1.254207
v -0.5015609 1.19706 1.210876
v -0.2499442 1.19706 0.6034179
v -0.1895957 1.19706 0.6250107
v -0.2556936 1.19706 1.285459
v -0.3804593 1.19706 1.254207
v -0.1895957 1.19706 0.6250107
v -0.1274215 1.19706 0.6405845
v -0.1284653 1.19706 1.304332
v -0.2556936 1.19706 1.285459
v -0.1274215 1.19706 0.6405845
v -0.06401902 1.19706 0.6499904
v -2.951705E-08 1.19706 1.310643
v -0.1284653 1.19706 1.304332
v -0.06401902 1.19706 0.6499904
v -6.416997E-09 1.19706 0.6531355
v 0.1284653 1.19706 1.304331
v -2.951705E-08 1.19706 1.310643
v -6.416997E-09 1.19706 0.6531355
v 0.06401902 1.19706 0.6499904
v 0.2556935 1.19706 1.285459
v 0.1284653 1.19706 1.304331
v 0.06401902 1.19706 0.6499904
v 0.1274215 1.19706 0.6405845
v 0.3804592 1.19706 1.254207
v 0.2556935 1.19706 1.285459
v 0.1274215 1.19706 0.6405845
v 0.1895957 1.19706 0.6250108
v 0.5015608 1.19706 1.210876
v 0.3804592 1.19706 1.254207
v 0.1895957 1.19706 0.6250108
v 0.2499442 1.19706 0.6034179
v 0.6178322 1.19706 1.155884
v 0.5015608 1.19706 1.210876
v 0.2499442 1.19706 0.6034179
v 0.3078854 1.19706 0.5760142
v 0.7281535 1.19706 1.08976
v 0.6178322 1.19706 1.155884
v 0.3078854 1.19706 0.5760142
v 0.3628626 1.19706 0.5430616
v 0.8314623 1.19706 1.013141
v 0.7281535 1.19706 1.08976
v 0.3628626 1.19706 0.5430616
v 0.4143436 1.19706 0.5048798
v 0.9267637 1.19706 0.9267645
v 0.8314623 1.19706 1.013141
v 0.4143436 1.19706 0.5048798
v 0.4618355 1.19706 0.4618363
v 1.01314 1.19706 0.8314632
v 0.9267637 1.19706 0.9267645
v 0.4618355 1.19706 0.4618363
v 0.5048791 1.19706 0.4143444
v 1.089759 1.19706 0.7281544
v 1.01314 1.19706 0.8314632
v 0.5048791 1.19706 0.4143444
v 0.5430609 1.19706 0.3628634
v 1.155883 1.19706 0.6178331
v 1.089759 1.19706 0.7281544
v 0.5430609 1.19706 0.3628634
v 0.5760135 1.19706 0.3078862
v 1.210875 1.19706 0.5015617
v 1.155883 1.19706 0.6178331
v 0.5760135 1.19706 0.3078862
v 0.6034173 1.19706 0.2499449
v 1.254206 1.19706 0.38046
v 1.210875 1.19706 0.5015617
v 0.6034173 1.19706 0.2499449
v 0.6250102 1.19706 0.1895964
v 1.285459 1.19706 0.2556943
v 1.254206 1.19706 0.38046
v 0.6250102 1.19706 0.1895964
v 0.640584 1.19706 0.1274222
v 1.304331 1.19706 0.1284661
v 1.285459 1.19706 0.2556943
v 0.640584 1.19706 0.1274222
v 0.6499899 1.19706 0.06401973
v 1.310642 1.19706 6.83126E-07
v 1.304331 1.19706 0.1284661
v 0.6499899 1.19706 0.06401973
v 0.6531334 1.19706 6.854852E-07
v 1.304331 1.19706 -0.1284647
v 1.310642 1.19706 6.83126E-07
v 0.6531334 1.19706 6.854852E-07
v 0.6499899 1.19706 -0.06401836
v 1.285459 1.19706 -0.2556929
v 1.304331 1.19706 -0.1284647
v 0.6499899 1.19706 -0.06401836
v 0.6405841 1.19706 -0.1274209
v 1.254207 1.19706 -0.3804587
v 1.285459 1.19706 -0.2556929
v 0.6405841 1.19706 -0.1274209
v 0.6250103 1.19706 -0.1895951
v 1.210876 1.19706 -0.5015604
v 1.254207 1.19706 -0.3804587
v 0.6250103 1.19706 -0.1895951
v 0.6034175 1.19706 -0.2499436
v 1.155883 1.19706 -0.6178318
v 1.210876 1.19706 -0.5015604
v 0.6034175 1.19706 -0.2499436
v 0.5760137 1.19706 -0.3078848
v 1.089759 1.19706 -0.7281531
v 1.155883 1.19706 -0.6178318
v 0.5760137 1.19706 -0.3078848
v 0.5430611 1.19706 -0.3628621
v 1.01314 1.19706 -0.831462
v 1.089759 1.19706 -0.7281531
v 0.5430611 1.19706 -0.3628621
v 0.5048793 1.19706 -0.414343
v 0.9267642 1.19706 -0.9267634
v 1.01314 1.19706 -0.831462
v 0.5048793 1.19706 -0.414343
v 0.4618358 1.19706 -0.461835
v 0.8314628 1.19706 -1.013139
v 0.9267642 1.19706 -0.9267634
v 0.4618358 1.19706 -0.461835
v 0.4143439 1.19706 -0.5048785
v 0.728154 1.19706 -1.089759
v 0.8314628 1.19706 -1.013139
v 0.4143439 1.19706 -0.5048785
v 0.3628629 1.19706 -0.5430604
v -1.210875 1.19706 -0.50156
v -1.155883 1.19706 -0.6178315
v -0.5760134 1.19706 -0.3078848
v -0.6034172 1.19706 -0.2499437
v -1.155883 1.19706 -0.6178315
v -1.089759 1.19706 -0.7281528
v -0.5430608 1.19706 -0.3628621
v -0.5760134 1.19706 -0.3078848
v -1.089759 1.19706 -0.7281528
v -1.01314 1.19706 -0.8314615
v -0.5048789 1.19706 -0.414343
v -0.5430608 1.19706 -0.3628621
v -1.01314 1.19706 -0.8314615
v -0.9267637 1.19706 -0.9267631
v -0.4618355 1.19706 -0.4618349
v -0.5048789 1.19706 -0.414343
v -0.9267637 1.19706 -0.9267631
v -0.8314623 1.19706 -1.013139
v -0.4143435 1.19706 -0.5048783
v -0.4618355 1.19706 -0.4618349
v -0.8314623 1.19706 -1.013139
v -0.7281535 1.19706 -1.089758
v -0.3628626 1.19706 -0.5430602
v -0.4143435 1.19706 -0.5048783
v -0.7281535 1.19706 -1.089758
v -0.6178323 1.19706 -1.155882
v -0.3078853 1.19706 -0.5760128
v -0.3628626 1.19706 -0.5430602
v -0.6178323 1.19706 -1.155882
v -0.5015609 1.19706 -1.210875
v -0.2499442 1.19706 -0.6034165
v -0.3078853 1.19706 -0.5760128
v -0.5015609 1.19706 -1.210875
v -0.3804591 1.19706 -1.254205
v -0.1895956 1.19706 -0.6250093
v -0.2499442 1.19706 -0.6034165
v -0.3804591 1.19706 -1.254205
v -0.2556934 1.19706 -1.285457
v -0.1274214 1.19706 -0.6405831
v -0.1895956 1.19706 -0.6250093
v -0.2556934 1.19706 -1.285457
v -0.1284653 1.19706 -1.30433
v -0.06401893 1.19706 -0.649989
v -0.1274214 1.19706 -0.6405831
v -0.1284653 1.19706 -1.30433
v 1.19057E-07 1.19706 -1.310641
v 9.243095E-08 1.19706 -0.653134
v -0.06401893 1.19706 -0.649989
v 1.19057E-07 1.19706 -1.310641
v 0.1284654 1.19706 -1.304331
v 0.06401907 1.19706 -0.6499893
v 9.243095E-08 1.19706 -0.653134
v 0.1284654 1.19706 -1.304331
v 0.2556936 1.19706 -1.285458
v 0.1274216 1.19706 -0.6405834
v 0.06401907 1.19706 -0.6499893
v 0.2556936 1.19706 -1.285458
v 0.3804594 1.19706 -1.254206
v 0.1895958 1.19706 -0.6250097
v 0.1274216 1.19706 -0.6405834
v 0.3804594 1.19706 -1.254206
v 0.5015611 1.19706 -1.210875
v 0.2499444 1.19706 -0.6034167
v 0.1895958 1.19706 -0.6250097
v 0.5015611 1.19706 -1.210875
v 0.6178325 1.19706 -1.155883
v 0.3078856 1.19706 -0.576013
v 0.2499444 1.19706 -0.6034167
v 0.6178325 1.19706 -1.155883
v 0.728154 1.19706 -1.089759
v 0.3628629 1.19706 -0.5430604
v 0.3078856 1.19706 -0.576013
vt 0 0
vt 0 1
vt 1 1
vt 1 0
vt 0 0
vt 0 1
vt 1 1
vt 1 0
vt 0 0
vt 0 1
vt 1 1
vt 1 0
vt 0 0
vt 0 1
vt 1 1
vt 1 0
vt 0 0
vt 0 1
vt 1 1
vt 1 0
vt 0 0
vt 0 1
vt 1 1
vt 1 0
vt 0 0
vt 0 1
vt 1 1
vt 1 0
vt 0 0
vt 0 1
vt 1 1
vt 1 0
vt 0 0
vt 0 1
vt 1 1
vt 1 0
vt 0 0
vt 0 1
vt 1 1
vt 1 0
vt 0 0
vt 0 1
vt 1 1
vt 1 0
vt 0 0
vt 0 1
vt 1 1
vt 1 0
vt 0 0
vt 0 1
vt 1 1
vt 1 0
vt 0 0
vt 0 1
vt 1 1
vt 1 0
vt 0 0
vt 0 1
vt 1 1
vt 1 0
vt 0 0
vt 0 1
vt 1 1
vt 1 0
vt 0 0
vt 0 1
vt 1 1
vt 1 0
vt 0 0
vt 0 1
vt 1 1
vt 1 0
vt 0 0
vt 0 1
vt 1 1
vt 1 0
vt 0 0
vt 0 1
vt 1 1
vt 1 0
vt 0 0
vt 0 1
vt 1 1
vt 1 0
vt 0 0
vt 0 1
vt 1 1
vt 1 0
vt 0 0
vt 0 1
vt 1 1
vt 1 0
vt 0 0
vt 0 1
vt 1 1
vt 1 0
vt 0 0
vt 0 1
vt 1 1
vt 1 0
vt 0 0
vt 0 1
vt 1 1
vt 1 0
vt 0 0
vt 0 1
vt 1 1
vt 1 0
vt 0 0
vt 0 1
vt 1 1
vt 1 0
vt 0 0
vt 0 1
vt 1 1
vt 1 0
vt 0 0
vt 0 1
vt 1 1
vt 1 0
vt 0 0
vt 0 1
vt 1 1
vt 1 0
vt 0 0
vt 0 1
vt 1 1
vt 1 0
vt 0 0
vt 0 1
vt 1 1
vt 1 0
vt 0 0
vt 0 1
vt 1 1
vt 1 0
vt 0 0
vt 0 1
vt 1 1
vt 1 0
vt 0 0
vt 0 1
vt 1 1
vt 1 0
vt 0 0
vt 0 1
vt 1 1
vt 1 0
vt 0 0
vt 0 1
vt 1 1
vt 1 0
vt 0 0
vt 0 1
vt 1 1
vt 1 0
vt 0 0
vt 0 1
vt 1 1
vt 1 0
vt 0 0
vt 0 1
vt 1 1
vt 1 0
vt 0 0
vt 0 1
vt 1 1
vt 1 0
vt 0 0
vt 0 1
vt 1 1
vt 1 0
vt 0 0
vt 0 1
vt 1 1
vt 1 0
vt 0 0
vt 0 1
vt 1 1
vt 1 0
vt 0 0
vt 0 1
vt 1 1
vt 1 0
vt 0 0
vt 0 1
vt 1 1
vt 1 0
vt 0 0
vt 0 1
vt 1 1
vt 1 0
vt 0 0
vt 0 1
vt 1 1
vt 1 0
vt 0 0
vt 0 1
vt 1 1
vt 1 0
vt 0 0
vt 0 1
vt 1 1
vt 1 0
vt 0 0
vt 0 1
vt 1 1
vt 1 0
vt 0 0
vt 0 1
vt 1 1
vt 1 0
vt 0 0
vt 0 1
vt 1 1
vt 1 0
vt 0 0
vt 0 1
vt 1 1
vt 1 0
vt 0 0
vt 0 1
vt 1 1
vt 1 0
vt 0 0
vt 0 1
vt 1 1
vt 1 0
vt 0 0
vt 0 1
vt 1 1
vt 1 0
vt 0 0
vt 0 1
vt 1 1
vt 1 0
vt 0 0
vt 0 1
vt 1 1
vt 1 0
vt 0 0
vt 0 1
vt 1 1
vt 1 0
vt 0 0
vt 0 1
vt 1 1
vt 1 0
vt 0 0
vt 0 1
vt 1 1
vt 1 0
vt 0 0
vt 0 1
vt 1 1
vt 1 0
vn 0 1 0
vn 0 1 0
vn 0 1 0
vn 0 1 0
vn 0 1 0
vn 0 1 0
vn 0 1 0
vn 0 1 0
vn 0 1 0
vn 0 1 0
vn 0 1 0
vn 0 1 0
vn 0 1 0
vn 0 1 0
vn 0 1 0
vn 0 1 0
vn 0 1 0
vn 0 1 0
vn 0 1 0
vn 0 1 0
vn 0 1 0
vn 0 1 0
vn 0 1 0
vn 0 1 0
vn 0 1 0
vn 0 1 0
vn 0 1 0
vn 0 1 0
vn 0 1 0
vn 0 1 0
vn 0 1 0
vn 0 1 0
vn 0 1 0
vn 0 1 0
vn 0 1 0
vn 0 1 0
vn 0 1 0
vn 0 1 0
vn 0 1 0
vn 0 1 0
vn 0 1 0
vn 0 1 0
vn 0 1 0
vn 0 1 0
vn 0 1 0
vn 0 1 0
vn 0 1 0
vn 0 1 0
vn 0 1 0
vn 0 1 0
vn 0 1 0
vn 0 1 0
vn 0 1 0
vn 0 1 0
vn 0 1 0
vn 0 1 0
vn 0 1 0
vn 0 1 0
vn 0 1 0
vn 0 1 0
vn 0 1 0
vn 0 1 0
vn 0 1 0
vn 0 1 0
vn 0 1 0
vn 0 1 0
vn 0 1 0
vn 0 1 0
vn 0 1 0
vn 0 1 0
vn 0 1 0
vn 0 1 0
vn 0 1 0
vn 0 1 0
vn 0 1 0
vn 0 1 0
vn 0 1 0
vn 0 1 0
vn 0 1 0
vn 0 1 0
vn 0 1 0
vn 0 1 0
vn 0 1 0
vn 0 1 0
vn 0 1 0
vn 0 1 0
vn 0 1 0
vn 0 1 0
vn 0 1 0
vn 0 1 0
vn 0 1 0
vn 0 1 0
vn 0 1 0
vn 0 1 0
vn 0 1 0
vn 0 1 0
vn 0 1 0
vn 0 1 0
vn 0 1 0
vn 0 1 0
vn 0 1 0
vn 0 1 0
vn 0 1 0
vn 0 1 0
vn 0 1 0
vn 0 1 0
vn 0 1 0
vn 0 1 0
vn 0 1 0
vn 0 1 0
vn 0 1 0
vn 0 1 0
vn 0 1 0
vn 0 1 0
vn 0 1 0
vn 0 1 0
vn 0 1 0
vn 0 1 0
vn 0 1 0
vn 0 1 0
vn 0 1 0
vn 0 1 0
vn 0 1 0
vn 0 1 0
vn 0 1 0
vn 0 1 0
vn 0 1 0
vn 0 1 0
vn 0 1 0
vn 0 1 0
vn 0 1 0
vn 0 1 0
vn 0 1 0
vn 0 1 0
vn 0 1 0
vn 0 1 0
vn 0 1 0
vn 0 1 0
vn 0 1 0
vn 0 1 0
vn 0 1 0
vn 0 1 0
vn 0 1 0
vn 0 1 0
vn 0 1 0
vn 0 1 0
vn 0 1 0
vn 0 1 0
vn 0 1 0
vn 0 1 0
vn 0 1 0
vn 0 1 0
vn 0 1 0
vn 0 1 0
vn 0 1 0
vn 0 1 0
vn 0 1 0
vn 0 1 0
vn 0 1 0
vn 0 1 0
vn 0 1 0
vn 0 1 0
vn 0 1 0
vn 0 1 0
vn 0 1 0
vn 0 1 0
vn 0 1 0
vn 0 1 0
vn 0 1 0
vn 0 1 0
vn 0 1 0
vn 0 1 0
vn 0 1 0
vn 0 1 0
vn 0 1 0
vn 0 1 0
vn 0 1 0
vn 0 1 0
vn 0 1 0
vn 0 1 0
vn 0 1 0
vn 0 1 0
vn 0 1 0
vn 0 1 0
vn 0 1 0
vn 0 1 0
vn 0 1 0
vn 0 1 0
vn 0 1 0
vn 0 1 0
vn 0 1 0
vn 0 1 0
vn 0 1 0
vn 0 1 0
vn 0 1 0
vn 0 1 0
vn 0 1 0
vn 0 1 0
vn 0 1 0
vn 0 1 0
vn 0 1 0
vn 0 1 0
vn 0 1 0
vn 0 1 0
vn 0 1 0
vn 0 1 0
vn 0 1 0
vn 0 1 0
vn 0 1 0
vn 0 1 0
vn 0 1 0
vn 0 1 0
vn 0 1 0
vn 0 1 0
vn 0 1 0
vn 0 1 0
vn 0 1 0
vn 0 1 0
vn 0 1 0
vn 0 1 0
vn 0 1 0
vn 0 1 0
vn 0 1 0
vn 0 1 0
vn 0 1 0
vn 0 1 0
vn 0 1 0
vn 0 1 0
vn 0 1 0
vn 0 1 0
vn 0 1 0
vn 0 1 0
vn 0 1 0
vn 0 1 0
vn 0 1 0
vn 0 1 0
vn 0 1 0
vn 0 1 0
vn 0 1 0
vn 0 1 0
vn 0 1 0
vn 0 1 0
vn 0 1 0
vn 0 1 0
vn 0 1 0
vn 0 1 0
vn 0 1 0
vn 0 1 0
vn 0 1 0
vn 0 1 0
vn 0 1 0
vn 0 1 0
vn 0 1 0
vn 0 1 0
vn 0 1 0
vn 0 1 0
g SingingBowlCollider_0
f 3/3/3 2/2/2 1/1/1
f 4/4/4 3/3/3 1/1/1
f 7/7/7 6/6/6 5/5/5
f 8/8/8 7/7/7 5/5/5
f 11/11/11 10/10/10 9/9/9
f 12/12/12 11/11/11 9/9/9
f 15/15/15 14/14/14 13/13/13
f 16/16/16 15/15/15 13/13/13
f 19/19/19 18/18/18 17/17/17
f 20/20/20 19/19/19 17/17/17
f 23/23/23 22/22/22 21/21/21
f 24/24/24 23/23/23 21/21/21
f 27/27/27 26/26/26 25/25/25
f 28/28/28 27/27/27 25/25/25
f 31/31/31 30/30/30 29/29/29
f 32/32/32 31/31/31 29/29/29
f 35/35/35 34/34/34 33/33/33
f 36/36/36 35/35/35 33/33/33
f 39/39/39 38/38/38 37/37/37
f 40/40/40 39/39/39 37/37/37
f 43/43/43 42/42/42 41/41/41
f 44/44/44 43/43/43 41/41/41
f 47/47/47 46/46/46 45/45/45
f 48/48/48 47/47/47 45/45/45
f 51/51/51 50/50/50 49/49/49
f 52/52/52 51/51/51 49/49/49
f 55/55/55 54/54/54 53/53/53
f 56/56/56 55/55/55 53/53/53
f 59/59/59 58/58/58 57/57/57
f 60/60/60 59/59/59 57/57/57
f 63/63/63 62/62/62 61/61/61
f 64/64/64 63/63/63 61/61/61
f 67/67/67 66/66/66 65/65/65
f 68/68/68 67/67/67 65/65/65
f 71/71/71 70/70/70 69/69/69
f 72/72/72 71/71/71 69/69/69
f 75/75/75 74/74/74 73/73/73
f 76/76/76 75/75/75 73/73/73
f 79/79/79 78/78/78 77/77/77
f 80/80/80 79/79/79 77/77/77
f 83/83/83 82/82/82 81/81/81
f 84/84/84 83/83/83 81/81/81
f 87/87/87 86/86/86 85/85/85
f 88/88/88 87/87/87 85/85/85
f 91/91/91 90/90/90 89/89/89
f 92/92/92 91/91/91 89/89/89
f 95/95/95 94/94/94 93/93/93
f 96/96/96 95/95/95 93/93/93
f 99/99/99 98/98/98 97/97/97
f 100/100/100 99/99/99 97/97/97
f 103/103/103 102/102/102 101/101/101
f 104/104/104 103/103/103 101/101/101
f 107/107/107 106/106/106 105/105/105
f 108/108/108 107/107/107 105/105/105
f 111/111/111 110/110/110 109/109/109
f 112/112/112 111/111/111 109/109/109
f 115/115/115 114/114/114 113/113/113
f 116/116/116 115/115/115 113/113/113
f 119/119/119 118/118/118 117/117/117
f 120/120/120 119/119/119 117/117/117
f 123/123/123 122/122/122 121/121/121
f 124/124/124 123/123/123 121/121/121
f 127/127/127 126/126/126 125/125/125
f 128/128/128 127/127/127 125/125/125
f 131/131/131 130/130/130 129/129/129
f 132/132/132 131/131/131 129/129/129
f 135/135/135 134/134/134 133/133/133
f 136/136/136 135/135/135 133/133/133
f 139/139/139 138/138/138 137/137/137
f 140/140/140 139/139/139 137/137/137
f 143/143/143 142/142/142 141/141/141
f 144/144/144 143/143/143 141/141/141
f 147/147/147 146/146/146 145/145/145
f 148/148/148 147/147/147 145/145/145
f 151/151/151 150/150/150 149/149/149
f 152/152/152 151/151/151 149/149/149
f 155/155/155 154/154/154 153/153/153
f 156/156/156 155/155/155 153/153/153
f 159/159/159 158/158/158 157/157/157
f 160/160/160 159/159/159 157/157/157
f 163/163/163 162/162/162 161/161/161
f 164/164/164 163/163/163 161/161/161
f 167/167/167 166/166/166 165/165/165
f 168/168/168 167/167/167 165/165/165
f 171/171/171 170/170/170 169/169/169
f 172/172/172 171/171/171 169/169/169
f 175/175/175 174/174/174 173/173/173
f 176/176/176 175/175/175 173/173/173
f 179/179/179 178/178/178 177/177/177
f 180/180/180 179/179/179 177/177/177
f 183/183/183 182/182/182 181/181/181
f 184/184/184 183/183/183 181/181/181
f 187/187/187 186/186/186 185/185/185
f 188/188/188 187/187/187 185/185/185
f 191/191/191 190/190/190 189/189/189
f 192/192/192 191/191/191 189/189/189
f 195/195/195 194/194/194 193/193/193
f 196/196/196 195/195/195 193/193/193
f 199/199/199 198/198/198 197/197/197
f 200/200/200 199/199/199 197/197/197
f 203/203/203 202/202/202 201/201/201
f 204/204/204 203/203/203 201/201/201
f 207/207/207 206/206/206 205/205/205
f 208/208/208 207/207/207 205/205/205
f 211/211/211 210/210/210 209/209/209
f 212/212/212 211/211/211 209/209/209
f 215/215/215 214/214/214 213/213/213
f 216/216/216 215/215/215 213/213/213
f 219/219/219 218/218/218 217/217/217
f 220/220/220 219/219/219 217/217/217
f 223/223/223 222/222/222 221/221/221
f 224/224/224 223/223/223 221/221/221
f 227/227/227 226/226/226 225/225/225
f 228/228/228 227/227/227 225/225/225
f 231/231/231 230/230/230 229/229/229
f 232/232/232 231/231/231 229/229/229
f 235/235/235 234/234/234 233/233/233
f 236/236/236 235/235/235 233/233/233
f 239/239/239 238/238/238 237/237/237
f 240/240/240 239/239/239 237/237/237
f 243/243/243 242/242/242 241/241/241
f 244/244/244 243/243/243 241/241/241
f 247/247/247 246/246/246 245/245/245
f 248/248/248 247/247/247 245/245/245
f 251/251/251 250/250/250 249/249/249
f 252/252/252 251/251/251 249/249/249
f 255/255/255 254/254/254 253/253/253
f 256/256/256 255/255/255 253/253/253
