g Stella
v -0.1729711 0.05804834 -0.05504903
v -0.09510788 -0.03677821 -0.05504903
v -0.05882096 0.07485887 -0.05504903
v -0.1469828 -0.0522218 -0.03293216
v -0.2675005 0.09455603 -0.03293216
v -0.1069686 -0.1452485 -0.05504903
v -1.162291E-06 -0.1058372 -0.05504903
v -0.1653215 -0.2199109 -0.03293216
v -1.162291E-06 -0.159011 -0.03293216
v -0.1653215 -0.2199109 0.03908134
v -0.1469828 -0.0522218 0.03908134
v -1.162291E-06 -0.159011 0.03908134
v -1.162291E-06 -0.1147518 0.0500761
v -0.1167578 -0.1577629 0.0500761
v -0.09083733 0.1205699 -0.03293216
v -0.2675005 0.09455603 0.03908134
v -0.1038018 -0.03936771 0.0500761
v -0.06418672 0.08252546 0.0500761
v -0.1888222 0.06416976 0.0500761
v -0.09083733 0.1205699 0.03908134
v -1.162291E-06 0.1838555 -0.05504903
v -1.162291E-06 0.2889042 -0.03293216
v -1.162291E-06 0.2889042 0.03908134
v 0.05881865 0.07485887 -0.05504903
v -1.162291E-06 0.2014641 0.0500761
v 0.09084353 0.1205699 -0.03293216
v 0.09084353 0.1205699 0.03908134
v 0.06418444 0.08252546 0.0500761
v 0.1729688 0.05804834 -0.05504903
v 0.2674982 0.09455603 -0.03293216
v 0.09510559 -0.03677821 -0.05504903
v 0.2674982 0.09455603 0.03908134
v 0.1469804 -0.0522218 -0.03293216
v 0.1069663 -0.1452485 -0.05504903
v 0.1653192 -0.2199109 -0.03293216
v 0.1469804 -0.0522218 0.03908134
v 0.1653192 -0.2199109 0.03908134
v 0.1888199 0.06416976 0.0500761
v 0.103808 -0.03936771 0.0500761
v 0.1167555 -0.1577629 0.0500761
vt 0 0
vt 0 0
vt 0 0
vt 0 0
vt 0 0
vt 0 0
vt 0 0
vt 0 0
vt 0 0
vt 0 0
vt 0 0
vt 0 0
vt 0 0
vt 0 0
vt 0 0
vt 0 0
vt 0 0
vt 0 0
vt 0 0
vt 0 0
vt 0 0
vt 0 0
vt 0 0
vt 0 0
vt 0 0
vt 0 0
vt 0 0
vt 0 0
vt 0 0
vt 0 0
vt 0 0
vt 0 0
vt 0 0
vt 0 0
vt 0 0
vt 0 0
vt 0 0
vt 0 0
vt 0 0
vt 0 0
vn -0.1636436 0.06502783 -0.984374
vn -0.1833668 -0.05331111 -0.981598
vn -0.1110485 0.1570692 -0.9813244
vn -0.7421894 -0.2242451 -0.6315607
vn -0.8079332 0.3148544 -0.498107
vn -0.1110485 -0.1453525 -0.9831281
vn 0.0007160306 -0.1979476 -0.9802123
vn -0.5318091 -0.684452 -0.4987029
vn 0.0007160306 -0.7830678 -0.621936
vn -0.5252347 -0.6713032 0.5229536
vn -0.68302 -0.2045219 0.7011808
vn 0.0007160306 -0.7238983 0.6899064
vn 0.0007160306 -0.1190549 0.9928874
vn -0.07160223 -0.08618301 0.9937029
vn -0.4331933 0.6238505 -0.650503
vn -0.7947845 0.3082801 0.5227628
vn -0.1176229 -0.03358793 0.9924902
vn -0.06502783 0.09789973 0.9930695
vn -0.09789973 0.03873032 0.9944423
vn -0.3937471 0.5646811 0.7253265
vn 0.0007160306 0.170218 -0.9854062
vn 0.0007160306 0.8671027 -0.4981288
vn 0.0007160306 0.853954 0.5203481
vn 0.1059061 0.1570692 -0.9818926
vn 0.0007160306 0.1044741 0.9945273
vn 0.4346254 0.6238505 -0.649547
vn 0.3951791 0.5646811 0.7245473
vn 0.06645983 0.09789973 0.9929747
vn 0.1650756 0.06502783 -0.9841349
vn 0.8093653 0.3148544 -0.4957767
vn 0.1847988 -0.05331111 -0.9813294
vn 0.7962165 0.3082801 0.5205792
vn 0.7436214 -0.2242451 -0.6298741
vn 0.1124805 -0.1453525 -0.9829653
vn 0.5332412 -0.684452 -0.4971714
vn 0.6778776 -0.2045219 0.7061535
vn 0.5266668 -0.6713032 0.5215114
vn 0.0993318 0.03873032 0.9943003
vn 0.1124805 -0.03358793 0.9930861
vn 0.06645983 -0.08618301 0.9940602
g Stella_0
f 3/3/3 2/2/2 1/1/1
f 2/2/2 4/4/4 1/1/1
f 1/1/1 5/5/5 3/3/3
f 4/4/4 5/5/5 1/1/1
f 6/6/6 2/2/2 3/3/3
f 7/7/7 6/6/6 3/3/3
f 6/6/6 8/8/8 2/2/2
f 8/8/8 4/4/4 2/2/2
f 7/7/7 9/9/9 6/6/6
f 9/9/9 8/8/8 6/6/6
f 8/8/8 10/10/10 4/4/4
f 4/4/4 11/11/11 5/5/5
f 10/10/10 11/11/11 4/4/4
f 9/9/9 12/12/12 8/8/8
f 12/12/12 10/10/10 8/8/8
f 10/10/10 12/12/12 13/13/13
f 11/11/11 10/10/10 14/14/14
f 14/14/14 10/10/10 13/13/13
f 5/5/5 15/15/15 3/3/3
f 11/11/11 16/16/16 5/5/5
f 5/5/5 16/16/16 15/15/15
f 17/17/17 11/11/11 14/14/14
f 16/16/16 11/11/11 17/17/17
f 18/18/18 17/17/17 14/14/14
f 18/18/18 14/14/14 13/13/13
f 19/19/19 16/16/16 17/17/17
f 17/17/17 18/18/18 19/19/19
f 20/20/20 16/16/16 19/19/19
f 16/16/16 20/20/20 15/15/15
f 18/18/18 20/20/20 19/19/19
f 3/3/3 15/15/15 21/21/21
f 7/7/7 3/3/3 21/21/21
f 15/15/15 20/20/20 22/22/22
f 15/15/15 22/22/22 21/21/21
f 23/23/23 20/20/20 18/18/18
f 20/20/20 23/23/23 22/22/22
f 21/21/21 22/22/22 24/24/24
f 7/7/7 21/21/21 24/24/24
f 25/25/25 18/18/18 13/13/13
f 25/25/25 23/23/23 18/18/18
f 22/22/22 23/23/23 26/26/26
f 22/22/22 26/26/26 24/24/24
f 27/27/27 23/23/23 25/25/25
f 23/23/23 27/27/27 26/26/26
f 28/28/28 25/25/25 13/13/13
f 28/28/28 27/27/27 25/25/25
f 24/24/24 26/26/26 29/29/29
f 26/26/26 27/27/27 30/30/30
f 26/26/26 30/30/30 29/29/29
f 29/29/29 31/31/31 24/24/24
f 7/7/7 24/24/24 31/31/31
f 29/29/29 30/30/30 31/31/31
f 27/27/27 32/32/32 30/30/30
f 32/32/32 27/27/27 28/28/28
f 30/30/30 33/33/33 31/31/31
f 30/30/30 32/32/32 33/33/33
f 31/31/31 34/34/34 7/7/7
f 31/31/31 33/33/33 34/34/34
f 34/34/34 35/35/35 7/7/7
f 33/33/33 35/35/35 34/34/34
f 35/35/35 9/9/9 7/7/7
f 32/32/32 36/36/36 33/33/33
f 33/33/33 36/36/36 35/35/35
f 35/35/35 37/37/37 9/9/9
f 36/36/36 37/37/37 35/35/35
f 37/37/37 12/12/12 9/9/9
f 38/38/38 32/32/32 28/28/28
f 36/36/36 32/32/32 38/38/38
f 39/39/39 38/38/38 28/28/28
f 39/39/39 36/36/36 38/38/38
f 37/37/37 36/36/36 39/39/39
f 39/39/39 28/28/28 13/13/13
f 12/12/12 37/37/37 40/40/40
f 13/13/13 12/12/12 40/40/40
f 13/13/13 40/40/40 39/39/39
f 40/40/40 37/37/37 39/39/39
