g Tastiera
v -3.268994 0.1219068 4.727623
v -3.280699 0.09357075 4.726981
v -3.279486 0.09357075 2.510844
v -3.267995 0.1219068 2.512842
v -3.240729 0.1336124 4.72905
v -3.267995 0.06530606 2.512842
v -3.268994 0.06530606 4.727623
v -3.240087 0.1336124 2.517624
v -3.212536 0.1219068 4.730549
v -3.240087 0.05360049 2.517624
v -3.240729 0.05360049 4.72905
v -3.21225 0.1219068 2.522478
v -3.20083 0.09357075 4.731192
v -3.21225 0.06530606 2.522478
v -3.212536 0.06530606 4.730549
v -3.200688 0.09357075 2.524477
v -3.231308 0.09357075 2.23405
v -3.220173 0.06530606 2.237618
v -3.220173 0.1219068 2.237618
v -3.193193 0.05360049 2.246184
v -3.193193 0.1336124 2.246184
v -3.166285 0.1219068 2.25482
v -3.155079 0.09357075 2.258389
v -3.166285 0.06530606 2.25482
v -3.114323 0.09357075 1.924209
v -3.103831 0.06530606 1.929348
v -3.103831 0.1219068 1.929348
v -3.07835 0.1336124 1.941696
v -3.07835 0.05360049 1.941696
v -3.05294 0.1219068 1.954044
v -3.042377 0.09357075 1.959183
v -3.05294 0.06530606 1.954044
v -3.028673 0.09357075 1.695664
v -3.018894 0.06530606 1.702088
v -3.018894 0.1219068 1.702088
v -2.99534 0.1336124 1.717719
v -2.99534 0.05360049 1.717719
v -2.971715 0.1219068 1.733279
v -2.961937 0.09357075 1.739774
v -2.971715 0.06530606 1.733279
v -2.995483 0.09357075 1.495813
v -2.984206 0.06530606 1.499025
v -2.984206 0.1219068 1.499025
v -2.957083 0.1336124 1.506805
v -2.957083 0.05360049 1.506805
v -2.929889 0.1219068 1.514656
v -2.918612 0.09357075 1.517868
v -2.929889 0.06530606 1.514656
v -2.998981 0.09357075 1.327438
v -2.987275 0.06530606 1.328152
v -2.987275 0.1219068 1.328152
v -2.959082 0.1336124 1.329865
v -2.959082 0.05360049 1.329865
v -2.930817 0.1219068 1.331578
v -2.919111 0.09357075 1.332292
v -2.930817 0.06530606 1.331578
v -3.019965 0.09357075 1.190826
v -3.007189 0.06530606 1.187186
v -3.007189 0.1219068 1.187186
v -2.978282 0.1336124 1.179763
v -2.978282 0.05360049 1.179763
v -2.950874 0.1219068 1.172982
v -2.939453 0.09357075 1.170198
v -2.950874 0.06530606 1.172982
v -3.042948 0.09357075 1.047504
v -3.031242 0.06530606 1.047076
v -3.031242 0.1219068 1.047076
v -3.002978 0.1336124 1.046005
v -3.002978 0.05360049 1.046005
v -2.974713 0.1219068 1.044934
v -2.963007 0.09357075 1.044506
v -2.974713 0.06530606 1.044934
v -3.01968 0.09357075 0.9172437
v -3.008688 0.06530606 0.9219545
v -3.008688 0.1219068 0.9219545
v -2.982279 0.1336124 0.9334459
v -2.982279 0.05360049 0.9334459
v -2.956012 0.1219068 0.9445804
v -2.944949 0.09357075 0.9489344
v -2.956012 0.06530606 0.9445804
v -2.973785 0.09357075 0.8286667
v -2.962651 0.06530606 0.8334488
v -2.962651 0.1219068 0.8334488
v -2.935171 0.1334696 0.8449403
v -2.935171 0.05374324 0.8449403
v -2.907263 0.1215499 0.8565031
v -2.894773 0.09357075 0.8623559
v -2.907263 0.06566294 0.8565031
v -2.880926 0.09357075 0.7549359
v -2.873003 0.06687632 0.7645001
v -2.873003 0.1203365 0.7645001
v -2.85523 0.1313284 0.7876972
v -2.85523 0.05581313 0.7876972
v -2.8386 0.1203365 0.8108228
v -2.831748 0.09357075 0.8209581
v -2.8386 0.06687632 0.8108228
v -2.759659 0.09357075 0.7166786
v -2.759444 0.1218354 0.7284555
v -2.759444 0.06537744 0.7284555
v -2.759516 0.1331841 0.7570771
v -2.759516 0.05402874 0.7570771
v -2.759016 0.1213358 0.7856273
v -2.759016 0.06587707 0.7856273
v -2.758517 0.09357075 0.7974756
vt 0.5492097 0.04302717
vt 0.5492097 0.04302717
vt 0.5830041 0.04302717
vt 0.5830041 0.04302717
vt 0.5492097 0.04302717
vt 0.5830041 0.04302717
vt 0.5492097 0.04302717
vt 0.5822694 0.04302717
vt 0.548475 0.04302717
vt 0.5822694 0.04302717
vt 0.5492097 0.04302717
vt 0.5822694 0.04302717
vt 0.548475 0.04302717
vt 0.5822694 0.04302717
vt 0.548475 0.04302717
vt 0.5815348 0.04302717
vt 0.6109213 0.04302717
vt 0.6109213 0.04302717
vt 0.6109213 0.04302717
vt 0.6101866 0.04302717
vt 0.6101866 0.04302717
vt 0.6087173 0.04302717
vt 0.6087173 0.04302717
vt 0.6087173 0.04302717
vt 0.6336958 0.04302717
vt 0.6329612 0.04302717
vt 0.6329612 0.04302717
vt 0.6322265 0.04302717
vt 0.6322265 0.04302717
vt 0.6307572 0.04302717
vt 0.6300225 0.04302717
vt 0.6307572 0.04302717
vt 0.6520624 0.04302717
vt 0.6513277 0.04302717
vt 0.6513277 0.04302717
vt 0.6498584 0.04302717
vt 0.6498584 0.04302717
vt 0.6483891 0.04302717
vt 0.6476544 0.04302717
vt 0.6483891 0.04302717
vt 0.6674903 0.04302717
vt 0.6667557 0.04302717
vt 0.6667557 0.04302717
vt 0.6652863 0.04302717
vt 0.6652863 0.04302717
vt 0.6630824 0.04302717
vt 0.6623477 0.04302717
vt 0.6630824 0.04302717
vt 0.6814489 0.04302717
vt 0.6807142 0.04302717
vt 0.6807142 0.04302717
vt 0.6785102 0.04302717
vt 0.6785102 0.04302717
vt 0.6763062 0.04302717
vt 0.6755716 0.04302717
vt 0.6763062 0.04302717
vt 0.6946728 0.04302717
vt 0.6939381 0.04302717
vt 0.6939381 0.04302717
vt 0.6917342 0.04302717
vt 0.6917342 0.04302717
vt 0.6895302 0.04302717
vt 0.6887955 0.04302717
vt 0.6895302 0.04302717
vt 0.7078968 0.04302717
vt 0.7071621 0.04302717
vt 0.7071621 0.04302717
vt 0.7056928 0.04302717
vt 0.7056928 0.04302717
vt 0.7042235 0.04302717
vt 0.7034888 0.04302717
vt 0.7042235 0.04302717
vt 0.7233247 0.04302717
vt 0.7233247 0.04302717
vt 0.7233247 0.04302717
vt 0.7218553 0.04302717
vt 0.7218553 0.04302717
vt 0.720386 0.04302717
vt 0.720386 0.04302717
vt 0.720386 0.04302717
vt 0.7424259 0.04302717
vt 0.7416912 0.04302717
vt 0.7416912 0.04302717
vt 0.7409565 0.04302717
vt 0.7409565 0.04302717
vt 0.7402219 0.04302717
vt 0.7402219 0.04302717
vt 0.7402219 0.04302717
vt 0.7652004 0.04302717
vt 0.7652004 0.04302717
vt 0.7652004 0.04302717
vt 0.7652004 0.04302717
vt 0.7652004 0.04302717
vt 0.7644657 0.04302717
vt 0.7644657 0.04302717
vt 0.7644657 0.04302717
vt 0.7938523 0.04302717
vt 0.7938523 0.04302717
vt 0.7938523 0.04302717
vt 0.794587 0.04302717
vt 0.794587 0.04302717
vt 0.794587 0.04302717
vt 0.794587 0.04302717
vt 0.794587 0.04302717
vn -0.7019553 0.7097985 -0.05869336
vn -0.9999923 0.003921509 -0.0003449296
vn -0.9999923 0.003921509 -0.0003449296
vn -0.7176415 0.6941123 -0.05655822
vn 0.01176392 0.9999309 0
vn -0.7176415 -0.6941124 -0.05655743
vn -0.7019553 -0.7097985 -0.05869285
vn -0.01960405 0.9998079 0
vn 0.7148765 0.6992507 0
vn -0.01960405 -0.9998079 0
vn 0.01176392 -0.9999309 0
vn 0.6941124 0.7176415 0.05655743
vn 0.9999924 0.003921509 0
vn 0.6941124 -0.7176416 0.05655585
vn 0.7148765 -0.6992508 0
vn 0.9999924 0.003921509 0
vn -0.9607769 0.003921509 -0.2772946
vn -0.6941123 -0.6941124 -0.1908302
vn -0.6941123 0.6941123 -0.1908305
vn -0.01960405 -0.9998079 0
vn -0.01960405 0.9998079 0
vn 0.6705831 0.7176415 0.1879068
vn 0.9686201 0.003921509 0.2485151
vn 0.6705831 -0.7176416 0.1879063
vn -0.9372476 0.003921509 -0.3486424
vn -0.66274 -0.7019554 -0.2608338
vn -0.66274 0.7019553 -0.2608341
vn 0.003921568 0.9999923 -0.000345267
vn 0.003921568 -0.9999924 0
vn 0.6627401 0.7019553 0.260834
vn 0.9372478 0.003921509 0.3486421
vn 0.6627401 -0.7019554 0.2608337
vn -0.9686199 0.003921509 -0.2485156
vn -0.6784261 -0.7097985 -0.1895363
vn -0.6784261 0.7097985 -0.1895365
vn 0.01960411 0.9998079 0
vn 0.01960411 -0.9998079 0
vn 0.6941124 0.6941123 0.1908301
vn 0.960777 0.003921509 0.2772944
vn 0.6941124 -0.6941124 0.1908299
vn -0.9999923 0.003921509 -0.0003449296
vn -0.7019553 -0.7097985 -0.05869285
vn -0.7019553 0.7097985 -0.05869336
vn 0.01960411 0.9998079 0
vn 0.01960411 -0.9998079 0
vn 0.7254847 0.6862692 0.05202516
vn 0.9921493 0.003921509 0.1249976
vn 0.7254847 -0.6862693 0.05202344
vn -0.9999923 0.003921509 -0.0003449296
vn -0.6941123 -0.7176416 0.0565569
vn -0.6941123 0.7176415 0.05655848
vn 0.01960411 0.9998079 0
vn 0.01960411 -0.9998079 0
vn 0.7176416 0.6941123 -0.05655664
vn 0.9999924 0.003921509 0
vn 0.7176416 -0.6941124 -0.05655585
vn -0.9843061 0.003921509 0.176426
vn -0.6862692 -0.7176416 0.1184278
vn -0.6862692 0.7176415 0.1184286
vn 0.01176392 0.9999309 0
vn 0.01176392 -0.9999309 0
vn 0.7019554 0.7019553 -0.1204877
vn 0.9843062 0.003921509 -0.1764254
vn 0.7019554 -0.7019554 -0.1204869
vn -0.9999923 0.003921509 -0.0003449296
vn -0.7176415 -0.6941124 -0.05655743
vn -0.7176415 0.6941123 -0.05655822
vn -0.04309709 0.9990709 0
vn -0.04309709 -0.9990709 0
vn 0.6784262 0.7333276 0.04436714
vn 0.9999924 0.003921509 0
vn 0.6784262 -0.7333277 0.0443658
vn -0.9450908 0.003921509 -0.3267844
vn -0.6784261 -0.6941124 -0.2407197
vn -0.6784261 0.6941123 -0.2407199
vn -0.03527213 0.9993777 0
vn -0.03527213 -0.9993777 0
vn 0.6392108 0.7333276 0.2316034
vn 0.9372478 0.003921509 0.3486421
vn 0.6392108 -0.7333277 0.2316031
vn -0.7803861 0.003921509 -0.6252857
vn -0.5529369 -0.6941124 -0.4609434
vn -0.5529369 0.6941123 -0.4609435
vn -0.02744056 0.9996234 0
vn -0.02744055 -0.9996234 0
vn 0.4901924 0.7568569 0.4322951
vn 0.7176416 0.003921509 0.6964016
vn 0.4901924 -0.756857 0.432295
vn -0.4745061 0.003921509 -0.8802435
vn -0.3333308 -0.6862693 -0.6464713
vn -0.3333308 0.6862692 -0.6464714
vn -0.0117638 0.9999309 0
vn -0.0117638 -0.9999309 0
vn 0.2941154 0.7333276 0.6129655
vn 0.4274477 0.003921509 0.9040315
vn 0.2941154 -0.7333277 0.6129654
vn -0.3019584 0.003921509 -0.9533131
vn -0.2313707 0.670583 -0.7048305
vn -0.2313707 -0.6705831 -0.7048303
vn -0.03527213 0.9993777 0
vn -0.03527213 -0.9993777 0
vn 0.1921554 0.7411708 0.6432279
vn 0.1921554 -0.7411708 0.6432279
vn 0.3019585 0.003921509 0.953313
g Tastiera_0
f 3/3/3 2/2/2 1/1/1
f 4/4/4 3/3/3 1/1/1
f 4/4/4 1/1/1 5/5/5
f 3/3/3 6/6/6 2/2/2
f 6/6/6 7/7/7 2/2/2
f 8/8/8 4/4/4 5/5/5
f 8/8/8 5/5/5 9/9/9
f 6/6/6 10/10/10 7/7/7
f 10/10/10 11/11/11 7/7/7
f 12/12/12 8/8/8 9/9/9
f 12/12/12 9/9/9 13/13/13
f 10/10/10 14/14/14 11/11/11
f 14/14/14 15/15/15 11/11/11
f 16/16/16 13/13/13 15/15/15
f 16/16/16 12/12/12 13/13/13
f 14/14/14 16/16/16 15/15/15
f 17/17/17 3/3/3 4/4/4
f 18/18/18 6/6/6 3/3/3
f 17/17/17 18/18/18 3/3/3
f 19/19/19 4/4/4 8/8/8
f 19/19/19 17/17/17 4/4/4
f 20/20/20 10/10/10 6/6/6
f 18/18/18 20/20/20 6/6/6
f 21/21/21 8/8/8 12/12/12
f 21/21/21 19/19/19 8/8/8
f 22/22/22 12/12/12 16/16/16
f 22/22/22 21/21/21 12/12/12
f 23/23/23 16/16/16 14/14/14
f 23/23/23 22/22/22 16/16/16
f 24/24/24 14/14/14 10/10/10
f 20/20/20 24/24/24 10/10/10
f 24/24/24 23/23/23 14/14/14
f 25/25/25 17/17/17 19/19/19
f 26/26/26 18/18/18 17/17/17
f 25/25/25 26/26/26 17/17/17
f 27/27/27 19/19/19 21/21/21
f 27/27/27 25/25/25 19/19/19
f 28/28/28 21/21/21 22/22/22
f 28/28/28 27/27/27 21/21/21
f 29/29/29 20/20/20 18/18/18
f 26/26/26 29/29/29 18/18/18
f 30/30/30 22/22/22 23/23/23
f 30/30/30 28/28/28 22/22/22
f 31/31/31 23/23/23 24/24/24
f 31/31/31 30/30/30 23/23/23
f 32/32/32 24/24/24 20/20/20
f 29/29/29 32/32/32 20/20/20
f 32/32/32 31/31/31 24/24/24
f 33/33/33 25/25/25 27/27/27
f 34/34/34 26/26/26 25/25/25
f 33/33/33 34/34/34 25/25/25
f 35/35/35 27/27/27 28/28/28
f 35/35/35 33/33/33 27/27/27
f 36/36/36 28/28/28 30/30/30
f 36/36/36 35/35/35 28/28/28
f 37/37/37 29/29/29 26/26/26
f 34/34/34 37/37/37 26/26/26
f 38/38/38 30/30/30 31/31/31
f 38/38/38 36/36/36 30/30/30
f 39/39/39 31/31/31 32/32/32
f 39/39/39 38/38/38 31/31/31
f 40/40/40 32/32/32 29/29/29
f 37/37/37 40/40/40 29/29/29
f 40/40/40 39/39/39 32/32/32
f 41/41/41 33/33/33 35/35/35
f 42/42/42 34/34/34 33/33/33
f 41/41/41 42/42/42 33/33/33
f 43/43/43 35/35/35 36/36/36
f 43/43/43 41/41/41 35/35/35
f 44/44/44 36/36/36 38/38/38
f 44/44/44 43/43/43 36/36/36
f 45/45/45 37/37/37 34/34/34
f 42/42/42 45/45/45 34/34/34
f 46/46/46 38/38/38 39/39/39
f 46/46/46 44/44/44 38/38/38
f 47/47/47 39/39/39 40/40/40
f 47/47/47 46/46/46 39/39/39
f 48/48/48 40/40/40 37/37/37
f 45/45/45 48/48/48 37/37/37
f 48/48/48 47/47/47 40/40/40
f 49/49/49 41/41/41 43/43/43
f 50/50/50 42/42/42 41/41/41
f 49/49/49 50/50/50 41/41/41
f 51/51/51 43/43/43 44/44/44
f 51/51/51 49/49/49 43/43/43
f 52/52/52 44/44/44 46/46/46
f 52/52/52 51/51/51 44/44/44
f 53/53/53 45/45/45 42/42/42
f 50/50/50 53/53/53 42/42/42
f 54/54/54 46/46/46 47/47/47
f 54/54/54 52/52/52 46/46/46
f 55/55/55 47/47/47 48/48/48
f 55/55/55 54/54/54 47/47/47
f 56/56/56 48/48/48 45/45/45
f 53/53/53 56/56/56 45/45/45
f 56/56/56 55/55/55 48/48/48
f 57/57/57 49/49/49 51/51/51
f 58/58/58 50/50/50 49/49/49
f 57/57/57 58/58/58 49/49/49
f 59/59/59 51/51/51 52/52/52
f 59/59/59 57/57/57 51/51/51
f 60/60/60 52/52/52 54/54/54
f 60/60/60 59/59/59 52/52/52
f 61/61/61 53/53/53 50/50/50
f 58/58/58 61/61/61 50/50/50
f 62/62/62 54/54/54 55/55/55
f 62/62/62 60/60/60 54/54/54
f 63/63/63 55/55/55 56/56/56
f 63/63/63 62/62/62 55/55/55
f 64/64/64 56/56/56 53/53/53
f 61/61/61 64/64/64 53/53/53
f 64/64/64 63/63/63 56/56/56
f 65/65/65 57/57/57 59/59/59
f 66/66/66 58/58/58 57/57/57
f 65/65/65 66/66/66 57/57/57
f 67/67/67 59/59/59 60/60/60
f 67/67/67 65/65/65 59/59/59
f 68/68/68 60/60/60 62/62/62
f 68/68/68 67/67/67 60/60/60
f 69/69/69 61/61/61 58/58/58
f 66/66/66 69/69/69 58/58/58
f 70/70/70 62/62/62 63/63/63
f 70/70/70 68/68/68 62/62/62
f 71/71/71 63/63/63 64/64/64
f 71/71/71 70/70/70 63/63/63
f 72/72/72 64/64/64 61/61/61
f 69/69/69 72/72/72 61/61/61
f 72/72/72 71/71/71 64/64/64
f 73/73/73 65/65/65 67/67/67
f 74/74/74 66/66/66 65/65/65
f 73/73/73 74/74/74 65/65/65
f 75/75/75 67/67/67 68/68/68
f 75/75/75 73/73/73 67/67/67
f 76/76/76 68/68/68 70/70/70
f 76/76/76 75/75/75 68/68/68
f 77/77/77 69/69/69 66/66/66
f 74/74/74 77/77/77 66/66/66
f 78/78/78 70/70/70 71/71/71
f 78/78/78 76/76/76 70/70/70
f 79/79/79 71/71/71 72/72/72
f 79/79/79 78/78/78 71/71/71
f 80/80/80 72/72/72 69/69/69
f 77/77/77 80/80/80 69/69/69
f 80/80/80 79/79/79 72/72/72
f 81/81/81 73/73/73 75/75/75
f 82/82/82 74/74/74 73/73/73
f 81/81/81 82/82/82 73/73/73
f 83/83/83 75/75/75 76/76/76
f 83/83/83 81/81/81 75/75/75
f 84/84/84 76/76/76 78/78/78
f 84/84/84 83/83/83 76/76/76
f 85/85/85 77/77/77 74/74/74
f 82/82/82 85/85/85 74/74/74
f 86/86/86 78/78/78 79/79/79
f 86/86/86 84/84/84 78/78/78
f 87/87/87 79/79/79 80/80/80
f 87/87/87 86/86/86 79/79/79
f 88/88/88 80/80/80 77/77/77
f 85/85/85 88/88/88 77/77/77
f 88/88/88 87/87/87 80/80/80
f 89/89/89 81/81/81 83/83/83
f 90/90/90 82/82/82 81/81/81
f 89/89/89 90/90/90 81/81/81
f 91/91/91 83/83/83 84/84/84
f 91/91/91 89/89/89 83/83/83
f 92/92/92 84/84/84 86/86/86
f 92/92/92 91/91/91 84/84/84
f 93/93/93 85/85/85 82/82/82
f 90/90/90 93/93/93 82/82/82
f 94/94/94 86/86/86 87/87/87
f 94/94/94 92/92/92 86/86/86
f 95/95/95 87/87/87 88/88/88
f 95/95/95 94/94/94 87/87/87
f 96/96/96 88/88/88 85/85/85
f 93/93/93 96/96/96 85/85/85
f 96/96/96 95/95/95 88/88/88
f 97/97/97 89/89/89 91/91/91
f 98/98/98 97/97/97 91/91/91
f 98/98/98 91/91/91 92/92/92
f 97/97/97 99/99/99 89/89/89
f 99/99/99 90/90/90 89/89/89
f 100/100/100 98/98/98 92/92/92
f 100/100/100 92/92/92 94/94/94
f 99/99/99 101/101/101 90/90/90
f 101/101/101 93/93/93 90/90/90
f 102/102/102 100/100/100 94/94/94
f 102/102/102 94/94/94 95/95/95
f 101/101/101 103/103/103 93/93/93
f 103/103/103 96/96/96 93/93/93
f 104/104/104 102/102/102 95/95/95
f 104/104/104 95/95/95 96/96/96
f 103/103/103 104/104/104 96/96/96
