g Tastiera.020
v 0.1591214 0.1684819 0.1872033
v 0.009358719 0.1684819 0.1872033
v 0.0842441 0.2651002 0.1684819
v 0.0842441 0.2651002 0.1684819
v 0.009358719 0.1684819 0.1872033
v 0.03275838 0.2668636 0.1684819
v 0.03275838 0.2668636 -0.09360075
v 0.009358719 0.1684819 -0.1497567
v 0.0842441 0.2651002 -0.09360075
v 0.0842441 0.2651002 -0.09360075
v 0.009358719 0.1684819 -0.1497567
v 0.1591214 0.1684819 -0.1497567
v 0.1357218 0.2668636 0.1684819
v 0.1591214 0.1684819 0.1872033
v 0.0842441 0.2651002 0.1684819
v 0.0842441 0.2651002 -0.09360075
v 0.1591214 0.1684819 -0.1497567
v 0.1357218 0.2668636 -0.09360075
v -0.0374406 0.2749802 -0.07487941
v -0.03601536 0.2747467 0.1569271
v -0.0374406 0.2749802 0.1497606
v -0.03601536 0.2747467 -0.08204585
v -0.03195706 0.2741106 -0.0881172
v -0.03195706 0.2741106 0.1629984
v -0.0258857 0.2731927 -0.09217551
v -0.0258857 0.2731927 0.1670567
v -0.01871926 0.27217 -0.09360075
v -0.01871926 0.27217 0.1684819
v 0.03275838 0.2668636 0.1684819
v 0.03275838 0.2668636 -0.09360075
v 0.0842441 0.2651002 -0.09360075
v 0.0842441 0.2651002 0.1684819
v 0.1357218 0.2668636 -0.09360075
v 0.1357218 0.2668636 0.1684819
v 0.1871994 0.27217 -0.09360075
v 0.1871994 0.27217 0.1684819
v 0.1943659 0.2731927 0.1670567
v 0.1943659 0.2731927 -0.09217551
v 0.2004372 0.2741106 0.1629984
v 0.2004372 0.2741106 -0.0881172
v 0.2044955 0.2747467 0.1569271
v 0.2044955 0.2747467 -0.08204585
v 0.2059208 0.2749802 0.1497606
v 0.2059208 0.2749802 -0.07487941
v 0.03275838 0.2668636 0.1684819
v 0.009358719 0.1684819 0.1872033
v -0.06551859 0.1684819 0.1872033
v -0.01871926 0.27217 0.1684819
v 0.2339987 0.1684819 0.1872033
v 0.1591214 0.1684819 0.1872033
v 0.1357218 0.2668636 0.1684819
v 0.1871994 0.27217 0.1684819
v -0.06551859 0.1684819 -0.1497567
v 0.009358719 0.1684819 -0.1497567
v 0.03275838 0.2668636 -0.09360075
v -0.01871926 0.27217 -0.09360075
v 0.1357218 0.2668636 -0.09360075
v 0.1591214 0.1684819 -0.1497567
v 0.2339987 0.1684819 -0.1497567
v 0.1871994 0.27217 -0.09360075
v 0.2004372 0.2741106 -0.0881172
v 0.2472365 0.1684819 -0.1442732
v 0.2512949 0.1684819 -0.1382018
v 0.2044955 0.2747467 -0.08204585
v 0.1943659 0.2731927 -0.09217551
v 0.2411652 0.1684819 -0.1483315
v 0.2472365 0.1684819 -0.1442732
v 0.2004372 0.2741106 -0.0881172
v 0.1871994 0.27217 -0.09360075
v 0.2339987 0.1684819 -0.1497567
v 0.2411652 0.1684819 -0.1483315
v 0.1943659 0.2731927 -0.09217551
v -0.07268503 0.1684819 -0.1483315
v -0.06551859 0.1684819 -0.1497567
v -0.01871926 0.27217 -0.09360075
v -0.0258857 0.2731927 -0.09217551
v -0.07875639 0.1684819 -0.1442732
v -0.07268503 0.1684819 -0.1483315
v -0.0258857 0.2731927 -0.09217551
v -0.03195706 0.2741106 -0.0881172
v -0.08281469 0.1684819 -0.1382018
v -0.07875639 0.1684819 -0.1442732
v -0.03195706 0.2741106 -0.0881172
v -0.03601536 0.2747467 -0.08204585
v -0.08423993 0.1684819 -0.1310434
v -0.08281469 0.1684819 -0.1382018
v -0.03601536 0.2747467 -0.08204585
v -0.0374406 0.2749802 -0.07487941
v -0.08423993 0.1684819 0.1684819
v -0.08423993 0.1684819 -0.1310434
v -0.0374406 0.2749802 -0.07487941
v -0.0374406 0.2749802 0.1497606
v -0.08281469 0.1684819 0.1756403
v -0.08423993 0.1684819 0.1684819
v -0.0374406 0.2749802 0.1497606
v -0.03601536 0.2747467 0.1569271
v -0.07875639 0.1684819 0.1817198
v -0.08281469 0.1684819 0.1756403
v -0.03601536 0.2747467 0.1569271
v -0.03195706 0.2741106 0.1629984
v -0.07268503 0.1684819 0.1857781
v -0.07875639 0.1684819 0.1817198
v -0.03195706 0.2741106 0.1629984
v -0.0258857 0.2731927 0.1670567
v -0.06551859 0.1684819 0.1872033
v -0.07268503 0.1684819 0.1857781
v -0.0258857 0.2731927 0.1670567
v -0.01871926 0.27217 0.1684819
v 0.1943659 0.2731927 0.1670567
v 0.2411652 0.1684819 0.1857781
v 0.2339987 0.1684819 0.1872033
v 0.1871994 0.27217 0.1684819
v 0.2004372 0.2741106 0.1629984
v 0.2472365 0.1684819 0.1817198
v 0.2411652 0.1684819 0.1857781
v 0.1943659 0.2731927 0.1670567
v 0.2044955 0.2747467 0.1569271
v 0.2512949 0.1684819 0.1756403
v 0.2472365 0.1684819 0.1817198
v 0.2004372 0.2741106 0.1629984
v 0.2059208 0.2749802 0.1497606
v 0.2527201 0.1684819 0.1684819
v 0.2512949 0.1684819 0.1756403
v 0.2044955 0.2747467 0.1569271
v 0.2059208 0.2749802 -0.07487941
v 0.2527201 0.1684819 -0.1310434
v 0.2527201 0.1684819 0.1684819
v 0.2059208 0.2749802 0.1497606
v 0.2044955 0.2747467 -0.08204585
v 0.2512949 0.1684819 -0.1382018
v 0.2527201 0.1684819 -0.1310434
v 0.2059208 0.2749802 -0.07487941
vt 0.8808087 0.5192716
vt 0.953492 0.665265
vt 0.953492 0.5192716
vt 0.8808087 0.5192716
vt 0.953492 0.665265
vt 0.953492 0.5192716
vt 0.8808087 0.5192716
vt 0.953492 0.665265
vt 0.953492 0.5192716
vt 0.8808087 0.5192716
vt 0.953492 0.665265
vt 0.953492 0.5192716
vt 0.8808087 0.5192716
vt 0.953492 0.665265
vt 0.953492 0.5192716
vt 0.8808087 0.5192716
vt 0.953492 0.665265
vt 0.953492 0.5192716
vt 0.3751581 0.5086198
vt 0.3745315 0.6195245
vt 0.3751581 0.6157651
vt 0.3745315 0.5054868
vt 0.3739049 0.502354
vt 0.3739049 0.6226574
vt 0.3720252 0.5004742
vt 0.3720252 0.6245372
vt 0.3701454 0.4998477
vt 0.3701454 0.6251638
vt 0.3569872 0.6251638
vt 0.3569872 0.4998477
vt 0.343829 0.4998477
vt 0.343829 0.6251638
vt 0.3306708 0.4998477
vt 0.3306708 0.6251638
vt 0.3175126 0.4998477
vt 0.3175126 0.6251638
vt 0.3156329 0.6245372
vt 0.3156329 0.5004742
vt 0.3137532 0.6226574
vt 0.3137532 0.502354
vt 0.3131266 0.6195245
vt 0.3131266 0.5054868
vt 0.3125 0.6157651
vt 0.3125 0.5086198
vt 0.8808087 0.5192716
vt 0.8808087 0.665265
vt 0.953492 0.665265
vt 0.953492 0.5192716
vt 0.8808087 0.5192716
vt 0.8808087 0.665265
vt 0.953492 0.665265
vt 0.953492 0.5192716
vt 0.8808087 0.5192716
vt 0.8808087 0.665265
vt 0.953492 0.665265
vt 0.953492 0.5192716
vt 0.8808087 0.5192716
vt 0.8808087 0.665265
vt 0.953492 0.665265
vt 0.953492 0.5192716
vt 0.8808087 0.5192716
vt 0.8808087 0.665265
vt 0.953492 0.665265
vt 0.953492 0.5192716
vt 0.8808087 0.5192716
vt 0.8808087 0.665265
vt 0.953492 0.665265
vt 0.953492 0.5192716
vt 0.8808087 0.5192716
vt 0.8808087 0.665265
vt 0.953492 0.665265
vt 0.953492 0.5192716
vt 0.8808087 0.5192716
vt 0.8808087 0.665265
vt 0.953492 0.665265
vt 0.953492 0.5192716
vt 0.8808087 0.5192716
vt 0.8808087 0.665265
vt 0.953492 0.665265
vt 0.953492 0.5192716
vt 0.8808087 0.5192716
vt 0.8808087 0.665265
vt 0.953492 0.665265
vt 0.953492 0.5192716
vt 0.8808087 0.5192716
vt 0.8808087 0.665265
vt 0.953492 0.665265
vt 0.953492 0.5192716
vt 0.8808087 0.5192716
vt 0.8808087 0.665265
vt 0.953492 0.665265
vt 0.953492 0.5192716
vt 0.8808087 0.5192716
vt 0.8808087 0.665265
vt 0.953492 0.665265
vt 0.953492 0.5192716
vt 0.8808087 0.5192716
vt 0.8808087 0.665265
vt 0.953492 0.665265
vt 0.953492 0.5192716
vt 0.8808087 0.5192716
vt 0.8808087 0.665265
vt 0.953492 0.665265
vt 0.953492 0.5192716
vt 0.8808087 0.5192716
vt 0.8808087 0.665265
vt 0.953492 0.665265
vt 0.953492 0.5192716
vt 0.8808087 0.5192716
vt 0.8808087 0.665265
vt 0.953492 0.665265
vt 0.953492 0.5192716
vt 0.8808087 0.5192716
vt 0.8808087 0.665265
vt 0.953492 0.665265
vt 0.953492 0.5192716
vt 0.8808087 0.5192716
vt 0.8808087 0.665265
vt 0.953492 0.665265
vt 0.953492 0.5192716
vt 0.8808087 0.5192716
vt 0.8808087 0.665265
vt 0.953492 0.665265
vt 0.953492 0.5192716
vt 0.8808087 0.5192716
vt 0.8808087 0.665265
vt 0.953492 0.665265
vt 0.953492 0.5192716
vt 0.8808087 0.5192716
vt 0.8808087 0.665265
vt 0.953492 0.665265
vt 0.953492 0.5192716
vn -0.00586623 0.1852586 0.9826723
vn 0.001608431 0.1852586 0.9826885
vn 0.001608431 0.1852586 0.9826885
vn 0.001608431 0.1852586 0.9826885
vn 0.001608431 0.1852586 0.9826885
vn 0.001608431 0.1852586 0.9826885
vn 0.009083092 0.4917204 -0.8707058
vn 0.009083092 0.4991951 -0.866442
vn 0.001608431 0.4991951 -0.8664882
vn 0.001608431 0.4991951 -0.8664882
vn 0.009083092 0.4991951 -0.866442
vn -0.00586623 0.4991951 -0.8664697
vn -0.00586623 0.1852586 0.9826723
vn -0.00586623 0.1852586 0.9826723
vn 0.001608431 0.1852586 0.9826885
vn 0.001608431 0.4991951 -0.8664882
vn -0.00586623 0.4991951 -0.8664697
vn -0.00586623 0.4917204 -0.8707334
vn 0.1585767 0.9850494 -0.06731378
vn 0.1585767 0.9850494 -0.06731378
vn 0.1585767 0.9850494 -0.06731378
vn 0.1585767 0.9850494 -0.06731378
vn 0.151102 0.9850494 -0.08274026
vn 0.151102 0.9850494 -0.08274026
vn 0.1432174 0.9896912 0
vn 0.1432174 0.9896912 0
vn 0.1212033 0.992524 -0.01434625
vn 0.1212033 0.992524 -0.01434625
vn 0.06871783 0.9976362 0
vn 0.06871783 0.9976362 0
vn 0.001608431 0.9999987 -0.0002441406
vn 0.001608431 0.9999987 -0.0002441406
vn -0.06552268 0.9978511 0
vn -0.06552268 0.9978511 0
vn -0.1179864 0.992524 -0.03122901
vn -0.1179864 0.992524 -0.03122901
vn -0.1473722 0.9890811 0
vn -0.1473722 0.9890811 0
vn -0.1553599 0.9850494 -0.07443848
vn -0.1553599 0.9850494 -0.07443848
vn -0.1553599 0.9850494 -0.07443848
vn -0.1553599 0.9850494 -0.07443848
vn -0.1628345 0.9850494 -0.05623773
vn -0.1628345 0.9850494 -0.05623773
vn 0.001608431 0.1852586 0.9826885
vn 0.001608431 0.1852586 0.9826885
vn -0.09556246 0.2226319 0.9702076
vn -0.09556246 0.2226319 0.9702076
vn 0.0913046 0.2226319 0.9706176
vn -0.00586623 0.1852586 0.9826723
vn -0.00586623 0.1852586 0.9826723
vn 0.0913046 0.2226319 0.9706176
vn -0.08061308 0.5141445 -0.8539069
vn 0.009083092 0.4991951 -0.866442
vn 0.009083092 0.4917204 -0.8707058
vn -0.08061308 0.5141445 -0.8539069
vn -0.00586623 0.4917204 -0.8707334
vn -0.00586623 0.4991951 -0.8664697
vn 0.08382988 0.5141445 -0.853597
vn 0.08382988 0.5141445 -0.853597
vn 0.5846335 0.5664673 -0.5807913
vn 0.5846335 0.5664673 -0.5807913
vn 0.7939245 0.5216192 -0.3124056
vn 0.7939245 0.5216192 -0.3124056
vn 0.315545 0.5589926 -0.7667846
vn 0.315545 0.5589926 -0.7667846
vn 0.5846335 0.5664673 -0.5807913
vn 0.5846335 0.5664673 -0.5807913
vn 0.08382988 0.5141445 -0.853597
vn 0.08382988 0.5141445 -0.853597
vn 0.315545 0.5589926 -0.7667846
vn 0.315545 0.5589926 -0.7667846
vn -0.3123281 0.5589926 -0.7681005
vn -0.08061308 0.5141445 -0.8539069
vn -0.08061308 0.5141445 -0.8539069
vn -0.3123281 0.5589926 -0.7681005
vn -0.5814166 0.5664673 -0.5840116
vn -0.3123281 0.5589926 -0.7681005
vn -0.3123281 0.5589926 -0.7681005
vn -0.5814166 0.5664673 -0.5840116
vn -0.7907077 0.5216192 -0.3204602
vn -0.5814166 0.5664673 -0.5840116
vn -0.5814166 0.5664673 -0.5840116
vn -0.7907077 0.5216192 -0.3204602
vn -0.8953532 0.4393977 -0.0726105
vn -0.7907077 0.5216192 -0.3204602
vn -0.7907077 0.5216192 -0.3204602
vn -0.8953532 0.4393977 -0.0726105
vn -0.9028279 0.4169737 0.1050465
vn -0.8953532 0.4393977 -0.0726105
vn -0.8953532 0.4393977 -0.0726105
vn -0.9028279 0.4169737 0.1050465
vn -0.8355558 0.4244484 0.348841
vn -0.9028279 0.4169737 0.1050465
vn -0.9028279 0.4169737 0.1050465
vn -0.8355558 0.4244484 0.348841
vn -0.6486888 0.4020243 0.6462038
vn -0.8355558 0.4244484 0.348841
vn -0.8355558 0.4244484 0.348841
vn -0.6486888 0.4020243 0.6462038
vn -0.3571762 0.3198029 0.8775827
vn -0.6486888 0.4020243 0.6462038
vn -0.6486888 0.4020243 0.6462038
vn -0.3571762 0.3198029 0.8775827
vn -0.09556246 0.2226319 0.9702076
vn -0.3571762 0.3198029 0.8775827
vn -0.3571762 0.3198029 0.8775827
vn -0.09556246 0.2226319 0.9702076
vn 0.360393 0.3198029 0.8762665
vn 0.360393 0.3198029 0.8762665
vn 0.0913046 0.2226319 0.9706176
vn 0.0913046 0.2226319 0.9706176
vn 0.6444309 0.4020243 0.6504501
vn 0.6444309 0.4020243 0.6504501
vn 0.360393 0.3198029 0.8762665
vn 0.360393 0.3198029 0.8762665
vn 0.8312979 0.4244484 0.3588695
vn 0.8312979 0.4244484 0.3588695
vn 0.6444309 0.4020243 0.6504501
vn 0.6444309 0.4020243 0.6504501
vn 0.9060447 0.4169737 0.07222128
vn 0.9060447 0.4169737 0.07222128
vn 0.8312979 0.4244484 0.3588695
vn 0.8312979 0.4244484 0.3588695
vn 0.8910953 0.4393977 -0.1134845
vn 0.8910953 0.4393977 -0.1134845
vn 0.9060447 0.4169737 0.07222128
vn 0.9060447 0.4169737 0.07222128
vn 0.7939245 0.5216192 -0.3124056
vn 0.7939245 0.5216192 -0.3124056
vn 0.8910953 0.4393977 -0.1134845
vn 0.8910953 0.4393977 -0.1134845
g Tastiera.020_0
f 3/3/3 2/2/2 1/1/1
f 6/6/6 5/5/5 4/4/4
f 9/9/9 8/8/8 7/7/7
f 12/12/12 11/11/11 10/10/10
f 15/15/15 14/14/14 13/13/13
f 18/18/18 17/17/17 16/16/16
f 21/21/21 20/20/20 19/19/19
f 20/20/20 22/22/22 19/19/19
f 22/22/22 20/20/20 23/23/23
f 20/20/20 24/24/24 23/23/23
f 23/23/23 24/24/24 25/25/25
f 24/24/24 26/26/26 25/25/25
f 25/25/25 26/26/26 27/27/27
f 26/26/26 28/28/28 27/27/27
f 27/27/27 28/28/28 29/29/29
f 30/30/30 27/27/27 29/29/29
f 31/31/31 30/30/30 29/29/29
f 32/32/32 31/31/31 29/29/29
f 33/33/33 31/31/31 32/32/32
f 34/34/34 33/33/33 32/32/32
f 33/33/33 34/34/34 35/35/35
f 34/34/34 36/36/36 35/35/35
f 35/35/35 36/36/36 37/37/37
f 38/38/38 35/35/35 37/37/37
f 38/38/38 37/37/37 39/39/39
f 40/40/40 38/38/38 39/39/39
f 40/40/40 39/39/39 41/41/41
f 42/42/42 40/40/40 41/41/41
f 41/41/41 43/43/43 42/42/42
f 43/43/43 44/44/44 42/42/42
f 47/47/47 46/46/46 45/45/45
f 48/48/48 47/47/47 45/45/45
f 51/51/51 50/50/50 49/49/49
f 52/52/52 51/51/51 49/49/49
f 55/55/55 54/54/54 53/53/53
f 56/56/56 55/55/55 53/53/53
f 59/59/59 58/58/58 57/57/57
f 60/60/60 59/59/59 57/57/57
f 63/63/63 62/62/62 61/61/61
f 64/64/64 63/63/63 61/61/61
f 67/67/67 66/66/66 65/65/65
f 68/68/68 67/67/67 65/65/65
f 71/71/71 70/70/70 69/69/69
f 72/72/72 71/71/71 69/69/69
f 75/75/75 74/74/74 73/73/73
f 76/76/76 75/75/75 73/73/73
f 79/79/79 78/78/78 77/77/77
f 80/80/80 79/79/79 77/77/77
f 83/83/83 82/82/82 81/81/81
f 84/84/84 83/83/83 81/81/81
f 87/87/87 86/86/86 85/85/85
f 88/88/88 87/87/87 85/85/85
f 91/91/91 90/90/90 89/89/89
f 92/92/92 91/91/91 89/89/89
f 95/95/95 94/94/94 93/93/93
f 96/96/96 95/95/95 93/93/93
f 99/99/99 98/98/98 97/97/97
f 100/100/100 99/99/99 97/97/97
f 103/103/103 102/102/102 101/101/101
f 104/104/104 103/103/103 101/101/101
f 107/107/107 106/106/106 105/105/105
f 108/108/108 107/107/107 105/105/105
f 111/111/111 110/110/110 109/109/109
f 112/112/112 111/111/111 109/109/109
f 115/115/115 114/114/114 113/113/113
f 116/116/116 115/115/115 113/113/113
f 119/119/119 118/118/118 117/117/117
f 120/120/120 119/119/119 117/117/117
f 123/123/123 122/122/122 121/121/121
f 124/124/124 123/123/123 121/121/121
f 127/127/127 126/126/126 125/125/125
f 128/128/128 127/127/127 125/125/125
f 131/131/131 130/130/130 129/129/129
f 132/132/132 131/131/131 129/129/129
