g Tastiera.002
v -1.067034 0.2650976 0.8798401
v -0.9921533 0.1684804 0.8985645
v -1.141915 0.1684804 0.8985645
v -1.067034 0.2650976 0.8798401
v -1.141915 0.1684804 0.8985645
v -1.118518 0.2668724 0.8798401
v -1.118518 0.2668724 0.6177654
v -1.141915 0.1684804 0.5615925
v -1.067034 0.2650976 0.6177654
v -1.141915 0.1684804 0.5615925
v -0.9921533 0.1684804 0.5615925
v -1.067034 0.2650976 0.6177654
v -1.015567 0.2668724 0.8798401
v -0.9921533 0.1684804 0.8985645
v -1.067034 0.2650976 0.8798401
v -1.067034 0.2650976 0.6177654
v -0.9921533 0.1684804 0.5615925
v -1.015567 0.2668724 0.6177654
v -1.188726 0.2749808 0.6364734
v -1.187293 0.2747529 0.8682799
v -1.188726 0.2749808 0.8611159
v -1.187293 0.2747529 0.6293093
v -1.183239 0.2741179 0.6232361
v -1.183239 0.2741179 0.8743531
v -1.177166 0.2731898 0.6191819
v -1.177166 0.2731898 0.8784236
v -1.170001 0.2721803 0.6177654
v -1.170001 0.2721803 0.8798401
v -1.118518 0.2668724 0.8798401
v -1.118518 0.2668724 0.6177654
v -1.067034 0.2650976 0.6177654
v -1.067034 0.2650976 0.8798401
v -1.015567 0.2668724 0.6177654
v -1.015567 0.2668724 0.8798401
v -0.9640831 0.2721803 0.6177654
v -0.9640831 0.2721803 0.8798401
v -0.9569191 0.2731898 0.8784236
v -0.9569191 0.2731898 0.6191819
v -0.9508459 0.2741179 0.8743531
v -0.9508459 0.2741179 0.6232361
v -0.9467916 0.2747529 0.8682799
v -0.9467916 0.2747529 0.6293093
v -0.9453589 0.2749808 0.8611159
v -0.9453589 0.2749808 0.6364734
v -1.118518 0.2668724 0.8798401
v -1.141915 0.1684804 0.8985645
v -1.216796 0.1684804 0.8985645
v -1.170001 0.2721803 0.8798401
v -0.9172724 0.1684804 0.8985645
v -0.9921533 0.1684804 0.8985645
v -1.015567 0.2668724 0.8798401
v -0.9640831 0.2721803 0.8798401
v -1.216796 0.1684804 0.5615925
v -1.141915 0.1684804 0.5615925
v -1.118518 0.2668724 0.6177654
v -1.170001 0.2721803 0.6177654
v -1.015567 0.2668724 0.6177654
v -0.9921533 0.1684804 0.5615925
v -0.9172724 0.1684804 0.5615925
v -0.9640831 0.2721803 0.6177654
v -0.9508459 0.2741179 0.6232361
v -0.9040352 0.1684804 0.5670795
v -0.899981 0.1684804 0.5731527
v -0.9467916 0.2747529 0.6293093
v -0.9569191 0.2731898 0.6191819
v -0.9101084 0.1684804 0.5630254
v -0.9040352 0.1684804 0.5670795
v -0.9508459 0.2741179 0.6232361
v -0.9640831 0.2721803 0.6177654
v -0.9172724 0.1684804 0.5615925
v -0.9101084 0.1684804 0.5630254
v -0.9569191 0.2731898 0.6191819
v -1.22396 0.1684804 0.5630254
v -1.216796 0.1684804 0.5615925
v -1.170001 0.2721803 0.6177654
v -1.177166 0.2731898 0.6191819
v -1.230033 0.1684804 0.5670795
v -1.22396 0.1684804 0.5630254
v -1.177166 0.2731898 0.6191819
v -1.183239 0.2741179 0.6232361
v -1.234104 0.1684804 0.5731527
v -1.230033 0.1684804 0.5670795
v -1.183239 0.2741179 0.6232361
v -1.187293 0.2747529 0.6293093
v -1.23552 0.1684804 0.5803168
v -1.234104 0.1684804 0.5731527
v -1.187293 0.2747529 0.6293093
v -1.188726 0.2749808 0.6364734
v -1.23552 0.1684804 0.8798401
v -1.23552 0.1684804 0.5803168
v -1.188726 0.2749808 0.6364734
v -1.188726 0.2749808 0.8611159
v -1.234104 0.1684804 0.8870043
v -1.23552 0.1684804 0.8798401
v -1.188726 0.2749808 0.8611159
v -1.187293 0.2747529 0.8682799
v -1.230033 0.1684804 0.8930774
v -1.234104 0.1684804 0.8870043
v -1.187293 0.2747529 0.8682799
v -1.183239 0.2741179 0.8743531
v -1.22396 0.1684804 0.8971316
v -1.230033 0.1684804 0.8930774
v -1.183239 0.2741179 0.8743531
v -1.177166 0.2731898 0.8784236
v -1.216796 0.1684804 0.8985645
v -1.22396 0.1684804 0.8971316
v -1.177166 0.2731898 0.8784236
v -1.170001 0.2721803 0.8798401
v -0.9569191 0.2731898 0.8784236
v -0.9101084 0.1684804 0.8971316
v -0.9172724 0.1684804 0.8985645
v -0.9640831 0.2721803 0.8798401
v -0.9508459 0.2741179 0.8743531
v -0.9040352 0.1684804 0.8930774
v -0.9101084 0.1684804 0.8971316
v -0.9569191 0.2731898 0.8784236
v -0.9467916 0.2747529 0.8682799
v -0.899981 0.1684804 0.8870043
v -0.9040352 0.1684804 0.8930774
v -0.9508459 0.2741179 0.8743531
v -0.9453589 0.2749808 0.8611159
v -0.8985645 0.1684804 0.8798401
v -0.899981 0.1684804 0.8870043
v -0.9467916 0.2747529 0.8682799
v -0.9453589 0.2749808 0.6364734
v -0.8985645 0.1684804 0.5803168
v -0.8985645 0.1684804 0.8798401
v -0.9453589 0.2749808 0.8611159
v -0.9467916 0.2747529 0.6293093
v -0.899981 0.1684804 0.5731527
v -0.8985645 0.1684804 0.5803168
v -0.9453589 0.2749808 0.6364734
vt 0.8804727 0.5191965
vt 0.953492 0.6652353
vt 0.953492 0.5191965
vt 0.8804727 0.5191965
vt 0.953492 0.6652353
vt 0.953492 0.5191965
vt 0.8804727 0.5191965
vt 0.953492 0.6652353
vt 0.953492 0.5191965
vt 0.8804727 0.5191965
vt 0.953492 0.6652353
vt 0.953492 0.5191965
vt 0.8804727 0.5191965
vt 0.953492 0.6652353
vt 0.953492 0.5191965
vt 0.8804727 0.5191965
vt 0.953492 0.6652353
vt 0.953492 0.5191965
vt 0.6873109 0.7590567
vt 0.6873109 0.8694348
vt 0.6873109 0.8660386
vt 0.6873109 0.7556605
vt 0.6860373 0.7526888
vt 0.6860373 0.8724066
vt 0.6843392 0.7505661
vt 0.6843392 0.8745292
vt 0.6826411 0.7501416
vt 0.6826411 0.8749537
vt 0.6694806 0.8749537
vt 0.6694806 0.7501416
vt 0.6563201 0.7501416
vt 0.6563201 0.8749537
vt 0.6431596 0.7501416
vt 0.6431596 0.8749537
vt 0.6299992 0.7501416
vt 0.6299992 0.8749537
vt 0.6278765 0.8745292
vt 0.6278765 0.7505661
vt 0.6266029 0.8724066
vt 0.6266029 0.7526888
vt 0.6253293 0.8694348
vt 0.6253293 0.7556605
vt 0.6249048 0.8660386
vt 0.6249048 0.7590567
vt 0.8804727 0.5191965
vt 0.8804727 0.6652353
vt 0.953492 0.6652353
vt 0.953492 0.5191965
vt 0.8804727 0.5191965
vt 0.8804727 0.6652353
vt 0.953492 0.6652353
vt 0.953492 0.5191965
vt 0.8804727 0.5191965
vt 0.8804727 0.6652353
vt 0.953492 0.6652353
vt 0.953492 0.5191965
vt 0.8804727 0.5191965
vt 0.8804727 0.6652353
vt 0.953492 0.6652353
vt 0.953492 0.5191965
vt 0.8804727 0.5191965
vt 0.8804727 0.6652353
vt 0.953492 0.6652353
vt 0.953492 0.5191965
vt 0.8804727 0.5191965
vt 0.8804727 0.6652353
vt 0.953492 0.6652353
vt 0.953492 0.5191965
vt 0.8804727 0.5191965
vt 0.8804727 0.6652353
vt 0.953492 0.6652353
vt 0.953492 0.5191965
vt 0.8804727 0.5191965
vt 0.8804727 0.6652353
vt 0.953492 0.6652353
vt 0.953492 0.5191965
vt 0.8804727 0.5191965
vt 0.8804727 0.6652353
vt 0.953492 0.6652353
vt 0.953492 0.5191965
vt 0.8804727 0.5191965
vt 0.8804727 0.6652353
vt 0.953492 0.6652353
vt 0.953492 0.5191965
vt 0.8804727 0.5191965
vt 0.8804727 0.6652353
vt 0.953492 0.6652353
vt 0.953492 0.5191965
vt 0.8804727 0.5191965
vt 0.8804727 0.6652353
vt 0.953492 0.6652353
vt 0.953492 0.5191965
vt 0.8804727 0.5191965
vt 0.8804727 0.6652353
vt 0.953492 0.6652353
vt 0.953492 0.5191965
vt 0.8804727 0.5191965
vt 0.8804727 0.6652353
vt 0.953492 0.6652353
vt 0.953492 0.5191965
vt 0.8804727 0.5191965
vt 0.8804727 0.6652353
vt 0.953492 0.6652353
vt 0.953492 0.5191965
vt 0.8804727 0.5191965
vt 0.8804727 0.6652353
vt 0.953492 0.6652353
vt 0.953492 0.5191965
vt 0.8804727 0.5191965
vt 0.8804727 0.6652353
vt 0.953492 0.6652353
vt 0.953492 0.5191965
vt 0.8804727 0.5191965
vt 0.8804727 0.6652353
vt 0.953492 0.6652353
vt 0.953492 0.5191965
vt 0.8804727 0.5191965
vt 0.8804727 0.6652353
vt 0.953492 0.6652353
vt 0.953492 0.5191965
vt 0.8804727 0.5191965
vt 0.8804727 0.6652353
vt 0.953492 0.6652353
vt 0.953492 0.5191965
vt 0.8804727 0.5191965
vt 0.8804727 0.6652353
vt 0.953492 0.6652353
vt 0.953492 0.5191965
vt 0.8804727 0.5191965
vt 0.8804727 0.6652353
vt 0.953492 0.6652353
vt 0.953492 0.5191965
vn 0.001609147 0.185258 0.9826886
vn 0.001609147 0.185258 0.9826886
vn 0.001609147 0.185258 0.9826886
vn 0.001609147 0.185258 0.9826886
vn 0.001609147 0.185258 0.9826886
vn 0.001609147 0.185258 0.9826886
vn 0.009083867 0.49172 -0.870706
vn 0.009083867 0.4991948 -0.8664422
vn 0.001609147 0.4991948 -0.8664883
vn 0.009083867 0.4991948 -0.8664422
vn -0.005865514 0.4991948 -0.8664699
vn 0.001609147 0.4991948 -0.8664883
vn -0.005865514 0.185258 0.9826724
vn 0.001609147 0.185258 0.9826886
vn 0.001609147 0.185258 0.9826886
vn 0.001609147 0.4991948 -0.8664883
vn -0.005865514 0.4991948 -0.8664699
vn -0.005865514 0.49172 -0.8707336
vn 0.1585776 0.9850493 -0.0673129
vn 0.1585776 0.9850493 -0.0673129
vn 0.1585776 0.9850493 -0.0673129
vn 0.1585776 0.9850493 -0.0673129
vn 0.1511029 0.9850493 -0.08273918
vn 0.1511029 0.9850493 -0.08273918
vn 0.1432182 0.9896911 0
vn 0.1432182 0.9896911 0
vn 0.1212041 0.992524 -0.01434209
vn 0.1212041 0.992524 -0.01434209
vn 0.0687186 0.9976361 0
vn 0.0687186 0.9976361 0
vn 0.001609147 0.9999986 -0.000422864
vn 0.001609147 0.9999986 -0.000422864
vn -0.06552196 0.9978511 0
vn -0.06552196 0.9978511 0
vn -0.1179858 0.992524 -0.03123283
vn -0.1179858 0.992524 -0.03123283
vn -0.1473716 0.9890812 0
vn -0.1473716 0.9890812 0
vn -0.1553592 0.9850493 -0.07444047
vn -0.1553592 0.9850493 -0.07444047
vn -0.1553592 0.9850493 -0.07444047
vn -0.1553592 0.9850493 -0.07444047
vn -0.1628339 0.9850493 -0.05624038
vn -0.1628339 0.9850493 -0.05624038
vn 0.001609147 0.185258 0.9826886
vn 0.001609147 0.185258 0.9826886
vn -0.09556168 0.2226314 0.9702078
vn -0.09556168 0.2226314 0.9702078
vn 0.09130538 0.2226314 0.9706177
vn 0.001609147 0.185258 0.9826886
vn -0.005865514 0.185258 0.9826724
vn 0.09130538 0.2226314 0.9706177
vn -0.08061236 0.5141441 -0.8539072
vn 0.009083867 0.4991948 -0.8664422
vn 0.009083867 0.49172 -0.870706
vn -0.08061236 0.5141441 -0.8539072
vn -0.005865514 0.49172 -0.8707336
vn -0.005865514 0.4991948 -0.8664699
vn 0.08383071 0.5141441 -0.8535973
vn 0.08383071 0.5141441 -0.8535973
vn 0.5846347 0.5664669 -0.5807905
vn 0.5846347 0.5664669 -0.5807905
vn 0.7939258 0.5216188 -0.312403
vn 0.7939258 0.5216188 -0.312403
vn 0.315546 0.5589922 -0.7667845
vn 0.315546 0.5589922 -0.7667845
vn 0.5846347 0.5664669 -0.5807905
vn 0.5846347 0.5664669 -0.5807905
vn 0.08383071 0.5141441 -0.8535973
vn 0.08383071 0.5141441 -0.8535973
vn 0.315546 0.5589922 -0.7667845
vn 0.315546 0.5589922 -0.7667845
vn -0.3123276 0.5589922 -0.768101
vn -0.08061236 0.5141441 -0.8539072
vn -0.08061236 0.5141441 -0.8539072
vn -0.3123276 0.5589922 -0.768101
vn -0.5814163 0.5664669 -0.5840123
vn -0.3123276 0.5589922 -0.768101
vn -0.3123276 0.5589922 -0.768101
vn -0.5814163 0.5664669 -0.5840123
vn -0.7907074 0.5216188 -0.3204616
vn -0.5814163 0.5664669 -0.5840123
vn -0.5814163 0.5664669 -0.5840123
vn -0.7907074 0.5216188 -0.3204616
vn -0.895353 0.4393973 -0.07261553
vn -0.7907074 0.5216188 -0.3204616
vn -0.7907074 0.5216188 -0.3204616
vn -0.895353 0.4393973 -0.07261553
vn -0.9028278 0.4169732 0.1050491
vn -0.895353 0.4393973 -0.07261553
vn -0.895353 0.4393973 -0.07261553
vn -0.9028278 0.4169732 0.1050491
vn -0.8355556 0.4244478 0.3488421
vn -0.9028278 0.4169732 0.1050491
vn -0.9028278 0.4169732 0.1050491
vn -0.8355556 0.4244478 0.3488421
vn -0.6486885 0.4020239 0.6462044
vn -0.8355556 0.4244478 0.3488421
vn -0.8355556 0.4244478 0.3488421
vn -0.6486885 0.4020239 0.6462044
vn -0.3571758 0.3198023 0.877583
vn -0.6486885 0.4020239 0.6462044
vn -0.6486885 0.4020239 0.6462044
vn -0.3571758 0.3123276 0.880271
vn -0.09556168 0.2226314 0.9702078
vn -0.3571758 0.3198023 0.877583
vn -0.3571758 0.3123276 0.880271
vn -0.09556168 0.2226314 0.9702078
vn 0.3603941 0.3198023 0.8762663
vn 0.3603941 0.3198023 0.8762663
vn 0.09130538 0.2226314 0.9706177
vn 0.09130538 0.2226314 0.9706177
vn 0.6444321 0.4020239 0.6504492
vn 0.6444321 0.4020239 0.6504492
vn 0.3603941 0.3198023 0.8762663
vn 0.3603941 0.3198023 0.8762663
vn 0.8312992 0.4244478 0.3588671
vn 0.8312992 0.4244478 0.3588671
vn 0.6444321 0.4020239 0.6504492
vn 0.6444321 0.4020239 0.6504492
vn 0.9060461 0.4169732 0.07220704
vn 0.9060461 0.4169732 0.07220704
vn 0.8312992 0.4244478 0.3588671
vn 0.8312992 0.4244478 0.3588671
vn 0.8910967 0.4393973 -0.1134754
vn 0.8910967 0.4393973 -0.1134754
vn 0.9060461 0.4169732 0.07220704
vn 0.9060461 0.4169732 0.07220704
vn 0.7939258 0.5216188 -0.312403
vn 0.7939258 0.5216188 -0.312403
vn 0.8910967 0.4393973 -0.1134754
vn 0.8910967 0.4393973 -0.1134754
g Tastiera.002_0
f 3/3/3 2/2/2 1/1/1
f 6/6/6 5/5/5 4/4/4
f 9/9/9 8/8/8 7/7/7
f 12/12/12 11/11/11 10/10/10
f 15/15/15 14/14/14 13/13/13
f 18/18/18 17/17/17 16/16/16
f 21/21/21 20/20/20 19/19/19
f 20/20/20 22/22/22 19/19/19
f 22/22/22 20/20/20 23/23/23
f 20/20/20 24/24/24 23/23/23
f 23/23/23 24/24/24 25/25/25
f 24/24/24 26/26/26 25/25/25
f 25/25/25 26/26/26 27/27/27
f 26/26/26 28/28/28 27/27/27
f 27/27/27 28/28/28 29/29/29
f 30/30/30 27/27/27 29/29/29
f 31/31/31 30/30/30 29/29/29
f 32/32/32 31/31/31 29/29/29
f 33/33/33 31/31/31 32/32/32
f 34/34/34 33/33/33 32/32/32
f 33/33/33 34/34/34 35/35/35
f 34/34/34 36/36/36 35/35/35
f 35/35/35 36/36/36 37/37/37
f 38/38/38 35/35/35 37/37/37
f 38/38/38 37/37/37 39/39/39
f 40/40/40 38/38/38 39/39/39
f 40/40/40 39/39/39 41/41/41
f 42/42/42 40/40/40 41/41/41
f 41/41/41 43/43/43 42/42/42
f 43/43/43 44/44/44 42/42/42
f 47/47/47 46/46/46 45/45/45
f 48/48/48 47/47/47 45/45/45
f 51/51/51 50/50/50 49/49/49
f 52/52/52 51/51/51 49/49/49
f 55/55/55 54/54/54 53/53/53
f 56/56/56 55/55/55 53/53/53
f 59/59/59 58/58/58 57/57/57
f 60/60/60 59/59/59 57/57/57
f 63/63/63 62/62/62 61/61/61
f 64/64/64 63/63/63 61/61/61
f 67/67/67 66/66/66 65/65/65
f 68/68/68 67/67/67 65/65/65
f 71/71/71 70/70/70 69/69/69
f 72/72/72 71/71/71 69/69/69
f 75/75/75 74/74/74 73/73/73
f 76/76/76 75/75/75 73/73/73
f 79/79/79 78/78/78 77/77/77
f 80/80/80 79/79/79 77/77/77
f 83/83/83 82/82/82 81/81/81
f 84/84/84 83/83/83 81/81/81
f 87/87/87 86/86/86 85/85/85
f 88/88/88 87/87/87 85/85/85
f 91/91/91 90/90/90 89/89/89
f 92/92/92 91/91/91 89/89/89
f 95/95/95 94/94/94 93/93/93
f 96/96/96 95/95/95 93/93/93
f 99/99/99 98/98/98 97/97/97
f 100/100/100 99/99/99 97/97/97
f 103/103/103 102/102/102 101/101/101
f 104/104/104 103/103/103 101/101/101
f 107/107/107 106/106/106 105/105/105
f 108/108/108 107/107/107 105/105/105
f 111/111/111 110/110/110 109/109/109
f 112/112/112 111/111/111 109/109/109
f 115/115/115 114/114/114 113/113/113
f 116/116/116 115/115/115 113/113/113
f 119/119/119 118/118/118 117/117/117
f 120/120/120 119/119/119 117/117/117
f 123/123/123 122/122/122 121/121/121
f 124/124/124 123/123/123 121/121/121
f 127/127/127 126/126/126 125/125/125
f 128/128/128 127/127/127 125/125/125
f 131/131/131 130/130/130 129/129/129
f 132/132/132 131/131/131 129/129/129
