g Tastiera.039
v 0.6084085 0.1684758 0.5428802
v 0.4586467 0.1684758 0.5428802
v 0.5335276 0.2651067 0.5241695
v 0.5335276 0.2651067 0.5241695
v 0.4586467 0.1684758 0.5428802
v 0.4820494 0.2668733 0.5241695
v 0.4820494 0.2668733 0.2620864
v 0.4586467 0.1684758 0.2059162
v 0.5335276 0.2651067 0.2620864
v 0.5335276 0.2651067 0.2620864
v 0.4586467 0.1684758 0.2059162
v 0.6084085 0.1684758 0.2059162
v 0.5850058 0.2668733 0.5241695
v 0.6084085 0.1684758 0.5428802
v 0.5335276 0.2651067 0.5241695
v 0.5335276 0.2651067 0.2620864
v 0.6084085 0.1684758 0.2059162
v 0.5850058 0.2668733 0.2620864
v 0.4118415 0.2749845 0.2807971
v 0.4132661 0.2747565 0.5126011
v 0.4118415 0.2749845 0.5054397
v 0.4132661 0.2747565 0.2736357
v 0.4173312 0.2741107 0.2675571
v 0.4173312 0.2741107 0.5186797
v 0.4233908 0.2731988 0.2635111
v 0.4233908 0.2731988 0.5227448
v 0.4305522 0.2721731 0.2620864
v 0.4305522 0.2721731 0.5241695
v 0.4820494 0.2668733 0.5241695
v 0.4820494 0.2668733 0.2620864
v 0.5335276 0.2651067 0.2620864
v 0.5335276 0.2651067 0.5241695
v 0.5850058 0.2668733 0.2620864
v 0.5850058 0.2668733 0.5241695
v 0.6364841 0.2721731 0.2620864
v 0.6364841 0.2721731 0.5241695
v 0.6436454 0.2731988 0.5227448
v 0.6436454 0.2731988 0.2635111
v 0.6497241 0.2741107 0.5186797
v 0.6497241 0.2741107 0.2675571
v 0.6537701 0.2747565 0.5126011
v 0.6537701 0.2747565 0.2736357
v 0.6551948 0.2749845 0.5054397
v 0.6551948 0.2749845 0.2807971
v 0.4820494 0.2668733 0.5241695
v 0.4586467 0.1684758 0.5428802
v 0.3837659 0.1684758 0.5428802
v 0.4305522 0.2721731 0.5241695
v 0.6832893 0.1684758 0.5428802
v 0.6084085 0.1684758 0.5428802
v 0.5850058 0.2668733 0.5241695
v 0.6364841 0.2721731 0.5241695
v 0.3837659 0.1684758 0.2059162
v 0.4586467 0.1684758 0.2059162
v 0.4820494 0.2668733 0.2620864
v 0.4305522 0.2721731 0.2620864
v 0.5850058 0.2668733 0.2620864
v 0.6084085 0.1684758 0.2059162
v 0.6832893 0.1684758 0.2059162
v 0.6364841 0.2721731 0.2620864
v 0.6497241 0.2741107 0.2675571
v 0.6965103 0.1684758 0.211406
v 0.7005754 0.1684758 0.2174846
v 0.6537701 0.2747565 0.2736357
v 0.6436454 0.2731988 0.2635111
v 0.6904507 0.1684758 0.207341
v 0.6965103 0.1684758 0.211406
v 0.6497241 0.2741107 0.2675571
v 0.6364841 0.2721731 0.2620864
v 0.6832893 0.1684758 0.2059162
v 0.6904507 0.1684758 0.207341
v 0.6436454 0.2731988 0.2635111
v 0.3766045 0.1684758 0.207341
v 0.3837659 0.1684758 0.2059162
v 0.4305522 0.2721731 0.2620864
v 0.4233908 0.2731988 0.2635111
v 0.3705259 0.1684758 0.211406
v 0.3766045 0.1684758 0.207341
v 0.4233908 0.2731988 0.2635111
v 0.4173312 0.2741107 0.2675571
v 0.3664608 0.1684758 0.2174846
v 0.3705259 0.1684758 0.211406
v 0.4173312 0.2741107 0.2675571
v 0.4132661 0.2747565 0.2736357
v 0.3650362 0.1684758 0.224646
v 0.3664608 0.1684758 0.2174846
v 0.4132661 0.2747565 0.2736357
v 0.4118415 0.2749845 0.2807971
v 0.3650362 0.1684758 0.5241695
v 0.3650362 0.1684758 0.224646
v 0.4118415 0.2749845 0.2807971
v 0.4118415 0.2749845 0.5054397
v 0.3664608 0.1684758 0.5313308
v 0.3650362 0.1684758 0.5241695
v 0.4118415 0.2749845 0.5054397
v 0.4132661 0.2747565 0.5126011
v 0.3705259 0.1684758 0.5373904
v 0.3664608 0.1684758 0.5313308
v 0.4132661 0.2747565 0.5126011
v 0.4173312 0.2741107 0.5186797
v 0.3766045 0.1684758 0.5414554
v 0.3705259 0.1684758 0.5373904
v 0.4173312 0.2741107 0.5186797
v 0.4233908 0.2731988 0.5227448
v 0.3837659 0.1684758 0.5428802
v 0.3766045 0.1684758 0.5414554
v 0.4233908 0.2731988 0.5227448
v 0.4305522 0.2721731 0.5241695
v 0.6436454 0.2731988 0.5227448
v 0.6904507 0.1684758 0.5414554
v 0.6832893 0.1684758 0.5428802
v 0.6364841 0.2721731 0.5241695
v 0.6497241 0.2741107 0.5186797
v 0.6965103 0.1684758 0.5373904
v 0.6904507 0.1684758 0.5414554
v 0.6436454 0.2731988 0.5227448
v 0.6537701 0.2747565 0.5126011
v 0.7005754 0.1684758 0.5313308
v 0.6965103 0.1684758 0.5373904
v 0.6497241 0.2741107 0.5186797
v 0.6551948 0.2749845 0.5054397
v 0.7020001 0.1684758 0.5241695
v 0.7005754 0.1684758 0.5313308
v 0.6537701 0.2747565 0.5126011
v 0.6551948 0.2749845 0.2807971
v 0.7020001 0.1684758 0.224646
v 0.7020001 0.1684758 0.5241695
v 0.6551948 0.2749845 0.5054397
v 0.6537701 0.2747565 0.2736357
v 0.7005754 0.1684758 0.2174846
v 0.7020001 0.1684758 0.224646
v 0.6551948 0.2749845 0.2807971
vt 0.8805984 0.5188811
vt 0.953492 0.665356
vt 0.953492 0.5188811
vt 0.8805984 0.5188811
vt 0.953492 0.665356
vt 0.953492 0.5188811
vt 0.8805984 0.5188811
vt 0.953492 0.665356
vt 0.953492 0.5188811
vt 0.8805984 0.5188811
vt 0.953492 0.665356
vt 0.953492 0.5188811
vt 0.8805984 0.5188811
vt 0.953492 0.665356
vt 0.953492 0.5188811
vt 0.8805984 0.5188811
vt 0.953492 0.665356
vt 0.953492 0.5188811
vt 0.3125785 0.6337229
vt 0.3118908 0.7444387
vt 0.3125785 0.7410003
vt 0.3118908 0.6302845
vt 0.3112031 0.6275339
vt 0.3112031 0.7471894
vt 0.3098278 0.6254709
vt 0.3098278 0.7492524
vt 0.3077647 0.6247832
vt 0.3077647 0.7499401
vt 0.2946989 0.7499401
vt 0.2946989 0.6247832
vt 0.2809454 0.6247832
vt 0.2809454 0.7499401
vt 0.2678796 0.6247832
vt 0.2678796 0.7499401
vt 0.2548137 0.6247832
vt 0.2548137 0.7499401
vt 0.2527507 0.7492524
vt 0.2527507 0.6254709
vt 0.2513753 0.7471894
vt 0.2513753 0.6275339
vt 0.2506877 0.7444387
vt 0.2506877 0.6302845
vt 0.25 0.7410003
vt 0.25 0.6337229
vt 0.8805984 0.5188811
vt 0.8805984 0.665356
vt 0.953492 0.665356
vt 0.953492 0.5188811
vt 0.8805984 0.5188811
vt 0.8805984 0.665356
vt 0.953492 0.665356
vt 0.953492 0.5188811
vt 0.8805984 0.5188811
vt 0.8805984 0.665356
vt 0.953492 0.665356
vt 0.953492 0.5188811
vt 0.8805984 0.5188811
vt 0.8805984 0.665356
vt 0.953492 0.665356
vt 0.953492 0.5188811
vt 0.8805984 0.5188811
vt 0.8805984 0.665356
vt 0.953492 0.665356
vt 0.953492 0.5188811
vt 0.8805984 0.5188811
vt 0.8805984 0.665356
vt 0.953492 0.665356
vt 0.953492 0.5188811
vt 0.8805984 0.5188811
vt 0.8805984 0.665356
vt 0.953492 0.665356
vt 0.953492 0.5188811
vt 0.8805984 0.5188811
vt 0.8805984 0.665356
vt 0.953492 0.665356
vt 0.953492 0.5188811
vt 0.8805984 0.5188811
vt 0.8805984 0.665356
vt 0.953492 0.665356
vt 0.953492 0.5188811
vt 0.8805984 0.5188811
vt 0.8805984 0.665356
vt 0.953492 0.665356
vt 0.953492 0.5188811
vt 0.8805984 0.5188811
vt 0.8805984 0.665356
vt 0.953492 0.665356
vt 0.953492 0.5188811
vt 0.8805984 0.5188811
vt 0.8805984 0.665356
vt 0.953492 0.665356
vt 0.953492 0.5188811
vt 0.8805984 0.5188811
vt 0.8805984 0.665356
vt 0.953492 0.665356
vt 0.953492 0.5188811
vt 0.8805984 0.5188811
vt 0.8805984 0.665356
vt 0.953492 0.665356
vt 0.953492 0.5188811
vt 0.8805984 0.5188811
vt 0.8805984 0.665356
vt 0.953492 0.665356
vt 0.953492 0.5188811
vt 0.8805984 0.5188811
vt 0.8805984 0.665356
vt 0.953492 0.665356
vt 0.953492 0.5188811
vt 0.8805984 0.5188811
vt 0.8805984 0.665356
vt 0.953492 0.665356
vt 0.953492 0.5188811
vt 0.8805984 0.5188811
vt 0.8805984 0.665356
vt 0.953492 0.665356
vt 0.953492 0.5188811
vt 0.8805984 0.5188811
vt 0.8805984 0.665356
vt 0.953492 0.665356
vt 0.953492 0.5188811
vt 0.8805984 0.5188811
vt 0.8805984 0.665356
vt 0.953492 0.665356
vt 0.953492 0.5188811
vt 0.8805984 0.5188811
vt 0.8805984 0.665356
vt 0.953492 0.665356
vt 0.953492 0.5188811
vt 0.8805984 0.5188811
vt 0.8805984 0.665356
vt 0.953492 0.665356
vt 0.953492 0.5188811
vn 0.001607776 0.185259 0.9826884
vn 0.001607776 0.185259 0.9826884
vn 0.001607776 0.185259 0.9826884
vn 0.001607776 0.185259 0.9826884
vn 0.001607776 0.185259 0.9826884
vn 0.001607776 0.185259 0.9826884
vn 0.009082437 0.4917207 -0.8707056
vn 0.009082437 0.4991954 -0.8664418
vn 0.001607776 0.4991954 -0.866488
vn 0.001607776 0.4991954 -0.866488
vn 0.009082437 0.4991954 -0.8664418
vn -0.005866885 0.4991954 -0.8664696
vn -0.005866885 0.185259 0.9826722
vn 0.001607776 0.185259 0.9826884
vn 0.001607776 0.185259 0.9826884
vn 0.001607776 0.4991954 -0.866488
vn -0.005866885 0.4991954 -0.8664696
vn -0.005866885 0.4917207 -0.8707332
vn 0.158576 0.9850493 -0.06731688
vn 0.158576 0.9850493 -0.06731688
vn 0.158576 0.9850493 -0.06731688
vn 0.158576 0.9850493 -0.06731688
vn 0.1511013 0.9850493 -0.08274207
vn 0.1511013 0.9850493 -0.08274207
vn 0.1432167 0.9896914 0
vn 0.1432167 0.9896914 0
vn 0.1212026 0.992524 -0.01435663
vn 0.1212026 0.992524 -0.01435663
vn 0.06871712 0.9976363 0
vn 0.06871712 0.9976363 0
vn 0.001607776 0.9999986 -0.000422864
vn 0.001607776 0.9999986 -0.000422864
vn -0.06552327 0.9978511 0
vn -0.06552327 0.9978511 0
vn -0.117987 0.992524 -0.03122901
vn -0.117987 0.992524 -0.03122901
vn -0.1473728 0.9890811 0
vn -0.1473728 0.9890811 0
vn -0.1553604 0.9850493 -0.07443807
vn -0.1553604 0.9850493 -0.07443807
vn -0.1553604 0.9850493 -0.07443807
vn -0.1553604 0.9850493 -0.07443807
vn -0.1628351 0.9850493 -0.0562372
vn -0.1628351 0.9850493 -0.0562372
vn 0.001607776 0.185259 0.9826884
vn 0.001607776 0.185259 0.9826884
vn -0.09556299 0.2226325 0.9702075
vn -0.09556299 0.2226325 0.9702075
vn 0.09130388 0.2226325 0.9706175
vn 0.001607776 0.185259 0.9826884
vn -0.005866885 0.185259 0.9826722
vn 0.09130388 0.2226325 0.9706175
vn -0.08061361 0.5141448 -0.8539066
vn 0.009082437 0.4991954 -0.8664418
vn 0.009082437 0.4917207 -0.8707056
vn -0.08061361 0.5141448 -0.8539066
vn -0.005866885 0.4917207 -0.8707332
vn -0.005866885 0.4991954 -0.8664696
vn 0.08382922 0.5141448 -0.853597
vn 0.08382922 0.5141448 -0.853597
vn 0.5846325 0.5664675 -0.5807921
vn 0.5846325 0.5664675 -0.5807921
vn 0.7939233 0.5216195 -0.3124082
vn 0.7939233 0.5216195 -0.3124082
vn 0.3155441 0.5589928 -0.7667848
vn 0.3155441 0.5589928 -0.7667848
vn 0.5846325 0.5664675 -0.5807921
vn 0.5846325 0.5664675 -0.5807921
vn 0.08382922 0.5141448 -0.853597
vn 0.08382922 0.5141448 -0.853597
vn 0.3155441 0.5589928 -0.7667848
vn 0.3155441 0.5589928 -0.7667848
vn -0.3123285 0.5589928 -0.7681003
vn -0.08061361 0.5141448 -0.8539066
vn -0.08061361 0.5141448 -0.8539066
vn -0.3123285 0.5589928 -0.7681003
vn -0.5814169 0.5664675 -0.5840111
vn -0.3123285 0.5589928 -0.7681003
vn -0.3123285 0.5589928 -0.7681003
vn -0.5814169 0.5664675 -0.5840111
vn -0.7907078 0.5216195 -0.3204596
vn -0.5814169 0.5664675 -0.5840111
vn -0.5814169 0.5664675 -0.5840111
vn -0.7907078 0.5216195 -0.3204596
vn -0.8953533 0.439398 -0.07260834
vn -0.7907078 0.5216195 -0.3204596
vn -0.7907078 0.5216195 -0.3204596
vn -0.8953533 0.439398 -0.07260834
vn -0.9028279 0.416974 0.105045
vn -0.8953533 0.439398 -0.07260834
vn -0.8953533 0.439398 -0.07260834
vn -0.9028279 0.416974 0.105045
vn -0.8355559 0.4244487 0.3488406
vn -0.9028279 0.416974 0.105045
vn -0.9028279 0.416974 0.105045
vn -0.8355559 0.4244487 0.3488406
vn -0.648689 0.4020247 0.6462034
vn -0.8355559 0.4244487 0.3488406
vn -0.8355559 0.4244487 0.3488406
vn -0.648689 0.4020247 0.6462034
vn -0.3571766 0.3198033 0.8775823
vn -0.648689 0.4020247 0.6462034
vn -0.648689 0.4020247 0.6462034
vn -0.3571766 0.3198033 0.8775823
vn -0.09556299 0.2226325 0.9702075
vn -0.3571766 0.3198033 0.8775823
vn -0.3571766 0.3198033 0.8775823
vn -0.09556299 0.2226325 0.9702075
vn 0.3603922 0.3198033 0.8762667
vn 0.3603922 0.3198033 0.8762667
vn 0.09130388 0.2226325 0.9706175
vn 0.09130388 0.2226325 0.9706175
vn 0.6444298 0.4020247 0.6504509
vn 0.6444298 0.4020247 0.6504509
vn 0.3603922 0.3198033 0.8762667
vn 0.3603922 0.3198033 0.8762667
vn 0.8312967 0.4244487 0.3588719
vn 0.8312967 0.4244487 0.3588719
vn 0.6444298 0.4020247 0.6504509
vn 0.6444298 0.4020247 0.6504509
vn 0.9060435 0.416974 0.0722352
vn 0.9060435 0.416974 0.0722352
vn 0.8312967 0.4244487 0.3588719
vn 0.8312967 0.4244487 0.3588719
vn 0.8910941 0.439398 -0.1134928
vn 0.8910941 0.439398 -0.1134928
vn 0.9060435 0.416974 0.0722352
vn 0.9060435 0.416974 0.0722352
vn 0.7939233 0.5216195 -0.3124082
vn 0.7939233 0.5216195 -0.3124082
vn 0.8910941 0.439398 -0.1134928
vn 0.8910941 0.439398 -0.1134928
g Tastiera.039_0
f 3/3/3 2/2/2 1/1/1
f 6/6/6 5/5/5 4/4/4
f 9/9/9 8/8/8 7/7/7
f 12/12/12 11/11/11 10/10/10
f 15/15/15 14/14/14 13/13/13
f 18/18/18 17/17/17 16/16/16
f 21/21/21 20/20/20 19/19/19
f 20/20/20 22/22/22 19/19/19
f 22/22/22 20/20/20 23/23/23
f 20/20/20 24/24/24 23/23/23
f 23/23/23 24/24/24 25/25/25
f 24/24/24 26/26/26 25/25/25
f 25/25/25 26/26/26 27/27/27
f 26/26/26 28/28/28 27/27/27
f 27/27/27 28/28/28 29/29/29
f 30/30/30 27/27/27 29/29/29
f 31/31/31 30/30/30 29/29/29
f 32/32/32 31/31/31 29/29/29
f 33/33/33 31/31/31 32/32/32
f 34/34/34 33/33/33 32/32/32
f 33/33/33 34/34/34 35/35/35
f 34/34/34 36/36/36 35/35/35
f 35/35/35 36/36/36 37/37/37
f 38/38/38 35/35/35 37/37/37
f 38/38/38 37/37/37 39/39/39
f 40/40/40 38/38/38 39/39/39
f 40/40/40 39/39/39 41/41/41
f 42/42/42 40/40/40 41/41/41
f 41/41/41 43/43/43 42/42/42
f 43/43/43 44/44/44 42/42/42
f 47/47/47 46/46/46 45/45/45
f 48/48/48 47/47/47 45/45/45
f 51/51/51 50/50/50 49/49/49
f 52/52/52 51/51/51 49/49/49
f 55/55/55 54/54/54 53/53/53
f 56/56/56 55/55/55 53/53/53
f 59/59/59 58/58/58 57/57/57
f 60/60/60 59/59/59 57/57/57
f 63/63/63 62/62/62 61/61/61
f 64/64/64 63/63/63 61/61/61
f 67/67/67 66/66/66 65/65/65
f 68/68/68 67/67/67 65/65/65
f 71/71/71 70/70/70 69/69/69
f 72/72/72 71/71/71 69/69/69
f 75/75/75 74/74/74 73/73/73
f 76/76/76 75/75/75 73/73/73
f 79/79/79 78/78/78 77/77/77
f 80/80/80 79/79/79 77/77/77
f 83/83/83 82/82/82 81/81/81
f 84/84/84 83/83/83 81/81/81
f 87/87/87 86/86/86 85/85/85
f 88/88/88 87/87/87 85/85/85
f 91/91/91 90/90/90 89/89/89
f 92/92/92 91/91/91 89/89/89
f 95/95/95 94/94/94 93/93/93
f 96/96/96 95/95/95 93/93/93
f 99/99/99 98/98/98 97/97/97
f 100/100/100 99/99/99 97/97/97
f 103/103/103 102/102/102 101/101/101
f 104/104/104 103/103/103 101/101/101
f 107/107/107 106/106/106 105/105/105
f 108/108/108 107/107/107 105/105/105
f 111/111/111 110/110/110 109/109/109
f 112/112/112 111/111/111 109/109/109
f 115/115/115 114/114/114 113/113/113
f 116/116/116 115/115/115 113/113/113
f 119/119/119 118/118/118 117/117/117
f 120/120/120 119/119/119 117/117/117
f 123/123/123 122/122/122 121/121/121
f 124/124/124 123/123/123 121/121/121
f 127/127/127 126/126/126 125/125/125
f 128/128/128 127/127/127 125/125/125
f 131/131/131 130/130/130 129/129/129
f 132/132/132 131/131/131 129/129/129
