g Tastiera.012
v -1.422714 0.2651085 0.8798512
v -1.347839 0.1684804 0.8985646
v -1.49759 0.1684804 0.8985646
v -1.422714 0.2651085 0.8798512
v -1.49759 0.1684804 0.8985646
v -1.474209 0.266867 0.8798512
v -1.474209 0.266867 0.6177546
v -1.49759 0.1684804 0.5615926
v -1.422714 0.2651085 0.6177546
v -1.49759 0.1684804 0.5615926
v -1.347839 0.1684804 0.5615926
v -1.422714 0.2651085 0.6177546
v -1.371242 0.266867 0.8798512
v -1.347839 0.1684804 0.8985646
v -1.422714 0.2651085 0.8798512
v -1.422714 0.2651085 0.6177546
v -1.347839 0.1684804 0.5615926
v -1.371242 0.266867 0.6177546
v -1.544395 0.2749863 0.6364897
v -1.542984 0.2747474 0.8682801
v -1.544395 0.2749863 0.8611161
v -1.542984 0.2747474 0.6293257
v -1.538924 0.2741179 0.6232471
v -1.538924 0.2741179 0.8743587
v -1.532846 0.2731844 0.6191874
v -1.532846 0.2731844 0.8784184
v -1.525682 0.272164 0.6177546
v -1.525682 0.272164 0.8798512
v -1.474209 0.266867 0.8798512
v -1.474209 0.266867 0.6177546
v -1.422714 0.2651085 0.6177546
v -1.422714 0.2651085 0.8798512
v -1.371242 0.266867 0.6177546
v -1.371242 0.266867 0.8798512
v -1.319769 0.272164 0.6177546
v -1.319769 0.272164 0.8798295
v -1.312605 0.2731844 0.8784184
v -1.312605 0.2731844 0.6191874
v -1.306526 0.2741179 0.8743587
v -1.306526 0.2741179 0.6232471
v -1.302467 0.2747474 0.8682801
v -1.302467 0.2747474 0.6293257
v -1.301034 0.2749863 0.8611161
v -1.301034 0.2749863 0.6364897
v -1.474209 0.266867 0.8798512
v -1.49759 0.1684804 0.8985646
v -1.572487 0.1684804 0.8985646
v -1.525682 0.272164 0.8798512
v -1.272964 0.1684804 0.8985646
v -1.347839 0.1684804 0.8985646
v -1.371242 0.266867 0.8798512
v -1.319769 0.272164 0.8798295
v -1.572487 0.1684804 0.5615926
v -1.49759 0.1684804 0.5615926
v -1.474209 0.266867 0.6177546
v -1.525682 0.272164 0.6177546
v -1.371242 0.266867 0.6177546
v -1.347839 0.1684804 0.5615926
v -1.272964 0.1684804 0.5615926
v -1.319769 0.272164 0.6177546
v -1.306526 0.2741179 0.6232471
v -1.259721 0.1684804 0.5670851
v -1.255661 0.1684804 0.5731637
v -1.302467 0.2747474 0.6293257
v -1.312605 0.2731844 0.6191874
v -1.265799 0.1684804 0.5630255
v -1.259721 0.1684804 0.5670851
v -1.306526 0.2741179 0.6232471
v -1.319769 0.272164 0.6177546
v -1.272964 0.1684804 0.5615926
v -1.265799 0.1684804 0.5630255
v -1.312605 0.2731844 0.6191874
v -1.579651 0.1684804 0.5630255
v -1.572487 0.1684804 0.5615926
v -1.525682 0.272164 0.6177546
v -1.532846 0.2731844 0.6191874
v -1.585708 0.1684804 0.5670851
v -1.579651 0.1684804 0.5630255
v -1.532846 0.2731844 0.6191874
v -1.538924 0.2741179 0.6232471
v -1.589768 0.1684804 0.5731637
v -1.585708 0.1684804 0.5670851
v -1.538924 0.2741179 0.6232471
v -1.542984 0.2747474 0.6293257
v -1.5912 0.1684804 0.5803277
v -1.589768 0.1684804 0.5731637
v -1.542984 0.2747474 0.6293257
v -1.544395 0.2749863 0.6364897
v -1.5912 0.1684804 0.8798512
v -1.5912 0.1684804 0.5803277
v -1.544395 0.2749863 0.6364897
v -1.544395 0.2749863 0.8611161
v -1.589768 0.1684804 0.8870152
v -1.5912 0.1684804 0.8798512
v -1.544395 0.2749863 0.8611161
v -1.542984 0.2747474 0.8682801
v -1.585708 0.1684804 0.8930721
v -1.589768 0.1684804 0.8870152
v -1.542984 0.2747474 0.8682801
v -1.538924 0.2741179 0.8743587
v -1.579651 0.1684804 0.8971318
v -1.585708 0.1684804 0.8930721
v -1.538924 0.2741179 0.8743587
v -1.532846 0.2731844 0.8784184
v -1.572487 0.1684804 0.8985646
v -1.579651 0.1684804 0.8971318
v -1.532846 0.2731844 0.8784184
v -1.525682 0.272164 0.8798512
v -1.312605 0.2731844 0.8784184
v -1.265799 0.1684804 0.8971318
v -1.272964 0.1684804 0.8985646
v -1.319769 0.272164 0.8798295
v -1.306526 0.2741179 0.8743587
v -1.259721 0.1684804 0.8930721
v -1.265799 0.1684804 0.8971318
v -1.312605 0.2731844 0.8784184
v -1.302467 0.2747474 0.8682801
v -1.255661 0.1684804 0.8869935
v -1.259721 0.1684804 0.8930721
v -1.306526 0.2741179 0.8743587
v -1.301034 0.2749863 0.8611161
v -1.25425 0.1684804 0.8798512
v -1.255661 0.1684804 0.8869935
v -1.302467 0.2747474 0.8682801
v -1.301034 0.2749863 0.6364897
v -1.25425 0.1684804 0.5803277
v -1.25425 0.1684804 0.8798512
v -1.301034 0.2749863 0.8611161
v -1.302467 0.2747474 0.6293257
v -1.255661 0.1684804 0.5731637
v -1.25425 0.1684804 0.5803277
v -1.301034 0.2749863 0.6364897
vt 0.8804727 0.5191965
vt 0.953492 0.6652353
vt 0.953492 0.5191965
vt 0.8804727 0.5191965
vt 0.953492 0.6652353
vt 0.953492 0.5191965
vt 0.8804727 0.5191965
vt 0.953492 0.6652353
vt 0.953492 0.5191965
vt 0.8804727 0.5191965
vt 0.953492 0.6652353
vt 0.953492 0.5191965
vt 0.8804727 0.5191965
vt 0.953492 0.6652353
vt 0.953492 0.5191965
vt 0.8804727 0.5191965
vt 0.953492 0.6652353
vt 0.953492 0.5191965
vt 0.7501416 0.7590567
vt 0.749717 0.8694348
vt 0.7501416 0.8660386
vt 0.749717 0.7556605
vt 0.7484434 0.7526888
vt 0.7484434 0.8724066
vt 0.7471699 0.7505661
vt 0.7471699 0.8745292
vt 0.7450472 0.7501416
vt 0.7450472 0.8749537
vt 0.7318867 0.8749537
vt 0.7318867 0.7501416
vt 0.7187262 0.7501416
vt 0.7187262 0.8749537
vt 0.7055658 0.7501416
vt 0.7055658 0.8749537
vt 0.6924053 0.7501416
vt 0.6924053 0.8749537
vt 0.6902826 0.8745292
vt 0.6902826 0.7505661
vt 0.6890091 0.8724066
vt 0.6890091 0.7526888
vt 0.6877354 0.8694348
vt 0.6877354 0.7556605
vt 0.6873109 0.8660386
vt 0.6873109 0.7590567
vt 0.8804727 0.5191965
vt 0.8804727 0.6652353
vt 0.953492 0.6652353
vt 0.953492 0.5191965
vt 0.8804727 0.5191965
vt 0.8804727 0.6652353
vt 0.953492 0.6652353
vt 0.953492 0.5191965
vt 0.8804727 0.5191965
vt 0.8804727 0.6652353
vt 0.953492 0.6652353
vt 0.953492 0.5191965
vt 0.8804727 0.5191965
vt 0.8804727 0.6652353
vt 0.953492 0.6652353
vt 0.953492 0.5191965
vt 0.8804727 0.5191965
vt 0.8804727 0.6652353
vt 0.953492 0.6652353
vt 0.953492 0.5191965
vt 0.8804727 0.5191965
vt 0.8804727 0.6652353
vt 0.953492 0.6652353
vt 0.953492 0.5191965
vt 0.8804727 0.5191965
vt 0.8804727 0.6652353
vt 0.953492 0.6652353
vt 0.953492 0.5191965
vt 0.8804727 0.5191965
vt 0.8804727 0.6652353
vt 0.953492 0.6652353
vt 0.953492 0.5191965
vt 0.8804727 0.5191965
vt 0.8804727 0.6652353
vt 0.953492 0.6652353
vt 0.953492 0.5191965
vt 0.8804727 0.5191965
vt 0.8804727 0.6652353
vt 0.953492 0.6652353
vt 0.953492 0.5191965
vt 0.8804727 0.5191965
vt 0.8804727 0.6652353
vt 0.953492 0.6652353
vt 0.953492 0.5191965
vt 0.8804727 0.5191965
vt 0.8804727 0.6652353
vt 0.953492 0.6652353
vt 0.953492 0.5191965
vt 0.8804727 0.5191965
vt 0.8804727 0.6652353
vt 0.953492 0.6652353
vt 0.953492 0.5191965
vt 0.8804727 0.5191965
vt 0.8804727 0.6652353
vt 0.953492 0.6652353
vt 0.953492 0.5191965
vt 0.8804727 0.5191965
vt 0.8804727 0.6652353
vt 0.953492 0.6652353
vt 0.953492 0.5191965
vt 0.8804727 0.5191965
vt 0.8804727 0.6652353
vt 0.953492 0.6652353
vt 0.953492 0.5191965
vt 0.8804727 0.5191965
vt 0.8804727 0.6652353
vt 0.953492 0.6652353
vt 0.953492 0.5191965
vt 0.8804727 0.5191965
vt 0.8804727 0.6652353
vt 0.953492 0.6652353
vt 0.953492 0.5191965
vt 0.8804727 0.5191965
vt 0.8804727 0.6652353
vt 0.953492 0.6652353
vt 0.953492 0.5191965
vt 0.8804727 0.5191965
vt 0.8804727 0.6652353
vt 0.953492 0.6652353
vt 0.953492 0.5191965
vt 0.8804727 0.5191965
vt 0.8804727 0.6652353
vt 0.953492 0.6652353
vt 0.953492 0.5191965
vt 0.8804727 0.5191965
vt 0.8804727 0.6652353
vt 0.953492 0.6652353
vt 0.953492 0.5191965
vn 0.001607418 0.1852593 0.9826884
vn 0.001607418 0.1852593 0.9826884
vn 0.001607418 0.1852593 0.9826884
vn 0.001607418 0.1852593 0.9826884
vn 0.001607418 0.1852593 0.9826884
vn 0.001607418 0.1852593 0.9826884
vn 0.009082139 0.4917209 -0.8707055
vn 0.009082139 0.4991956 -0.8664417
vn 0.001607418 0.4991956 -0.8664879
vn 0.009082139 0.4991956 -0.8664417
vn -0.005867243 0.4991956 -0.8664694
vn 0.001607418 0.4991956 -0.8664879
vn -0.005867243 0.1852593 0.9826722
vn 0.001607418 0.1852593 0.9826884
vn 0.001607418 0.1852593 0.9826884
vn 0.001607418 0.4991956 -0.8664879
vn -0.005867243 0.4991956 -0.8664694
vn -0.005867243 0.4917209 -0.8707331
vn 0.1585755 0.9850494 -0.06731688
vn 0.1585755 0.9850494 -0.06731688
vn 0.1585755 0.9850494 -0.06731688
vn 0.1585755 0.9850494 -0.06731688
vn 0.1511009 0.9850494 -0.08274207
vn 0.1511009 0.9850494 -0.08274207
vn 0.1432163 0.9896914 0
vn 0.1432163 0.9896914 0
vn 0.1212022 0.992524 -0.01435455
vn 0.1212022 0.992524 -0.01435455
vn 0.06871676 0.9976362 0
vn 0.06871676 0.9976362 0
vn 0.001607418 0.9999987 -0.0002441406
vn 0.001607418 0.9999987 -0.0002441406
vn -0.06552356 0.997851 0
vn -0.06552356 0.997851 0
vn -0.1179873 0.992524 -0.0312252
vn -0.1179873 0.992524 -0.0312252
vn -0.147373 0.989081 0
vn -0.147373 0.989081 0
vn -0.1553607 0.9850494 -0.07443647
vn -0.1553607 0.9850494 -0.07443647
vn -0.1553607 0.9850494 -0.07443647
vn -0.1553607 0.9850494 -0.07443647
vn -0.1628354 0.9850494 -0.05623508
vn -0.1628354 0.9850494 -0.05623508
vn 0.001607418 0.1852593 0.9826884
vn 0.001607418 0.1852593 0.9826884
vn -0.09556329 0.2226328 0.9702073
vn -0.09556329 0.2226328 0.9702073
vn 0.09130353 0.2226328 0.9706175
vn 0.001607418 0.1852593 0.9826884
vn -0.005867243 0.1852593 0.9826722
vn 0.09130353 0.2226328 0.9706175
vn -0.08061397 0.514145 -0.8539065
vn 0.009082139 0.4991956 -0.8664417
vn 0.009082139 0.4917209 -0.8707055
vn -0.08061397 0.514145 -0.8539065
vn -0.005867243 0.4917209 -0.8707331
vn -0.005867243 0.4991956 -0.8664694
vn 0.08382887 0.514145 -0.8535969
vn 0.08382887 0.514145 -0.8535969
vn 0.5846319 0.5664676 -0.5807925
vn 0.5846319 0.5664676 -0.5807925
vn 0.7939227 0.5216197 -0.3124094
vn 0.7939227 0.5216197 -0.3124094
vn 0.3155437 0.558993 -0.7667849
vn 0.3155437 0.558993 -0.7667849
vn 0.5846319 0.5664676 -0.5807925
vn 0.5846319 0.5664676 -0.5807925
vn 0.08382887 0.514145 -0.8535969
vn 0.08382887 0.514145 -0.8535969
vn 0.3155437 0.558993 -0.7667849
vn 0.3155437 0.558993 -0.7667849
vn -0.3123288 0.558993 -0.7680999
vn -0.08061397 0.514145 -0.8539065
vn -0.08061397 0.514145 -0.8539065
vn -0.3123288 0.558993 -0.7680999
vn -0.581417 0.5664676 -0.5840108
vn -0.3123288 0.558993 -0.7680999
vn -0.3123288 0.558993 -0.7680999
vn -0.581417 0.5664676 -0.5840108
vn -0.7907078 0.5216197 -0.3204591
vn -0.581417 0.5664676 -0.5840108
vn -0.581417 0.5664676 -0.5840108
vn -0.7907078 0.5216197 -0.3204591
vn -0.8953533 0.4393983 -0.07260568
vn -0.7907078 0.5216197 -0.3204591
vn -0.7907078 0.5216197 -0.3204591
vn -0.8953533 0.4393983 -0.07260568
vn -0.902828 0.4169742 0.1050437
vn -0.8953533 0.4393983 -0.07260568
vn -0.8953533 0.4393983 -0.07260568
vn -0.902828 0.4169742 0.1050437
vn -0.8355559 0.4244488 0.3488402
vn -0.902828 0.4169742 0.1050437
vn -0.902828 0.4169742 0.1050437
vn -0.8355559 0.4244488 0.3488402
vn -0.648689 0.4020249 0.6462032
vn -0.8355559 0.4244488 0.3488402
vn -0.8355559 0.4244488 0.3488402
vn -0.648689 0.4020249 0.6462032
vn -0.3571768 0.3198035 0.8775822
vn -0.648689 0.4020249 0.6462032
vn -0.648689 0.4020249 0.6462032
vn -0.3571768 0.3198035 0.8775822
vn -0.09556329 0.2226328 0.9702073
vn -0.3571768 0.3198035 0.8775822
vn -0.3571768 0.3198035 0.8775822
vn -0.09556329 0.2226328 0.9702073
vn 0.3603917 0.3198035 0.8762668
vn 0.3603917 0.3198035 0.8762668
vn 0.09130353 0.2226328 0.9706175
vn 0.09130353 0.2226328 0.9706175
vn 0.6444293 0.4020249 0.6504514
vn 0.6444293 0.4020249 0.6504514
vn 0.3603917 0.3198035 0.8762668
vn 0.3603917 0.3198035 0.8762668
vn 0.8312961 0.4244488 0.3588732
vn 0.8312961 0.4244488 0.3588732
vn 0.6444293 0.4020249 0.6504514
vn 0.6444293 0.4020249 0.6504514
vn 0.9060428 0.4169742 0.07224242
vn 0.9060428 0.4169742 0.07224242
vn 0.8312961 0.4244488 0.3588732
vn 0.8312961 0.4244488 0.3588732
vn 0.8910935 0.4393983 -0.1134969
vn 0.8910935 0.4393983 -0.1134969
vn 0.9060428 0.4169742 0.07224242
vn 0.9060428 0.4169742 0.07224242
vn 0.7939227 0.5216197 -0.3124094
vn 0.7939227 0.5216197 -0.3124094
vn 0.8910935 0.4393983 -0.1134969
vn 0.8910935 0.4393983 -0.1134969
g Tastiera.012_0
f 3/3/3 2/2/2 1/1/1
f 6/6/6 5/5/5 4/4/4
f 9/9/9 8/8/8 7/7/7
f 12/12/12 11/11/11 10/10/10
f 15/15/15 14/14/14 13/13/13
f 18/18/18 17/17/17 16/16/16
f 21/21/21 20/20/20 19/19/19
f 20/20/20 22/22/22 19/19/19
f 22/22/22 20/20/20 23/23/23
f 20/20/20 24/24/24 23/23/23
f 23/23/23 24/24/24 25/25/25
f 24/24/24 26/26/26 25/25/25
f 25/25/25 26/26/26 27/27/27
f 26/26/26 28/28/28 27/27/27
f 27/27/27 28/28/28 29/29/29
f 30/30/30 27/27/27 29/29/29
f 31/31/31 30/30/30 29/29/29
f 32/32/32 31/31/31 29/29/29
f 33/33/33 31/31/31 32/32/32
f 34/34/34 33/33/33 32/32/32
f 33/33/33 34/34/34 35/35/35
f 34/34/34 36/36/36 35/35/35
f 35/35/35 36/36/36 37/37/37
f 38/38/38 35/35/35 37/37/37
f 38/38/38 37/37/37 39/39/39
f 40/40/40 38/38/38 39/39/39
f 40/40/40 39/39/39 41/41/41
f 42/42/42 40/40/40 41/41/41
f 41/41/41 43/43/43 42/42/42
f 43/43/43 44/44/44 42/42/42
f 47/47/47 46/46/46 45/45/45
f 48/48/48 47/47/47 45/45/45
f 51/51/51 50/50/50 49/49/49
f 52/52/52 51/51/51 49/49/49
f 55/55/55 54/54/54 53/53/53
f 56/56/56 55/55/55 53/53/53
f 59/59/59 58/58/58 57/57/57
f 60/60/60 59/59/59 57/57/57
f 63/63/63 62/62/62 61/61/61
f 64/64/64 63/63/63 61/61/61
f 67/67/67 66/66/66 65/65/65
f 68/68/68 67/67/67 65/65/65
f 71/71/71 70/70/70 69/69/69
f 72/72/72 71/71/71 69/69/69
f 75/75/75 74/74/74 73/73/73
f 76/76/76 75/75/75 73/73/73
f 79/79/79 78/78/78 77/77/77
f 80/80/80 79/79/79 77/77/77
f 83/83/83 82/82/82 81/81/81
f 84/84/84 83/83/83 81/81/81
f 87/87/87 86/86/86 85/85/85
f 88/88/88 87/87/87 85/85/85
f 91/91/91 90/90/90 89/89/89
f 92/92/92 91/91/91 89/89/89
f 95/95/95 94/94/94 93/93/93
f 96/96/96 95/95/95 93/93/93
f 99/99/99 98/98/98 97/97/97
f 100/100/100 99/99/99 97/97/97
f 103/103/103 102/102/102 101/101/101
f 104/104/104 103/103/103 101/101/101
f 107/107/107 106/106/106 105/105/105
f 108/108/108 107/107/107 105/105/105
f 111/111/111 110/110/110 109/109/109
f 112/112/112 111/111/111 109/109/109
f 115/115/115 114/114/114 113/113/113
f 116/116/116 115/115/115 113/113/113
f 119/119/119 118/118/118 117/117/117
f 120/120/120 119/119/119 117/117/117
f 123/123/123 122/122/122 121/121/121
f 124/124/124 123/123/123 121/121/121
f 127/127/127 126/126/126 125/125/125
f 128/128/128 127/127/127 125/125/125
f 131/131/131 130/130/130 129/129/129
f 132/132/132 131/131/131 129/129/129
