g Tastiera.022
v 1.937518 0.1684637 0.1871841
v 1.787754 0.1684637 0.1871841
v 1.862636 0.2650924 0.1684637
v 1.862636 0.2650924 0.1684637
v 1.787754 0.1684637 0.1871841
v 1.811155 0.2668517 0.1684637
v 1.811155 0.2668517 -0.09358752
v 1.787754 0.1684637 -0.1497489
v 1.862636 0.2650924 -0.09358752
v 1.862636 0.2650924 -0.09358752
v 1.787754 0.1684637 -0.1497489
v 1.937518 0.1684637 -0.1497489
v 1.914117 0.2668517 0.1684637
v 1.937518 0.1684637 0.1871841
v 1.862636 0.2650924 0.1684637
v 1.862636 0.2650924 -0.09358752
v 1.937518 0.1684637 -0.1497489
v 1.914117 0.2668517 -0.09358752
v 1.740953 0.2749803 -0.07486713
v 1.742396 0.274734 0.1569219
v 1.740953 0.2749803 0.1497433
v 1.742396 0.274734 -0.08204556
v 1.746442 0.2741005 -0.08813322
v 1.746442 0.2741005 0.1630094
v 1.75253 0.2731857 -0.09218001
v 1.75253 0.2731857 0.1670561
v 1.759673 0.2721653 -0.09358752
v 1.759673 0.2721653 0.1684637
v 1.811155 0.2668517 0.1684637
v 1.811155 0.2668517 -0.09358752
v 1.862636 0.2650924 -0.09358752
v 1.862636 0.2650924 0.1684637
v 1.914117 0.2668517 -0.09358752
v 1.914117 0.2668517 0.1684637
v 1.965598 0.2721653 -0.09358752
v 1.965598 0.2721653 0.1684637
v 1.972777 0.2731857 0.1670561
v 1.972777 0.2731857 -0.09218001
v 1.97883 0.2741005 0.1630094
v 1.97883 0.2741005 -0.08813322
v 1.982911 0.274734 0.1569219
v 1.982911 0.274734 -0.08204556
v 1.984319 0.2749803 0.1497433
v 1.984319 0.2749803 -0.07486713
v 1.811155 0.2668517 0.1684637
v 1.787754 0.1684637 0.1871841
v 1.712872 0.1684637 0.1871841
v 1.759673 0.2721653 0.1684637
v 2.0124 0.1684637 0.1871841
v 1.937518 0.1684637 0.1871841
v 1.914117 0.2668517 0.1684637
v 1.965598 0.2721653 0.1684637
v 1.712872 0.1684637 -0.1497489
v 1.787754 0.1684637 -0.1497489
v 1.811155 0.2668517 -0.09358752
v 1.759673 0.2721653 -0.09358752
v 1.914117 0.2668517 -0.09358752
v 1.937518 0.1684637 -0.1497489
v 2.0124 0.1684637 -0.1497489
v 1.965598 0.2721653 -0.09358752
v 1.97883 0.2741005 -0.08813322
v 2.025631 0.1684637 -0.1442595
v 2.029712 0.1684637 -0.138207
v 1.982911 0.274734 -0.08204556
v 1.972777 0.2731857 -0.09218001
v 2.019578 0.1684637 -0.1483414
v 2.025631 0.1684637 -0.1442595
v 1.97883 0.2741005 -0.08813322
v 1.965598 0.2721653 -0.09358752
v 2.0124 0.1684637 -0.1497489
v 2.019578 0.1684637 -0.1483414
v 1.972777 0.2731857 -0.09218001
v 1.705729 0.1684637 -0.1483414
v 1.712872 0.1684637 -0.1497489
v 1.759673 0.2721653 -0.09358752
v 1.75253 0.2731857 -0.09218001
v 1.699641 0.1684637 -0.1442595
v 1.705729 0.1684637 -0.1483414
v 1.75253 0.2731857 -0.09218001
v 1.746442 0.2741005 -0.08813322
v 1.695595 0.1684637 -0.138207
v 1.699641 0.1684637 -0.1442595
v 1.746442 0.2741005 -0.08813322
v 1.742396 0.274734 -0.08204556
v 1.694152 0.1684637 -0.1310284
v 1.695595 0.1684637 -0.138207
v 1.742396 0.274734 -0.08204556
v 1.740953 0.2749803 -0.07486713
v 1.694152 0.1684637 0.1684637
v 1.694152 0.1684637 -0.1310284
v 1.740953 0.2749803 -0.07486713
v 1.740953 0.2749803 0.1497433
v 1.695595 0.1684637 0.1756423
v 1.694152 0.1684637 0.1684637
v 1.740953 0.2749803 0.1497433
v 1.742396 0.274734 0.1569219
v 1.699641 0.1684637 0.18173
v 1.695595 0.1684637 0.1756423
v 1.742396 0.274734 0.1569219
v 1.746442 0.2741005 0.1630094
v 1.705729 0.1684637 0.1857767
v 1.699641 0.1684637 0.18173
v 1.746442 0.2741005 0.1630094
v 1.75253 0.2731857 0.1670561
v 1.712872 0.1684637 0.1871841
v 1.705729 0.1684637 0.1857767
v 1.75253 0.2731857 0.1670561
v 1.759673 0.2721653 0.1684637
v 1.972777 0.2731857 0.1670561
v 2.019578 0.1684637 0.1857767
v 2.0124 0.1684637 0.1871841
v 1.965598 0.2721653 0.1684637
v 1.97883 0.2741005 0.1630094
v 2.025631 0.1684637 0.18173
v 2.019578 0.1684637 0.1857767
v 1.972777 0.2731857 0.1670561
v 1.982911 0.274734 0.1569219
v 2.029712 0.1684637 0.1756423
v 2.025631 0.1684637 0.18173
v 1.97883 0.2741005 0.1630094
v 1.984319 0.2749803 0.1497433
v 2.03112 0.1684637 0.1684637
v 2.029712 0.1684637 0.1756423
v 1.982911 0.274734 0.1569219
v 1.984319 0.2749803 -0.07486713
v 2.03112 0.1684637 -0.1310284
v 2.03112 0.1684637 0.1684637
v 1.984319 0.2749803 0.1497433
v 1.982911 0.274734 -0.08204556
v 2.029712 0.1684637 -0.138207
v 2.03112 0.1684637 -0.1310284
v 1.984319 0.2749803 -0.07486713
vt 0.8807918 0.5191545
vt 0.9534922 0.6654872
vt 0.9534922 0.5191545
vt 0.8807918 0.5191545
vt 0.9534922 0.6654872
vt 0.9534922 0.5191545
vt 0.8807918 0.5191545
vt 0.9534922 0.6654872
vt 0.9534922 0.5191545
vt 0.8807918 0.5191545
vt 0.9534922 0.6654872
vt 0.9534922 0.5191545
vt 0.8807918 0.5191545
vt 0.9534922 0.6654872
vt 0.9534922 0.5191545
vt 0.8807918 0.5191545
vt 0.9534922 0.6654872
vt 0.9534922 0.5191545
vt 0.06244768 0.508902
vt 0.06244768 0.6198165
vt 0.06244768 0.6160883
vt 0.06244768 0.5051737
vt 0.06151562 0.5023776
vt 0.06151562 0.6226127
vt 0.05965151 0.5005135
vt 0.05965151 0.6244768
vt 0.0577874 0.4995814
vt 0.0577874 0.6254088
vt 0.04473864 0.6254088
vt 0.04473864 0.4995814
vt 0.03168987 0.4995814
vt 0.03168987 0.6254088
vt 0.01770904 0.4995814
vt 0.01770904 0.6254088
vt 0.004660274 0.4995814
vt 0.004660274 0.6254088
vt 0.002796165 0.6244768
vt 0.002796165 0.5005135
vt 0.00186411 0.6226127
vt 0.00186411 0.5023776
vt 0 0.6198165
vt 0 0.5051737
vt 0 0.6160883
vt 0 0.508902
vt 0.8807918 0.5191545
vt 0.8807918 0.6654872
vt 0.9534922 0.6654872
vt 0.9534922 0.5191545
vt 0.8807918 0.5191545
vt 0.8807918 0.6654872
vt 0.9534922 0.6654872
vt 0.9534922 0.5191545
vt 0.8807918 0.5191545
vt 0.8807918 0.6654872
vt 0.9534922 0.6654872
vt 0.9534922 0.5191545
vt 0.8807918 0.5191545
vt 0.8807918 0.6654872
vt 0.9534922 0.6654872
vt 0.9534922 0.5191545
vt 0.8807918 0.5191545
vt 0.8807918 0.6654872
vt 0.9534922 0.6654872
vt 0.9534922 0.5191545
vt 0.8807918 0.5191545
vt 0.8807918 0.6654872
vt 0.9534922 0.6654872
vt 0.9534922 0.5191545
vt 0.8807918 0.5191545
vt 0.8807918 0.6654872
vt 0.9534922 0.6654872
vt 0.9534922 0.5191545
vt 0.8807918 0.5191545
vt 0.8807918 0.6654872
vt 0.9534922 0.6654872
vt 0.9534922 0.5191545
vt 0.8807918 0.5191545
vt 0.8807918 0.6654872
vt 0.9534922 0.6654872
vt 0.9534922 0.5191545
vt 0.8807918 0.5191545
vt 0.8807918 0.6654872
vt 0.9534922 0.6654872
vt 0.9534922 0.5191545
vt 0.8807918 0.5191545
vt 0.8807918 0.6654872
vt 0.9534922 0.6654872
vt 0.9534922 0.5191545
vt 0.8807918 0.5191545
vt 0.8807918 0.6654872
vt 0.9534922 0.6654872
vt 0.9534922 0.5191545
vt 0.8807918 0.5191545
vt 0.8807918 0.6654872
vt 0.9534922 0.6654872
vt 0.9534922 0.5191545
vt 0.8807918 0.5191545
vt 0.8807918 0.6654872
vt 0.9534922 0.6654872
vt 0.9534922 0.5191545
vt 0.8807918 0.5191545
vt 0.8807918 0.6654872
vt 0.9534922 0.6654872
vt 0.9534922 0.5191545
vt 0.8807918 0.5191545
vt 0.8807918 0.6654872
vt 0.9534922 0.6654872
vt 0.9534922 0.5191545
vt 0.8807918 0.5191545
vt 0.8807918 0.6654872
vt 0.9534922 0.6654872
vt 0.9534922 0.5191545
vt 0.8807918 0.5191545
vt 0.8807918 0.6654872
vt 0.9534922 0.6654872
vt 0.9534922 0.5191545
vt 0.8807918 0.5191545
vt 0.8807918 0.6654872
vt 0.9534922 0.6654872
vt 0.9534922 0.5191545
vt 0.8807918 0.5191545
vt 0.8807918 0.6654872
vt 0.9534922 0.6654872
vt 0.9534922 0.5191545
vt 0.8807918 0.5191545
vt 0.8807918 0.6654872
vt 0.9534922 0.6654872
vt 0.9534922 0.5191545
vt 0.8807918 0.5191545
vt 0.8807918 0.6654872
vt 0.9534922 0.6654872
vt 0.9534922 0.5191545
vn -0.005865574 0.185258 0.9826724
vn 0.001609087 0.185258 0.9826886
vn 0.001609087 0.185258 0.9826886
vn 0.001609087 0.185258 0.9826886
vn 0.001609087 0.185258 0.9826886
vn 0.001609087 0.185258 0.9826886
vn 0.009083807 0.4917201 -0.870706
vn 0.009083807 0.4991947 -0.8664422
vn 0.001609087 0.4991947 -0.8664883
vn 0.001609087 0.4991947 -0.8664883
vn 0.009083807 0.4991947 -0.8664422
vn -0.005865574 0.4991947 -0.86647
vn -0.005865574 0.185258 0.9826724
vn -0.005865574 0.185258 0.9826724
vn 0.001609087 0.185258 0.9826886
vn 0.001609087 0.4991947 -0.8664883
vn -0.005865574 0.4991947 -0.86647
vn -0.005865574 0.4917201 -0.8707336
vn 0.1585774 0.9850492 -0.06731422
vn 0.1585774 0.9850492 -0.06731422
vn 0.1585774 0.9850492 -0.06731422
vn 0.1585774 0.9850492 -0.06731422
vn 0.1511028 0.9850492 -0.08274026
vn 0.1511028 0.9850492 -0.08274026
vn 0.1432182 0.9896911 0
vn 0.1432182 0.9896911 0
vn 0.121204 0.9925239 -0.01434833
vn 0.121204 0.9925239 -0.01434833
vn 0.06871855 0.9976361 0
vn 0.06871855 0.9976361 0
vn 0.001609087 0.9999986 -0.000545915
vn 0.001609087 0.9999986 -0.000545915
vn -0.06552203 0.9978511 0
vn -0.06552203 0.9978511 0
vn -0.1179858 0.9925239 -0.03123474
vn -0.1179858 0.9925239 -0.03123474
vn -0.1473716 0.9890811 0
vn -0.1473716 0.9890811 0
vn -0.1553593 0.9850492 -0.07444128
vn -0.1553593 0.9850492 -0.07444128
vn -0.1553593 0.9850492 -0.07444128
vn -0.1553593 0.9850492 -0.07444128
vn -0.1628339 0.9850492 -0.05624144
vn -0.1628339 0.9850492 -0.05624144
vn 0.001609087 0.185258 0.9826886
vn 0.001609087 0.185258 0.9826886
vn -0.09556174 0.2226315 0.9702078
vn -0.09556174 0.2226315 0.9702078
vn 0.09130532 0.2226315 0.9706176
vn -0.005865574 0.185258 0.9826724
vn -0.005865574 0.185258 0.9826724
vn 0.09130532 0.2226315 0.9706176
vn -0.08061242 0.5141442 -0.8539072
vn 0.009083807 0.4991947 -0.8664422
vn 0.009083807 0.4917201 -0.870706
vn -0.08061242 0.5141442 -0.8539072
vn -0.005865574 0.4917201 -0.8707336
vn -0.005865574 0.4991947 -0.86647
vn 0.08383065 0.5141442 -0.8535972
vn 0.08383065 0.5141442 -0.8535972
vn 0.5846345 0.5664669 -0.5807906
vn 0.5846345 0.5664669 -0.5807906
vn 0.7939256 0.5216188 -0.3124034
vn 0.7939256 0.5216188 -0.3124034
vn 0.3155459 0.5589923 -0.7667845
vn 0.3155459 0.5589923 -0.7667845
vn 0.5846345 0.5664669 -0.5807906
vn 0.5846345 0.5664669 -0.5807906
vn 0.08383065 0.5141442 -0.8535972
vn 0.08383065 0.5141442 -0.8535972
vn 0.3155459 0.5589923 -0.7667845
vn 0.3155459 0.5589923 -0.7667845
vn -0.3123276 0.5589923 -0.768101
vn -0.08061242 0.5141442 -0.8539072
vn -0.08061242 0.5141442 -0.8539072
vn -0.3123276 0.5589923 -0.768101
vn -0.5814162 0.5664669 -0.5840123
vn -0.3123276 0.5589923 -0.768101
vn -0.3123276 0.5589923 -0.768101
vn -0.5814162 0.5664669 -0.5840123
vn -0.7907075 0.5216188 -0.3204614
vn -0.5814162 0.5664669 -0.5840123
vn -0.5814162 0.5664669 -0.5840123
vn -0.7907075 0.5216188 -0.3204614
vn -0.8953531 0.4393973 -0.07261429
vn -0.7907075 0.5216188 -0.3204614
vn -0.7907075 0.5216188 -0.3204614
vn -0.8953531 0.4393973 -0.07261429
vn -0.9028277 0.4169732 0.1050495
vn -0.8953531 0.4393973 -0.07261429
vn -0.8953531 0.4393973 -0.07261429
vn -0.9028277 0.4169732 0.1050495
vn -0.8355556 0.4244479 0.3488422
vn -0.9028277 0.4169732 0.1050495
vn -0.9028277 0.4169732 0.1050495
vn -0.8355556 0.4244479 0.3488422
vn -0.6486884 0.4020239 0.6462044
vn -0.8355556 0.4244479 0.3488422
vn -0.8355556 0.4244479 0.3488422
vn -0.6486884 0.4020239 0.6462044
vn -0.3571757 0.3198023 0.877583
vn -0.6486884 0.4020239 0.6462044
vn -0.6486884 0.4020239 0.6462044
vn -0.3571757 0.3198023 0.877583
vn -0.09556174 0.2226315 0.9702078
vn -0.3571757 0.3198023 0.877583
vn -0.3571757 0.3198023 0.877583
vn -0.09556174 0.2226315 0.9702078
vn 0.3603939 0.3198023 0.8762664
vn 0.3603939 0.3198023 0.8762664
vn 0.09130532 0.2226315 0.9706176
vn 0.09130532 0.2226315 0.9706176
vn 0.6444319 0.4020239 0.6504493
vn 0.6444319 0.4020239 0.6504493
vn 0.3603939 0.3198023 0.8762664
vn 0.3603939 0.3198023 0.8762664
vn 0.8312991 0.4244479 0.3588674
vn 0.8312991 0.4244479 0.3588674
vn 0.6444319 0.4020239 0.6504493
vn 0.6444319 0.4020239 0.6504493
vn 0.9060459 0.4169732 0.07220879
vn 0.9060459 0.4169732 0.07220879
vn 0.8312991 0.4244479 0.3588674
vn 0.8312991 0.4244479 0.3588674
vn 0.8910965 0.4393973 -0.1134767
vn 0.8910965 0.4393973 -0.1134767
vn 0.9060459 0.4169732 0.07220879
vn 0.9060459 0.4169732 0.07220879
vn 0.7939256 0.5216188 -0.3124034
vn 0.7939256 0.5216188 -0.3124034
vn 0.8910965 0.4393973 -0.1134767
vn 0.8910965 0.4393973 -0.1134767
g Tastiera.022_0
f 3/3/3 2/2/2 1/1/1
f 6/6/6 5/5/5 4/4/4
f 9/9/9 8/8/8 7/7/7
f 12/12/12 11/11/11 10/10/10
f 15/15/15 14/14/14 13/13/13
f 18/18/18 17/17/17 16/16/16
f 21/21/21 20/20/20 19/19/19
f 20/20/20 22/22/22 19/19/19
f 22/22/22 20/20/20 23/23/23
f 20/20/20 24/24/24 23/23/23
f 23/23/23 24/24/24 25/25/25
f 24/24/24 26/26/26 25/25/25
f 25/25/25 26/26/26 27/27/27
f 26/26/26 28/28/28 27/27/27
f 27/27/27 28/28/28 29/29/29
f 30/30/30 27/27/27 29/29/29
f 31/31/31 30/30/30 29/29/29
f 32/32/32 31/31/31 29/29/29
f 33/33/33 31/31/31 32/32/32
f 34/34/34 33/33/33 32/32/32
f 33/33/33 34/34/34 35/35/35
f 34/34/34 36/36/36 35/35/35
f 35/35/35 36/36/36 37/37/37
f 38/38/38 35/35/35 37/37/37
f 38/38/38 37/37/37 39/39/39
f 40/40/40 38/38/38 39/39/39
f 40/40/40 39/39/39 41/41/41
f 42/42/42 40/40/40 41/41/41
f 41/41/41 43/43/43 42/42/42
f 43/43/43 44/44/44 42/42/42
f 47/47/47 46/46/46 45/45/45
f 48/48/48 47/47/47 45/45/45
f 51/51/51 50/50/50 49/49/49
f 52/52/52 51/51/51 49/49/49
f 55/55/55 54/54/54 53/53/53
f 56/56/56 55/55/55 53/53/53
f 59/59/59 58/58/58 57/57/57
f 60/60/60 59/59/59 57/57/57
f 63/63/63 62/62/62 61/61/61
f 64/64/64 63/63/63 61/61/61
f 67/67/67 66/66/66 65/65/65
f 68/68/68 67/67/67 65/65/65
f 71/71/71 70/70/70 69/69/69
f 72/72/72 71/71/71 69/69/69
f 75/75/75 74/74/74 73/73/73
f 76/76/76 75/75/75 73/73/73
f 79/79/79 78/78/78 77/77/77
f 80/80/80 79/79/79 77/77/77
f 83/83/83 82/82/82 81/81/81
f 84/84/84 83/83/83 81/81/81
f 87/87/87 86/86/86 85/85/85
f 88/88/88 87/87/87 85/85/85
f 91/91/91 90/90/90 89/89/89
f 92/92/92 91/91/91 89/89/89
f 95/95/95 94/94/94 93/93/93
f 96/96/96 95/95/95 93/93/93
f 99/99/99 98/98/98 97/97/97
f 100/100/100 99/99/99 97/97/97
f 103/103/103 102/102/102 101/101/101
f 104/104/104 103/103/103 101/101/101
f 107/107/107 106/106/106 105/105/105
f 108/108/108 107/107/107 105/105/105
f 111/111/111 110/110/110 109/109/109
f 112/112/112 111/111/111 109/109/109
f 115/115/115 114/114/114 113/113/113
f 116/116/116 115/115/115 113/113/113
f 119/119/119 118/118/118 117/117/117
f 120/120/120 119/119/119 117/117/117
f 123/123/123 122/122/122 121/121/121
f 124/124/124 123/123/123 121/121/121
f 127/127/127 126/126/126 125/125/125
f 128/128/128 127/127/127 125/125/125
f 131/131/131 130/130/130 129/129/129
f 132/132/132 131/131/131 129/129/129
