g Tastiera.025
v -0.1965618 0.1684792 0.1872039
v -0.3463235 0.1684792 0.1872039
v -0.2714426 0.2650991 0.1684792
v -0.2714426 0.2650991 0.1684792
v -0.3463235 0.1684792 0.1872039
v -0.3229198 0.2668627 0.1684792
v -0.3229198 0.2668627 -0.09360386
v -0.3463235 0.1684792 -0.14976
v -0.2714426 0.2650991 -0.09360386
v -0.2714426 0.2650991 -0.09360386
v -0.3463235 0.1684792 -0.14976
v -0.1965618 0.1684792 -0.14976
v -0.2199564 0.2668627 0.1684792
v -0.1965618 0.1684792 0.1872039
v -0.2714426 0.2650991 0.1684792
v -0.2714426 0.2650991 -0.09360386
v -0.1965618 0.1684792 -0.14976
v -0.2199564 0.2668627 -0.09360386
v -0.3931218 0.2749788 -0.07487914
v -0.3916911 0.2747539 0.1569258
v -0.3931218 0.2749788 0.1497635
v -0.3916911 0.2747539 -0.0820415
v -0.387633 0.274106 -0.08811511
v -0.387633 0.274106 0.1629995
v -0.3815684 0.2731882 -0.09217318
v -0.3815684 0.2731882 0.1670575
v -0.3743971 0.2721715 -0.09360386
v -0.3743971 0.2721715 0.1684792
v -0.3229198 0.2668627 0.1684792
v -0.3229198 0.2668627 -0.09360386
v -0.2714426 0.2650991 -0.09360386
v -0.2714426 0.2650991 0.1684792
v -0.2199564 0.2668627 -0.09360386
v -0.2199564 0.2668627 0.1684792
v -0.1684792 0.2721715 -0.09360386
v -0.1684792 0.2721715 0.1684792
v -0.1613168 0.2731882 0.1670575
v -0.1613168 0.2731882 -0.09217318
v -0.1552432 0.274106 0.1629995
v -0.1552432 0.274106 -0.08811511
v -0.1511852 0.2747539 0.1569258
v -0.1511852 0.2747539 -0.0820415
v -0.1497635 0.2749788 0.1497635
v -0.1497635 0.2749788 -0.07487914
v -0.3229198 0.2668627 0.1684792
v -0.3463235 0.1684792 0.1872039
v -0.4212044 0.1684792 0.1872039
v -0.3743971 0.2721715 0.1684792
v -0.1216809 0.1684792 0.1872039
v -0.1965618 0.1684792 0.1872039
v -0.2199564 0.2668627 0.1684792
v -0.1684792 0.2721715 0.1684792
v -0.4212044 0.1684792 -0.14976
v -0.3463235 0.1684792 -0.14976
v -0.3229198 0.2668627 -0.09360386
v -0.3743971 0.2721715 -0.09360386
v -0.2199564 0.2668627 -0.09360386
v -0.1965618 0.1684792 -0.14976
v -0.1216809 0.1684792 -0.14976
v -0.1684792 0.2721715 -0.09360386
v -0.1552432 0.274106 -0.08811511
v -0.1084449 0.1684792 -0.1442803
v -0.1043868 0.1684792 -0.1382066
v -0.1511852 0.2747539 -0.0820415
v -0.1613168 0.2731882 -0.09217318
v -0.1145185 0.1684792 -0.1483383
v -0.1084449 0.1684792 -0.1442803
v -0.1552432 0.274106 -0.08811511
v -0.1684792 0.2721715 -0.09360386
v -0.1216809 0.1684792 -0.14976
v -0.1145185 0.1684792 -0.1483383
v -0.1613168 0.2731882 -0.09217318
v -0.4283667 0.1684792 -0.1483383
v -0.4212044 0.1684792 -0.14976
v -0.3743971 0.2721715 -0.09360386
v -0.3815684 0.2731882 -0.09217318
v -0.4344403 0.1684792 -0.1442803
v -0.4283667 0.1684792 -0.1483383
v -0.3815684 0.2731882 -0.09217318
v -0.387633 0.274106 -0.08811511
v -0.4384984 0.1684792 -0.1382066
v -0.4344403 0.1684792 -0.1442803
v -0.387633 0.274106 -0.08811511
v -0.3916911 0.2747539 -0.0820415
v -0.4399201 0.1684792 -0.1310443
v -0.4384984 0.1684792 -0.1382066
v -0.3916911 0.2747539 -0.0820415
v -0.3931218 0.2749788 -0.07487914
v -0.4399201 0.1684792 0.1684792
v -0.4399201 0.1684792 -0.1310443
v -0.3931218 0.2749788 -0.07487914
v -0.3931218 0.2749788 0.1497635
v -0.4384984 0.1684792 0.1756415
v -0.4399201 0.1684792 0.1684792
v -0.3931218 0.2749788 0.1497635
v -0.3916911 0.2747539 0.1569258
v -0.4344403 0.1684792 0.1817152
v -0.4384984 0.1684792 0.1756415
v -0.3916911 0.2747539 0.1569258
v -0.387633 0.274106 0.1629995
v -0.4283667 0.1684792 0.1857732
v -0.4344403 0.1684792 0.1817152
v -0.387633 0.274106 0.1629995
v -0.3815684 0.2731882 0.1670575
v -0.4212044 0.1684792 0.1872039
v -0.4283667 0.1684792 0.1857732
v -0.3815684 0.2731882 0.1670575
v -0.3743971 0.2721715 0.1684792
v -0.1613168 0.2731882 0.1670575
v -0.1145185 0.1684792 0.1857732
v -0.1216809 0.1684792 0.1872039
v -0.1684792 0.2721715 0.1684792
v -0.1552432 0.274106 0.1629995
v -0.1084449 0.1684792 0.1817152
v -0.1145185 0.1684792 0.1857732
v -0.1613168 0.2731882 0.1670575
v -0.1511852 0.2747539 0.1569258
v -0.1043868 0.1684792 0.1756415
v -0.1084449 0.1684792 0.1817152
v -0.1552432 0.274106 0.1629995
v -0.1497635 0.2749788 0.1497635
v -0.1029562 0.1684792 0.1684792
v -0.1043868 0.1684792 0.1756415
v -0.1511852 0.2747539 0.1569258
v -0.1497635 0.2749788 -0.07487914
v -0.1029562 0.1684792 -0.1310443
v -0.1029562 0.1684792 0.1684792
v -0.1497635 0.2749788 0.1497635
v -0.1511852 0.2747539 -0.0820415
v -0.1043868 0.1684792 -0.1382066
v -0.1029562 0.1684792 -0.1310443
v -0.1497635 0.2749788 -0.07487914
vt 0.8805444 0.5191989
vt 0.953492 0.6650943
vt 0.953492 0.5191989
vt 0.8805444 0.5191989
vt 0.953492 0.6650943
vt 0.953492 0.5191989
vt 0.8805444 0.5191989
vt 0.953492 0.6650943
vt 0.953492 0.5191989
vt 0.8805444 0.5191989
vt 0.953492 0.6650943
vt 0.953492 0.5191989
vt 0.8805444 0.5191989
vt 0.953492 0.6650943
vt 0.953492 0.5191989
vt 0.8805444 0.5191989
vt 0.953492 0.6650943
vt 0.953492 0.5191989
vt 0.4377689 0.5090201
vt 0.4372034 0.6192899
vt 0.4377689 0.615897
vt 0.4372034 0.5056273
vt 0.4360725 0.5027998
vt 0.4360725 0.6221173
vt 0.434376 0.5005379
vt 0.434376 0.6243793
vt 0.4326796 0.4999724
vt 0.4326796 0.6249447
vt 0.4196734 0.6249447
vt 0.4196734 0.4999724
vt 0.4061017 0.4999724
vt 0.4061017 0.6249447
vt 0.3930956 0.4999724
vt 0.3930956 0.6249447
vt 0.3800894 0.4999724
vt 0.3800894 0.6249447
vt 0.3778274 0.6243793
vt 0.3778274 0.5005379
vt 0.376131 0.6221173
vt 0.376131 0.5027998
vt 0.3755655 0.6192899
vt 0.3755655 0.5056273
vt 0.375 0.615897
vt 0.375 0.5090201
vt 0.8805444 0.5191989
vt 0.8805444 0.6650943
vt 0.953492 0.6650943
vt 0.953492 0.5191989
vt 0.8805444 0.5191989
vt 0.8805444 0.6650943
vt 0.953492 0.6650943
vt 0.953492 0.5191989
vt 0.8805444 0.5191989
vt 0.8805444 0.6650943
vt 0.953492 0.6650943
vt 0.953492 0.5191989
vt 0.8805444 0.5191989
vt 0.8805444 0.6650943
vt 0.953492 0.6650943
vt 0.953492 0.5191989
vt 0.8805444 0.5191989
vt 0.8805444 0.6650943
vt 0.953492 0.6650943
vt 0.953492 0.5191989
vt 0.8805444 0.5191989
vt 0.8805444 0.6650943
vt 0.953492 0.6650943
vt 0.953492 0.5191989
vt 0.8805444 0.5191989
vt 0.8805444 0.6650943
vt 0.953492 0.6650943
vt 0.953492 0.5191989
vt 0.8805444 0.5191989
vt 0.8805444 0.6650943
vt 0.953492 0.6650943
vt 0.953492 0.5191989
vt 0.8805444 0.5191989
vt 0.8805444 0.6650943
vt 0.953492 0.6650943
vt 0.953492 0.5191989
vt 0.8805444 0.5191989
vt 0.8805444 0.6650943
vt 0.953492 0.6650943
vt 0.953492 0.5191989
vt 0.8805444 0.5191989
vt 0.8805444 0.6650943
vt 0.953492 0.6650943
vt 0.953492 0.5191989
vt 0.8805444 0.5191989
vt 0.8805444 0.6650943
vt 0.953492 0.6650943
vt 0.953492 0.5191989
vt 0.8805444 0.5191989
vt 0.8805444 0.6650943
vt 0.953492 0.6650943
vt 0.953492 0.5191989
vt 0.8805444 0.5191989
vt 0.8805444 0.6650943
vt 0.953492 0.6650943
vt 0.953492 0.5191989
vt 0.8805444 0.5191989
vt 0.8805444 0.6650943
vt 0.953492 0.6650943
vt 0.953492 0.5191989
vt 0.8805444 0.5191989
vt 0.8805444 0.6650943
vt 0.953492 0.6650943
vt 0.953492 0.5191989
vt 0.8805444 0.5191989
vt 0.8805444 0.6650943
vt 0.953492 0.6650943
vt 0.953492 0.5191989
vt 0.8805444 0.5191989
vt 0.8805444 0.6650943
vt 0.953492 0.6650943
vt 0.953492 0.5191989
vt 0.8805444 0.5191989
vt 0.8805444 0.6650943
vt 0.953492 0.6650943
vt 0.953492 0.5191989
vt 0.8805444 0.5191989
vt 0.8805444 0.6650943
vt 0.953492 0.6650943
vt 0.953492 0.5191989
vt 0.8805444 0.5191989
vt 0.8805444 0.6650943
vt 0.953492 0.6650943
vt 0.953492 0.5191989
vt 0.8805444 0.5191989
vt 0.8805444 0.6650943
vt 0.953492 0.6650943
vt 0.953492 0.5191989
vn -0.005864859 0.1852574 0.9826725
vn 0.001609862 0.1852574 0.9826887
vn 0.001609862 0.1852574 0.9826887
vn 0.001609862 0.1852574 0.9826887
vn 0.001609862 0.1852574 0.9826887
vn 0.001609862 0.1852574 0.9826887
vn 0.009084523 0.4917197 -0.8707062
vn 0.009084523 0.4991943 -0.8664424
vn 0.001609862 0.4991943 -0.8664886
vn 0.001609862 0.4991943 -0.8664886
vn 0.009084523 0.4991943 -0.8664424
vn -0.005864859 0.4991943 -0.8664702
vn -0.005864859 0.1852574 0.9826725
vn -0.005864859 0.1852574 0.9826725
vn 0.001609862 0.1852574 0.9826887
vn 0.001609862 0.4991943 -0.8664886
vn -0.005864859 0.4991943 -0.8664702
vn -0.005864859 0.4917197 -0.8707339
vn 0.1585783 0.9850492 -0.0673129
vn 0.1585783 0.9850492 -0.0673129
vn 0.1585783 0.9850492 -0.0673129
vn 0.1585783 0.9850492 -0.0673129
vn 0.1511036 0.9850492 -0.08273954
vn 0.1511036 0.9850492 -0.08273954
vn 0.143219 0.989691 0
vn 0.143219 0.989691 0
vn 0.1212049 0.9925238 -0.01434417
vn 0.1212049 0.9925238 -0.01434417
vn 0.06871931 0.997636 0
vn 0.06871931 0.997636 0
vn 0.001609862 0.9999985 -0.0006459354
vn 0.001609862 0.9999985 -0.0006459354
vn -0.06552139 0.9978512 0
vn -0.06552139 0.9978512 0
vn -0.1179852 0.9925238 -0.03123951
vn -0.1179852 0.9925238 -0.03123951
vn -0.147371 0.9890813 0
vn -0.147371 0.9890813 0
vn -0.1553586 0.9850492 -0.07444327
vn -0.1553586 0.9850492 -0.07444327
vn -0.1553586 0.9850492 -0.07444327
vn -0.1553586 0.9850492 -0.07444327
vn -0.1628333 0.9850492 -0.05624462
vn -0.1628333 0.9850492 -0.05624462
vn 0.001609862 0.1852574 0.9826887
vn 0.001609862 0.1852574 0.9826887
vn -0.09556109 0.2226308 0.970208
vn -0.09556109 0.2226308 0.970208
vn 0.09130615 0.2226308 0.9706177
vn -0.005864859 0.1852574 0.9826725
vn -0.005864859 0.1852574 0.9826725
vn 0.09130615 0.2226308 0.9706177
vn -0.08061177 0.5141438 -0.8539075
vn 0.009084523 0.4991943 -0.8664424
vn 0.009084523 0.4917197 -0.8707062
vn -0.08061177 0.5141438 -0.8539075
vn -0.005864859 0.4917197 -0.8707339
vn -0.005864859 0.4991943 -0.8664702
vn 0.08383143 0.5141438 -0.8535974
vn 0.08383143 0.5141438 -0.8535974
vn 0.5846356 0.5664665 -0.5807899
vn 0.5846356 0.5664665 -0.5807899
vn 0.793927 0.5216184 -0.3124007
vn 0.793927 0.5216184 -0.3124007
vn 0.3155468 0.5589918 -0.7667844
vn 0.3155468 0.5589918 -0.7667844
vn 0.5846356 0.5664665 -0.5807899
vn 0.5846356 0.5664665 -0.5807899
vn 0.08383143 0.5141438 -0.8535974
vn 0.08383143 0.5141438 -0.8535974
vn 0.3155468 0.5589918 -0.7667844
vn 0.3155468 0.5589918 -0.7667844
vn -0.3123271 0.5589918 -0.7681015
vn -0.08061177 0.5141438 -0.8539075
vn -0.08061177 0.5141438 -0.8539075
vn -0.3123271 0.5589918 -0.7681015
vn -0.581416 0.5664665 -0.584013
vn -0.3123271 0.5589918 -0.7681015
vn -0.3123271 0.5589918 -0.7681015
vn -0.581416 0.5664665 -0.584013
vn -0.7907073 0.5216184 -0.3204624
vn -0.581416 0.5664665 -0.584013
vn -0.581416 0.5664665 -0.584013
vn -0.7907073 0.5216184 -0.3204624
vn -0.8953529 0.4393968 -0.07261962
vn -0.7907073 0.5216184 -0.3204624
vn -0.7907073 0.5216184 -0.3204624
vn -0.8953529 0.4393968 -0.07261962
vn -0.9028276 0.4169728 0.1050526
vn -0.8953529 0.4393968 -0.07261962
vn -0.8953529 0.4393968 -0.07261962
vn -0.9028276 0.4169728 0.1050526
vn -0.8355554 0.4244475 0.3488432
vn -0.9028276 0.4169728 0.1050526
vn -0.9028276 0.4169728 0.1050526
vn -0.8355554 0.4244475 0.3488432
vn -0.6486881 0.4020234 0.646205
vn -0.8355554 0.4244475 0.3488432
vn -0.8355554 0.4244475 0.3488432
vn -0.6486881 0.4020234 0.646205
vn -0.3571753 0.3198017 0.8775834
vn -0.6486881 0.4020234 0.646205
vn -0.6486881 0.4020234 0.646205
vn -0.3571753 0.3198017 0.8775834
vn -0.09556109 0.2226308 0.970208
vn -0.3571753 0.3198017 0.8775834
vn -0.3571753 0.3198017 0.8775834
vn -0.09556109 0.2226308 0.970208
vn 0.360395 0.3198017 0.8762661
vn 0.360395 0.3198017 0.8762661
vn 0.09130615 0.2226308 0.9706177
vn 0.09130615 0.2226308 0.9706177
vn 0.6444331 0.4020234 0.6504484
vn 0.6444331 0.4020234 0.6504484
vn 0.360395 0.3198017 0.8762661
vn 0.360395 0.3198017 0.8762661
vn 0.8313004 0.4244475 0.3588649
vn 0.8313004 0.4244475 0.3588649
vn 0.6444331 0.4020234 0.6504484
vn 0.6444331 0.4020234 0.6504484
vn 0.9060473 0.4169728 0.07219424
vn 0.9060473 0.4169728 0.07219424
vn 0.8313004 0.4244475 0.3588649
vn 0.8313004 0.4244475 0.3588649
vn 0.8910979 0.4393968 -0.113468
vn 0.8910979 0.4393968 -0.113468
vn 0.9060473 0.4169728 0.07219424
vn 0.9060473 0.4169728 0.07219424
vn 0.793927 0.5216184 -0.3124007
vn 0.793927 0.5216184 -0.3124007
vn 0.8910979 0.4393968 -0.113468
vn 0.8910979 0.4393968 -0.113468
g Tastiera.025_0
f 3/3/3 2/2/2 1/1/1
f 6/6/6 5/5/5 4/4/4
f 9/9/9 8/8/8 7/7/7
f 12/12/12 11/11/11 10/10/10
f 15/15/15 14/14/14 13/13/13
f 18/18/18 17/17/17 16/16/16
f 21/21/21 20/20/20 19/19/19
f 20/20/20 22/22/22 19/19/19
f 22/22/22 20/20/20 23/23/23
f 20/20/20 24/24/24 23/23/23
f 23/23/23 24/24/24 25/25/25
f 24/24/24 26/26/26 25/25/25
f 25/25/25 26/26/26 27/27/27
f 26/26/26 28/28/28 27/27/27
f 27/27/27 28/28/28 29/29/29
f 30/30/30 27/27/27 29/29/29
f 31/31/31 30/30/30 29/29/29
f 32/32/32 31/31/31 29/29/29
f 33/33/33 31/31/31 32/32/32
f 34/34/34 33/33/33 32/32/32
f 33/33/33 34/34/34 35/35/35
f 34/34/34 36/36/36 35/35/35
f 35/35/35 36/36/36 37/37/37
f 38/38/38 35/35/35 37/37/37
f 38/38/38 37/37/37 39/39/39
f 40/40/40 38/38/38 39/39/39
f 40/40/40 39/39/39 41/41/41
f 42/42/42 40/40/40 41/41/41
f 41/41/41 43/43/43 42/42/42
f 43/43/43 44/44/44 42/42/42
f 47/47/47 46/46/46 45/45/45
f 48/48/48 47/47/47 45/45/45
f 51/51/51 50/50/50 49/49/49
f 52/52/52 51/51/51 49/49/49
f 55/55/55 54/54/54 53/53/53
f 56/56/56 55/55/55 53/53/53
f 59/59/59 58/58/58 57/57/57
f 60/60/60 59/59/59 57/57/57
f 63/63/63 62/62/62 61/61/61
f 64/64/64 63/63/63 61/61/61
f 67/67/67 66/66/66 65/65/65
f 68/68/68 67/67/67 65/65/65
f 71/71/71 70/70/70 69/69/69
f 72/72/72 71/71/71 69/69/69
f 75/75/75 74/74/74 73/73/73
f 76/76/76 75/75/75 73/73/73
f 79/79/79 78/78/78 77/77/77
f 80/80/80 79/79/79 77/77/77
f 83/83/83 82/82/82 81/81/81
f 84/84/84 83/83/83 81/81/81
f 87/87/87 86/86/86 85/85/85
f 88/88/88 87/87/87 85/85/85
f 91/91/91 90/90/90 89/89/89
f 92/92/92 91/91/91 89/89/89
f 95/95/95 94/94/94 93/93/93
f 96/96/96 95/95/95 93/93/93
f 99/99/99 98/98/98 97/97/97
f 100/100/100 99/99/99 97/97/97
f 103/103/103 102/102/102 101/101/101
f 104/104/104 103/103/103 101/101/101
f 107/107/107 106/106/106 105/105/105
f 108/108/108 107/107/107 105/105/105
f 111/111/111 110/110/110 109/109/109
f 112/112/112 111/111/111 109/109/109
f 115/115/115 114/114/114 113/113/113
f 116/116/116 115/115/115 113/113/113
f 119/119/119 118/118/118 117/117/117
f 120/120/120 119/119/119 117/117/117
f 123/123/123 122/122/122 121/121/121
f 124/124/124 123/123/123 121/121/121
f 127/127/127 126/126/126 125/125/125
f 128/128/128 127/127/127 125/125/125
f 131/131/131 130/130/130 129/129/129
f 132/132/132 131/131/131 129/129/129
