g Tastiera.011
v -0.2807969 0.1684804 0.8985602
v -0.430556 0.1684804 0.8985602
v -0.355682 0.2651002 0.8798444
v -0.355682 0.2651002 0.8798444
v -0.430556 0.1684804 0.8985602
v -0.4071614 0.2668715 0.8798444
v -0.4071614 0.2668715 0.6177577
v -0.430556 0.1684804 0.5615994
v -0.355682 0.2651002 0.6177577
v -0.355682 0.2651002 0.6177577
v -0.430556 0.1684804 0.5615994
v -0.2807969 0.1684804 0.5615994
v -0.3042027 0.2668715 0.8798444
v -0.2807969 0.1684804 0.8985602
v -0.355682 0.2651002 0.8798444
v -0.355682 0.2651002 0.6177577
v -0.2807969 0.1684804 0.5615994
v -0.3042027 0.2668715 0.6177577
v -0.4773564 0.2749817 0.6364845
v -0.4759305 0.2747477 0.8682808
v -0.4773564 0.2749817 0.8611176
v -0.4759305 0.2747477 0.6293213
v -0.4718754 0.2741127 0.6232387
v -0.4718754 0.2741127 0.8743523
v -0.4658039 0.2731881 0.6191837
v -0.4658039 0.2731881 0.8784185
v -0.4586407 0.2721743 0.6177577
v -0.4586407 0.2721743 0.8798444
v -0.4071614 0.2668715 0.8798444
v -0.4071614 0.2668715 0.6177577
v -0.355682 0.2651002 0.6177577
v -0.355682 0.2651002 0.8798444
v -0.3042027 0.2668715 0.6177577
v -0.3042027 0.2668715 0.8798444
v -0.2527233 0.2721743 0.6177577
v -0.2527233 0.2721743 0.8798444
v -0.2455601 0.2731881 0.8784185
v -0.2455601 0.2731881 0.6191837
v -0.2394775 0.2741127 0.8743523
v -0.2394775 0.2741127 0.6232387
v -0.2354224 0.2747477 0.8682808
v -0.2354224 0.2747477 0.6293213
v -0.2339965 0.2749817 0.8611176
v -0.2339965 0.2749817 0.6364845
v -0.4071614 0.2668715 0.8798444
v -0.430556 0.1684804 0.8985602
v -0.5054411 0.1684804 0.8985602
v -0.4586407 0.2721743 0.8798444
v -0.2059229 0.1684804 0.8985602
v -0.2807969 0.1684804 0.8985602
v -0.3042027 0.2668715 0.8798444
v -0.2527233 0.2721743 0.8798444
v -0.5054411 0.1684804 0.5615994
v -0.430556 0.1684804 0.5615994
v -0.4071614 0.2668715 0.6177577
v -0.4586407 0.2721743 0.6177577
v -0.3042027 0.2668715 0.6177577
v -0.2807969 0.1684804 0.5615994
v -0.2059229 0.1684804 0.5615994
v -0.2527233 0.2721743 0.6177577
v -0.2394775 0.2741127 0.6232387
v -0.1926882 0.1684804 0.5670804
v -0.188622 0.1684804 0.5731519
v -0.2354224 0.2747477 0.6293213
v -0.2455601 0.2731881 0.6191837
v -0.1987597 0.1684804 0.5630254
v -0.1926882 0.1684804 0.5670804
v -0.2394775 0.2741127 0.6232387
v -0.2527233 0.2721743 0.6177577
v -0.2059229 0.1684804 0.5615994
v -0.1987597 0.1684804 0.5630254
v -0.2455601 0.2731881 0.6191837
v -0.5126044 0.1684804 0.5630254
v -0.5054411 0.1684804 0.5615994
v -0.4586407 0.2721743 0.6177577
v -0.4658039 0.2731881 0.6191837
v -0.5186758 0.1684804 0.5670804
v -0.5126044 0.1684804 0.5630254
v -0.4658039 0.2731881 0.6191837
v -0.4718754 0.2741127 0.6232387
v -0.5227309 0.1684804 0.5731519
v -0.5186758 0.1684804 0.5670804
v -0.4718754 0.2741127 0.6232387
v -0.4759305 0.2747477 0.6293213
v -0.5241569 0.1684804 0.5803151
v -0.5227309 0.1684804 0.5731519
v -0.4759305 0.2747477 0.6293213
v -0.4773564 0.2749817 0.6364845
v -0.5241569 0.1684804 0.8798444
v -0.5241569 0.1684804 0.5803151
v -0.4773564 0.2749817 0.6364845
v -0.4773564 0.2749817 0.8611176
v -0.5227309 0.1684804 0.8870077
v -0.5241569 0.1684804 0.8798444
v -0.4773564 0.2749817 0.8611176
v -0.4759305 0.2747477 0.8682808
v -0.5186758 0.1684804 0.8930792
v -0.5227309 0.1684804 0.8870077
v -0.4759305 0.2747477 0.8682808
v -0.4718754 0.2741127 0.8743523
v -0.5126044 0.1684804 0.8971342
v -0.5186758 0.1684804 0.8930792
v -0.4718754 0.2741127 0.8743523
v -0.4658039 0.2731881 0.8784185
v -0.5054411 0.1684804 0.8985602
v -0.5126044 0.1684804 0.8971342
v -0.4658039 0.2731881 0.8784185
v -0.4586407 0.2721743 0.8798444
v -0.2455601 0.2731881 0.8784185
v -0.1987597 0.1684804 0.8971342
v -0.2059229 0.1684804 0.8985602
v -0.2527233 0.2721743 0.8798444
v -0.2394775 0.2741127 0.8743523
v -0.1926882 0.1684804 0.8930792
v -0.1987597 0.1684804 0.8971342
v -0.2455601 0.2731881 0.8784185
v -0.2354224 0.2747477 0.8682808
v -0.188622 0.1684804 0.8870077
v -0.1926882 0.1684804 0.8930792
v -0.2394775 0.2741127 0.8743523
v -0.2339965 0.2749817 0.8611176
v -0.1871961 0.1684804 0.8798444
v -0.188622 0.1684804 0.8870077
v -0.2354224 0.2747477 0.8682808
v -0.2339965 0.2749817 0.6364845
v -0.1871961 0.1684804 0.5803151
v -0.1871961 0.1684804 0.8798444
v -0.2339965 0.2749817 0.8611176
v -0.2354224 0.2747477 0.6293213
v -0.188622 0.1684804 0.5731519
v -0.1871961 0.1684804 0.5803151
v -0.2339965 0.2749817 0.6364845
vt 0.8803482 0.5190617
vt 0.953492 0.6653495
vt 0.953492 0.5190617
vt 0.8803482 0.5190617
vt 0.953492 0.6653495
vt 0.953492 0.5190617
vt 0.8803482 0.5190617
vt 0.953492 0.6653495
vt 0.953492 0.5190617
vt 0.8803482 0.5190617
vt 0.953492 0.6653495
vt 0.953492 0.5190617
vt 0.8803482 0.5190617
vt 0.953492 0.6653495
vt 0.953492 0.5190617
vt 0.8803482 0.5190617
vt 0.953492 0.6653495
vt 0.953492 0.5190617
vt 0.5625048 0.758885
vt 0.5620615 0.869709
vt 0.5625048 0.8661627
vt 0.5620615 0.7553387
vt 0.5611749 0.7526789
vt 0.5611749 0.8723688
vt 0.5594017 0.7504624
vt 0.5594017 0.8741421
vt 0.5576285 0.7500191
vt 0.5576285 0.8750286
vt 0.5443296 0.8750286
vt 0.5443296 0.7500191
vt 0.5310307 0.7500191
vt 0.5310307 0.8750286
vt 0.5181751 0.7500191
vt 0.5181751 0.8750286
vt 0.5048763 0.7500191
vt 0.5048763 0.8750286
vt 0.5031031 0.8741421
vt 0.5031031 0.7504624
vt 0.5013299 0.8723688
vt 0.5013299 0.7526789
vt 0.5004433 0.869709
vt 0.5004433 0.7553387
vt 0.5 0.8661627
vt 0.5 0.758885
vt 0.8803482 0.5190617
vt 0.8803482 0.6653495
vt 0.953492 0.6653495
vt 0.953492 0.5190617
vt 0.8803482 0.5190617
vt 0.8803482 0.6653495
vt 0.953492 0.6653495
vt 0.953492 0.5190617
vt 0.8803482 0.5190617
vt 0.8803482 0.6653495
vt 0.953492 0.6653495
vt 0.953492 0.5190617
vt 0.8803482 0.5190617
vt 0.8803482 0.6653495
vt 0.953492 0.6653495
vt 0.953492 0.5190617
vt 0.8803482 0.5190617
vt 0.8803482 0.6653495
vt 0.953492 0.6653495
vt 0.953492 0.5190617
vt 0.8803482 0.5190617
vt 0.8803482 0.6653495
vt 0.953492 0.6653495
vt 0.953492 0.5190617
vt 0.8803482 0.5190617
vt 0.8803482 0.6653495
vt 0.953492 0.6653495
vt 0.953492 0.5190617
vt 0.8803482 0.5190617
vt 0.8803482 0.6653495
vt 0.953492 0.6653495
vt 0.953492 0.5190617
vt 0.8803482 0.5190617
vt 0.8803482 0.6653495
vt 0.953492 0.6653495
vt 0.953492 0.5190617
vt 0.8803482 0.5190617
vt 0.8803482 0.6653495
vt 0.953492 0.6653495
vt 0.953492 0.5190617
vt 0.8803482 0.5190617
vt 0.8803482 0.6653495
vt 0.953492 0.6653495
vt 0.953492 0.5190617
vt 0.8803482 0.5190617
vt 0.8803482 0.6653495
vt 0.953492 0.6653495
vt 0.953492 0.5190617
vt 0.8803482 0.5190617
vt 0.8803482 0.6653495
vt 0.953492 0.6653495
vt 0.953492 0.5190617
vt 0.8803482 0.5190617
vt 0.8803482 0.6653495
vt 0.953492 0.6653495
vt 0.953492 0.5190617
vt 0.8803482 0.5190617
vt 0.8803482 0.6653495
vt 0.953492 0.6653495
vt 0.953492 0.5190617
vt 0.8803482 0.5190617
vt 0.8803482 0.6653495
vt 0.953492 0.6653495
vt 0.953492 0.5190617
vt 0.8803482 0.5190617
vt 0.8803482 0.6653495
vt 0.953492 0.6653495
vt 0.953492 0.5190617
vt 0.8803482 0.5190617
vt 0.8803482 0.6653495
vt 0.953492 0.6653495
vt 0.953492 0.5190617
vt 0.8803482 0.5190617
vt 0.8803482 0.6653495
vt 0.953492 0.6653495
vt 0.953492 0.5190617
vt 0.8803482 0.5190617
vt 0.8803482 0.6653495
vt 0.953492 0.6653495
vt 0.953492 0.5190617
vt 0.8803482 0.5190617
vt 0.8803482 0.6653495
vt 0.953492 0.6653495
vt 0.953492 0.5190617
vt 0.8803482 0.5190617
vt 0.8803482 0.6653495
vt 0.953492 0.6653495
vt 0.953492 0.5190617
vn -0.00586313 0.1852561 0.9826728
vn 0.001611531 0.1852561 0.982689
vn 0.001611531 0.1852561 0.982689
vn 0.001611531 0.1852561 0.982689
vn 0.001611531 0.1852561 0.982689
vn 0.001611531 0.1852561 0.982689
vn 0.009086251 0.4917189 -0.8707066
vn 0.009086251 0.4991936 -0.8664429
vn 0.001611531 0.4991936 -0.8664889
vn 0.001611531 0.4991936 -0.8664889
vn 0.009086251 0.4991936 -0.8664429
vn -0.00586313 0.4991936 -0.8664706
vn -0.00586313 0.1852561 0.9826728
vn -0.00586313 0.1852561 0.9826728
vn 0.001611531 0.1852561 0.982689
vn 0.001611531 0.4991936 -0.8664889
vn -0.00586313 0.4991936 -0.8664706
vn -0.00586313 0.4917189 -0.8707342
vn 0.1585804 0.9850494 -0.06730448
vn 0.1585804 0.9850494 -0.06730448
vn 0.1585804 0.9850494 -0.06730448
vn 0.1585804 0.9850494 -0.06730448
vn 0.1511056 0.9850494 -0.0827327
vn 0.1511056 0.9850494 -0.0827327
vn 0.1432209 0.9896907 0
vn 0.1432209 0.9896907 0
vn 0.1212068 0.9925241 -0.01431089
vn 0.1212068 0.9925241 -0.01431089
vn 0.06872113 0.9976359 0
vn 0.06872113 0.9976359 0
vn 0.001611531 0.9999987 0
vn 0.001611531 0.9999987 0
vn -0.06551977 0.9978513 0
vn -0.06551977 0.9978513 0
vn -0.1179838 0.9925241 -0.03123664
vn -0.1179838 0.9925241 -0.03123664
vn -0.1473696 0.9890816 0
vn -0.1473696 0.9890816 0
vn -0.1553572 0.9850494 -0.07444327
vn -0.1553572 0.9850494 -0.07444327
vn -0.1553572 0.9850494 -0.07444327
vn -0.1553572 0.9850494 -0.07444327
vn -0.162832 0.9850494 -0.05624409
vn -0.162832 0.9850494 -0.05624409
vn 0.001611531 0.1852561 0.982689
vn 0.001611531 0.1852561 0.982689
vn -0.09555966 0.2226296 0.9702084
vn -0.09555966 0.2226296 0.9702084
vn 0.091308 0.2226296 0.9706178
vn -0.00586313 0.1852561 0.9826728
vn -0.00586313 0.1852561 0.9826728
vn 0.091308 0.2226296 0.9706178
vn -0.08061022 0.514143 -0.8539081
vn 0.009086251 0.4991936 -0.8664429
vn 0.009086251 0.4917189 -0.8707066
vn -0.08061022 0.514143 -0.8539081
vn -0.00586313 0.4917189 -0.8707342
vn -0.00586313 0.4991936 -0.8664706
vn 0.08383328 0.514143 -0.8535976
vn 0.08383328 0.514143 -0.8535976
vn 0.5846385 0.5664659 -0.5807876
vn 0.5846385 0.5664659 -0.5807876
vn 0.7939302 0.5216177 -0.3123937
vn 0.7939302 0.5216177 -0.3123937
vn 0.3155491 0.5589913 -0.7667839
vn 0.3155491 0.5589913 -0.7667839
vn 0.5846385 0.5664659 -0.5807876
vn 0.5846385 0.5664659 -0.5807876
vn 0.08383328 0.514143 -0.8535976
vn 0.08383328 0.514143 -0.8535976
vn 0.3155491 0.5589913 -0.7667839
vn 0.3155491 0.5589913 -0.7667839
vn -0.312326 0.5589913 -0.7681023
vn -0.08061022 0.514143 -0.8539081
vn -0.08061022 0.514143 -0.8539081
vn -0.312326 0.5589913 -0.7681023
vn -0.5814154 0.5664659 -0.5840142
vn -0.312326 0.5589913 -0.7681023
vn -0.312326 0.5589913 -0.7681023
vn -0.5814154 0.5664659 -0.5840142
vn -0.7907071 0.5216177 -0.3204643
vn -0.5814154 0.5664659 -0.5840142
vn -0.5814154 0.5664659 -0.5840142
vn -0.7907071 0.5216177 -0.3204643
vn -0.8953529 0.439396 -0.07262465
vn -0.7907071 0.5216177 -0.3204643
vn -0.7907071 0.5216177 -0.3204643
vn -0.8953529 0.439396 -0.07262465
vn -0.9028277 0.4169719 0.1050555
vn -0.8953529 0.439396 -0.07262465
vn -0.8953529 0.439396 -0.07262465
vn -0.9028277 0.4169719 0.1050555
vn -0.8355553 0.4244465 0.3488446
vn -0.9028277 0.4169719 0.1050555
vn -0.9028277 0.4169719 0.1050555
vn -0.8355553 0.4244465 0.3488446
vn -0.6486877 0.4020224 0.6462061
vn -0.8355553 0.4244465 0.3488446
vn -0.8355553 0.4244465 0.3488446
vn -0.6486877 0.4020224 0.6462061
vn -0.3571742 0.3198007 0.8775843
vn -0.6486877 0.4020224 0.6462061
vn -0.6486877 0.4020224 0.6462061
vn -0.3571742 0.312326 0.8802722
vn -0.09555966 0.2226296 0.9702084
vn -0.3571742 0.3198007 0.8775843
vn -0.3571742 0.312326 0.8802722
vn -0.09555966 0.2226296 0.9702084
vn 0.3603973 0.312326 0.8789575
vn 0.3603973 0.3198007 0.8762655
vn 0.091308 0.2226296 0.9706178
vn 0.091308 0.2226296 0.9706178
vn 0.6444361 0.4020224 0.650446
vn 0.6444361 0.4020224 0.650446
vn 0.3603973 0.3198007 0.8762655
vn 0.3603973 0.312326 0.8789575
vn 0.8313037 0.4244465 0.3588583
vn 0.8313037 0.4244465 0.3588583
vn 0.6444361 0.4020224 0.650446
vn 0.6444361 0.4020224 0.650446
vn 0.9060507 0.4169719 0.07215647
vn 0.9060507 0.4169719 0.07215647
vn 0.8313037 0.4244465 0.3588583
vn 0.8313037 0.4244465 0.3588583
vn 0.8911014 0.439396 -0.1134439
vn 0.8911014 0.439396 -0.1134439
vn 0.9060507 0.4169719 0.07215647
vn 0.9060507 0.4169719 0.07215647
vn 0.7939302 0.5216177 -0.3123937
vn 0.7939302 0.5216177 -0.3123937
vn 0.8911014 0.439396 -0.1134439
vn 0.8911014 0.439396 -0.1134439
g Tastiera.011_0
f 3/3/3 2/2/2 1/1/1
f 6/6/6 5/5/5 4/4/4
f 9/9/9 8/8/8 7/7/7
f 12/12/12 11/11/11 10/10/10
f 15/15/15 14/14/14 13/13/13
f 18/18/18 17/17/17 16/16/16
f 21/21/21 20/20/20 19/19/19
f 20/20/20 22/22/22 19/19/19
f 22/22/22 20/20/20 23/23/23
f 20/20/20 24/24/24 23/23/23
f 23/23/23 24/24/24 25/25/25
f 24/24/24 26/26/26 25/25/25
f 25/25/25 26/26/26 27/27/27
f 26/26/26 28/28/28 27/27/27
f 27/27/27 28/28/28 29/29/29
f 30/30/30 27/27/27 29/29/29
f 31/31/31 30/30/30 29/29/29
f 32/32/32 31/31/31 29/29/29
f 33/33/33 31/31/31 32/32/32
f 34/34/34 33/33/33 32/32/32
f 33/33/33 34/34/34 35/35/35
f 34/34/34 36/36/36 35/35/35
f 35/35/35 36/36/36 37/37/37
f 38/38/38 35/35/35 37/37/37
f 38/38/38 37/37/37 39/39/39
f 40/40/40 38/38/38 39/39/39
f 40/40/40 39/39/39 41/41/41
f 42/42/42 40/40/40 41/41/41
f 41/41/41 43/43/43 42/42/42
f 43/43/43 44/44/44 42/42/42
f 47/47/47 46/46/46 45/45/45
f 48/48/48 47/47/47 45/45/45
f 51/51/51 50/50/50 49/49/49
f 52/52/52 51/51/51 49/49/49
f 55/55/55 54/54/54 53/53/53
f 56/56/56 55/55/55 53/53/53
f 59/59/59 58/58/58 57/57/57
f 60/60/60 59/59/59 57/57/57
f 63/63/63 62/62/62 61/61/61
f 64/64/64 63/63/63 61/61/61
f 67/67/67 66/66/66 65/65/65
f 68/68/68 67/67/67 65/65/65
f 71/71/71 70/70/70 69/69/69
f 72/72/72 71/71/71 69/69/69
f 75/75/75 74/74/74 73/73/73
f 76/76/76 75/75/75 73/73/73
f 79/79/79 78/78/78 77/77/77
f 80/80/80 79/79/79 77/77/77
f 83/83/83 82/82/82 81/81/81
f 84/84/84 83/83/83 81/81/81
f 87/87/87 86/86/86 85/85/85
f 88/88/88 87/87/87 85/85/85
f 91/91/91 90/90/90 89/89/89
f 92/92/92 91/91/91 89/89/89
f 95/95/95 94/94/94 93/93/93
f 96/96/96 95/95/95 93/93/93
f 99/99/99 98/98/98 97/97/97
f 100/100/100 99/99/99 97/97/97
f 103/103/103 102/102/102 101/101/101
f 104/104/104 103/103/103 101/101/101
f 107/107/107 106/106/106 105/105/105
f 108/108/108 107/107/107 105/105/105
f 111/111/111 110/110/110 109/109/109
f 112/112/112 111/111/111 109/109/109
f 115/115/115 114/114/114 113/113/113
f 116/116/116 115/115/115 113/113/113
f 119/119/119 118/118/118 117/117/117
f 120/120/120 119/119/119 117/117/117
f 123/123/123 122/122/122 121/121/121
f 124/124/124 123/123/123 121/121/121
f 127/127/127 126/126/126 125/125/125
f 128/128/128 127/127/127 125/125/125
f 131/131/131 130/130/130 129/129/129
f 132/132/132 131/131/131 129/129/129
