g TavoloPingPong
v 5.919752 -0.6863426 10.96
v 0.390896 0 10.96
v 5.919752 0 10.96
v 0.390896 -0.6863426 10.96
v -0.3908961 0 10.96
v -0.3908961 -0.6863426 10.96
v -5.919752 -2.535873E-14 10.96
v -5.919752 -0.6863426 10.96
v -6.08 -0.6863426 10.79975
v -6.08 -1.192093E-07 9.536743E-07
v -6.08 -1.742977E-09 10.79975
v -6.08 -0.6863426 -1.415763E-08
v -6.08 -2.366756E-07 -10.79975
v -6.08 -0.6863426 -10.79975
v -0.3908961 -1.192093E-07 0
v -0.3908961 0 10.31032
v -5.430324 -7.066377E-09 10.31032
v -5.430324 -1.192093E-07 0
v -5.919752 -0.6863426 -10.96
v -0.3908961 -2.384186E-07 -10.96
v -5.919752 -2.384186E-07 -10.96
v -0.3908961 -0.6863426 -10.96
v 0.390896 -2.384186E-07 -10.96
v 0.390896 -0.6863426 -10.96
v 5.919752 -2.384186E-07 -10.96
v 5.919752 -0.6863426 -10.96
v 4.652171 -6.108899 -9.65217
v 4.652171 -6.108899 -10.34783
v 4.642621 -0.2610694 -10.35738
v 4.642621 -0.2610694 -9.642621
v 4.652171 -6.108899 -10.34783
v 5.347829 -6.108899 -10.34783
v 5.357379 -0.2610694 -10.35738
v 4.642621 -0.2610694 -10.35738
v 5.347829 -6.108899 -10.34783
v 5.347829 -6.108899 -9.65217
v 5.357379 -0.2610694 -9.642621
v 5.357379 -0.2610694 -10.35738
v 5.347829 -6.108899 -9.65217
v 4.652171 -6.108899 -9.65217
v 4.642621 -0.2610694 -9.642621
v 5.357379 -0.2610694 -9.642621
v -5.347829 -6.108899 -9.65217
v -5.347829 -6.108899 -10.34783
v -5.357379 -0.2610694 -10.35738
v -5.357379 -0.2610693 -9.642621
v -5.347829 -6.108899 -10.34783
v -4.652171 -6.108899 -10.34783
v -4.642621 -0.2610694 -10.35738
v -5.357379 -0.2610694 -10.35738
v -4.652171 -6.108899 -10.34783
v -4.652171 -6.108899 -9.65217
v -4.642621 -0.2610693 -9.642621
v -4.642621 -0.2610694 -10.35738
v -4.652171 -6.108899 -9.65217
v -5.347829 -6.108899 -9.65217
v -5.357379 -0.2610693 -9.642621
v -4.642621 -0.2610693 -9.642621
v 4.652171 -6.108898 10.34783
v 4.652171 -6.108898 9.65217
v 4.642621 -0.2610686 9.642621
v 4.642621 -0.2610686 10.35738
v 4.652171 -6.108898 9.65217
v 5.347829 -6.108898 9.65217
v 5.357379 -0.2610686 9.642621
v 4.642621 -0.2610686 9.642621
v 5.347829 -6.108898 9.65217
v 5.347829 -6.108898 10.34783
v 5.357379 -0.2610686 10.35738
v 5.357379 -0.2610686 9.642621
v 5.347829 -6.108898 10.34783
v 4.652171 -6.108898 10.34783
v 4.642621 -0.2610686 10.35738
v 5.357379 -0.2610686 10.35738
v -5.347829 -6.108898 10.34783
v -5.347829 -6.108898 9.65217
v -5.357379 -0.2610686 9.642621
v -5.357379 -0.2610686 10.35738
v -5.347829 -6.108898 9.65217
v -4.652171 -6.108898 9.65217
v -4.642621 -0.2610686 9.642621
v -5.357379 -0.2610686 9.642621
v -4.652171 -6.108898 9.65217
v -4.652171 -6.108898 10.34783
v -4.642621 -0.2610686 10.35738
v -4.642621 -0.2610686 9.642621
v -4.652171 -6.108898 10.34783
v -5.347829 -6.108898 10.34783
v -5.357379 -0.2610686 10.35738
v -4.642621 -0.2610686 10.35738
v 5.430324 -1.192093E-07 9.536743E-07
v 5.430324 -7.066377E-09 10.31032
v 0.390896 0 10.31032
v 0.390896 -1.192093E-07 0
v 6.08 -0.6863426 -1.415763E-08
v 6.08 -0.6863426 10.79975
v 6.08 -1.74299E-09 10.79975
v 6.08 -1.192093E-07 0
v 6.08 -0.6863426 -10.79975
v 6.08 -2.366756E-07 -10.79975
v 5.430324 -2.313522E-07 -10.31032
v 5.430324 -1.192093E-07 9.536743E-07
v 0.390896 -1.192093E-07 0
v 0.390896 -2.384186E-07 -10.31032
v -0.3908961 -2.384186E-07 -10.31032
v -0.3908961 -1.192093E-07 0
v -5.430324 -1.192093E-07 0
v -5.430324 -2.313522E-07 -10.31032
v 6.08 -2.366756E-07 -10.79975
v 5.919752 -2.384186E-07 -10.96
v 5.919752 -0.6863426 -10.96
v 6.08 -0.6863426 -10.79975
v -5.919752 -2.384186E-07 -10.96
v -6.08 -2.366756E-07 -10.79975
v -6.08 -0.6863426 -10.79975
v -5.919752 -0.6863426 -10.96
v -5.919752 -0.6863426 10.96
v -6.08 -0.6863426 10.79975
v -6.08 -1.742977E-09 10.79975
v -5.919752 -2.535873E-14 10.96
v 5.919752 0 10.96
v 6.08 -1.74299E-09 10.79975
v 6.08 -0.6863426 10.79975
v 5.919752 -0.6863426 10.96
v -0.3908961 0 10.96
v -5.919752 -2.535873E-14 10.96
v -5.966688 -1.232473E-09 10.84669
v -6.08 -1.742977E-09 10.79975
v -5.430324 -7.066377E-09 10.31032
v -6.08 -1.192093E-07 9.536743E-07
v -5.430324 -1.192093E-07 0
v -0.3908961 0 10.31032
v -5.430324 -2.313522E-07 -10.31032
v -6.08 -2.366756E-07 -10.79975
v -5.966688 -2.371861E-07 -10.84669
v -5.919752 -2.384186E-07 -10.96
v -0.3908961 -2.384186E-07 -10.96
v -0.3908961 -2.384186E-07 -10.31032
v 0.390896 -2.384186E-07 -10.96
v 0.390896 -2.384186E-07 -10.31032
v -0.3908961 -1.192093E-07 0
v 5.919752 -2.384186E-07 -10.96
v 0.390896 -1.192093E-07 0
v 0.390896 0 10.31032
v 0.390896 0 10.96
v 5.430324 -7.066377E-09 10.31032
v 5.966688 -2.371861E-07 -10.84669
v 6.08 -2.366756E-07 -10.79975
v 5.430324 -2.313522E-07 -10.31032
v 6.08 -1.192093E-07 0
v 5.430324 -1.192093E-07 9.536743E-07
v 6.08 -1.74299E-09 10.79975
v 5.966688 -1.232473E-09 10.84669
v 5.919752 0 10.96
v -5.318449 -6.085394 -9.634253
v -5.54288 -6.085394 -8.266817
v -6.438064 -6.085394 -9.116484
v -5.318859 -6.085394 -10.28733
v -6.636827 -6.085394 -10.51168
v -5.678184 -6.085395 -11.42756
v -4.662614 -6.085394 -10.29091
v -4.487494 -6.085395 -11.62102
v -3.479267 -6.085395 -10.76928
v -4.662205 -6.085394 -9.63783
v -3.317643 -6.085395 -9.401562
v -4.52083 -6.085394 -8.279889
v 4.681551 -6.085394 -9.634253
v 4.45712 -6.085394 -8.266817
v 3.561936 -6.085394 -9.116484
v 4.681141 -6.085394 -10.28733
v 3.363173 -6.085394 -10.51168
v 4.321816 -6.085395 -11.42756
v 5.337386 -6.085394 -10.29091
v 5.512506 -6.085395 -11.62102
v 6.520733 -6.085395 -10.76928
v 5.337795 -6.085394 -9.63783
v 6.682357 -6.085395 -9.401562
v 5.47917 -6.085394 -8.279889
v -5.848424 -6.108899 -11.03681
v -4.466902 -6.108899 -11.60906
v 4.466902 -6.108899 -11.60906
v 5.848423 -6.108899 -11.03681
v -6.420669 -6.108899 -9.655293
v 6.420669 -6.108899 -9.655293
v -6.420669 -6.108899 9.655295
v 6.420669 -6.108899 9.655295
v -5.848423 -6.108899 11.03682
v 5.848424 -6.108899 11.03682
v -4.466902 -6.108899 11.60906
v 4.466902 -6.108899 11.60906
v 4.90981 -6.108899 13.83571
v -4.90981 -6.108899 13.83571
v -4.466902 -6.108899 11.60906
v -6.420669 -6.108899 9.655295
v -8.647318 -6.108899 10.0982
v -8.647318 -6.108899 -10.0982
v -6.420669 -6.108899 -9.655293
v -5.848423 -6.108899 11.03682
v -7.552627 -6.108899 12.74102
v -8.647318 -6.108899 10.0982
v -6.420669 -6.108899 9.655295
v -4.466902 -6.108899 11.60906
v -4.90981 -6.108899 13.83571
v -7.552627 -6.108899 12.74102
v -5.848423 -6.108899 11.03682
v 5.848424 -6.108899 11.03682
v 7.552627 -6.108899 12.74102
v 4.90981 -6.108899 13.83571
v 4.466902 -6.108899 11.60906
v 6.420669 -6.108899 9.655295
v 8.647318 -6.108899 10.0982
v 7.552627 -6.108899 12.74102
v 5.848424 -6.108899 11.03682
v 6.420669 -6.108899 -9.655293
v 8.647318 -6.108899 -10.0982
v 8.647318 -6.108899 10.0982
v 6.420669 -6.108899 9.655295
v 5.848423 -6.108899 -11.03681
v 7.552627 -6.108899 -12.74102
v 8.647318 -6.108899 -10.0982
v 6.420669 -6.108899 -9.655293
v 4.466902 -6.108899 -11.60906
v 4.90981 -6.108899 -13.83571
v 7.552627 -6.108899 -12.74102
v 5.848423 -6.108899 -11.03681
v -4.466902 -6.108899 -11.60906
v -4.90981 -6.108899 -13.83571
v 4.90981 -6.108899 -13.83571
v 4.466902 -6.108899 -11.60906
v -5.848424 -6.108899 -11.03681
v -7.552627 -6.108899 -12.74102
v -4.90981 -6.108899 -13.83571
v -4.466902 -6.108899 -11.60906
v -6.420669 -6.108899 -9.655293
v -8.647318 -6.108899 -10.0982
v -7.552627 -6.108899 -12.74102
v -5.848424 -6.108899 -11.03681
v -4.662205 -6.085394 -9.63783
v -4.52083 -6.085394 -8.279889
v -5.54288 -6.085394 -8.266817
v -5.318449 -6.085394 -9.634253
v -5.318449 -6.085394 -9.634253
v -6.438064 -6.085394 -9.116484
v -6.636827 -6.085394 -10.51168
v -5.318859 -6.085394 -10.28733
v -5.318859 -6.085394 -10.28733
v -5.678184 -6.085395 -11.42756
v -4.487494 -6.085395 -11.62102
v -4.662614 -6.085394 -10.29091
v -4.662614 -6.085394 -10.29091
v -3.479267 -6.085395 -10.76928
v -3.317643 -6.085395 -9.401562
v -4.662205 -6.085394 -9.63783
v 5.337795 -6.085394 -9.63783
v 5.47917 -6.085394 -8.279889
v 4.45712 -6.085394 -8.266817
v 4.681551 -6.085394 -9.634253
v 4.681551 -6.085394 -9.634253
v 3.561936 -6.085394 -9.116484
v 3.363173 -6.085394 -10.51168
v 4.681141 -6.085394 -10.28733
v 4.681141 -6.085394 -10.28733
v 4.321816 -6.085395 -11.42756
v 5.512506 -6.085395 -11.62102
v 5.337386 -6.085394 -10.29091
v 5.337386 -6.085394 -10.29091
v 6.520733 -6.085395 -10.76928
v 6.682357 -6.085395 -9.401562
v 5.337795 -6.085394 -9.63783
v 6.153057 0.02471994 0.03706321
v 6.153057 0.02472042 1.720111
v -6.085814 0.02472042 1.733183
v -6.085814 0.02472018 0.03777877
v -6.085814 0.02472018 0.03777877
v -6.085814 0.02471946 -1.427559
v 6.153057 0.02471947 -1.503742
v 6.153057 0.02471994 0.03706321
v 6.153057 0.02471947 -1.503742
v 6.153057 -0.999873 -1.503742
v 6.153057 -0.9998726 0.03706326
v 6.153057 0.02471994 0.03706321
v 6.153057 0.02471994 0.03706321
v 6.153057 -0.9998726 0.03706326
v 6.153057 -0.9998721 1.720111
v 6.153057 0.02472042 1.720111
v -6.085814 0.02472018 0.03777877
v -6.085814 -1.053627 0.03777882
v -6.085814 -1.053628 -1.427559
v -6.085814 0.02471946 -1.427559
v -6.085814 0.02472042 1.733183
v -6.085814 -1.053627 1.733183
v -6.085814 -1.053627 0.03777882
v -6.085814 0.02472018 0.03777877
vt 0.06733517 0.02033714
vt 0.06733517 0.02033714
vt 0.06733517 0.02033714
vt 0.06733517 0.02033714
vt 0.06733517 0.02033714
vt 0.06733517 0.02033714
vt 0.06733517 0.02033714
vt 0.06733517 0.02033714
vt 0.06733517 0.02033714
vt 0.06733517 0.02033714
vt 0.06733517 0.02033714
vt 0.06733517 0.02033714
vt 0.06733517 0.02033714
vt 0.06733517 0.02033714
vt 0.929554 0.9770086
vt 0.929554 0.0229913
vt 0.4189501 0.0229913
vt 0.4189501 0.9770086
vt 0.06733517 0.02033714
vt 0.06733517 0.02033714
vt 0.06733517 0.02033714
vt 0.06733517 0.02033714
vt 0.06733517 0.02033714
vt 0.06733517 0.02033714
vt 0.06733517 0.02033714
vt 0.06733517 0.02033714
vt 0.9650589 0.9109953
vt 0.9650589 0.9109953
vt 0.9650589 0.08900487
vt 0.9650589 0.08900487
vt 0.9650589 0.9109953
vt 0.9650589 0.9109953
vt 0.9650589 0.08900487
vt 0.9650589 0.08900487
vt 0.9650589 0.9109953
vt 0.9650589 0.9109953
vt 0.9650589 0.08900487
vt 0.9650589 0.08900487
vt 0.9650589 0.9109953
vt 0.9650589 0.9109953
vt 0.9650589 0.08900487
vt 0.9650589 0.08900487
vt 0.9650589 0.9109953
vt 0.9650589 0.9109953
vt 0.9650589 0.08900487
vt 0.9650589 0.08900487
vt 0.9650589 0.9109953
vt 0.9650589 0.9109953
vt 0.9650589 0.08900487
vt 0.9650589 0.08900487
vt 0.9650589 0.9109953
vt 0.9650589 0.9109953
vt 0.9650589 0.08900487
vt 0.9650589 0.08900487
vt 0.9650589 0.9109953
vt 0.9650589 0.9109953
vt 0.9650589 0.08900487
vt 0.9650589 0.08900487
vt 0.9650589 0.9109951
vt 0.9650589 0.9109951
vt 0.9650589 0.08900464
vt 0.9650589 0.08900464
vt 0.9650589 0.9109951
vt 0.9650589 0.9109951
vt 0.9650589 0.08900464
vt 0.9650589 0.08900464
vt 0.9650589 0.9109951
vt 0.9650589 0.9109951
vt 0.9650589 0.08900464
vt 0.9650589 0.08900464
vt 0.9650589 0.9109951
vt 0.9650589 0.9109951
vt 0.9650589 0.08900464
vt 0.9650589 0.08900464
vt 0.9650589 0.9109951
vt 0.9650589 0.9109951
vt 0.9650589 0.08900464
vt 0.9650589 0.08900464
vt 0.9650589 0.9109951
vt 0.9650589 0.9109951
vt 0.9650589 0.08900464
vt 0.9650589 0.08900464
vt 0.9650589 0.9109951
vt 0.9650589 0.9109951
vt 0.9650589 0.08900464
vt 0.9650589 0.08900464
vt 0.9650589 0.9109951
vt 0.9650589 0.9109951
vt 0.9650589 0.08900464
vt 0.9650589 0.08900464
vt 0.9298955 0.9770086
vt 0.9298955 0.0229913
vt 0.4192917 0.0229913
vt 0.4192917 0.9770086
vt 0.06733517 0.02033714
vt 0.06733517 0.02033714
vt 0.06733517 0.02033714
vt 0.06733517 0.02033714
vt 0.06733517 0.02033714
vt 0.06733517 0.02033714
vt 0.9298955 0.0229913
vt 0.9298955 0.9770086
vt 0.4192917 0.9770086
vt 0.4192917 0.0229913
vt 0.929554 0.0229913
vt 0.929554 0.9770086
vt 0.4189501 0.9770086
vt 0.4189501 0.0229913
vt 0.06733517 0.02033714
vt 0.06733517 0.02033714
vt 0.06733517 0.02033714
vt 0.06733517 0.02033714
vt 0.06733517 0.02033714
vt 0.06733517 0.02033714
vt 0.06733517 0.02033714
vt 0.06733517 0.02033714
vt 0.06733517 0.02033714
vt 0.06733517 0.02033714
vt 0.06733517 0.02033714
vt 0.06733517 0.02033714
vt 0.06733517 0.02033714
vt 0.06733517 0.02033714
vt 0.06733517 0.02033714
vt 0.06733517 0.02033714
vt 0.06733517 0.02033714
vt 0.06733517 0.02033714
vt 0.06733517 0.02033714
vt 0.06733517 0.02033714
vt 0.06733517 0.02033714
vt 0.06733517 0.02033714
vt 0.06733517 0.02033714
vt 0.06733517 0.02033714
vt 0.06733517 0.02033714
vt 0.06733517 0.02033714
vt 0.06733517 0.02033714
vt 0.06733517 0.02033714
vt 0.06733517 0.02033714
vt 0.06733517 0.02033714
vt 0.06733517 0.02033714
vt 0.06733517 0.02033714
vt 0.06733517 0.02033714
vt 0.06733517 0.02033714
vt 0.06733517 0.02033714
vt 0.06733517 0.02033714
vt 0.06733517 0.02033714
vt 0.06733517 0.02033714
vt 0.06733517 0.02033714
vt 0.06733517 0.02033714
vt 0.06733517 0.02033714
vt 0.06733517 0.02033714
vt 0.06733517 0.02033714
vt 0.06733517 0.02033714
vt 0.06733517 0.02033714
vt 0.06733517 0.02033714
vt 0 0.4077206
vt 1 0.978223
vt 0 0.978223
vt 0 0.4077206
vt 1 0.978223
vt 0 0.978223
vt 0 0.4077206
vt 1 0.978223
vt 0 0.978223
vt 1 0.4077206
vt 1 0.978223
vt 0 0.978223
vt 0 0.4077206
vt 1 0.978223
vt 0 0.978223
vt 0 0.4077206
vt 1 0.978223
vt 0 0.978223
vt 0 0.4077206
vt 1 0.978223
vt 0 0.978223
vt 1 0.4077206
vt 1 0.978223
vt 0 0.978223
vt 2.980232E-08 0.5
vt 2.980232E-08 0.5
vt 2.980232E-08 0.5
vt 2.980232E-08 0.5
vt 2.980232E-08 0.5
vt 2.980232E-08 0.5
vt 2.980232E-08 0.5
vt 2.980232E-08 0.5
vt 2.980232E-08 0.5
vt 2.980232E-08 0.5
vt 2.980232E-08 0.5
vt 2.980232E-08 0.5
vt 0 0.984375
vt 1 0.984375
vt 1 0.5
vt 0 0.5
vt 0 0.984375
vt 1 0.984375
vt 1 0.5
vt 0 0.5
vt 0 0.984375
vt 1 0.984375
vt 1 0.5
vt 0 0.5
vt 0 0.984375
vt 1 0.984375
vt 1 0.5
vt 0 0.5
vt 0 0.984375
vt 1 0.984375
vt 1 0.5
vt 0 0.5
vt 0 0.984375
vt 1 0.984375
vt 1 0.5
vt 0 0.5
vt 0 0.984375
vt 1 0.984375
vt 1 0.5
vt 0 0.5
vt 0 0.984375
vt 1 0.984375
vt 1 0.5
vt 0 0.5
vt 0 0.984375
vt 1 0.984375
vt 1 0.5
vt 0 0.5
vt 0 0.984375
vt 1 0.984375
vt 1 0.5
vt 0 0.5
vt 0 0.984375
vt 1 0.984375
vt 1 0.5
vt 0 0.5
vt 0 0.984375
vt 1 0.984375
vt 1 0.5
vt 0 0.4077206
vt 0 0.978223
vt 1 0.978223
vt 1 0.4077206
vt 0 0.4077206
vt 0 0.978223
vt 1 0.978223
vt 1 0.4077206
vt 0 0.4077206
vt 0 0.978223
vt 1 0.978223
vt 1 0.4077206
vt 0 0.4077206
vt 0 0.978223
vt 1 0.978223
vt 1 0.4077206
vt 0 0.4077206
vt 0 0.978223
vt 1 0.978223
vt 1 0.4077206
vt 0 0.4077206
vt 0 0.978223
vt 1 0.978223
vt 1 0.4077206
vt 0 0.4077206
vt 0 0.978223
vt 1 0.978223
vt 1 0.4077206
vt 0 0.4077206
vt 0 0.978223
vt 1 0.978223
vt 1 0.4077206
vt 0 0.4077206
vt 0 0.978223
vt 1 0.978223
vt 1 0.4077206
vt 0 0.4077206
vt 0 0.978223
vt 1 0.978223
vt 1 0.4077206
vt 1 0.978223
vt 1 0.978223
vt 1 0.4077206
vt 1 0.4077206
vt 0 0.4077206
vt 0 0.4077206
vt 0 0.978223
vt 0 0.978223
vt 0 0.4077206
vt 0 0.4077206
vt 0 0.978223
vt 0 0.978223
vt 1 0.978223
vt 1 0.978223
vt 1 0.4077206
vt 1 0.4077206
vn 0 0 1
vn 0 0 1
vn 0 0 1
vn 0 0 1
vn 0 0 1
vn 0 0 1
vn 0 0 1
vn 0 0 1
vn -1 0 0
vn -1 0 0
vn -1 0 0
vn -1 0 0
vn -1 0 0
vn -1 0 0
vn 0 1 0
vn 0 1 0
vn 0 1 0
vn 0 1 0
vn 0 0 -1
vn 0 0 -1
vn 0 0 -1
vn 0 0 -1
vn 0 0 -1
vn 0 0 -1
vn 0 0 -1
vn 0 0 -1
vn -0.9999987 -0.001633082 0
vn -0.9999987 -0.001633082 0
vn -0.9999987 -0.001633082 0
vn -0.9999987 -0.001633082 0
vn 0 -0.001632934 -0.9999987
vn 0 -0.001632934 -0.9999987
vn 0 -0.001632934 -0.9999987
vn 0 -0.001632934 -0.9999987
vn 0.9999987 -0.001633082 0
vn 0.9999987 -0.001633082 0
vn 0.9999987 -0.001633082 0
vn 0.9999987 -0.001633082 0
vn 0 -0.001632934 0.9999987
vn 0 -0.001632934 0.9999987
vn 0 -0.001632934 0.9999987
vn 0 -0.001632934 0.9999987
vn -0.9999987 -0.001633082 0
vn -0.9999987 -0.001633082 0
vn -0.9999987 -0.001633082 0
vn -0.9999987 -0.001633082 0
vn 0 -0.001632934 -0.9999987
vn 0 -0.001632934 -0.9999987
vn 0 -0.001632934 -0.9999987
vn 0 -0.001632934 -0.9999987
vn 0.9999987 -0.001633082 0
vn 0.9999987 -0.001633082 0
vn 0.9999987 -0.001633082 0
vn 0.9999987 -0.001633082 0
vn 0 -0.001632934 0.9999987
vn 0 -0.001632934 0.9999987
vn 0 -0.001632934 0.9999987
vn 0 -0.001632934 0.9999987
vn -0.9999987 -0.001633082 0
vn -0.9999987 -0.001633082 0
vn -0.9999987 -0.001633082 0
vn -0.9999987 -0.001633082 0
vn 0 -0.001632934 -0.9999987
vn 0 -0.001632934 -0.9999987
vn 0 -0.001632934 -0.9999987
vn 0 -0.001632934 -0.9999987
vn 0.9999987 -0.001633082 0
vn 0.9999987 -0.001633082 0
vn 0.9999987 -0.001633082 0
vn 0.9999987 -0.001633082 0
vn 0 -0.001632934 0.9999987
vn 0 -0.001632934 0.9999987
vn 0 -0.001632934 0.9999987
vn 0 -0.001632934 0.9999987
vn -0.9999987 -0.001633082 0
vn -0.9999987 -0.001633082 0
vn -0.9999987 -0.001633082 0
vn -0.9999987 -0.001633082 0
vn 0 -0.001632934 -0.9999987
vn 0 -0.001632934 -0.9999987
vn 0 -0.001632934 -0.9999987
vn 0 -0.001632934 -0.9999987
vn 0.9999987 -0.001633082 0
vn 0.9999987 -0.001633082 0
vn 0.9999987 -0.001633082 0
vn 0.9999987 -0.001633082 0
vn 0 -0.001632934 0.9999987
vn 0 -0.001632934 0.9999987
vn 0 -0.001632934 0.9999987
vn 0 -0.001632934 0.9999987
vn 0 1 0
vn 0 1 0
vn 0 1 0
vn 0 1 0
vn 1 0 0
vn 1 0 0
vn 1 0 0
vn 1 0 0
vn 1 0 0
vn 1 0 0
vn 0 1 0
vn 0 1 0
vn 0 1 0
vn 0 1 0
vn 0 1 0
vn 0 1 0
vn 0 1 0
vn 0 1 0
vn 0.7071068 0 -0.7071067
vn 0.7071068 0 -0.7071067
vn 0.7071068 0 -0.7071067
vn 0.7071068 0 -0.7071067
vn -0.7071068 0 -0.7071067
vn -0.7071068 0 -0.7071067
vn -0.7071068 0 -0.7071067
vn -0.7071068 0 -0.7071067
vn -0.7071067 0 0.7071068
vn -0.7071067 0 0.7071068
vn -0.7071067 0 0.7071068
vn -0.7071067 0 0.7071068
vn 0.7071067 0 0.7071068
vn 0.7071067 0 0.7071068
vn 0.7071067 0 0.7071068
vn 0.7071067 0 0.7071068
vn 0 1 0
vn 0 1 0
vn 0 1 0
vn 0 1 0
vn 0 1 0
vn 0 1 0
vn 0 1 0
vn 0 1 0
vn 0 1 0
vn 0 1 0
vn 0 1 0
vn 0 1 0
vn 0 1 0
vn 0 1 0
vn 0 1 0
vn 0 1 0
vn 0 1 0
vn 0 1 0
vn 0 1 0
vn 0 1 0
vn 0 1 0
vn 0 1 0
vn 0 1 0
vn 0 1 0
vn 0 1 0
vn 0 1 0
vn 0 1 0
vn 0 1 0
vn 0 1 0
vn 0 1 0
vn 0 1 0
vn 0 1 0
vn 0 1 0
vn 0 1 0
vn 0 1 0
vn 0 1 0
vn 0 1 0
vn 0 1 0
vn 0 1 0
vn 0 1 0
vn 0 1 0
vn 0 1 0
vn 0 1 0
vn 0 1 0
vn 0 1 0
vn 0 1 0
vn 0 1 0
vn 0 1 0
vn 0 1 0
vn 0 1 0
vn 0 1 0
vn 0 1 0
vn 0 1 0
vn 0 1 0
vn 0 1 0
vn 0 1 0
vn 0 1 0
vn 0 1 0
vn 0 1 0
vn 0 1 0
vn 0 1 0
vn 0 1 0
vn 0 1 0
vn 0 1 0
vn 0 1 0
vn 0 1 0
vn 0 1 0
vn 0 1 0
vn 0 1 0
vn 0 1 0
vn 0 1 0
vn 0 1 0
vn 0 1 0
vn 0 1 0
vn 0 1 0
vn 0 1 0
vn 0 1 0
vn 0 1 0
vn 0 1 0
vn 0 1 0
vn 0 1 0
vn 0 1 0
vn 0 1 0
vn 0 1 0
vn 0 1 0
vn 0 1 0
vn 0 1 0
vn 0 1 0
vn 0 1 0
vn 0 1 0
vn 0 1 0
vn 0 1 0
vn 0 1 0
vn 0 1 0
vn 0 1 0
vn 0 1 0
vn 0 1 0
vn 0 1 0
vn 0 1 0
vn 0 1 0
vn 0 1 0
vn 0 1 0
vn 0 1 0
vn 0 1 0
vn 0 1 0
vn 0 1 0
vn 0 1 0
vn 0 1 0
vn 0 1 0
vn 0 1 0
vn 0 1 0
vn 0 1 0
vn 0 1 0
vn 0 1 0
vn 0 1 0
vn 0 1 0
vn 0 1 0
vn 0 1 0
vn 0 1 0
vn 0 1 0
vn 0 1 0
vn 0 1 0
vn 0 1 0
vn 0 1 0
vn 0 1 0
vn 0 1 0
vn 0 1 0
vn 0 1 0
vn 0 1 0
vn 0 1 0
vn 0 1 0
vn 0 1 0
vn 0 1 0
vn 0 1 0
vn 0 1 0
vn 0 1 0
vn 0 1 0
vn 0 1 0
vn 0 1 0
vn 0 1 0
vn 0 1 0
vn 0 1 0
vn 0 1 0
vn 0 1 0
vn 0 1 0
vn 0 1 0
vn 0 1 0
vn 0 1 0
vn 0 1 0
vn 0 1 0
vn 0 1 0
vn 0 1 0
vn 0 1 0
vn 1 0 0
vn 1 0 0
vn 1 0 0
vn 1 0 0
vn 1 0 0
vn 1 0 0
vn 1 0 0
vn 1 0 0
vn -1 0 0
vn -1 0 0
vn -1 0 0
vn -1 0 0
vn -1 0 0
vn -1 0 0
vn -1 0 0
vn -1 0 0
g TavoloPingPong_0
f 3/3/3 2/2/2 1/1/1
f 2/2/2 4/4/4 1/1/1
f 2/2/2 5/5/5 4/4/4
f 5/5/5 6/6/6 4/4/4
f 5/5/5 7/7/7 6/6/6
f 7/7/7 8/8/8 6/6/6
f 11/11/11 10/10/10 9/9/9
f 10/10/10 12/12/12 9/9/9
f 10/10/10 13/13/13 12/12/12
f 13/13/13 14/14/14 12/12/12
f 17/17/17 16/16/16 15/15/15
f 18/18/18 17/17/17 15/15/15
f 21/21/21 20/20/20 19/19/19
f 20/20/20 22/22/22 19/19/19
f 20/20/20 23/23/23 22/22/22
f 23/23/23 24/24/24 22/22/22
f 23/23/23 25/25/25 24/24/24
f 25/25/25 26/26/26 24/24/24
f 29/29/29 28/28/28 27/27/27
f 30/30/30 29/29/29 27/27/27
f 33/33/33 32/32/32 31/31/31
f 34/34/34 33/33/33 31/31/31
f 37/37/37 36/36/36 35/35/35
f 38/38/38 37/37/37 35/35/35
f 41/41/41 40/40/40 39/39/39
f 42/42/42 41/41/41 39/39/39
f 45/45/45 44/44/44 43/43/43
f 46/46/46 45/45/45 43/43/43
f 49/49/49 48/48/48 47/47/47
f 50/50/50 49/49/49 47/47/47
f 53/53/53 52/52/52 51/51/51
f 54/54/54 53/53/53 51/51/51
f 57/57/57 56/56/56 55/55/55
f 58/58/58 57/57/57 55/55/55
f 61/61/61 60/60/60 59/59/59
f 62/62/62 61/61/61 59/59/59
f 65/65/65 64/64/64 63/63/63
f 66/66/66 65/65/65 63/63/63
f 69/69/69 68/68/68 67/67/67
f 70/70/70 69/69/69 67/67/67
f 73/73/73 72/72/72 71/71/71
f 74/74/74 73/73/73 71/71/71
f 77/77/77 76/76/76 75/75/75
f 78/78/78 77/77/77 75/75/75
f 81/81/81 80/80/80 79/79/79
f 82/82/82 81/81/81 79/79/79
f 85/85/85 84/84/84 83/83/83
f 86/86/86 85/85/85 83/83/83
f 89/89/89 88/88/88 87/87/87
f 90/90/90 89/89/89 87/87/87
f 93/93/93 92/92/92 91/91/91
f 94/94/94 93/93/93 91/91/91
f 97/97/97 96/96/96 95/95/95
f 98/98/98 97/97/97 95/95/95
f 98/98/98 95/95/95 99/99/99
f 100/100/100 98/98/98 99/99/99
f 103/103/103 102/102/102 101/101/101
f 104/104/104 103/103/103 101/101/101
f 107/107/107 106/106/106 105/105/105
f 108/108/108 107/107/107 105/105/105
f 111/111/111 110/110/110 109/109/109
f 112/112/112 111/111/111 109/109/109
f 115/115/115 114/114/114 113/113/113
f 116/116/116 115/115/115 113/113/113
f 119/119/119 118/118/118 117/117/117
f 120/120/120 119/119/119 117/117/117
f 123/123/123 122/122/122 121/121/121
f 124/124/124 123/123/123 121/121/121
f 127/127/127 126/126/126 125/125/125
f 126/126/126 127/127/127 128/128/128
f 128/128/128 127/127/127 129/129/129
f 130/130/130 128/128/128 129/129/129
f 129/129/129 131/131/131 130/130/130
f 132/132/132 129/129/129 127/127/127
f 127/127/127 125/125/125 132/132/132
f 130/130/130 131/131/131 133/133/133
f 134/134/134 130/130/130 133/133/133
f 133/133/133 135/135/135 134/134/134
f 134/134/134 135/135/135 136/136/136
f 137/137/137 136/136/136 135/135/135
f 135/135/135 133/133/133 138/138/138
f 135/135/135 138/138/138 137/137/137
f 139/139/139 137/137/137 138/138/138
f 140/140/140 139/139/139 138/138/138
f 138/138/138 141/141/141 140/140/140
f 142/142/142 139/139/139 140/140/140
f 141/141/141 132/132/132 143/143/143
f 141/141/141 143/143/143 140/140/140
f 132/132/132 144/144/144 143/143/143
f 132/132/132 125/125/125 144/144/144
f 125/125/125 145/145/145 144/144/144
f 146/146/146 144/144/144 145/145/145
f 140/140/140 147/147/147 142/142/142
f 142/142/142 147/147/147 148/148/148
f 140/140/140 149/149/149 147/147/147
f 148/148/148 147/147/147 149/149/149
f 149/149/149 150/150/150 148/148/148
f 149/149/149 151/151/151 150/150/150
f 152/152/152 150/150/150 151/151/151
f 151/151/151 146/146/146 152/152/152
f 145/145/145 153/153/153 146/146/146
f 146/146/146 153/153/153 152/152/152
f 145/145/145 154/154/154 153/153/153
f 152/152/152 153/153/153 154/154/154
g TavoloPingPong_1
f 157/157/157 156/156/156 155/155/155
f 160/160/160 159/159/159 158/158/158
f 163/163/163 162/162/162 161/161/161
f 166/166/166 165/165/165 164/164/164
f 169/169/169 168/168/168 167/167/167
f 172/172/172 171/171/171 170/170/170
f 175/175/175 174/174/174 173/173/173
f 178/178/178 177/177/177 176/176/176
f 181/181/181 180/180/180 179/179/179
f 179/179/179 182/182/182 181/181/181
f 179/179/179 183/183/183 182/182/182
f 183/183/183 184/184/184 182/182/182
f 183/183/183 185/185/185 184/184/184
f 185/185/185 186/186/186 184/184/184
f 185/185/185 187/187/187 186/186/186
f 187/187/187 188/188/188 186/186/186
f 187/187/187 189/189/189 188/188/188
f 189/189/189 190/190/190 188/188/188
f 192/192/192 191/191/191 190/190/190
f 193/193/193 192/192/192 190/190/190
f 196/196/196 195/195/195 194/194/194
f 197/197/197 196/196/196 194/194/194
f 200/200/200 199/199/199 198/198/198
f 201/201/201 200/200/200 198/198/198
f 204/204/204 203/203/203 202/202/202
f 205/205/205 204/204/204 202/202/202
f 208/208/208 207/207/207 206/206/206
f 209/209/209 208/208/208 206/206/206
f 212/212/212 211/211/211 210/210/210
f 213/213/213 212/212/212 210/210/210
f 216/216/216 215/215/215 214/214/214
f 217/217/217 216/216/216 214/214/214
f 220/220/220 219/219/219 218/218/218
f 221/221/221 220/220/220 218/218/218
f 224/224/224 223/223/223 222/222/222
f 225/225/225 224/224/224 222/222/222
f 228/228/228 227/227/227 226/226/226
f 229/229/229 228/228/228 226/226/226
f 232/232/232 231/231/231 230/230/230
f 233/233/233 232/232/232 230/230/230
f 236/236/236 235/235/235 234/234/234
f 237/237/237 236/236/236 234/234/234
f 240/240/240 239/239/239 238/238/238
f 241/241/241 240/240/240 238/238/238
f 244/244/244 243/243/243 242/242/242
f 245/245/245 244/244/244 242/242/242
f 248/248/248 247/247/247 246/246/246
f 249/249/249 248/248/248 246/246/246
f 252/252/252 251/251/251 250/250/250
f 253/253/253 252/252/252 250/250/250
f 256/256/256 255/255/255 254/254/254
f 257/257/257 256/256/256 254/254/254
f 260/260/260 259/259/259 258/258/258
f 261/261/261 260/260/260 258/258/258
f 264/264/264 263/263/263 262/262/262
f 265/265/265 264/264/264 262/262/262
f 268/268/268 267/267/267 266/266/266
f 269/269/269 268/268/268 266/266/266
f 272/272/272 271/271/271 270/270/270
f 273/273/273 272/272/272 270/270/270
f 276/276/276 275/275/275 274/274/274
f 277/277/277 276/276/276 274/274/274
f 280/280/280 279/279/279 278/278/278
f 281/281/281 280/280/280 278/278/278
f 284/284/284 283/283/283 282/282/282
f 285/285/285 284/284/284 282/282/282
f 288/288/288 287/287/287 286/286/286
f 289/289/289 288/288/288 286/286/286
f 292/292/292 291/291/291 290/290/290
f 293/293/293 292/292/292 290/290/290
